G04 #@! TF.GenerationSoftware,KiCad,Pcbnew,9.0.0*
G04 #@! TF.CreationDate,2025-03-15T23:03:29+01:00*
G04 #@! TF.ProjectId,DMH_VCO_40106_PCB_Conn_Mk2,444d485f-5643-44f5-9f34-303130365f50,1*
G04 #@! TF.SameCoordinates,Original*
G04 #@! TF.FileFunction,Copper,L1,Top*
G04 #@! TF.FilePolarity,Positive*
%FSLAX46Y46*%
G04 Gerber Fmt 4.6, Leading zero omitted, Abs format (unit mm)*
G04 Created by KiCad (PCBNEW 9.0.0) date 2025-03-15 23:03:29*
%MOMM*%
%LPD*%
G01*
G04 APERTURE LIST*
G04 Aperture macros list*
%AMRoundRect*
0 Rectangle with rounded corners*
0 $1 Rounding radius*
0 $2 $3 $4 $5 $6 $7 $8 $9 X,Y pos of 4 corners*
0 Add a 4 corners polygon primitive as box body*
4,1,4,$2,$3,$4,$5,$6,$7,$8,$9,$2,$3,0*
0 Add four circle primitives for the rounded corners*
1,1,$1+$1,$2,$3*
1,1,$1+$1,$4,$5*
1,1,$1+$1,$6,$7*
1,1,$1+$1,$8,$9*
0 Add four rect primitives between the rounded corners*
20,1,$1+$1,$2,$3,$4,$5,0*
20,1,$1+$1,$4,$5,$6,$7,0*
20,1,$1+$1,$6,$7,$8,$9,0*
20,1,$1+$1,$8,$9,$2,$3,0*%
%AMHorizOval*
0 Thick line with rounded ends*
0 $1 width*
0 $2 $3 position (X,Y) of the first rounded end (center of the circle)*
0 $4 $5 position (X,Y) of the second rounded end (center of the circle)*
0 Add line between two ends*
20,1,$1,$2,$3,$4,$5,0*
0 Add two circle primitives to create the rounded ends*
1,1,$1,$2,$3*
1,1,$1,$4,$5*%
G04 Aperture macros list end*
G04 #@! TA.AperFunction,ComponentPad*
%ADD10HorizOval,1.508000X-0.533159X-0.533159X0.533159X0.533159X0*%
G04 #@! TD*
G04 #@! TA.AperFunction,ComponentPad*
%ADD11O,1.508000X3.016000*%
G04 #@! TD*
G04 #@! TA.AperFunction,ComponentPad*
%ADD12O,3.016000X1.508000*%
G04 #@! TD*
G04 #@! TA.AperFunction,ComponentPad*
%ADD13R,1.700000X1.700000*%
G04 #@! TD*
G04 #@! TA.AperFunction,ComponentPad*
%ADD14O,1.700000X1.700000*%
G04 #@! TD*
G04 #@! TA.AperFunction,ComponentPad*
%ADD15C,1.600000*%
G04 #@! TD*
G04 #@! TA.AperFunction,ComponentPad*
%ADD16R,1.600000X1.600000*%
G04 #@! TD*
G04 #@! TA.AperFunction,ComponentPad*
%ADD17O,1.600000X1.600000*%
G04 #@! TD*
G04 #@! TA.AperFunction,ComponentPad*
%ADD18RoundRect,0.250000X0.600000X0.600000X-0.600000X0.600000X-0.600000X-0.600000X0.600000X-0.600000X0*%
G04 #@! TD*
G04 #@! TA.AperFunction,ComponentPad*
%ADD19C,1.700000*%
G04 #@! TD*
G04 #@! TA.AperFunction,Conductor*
%ADD20C,0.300000*%
G04 #@! TD*
G04 APERTURE END LIST*
D10*
X132903810Y-224153810D03*
D11*
X144000000Y-228250000D03*
D12*
X140000000Y-222250000D03*
D10*
X82903810Y-224153810D03*
D11*
X94000000Y-228250000D03*
D12*
X90000000Y-222250000D03*
D10*
X57903810Y-179153810D03*
D11*
X69000000Y-183250000D03*
D12*
X65000000Y-177250000D03*
D10*
X57903810Y-201653810D03*
D11*
X69000000Y-205750000D03*
D12*
X65000000Y-199750000D03*
D10*
X133000000Y-201653810D03*
D11*
X144096190Y-205750000D03*
D12*
X140096190Y-199750000D03*
D10*
X82903810Y-201653810D03*
D11*
X94000000Y-205750000D03*
D12*
X90000000Y-199750000D03*
D10*
X107903810Y-224153810D03*
D11*
X119000000Y-228250000D03*
D12*
X115000000Y-222250000D03*
D10*
X107903810Y-201653810D03*
D11*
X119000000Y-205750000D03*
D12*
X115000000Y-199750000D03*
D10*
X57903810Y-224153810D03*
D11*
X69000000Y-228250000D03*
D12*
X65000000Y-222250000D03*
D13*
X86010000Y-195250000D03*
D14*
X88550000Y-195250000D03*
X91090000Y-195250000D03*
X93630000Y-195250000D03*
X96170000Y-195250000D03*
X98710000Y-195250000D03*
X101250000Y-195250000D03*
X103790000Y-195250000D03*
X106330000Y-195250000D03*
X108870000Y-195250000D03*
X111410000Y-195250000D03*
X113950000Y-195250000D03*
D15*
X118250000Y-220000000D03*
X118250000Y-215000000D03*
D13*
X137500000Y-217500000D03*
X112500000Y-217500000D03*
D16*
X121200000Y-213700000D03*
D17*
X123740000Y-213700000D03*
X126280000Y-213700000D03*
X128820000Y-213700000D03*
X128820000Y-221320000D03*
X126280000Y-221320000D03*
X123740000Y-221320000D03*
X121200000Y-221320000D03*
D18*
X101252500Y-212420000D03*
D19*
X101252500Y-214960000D03*
X101252500Y-217500000D03*
X101252500Y-220040000D03*
X101252500Y-222580000D03*
X98712500Y-212420000D03*
X98712500Y-214960000D03*
X98712500Y-217500000D03*
X98712500Y-220040000D03*
X98712500Y-222580000D03*
D15*
X131750000Y-215000000D03*
X131750000Y-220000000D03*
X125000000Y-199190000D03*
D17*
X125000000Y-206810000D03*
D20*
X69000000Y-193500000D02*
X70750000Y-195250000D01*
X69000000Y-183250000D02*
X69000000Y-193500000D01*
X70750000Y-195250000D02*
X86010000Y-195250000D01*
X108750000Y-195130000D02*
X108870000Y-195250000D01*
X109250000Y-217500000D02*
X115000000Y-211750000D01*
X115000000Y-211750000D02*
X115000000Y-199750000D01*
X101252500Y-217500000D02*
X109250000Y-217500000D01*
X98712500Y-217500000D02*
X100052500Y-218840000D01*
X100052500Y-218840000D02*
X111590000Y-218840000D01*
X111590000Y-218840000D02*
X115000000Y-222250000D01*
X127430000Y-226320000D02*
X127430000Y-214850000D01*
X127430000Y-214850000D02*
X126280000Y-213700000D01*
X69000000Y-205750000D02*
X67250000Y-207500000D01*
X67250000Y-207500000D02*
X67250000Y-229500000D01*
X67250000Y-229500000D02*
X70500000Y-232750000D01*
X121000000Y-232750000D02*
X127430000Y-226320000D01*
X70500000Y-232750000D02*
X121000000Y-232750000D01*
X126280000Y-216280000D02*
X126280000Y-221320000D01*
X123740000Y-213740000D02*
X126280000Y-216280000D01*
X88750000Y-195050000D02*
X88550000Y-195250000D01*
X101250000Y-195250000D02*
X101250000Y-203000000D01*
X101250000Y-203000000D02*
X94000000Y-210250000D01*
X94000000Y-210250000D02*
X94000000Y-228250000D01*
X103790000Y-195250000D02*
X106018553Y-197478553D01*
X115228553Y-197478553D02*
X117000000Y-199250000D01*
X106018553Y-197478553D02*
X115228553Y-197478553D01*
X117000000Y-226250000D02*
X119000000Y-228250000D01*
X117000000Y-199250000D02*
X117000000Y-226250000D01*
X98710000Y-195250000D02*
X98710000Y-198540000D01*
X98710000Y-198540000D02*
X69000000Y-228250000D01*
X117271447Y-196978553D02*
X122250000Y-201957106D01*
X122250000Y-201957106D02*
X128457106Y-201957106D01*
X108058553Y-196978553D02*
X117271447Y-196978553D01*
X106330000Y-195250000D02*
X108058553Y-196978553D01*
X128457106Y-201957106D02*
X144000000Y-217500000D01*
X144000000Y-217500000D02*
X144000000Y-228250000D01*
G04 #@! TA.AperFunction,Conductor*
G36*
X63516913Y-176020185D02*
G01*
X63562668Y-176072989D01*
X63572612Y-176142147D01*
X63543587Y-176205703D01*
X63522761Y-176224816D01*
X63486182Y-176251392D01*
X63428747Y-176293121D01*
X63289115Y-176432753D01*
X63173058Y-176592495D01*
X63083408Y-176768441D01*
X63022389Y-176956236D01*
X62991500Y-177151263D01*
X62991500Y-177348736D01*
X63022389Y-177543763D01*
X63061507Y-177664153D01*
X63083409Y-177731561D01*
X63173056Y-177907501D01*
X63173058Y-177907504D01*
X63289115Y-178067246D01*
X63428753Y-178206884D01*
X63578234Y-178315486D01*
X63588499Y-178322944D01*
X63764439Y-178412591D01*
X63860719Y-178443874D01*
X63952236Y-178473610D01*
X64147264Y-178504500D01*
X64147269Y-178504500D01*
X65852736Y-178504500D01*
X66047763Y-178473610D01*
X66235561Y-178412591D01*
X66411501Y-178322944D01*
X66501192Y-178257779D01*
X66571246Y-178206884D01*
X66571248Y-178206881D01*
X66571252Y-178206879D01*
X66710879Y-178067252D01*
X66710881Y-178067248D01*
X66710884Y-178067246D01*
X66761779Y-177997192D01*
X66826944Y-177907501D01*
X66916591Y-177731561D01*
X66977610Y-177543763D01*
X66991111Y-177458520D01*
X67008500Y-177348736D01*
X67008500Y-177151263D01*
X66977610Y-176956236D01*
X66957270Y-176893637D01*
X66916591Y-176768439D01*
X66826944Y-176592499D01*
X66819486Y-176582234D01*
X66710884Y-176432753D01*
X66571252Y-176293121D01*
X66477240Y-176224817D01*
X66434575Y-176169489D01*
X66428596Y-176099876D01*
X66461201Y-176038080D01*
X66522040Y-176003723D01*
X66550126Y-176000500D01*
X70375500Y-176000500D01*
X70442539Y-176020185D01*
X70488294Y-176072989D01*
X70499500Y-176124500D01*
X70499500Y-182368565D01*
X70479815Y-182435604D01*
X70427011Y-182481359D01*
X70357853Y-182491303D01*
X70294297Y-182462278D01*
X70256523Y-182403500D01*
X70253027Y-182387963D01*
X70223610Y-182202236D01*
X70203270Y-182139637D01*
X70162591Y-182014439D01*
X70072944Y-181838499D01*
X70065486Y-181828234D01*
X69956884Y-181678753D01*
X69817246Y-181539115D01*
X69657504Y-181423058D01*
X69657503Y-181423057D01*
X69657501Y-181423056D01*
X69481561Y-181333409D01*
X69481558Y-181333408D01*
X69293763Y-181272389D01*
X69098736Y-181241500D01*
X69098731Y-181241500D01*
X68901269Y-181241500D01*
X68901264Y-181241500D01*
X68706236Y-181272389D01*
X68518441Y-181333408D01*
X68342495Y-181423058D01*
X68182753Y-181539115D01*
X68043115Y-181678753D01*
X67927058Y-181838495D01*
X67837408Y-182014441D01*
X67776389Y-182202236D01*
X67745500Y-182397263D01*
X67745500Y-184102736D01*
X67776389Y-184297763D01*
X67837408Y-184485558D01*
X67837409Y-184485561D01*
X67927056Y-184661501D01*
X67927058Y-184661504D01*
X68043115Y-184821246D01*
X68182751Y-184960882D01*
X68240453Y-185002803D01*
X68298385Y-185044893D01*
X68341051Y-185100221D01*
X68349500Y-185145211D01*
X68349500Y-193564069D01*
X68349500Y-193564071D01*
X68349499Y-193564071D01*
X68374497Y-193689738D01*
X68374499Y-193689744D01*
X68423535Y-193808127D01*
X68488870Y-193905909D01*
X68494726Y-193914673D01*
X70335326Y-195755273D01*
X70335329Y-195755275D01*
X70335331Y-195755277D01*
X70441873Y-195826465D01*
X70560256Y-195875501D01*
X70560260Y-195875501D01*
X70560261Y-195875502D01*
X70685928Y-195900500D01*
X70685931Y-195900500D01*
X84535501Y-195900500D01*
X84602540Y-195920185D01*
X84648295Y-195972989D01*
X84659501Y-196024500D01*
X84659501Y-196147876D01*
X84665908Y-196207483D01*
X84716202Y-196342328D01*
X84716206Y-196342335D01*
X84802452Y-196457544D01*
X84802455Y-196457547D01*
X84917664Y-196543793D01*
X84917671Y-196543797D01*
X85052517Y-196594091D01*
X85052516Y-196594091D01*
X85059444Y-196594835D01*
X85112127Y-196600500D01*
X86907872Y-196600499D01*
X86967483Y-196594091D01*
X87102331Y-196543796D01*
X87217546Y-196457546D01*
X87303796Y-196342331D01*
X87352810Y-196210916D01*
X87394681Y-196154984D01*
X87460145Y-196130566D01*
X87528418Y-196145417D01*
X87556673Y-196166569D01*
X87670213Y-196280109D01*
X87842179Y-196405048D01*
X87842181Y-196405049D01*
X87842184Y-196405051D01*
X88031588Y-196501557D01*
X88233757Y-196567246D01*
X88443713Y-196600500D01*
X88443714Y-196600500D01*
X88656286Y-196600500D01*
X88656287Y-196600500D01*
X88866243Y-196567246D01*
X89068412Y-196501557D01*
X89257816Y-196405051D01*
X89344138Y-196342335D01*
X89429786Y-196280109D01*
X89429788Y-196280106D01*
X89429792Y-196280104D01*
X89580104Y-196129792D01*
X89580106Y-196129788D01*
X89580109Y-196129786D01*
X89705048Y-195957820D01*
X89705047Y-195957820D01*
X89705051Y-195957816D01*
X89709514Y-195949054D01*
X89757488Y-195898259D01*
X89825308Y-195881463D01*
X89891444Y-195903999D01*
X89930486Y-195949056D01*
X89934951Y-195957820D01*
X90059890Y-196129786D01*
X90210213Y-196280109D01*
X90382179Y-196405048D01*
X90382181Y-196405049D01*
X90382184Y-196405051D01*
X90571588Y-196501557D01*
X90773757Y-196567246D01*
X90983713Y-196600500D01*
X90983714Y-196600500D01*
X91196286Y-196600500D01*
X91196287Y-196600500D01*
X91406243Y-196567246D01*
X91608412Y-196501557D01*
X91797816Y-196405051D01*
X91884138Y-196342335D01*
X91969786Y-196280109D01*
X91969788Y-196280106D01*
X91969792Y-196280104D01*
X92120104Y-196129792D01*
X92120106Y-196129788D01*
X92120109Y-196129786D01*
X92245048Y-195957820D01*
X92245047Y-195957820D01*
X92245051Y-195957816D01*
X92249514Y-195949054D01*
X92297488Y-195898259D01*
X92365308Y-195881463D01*
X92431444Y-195903999D01*
X92470486Y-195949056D01*
X92474951Y-195957820D01*
X92599890Y-196129786D01*
X92750213Y-196280109D01*
X92922179Y-196405048D01*
X92922181Y-196405049D01*
X92922184Y-196405051D01*
X93111588Y-196501557D01*
X93313757Y-196567246D01*
X93523713Y-196600500D01*
X93523714Y-196600500D01*
X93736286Y-196600500D01*
X93736287Y-196600500D01*
X93946243Y-196567246D01*
X94148412Y-196501557D01*
X94337816Y-196405051D01*
X94424138Y-196342335D01*
X94509786Y-196280109D01*
X94509788Y-196280106D01*
X94509792Y-196280104D01*
X94660104Y-196129792D01*
X94660106Y-196129788D01*
X94660109Y-196129786D01*
X94785048Y-195957820D01*
X94785047Y-195957820D01*
X94785051Y-195957816D01*
X94789514Y-195949054D01*
X94837488Y-195898259D01*
X94905308Y-195881463D01*
X94971444Y-195903999D01*
X95010486Y-195949056D01*
X95014951Y-195957820D01*
X95139890Y-196129786D01*
X95290213Y-196280109D01*
X95462179Y-196405048D01*
X95462181Y-196405049D01*
X95462184Y-196405051D01*
X95651588Y-196501557D01*
X95853757Y-196567246D01*
X96063713Y-196600500D01*
X96063714Y-196600500D01*
X96276286Y-196600500D01*
X96276287Y-196600500D01*
X96486243Y-196567246D01*
X96688412Y-196501557D01*
X96877816Y-196405051D01*
X96964138Y-196342335D01*
X97049786Y-196280109D01*
X97049788Y-196280106D01*
X97049792Y-196280104D01*
X97200104Y-196129792D01*
X97200106Y-196129788D01*
X97200109Y-196129786D01*
X97325048Y-195957820D01*
X97325047Y-195957820D01*
X97325051Y-195957816D01*
X97329514Y-195949054D01*
X97377488Y-195898259D01*
X97445308Y-195881463D01*
X97511444Y-195903999D01*
X97550486Y-195949056D01*
X97554951Y-195957820D01*
X97679890Y-196129786D01*
X97679896Y-196129792D01*
X97830208Y-196280104D01*
X98002184Y-196405051D01*
X98002188Y-196405053D01*
X98006126Y-196407914D01*
X98005146Y-196409262D01*
X98047160Y-196455690D01*
X98059500Y-196509617D01*
X98059500Y-198219191D01*
X98039815Y-198286230D01*
X98023181Y-198306872D01*
X69876894Y-226453158D01*
X69815571Y-226486643D01*
X69745879Y-226481659D01*
X69716329Y-226465796D01*
X69657501Y-226423056D01*
X69657499Y-226423055D01*
X69611814Y-226399777D01*
X69481561Y-226333409D01*
X69481558Y-226333408D01*
X69293763Y-226272389D01*
X69098736Y-226241500D01*
X69098731Y-226241500D01*
X68901269Y-226241500D01*
X68901264Y-226241500D01*
X68706236Y-226272389D01*
X68518441Y-226333408D01*
X68342495Y-226423058D01*
X68182753Y-226539115D01*
X68182749Y-226539119D01*
X68112181Y-226609688D01*
X68050858Y-226643173D01*
X67981166Y-226638189D01*
X67925233Y-226596317D01*
X67900816Y-226530853D01*
X67900500Y-226522007D01*
X67900500Y-207820807D01*
X67920185Y-207753768D01*
X67936815Y-207733130D01*
X68123106Y-207546838D01*
X68184427Y-207513355D01*
X68254118Y-207518339D01*
X68283671Y-207534203D01*
X68342499Y-207576944D01*
X68518439Y-207666591D01*
X68643637Y-207707270D01*
X68706236Y-207727610D01*
X68901264Y-207758500D01*
X68901269Y-207758500D01*
X69098736Y-207758500D01*
X69293763Y-207727610D01*
X69481561Y-207666591D01*
X69657501Y-207576944D01*
X69774954Y-207491610D01*
X69817246Y-207460884D01*
X69817248Y-207460881D01*
X69817252Y-207460879D01*
X69956879Y-207321252D01*
X69956881Y-207321248D01*
X69956884Y-207321246D01*
X70007779Y-207251192D01*
X70072944Y-207161501D01*
X70162591Y-206985561D01*
X70223610Y-206797763D01*
X70241727Y-206683377D01*
X70254500Y-206602736D01*
X70254500Y-204897263D01*
X70223610Y-204702236D01*
X70203270Y-204639637D01*
X70162591Y-204514439D01*
X70072944Y-204338499D01*
X70065486Y-204328234D01*
X69956884Y-204178753D01*
X69817246Y-204039115D01*
X69657504Y-203923058D01*
X69657503Y-203923057D01*
X69657501Y-203923056D01*
X69481561Y-203833409D01*
X69481558Y-203833408D01*
X69293763Y-203772389D01*
X69098736Y-203741500D01*
X69098731Y-203741500D01*
X68901269Y-203741500D01*
X68901264Y-203741500D01*
X68706236Y-203772389D01*
X68518441Y-203833408D01*
X68342495Y-203923058D01*
X68182753Y-204039115D01*
X68043115Y-204178753D01*
X67927058Y-204338495D01*
X67837408Y-204514441D01*
X67776389Y-204702236D01*
X67745500Y-204897263D01*
X67745500Y-206033191D01*
X67725815Y-206100230D01*
X67709181Y-206120872D01*
X66744727Y-207085325D01*
X66744724Y-207085328D01*
X66709676Y-207137781D01*
X66709677Y-207137782D01*
X66673534Y-207191874D01*
X66624499Y-207310255D01*
X66624497Y-207310261D01*
X66599500Y-207435928D01*
X66599500Y-221070843D01*
X66579815Y-221137882D01*
X66527011Y-221183637D01*
X66457853Y-221193581D01*
X66416204Y-221178556D01*
X66415842Y-221179268D01*
X66366495Y-221154124D01*
X66235561Y-221087409D01*
X66235558Y-221087408D01*
X66047763Y-221026389D01*
X65852736Y-220995500D01*
X65852731Y-220995500D01*
X64147269Y-220995500D01*
X64147264Y-220995500D01*
X63952236Y-221026389D01*
X63764441Y-221087408D01*
X63588495Y-221177058D01*
X63428753Y-221293115D01*
X63289115Y-221432753D01*
X63173058Y-221592495D01*
X63083408Y-221768441D01*
X63022389Y-221956236D01*
X62991500Y-222151263D01*
X62991500Y-222348736D01*
X63022389Y-222543763D01*
X63083408Y-222731558D01*
X63083409Y-222731561D01*
X63173056Y-222907501D01*
X63173058Y-222907504D01*
X63289115Y-223067246D01*
X63428753Y-223206884D01*
X63539788Y-223287554D01*
X63588499Y-223322944D01*
X63764439Y-223412591D01*
X63860719Y-223443874D01*
X63952236Y-223473610D01*
X64147264Y-223504500D01*
X64147269Y-223504500D01*
X65852736Y-223504500D01*
X66047763Y-223473610D01*
X66082279Y-223462395D01*
X66235561Y-223412591D01*
X66411501Y-223322944D01*
X66411501Y-223322943D01*
X66415842Y-223320732D01*
X66416428Y-223321883D01*
X66478152Y-223305184D01*
X66544755Y-223326298D01*
X66589370Y-223380069D01*
X66599500Y-223429156D01*
X66599500Y-229564070D01*
X66614163Y-229637781D01*
X66614163Y-229637783D01*
X66624497Y-229689736D01*
X66624499Y-229689744D01*
X66673534Y-229808125D01*
X66744726Y-229914673D01*
X70085326Y-233255273D01*
X70085329Y-233255275D01*
X70085331Y-233255277D01*
X70191873Y-233326465D01*
X70310256Y-233375501D01*
X70310260Y-233375501D01*
X70310261Y-233375502D01*
X70435928Y-233400500D01*
X70435931Y-233400500D01*
X121064071Y-233400500D01*
X121148615Y-233383682D01*
X121189744Y-233375501D01*
X121308127Y-233326465D01*
X121414669Y-233255277D01*
X127935276Y-226734669D01*
X128006465Y-226628127D01*
X128055501Y-226509744D01*
X128069425Y-226439744D01*
X128080500Y-226384069D01*
X128080500Y-224588277D01*
X131116651Y-224588277D01*
X131116651Y-224785660D01*
X131147529Y-224980616D01*
X131208521Y-225168335D01*
X131208522Y-225168338D01*
X131298134Y-225344210D01*
X131324106Y-225379958D01*
X131324107Y-225379958D01*
X131890517Y-224813547D01*
X131907555Y-224877132D01*
X131973381Y-224991147D01*
X132066473Y-225084239D01*
X132180488Y-225150065D01*
X132244069Y-225167101D01*
X131677660Y-225733510D01*
X131677660Y-225733511D01*
X131713415Y-225759488D01*
X131889281Y-225849097D01*
X131889284Y-225849098D01*
X132077003Y-225910090D01*
X132271960Y-225940969D01*
X132469342Y-225940969D01*
X132664298Y-225910090D01*
X132852017Y-225849098D01*
X132852020Y-225849097D01*
X133027890Y-225759486D01*
X133187578Y-225643464D01*
X133187579Y-225643464D01*
X133613745Y-225217298D01*
X133613745Y-225217297D01*
X133080586Y-224684139D01*
X133434139Y-224330586D01*
X133967297Y-224863745D01*
X134393463Y-224437579D01*
X134393463Y-224437578D01*
X134509485Y-224277889D01*
X134509489Y-224277883D01*
X134599097Y-224102021D01*
X134599099Y-224102015D01*
X134660090Y-223914300D01*
X134690969Y-223719343D01*
X134690969Y-223521959D01*
X134660090Y-223327003D01*
X134599098Y-223139284D01*
X134599097Y-223139281D01*
X134509489Y-222963419D01*
X134509481Y-222963406D01*
X134483511Y-222927661D01*
X134483510Y-222927660D01*
X133917102Y-223494068D01*
X133900066Y-223430488D01*
X133834240Y-223316472D01*
X133741148Y-223223380D01*
X133627132Y-223157554D01*
X133563548Y-223140516D01*
X134129958Y-222574108D01*
X134094208Y-222548134D01*
X133918338Y-222458522D01*
X133918335Y-222458521D01*
X133730616Y-222397529D01*
X133535660Y-222366651D01*
X133338277Y-222366651D01*
X133143319Y-222397529D01*
X132955604Y-222458520D01*
X132955598Y-222458522D01*
X132779736Y-222548130D01*
X132779730Y-222548134D01*
X132620044Y-222664153D01*
X132193874Y-223090321D01*
X132727033Y-223623480D01*
X132373480Y-223977033D01*
X131840321Y-223443874D01*
X131840320Y-223443874D01*
X131414156Y-223870039D01*
X131414155Y-223870041D01*
X131298133Y-224029729D01*
X131208522Y-224205599D01*
X131208521Y-224205602D01*
X131147529Y-224393321D01*
X131116651Y-224588277D01*
X128080500Y-224588277D01*
X128080500Y-222605140D01*
X128100185Y-222538101D01*
X128152989Y-222492346D01*
X128222147Y-222482402D01*
X128260796Y-222494656D01*
X128320774Y-222525217D01*
X128320777Y-222525217D01*
X128320781Y-222525220D01*
X128455245Y-222568910D01*
X128515465Y-222588477D01*
X128616557Y-222604488D01*
X128717648Y-222620500D01*
X128717649Y-222620500D01*
X128922351Y-222620500D01*
X128922352Y-222620500D01*
X129124534Y-222588477D01*
X129319219Y-222525220D01*
X129501610Y-222432287D01*
X129616616Y-222348731D01*
X129667213Y-222311971D01*
X129667215Y-222311968D01*
X129667219Y-222311966D01*
X129811966Y-222167219D01*
X129823559Y-222151263D01*
X137991500Y-222151263D01*
X137991500Y-222348736D01*
X138022389Y-222543763D01*
X138083408Y-222731558D01*
X138083409Y-222731561D01*
X138173056Y-222907501D01*
X138173058Y-222907504D01*
X138289115Y-223067246D01*
X138428753Y-223206884D01*
X138539788Y-223287554D01*
X138588499Y-223322944D01*
X138764439Y-223412591D01*
X138860719Y-223443874D01*
X138952236Y-223473610D01*
X139147264Y-223504500D01*
X139147269Y-223504500D01*
X140852736Y-223504500D01*
X141047763Y-223473610D01*
X141082279Y-223462395D01*
X141235561Y-223412591D01*
X141411501Y-223322944D01*
X141543342Y-223227157D01*
X141571246Y-223206884D01*
X141571248Y-223206881D01*
X141571252Y-223206879D01*
X141710879Y-223067252D01*
X141710881Y-223067248D01*
X141710884Y-223067246D01*
X141774199Y-222980099D01*
X141826944Y-222907501D01*
X141916591Y-222731561D01*
X141977610Y-222543763D01*
X141980570Y-222525076D01*
X142008500Y-222348736D01*
X142008500Y-222151263D01*
X141977610Y-221956236D01*
X141950382Y-221872439D01*
X141916591Y-221768439D01*
X141826944Y-221592499D01*
X141784203Y-221533670D01*
X141710884Y-221432753D01*
X141571246Y-221293115D01*
X141411504Y-221177058D01*
X141411503Y-221177057D01*
X141411501Y-221177056D01*
X141235561Y-221087409D01*
X141235558Y-221087408D01*
X141047763Y-221026389D01*
X140852736Y-220995500D01*
X140852731Y-220995500D01*
X139147269Y-220995500D01*
X139147264Y-220995500D01*
X138952236Y-221026389D01*
X138764441Y-221087408D01*
X138588495Y-221177058D01*
X138428753Y-221293115D01*
X138289115Y-221432753D01*
X138173058Y-221592495D01*
X138083408Y-221768441D01*
X138022389Y-221956236D01*
X137991500Y-222151263D01*
X129823559Y-222151263D01*
X129932287Y-222001610D01*
X130025220Y-221819219D01*
X130088477Y-221624534D01*
X130120500Y-221422352D01*
X130120500Y-221217648D01*
X130088477Y-221015466D01*
X130080841Y-220991966D01*
X130025218Y-220820776D01*
X129960621Y-220693999D01*
X129932287Y-220638390D01*
X129874182Y-220558414D01*
X129811971Y-220472786D01*
X129667213Y-220328028D01*
X129501613Y-220207715D01*
X129501612Y-220207714D01*
X129501610Y-220207713D01*
X129444653Y-220178691D01*
X129319223Y-220114781D01*
X129124534Y-220051522D01*
X128949995Y-220023878D01*
X128922352Y-220019500D01*
X128717648Y-220019500D01*
X128693329Y-220023351D01*
X128515465Y-220051522D01*
X128320773Y-220114782D01*
X128260794Y-220145344D01*
X128258089Y-220145851D01*
X128256011Y-220147653D01*
X128223957Y-220152261D01*
X128192125Y-220158240D01*
X128189576Y-220157205D01*
X128186853Y-220157597D01*
X128157387Y-220144140D01*
X128127385Y-220131963D01*
X128125800Y-220129715D01*
X128123297Y-220128572D01*
X128105785Y-220101323D01*
X128087128Y-220074857D01*
X128086555Y-220071400D01*
X128085523Y-220069794D01*
X128080500Y-220034859D01*
X128080500Y-219897682D01*
X130450000Y-219897682D01*
X130450000Y-220102317D01*
X130482009Y-220304417D01*
X130545244Y-220499031D01*
X130638141Y-220681350D01*
X130638147Y-220681359D01*
X130670523Y-220725921D01*
X130670524Y-220725922D01*
X131350000Y-220046446D01*
X131350000Y-220052661D01*
X131377259Y-220154394D01*
X131429920Y-220245606D01*
X131504394Y-220320080D01*
X131595606Y-220372741D01*
X131697339Y-220400000D01*
X131703553Y-220400000D01*
X131024076Y-221079474D01*
X131068650Y-221111859D01*
X131250968Y-221204755D01*
X131445582Y-221267990D01*
X131647683Y-221300000D01*
X131852317Y-221300000D01*
X132054417Y-221267990D01*
X132249031Y-221204755D01*
X132431349Y-221111859D01*
X132475921Y-221079474D01*
X131796447Y-220400000D01*
X131802661Y-220400000D01*
X131904394Y-220372741D01*
X131995606Y-220320080D01*
X132070080Y-220245606D01*
X132122741Y-220154394D01*
X132150000Y-220052661D01*
X132150000Y-220046448D01*
X132829474Y-220725922D01*
X132829474Y-220725921D01*
X132861859Y-220681349D01*
X132954755Y-220499031D01*
X133017990Y-220304417D01*
X133050000Y-220102317D01*
X133050000Y-219897682D01*
X133017990Y-219695582D01*
X132954755Y-219500968D01*
X132861859Y-219318650D01*
X132829474Y-219274077D01*
X132829474Y-219274076D01*
X132150000Y-219953551D01*
X132150000Y-219947339D01*
X132122741Y-219845606D01*
X132070080Y-219754394D01*
X131995606Y-219679920D01*
X131904394Y-219627259D01*
X131802661Y-219600000D01*
X131796446Y-219600000D01*
X132475922Y-218920524D01*
X132475921Y-218920523D01*
X132431359Y-218888147D01*
X132431350Y-218888141D01*
X132249031Y-218795244D01*
X132054417Y-218732009D01*
X131852317Y-218700000D01*
X131647683Y-218700000D01*
X131445582Y-218732009D01*
X131250968Y-218795244D01*
X131068644Y-218888143D01*
X131024077Y-218920523D01*
X131024077Y-218920524D01*
X131703554Y-219600000D01*
X131697339Y-219600000D01*
X131595606Y-219627259D01*
X131504394Y-219679920D01*
X131429920Y-219754394D01*
X131377259Y-219845606D01*
X131350000Y-219947339D01*
X131350000Y-219953553D01*
X130670524Y-219274077D01*
X130670523Y-219274077D01*
X130638143Y-219318644D01*
X130545244Y-219500968D01*
X130482009Y-219695582D01*
X130450000Y-219897682D01*
X128080500Y-219897682D01*
X128080500Y-216602135D01*
X136149500Y-216602135D01*
X136149500Y-218397870D01*
X136149501Y-218397876D01*
X136155908Y-218457483D01*
X136206202Y-218592328D01*
X136206206Y-218592335D01*
X136292452Y-218707544D01*
X136292455Y-218707547D01*
X136407664Y-218793793D01*
X136407671Y-218793797D01*
X136542517Y-218844091D01*
X136542516Y-218844091D01*
X136549444Y-218844835D01*
X136602127Y-218850500D01*
X138397872Y-218850499D01*
X138457483Y-218844091D01*
X138592331Y-218793796D01*
X138707546Y-218707546D01*
X138793796Y-218592331D01*
X138844091Y-218457483D01*
X138850500Y-218397873D01*
X138850499Y-216602128D01*
X138844091Y-216542517D01*
X138833129Y-216513127D01*
X138793797Y-216407671D01*
X138793793Y-216407664D01*
X138707547Y-216292455D01*
X138707544Y-216292452D01*
X138592335Y-216206206D01*
X138592328Y-216206202D01*
X138457482Y-216155908D01*
X138457483Y-216155908D01*
X138397883Y-216149501D01*
X138397881Y-216149500D01*
X138397873Y-216149500D01*
X138397864Y-216149500D01*
X136602129Y-216149500D01*
X136602123Y-216149501D01*
X136542516Y-216155908D01*
X136407671Y-216206202D01*
X136407664Y-216206206D01*
X136292455Y-216292452D01*
X136292452Y-216292455D01*
X136206206Y-216407664D01*
X136206202Y-216407671D01*
X136155908Y-216542517D01*
X136149642Y-216600808D01*
X136149501Y-216602123D01*
X136149500Y-216602135D01*
X128080500Y-216602135D01*
X128080500Y-214985140D01*
X128100185Y-214918101D01*
X128152989Y-214872346D01*
X128222147Y-214862402D01*
X128260796Y-214874656D01*
X128320774Y-214905217D01*
X128320777Y-214905217D01*
X128320781Y-214905220D01*
X128439506Y-214943796D01*
X128515465Y-214968477D01*
X128616557Y-214984488D01*
X128717648Y-215000500D01*
X128717649Y-215000500D01*
X128922351Y-215000500D01*
X128922352Y-215000500D01*
X129124534Y-214968477D01*
X129319219Y-214905220D01*
X129334080Y-214897648D01*
X130449500Y-214897648D01*
X130449500Y-215102352D01*
X130453878Y-215129995D01*
X130481522Y-215304534D01*
X130544781Y-215499223D01*
X130637715Y-215681613D01*
X130758028Y-215847213D01*
X130902786Y-215991971D01*
X131019836Y-216077011D01*
X131068390Y-216112287D01*
X131154001Y-216155908D01*
X131250776Y-216205218D01*
X131250778Y-216205218D01*
X131250781Y-216205220D01*
X131296405Y-216220044D01*
X131445465Y-216268477D01*
X131546557Y-216284488D01*
X131647648Y-216300500D01*
X131647649Y-216300500D01*
X131852351Y-216300500D01*
X131852352Y-216300500D01*
X132054534Y-216268477D01*
X132249219Y-216205220D01*
X132431610Y-216112287D01*
X132524590Y-216044732D01*
X132597213Y-215991971D01*
X132597215Y-215991968D01*
X132597219Y-215991966D01*
X132741966Y-215847219D01*
X132741968Y-215847215D01*
X132741971Y-215847213D01*
X132794732Y-215774590D01*
X132862287Y-215681610D01*
X132955220Y-215499219D01*
X133018477Y-215304534D01*
X133050500Y-215102352D01*
X133050500Y-214897648D01*
X133046858Y-214874656D01*
X133018477Y-214695465D01*
X132970520Y-214547870D01*
X132955220Y-214500781D01*
X132955218Y-214500778D01*
X132955218Y-214500776D01*
X132921503Y-214434607D01*
X132862287Y-214318390D01*
X132830092Y-214274077D01*
X132741971Y-214152786D01*
X132597213Y-214008028D01*
X132431613Y-213887715D01*
X132431612Y-213887714D01*
X132431610Y-213887713D01*
X132374653Y-213858691D01*
X132249223Y-213794781D01*
X132054534Y-213731522D01*
X131879995Y-213703878D01*
X131852352Y-213699500D01*
X131647648Y-213699500D01*
X131623329Y-213703351D01*
X131445465Y-213731522D01*
X131250776Y-213794781D01*
X131068386Y-213887715D01*
X130902786Y-214008028D01*
X130758028Y-214152786D01*
X130637715Y-214318386D01*
X130544781Y-214500776D01*
X130481522Y-214695465D01*
X130453142Y-214874656D01*
X130449500Y-214897648D01*
X129334080Y-214897648D01*
X129501610Y-214812287D01*
X129512560Y-214804331D01*
X129528905Y-214792457D01*
X129528905Y-214792456D01*
X129563153Y-214767574D01*
X129667219Y-214691966D01*
X129811966Y-214547219D01*
X129811968Y-214547215D01*
X129811971Y-214547213D01*
X129872670Y-214463666D01*
X129932287Y-214381610D01*
X130025220Y-214199219D01*
X130088477Y-214004534D01*
X130120500Y-213802352D01*
X130120500Y-213597648D01*
X130088477Y-213395466D01*
X130025220Y-213200781D01*
X130025218Y-213200778D01*
X130025218Y-213200776D01*
X129979515Y-213111080D01*
X129932287Y-213018390D01*
X129874182Y-212938414D01*
X129811971Y-212852786D01*
X129667213Y-212708028D01*
X129501613Y-212587715D01*
X129501612Y-212587714D01*
X129501610Y-212587713D01*
X129444653Y-212558691D01*
X129319223Y-212494781D01*
X129124534Y-212431522D01*
X128949995Y-212403878D01*
X128922352Y-212399500D01*
X128717648Y-212399500D01*
X128693329Y-212403351D01*
X128515465Y-212431522D01*
X128320776Y-212494781D01*
X128138386Y-212587715D01*
X127972786Y-212708028D01*
X127828028Y-212852786D01*
X127707715Y-213018386D01*
X127660485Y-213111080D01*
X127612510Y-213161876D01*
X127544689Y-213178671D01*
X127478554Y-213156134D01*
X127439515Y-213111080D01*
X127438883Y-213109840D01*
X127392287Y-213018390D01*
X127334182Y-212938414D01*
X127271971Y-212852786D01*
X127127213Y-212708028D01*
X126961613Y-212587715D01*
X126961612Y-212587714D01*
X126961610Y-212587713D01*
X126904653Y-212558691D01*
X126779223Y-212494781D01*
X126584534Y-212431522D01*
X126409995Y-212403878D01*
X126382352Y-212399500D01*
X126177648Y-212399500D01*
X126153329Y-212403351D01*
X125975465Y-212431522D01*
X125780776Y-212494781D01*
X125598386Y-212587715D01*
X125432786Y-212708028D01*
X125288028Y-212852786D01*
X125167715Y-213018386D01*
X125120485Y-213111080D01*
X125072510Y-213161876D01*
X125004689Y-213178671D01*
X124938554Y-213156134D01*
X124899515Y-213111080D01*
X124898883Y-213109840D01*
X124852287Y-213018390D01*
X124794182Y-212938414D01*
X124731971Y-212852786D01*
X124587213Y-212708028D01*
X124421613Y-212587715D01*
X124421612Y-212587714D01*
X124421610Y-212587713D01*
X124364653Y-212558691D01*
X124239223Y-212494781D01*
X124044534Y-212431522D01*
X123869995Y-212403878D01*
X123842352Y-212399500D01*
X123637648Y-212399500D01*
X123613329Y-212403351D01*
X123435465Y-212431522D01*
X123240776Y-212494781D01*
X123058386Y-212587715D01*
X122892786Y-212708028D01*
X122748032Y-212852782D01*
X122721668Y-212889070D01*
X122666338Y-212931735D01*
X122596724Y-212937714D01*
X122534929Y-212905108D01*
X122500572Y-212844269D01*
X122498060Y-212829438D01*
X122497640Y-212825533D01*
X122494091Y-212792517D01*
X122443796Y-212657669D01*
X122443795Y-212657668D01*
X122443793Y-212657664D01*
X122357547Y-212542455D01*
X122357544Y-212542452D01*
X122242335Y-212456206D01*
X122242328Y-212456202D01*
X122107482Y-212405908D01*
X122107483Y-212405908D01*
X122047883Y-212399501D01*
X122047881Y-212399500D01*
X122047873Y-212399500D01*
X122047864Y-212399500D01*
X120352129Y-212399500D01*
X120352123Y-212399501D01*
X120292516Y-212405908D01*
X120157671Y-212456202D01*
X120157664Y-212456206D01*
X120042455Y-212542452D01*
X120042452Y-212542455D01*
X119956206Y-212657664D01*
X119956202Y-212657671D01*
X119905908Y-212792517D01*
X119899501Y-212852116D01*
X119899500Y-212852135D01*
X119899500Y-214547870D01*
X119899501Y-214547876D01*
X119905908Y-214607483D01*
X119956202Y-214742328D01*
X119956206Y-214742335D01*
X120042452Y-214857544D01*
X120042455Y-214857547D01*
X120157664Y-214943793D01*
X120157671Y-214943797D01*
X120292517Y-214994091D01*
X120292516Y-214994091D01*
X120299444Y-214994835D01*
X120352127Y-215000500D01*
X122047872Y-215000499D01*
X122107483Y-214994091D01*
X122242331Y-214943796D01*
X122357546Y-214857546D01*
X122443796Y-214742331D01*
X122494091Y-214607483D01*
X122498061Y-214570556D01*
X122524796Y-214506011D01*
X122582188Y-214466161D01*
X122652013Y-214463666D01*
X122712102Y-214499317D01*
X122721667Y-214510929D01*
X122748032Y-214547217D01*
X122892786Y-214691971D01*
X123031095Y-214792456D01*
X123058390Y-214812287D01*
X123147212Y-214857544D01*
X123240776Y-214905218D01*
X123240778Y-214905218D01*
X123240781Y-214905220D01*
X123345137Y-214939127D01*
X123435465Y-214968477D01*
X123536557Y-214984488D01*
X123637648Y-215000500D01*
X123637649Y-215000500D01*
X123842351Y-215000500D01*
X123842352Y-215000500D01*
X123985582Y-214977814D01*
X124054874Y-214986768D01*
X124092660Y-215012606D01*
X125593181Y-216513127D01*
X125626666Y-216574450D01*
X125629500Y-216600808D01*
X125629500Y-220121928D01*
X125609815Y-220188967D01*
X125578385Y-220222246D01*
X125432787Y-220328028D01*
X125432782Y-220328032D01*
X125288028Y-220472786D01*
X125167715Y-220638386D01*
X125120485Y-220731080D01*
X125072510Y-220781876D01*
X125004689Y-220798671D01*
X124938554Y-220776134D01*
X124899515Y-220731080D01*
X124880621Y-220693999D01*
X124852287Y-220638390D01*
X124794182Y-220558414D01*
X124731971Y-220472786D01*
X124587213Y-220328028D01*
X124421613Y-220207715D01*
X124421612Y-220207714D01*
X124421610Y-220207713D01*
X124364653Y-220178691D01*
X124239223Y-220114781D01*
X124044534Y-220051522D01*
X123869995Y-220023878D01*
X123842352Y-220019500D01*
X123637648Y-220019500D01*
X123613329Y-220023351D01*
X123435465Y-220051522D01*
X123240776Y-220114781D01*
X123058386Y-220207715D01*
X122892786Y-220328028D01*
X122748028Y-220472786D01*
X122627715Y-220638386D01*
X122580485Y-220731080D01*
X122532510Y-220781876D01*
X122464689Y-220798671D01*
X122398554Y-220776134D01*
X122359515Y-220731080D01*
X122340621Y-220693999D01*
X122312287Y-220638390D01*
X122254182Y-220558414D01*
X122191971Y-220472786D01*
X122047213Y-220328028D01*
X121881613Y-220207715D01*
X121881612Y-220207714D01*
X121881610Y-220207713D01*
X121824653Y-220178691D01*
X121699223Y-220114781D01*
X121504534Y-220051522D01*
X121329995Y-220023878D01*
X121302352Y-220019500D01*
X121097648Y-220019500D01*
X121073329Y-220023351D01*
X120895465Y-220051522D01*
X120700776Y-220114781D01*
X120518386Y-220207715D01*
X120352786Y-220328028D01*
X120208028Y-220472786D01*
X120087715Y-220638386D01*
X119994781Y-220820776D01*
X119931522Y-221015465D01*
X119903079Y-221195049D01*
X119899500Y-221217648D01*
X119899500Y-221422352D01*
X119899979Y-221425376D01*
X119931522Y-221624534D01*
X119994781Y-221819223D01*
X120087715Y-222001613D01*
X120208028Y-222167213D01*
X120352786Y-222311971D01*
X120470549Y-222397529D01*
X120518390Y-222432287D01*
X120616746Y-222482402D01*
X120700776Y-222525218D01*
X120700778Y-222525218D01*
X120700781Y-222525220D01*
X120771291Y-222548130D01*
X120895465Y-222588477D01*
X120996557Y-222604488D01*
X121097648Y-222620500D01*
X121097649Y-222620500D01*
X121302351Y-222620500D01*
X121302352Y-222620500D01*
X121504534Y-222588477D01*
X121699219Y-222525220D01*
X121881610Y-222432287D01*
X121996616Y-222348731D01*
X122047213Y-222311971D01*
X122047215Y-222311968D01*
X122047219Y-222311966D01*
X122191966Y-222167219D01*
X122191968Y-222167215D01*
X122191971Y-222167213D01*
X122312284Y-222001614D01*
X122312285Y-222001613D01*
X122312287Y-222001610D01*
X122359516Y-221908917D01*
X122407489Y-221858123D01*
X122475310Y-221841328D01*
X122541445Y-221863865D01*
X122580483Y-221908917D01*
X122601232Y-221949638D01*
X122627715Y-222001614D01*
X122748028Y-222167213D01*
X122892786Y-222311971D01*
X123010549Y-222397529D01*
X123058390Y-222432287D01*
X123156746Y-222482402D01*
X123240776Y-222525218D01*
X123240778Y-222525218D01*
X123240781Y-222525220D01*
X123311291Y-222548130D01*
X123435465Y-222588477D01*
X123536557Y-222604488D01*
X123637648Y-222620500D01*
X123637649Y-222620500D01*
X123842351Y-222620500D01*
X123842352Y-222620500D01*
X124044534Y-222588477D01*
X124239219Y-222525220D01*
X124421610Y-222432287D01*
X124536616Y-222348731D01*
X124587213Y-222311971D01*
X124587215Y-222311968D01*
X124587219Y-222311966D01*
X124731966Y-222167219D01*
X124731968Y-222167215D01*
X124731971Y-222167213D01*
X124852284Y-222001614D01*
X124852285Y-222001613D01*
X124852287Y-222001610D01*
X124899516Y-221908917D01*
X124947489Y-221858123D01*
X125015310Y-221841328D01*
X125081445Y-221863865D01*
X125120483Y-221908917D01*
X125141232Y-221949638D01*
X125167715Y-222001614D01*
X125288028Y-222167213D01*
X125432786Y-222311971D01*
X125550549Y-222397529D01*
X125598390Y-222432287D01*
X125696746Y-222482402D01*
X125780776Y-222525218D01*
X125780778Y-222525218D01*
X125780781Y-222525220D01*
X125851291Y-222548130D01*
X125975465Y-222588477D01*
X126076557Y-222604488D01*
X126177648Y-222620500D01*
X126177649Y-222620500D01*
X126382351Y-222620500D01*
X126382352Y-222620500D01*
X126584534Y-222588477D01*
X126584539Y-222588475D01*
X126584541Y-222588475D01*
X126617180Y-222577870D01*
X126687021Y-222575873D01*
X126746855Y-222611953D01*
X126777684Y-222674653D01*
X126779500Y-222695800D01*
X126779500Y-225999192D01*
X126759815Y-226066231D01*
X126743181Y-226086873D01*
X120766873Y-232063181D01*
X120705550Y-232096666D01*
X120679192Y-232099500D01*
X70820808Y-232099500D01*
X70753769Y-232079815D01*
X70733127Y-232063181D01*
X69123812Y-230453866D01*
X69090327Y-230392543D01*
X69095311Y-230322851D01*
X69137183Y-230266918D01*
X69192094Y-230243712D01*
X69293763Y-230227610D01*
X69481561Y-230166591D01*
X69657501Y-230076944D01*
X69747192Y-230011779D01*
X69817246Y-229960884D01*
X69817248Y-229960881D01*
X69817252Y-229960879D01*
X69956879Y-229821252D01*
X69956881Y-229821248D01*
X69956884Y-229821246D01*
X70052430Y-229689736D01*
X70072944Y-229661501D01*
X70162591Y-229485561D01*
X70223610Y-229297763D01*
X70254500Y-229102736D01*
X70254500Y-227966808D01*
X70274185Y-227899769D01*
X70290819Y-227879127D01*
X73581669Y-224588277D01*
X81116651Y-224588277D01*
X81116651Y-224785660D01*
X81147529Y-224980616D01*
X81208521Y-225168335D01*
X81208522Y-225168338D01*
X81298134Y-225344210D01*
X81324106Y-225379958D01*
X81324107Y-225379958D01*
X81890517Y-224813547D01*
X81907555Y-224877132D01*
X81973381Y-224991147D01*
X82066473Y-225084239D01*
X82180488Y-225150065D01*
X82244069Y-225167101D01*
X81677660Y-225733510D01*
X81677660Y-225733511D01*
X81713415Y-225759488D01*
X81889281Y-225849097D01*
X81889284Y-225849098D01*
X82077003Y-225910090D01*
X82271960Y-225940969D01*
X82469342Y-225940969D01*
X82664298Y-225910090D01*
X82852017Y-225849098D01*
X82852020Y-225849097D01*
X83027890Y-225759486D01*
X83187578Y-225643464D01*
X83187579Y-225643464D01*
X83613745Y-225217298D01*
X83613745Y-225217297D01*
X83080586Y-224684139D01*
X83434139Y-224330586D01*
X83967298Y-224863745D01*
X84393463Y-224437579D01*
X84393463Y-224437578D01*
X84509485Y-224277889D01*
X84509489Y-224277883D01*
X84599097Y-224102021D01*
X84599099Y-224102015D01*
X84660090Y-223914300D01*
X84690969Y-223719343D01*
X84690969Y-223521959D01*
X84660090Y-223327003D01*
X84599098Y-223139284D01*
X84599097Y-223139281D01*
X84509489Y-222963419D01*
X84509481Y-222963406D01*
X84483511Y-222927661D01*
X84483510Y-222927660D01*
X83917102Y-223494068D01*
X83900066Y-223430488D01*
X83834240Y-223316472D01*
X83741148Y-223223380D01*
X83627132Y-223157554D01*
X83563548Y-223140516D01*
X84129958Y-222574108D01*
X84094208Y-222548134D01*
X83918338Y-222458522D01*
X83918335Y-222458521D01*
X83730616Y-222397529D01*
X83535660Y-222366651D01*
X83338277Y-222366651D01*
X83143319Y-222397529D01*
X82955604Y-222458520D01*
X82955598Y-222458522D01*
X82779736Y-222548130D01*
X82779730Y-222548134D01*
X82620044Y-222664153D01*
X82193874Y-223090321D01*
X82727033Y-223623480D01*
X82373480Y-223977033D01*
X81840321Y-223443874D01*
X81840320Y-223443874D01*
X81414156Y-223870039D01*
X81414155Y-223870041D01*
X81298133Y-224029729D01*
X81208522Y-224205599D01*
X81208521Y-224205602D01*
X81147529Y-224393321D01*
X81116651Y-224588277D01*
X73581669Y-224588277D01*
X76018683Y-222151263D01*
X87991500Y-222151263D01*
X87991500Y-222348736D01*
X88022389Y-222543763D01*
X88083408Y-222731558D01*
X88083409Y-222731561D01*
X88173056Y-222907501D01*
X88173058Y-222907504D01*
X88289115Y-223067246D01*
X88428753Y-223206884D01*
X88539788Y-223287554D01*
X88588499Y-223322944D01*
X88764439Y-223412591D01*
X88860719Y-223443874D01*
X88952236Y-223473610D01*
X89147264Y-223504500D01*
X89147269Y-223504500D01*
X90852736Y-223504500D01*
X91047763Y-223473610D01*
X91082279Y-223462395D01*
X91235561Y-223412591D01*
X91411501Y-223322944D01*
X91543342Y-223227157D01*
X91571246Y-223206884D01*
X91571248Y-223206881D01*
X91571252Y-223206879D01*
X91710879Y-223067252D01*
X91710881Y-223067248D01*
X91710884Y-223067246D01*
X91774199Y-222980099D01*
X91826944Y-222907501D01*
X91916591Y-222731561D01*
X91977610Y-222543763D01*
X91980570Y-222525076D01*
X92008500Y-222348736D01*
X92008500Y-222151263D01*
X91977610Y-221956236D01*
X91950382Y-221872439D01*
X91916591Y-221768439D01*
X91826944Y-221592499D01*
X91784203Y-221533670D01*
X91710884Y-221432753D01*
X91571246Y-221293115D01*
X91411504Y-221177058D01*
X91411503Y-221177057D01*
X91411501Y-221177056D01*
X91235561Y-221087409D01*
X91235558Y-221087408D01*
X91047763Y-221026389D01*
X90852736Y-220995500D01*
X90852731Y-220995500D01*
X89147269Y-220995500D01*
X89147264Y-220995500D01*
X88952236Y-221026389D01*
X88764441Y-221087408D01*
X88588495Y-221177058D01*
X88428753Y-221293115D01*
X88289115Y-221432753D01*
X88173058Y-221592495D01*
X88083408Y-221768441D01*
X88022389Y-221956236D01*
X87991500Y-222151263D01*
X76018683Y-222151263D01*
X92533819Y-205636127D01*
X92595142Y-205602642D01*
X92664834Y-205607626D01*
X92720767Y-205649498D01*
X92745184Y-205714962D01*
X92745500Y-205723808D01*
X92745500Y-206602736D01*
X92776389Y-206797763D01*
X92813622Y-206912352D01*
X92837409Y-206985561D01*
X92927056Y-207161501D01*
X92927058Y-207161504D01*
X93043115Y-207321246D01*
X93182753Y-207460884D01*
X93301064Y-207546840D01*
X93342499Y-207576944D01*
X93518439Y-207666591D01*
X93643637Y-207707270D01*
X93706236Y-207727610D01*
X93901264Y-207758500D01*
X93901269Y-207758500D01*
X94098736Y-207758500D01*
X94293763Y-207727610D01*
X94481561Y-207666591D01*
X94657501Y-207576944D01*
X94774954Y-207491610D01*
X94817246Y-207460884D01*
X94817248Y-207460881D01*
X94817252Y-207460879D01*
X94956879Y-207321252D01*
X94956881Y-207321248D01*
X94956884Y-207321246D01*
X95007779Y-207251192D01*
X95072944Y-207161501D01*
X95162591Y-206985561D01*
X95223610Y-206797763D01*
X95241727Y-206683377D01*
X95254500Y-206602736D01*
X95254500Y-204897263D01*
X95223610Y-204702236D01*
X95203270Y-204639637D01*
X95162591Y-204514439D01*
X95072944Y-204338499D01*
X95065486Y-204328234D01*
X94956884Y-204178753D01*
X94817246Y-204039115D01*
X94657502Y-203923056D01*
X94537555Y-203861939D01*
X94486760Y-203813965D01*
X94469965Y-203746144D01*
X94492503Y-203680009D01*
X94506164Y-203663780D01*
X99215277Y-198954669D01*
X99286465Y-198848127D01*
X99335501Y-198729744D01*
X99360500Y-198604069D01*
X99360500Y-196509617D01*
X99380185Y-196442578D01*
X99414592Y-196408902D01*
X99413874Y-196407914D01*
X99417811Y-196405053D01*
X99417816Y-196405051D01*
X99589792Y-196280104D01*
X99740104Y-196129792D01*
X99740106Y-196129788D01*
X99740109Y-196129786D01*
X99865048Y-195957820D01*
X99865047Y-195957820D01*
X99865051Y-195957816D01*
X99869514Y-195949054D01*
X99917488Y-195898259D01*
X99985308Y-195881463D01*
X100051444Y-195903999D01*
X100090486Y-195949056D01*
X100094951Y-195957820D01*
X100219890Y-196129786D01*
X100219896Y-196129792D01*
X100370208Y-196280104D01*
X100542184Y-196405051D01*
X100542188Y-196405053D01*
X100546126Y-196407914D01*
X100545146Y-196409262D01*
X100587160Y-196455690D01*
X100599500Y-196509617D01*
X100599500Y-202679191D01*
X100579815Y-202746230D01*
X100563181Y-202766872D01*
X93494727Y-209835325D01*
X93494726Y-209835326D01*
X93423534Y-209941874D01*
X93374499Y-210060255D01*
X93374497Y-210060261D01*
X93349500Y-210185928D01*
X93349500Y-226354788D01*
X93329815Y-226421827D01*
X93298386Y-226455105D01*
X93283671Y-226465797D01*
X93182747Y-226539121D01*
X93043115Y-226678753D01*
X92927058Y-226838495D01*
X92837408Y-227014441D01*
X92776389Y-227202236D01*
X92745500Y-227397263D01*
X92745500Y-229102736D01*
X92776389Y-229297763D01*
X92837408Y-229485558D01*
X92837409Y-229485561D01*
X92914971Y-229637783D01*
X92927058Y-229661504D01*
X93043115Y-229821246D01*
X93182753Y-229960884D01*
X93332234Y-230069486D01*
X93342499Y-230076944D01*
X93518439Y-230166591D01*
X93643637Y-230207270D01*
X93706236Y-230227610D01*
X93901264Y-230258500D01*
X93901269Y-230258500D01*
X94098736Y-230258500D01*
X94293763Y-230227610D01*
X94481561Y-230166591D01*
X94657501Y-230076944D01*
X94747192Y-230011779D01*
X94817246Y-229960884D01*
X94817248Y-229960881D01*
X94817252Y-229960879D01*
X94956879Y-229821252D01*
X94956881Y-229821248D01*
X94956884Y-229821246D01*
X95052430Y-229689736D01*
X95072944Y-229661501D01*
X95162591Y-229485561D01*
X95223610Y-229297763D01*
X95254500Y-229102736D01*
X95254500Y-227397263D01*
X95223610Y-227202236D01*
X95203270Y-227139637D01*
X95162591Y-227014439D01*
X95072944Y-226838499D01*
X95065486Y-226828234D01*
X94956884Y-226678753D01*
X94817252Y-226539121D01*
X94793696Y-226522007D01*
X94701614Y-226455105D01*
X94658949Y-226399777D01*
X94650500Y-226354788D01*
X94650500Y-224588277D01*
X106116651Y-224588277D01*
X106116651Y-224785660D01*
X106147529Y-224980616D01*
X106208521Y-225168335D01*
X106208522Y-225168338D01*
X106298134Y-225344210D01*
X106324106Y-225379958D01*
X106324107Y-225379958D01*
X106890517Y-224813547D01*
X106907555Y-224877132D01*
X106973381Y-224991147D01*
X107066473Y-225084239D01*
X107180488Y-225150065D01*
X107244069Y-225167101D01*
X106677660Y-225733510D01*
X106677660Y-225733511D01*
X106713415Y-225759488D01*
X106889281Y-225849097D01*
X106889284Y-225849098D01*
X107077003Y-225910090D01*
X107271960Y-225940969D01*
X107469342Y-225940969D01*
X107664298Y-225910090D01*
X107852017Y-225849098D01*
X107852020Y-225849097D01*
X108027890Y-225759486D01*
X108187578Y-225643464D01*
X108187579Y-225643464D01*
X108613745Y-225217298D01*
X108613745Y-225217297D01*
X108080586Y-224684139D01*
X108434139Y-224330586D01*
X108967298Y-224863745D01*
X109393463Y-224437579D01*
X109393463Y-224437578D01*
X109509485Y-224277889D01*
X109509489Y-224277883D01*
X109599097Y-224102021D01*
X109599099Y-224102015D01*
X109660090Y-223914300D01*
X109690969Y-223719343D01*
X109690969Y-223521959D01*
X109660090Y-223327003D01*
X109599098Y-223139284D01*
X109599097Y-223139281D01*
X109509489Y-222963419D01*
X109509481Y-222963406D01*
X109483511Y-222927661D01*
X109483510Y-222927660D01*
X108917102Y-223494068D01*
X108900066Y-223430488D01*
X108834240Y-223316472D01*
X108741148Y-223223380D01*
X108627132Y-223157554D01*
X108563548Y-223140516D01*
X109129958Y-222574108D01*
X109094208Y-222548134D01*
X108918338Y-222458522D01*
X108918335Y-222458521D01*
X108730616Y-222397529D01*
X108535660Y-222366651D01*
X108338277Y-222366651D01*
X108143319Y-222397529D01*
X107955604Y-222458520D01*
X107955598Y-222458522D01*
X107779736Y-222548130D01*
X107779730Y-222548134D01*
X107620044Y-222664153D01*
X107193874Y-223090321D01*
X107727033Y-223623480D01*
X107373480Y-223977033D01*
X106840321Y-223443874D01*
X106840320Y-223443874D01*
X106414156Y-223870039D01*
X106414155Y-223870041D01*
X106298133Y-224029729D01*
X106208522Y-224205599D01*
X106208521Y-224205602D01*
X106147529Y-224393321D01*
X106116651Y-224588277D01*
X94650500Y-224588277D01*
X94650500Y-210570808D01*
X94670185Y-210503769D01*
X94686819Y-210483127D01*
X101755271Y-203414675D01*
X101755276Y-203414670D01*
X101826465Y-203308127D01*
X101875501Y-203189744D01*
X101900500Y-203064069D01*
X101900500Y-202088277D01*
X106116651Y-202088277D01*
X106116651Y-202285660D01*
X106147529Y-202480616D01*
X106208521Y-202668335D01*
X106208522Y-202668338D01*
X106298134Y-202844210D01*
X106324106Y-202879958D01*
X106324107Y-202879958D01*
X106890517Y-202313547D01*
X106907555Y-202377132D01*
X106973381Y-202491147D01*
X107066473Y-202584239D01*
X107180488Y-202650065D01*
X107244069Y-202667101D01*
X106677660Y-203233510D01*
X106677660Y-203233511D01*
X106713415Y-203259488D01*
X106889281Y-203349097D01*
X106889284Y-203349098D01*
X107077003Y-203410090D01*
X107271960Y-203440969D01*
X107469342Y-203440969D01*
X107664298Y-203410090D01*
X107852017Y-203349098D01*
X107852020Y-203349097D01*
X108027890Y-203259486D01*
X108187578Y-203143464D01*
X108187579Y-203143464D01*
X108613745Y-202717298D01*
X108613745Y-202717297D01*
X108080586Y-202184139D01*
X108434139Y-201830586D01*
X108967298Y-202363745D01*
X109393463Y-201937579D01*
X109393463Y-201937578D01*
X109509485Y-201777889D01*
X109509489Y-201777883D01*
X109599097Y-201602021D01*
X109599099Y-201602015D01*
X109660090Y-201414300D01*
X109690969Y-201219343D01*
X109690969Y-201021959D01*
X109660090Y-200827003D01*
X109599098Y-200639284D01*
X109599097Y-200639281D01*
X109509489Y-200463419D01*
X109509481Y-200463406D01*
X109483511Y-200427661D01*
X109483510Y-200427660D01*
X108917102Y-200994068D01*
X108900066Y-200930488D01*
X108834240Y-200816472D01*
X108741148Y-200723380D01*
X108627132Y-200657554D01*
X108563548Y-200640516D01*
X109129958Y-200074108D01*
X109094208Y-200048134D01*
X108918338Y-199958522D01*
X108918335Y-199958521D01*
X108730616Y-199897529D01*
X108535660Y-199866651D01*
X108338277Y-199866651D01*
X108143319Y-199897529D01*
X107955604Y-199958520D01*
X107955598Y-199958522D01*
X107779736Y-200048130D01*
X107779730Y-200048134D01*
X107620044Y-200164153D01*
X107193874Y-200590321D01*
X107727033Y-201123480D01*
X107373480Y-201477033D01*
X106840321Y-200943874D01*
X106840320Y-200943874D01*
X106414156Y-201370039D01*
X106414155Y-201370041D01*
X106298133Y-201529729D01*
X106208522Y-201705599D01*
X106208521Y-201705602D01*
X106147529Y-201893321D01*
X106116651Y-202088277D01*
X101900500Y-202088277D01*
X101900500Y-196509617D01*
X101920185Y-196442578D01*
X101954592Y-196408902D01*
X101953874Y-196407914D01*
X101957811Y-196405053D01*
X101957816Y-196405051D01*
X102129792Y-196280104D01*
X102280104Y-196129792D01*
X102280106Y-196129788D01*
X102280109Y-196129786D01*
X102405048Y-195957820D01*
X102405047Y-195957820D01*
X102405051Y-195957816D01*
X102409514Y-195949054D01*
X102457488Y-195898259D01*
X102525308Y-195881463D01*
X102591444Y-195903999D01*
X102630486Y-195949056D01*
X102634951Y-195957820D01*
X102759890Y-196129786D01*
X102910213Y-196280109D01*
X103082179Y-196405048D01*
X103082181Y-196405049D01*
X103082184Y-196405051D01*
X103271588Y-196501557D01*
X103473757Y-196567246D01*
X103683713Y-196600500D01*
X103683714Y-196600500D01*
X103896286Y-196600500D01*
X103896287Y-196600500D01*
X104006111Y-196583105D01*
X104111055Y-196566484D01*
X104111315Y-196568128D01*
X104173852Y-196571250D01*
X104220711Y-196600657D01*
X105603878Y-197983825D01*
X105603881Y-197983828D01*
X105603884Y-197983830D01*
X105680052Y-198034723D01*
X105710426Y-198055018D01*
X105828809Y-198104054D01*
X105828813Y-198104054D01*
X105828814Y-198104055D01*
X105954481Y-198129053D01*
X105954484Y-198129053D01*
X114907745Y-198129053D01*
X114937185Y-198137697D01*
X114967172Y-198144221D01*
X114972187Y-198147975D01*
X114974784Y-198148738D01*
X114995426Y-198165372D01*
X115113873Y-198283819D01*
X115147358Y-198345142D01*
X115142374Y-198414834D01*
X115100502Y-198470767D01*
X115035038Y-198495184D01*
X115026192Y-198495500D01*
X114147264Y-198495500D01*
X113952236Y-198526389D01*
X113764441Y-198587408D01*
X113588495Y-198677058D01*
X113428753Y-198793115D01*
X113289115Y-198932753D01*
X113173058Y-199092495D01*
X113083408Y-199268441D01*
X113022389Y-199456236D01*
X112991500Y-199651263D01*
X112991500Y-199848736D01*
X113022389Y-200043763D01*
X113061507Y-200164153D01*
X113083409Y-200231561D01*
X113166562Y-200394755D01*
X113173058Y-200407504D01*
X113289115Y-200567246D01*
X113428753Y-200706884D01*
X113578234Y-200815486D01*
X113588499Y-200822944D01*
X113764439Y-200912591D01*
X113860719Y-200943874D01*
X113952236Y-200973610D01*
X114147264Y-201004500D01*
X114147269Y-201004500D01*
X114225500Y-201004500D01*
X114292539Y-201024185D01*
X114338294Y-201076989D01*
X114349500Y-201128500D01*
X114349500Y-211429192D01*
X114329815Y-211496231D01*
X114313181Y-211516873D01*
X109016873Y-216813181D01*
X108955550Y-216846666D01*
X108929192Y-216849500D01*
X102512118Y-216849500D01*
X102445079Y-216829815D01*
X102411400Y-216795408D01*
X102410415Y-216796125D01*
X102282609Y-216620213D01*
X102132286Y-216469890D01*
X101960320Y-216344951D01*
X101956063Y-216342782D01*
X101951554Y-216340485D01*
X101900759Y-216292512D01*
X101883963Y-216224692D01*
X101906499Y-216158556D01*
X101951554Y-216119515D01*
X101960316Y-216115051D01*
X102012674Y-216077011D01*
X102132286Y-215990109D01*
X102132288Y-215990106D01*
X102132292Y-215990104D01*
X102282604Y-215839792D01*
X102282606Y-215839788D01*
X102282609Y-215839786D01*
X102407548Y-215667820D01*
X102407547Y-215667820D01*
X102407551Y-215667816D01*
X102504057Y-215478412D01*
X102569746Y-215276243D01*
X102603000Y-215066287D01*
X102603000Y-214853713D01*
X102569746Y-214643757D01*
X102504057Y-214441588D01*
X102407551Y-214252184D01*
X102407549Y-214252181D01*
X102407548Y-214252179D01*
X102282609Y-214080213D01*
X102132290Y-213929894D01*
X102132285Y-213929890D01*
X102127391Y-213926334D01*
X102084727Y-213871003D01*
X102078749Y-213801390D01*
X102111357Y-213739595D01*
X102161274Y-213708312D01*
X102171834Y-213704814D01*
X102321156Y-213612712D01*
X102445212Y-213488656D01*
X102537314Y-213339334D01*
X102592499Y-213172797D01*
X102603000Y-213070009D01*
X102602999Y-211769992D01*
X102592499Y-211667203D01*
X102537314Y-211500666D01*
X102445212Y-211351344D01*
X102321156Y-211227288D01*
X102171834Y-211135186D01*
X102005297Y-211080001D01*
X102005295Y-211080000D01*
X101902510Y-211069500D01*
X100602498Y-211069500D01*
X100602481Y-211069501D01*
X100499703Y-211080000D01*
X100499700Y-211080001D01*
X100333168Y-211135185D01*
X100333163Y-211135187D01*
X100183842Y-211227289D01*
X100059789Y-211351342D01*
X99967687Y-211500663D01*
X99967683Y-211500673D01*
X99964185Y-211511229D01*
X99924410Y-211568672D01*
X99859893Y-211595493D01*
X99791118Y-211583174D01*
X99746163Y-211545106D01*
X99742605Y-211540209D01*
X99592286Y-211389890D01*
X99420320Y-211264951D01*
X99230914Y-211168444D01*
X99230913Y-211168443D01*
X99230912Y-211168443D01*
X99028743Y-211102754D01*
X99028741Y-211102753D01*
X99028740Y-211102753D01*
X98867457Y-211077208D01*
X98818787Y-211069500D01*
X98606213Y-211069500D01*
X98557542Y-211077208D01*
X98396260Y-211102753D01*
X98194085Y-211168444D01*
X98004679Y-211264951D01*
X97832713Y-211389890D01*
X97682390Y-211540213D01*
X97557451Y-211712179D01*
X97460944Y-211901585D01*
X97395253Y-212103760D01*
X97362000Y-212313713D01*
X97362000Y-212526287D01*
X97395254Y-212736243D01*
X97460716Y-212937714D01*
X97460944Y-212938414D01*
X97557451Y-213127820D01*
X97682390Y-213299786D01*
X97832713Y-213450109D01*
X98004682Y-213575050D01*
X98013446Y-213579516D01*
X98064242Y-213627491D01*
X98081036Y-213695312D01*
X98058498Y-213761447D01*
X98013446Y-213800484D01*
X98004682Y-213804949D01*
X97832713Y-213929890D01*
X97682390Y-214080213D01*
X97557451Y-214252179D01*
X97460944Y-214441585D01*
X97395253Y-214643760D01*
X97362000Y-214853713D01*
X97362000Y-215066286D01*
X97390401Y-215245606D01*
X97395254Y-215276243D01*
X97435465Y-215400000D01*
X97460944Y-215478414D01*
X97557451Y-215667820D01*
X97682390Y-215839786D01*
X97832713Y-215990109D01*
X98004682Y-216115050D01*
X98013446Y-216119516D01*
X98064242Y-216167491D01*
X98081036Y-216235312D01*
X98058498Y-216301447D01*
X98013446Y-216340484D01*
X98004682Y-216344949D01*
X97832713Y-216469890D01*
X97682390Y-216620213D01*
X97557451Y-216792179D01*
X97460944Y-216981585D01*
X97395253Y-217183760D01*
X97362000Y-217393713D01*
X97362000Y-217606286D01*
X97382089Y-217733127D01*
X97395254Y-217816243D01*
X97456675Y-218005277D01*
X97460944Y-218018414D01*
X97557451Y-218207820D01*
X97682390Y-218379786D01*
X97832713Y-218530109D01*
X98004682Y-218655050D01*
X98013446Y-218659516D01*
X98064242Y-218707491D01*
X98081036Y-218775312D01*
X98058498Y-218841447D01*
X98013446Y-218880484D01*
X98004682Y-218884949D01*
X97832713Y-219009890D01*
X97682390Y-219160213D01*
X97557451Y-219332179D01*
X97460944Y-219521585D01*
X97395253Y-219723760D01*
X97375955Y-219845606D01*
X97362000Y-219933713D01*
X97362000Y-220146287D01*
X97362946Y-220152261D01*
X97390785Y-220328032D01*
X97395254Y-220356243D01*
X97441711Y-220499223D01*
X97460944Y-220558414D01*
X97557451Y-220747820D01*
X97682390Y-220919786D01*
X97832713Y-221070109D01*
X98004679Y-221195048D01*
X98004681Y-221195049D01*
X98004684Y-221195051D01*
X98013993Y-221199794D01*
X98064790Y-221247766D01*
X98081587Y-221315587D01*
X98059052Y-221381722D01*
X98014005Y-221420760D01*
X98004946Y-221425376D01*
X98004940Y-221425380D01*
X97950782Y-221464727D01*
X97950782Y-221464728D01*
X98583091Y-222097037D01*
X98519507Y-222114075D01*
X98405493Y-222179901D01*
X98312401Y-222272993D01*
X98246575Y-222387007D01*
X98229537Y-222450591D01*
X97597228Y-221818282D01*
X97597227Y-221818282D01*
X97557880Y-221872439D01*
X97461404Y-222061782D01*
X97395742Y-222263869D01*
X97395742Y-222263872D01*
X97362500Y-222473753D01*
X97362500Y-222686246D01*
X97395742Y-222896127D01*
X97395742Y-222896130D01*
X97461404Y-223098217D01*
X97557875Y-223287550D01*
X97597228Y-223341716D01*
X98229537Y-222709408D01*
X98246575Y-222772993D01*
X98312401Y-222887007D01*
X98405493Y-222980099D01*
X98519507Y-223045925D01*
X98583090Y-223062962D01*
X97950782Y-223695269D01*
X97950782Y-223695270D01*
X98004949Y-223734624D01*
X98194282Y-223831095D01*
X98396370Y-223896757D01*
X98606254Y-223930000D01*
X98818746Y-223930000D01*
X99028627Y-223896757D01*
X99028630Y-223896757D01*
X99230717Y-223831095D01*
X99420054Y-223734622D01*
X99474216Y-223695270D01*
X99474217Y-223695270D01*
X98841908Y-223062962D01*
X98905493Y-223045925D01*
X99019507Y-222980099D01*
X99112599Y-222887007D01*
X99178425Y-222772993D01*
X99195462Y-222709409D01*
X99827770Y-223341717D01*
X99827770Y-223341716D01*
X99867122Y-223287554D01*
X99872014Y-223277954D01*
X99919988Y-223227157D01*
X99987808Y-223210361D01*
X100053944Y-223232897D01*
X100092986Y-223277954D01*
X100097875Y-223287550D01*
X100137228Y-223341716D01*
X100769537Y-222709408D01*
X100786575Y-222772993D01*
X100852401Y-222887007D01*
X100945493Y-222980099D01*
X101059507Y-223045925D01*
X101123090Y-223062962D01*
X100490782Y-223695269D01*
X100490782Y-223695270D01*
X100544949Y-223734624D01*
X100734282Y-223831095D01*
X100936370Y-223896757D01*
X101146254Y-223930000D01*
X101358746Y-223930000D01*
X101568627Y-223896757D01*
X101568630Y-223896757D01*
X101770717Y-223831095D01*
X101960054Y-223734622D01*
X102014216Y-223695270D01*
X102014217Y-223695270D01*
X101381908Y-223062962D01*
X101445493Y-223045925D01*
X101559507Y-222980099D01*
X101652599Y-222887007D01*
X101718425Y-222772993D01*
X101735462Y-222709408D01*
X102367770Y-223341717D01*
X102367770Y-223341716D01*
X102407122Y-223287554D01*
X102503595Y-223098217D01*
X102535300Y-223000640D01*
X102569257Y-222896130D01*
X102569257Y-222896127D01*
X102602500Y-222686246D01*
X102602500Y-222473753D01*
X102569257Y-222263872D01*
X102569257Y-222263869D01*
X102503595Y-222061782D01*
X102407124Y-221872449D01*
X102367770Y-221818282D01*
X102367769Y-221818282D01*
X101735462Y-222450590D01*
X101718425Y-222387007D01*
X101652599Y-222272993D01*
X101559507Y-222179901D01*
X101445493Y-222114075D01*
X101381909Y-222097037D01*
X102014216Y-221464728D01*
X101960047Y-221425373D01*
X101960047Y-221425372D01*
X101951000Y-221420763D01*
X101900206Y-221372788D01*
X101883412Y-221304966D01*
X101905951Y-221238832D01*
X101951008Y-221199793D01*
X101960316Y-221195051D01*
X102108474Y-221087409D01*
X102132286Y-221070109D01*
X102132288Y-221070106D01*
X102132292Y-221070104D01*
X102282604Y-220919792D01*
X102282606Y-220919788D01*
X102282609Y-220919786D01*
X102407548Y-220747820D01*
X102407547Y-220747820D01*
X102407551Y-220747816D01*
X102504057Y-220558412D01*
X102569746Y-220356243D01*
X102603000Y-220146287D01*
X102603000Y-219933713D01*
X102569746Y-219723757D01*
X102546695Y-219652816D01*
X102544701Y-219582977D01*
X102580781Y-219523144D01*
X102643482Y-219492316D01*
X102664627Y-219490500D01*
X111269192Y-219490500D01*
X111336231Y-219510185D01*
X111356873Y-219526819D01*
X113203159Y-221373105D01*
X113236644Y-221434428D01*
X113231660Y-221504120D01*
X113215797Y-221533670D01*
X113173056Y-221592498D01*
X113173055Y-221592500D01*
X113083408Y-221768441D01*
X113022389Y-221956236D01*
X112991500Y-222151263D01*
X112991500Y-222348736D01*
X113022389Y-222543763D01*
X113083408Y-222731558D01*
X113083409Y-222731561D01*
X113173056Y-222907501D01*
X113173058Y-222907504D01*
X113289115Y-223067246D01*
X113428753Y-223206884D01*
X113539788Y-223287554D01*
X113588499Y-223322944D01*
X113764439Y-223412591D01*
X113860719Y-223443874D01*
X113952236Y-223473610D01*
X114147264Y-223504500D01*
X114147269Y-223504500D01*
X115852736Y-223504500D01*
X116047763Y-223473610D01*
X116180479Y-223430488D01*
X116187182Y-223428309D01*
X116257023Y-223426315D01*
X116316856Y-223462395D01*
X116347684Y-223525096D01*
X116349500Y-223546241D01*
X116349500Y-226314069D01*
X116349500Y-226314071D01*
X116349499Y-226314071D01*
X116374497Y-226439738D01*
X116374498Y-226439742D01*
X116374499Y-226439744D01*
X116423535Y-226558127D01*
X116470305Y-226628124D01*
X116494726Y-226664673D01*
X116494727Y-226664674D01*
X117709181Y-227879126D01*
X117742666Y-227940449D01*
X117745500Y-227966807D01*
X117745500Y-229102736D01*
X117776389Y-229297763D01*
X117837408Y-229485558D01*
X117837409Y-229485561D01*
X117914971Y-229637783D01*
X117927058Y-229661504D01*
X118043115Y-229821246D01*
X118182753Y-229960884D01*
X118332234Y-230069486D01*
X118342499Y-230076944D01*
X118518439Y-230166591D01*
X118643637Y-230207270D01*
X118706236Y-230227610D01*
X118901264Y-230258500D01*
X118901269Y-230258500D01*
X119098736Y-230258500D01*
X119293763Y-230227610D01*
X119481561Y-230166591D01*
X119657501Y-230076944D01*
X119747192Y-230011779D01*
X119817246Y-229960884D01*
X119817248Y-229960881D01*
X119817252Y-229960879D01*
X119956879Y-229821252D01*
X119956881Y-229821248D01*
X119956884Y-229821246D01*
X120052430Y-229689736D01*
X120072944Y-229661501D01*
X120162591Y-229485561D01*
X120223610Y-229297763D01*
X120254500Y-229102736D01*
X120254500Y-227397263D01*
X120223610Y-227202236D01*
X120203270Y-227139637D01*
X120162591Y-227014439D01*
X120072944Y-226838499D01*
X120065486Y-226828234D01*
X119956884Y-226678753D01*
X119817246Y-226539115D01*
X119657504Y-226423058D01*
X119657503Y-226423057D01*
X119657501Y-226423056D01*
X119481561Y-226333409D01*
X119481558Y-226333408D01*
X119293763Y-226272389D01*
X119098736Y-226241500D01*
X119098731Y-226241500D01*
X118901269Y-226241500D01*
X118901264Y-226241500D01*
X118706236Y-226272389D01*
X118518441Y-226333408D01*
X118342500Y-226423055D01*
X118342498Y-226423056D01*
X118283670Y-226465797D01*
X118217864Y-226489276D01*
X118149810Y-226473450D01*
X118123105Y-226453159D01*
X117686819Y-226016873D01*
X117653334Y-225955550D01*
X117650500Y-225929192D01*
X117650500Y-221343308D01*
X117670185Y-221276269D01*
X117722989Y-221230514D01*
X117792147Y-221220570D01*
X117812814Y-221225376D01*
X117881724Y-221247766D01*
X117945465Y-221268477D01*
X118046557Y-221284488D01*
X118147648Y-221300500D01*
X118147649Y-221300500D01*
X118352351Y-221300500D01*
X118352352Y-221300500D01*
X118554534Y-221268477D01*
X118749219Y-221205220D01*
X118931610Y-221112287D01*
X119049838Y-221026390D01*
X119097213Y-220991971D01*
X119097215Y-220991968D01*
X119097219Y-220991966D01*
X119241966Y-220847219D01*
X119241968Y-220847215D01*
X119241971Y-220847213D01*
X119326345Y-220731080D01*
X119362287Y-220681610D01*
X119455220Y-220499219D01*
X119518477Y-220304534D01*
X119550500Y-220102352D01*
X119550500Y-219897648D01*
X119542257Y-219845606D01*
X119518477Y-219695465D01*
X119462486Y-219523144D01*
X119455220Y-219500781D01*
X119455218Y-219500778D01*
X119455218Y-219500776D01*
X119369315Y-219332184D01*
X119362287Y-219318390D01*
X119330092Y-219274077D01*
X119241971Y-219152786D01*
X119097213Y-219008028D01*
X118931613Y-218887715D01*
X118931612Y-218887714D01*
X118931610Y-218887713D01*
X118859194Y-218850815D01*
X118749223Y-218794781D01*
X118554534Y-218731522D01*
X118379995Y-218703878D01*
X118352352Y-218699500D01*
X118147648Y-218699500D01*
X118096842Y-218707547D01*
X117945464Y-218731523D01*
X117945461Y-218731523D01*
X117812818Y-218774622D01*
X117742977Y-218776617D01*
X117683144Y-218740537D01*
X117652316Y-218677836D01*
X117650500Y-218656691D01*
X117650500Y-216342782D01*
X117670185Y-216275743D01*
X117722989Y-216229988D01*
X117792147Y-216220044D01*
X117812819Y-216224851D01*
X117945582Y-216267990D01*
X118147683Y-216300000D01*
X118352317Y-216300000D01*
X118554417Y-216267990D01*
X118749031Y-216204755D01*
X118931349Y-216111859D01*
X118975921Y-216079474D01*
X118296447Y-215400000D01*
X118302661Y-215400000D01*
X118404394Y-215372741D01*
X118495606Y-215320080D01*
X118570080Y-215245606D01*
X118622741Y-215154394D01*
X118650000Y-215052661D01*
X118650000Y-215046448D01*
X119329474Y-215725922D01*
X119329474Y-215725921D01*
X119361859Y-215681349D01*
X119454755Y-215499031D01*
X119517990Y-215304417D01*
X119550000Y-215102317D01*
X119550000Y-214897682D01*
X119517990Y-214695582D01*
X119454755Y-214500968D01*
X119361859Y-214318650D01*
X119329474Y-214274077D01*
X119329474Y-214274076D01*
X118650000Y-214953551D01*
X118650000Y-214947339D01*
X118622741Y-214845606D01*
X118570080Y-214754394D01*
X118495606Y-214679920D01*
X118404394Y-214627259D01*
X118302661Y-214600000D01*
X118296446Y-214600000D01*
X118975922Y-213920524D01*
X118975921Y-213920523D01*
X118931359Y-213888147D01*
X118931350Y-213888141D01*
X118749031Y-213795244D01*
X118554417Y-213732009D01*
X118352317Y-213700000D01*
X118147683Y-213700000D01*
X117945582Y-213732009D01*
X117812819Y-213775148D01*
X117742977Y-213777143D01*
X117683144Y-213741063D01*
X117652316Y-213678362D01*
X117650500Y-213657217D01*
X117650500Y-207135227D01*
X117670185Y-207068188D01*
X117722989Y-207022433D01*
X117792147Y-207012489D01*
X117855703Y-207041514D01*
X117884983Y-207078930D01*
X117927056Y-207161501D01*
X117927058Y-207161504D01*
X118043115Y-207321246D01*
X118182753Y-207460884D01*
X118301064Y-207546840D01*
X118342499Y-207576944D01*
X118518439Y-207666591D01*
X118643637Y-207707270D01*
X118706236Y-207727610D01*
X118901264Y-207758500D01*
X118901269Y-207758500D01*
X119098736Y-207758500D01*
X119293763Y-207727610D01*
X119481561Y-207666591D01*
X119657501Y-207576944D01*
X119774954Y-207491610D01*
X119817246Y-207460884D01*
X119817248Y-207460881D01*
X119817252Y-207460879D01*
X119956879Y-207321252D01*
X119956881Y-207321248D01*
X119956884Y-207321246D01*
X120007779Y-207251192D01*
X120072944Y-207161501D01*
X120162591Y-206985561D01*
X120223610Y-206797763D01*
X120237883Y-206707648D01*
X123699500Y-206707648D01*
X123699500Y-206912351D01*
X123731522Y-207114534D01*
X123794781Y-207309223D01*
X123858691Y-207434653D01*
X123872057Y-207460884D01*
X123887715Y-207491613D01*
X124008028Y-207657213D01*
X124152786Y-207801971D01*
X124307749Y-207914556D01*
X124318390Y-207922287D01*
X124434607Y-207981503D01*
X124500776Y-208015218D01*
X124500778Y-208015218D01*
X124500781Y-208015220D01*
X124605137Y-208049127D01*
X124695465Y-208078477D01*
X124796557Y-208094488D01*
X124897648Y-208110500D01*
X124897649Y-208110500D01*
X125102351Y-208110500D01*
X125102352Y-208110500D01*
X125304534Y-208078477D01*
X125499219Y-208015220D01*
X125681610Y-207922287D01*
X125774590Y-207854732D01*
X125847213Y-207801971D01*
X125847215Y-207801968D01*
X125847219Y-207801966D01*
X125991966Y-207657219D01*
X125991968Y-207657215D01*
X125991971Y-207657213D01*
X126072160Y-207546840D01*
X126112287Y-207491610D01*
X126205220Y-207309219D01*
X126268477Y-207114534D01*
X126300500Y-206912352D01*
X126300500Y-206707648D01*
X126268477Y-206505466D01*
X126205220Y-206310781D01*
X126205218Y-206310778D01*
X126205218Y-206310776D01*
X126171503Y-206244607D01*
X126112287Y-206128390D01*
X126080439Y-206084554D01*
X125991971Y-205962786D01*
X125847213Y-205818028D01*
X125681613Y-205697715D01*
X125681612Y-205697714D01*
X125681610Y-205697713D01*
X125586983Y-205649498D01*
X125499223Y-205604781D01*
X125304534Y-205541522D01*
X125129995Y-205513878D01*
X125102352Y-205509500D01*
X124897648Y-205509500D01*
X124873329Y-205513351D01*
X124695465Y-205541522D01*
X124500776Y-205604781D01*
X124318386Y-205697715D01*
X124152786Y-205818028D01*
X124008028Y-205962786D01*
X123887715Y-206128386D01*
X123794781Y-206310776D01*
X123731522Y-206505465D01*
X123699500Y-206707648D01*
X120237883Y-206707648D01*
X120241727Y-206683377D01*
X120254500Y-206602735D01*
X120254500Y-204897263D01*
X120223610Y-204702236D01*
X120203270Y-204639637D01*
X120162591Y-204514439D01*
X120072944Y-204338499D01*
X120065486Y-204328234D01*
X119956884Y-204178753D01*
X119817246Y-204039115D01*
X119657504Y-203923058D01*
X119657503Y-203923057D01*
X119657501Y-203923056D01*
X119481561Y-203833409D01*
X119481558Y-203833408D01*
X119293763Y-203772389D01*
X119098736Y-203741500D01*
X119098731Y-203741500D01*
X118901269Y-203741500D01*
X118901264Y-203741500D01*
X118706236Y-203772389D01*
X118518441Y-203833408D01*
X118342495Y-203923058D01*
X118182753Y-204039115D01*
X118043115Y-204178753D01*
X117927055Y-204338499D01*
X117927054Y-204338500D01*
X117884984Y-204421067D01*
X117837010Y-204471863D01*
X117769189Y-204488658D01*
X117703054Y-204466120D01*
X117659603Y-204411405D01*
X117650500Y-204364772D01*
X117650500Y-199185928D01*
X117625502Y-199060261D01*
X117625501Y-199060260D01*
X117625501Y-199060256D01*
X117576465Y-198941873D01*
X117524010Y-198863368D01*
X117505276Y-198835330D01*
X117505274Y-198835327D01*
X117505271Y-198835324D01*
X116510680Y-197840734D01*
X116477195Y-197779411D01*
X116482179Y-197709719D01*
X116524051Y-197653786D01*
X116589515Y-197629369D01*
X116598361Y-197629053D01*
X116950639Y-197629053D01*
X117017678Y-197648738D01*
X117038320Y-197665372D01*
X121744724Y-202371775D01*
X121835331Y-202462382D01*
X121835332Y-202462383D01*
X121941866Y-202533567D01*
X121941872Y-202533570D01*
X121941873Y-202533571D01*
X122060256Y-202582607D01*
X122060260Y-202582607D01*
X122060261Y-202582608D01*
X122185928Y-202607606D01*
X122185931Y-202607606D01*
X128136298Y-202607606D01*
X128203337Y-202627291D01*
X128223979Y-202643925D01*
X143313181Y-217733127D01*
X143346666Y-217794450D01*
X143349500Y-217820808D01*
X143349500Y-226354788D01*
X143329815Y-226421827D01*
X143298386Y-226455105D01*
X143283671Y-226465797D01*
X143182747Y-226539121D01*
X143043115Y-226678753D01*
X142927058Y-226838495D01*
X142837408Y-227014441D01*
X142776389Y-227202236D01*
X142745500Y-227397263D01*
X142745500Y-229102736D01*
X142776389Y-229297763D01*
X142837408Y-229485558D01*
X142837409Y-229485561D01*
X142914971Y-229637783D01*
X142927058Y-229661504D01*
X143043115Y-229821246D01*
X143182753Y-229960884D01*
X143332234Y-230069486D01*
X143342499Y-230076944D01*
X143518439Y-230166591D01*
X143643637Y-230207270D01*
X143706236Y-230227610D01*
X143901264Y-230258500D01*
X143901269Y-230258500D01*
X144098736Y-230258500D01*
X144293763Y-230227610D01*
X144481561Y-230166591D01*
X144657501Y-230076944D01*
X144747192Y-230011779D01*
X144817246Y-229960884D01*
X144817248Y-229960881D01*
X144817252Y-229960879D01*
X144956879Y-229821252D01*
X144956881Y-229821248D01*
X144956884Y-229821246D01*
X145052430Y-229689736D01*
X145072944Y-229661501D01*
X145162591Y-229485561D01*
X145223610Y-229297763D01*
X145254500Y-229102736D01*
X145254500Y-227397263D01*
X145223610Y-227202236D01*
X145203270Y-227139637D01*
X145162591Y-227014439D01*
X145072944Y-226838499D01*
X145065486Y-226828234D01*
X144956884Y-226678753D01*
X144817252Y-226539121D01*
X144793696Y-226522007D01*
X144701614Y-226455105D01*
X144658949Y-226399777D01*
X144650500Y-226354788D01*
X144650500Y-217435928D01*
X144625502Y-217310261D01*
X144625501Y-217310260D01*
X144625501Y-217310256D01*
X144576465Y-217191873D01*
X144571042Y-217183757D01*
X144571041Y-217183755D01*
X144571041Y-217183754D01*
X144505277Y-217085331D01*
X144505271Y-217085324D01*
X132317210Y-204897263D01*
X142841690Y-204897263D01*
X142841690Y-206602736D01*
X142872579Y-206797763D01*
X142909812Y-206912352D01*
X142933599Y-206985561D01*
X143023246Y-207161501D01*
X143023248Y-207161504D01*
X143139305Y-207321246D01*
X143278943Y-207460884D01*
X143397254Y-207546840D01*
X143438689Y-207576944D01*
X143614629Y-207666591D01*
X143739827Y-207707270D01*
X143802426Y-207727610D01*
X143997454Y-207758500D01*
X143997459Y-207758500D01*
X144194926Y-207758500D01*
X144389953Y-207727610D01*
X144577751Y-207666591D01*
X144753691Y-207576944D01*
X144871144Y-207491610D01*
X144913436Y-207460884D01*
X144913438Y-207460881D01*
X144913442Y-207460879D01*
X145053069Y-207321252D01*
X145053071Y-207321248D01*
X145053074Y-207321246D01*
X145103969Y-207251192D01*
X145169134Y-207161501D01*
X145258781Y-206985561D01*
X145319800Y-206797763D01*
X145337917Y-206683377D01*
X145350690Y-206602736D01*
X145350690Y-204897263D01*
X145319800Y-204702236D01*
X145299460Y-204639637D01*
X145258781Y-204514439D01*
X145169134Y-204338499D01*
X145161676Y-204328234D01*
X145053074Y-204178753D01*
X144913436Y-204039115D01*
X144753694Y-203923058D01*
X144753693Y-203923057D01*
X144753691Y-203923056D01*
X144577751Y-203833409D01*
X144577748Y-203833408D01*
X144389953Y-203772389D01*
X144194926Y-203741500D01*
X144194921Y-203741500D01*
X143997459Y-203741500D01*
X143997454Y-203741500D01*
X143802426Y-203772389D01*
X143614631Y-203833408D01*
X143438685Y-203923058D01*
X143278943Y-204039115D01*
X143139305Y-204178753D01*
X143023248Y-204338495D01*
X142933598Y-204514441D01*
X142872579Y-204702236D01*
X142841690Y-204897263D01*
X132317210Y-204897263D01*
X129508224Y-202088277D01*
X131212841Y-202088277D01*
X131212841Y-202285660D01*
X131243719Y-202480616D01*
X131304711Y-202668335D01*
X131304712Y-202668338D01*
X131394324Y-202844210D01*
X131420296Y-202879958D01*
X131420297Y-202879958D01*
X131986707Y-202313547D01*
X132003745Y-202377132D01*
X132069571Y-202491147D01*
X132162663Y-202584239D01*
X132276678Y-202650065D01*
X132340259Y-202667101D01*
X131773850Y-203233510D01*
X131773850Y-203233511D01*
X131809605Y-203259488D01*
X131985471Y-203349097D01*
X131985474Y-203349098D01*
X132173193Y-203410090D01*
X132368150Y-203440969D01*
X132565532Y-203440969D01*
X132760488Y-203410090D01*
X132948207Y-203349098D01*
X132948210Y-203349097D01*
X133124080Y-203259486D01*
X133283768Y-203143464D01*
X133283769Y-203143464D01*
X133709935Y-202717298D01*
X133709935Y-202717297D01*
X133176776Y-202184139D01*
X133530329Y-201830586D01*
X134063488Y-202363745D01*
X134489653Y-201937579D01*
X134489653Y-201937578D01*
X134605675Y-201777889D01*
X134605679Y-201777883D01*
X134695287Y-201602021D01*
X134695289Y-201602015D01*
X134756280Y-201414300D01*
X134787159Y-201219343D01*
X134787159Y-201021959D01*
X134756280Y-200827003D01*
X134695288Y-200639284D01*
X134695287Y-200639281D01*
X134605679Y-200463419D01*
X134605671Y-200463406D01*
X134579701Y-200427661D01*
X134579700Y-200427660D01*
X134013292Y-200994068D01*
X133996256Y-200930488D01*
X133930430Y-200816472D01*
X133837338Y-200723380D01*
X133723322Y-200657554D01*
X133659738Y-200640516D01*
X134226148Y-200074108D01*
X134190398Y-200048134D01*
X134014528Y-199958522D01*
X134014525Y-199958521D01*
X133826806Y-199897529D01*
X133631850Y-199866651D01*
X133434467Y-199866651D01*
X133239509Y-199897529D01*
X133051794Y-199958520D01*
X133051788Y-199958522D01*
X132875926Y-200048130D01*
X132875920Y-200048134D01*
X132716234Y-200164153D01*
X132290064Y-200590321D01*
X132823223Y-201123480D01*
X132469670Y-201477033D01*
X131936511Y-200943874D01*
X131936510Y-200943874D01*
X131510346Y-201370039D01*
X131510345Y-201370041D01*
X131394323Y-201529729D01*
X131304712Y-201705599D01*
X131304711Y-201705602D01*
X131243719Y-201893321D01*
X131212841Y-202088277D01*
X129508224Y-202088277D01*
X128871779Y-201451832D01*
X128871775Y-201451829D01*
X128765233Y-201380641D01*
X128739642Y-201370041D01*
X128646850Y-201331605D01*
X128646844Y-201331603D01*
X128521177Y-201306606D01*
X128521175Y-201306606D01*
X122570807Y-201306606D01*
X122503768Y-201286921D01*
X122483126Y-201270287D01*
X121522735Y-200309896D01*
X120383337Y-199170497D01*
X120300522Y-199087682D01*
X123700000Y-199087682D01*
X123700000Y-199292317D01*
X123732009Y-199494417D01*
X123795244Y-199689031D01*
X123888141Y-199871350D01*
X123888147Y-199871359D01*
X123920523Y-199915921D01*
X123920524Y-199915922D01*
X124600000Y-199236446D01*
X124600000Y-199242661D01*
X124627259Y-199344394D01*
X124679920Y-199435606D01*
X124754394Y-199510080D01*
X124845606Y-199562741D01*
X124947339Y-199590000D01*
X124953553Y-199590000D01*
X124274076Y-200269474D01*
X124318650Y-200301859D01*
X124500968Y-200394755D01*
X124695582Y-200457990D01*
X124897683Y-200490000D01*
X125102317Y-200490000D01*
X125304417Y-200457990D01*
X125418176Y-200421027D01*
X125499031Y-200394755D01*
X125681349Y-200301859D01*
X125725921Y-200269474D01*
X125046447Y-199590000D01*
X125052661Y-199590000D01*
X125154394Y-199562741D01*
X125245606Y-199510080D01*
X125320080Y-199435606D01*
X125372741Y-199344394D01*
X125400000Y-199242661D01*
X125400000Y-199236448D01*
X126079474Y-199915922D01*
X126079474Y-199915921D01*
X126111859Y-199871349D01*
X126204755Y-199689031D01*
X126217027Y-199651263D01*
X138087690Y-199651263D01*
X138087690Y-199848736D01*
X138118579Y-200043763D01*
X138157697Y-200164153D01*
X138179599Y-200231561D01*
X138262752Y-200394755D01*
X138269248Y-200407504D01*
X138385305Y-200567246D01*
X138524943Y-200706884D01*
X138674424Y-200815486D01*
X138684689Y-200822944D01*
X138860629Y-200912591D01*
X138956909Y-200943874D01*
X139048426Y-200973610D01*
X139243454Y-201004500D01*
X139243459Y-201004500D01*
X140948926Y-201004500D01*
X141143953Y-200973610D01*
X141178469Y-200962395D01*
X141331751Y-200912591D01*
X141507691Y-200822944D01*
X141597382Y-200757779D01*
X141667436Y-200706884D01*
X141667438Y-200706881D01*
X141667442Y-200706879D01*
X141807069Y-200567252D01*
X141807071Y-200567248D01*
X141807074Y-200567246D01*
X141880579Y-200466073D01*
X141923134Y-200407501D01*
X142012781Y-200231561D01*
X142073800Y-200043763D01*
X142087301Y-199958520D01*
X142104690Y-199848736D01*
X142104690Y-199651263D01*
X142073800Y-199456236D01*
X142020539Y-199292317D01*
X142012781Y-199268439D01*
X141923134Y-199092499D01*
X141899708Y-199060255D01*
X141807074Y-198932753D01*
X141667436Y-198793115D01*
X141507694Y-198677058D01*
X141507693Y-198677057D01*
X141507691Y-198677056D01*
X141331751Y-198587409D01*
X141331748Y-198587408D01*
X141143953Y-198526389D01*
X140948926Y-198495500D01*
X140948921Y-198495500D01*
X139243459Y-198495500D01*
X139243454Y-198495500D01*
X139048426Y-198526389D01*
X138860631Y-198587408D01*
X138684685Y-198677058D01*
X138524943Y-198793115D01*
X138385305Y-198932753D01*
X138269248Y-199092495D01*
X138179598Y-199268441D01*
X138118579Y-199456236D01*
X138087690Y-199651263D01*
X126217027Y-199651263D01*
X126231059Y-199608078D01*
X126267990Y-199494417D01*
X126300000Y-199292317D01*
X126300000Y-199087682D01*
X126267990Y-198885582D01*
X126204755Y-198690968D01*
X126111859Y-198508650D01*
X126079474Y-198464077D01*
X126079474Y-198464076D01*
X125400000Y-199143551D01*
X125400000Y-199137339D01*
X125372741Y-199035606D01*
X125320080Y-198944394D01*
X125245606Y-198869920D01*
X125154394Y-198817259D01*
X125052661Y-198790000D01*
X125046446Y-198790000D01*
X125725922Y-198110524D01*
X125725921Y-198110523D01*
X125681359Y-198078147D01*
X125681350Y-198078141D01*
X125499031Y-197985244D01*
X125304417Y-197922009D01*
X125102317Y-197890000D01*
X124897683Y-197890000D01*
X124695582Y-197922009D01*
X124500968Y-197985244D01*
X124318644Y-198078143D01*
X124274077Y-198110523D01*
X124274077Y-198110524D01*
X124953554Y-198790000D01*
X124947339Y-198790000D01*
X124845606Y-198817259D01*
X124754394Y-198869920D01*
X124679920Y-198944394D01*
X124627259Y-199035606D01*
X124600000Y-199137339D01*
X124600000Y-199143553D01*
X123920524Y-198464077D01*
X123920523Y-198464077D01*
X123888143Y-198508644D01*
X123795244Y-198690968D01*
X123732009Y-198885582D01*
X123700000Y-199087682D01*
X120300522Y-199087682D01*
X119458304Y-198245464D01*
X117686121Y-196473280D01*
X117686120Y-196473279D01*
X117686116Y-196473276D01*
X117579574Y-196402088D01*
X117461191Y-196353052D01*
X117461185Y-196353050D01*
X117335518Y-196328053D01*
X117335516Y-196328053D01*
X115078804Y-196328053D01*
X115011765Y-196308368D01*
X114966010Y-196255564D01*
X114956066Y-196186406D01*
X114978486Y-196131168D01*
X115104620Y-195957557D01*
X115201095Y-195768217D01*
X115266757Y-195566129D01*
X115266757Y-195566126D01*
X115277231Y-195500000D01*
X114383012Y-195500000D01*
X114415925Y-195442993D01*
X114450000Y-195315826D01*
X114450000Y-195184174D01*
X114415925Y-195057007D01*
X114383012Y-195000000D01*
X115277231Y-195000000D01*
X115266757Y-194933873D01*
X115266757Y-194933870D01*
X115201095Y-194731782D01*
X115104620Y-194542442D01*
X114979727Y-194370540D01*
X114979723Y-194370535D01*
X114829464Y-194220276D01*
X114829459Y-194220272D01*
X114657557Y-194095379D01*
X114468215Y-193998903D01*
X114266124Y-193933241D01*
X114200000Y-193922768D01*
X114200000Y-194816988D01*
X114142993Y-194784075D01*
X114015826Y-194750000D01*
X113884174Y-194750000D01*
X113757007Y-194784075D01*
X113700000Y-194816988D01*
X113700000Y-193922768D01*
X113699999Y-193922768D01*
X113633875Y-193933241D01*
X113431784Y-193998903D01*
X113242442Y-194095379D01*
X113070540Y-194220272D01*
X113070535Y-194220276D01*
X112920276Y-194370535D01*
X112920272Y-194370540D01*
X112795377Y-194542444D01*
X112790484Y-194552048D01*
X112742509Y-194602844D01*
X112674688Y-194619638D01*
X112608553Y-194597100D01*
X112569516Y-194552048D01*
X112564622Y-194542444D01*
X112439727Y-194370540D01*
X112439723Y-194370535D01*
X112289464Y-194220276D01*
X112289459Y-194220272D01*
X112117557Y-194095379D01*
X111928215Y-193998903D01*
X111726124Y-193933241D01*
X111660000Y-193922768D01*
X111660000Y-194816988D01*
X111602993Y-194784075D01*
X111475826Y-194750000D01*
X111344174Y-194750000D01*
X111217007Y-194784075D01*
X111160000Y-194816988D01*
X111160000Y-193922768D01*
X111159999Y-193922768D01*
X111093875Y-193933241D01*
X110891784Y-193998903D01*
X110702442Y-194095379D01*
X110530540Y-194220272D01*
X110530535Y-194220276D01*
X110380276Y-194370535D01*
X110380272Y-194370540D01*
X110255378Y-194542443D01*
X110250762Y-194551502D01*
X110202784Y-194602295D01*
X110134963Y-194619087D01*
X110068829Y-194596546D01*
X110029794Y-194551493D01*
X110025051Y-194542184D01*
X110025049Y-194542181D01*
X110025048Y-194542179D01*
X109900109Y-194370213D01*
X109749786Y-194219890D01*
X109577820Y-194094951D01*
X109388414Y-193998444D01*
X109388413Y-193998443D01*
X109388412Y-193998443D01*
X109186243Y-193932754D01*
X109186241Y-193932753D01*
X109186240Y-193932753D01*
X109024957Y-193907208D01*
X108976287Y-193899500D01*
X108763713Y-193899500D01*
X108715042Y-193907208D01*
X108553760Y-193932753D01*
X108351585Y-193998444D01*
X108162179Y-194094951D01*
X107990213Y-194219890D01*
X107839890Y-194370213D01*
X107714949Y-194542182D01*
X107710484Y-194550946D01*
X107662509Y-194601742D01*
X107594688Y-194618536D01*
X107528553Y-194595998D01*
X107489516Y-194550946D01*
X107485050Y-194542182D01*
X107360109Y-194370213D01*
X107209786Y-194219890D01*
X107037820Y-194094951D01*
X106848414Y-193998444D01*
X106848413Y-193998443D01*
X106848412Y-193998443D01*
X106646243Y-193932754D01*
X106646241Y-193932753D01*
X106646240Y-193932753D01*
X106484957Y-193907208D01*
X106436287Y-193899500D01*
X106223713Y-193899500D01*
X106175042Y-193907208D01*
X106013760Y-193932753D01*
X105811585Y-193998444D01*
X105622179Y-194094951D01*
X105450213Y-194219890D01*
X105299890Y-194370213D01*
X105174949Y-194542182D01*
X105170484Y-194550946D01*
X105122509Y-194601742D01*
X105054688Y-194618536D01*
X104988553Y-194595998D01*
X104949516Y-194550946D01*
X104945050Y-194542182D01*
X104820109Y-194370213D01*
X104669786Y-194219890D01*
X104497820Y-194094951D01*
X104308414Y-193998444D01*
X104308413Y-193998443D01*
X104308412Y-193998443D01*
X104106243Y-193932754D01*
X104106241Y-193932753D01*
X104106240Y-193932753D01*
X103944957Y-193907208D01*
X103896287Y-193899500D01*
X103683713Y-193899500D01*
X103635042Y-193907208D01*
X103473760Y-193932753D01*
X103271585Y-193998444D01*
X103082179Y-194094951D01*
X102910213Y-194219890D01*
X102759890Y-194370213D01*
X102634949Y-194542182D01*
X102630484Y-194550946D01*
X102582509Y-194601742D01*
X102514688Y-194618536D01*
X102448553Y-194595998D01*
X102409516Y-194550946D01*
X102405050Y-194542182D01*
X102280109Y-194370213D01*
X102129786Y-194219890D01*
X101957820Y-194094951D01*
X101768414Y-193998444D01*
X101768413Y-193998443D01*
X101768412Y-193998443D01*
X101566243Y-193932754D01*
X101566241Y-193932753D01*
X101566240Y-193932753D01*
X101404957Y-193907208D01*
X101356287Y-193899500D01*
X101143713Y-193899500D01*
X101095042Y-193907208D01*
X100933760Y-193932753D01*
X100731585Y-193998444D01*
X100542179Y-194094951D01*
X100370213Y-194219890D01*
X100219890Y-194370213D01*
X100094949Y-194542182D01*
X100090484Y-194550946D01*
X100042509Y-194601742D01*
X99974688Y-194618536D01*
X99908553Y-194595998D01*
X99869516Y-194550946D01*
X99865050Y-194542182D01*
X99740109Y-194370213D01*
X99589786Y-194219890D01*
X99417820Y-194094951D01*
X99228414Y-193998444D01*
X99228413Y-193998443D01*
X99228412Y-193998443D01*
X99026243Y-193932754D01*
X99026241Y-193932753D01*
X99026240Y-193932753D01*
X98864957Y-193907208D01*
X98816287Y-193899500D01*
X98603713Y-193899500D01*
X98555042Y-193907208D01*
X98393760Y-193932753D01*
X98191585Y-193998444D01*
X98002179Y-194094951D01*
X97830213Y-194219890D01*
X97679890Y-194370213D01*
X97554949Y-194542182D01*
X97550484Y-194550946D01*
X97502509Y-194601742D01*
X97434688Y-194618536D01*
X97368553Y-194595998D01*
X97329516Y-194550946D01*
X97325050Y-194542182D01*
X97200109Y-194370213D01*
X97049786Y-194219890D01*
X96877820Y-194094951D01*
X96688414Y-193998444D01*
X96688413Y-193998443D01*
X96688412Y-193998443D01*
X96486243Y-193932754D01*
X96486241Y-193932753D01*
X96486240Y-193932753D01*
X96324957Y-193907208D01*
X96276287Y-193899500D01*
X96063713Y-193899500D01*
X96015042Y-193907208D01*
X95853760Y-193932753D01*
X95651585Y-193998444D01*
X95462179Y-194094951D01*
X95290213Y-194219890D01*
X95139890Y-194370213D01*
X95014949Y-194542182D01*
X95010484Y-194550946D01*
X94962509Y-194601742D01*
X94894688Y-194618536D01*
X94828553Y-194595998D01*
X94789516Y-194550946D01*
X94785050Y-194542182D01*
X94660109Y-194370213D01*
X94509786Y-194219890D01*
X94337820Y-194094951D01*
X94148414Y-193998444D01*
X94148413Y-193998443D01*
X94148412Y-193998443D01*
X93946243Y-193932754D01*
X93946241Y-193932753D01*
X93946240Y-193932753D01*
X93784957Y-193907208D01*
X93736287Y-193899500D01*
X93523713Y-193899500D01*
X93475042Y-193907208D01*
X93313760Y-193932753D01*
X93111585Y-193998444D01*
X92922179Y-194094951D01*
X92750213Y-194219890D01*
X92599890Y-194370213D01*
X92474949Y-194542182D01*
X92470484Y-194550946D01*
X92422509Y-194601742D01*
X92354688Y-194618536D01*
X92288553Y-194595998D01*
X92249516Y-194550946D01*
X92245050Y-194542182D01*
X92120109Y-194370213D01*
X91969786Y-194219890D01*
X91797820Y-194094951D01*
X91608414Y-193998444D01*
X91608413Y-193998443D01*
X91608412Y-193998443D01*
X91406243Y-193932754D01*
X91406241Y-193932753D01*
X91406240Y-193932753D01*
X91244957Y-193907208D01*
X91196287Y-193899500D01*
X90983713Y-193899500D01*
X90935042Y-193907208D01*
X90773760Y-193932753D01*
X90571585Y-193998444D01*
X90382179Y-194094951D01*
X90210213Y-194219890D01*
X90059890Y-194370213D01*
X89934949Y-194542182D01*
X89930484Y-194550946D01*
X89882509Y-194601742D01*
X89814688Y-194618536D01*
X89748553Y-194595998D01*
X89709516Y-194550946D01*
X89705050Y-194542182D01*
X89580109Y-194370213D01*
X89429786Y-194219890D01*
X89257820Y-194094951D01*
X89068414Y-193998444D01*
X89068413Y-193998443D01*
X89068412Y-193998443D01*
X88866243Y-193932754D01*
X88866241Y-193932753D01*
X88866240Y-193932753D01*
X88704957Y-193907208D01*
X88656287Y-193899500D01*
X88443713Y-193899500D01*
X88395042Y-193907208D01*
X88233760Y-193932753D01*
X88031585Y-193998444D01*
X87842179Y-194094951D01*
X87670215Y-194219889D01*
X87556673Y-194333431D01*
X87495350Y-194366915D01*
X87425658Y-194361931D01*
X87369725Y-194320059D01*
X87352810Y-194289082D01*
X87303797Y-194157671D01*
X87303793Y-194157664D01*
X87217547Y-194042455D01*
X87217544Y-194042452D01*
X87102335Y-193956206D01*
X87102328Y-193956202D01*
X86967482Y-193905908D01*
X86967483Y-193905908D01*
X86907883Y-193899501D01*
X86907881Y-193899500D01*
X86907873Y-193899500D01*
X86907864Y-193899500D01*
X85112129Y-193899500D01*
X85112123Y-193899501D01*
X85052516Y-193905908D01*
X84917671Y-193956202D01*
X84917664Y-193956206D01*
X84802455Y-194042452D01*
X84802452Y-194042455D01*
X84716206Y-194157664D01*
X84716202Y-194157671D01*
X84665908Y-194292517D01*
X84659501Y-194352116D01*
X84659500Y-194352135D01*
X84659500Y-194475500D01*
X84639815Y-194542539D01*
X84587011Y-194588294D01*
X84535500Y-194599500D01*
X71070808Y-194599500D01*
X71003769Y-194579815D01*
X70983127Y-194563181D01*
X69686819Y-193266873D01*
X69653334Y-193205550D01*
X69650500Y-193179192D01*
X69650500Y-185145211D01*
X69670185Y-185078172D01*
X69701613Y-185044894D01*
X69817252Y-184960879D01*
X69956879Y-184821252D01*
X69956881Y-184821248D01*
X69956884Y-184821246D01*
X70007779Y-184751192D01*
X70072944Y-184661501D01*
X70162591Y-184485561D01*
X70223610Y-184297763D01*
X70253027Y-184112036D01*
X70282956Y-184048901D01*
X70342268Y-184011970D01*
X70412131Y-184012968D01*
X70470363Y-184051578D01*
X70498477Y-184115542D01*
X70499500Y-184131434D01*
X70499500Y-193065891D01*
X70533608Y-193193187D01*
X70540746Y-193205550D01*
X70599500Y-193307314D01*
X70692686Y-193400500D01*
X70806814Y-193466392D01*
X70934108Y-193500500D01*
X148375500Y-193500500D01*
X148442539Y-193520185D01*
X148488294Y-193572989D01*
X148499500Y-193624500D01*
X148499500Y-236875500D01*
X148479815Y-236942539D01*
X148427011Y-236988294D01*
X148375500Y-236999500D01*
X51624500Y-236999500D01*
X51557461Y-236979815D01*
X51511706Y-236927011D01*
X51500500Y-236875500D01*
X51500500Y-224588277D01*
X56116651Y-224588277D01*
X56116651Y-224785660D01*
X56147529Y-224980616D01*
X56208521Y-225168335D01*
X56208522Y-225168338D01*
X56298134Y-225344210D01*
X56324106Y-225379958D01*
X56324107Y-225379958D01*
X56890517Y-224813547D01*
X56907555Y-224877132D01*
X56973381Y-224991147D01*
X57066473Y-225084239D01*
X57180488Y-225150065D01*
X57244069Y-225167101D01*
X56677660Y-225733510D01*
X56677660Y-225733511D01*
X56713415Y-225759488D01*
X56889281Y-225849097D01*
X56889284Y-225849098D01*
X57077003Y-225910090D01*
X57271960Y-225940969D01*
X57469342Y-225940969D01*
X57664298Y-225910090D01*
X57852017Y-225849098D01*
X57852020Y-225849097D01*
X58027890Y-225759486D01*
X58187578Y-225643464D01*
X58187579Y-225643464D01*
X58613745Y-225217298D01*
X58613745Y-225217297D01*
X58080586Y-224684139D01*
X58434139Y-224330586D01*
X58967297Y-224863745D01*
X59393463Y-224437579D01*
X59393463Y-224437578D01*
X59509485Y-224277889D01*
X59509489Y-224277883D01*
X59599097Y-224102021D01*
X59599099Y-224102015D01*
X59660090Y-223914300D01*
X59690969Y-223719343D01*
X59690969Y-223521959D01*
X59660090Y-223327003D01*
X59599098Y-223139284D01*
X59599097Y-223139281D01*
X59509489Y-222963419D01*
X59509481Y-222963406D01*
X59483511Y-222927661D01*
X59483510Y-222927660D01*
X58917102Y-223494068D01*
X58900066Y-223430488D01*
X58834240Y-223316472D01*
X58741148Y-223223380D01*
X58627132Y-223157554D01*
X58563548Y-223140516D01*
X59129958Y-222574108D01*
X59094208Y-222548134D01*
X58918338Y-222458522D01*
X58918335Y-222458521D01*
X58730616Y-222397529D01*
X58535660Y-222366651D01*
X58338277Y-222366651D01*
X58143319Y-222397529D01*
X57955604Y-222458520D01*
X57955598Y-222458522D01*
X57779736Y-222548130D01*
X57779730Y-222548134D01*
X57620044Y-222664153D01*
X57193874Y-223090321D01*
X57727033Y-223623480D01*
X57373480Y-223977033D01*
X56840321Y-223443874D01*
X56840320Y-223443874D01*
X56414156Y-223870039D01*
X56414155Y-223870041D01*
X56298133Y-224029729D01*
X56208522Y-224205599D01*
X56208521Y-224205602D01*
X56147529Y-224393321D01*
X56116651Y-224588277D01*
X51500500Y-224588277D01*
X51500500Y-202088277D01*
X56116651Y-202088277D01*
X56116651Y-202285660D01*
X56147529Y-202480616D01*
X56208521Y-202668335D01*
X56208522Y-202668338D01*
X56298134Y-202844210D01*
X56324106Y-202879958D01*
X56324107Y-202879958D01*
X56890517Y-202313547D01*
X56907555Y-202377132D01*
X56973381Y-202491147D01*
X57066473Y-202584239D01*
X57180488Y-202650065D01*
X57244069Y-202667101D01*
X56677660Y-203233510D01*
X56677660Y-203233511D01*
X56713415Y-203259488D01*
X56889281Y-203349097D01*
X56889284Y-203349098D01*
X57077003Y-203410090D01*
X57271960Y-203440969D01*
X57469342Y-203440969D01*
X57664298Y-203410090D01*
X57852017Y-203349098D01*
X57852020Y-203349097D01*
X58027890Y-203259486D01*
X58187578Y-203143464D01*
X58187579Y-203143464D01*
X58232473Y-203098571D01*
X58613745Y-202717298D01*
X58613745Y-202717297D01*
X58080586Y-202184139D01*
X58434139Y-201830586D01*
X58967297Y-202363745D01*
X59242766Y-202088277D01*
X81116651Y-202088277D01*
X81116651Y-202285660D01*
X81147529Y-202480616D01*
X81208521Y-202668335D01*
X81208522Y-202668338D01*
X81298134Y-202844210D01*
X81324106Y-202879958D01*
X81324107Y-202879958D01*
X81890517Y-202313547D01*
X81907555Y-202377132D01*
X81973381Y-202491147D01*
X82066473Y-202584239D01*
X82180488Y-202650065D01*
X82244069Y-202667101D01*
X81677660Y-203233510D01*
X81677660Y-203233511D01*
X81713415Y-203259488D01*
X81889281Y-203349097D01*
X81889284Y-203349098D01*
X82077003Y-203410090D01*
X82271960Y-203440969D01*
X82469342Y-203440969D01*
X82664298Y-203410090D01*
X82852017Y-203349098D01*
X82852020Y-203349097D01*
X83027890Y-203259486D01*
X83187578Y-203143464D01*
X83187579Y-203143464D01*
X83613745Y-202717298D01*
X83613745Y-202717297D01*
X83080586Y-202184139D01*
X83434139Y-201830586D01*
X83967298Y-202363745D01*
X84393463Y-201937579D01*
X84393463Y-201937578D01*
X84509485Y-201777889D01*
X84509489Y-201777883D01*
X84599097Y-201602021D01*
X84599099Y-201602015D01*
X84660090Y-201414300D01*
X84690969Y-201219343D01*
X84690969Y-201021959D01*
X84660090Y-200827003D01*
X84599098Y-200639284D01*
X84599097Y-200639281D01*
X84509489Y-200463419D01*
X84509481Y-200463406D01*
X84483511Y-200427661D01*
X84483510Y-200427660D01*
X83917102Y-200994068D01*
X83900066Y-200930488D01*
X83834240Y-200816472D01*
X83741148Y-200723380D01*
X83627132Y-200657554D01*
X83563548Y-200640516D01*
X84129958Y-200074108D01*
X84094208Y-200048134D01*
X83918338Y-199958522D01*
X83918335Y-199958521D01*
X83730616Y-199897529D01*
X83535660Y-199866651D01*
X83338277Y-199866651D01*
X83143319Y-199897529D01*
X82955604Y-199958520D01*
X82955598Y-199958522D01*
X82779736Y-200048130D01*
X82779730Y-200048134D01*
X82620044Y-200164153D01*
X82193874Y-200590321D01*
X82727033Y-201123480D01*
X82373480Y-201477033D01*
X81840321Y-200943874D01*
X81840320Y-200943874D01*
X81414156Y-201370039D01*
X81414155Y-201370041D01*
X81298133Y-201529729D01*
X81208522Y-201705599D01*
X81208521Y-201705602D01*
X81147529Y-201893321D01*
X81116651Y-202088277D01*
X59242766Y-202088277D01*
X59335319Y-201995724D01*
X59393463Y-201937579D01*
X59393463Y-201937578D01*
X59509485Y-201777889D01*
X59509489Y-201777883D01*
X59599097Y-201602021D01*
X59599099Y-201602015D01*
X59660090Y-201414300D01*
X59690969Y-201219343D01*
X59690969Y-201021959D01*
X59660090Y-200827003D01*
X59599098Y-200639284D01*
X59599097Y-200639281D01*
X59509489Y-200463419D01*
X59509481Y-200463406D01*
X59483511Y-200427661D01*
X59483510Y-200427660D01*
X58917102Y-200994068D01*
X58900066Y-200930488D01*
X58834240Y-200816472D01*
X58741148Y-200723380D01*
X58627132Y-200657554D01*
X58563548Y-200640516D01*
X59129958Y-200074108D01*
X59094208Y-200048134D01*
X58918338Y-199958522D01*
X58918335Y-199958521D01*
X58730616Y-199897529D01*
X58535660Y-199866651D01*
X58338277Y-199866651D01*
X58143319Y-199897529D01*
X57955604Y-199958520D01*
X57955598Y-199958522D01*
X57779736Y-200048130D01*
X57779730Y-200048134D01*
X57620044Y-200164153D01*
X57193874Y-200590321D01*
X57727033Y-201123480D01*
X57373480Y-201477033D01*
X56840321Y-200943874D01*
X56840320Y-200943874D01*
X56414156Y-201370039D01*
X56414155Y-201370041D01*
X56298133Y-201529729D01*
X56208522Y-201705599D01*
X56208521Y-201705602D01*
X56147529Y-201893321D01*
X56116651Y-202088277D01*
X51500500Y-202088277D01*
X51500500Y-199651263D01*
X62991500Y-199651263D01*
X62991500Y-199848736D01*
X63022389Y-200043763D01*
X63061507Y-200164153D01*
X63083409Y-200231561D01*
X63166562Y-200394755D01*
X63173058Y-200407504D01*
X63289115Y-200567246D01*
X63428753Y-200706884D01*
X63578234Y-200815486D01*
X63588499Y-200822944D01*
X63764439Y-200912591D01*
X63860719Y-200943874D01*
X63952236Y-200973610D01*
X64147264Y-201004500D01*
X64147269Y-201004500D01*
X65852736Y-201004500D01*
X66047763Y-200973610D01*
X66082279Y-200962395D01*
X66235561Y-200912591D01*
X66411501Y-200822944D01*
X66501192Y-200757779D01*
X66571246Y-200706884D01*
X66571248Y-200706881D01*
X66571252Y-200706879D01*
X66710879Y-200567252D01*
X66826944Y-200407501D01*
X66916591Y-200231561D01*
X66977610Y-200043763D01*
X66991111Y-199958520D01*
X67008500Y-199848736D01*
X67008500Y-199651263D01*
X87991500Y-199651263D01*
X87991500Y-199848736D01*
X88022389Y-200043763D01*
X88061507Y-200164153D01*
X88083409Y-200231561D01*
X88166562Y-200394755D01*
X88173058Y-200407504D01*
X88289115Y-200567246D01*
X88428753Y-200706884D01*
X88578234Y-200815486D01*
X88588499Y-200822944D01*
X88764439Y-200912591D01*
X88860719Y-200943874D01*
X88952236Y-200973610D01*
X89147264Y-201004500D01*
X89147269Y-201004500D01*
X90852736Y-201004500D01*
X91047763Y-200973610D01*
X91082279Y-200962395D01*
X91235561Y-200912591D01*
X91411501Y-200822944D01*
X91501192Y-200757779D01*
X91571246Y-200706884D01*
X91571248Y-200706881D01*
X91571252Y-200706879D01*
X91710879Y-200567252D01*
X91710881Y-200567248D01*
X91710884Y-200567246D01*
X91784389Y-200466073D01*
X91826944Y-200407501D01*
X91916591Y-200231561D01*
X91977610Y-200043763D01*
X91991111Y-199958520D01*
X92008500Y-199848736D01*
X92008500Y-199651263D01*
X91977610Y-199456236D01*
X91924349Y-199292317D01*
X91916591Y-199268439D01*
X91826944Y-199092499D01*
X91803518Y-199060255D01*
X91710884Y-198932753D01*
X91571246Y-198793115D01*
X91411504Y-198677058D01*
X91411503Y-198677057D01*
X91411501Y-198677056D01*
X91235561Y-198587409D01*
X91235558Y-198587408D01*
X91047763Y-198526389D01*
X90852736Y-198495500D01*
X90852731Y-198495500D01*
X89147269Y-198495500D01*
X89147264Y-198495500D01*
X88952236Y-198526389D01*
X88764441Y-198587408D01*
X88588495Y-198677058D01*
X88428753Y-198793115D01*
X88289115Y-198932753D01*
X88173058Y-199092495D01*
X88083408Y-199268441D01*
X88022389Y-199456236D01*
X87991500Y-199651263D01*
X67008500Y-199651263D01*
X66977610Y-199456236D01*
X66924349Y-199292317D01*
X66916591Y-199268439D01*
X66826944Y-199092499D01*
X66803518Y-199060255D01*
X66710884Y-198932753D01*
X66571246Y-198793115D01*
X66411504Y-198677058D01*
X66411503Y-198677057D01*
X66411501Y-198677056D01*
X66235561Y-198587409D01*
X66235558Y-198587408D01*
X66047763Y-198526389D01*
X65852736Y-198495500D01*
X65852731Y-198495500D01*
X64147269Y-198495500D01*
X64147264Y-198495500D01*
X63952236Y-198526389D01*
X63764441Y-198587408D01*
X63588495Y-198677058D01*
X63428753Y-198793115D01*
X63289115Y-198932753D01*
X63173058Y-199092495D01*
X63083408Y-199268441D01*
X63022389Y-199456236D01*
X62991500Y-199651263D01*
X51500500Y-199651263D01*
X51500500Y-179588277D01*
X56116651Y-179588277D01*
X56116651Y-179785660D01*
X56147529Y-179980616D01*
X56208521Y-180168335D01*
X56208522Y-180168338D01*
X56298134Y-180344210D01*
X56324106Y-180379958D01*
X56324107Y-180379958D01*
X56890517Y-179813547D01*
X56907555Y-179877132D01*
X56973381Y-179991147D01*
X57066473Y-180084239D01*
X57180488Y-180150065D01*
X57244069Y-180167101D01*
X56677660Y-180733510D01*
X56677660Y-180733511D01*
X56713415Y-180759488D01*
X56889281Y-180849097D01*
X56889284Y-180849098D01*
X57077003Y-180910090D01*
X57271960Y-180940969D01*
X57469342Y-180940969D01*
X57664298Y-180910090D01*
X57852017Y-180849098D01*
X57852020Y-180849097D01*
X58027890Y-180759486D01*
X58187578Y-180643464D01*
X58187579Y-180643464D01*
X58613745Y-180217298D01*
X58613745Y-180217297D01*
X58080586Y-179684139D01*
X58434139Y-179330586D01*
X58967297Y-179863745D01*
X59393463Y-179437579D01*
X59393463Y-179437578D01*
X59509485Y-179277889D01*
X59509489Y-179277883D01*
X59599097Y-179102021D01*
X59599099Y-179102015D01*
X59660090Y-178914300D01*
X59690969Y-178719343D01*
X59690969Y-178521959D01*
X59660090Y-178327003D01*
X59599098Y-178139284D01*
X59599097Y-178139281D01*
X59509489Y-177963419D01*
X59509481Y-177963406D01*
X59483511Y-177927661D01*
X59483510Y-177927660D01*
X58917102Y-178494068D01*
X58900066Y-178430488D01*
X58834240Y-178316472D01*
X58741148Y-178223380D01*
X58627132Y-178157554D01*
X58563548Y-178140516D01*
X59129958Y-177574108D01*
X59094208Y-177548134D01*
X58918338Y-177458522D01*
X58918335Y-177458521D01*
X58730616Y-177397529D01*
X58535660Y-177366651D01*
X58338277Y-177366651D01*
X58143319Y-177397529D01*
X57955604Y-177458520D01*
X57955598Y-177458522D01*
X57779736Y-177548130D01*
X57779730Y-177548134D01*
X57620044Y-177664153D01*
X57193874Y-178090321D01*
X57727033Y-178623480D01*
X57373480Y-178977033D01*
X56840321Y-178443874D01*
X56840320Y-178443874D01*
X56414156Y-178870039D01*
X56414155Y-178870041D01*
X56298133Y-179029729D01*
X56208522Y-179205599D01*
X56208521Y-179205602D01*
X56147529Y-179393321D01*
X56116651Y-179588277D01*
X51500500Y-179588277D01*
X51500500Y-176124500D01*
X51520185Y-176057461D01*
X51572989Y-176011706D01*
X51624500Y-176000500D01*
X63449874Y-176000500D01*
X63516913Y-176020185D01*
G37*
G04 #@! TD.AperFunction*
G04 #@! TA.AperFunction,Conductor*
G36*
X100053944Y-220693999D02*
G01*
X100092986Y-220739056D01*
X100097451Y-220747820D01*
X100222390Y-220919786D01*
X100372713Y-221070109D01*
X100544679Y-221195048D01*
X100544681Y-221195049D01*
X100544684Y-221195051D01*
X100553993Y-221199794D01*
X100604790Y-221247766D01*
X100621587Y-221315587D01*
X100599052Y-221381722D01*
X100554005Y-221420760D01*
X100544946Y-221425376D01*
X100544940Y-221425380D01*
X100490782Y-221464727D01*
X100490782Y-221464728D01*
X101123091Y-222097037D01*
X101059507Y-222114075D01*
X100945493Y-222179901D01*
X100852401Y-222272993D01*
X100786575Y-222387007D01*
X100769537Y-222450591D01*
X100137228Y-221818282D01*
X100137227Y-221818282D01*
X100097880Y-221872440D01*
X100092983Y-221882051D01*
X100045006Y-221932845D01*
X99977184Y-221949638D01*
X99911050Y-221927098D01*
X99872016Y-221882048D01*
X99867126Y-221872452D01*
X99827770Y-221818282D01*
X99827769Y-221818282D01*
X99195462Y-222450590D01*
X99178425Y-222387007D01*
X99112599Y-222272993D01*
X99019507Y-222179901D01*
X98905493Y-222114075D01*
X98841909Y-222097037D01*
X99474216Y-221464728D01*
X99420047Y-221425373D01*
X99420047Y-221425372D01*
X99411000Y-221420763D01*
X99360206Y-221372788D01*
X99343412Y-221304966D01*
X99365951Y-221238832D01*
X99411008Y-221199793D01*
X99420316Y-221195051D01*
X99568474Y-221087409D01*
X99592286Y-221070109D01*
X99592288Y-221070106D01*
X99592292Y-221070104D01*
X99742604Y-220919792D01*
X99742606Y-220919788D01*
X99742609Y-220919786D01*
X99867548Y-220747820D01*
X99867547Y-220747820D01*
X99867551Y-220747816D01*
X99872014Y-220739054D01*
X99919988Y-220688259D01*
X99987808Y-220671463D01*
X100053944Y-220693999D01*
G37*
G04 #@! TD.AperFunction*
G04 #@! TA.AperFunction,Conductor*
G36*
X113484075Y-195057007D02*
G01*
X113450000Y-195184174D01*
X113450000Y-195315826D01*
X113484075Y-195442993D01*
X113516988Y-195500000D01*
X111843012Y-195500000D01*
X111875925Y-195442993D01*
X111910000Y-195315826D01*
X111910000Y-195184174D01*
X111875925Y-195057007D01*
X111843012Y-195000000D01*
X113516988Y-195000000D01*
X113484075Y-195057007D01*
G37*
G04 #@! TD.AperFunction*
M02*
