M48
; DRILL file {KiCad 9.0.0} date 2025-03-15T23:03:34+0100
; FORMAT={-:-/ absolute / metric / decimal}
; #@! TF.CreationDate,2025-03-15T23:03:34+01:00
; #@! TF.GenerationSoftware,Kicad,Pcbnew,9.0.0
; #@! TF.FileFunction,Plated,1,2,PTH
FMAT,2
METRIC
; #@! TA.AperFunction,Plated,PTH,ComponentDrill
T1C0.800
; #@! TA.AperFunction,Plated,PTH,ComponentDrill
T2C1.000
%
G90
G05
T1
X118.25Y-215.0
X118.25Y-220.0
X121.2Y-213.7
X121.2Y-221.32
X123.74Y-213.7
X123.74Y-221.32
X125.0Y-199.19
X125.0Y-206.81
X126.28Y-213.7
X126.28Y-221.32
X128.82Y-213.7
X128.82Y-221.32
X131.75Y-215.0
X131.75Y-220.0
T2
X86.01Y-195.25
X88.55Y-195.25
X91.09Y-195.25
X93.63Y-195.25
X96.17Y-195.25
X98.71Y-195.25
X98.712Y-212.42
X98.712Y-214.96
X98.712Y-217.5
X98.712Y-220.04
X98.712Y-222.58
X101.25Y-195.25
X101.252Y-212.42
X101.252Y-214.96
X101.252Y-217.5
X101.252Y-220.04
X101.252Y-222.58
X103.79Y-195.25
X106.33Y-195.25
X108.87Y-195.25
X111.41Y-195.25
X112.5Y-217.5
X113.95Y-195.25
X137.5Y-217.5
T2
X58.434Y-178.623G85X57.373Y-179.684
G05
X58.434Y-201.123G85X57.373Y-202.184
G05
X58.434Y-223.623G85X57.373Y-224.684
G05
X64.25Y-177.25G85X65.75Y-177.25
G05
X64.25Y-199.75G85X65.75Y-199.75
G05
X64.25Y-222.25G85X65.75Y-222.25
G05
X69.0Y-182.5G85X69.0Y-184.0
G05
X69.0Y-205.0G85X69.0Y-206.5
G05
X69.0Y-227.5G85X69.0Y-229.0
G05
X83.434Y-201.123G85X82.373Y-202.184
G05
X83.434Y-223.623G85X82.373Y-224.684
G05
X89.25Y-199.75G85X90.75Y-199.75
G05
X89.25Y-222.25G85X90.75Y-222.25
G05
X94.0Y-205.0G85X94.0Y-206.5
G05
X94.0Y-227.5G85X94.0Y-229.0
G05
X108.434Y-201.123G85X107.373Y-202.184
G05
X108.434Y-223.623G85X107.373Y-224.684
G05
X114.25Y-199.75G85X115.75Y-199.75
G05
X114.25Y-222.25G85X115.75Y-222.25
G05
X119.0Y-205.0G85X119.0Y-206.5
G05
X119.0Y-227.5G85X119.0Y-229.0
G05
X133.434Y-223.623G85X132.373Y-224.684
G05
X133.53Y-201.123G85X132.47Y-202.184
G05
X139.25Y-222.25G85X140.75Y-222.25
G05
X139.346Y-199.75G85X140.846Y-199.75
G05
X144.0Y-227.5G85X144.0Y-229.0
G05
X144.096Y-205.0G85X144.096Y-206.5
G05
M30
