G04 #@! TF.GenerationSoftware,KiCad,Pcbnew,8.0.3*
G04 #@! TF.CreationDate,2024-06-29T18:44:13+02:00*
G04 #@! TF.ProjectId,DMH_VCO_40106_PANEL,444d485f-5643-44f5-9f34-303130365f50,1*
G04 #@! TF.SameCoordinates,Original*
G04 #@! TF.FileFunction,Legend,Bot*
G04 #@! TF.FilePolarity,Positive*
%FSLAX46Y46*%
G04 Gerber Fmt 4.6, Leading zero omitted, Abs format (unit mm)*
G04 Created by KiCad (PCBNEW 8.0.3) date 2024-06-29 18:44:13*
%MOMM*%
%LPD*%
G01*
G04 APERTURE LIST*
%ADD10C,0.300000*%
%ADD11C,2.600000*%
%ADD12C,13.000000*%
%ADD13C,0.500000*%
%ADD14C,12.000000*%
%ADD15C,4.000000*%
%ADD16C,3.100000*%
%ADD17C,2.200000*%
%ADD18R,5.000000X10.000000*%
G04 APERTURE END LIST*
D10*
X109892856Y-243428328D02*
X109892856Y-241928328D01*
X109892856Y-241928328D02*
X109392856Y-242999757D01*
X109392856Y-242999757D02*
X108892856Y-241928328D01*
X108892856Y-241928328D02*
X108892856Y-243428328D01*
X108178570Y-243428328D02*
X108178570Y-241928328D01*
X108035713Y-242856900D02*
X107607141Y-243428328D01*
X107607141Y-242428328D02*
X108178570Y-242999757D01*
X106178569Y-243428328D02*
X107035712Y-243428328D01*
X106607141Y-243428328D02*
X106607141Y-241928328D01*
X106607141Y-241928328D02*
X106749998Y-242142614D01*
X106749998Y-242142614D02*
X106892855Y-242285471D01*
X106892855Y-242285471D02*
X107035712Y-242356900D01*
X104392856Y-242856900D02*
X103249999Y-242856900D01*
X100964284Y-241928328D02*
X100964284Y-242999757D01*
X100964284Y-242999757D02*
X101035713Y-243214042D01*
X101035713Y-243214042D02*
X101178570Y-243356900D01*
X101178570Y-243356900D02*
X101392856Y-243428328D01*
X101392856Y-243428328D02*
X101535713Y-243428328D01*
X99607142Y-242428328D02*
X99607142Y-243428328D01*
X100249999Y-242428328D02*
X100249999Y-243214042D01*
X100249999Y-243214042D02*
X100178570Y-243356900D01*
X100178570Y-243356900D02*
X100035713Y-243428328D01*
X100035713Y-243428328D02*
X99821427Y-243428328D01*
X99821427Y-243428328D02*
X99678570Y-243356900D01*
X99678570Y-243356900D02*
X99607142Y-243285471D01*
X98892856Y-242428328D02*
X98892856Y-243428328D01*
X98892856Y-242571185D02*
X98821427Y-242499757D01*
X98821427Y-242499757D02*
X98678570Y-242428328D01*
X98678570Y-242428328D02*
X98464284Y-242428328D01*
X98464284Y-242428328D02*
X98321427Y-242499757D01*
X98321427Y-242499757D02*
X98249999Y-242642614D01*
X98249999Y-242642614D02*
X98249999Y-243428328D01*
X96964284Y-243356900D02*
X97107141Y-243428328D01*
X97107141Y-243428328D02*
X97392856Y-243428328D01*
X97392856Y-243428328D02*
X97535713Y-243356900D01*
X97535713Y-243356900D02*
X97607141Y-243214042D01*
X97607141Y-243214042D02*
X97607141Y-242642614D01*
X97607141Y-242642614D02*
X97535713Y-242499757D01*
X97535713Y-242499757D02*
X97392856Y-242428328D01*
X97392856Y-242428328D02*
X97107141Y-242428328D01*
X97107141Y-242428328D02*
X96964284Y-242499757D01*
X96964284Y-242499757D02*
X96892856Y-242642614D01*
X96892856Y-242642614D02*
X96892856Y-242785471D01*
X96892856Y-242785471D02*
X97607141Y-242928328D01*
X95178570Y-242071185D02*
X95107142Y-241999757D01*
X95107142Y-241999757D02*
X94964285Y-241928328D01*
X94964285Y-241928328D02*
X94607142Y-241928328D01*
X94607142Y-241928328D02*
X94464285Y-241999757D01*
X94464285Y-241999757D02*
X94392856Y-242071185D01*
X94392856Y-242071185D02*
X94321427Y-242214042D01*
X94321427Y-242214042D02*
X94321427Y-242356900D01*
X94321427Y-242356900D02*
X94392856Y-242571185D01*
X94392856Y-242571185D02*
X95249999Y-243428328D01*
X95249999Y-243428328D02*
X94321427Y-243428328D01*
X93392856Y-241928328D02*
X93249999Y-241928328D01*
X93249999Y-241928328D02*
X93107142Y-241999757D01*
X93107142Y-241999757D02*
X93035714Y-242071185D01*
X93035714Y-242071185D02*
X92964285Y-242214042D01*
X92964285Y-242214042D02*
X92892856Y-242499757D01*
X92892856Y-242499757D02*
X92892856Y-242856900D01*
X92892856Y-242856900D02*
X92964285Y-243142614D01*
X92964285Y-243142614D02*
X93035714Y-243285471D01*
X93035714Y-243285471D02*
X93107142Y-243356900D01*
X93107142Y-243356900D02*
X93249999Y-243428328D01*
X93249999Y-243428328D02*
X93392856Y-243428328D01*
X93392856Y-243428328D02*
X93535714Y-243356900D01*
X93535714Y-243356900D02*
X93607142Y-243285471D01*
X93607142Y-243285471D02*
X93678571Y-243142614D01*
X93678571Y-243142614D02*
X93749999Y-242856900D01*
X93749999Y-242856900D02*
X93749999Y-242499757D01*
X93749999Y-242499757D02*
X93678571Y-242214042D01*
X93678571Y-242214042D02*
X93607142Y-242071185D01*
X93607142Y-242071185D02*
X93535714Y-241999757D01*
X93535714Y-241999757D02*
X93392856Y-241928328D01*
X92321428Y-242071185D02*
X92250000Y-241999757D01*
X92250000Y-241999757D02*
X92107143Y-241928328D01*
X92107143Y-241928328D02*
X91750000Y-241928328D01*
X91750000Y-241928328D02*
X91607143Y-241999757D01*
X91607143Y-241999757D02*
X91535714Y-242071185D01*
X91535714Y-242071185D02*
X91464285Y-242214042D01*
X91464285Y-242214042D02*
X91464285Y-242356900D01*
X91464285Y-242356900D02*
X91535714Y-242571185D01*
X91535714Y-242571185D02*
X92392857Y-243428328D01*
X92392857Y-243428328D02*
X91464285Y-243428328D01*
X90178572Y-242428328D02*
X90178572Y-243428328D01*
X90535714Y-241856900D02*
X90892857Y-242928328D01*
X90892857Y-242928328D02*
X89964286Y-242928328D01*
X106928571Y-245178328D02*
X106928571Y-246249757D01*
X106928571Y-246249757D02*
X107000000Y-246464042D01*
X107000000Y-246464042D02*
X107142857Y-246606900D01*
X107142857Y-246606900D02*
X107357143Y-246678328D01*
X107357143Y-246678328D02*
X107500000Y-246678328D01*
X105500000Y-246678328D02*
X106214286Y-246678328D01*
X106214286Y-246678328D02*
X106214286Y-245178328D01*
X104142857Y-246535471D02*
X104214285Y-246606900D01*
X104214285Y-246606900D02*
X104428571Y-246678328D01*
X104428571Y-246678328D02*
X104571428Y-246678328D01*
X104571428Y-246678328D02*
X104785714Y-246606900D01*
X104785714Y-246606900D02*
X104928571Y-246464042D01*
X104928571Y-246464042D02*
X105000000Y-246321185D01*
X105000000Y-246321185D02*
X105071428Y-246035471D01*
X105071428Y-246035471D02*
X105071428Y-245821185D01*
X105071428Y-245821185D02*
X105000000Y-245535471D01*
X105000000Y-245535471D02*
X104928571Y-245392614D01*
X104928571Y-245392614D02*
X104785714Y-245249757D01*
X104785714Y-245249757D02*
X104571428Y-245178328D01*
X104571428Y-245178328D02*
X104428571Y-245178328D01*
X104428571Y-245178328D02*
X104214285Y-245249757D01*
X104214285Y-245249757D02*
X104142857Y-245321185D01*
X103071428Y-245178328D02*
X103071428Y-246249757D01*
X103071428Y-246249757D02*
X103142857Y-246464042D01*
X103142857Y-246464042D02*
X103285714Y-246606900D01*
X103285714Y-246606900D02*
X103500000Y-246678328D01*
X103500000Y-246678328D02*
X103642857Y-246678328D01*
X101642857Y-246678328D02*
X102357143Y-246678328D01*
X102357143Y-246678328D02*
X102357143Y-245178328D01*
X100285714Y-246535471D02*
X100357142Y-246606900D01*
X100357142Y-246606900D02*
X100571428Y-246678328D01*
X100571428Y-246678328D02*
X100714285Y-246678328D01*
X100714285Y-246678328D02*
X100928571Y-246606900D01*
X100928571Y-246606900D02*
X101071428Y-246464042D01*
X101071428Y-246464042D02*
X101142857Y-246321185D01*
X101142857Y-246321185D02*
X101214285Y-246035471D01*
X101214285Y-246035471D02*
X101214285Y-245821185D01*
X101214285Y-245821185D02*
X101142857Y-245535471D01*
X101142857Y-245535471D02*
X101071428Y-245392614D01*
X101071428Y-245392614D02*
X100928571Y-245249757D01*
X100928571Y-245249757D02*
X100714285Y-245178328D01*
X100714285Y-245178328D02*
X100571428Y-245178328D01*
X100571428Y-245178328D02*
X100357142Y-245249757D01*
X100357142Y-245249757D02*
X100285714Y-245321185D01*
X99214285Y-245178328D02*
X99214285Y-246249757D01*
X99214285Y-246249757D02*
X99285714Y-246464042D01*
X99285714Y-246464042D02*
X99428571Y-246606900D01*
X99428571Y-246606900D02*
X99642857Y-246678328D01*
X99642857Y-246678328D02*
X99785714Y-246678328D01*
X97785714Y-246678328D02*
X98500000Y-246678328D01*
X98500000Y-246678328D02*
X98500000Y-245178328D01*
X96428571Y-246535471D02*
X96499999Y-246606900D01*
X96499999Y-246606900D02*
X96714285Y-246678328D01*
X96714285Y-246678328D02*
X96857142Y-246678328D01*
X96857142Y-246678328D02*
X97071428Y-246606900D01*
X97071428Y-246606900D02*
X97214285Y-246464042D01*
X97214285Y-246464042D02*
X97285714Y-246321185D01*
X97285714Y-246321185D02*
X97357142Y-246035471D01*
X97357142Y-246035471D02*
X97357142Y-245821185D01*
X97357142Y-245821185D02*
X97285714Y-245535471D01*
X97285714Y-245535471D02*
X97214285Y-245392614D01*
X97214285Y-245392614D02*
X97071428Y-245249757D01*
X97071428Y-245249757D02*
X96857142Y-245178328D01*
X96857142Y-245178328D02*
X96714285Y-245178328D01*
X96714285Y-245178328D02*
X96499999Y-245249757D01*
X96499999Y-245249757D02*
X96428571Y-245321185D01*
X95357142Y-245178328D02*
X95357142Y-246249757D01*
X95357142Y-246249757D02*
X95428571Y-246464042D01*
X95428571Y-246464042D02*
X95571428Y-246606900D01*
X95571428Y-246606900D02*
X95785714Y-246678328D01*
X95785714Y-246678328D02*
X95928571Y-246678328D01*
X93928571Y-246678328D02*
X94642857Y-246678328D01*
X94642857Y-246678328D02*
X94642857Y-245178328D01*
X92571428Y-246535471D02*
X92642856Y-246606900D01*
X92642856Y-246606900D02*
X92857142Y-246678328D01*
X92857142Y-246678328D02*
X92999999Y-246678328D01*
X92999999Y-246678328D02*
X93214285Y-246606900D01*
X93214285Y-246606900D02*
X93357142Y-246464042D01*
X93357142Y-246464042D02*
X93428571Y-246321185D01*
X93428571Y-246321185D02*
X93499999Y-246035471D01*
X93499999Y-246035471D02*
X93499999Y-245821185D01*
X93499999Y-245821185D02*
X93428571Y-245535471D01*
X93428571Y-245535471D02*
X93357142Y-245392614D01*
X93357142Y-245392614D02*
X93214285Y-245249757D01*
X93214285Y-245249757D02*
X92999999Y-245178328D01*
X92999999Y-245178328D02*
X92857142Y-245178328D01*
X92857142Y-245178328D02*
X92642856Y-245249757D01*
X92642856Y-245249757D02*
X92571428Y-245321185D01*
X57892856Y-130599757D02*
X58035714Y-130528328D01*
X58035714Y-130528328D02*
X58249999Y-130528328D01*
X58249999Y-130528328D02*
X58464285Y-130599757D01*
X58464285Y-130599757D02*
X58607142Y-130742614D01*
X58607142Y-130742614D02*
X58678571Y-130885471D01*
X58678571Y-130885471D02*
X58749999Y-131171185D01*
X58749999Y-131171185D02*
X58749999Y-131385471D01*
X58749999Y-131385471D02*
X58678571Y-131671185D01*
X58678571Y-131671185D02*
X58607142Y-131814042D01*
X58607142Y-131814042D02*
X58464285Y-131956900D01*
X58464285Y-131956900D02*
X58249999Y-132028328D01*
X58249999Y-132028328D02*
X58107142Y-132028328D01*
X58107142Y-132028328D02*
X57892856Y-131956900D01*
X57892856Y-131956900D02*
X57821428Y-131885471D01*
X57821428Y-131885471D02*
X57821428Y-131385471D01*
X57821428Y-131385471D02*
X58107142Y-131385471D01*
X57178571Y-132028328D02*
X57178571Y-130528328D01*
X57178571Y-130528328D02*
X56321428Y-132028328D01*
X56321428Y-132028328D02*
X56321428Y-130528328D01*
X55607142Y-132028328D02*
X55607142Y-130528328D01*
X55607142Y-130528328D02*
X55249999Y-130528328D01*
X55249999Y-130528328D02*
X55035713Y-130599757D01*
X55035713Y-130599757D02*
X54892856Y-130742614D01*
X54892856Y-130742614D02*
X54821427Y-130885471D01*
X54821427Y-130885471D02*
X54749999Y-131171185D01*
X54749999Y-131171185D02*
X54749999Y-131385471D01*
X54749999Y-131385471D02*
X54821427Y-131671185D01*
X54821427Y-131671185D02*
X54892856Y-131814042D01*
X54892856Y-131814042D02*
X55035713Y-131956900D01*
X55035713Y-131956900D02*
X55249999Y-132028328D01*
X55249999Y-132028328D02*
X55607142Y-132028328D01*
%LPC*%
D11*
X139500000Y-65600000D03*
D12*
X139500000Y-72000000D03*
D11*
X62500000Y-139600000D03*
D12*
X62500000Y-146000000D03*
D11*
X119500000Y-65600000D03*
D12*
X119500000Y-72000000D03*
X87500000Y-183750000D03*
X81000000Y-92000000D03*
D13*
X106800000Y-228750000D03*
X108460000Y-224720000D03*
X108470000Y-232790000D03*
X112500000Y-223050000D03*
D14*
X112500000Y-228750000D03*
D13*
X112500000Y-234450000D03*
X116530000Y-232790000D03*
X116540000Y-224720000D03*
X118200000Y-228750000D03*
D15*
X54000000Y-246000000D03*
X146000000Y-54000000D03*
D16*
X124500000Y-111620000D03*
D17*
X141500000Y-119750000D03*
X117500000Y-119750000D03*
X133500000Y-119750000D03*
D13*
X56800000Y-228750000D03*
X58460000Y-224720000D03*
X58470000Y-232790000D03*
X62500000Y-223050000D03*
D14*
X62500000Y-228750000D03*
D13*
X62500000Y-234450000D03*
X66530000Y-232790000D03*
X66540000Y-224720000D03*
X68200000Y-228750000D03*
X131800000Y-206250000D03*
X133460000Y-202220000D03*
X133470000Y-210290000D03*
X137500000Y-200550000D03*
D14*
X137500000Y-206250000D03*
D13*
X137500000Y-211950000D03*
X141530000Y-210290000D03*
X141540000Y-202220000D03*
X143200000Y-206250000D03*
D16*
X139500000Y-91500000D03*
X139500000Y-111620000D03*
D12*
X131500000Y-146000000D03*
D15*
X54000000Y-54000000D03*
D16*
X134500000Y-111620000D03*
X129500000Y-111620000D03*
D12*
X137500000Y-183750000D03*
D15*
X146000000Y-246000000D03*
D16*
X119500000Y-91500000D03*
D13*
X81800000Y-206250000D03*
X83460000Y-202220000D03*
X83470000Y-210290000D03*
X87500000Y-200550000D03*
D14*
X87500000Y-206250000D03*
D13*
X87500000Y-211950000D03*
X91530000Y-210290000D03*
X91540000Y-202220000D03*
X93200000Y-206250000D03*
D17*
X125500000Y-119750000D03*
D12*
X93500000Y-146000000D03*
D16*
X119500000Y-111620000D03*
D13*
X56840000Y-206250000D03*
X58500000Y-202220000D03*
X58510000Y-210290000D03*
X62540000Y-200550000D03*
D14*
X62540000Y-206250000D03*
D13*
X62540000Y-211950000D03*
X66570000Y-210290000D03*
X66580000Y-202220000D03*
X68240000Y-206250000D03*
X106800000Y-206250000D03*
X108460000Y-202220000D03*
X108470000Y-210290000D03*
X112500000Y-200550000D03*
D14*
X112500000Y-206250000D03*
D13*
X112500000Y-211950000D03*
X116530000Y-210290000D03*
X116540000Y-202220000D03*
X118200000Y-206250000D03*
X131800000Y-228750000D03*
X133460000Y-224720000D03*
X133470000Y-232790000D03*
X137500000Y-223050000D03*
D14*
X137500000Y-228750000D03*
D13*
X137500000Y-234450000D03*
X141530000Y-232790000D03*
X141540000Y-224720000D03*
X143200000Y-228750000D03*
X81800000Y-228750000D03*
X83460000Y-224720000D03*
X83470000Y-232790000D03*
X87500000Y-223050000D03*
D14*
X87500000Y-228750000D03*
D13*
X87500000Y-234450000D03*
X91530000Y-232790000D03*
X91540000Y-224720000D03*
X93200000Y-228750000D03*
D12*
X112500000Y-183750000D03*
D13*
X56800000Y-183750000D03*
X58460000Y-179720000D03*
X58470000Y-187790000D03*
X62500000Y-178050000D03*
D14*
X62500000Y-183750000D03*
D13*
X62500000Y-189450000D03*
X66530000Y-187790000D03*
X66540000Y-179720000D03*
X68200000Y-183750000D03*
D18*
X56750000Y-125000000D03*
%LPD*%
M02*
