G04 #@! TF.GenerationSoftware,KiCad,Pcbnew,8.0.3*
G04 #@! TF.CreationDate,2024-06-29T18:44:13+02:00*
G04 #@! TF.ProjectId,DMH_VCO_40106_PANEL,444d485f-5643-44f5-9f34-303130365f50,1*
G04 #@! TF.SameCoordinates,Original*
G04 #@! TF.FileFunction,Profile,NP*
%FSLAX46Y46*%
G04 Gerber Fmt 4.6, Leading zero omitted, Abs format (unit mm)*
G04 Created by KiCad (PCBNEW 8.0.3) date 2024-06-29 18:44:13*
%MOMM*%
%LPD*%
G01*
G04 APERTURE LIST*
G04 #@! TA.AperFunction,Profile*
%ADD10C,0.050000*%
G04 #@! TD*
G04 APERTURE END LIST*
D10*
X50000000Y-50000000D02*
X150000000Y-50000000D01*
X150000000Y-250000000D01*
X50000000Y-250000000D01*
X50000000Y-50000000D01*
X117400000Y-228750000D02*
G75*
G02*
X107600000Y-228750000I-4900000J0D01*
G01*
X107600000Y-228750000D02*
G75*
G02*
X117400000Y-228750000I4900000J0D01*
G01*
X67400000Y-228750000D02*
G75*
G02*
X57600000Y-228750000I-4900000J0D01*
G01*
X57600000Y-228750000D02*
G75*
G02*
X67400000Y-228750000I4900000J0D01*
G01*
X142400000Y-206250000D02*
G75*
G02*
X132600000Y-206250000I-4900000J0D01*
G01*
X132600000Y-206250000D02*
G75*
G02*
X142400000Y-206250000I4900000J0D01*
G01*
X92400000Y-206250000D02*
G75*
G02*
X82600000Y-206250000I-4900000J0D01*
G01*
X82600000Y-206250000D02*
G75*
G02*
X92400000Y-206250000I4900000J0D01*
G01*
X122950000Y-88220000D02*
X136050000Y-88220000D01*
X122950000Y-107780000D02*
X122950000Y-88220000D01*
X122950000Y-107780000D02*
X136050000Y-107780000D01*
X136050000Y-107780000D02*
X136050000Y-88220000D01*
X67440000Y-206250000D02*
G75*
G02*
X57640000Y-206250000I-4900000J0D01*
G01*
X57640000Y-206250000D02*
G75*
G02*
X67440000Y-206250000I4900000J0D01*
G01*
X117400000Y-206250000D02*
G75*
G02*
X107600000Y-206250000I-4900000J0D01*
G01*
X107600000Y-206250000D02*
G75*
G02*
X117400000Y-206250000I4900000J0D01*
G01*
X142400000Y-228750000D02*
G75*
G02*
X132600000Y-228750000I-4900000J0D01*
G01*
X132600000Y-228750000D02*
G75*
G02*
X142400000Y-228750000I4900000J0D01*
G01*
X92400000Y-228750000D02*
G75*
G02*
X82600000Y-228750000I-4900000J0D01*
G01*
X82600000Y-228750000D02*
G75*
G02*
X92400000Y-228750000I4900000J0D01*
G01*
X67400000Y-183750000D02*
G75*
G02*
X57600000Y-183750000I-4900000J0D01*
G01*
X57600000Y-183750000D02*
G75*
G02*
X67400000Y-183750000I4900000J0D01*
G01*
M02*
