%TF.GenerationSoftware,KiCad,Pcbnew,8.0.5*%
%TF.CreationDate,2024-10-01T23:17:21+02:00*%
%TF.ProjectId,DMH_VCO_40106_PANEL,444d485f-5643-44f5-9f34-303130365f50,1*%
%TF.SameCoordinates,Original*%
%TF.FileFunction,Drillmap*%
%TF.FilePolarity,Positive*%
%FSLAX45Y45*%
G04 Gerber Fmt 4.5, Leading zero omitted, Abs format (unit mm)*
G04 Created by KiCad (PCBNEW 8.0.5) date 2024-10-01 23:17:21*
%MOMM*%
%LPD*%
G01*
G04 APERTURE LIST*
%ADD10C,0.050000*%
%ADD11C,0.200000*%
%ADD12C,0.250000*%
%ADD13C,0.310000*%
G04 APERTURE END LIST*
D10*
X5000000Y-5000000D02*
X15000000Y-5000000D01*
X15000000Y-25000000D01*
X5000000Y-25000000D01*
X5000000Y-5000000D01*
X9100000Y-18375000D02*
G75*
G02*
X8400000Y-18375000I-350000J0D01*
G01*
X8400000Y-18375000D02*
G75*
G02*
X9100000Y-18375000I350000J0D01*
G01*
X8450000Y-9200000D02*
G75*
G02*
X7750000Y-9200000I-350000J0D01*
G01*
X7750000Y-9200000D02*
G75*
G02*
X8450000Y-9200000I350000J0D01*
G01*
X11740000Y-22875000D02*
G75*
G02*
X10760000Y-22875000I-490000J0D01*
G01*
X10760000Y-22875000D02*
G75*
G02*
X11740000Y-22875000I490000J0D01*
G01*
X6740000Y-22875000D02*
G75*
G02*
X5760000Y-22875000I-490000J0D01*
G01*
X5760000Y-22875000D02*
G75*
G02*
X6740000Y-22875000I490000J0D01*
G01*
X14240000Y-20625000D02*
G75*
G02*
X13260000Y-20625000I-490000J0D01*
G01*
X13260000Y-20625000D02*
G75*
G02*
X14240000Y-20625000I490000J0D01*
G01*
X13500000Y-14600000D02*
G75*
G02*
X12800000Y-14600000I-350000J0D01*
G01*
X12800000Y-14600000D02*
G75*
G02*
X13500000Y-14600000I350000J0D01*
G01*
X14100000Y-18375000D02*
G75*
G02*
X13400000Y-18375000I-350000J0D01*
G01*
X13400000Y-18375000D02*
G75*
G02*
X14100000Y-18375000I350000J0D01*
G01*
X9240000Y-20625000D02*
G75*
G02*
X8260000Y-20625000I-490000J0D01*
G01*
X8260000Y-20625000D02*
G75*
G02*
X9240000Y-20625000I490000J0D01*
G01*
X9700000Y-14600000D02*
G75*
G02*
X9000000Y-14600000I-350000J0D01*
G01*
X9000000Y-14600000D02*
G75*
G02*
X9700000Y-14600000I350000J0D01*
G01*
X12275000Y-10748000D02*
X12275000Y-8851000D01*
X12325000Y-8801000D02*
X13581000Y-8801000D01*
X13581000Y-10798000D02*
X12325000Y-10798000D01*
X13631000Y-8851000D02*
X13631000Y-10748000D01*
X12275000Y-8851000D02*
G75*
G02*
X12325000Y-8801000I50000J0D01*
G01*
X12325000Y-10798000D02*
G75*
G02*
X12275000Y-10748000I0J50000D01*
G01*
X13581000Y-8801000D02*
G75*
G02*
X13631000Y-8851000I0J-50000D01*
G01*
X13631000Y-10748000D02*
G75*
G02*
X13581000Y-10798000I-50000J0D01*
G01*
X6740000Y-20625000D02*
G75*
G02*
X5760000Y-20625000I-490000J0D01*
G01*
X5760000Y-20625000D02*
G75*
G02*
X6740000Y-20625000I490000J0D01*
G01*
X11740000Y-20625000D02*
G75*
G02*
X10760000Y-20625000I-490000J0D01*
G01*
X10760000Y-20625000D02*
G75*
G02*
X11740000Y-20625000I490000J0D01*
G01*
X14240000Y-22875000D02*
G75*
G02*
X13260000Y-22875000I-490000J0D01*
G01*
X13260000Y-22875000D02*
G75*
G02*
X14240000Y-22875000I490000J0D01*
G01*
X9240000Y-22875000D02*
G75*
G02*
X8260000Y-22875000I-490000J0D01*
G01*
X8260000Y-22875000D02*
G75*
G02*
X9240000Y-22875000I490000J0D01*
G01*
X11600000Y-18375000D02*
G75*
G02*
X10900000Y-18375000I-350000J0D01*
G01*
X10900000Y-18375000D02*
G75*
G02*
X11600000Y-18375000I350000J0D01*
G01*
X6740000Y-18375000D02*
G75*
G02*
X5760000Y-18375000I-490000J0D01*
G01*
X5760000Y-18375000D02*
G75*
G02*
X6740000Y-18375000I490000J0D01*
G01*
D11*
D12*
X11625000Y-11850000D02*
X11875000Y-12100000D01*
X11875000Y-11850000D02*
X11625000Y-12100000D01*
X12425000Y-11850000D02*
X12675000Y-12100000D01*
X12675000Y-11850000D02*
X12425000Y-12100000D01*
X13225000Y-11850000D02*
X13475000Y-12100000D01*
X13475000Y-11850000D02*
X13225000Y-12100000D01*
X14025000Y-11850000D02*
X14275000Y-12100000D01*
X14275000Y-11850000D02*
X14025000Y-12100000D01*
D13*
X12105000Y-11162000D02*
G75*
G02*
X11795000Y-11162000I-155000J0D01*
G01*
X11795000Y-11162000D02*
G75*
G02*
X12105000Y-11162000I155000J0D01*
G01*
X12605000Y-11162000D02*
G75*
G02*
X12295000Y-11162000I-155000J0D01*
G01*
X12295000Y-11162000D02*
G75*
G02*
X12605000Y-11162000I155000J0D01*
G01*
X13105000Y-11162000D02*
G75*
G02*
X12795000Y-11162000I-155000J0D01*
G01*
X12795000Y-11162000D02*
G75*
G02*
X13105000Y-11162000I155000J0D01*
G01*
X13605000Y-11162000D02*
G75*
G02*
X13295000Y-11162000I-155000J0D01*
G01*
X13295000Y-11162000D02*
G75*
G02*
X13605000Y-11162000I155000J0D01*
G01*
X14105000Y-9150000D02*
G75*
G02*
X13795000Y-9150000I-155000J0D01*
G01*
X13795000Y-9150000D02*
G75*
G02*
X14105000Y-9150000I155000J0D01*
G01*
X14105000Y-11162000D02*
G75*
G02*
X13795000Y-11162000I-155000J0D01*
G01*
X13795000Y-11162000D02*
G75*
G02*
X14105000Y-11162000I155000J0D01*
G01*
D11*
X5258277Y-25313984D02*
X5258277Y-25113984D01*
X5258277Y-25113984D02*
X5305896Y-25113984D01*
X5305896Y-25113984D02*
X5334467Y-25123508D01*
X5334467Y-25123508D02*
X5353515Y-25142555D01*
X5353515Y-25142555D02*
X5363039Y-25161603D01*
X5363039Y-25161603D02*
X5372563Y-25199698D01*
X5372563Y-25199698D02*
X5372563Y-25228269D01*
X5372563Y-25228269D02*
X5363039Y-25266365D01*
X5363039Y-25266365D02*
X5353515Y-25285412D01*
X5353515Y-25285412D02*
X5334467Y-25304460D01*
X5334467Y-25304460D02*
X5305896Y-25313984D01*
X5305896Y-25313984D02*
X5258277Y-25313984D01*
X5458277Y-25313984D02*
X5458277Y-25180650D01*
X5458277Y-25218746D02*
X5467801Y-25199698D01*
X5467801Y-25199698D02*
X5477324Y-25190174D01*
X5477324Y-25190174D02*
X5496372Y-25180650D01*
X5496372Y-25180650D02*
X5515420Y-25180650D01*
X5582086Y-25313984D02*
X5582086Y-25180650D01*
X5582086Y-25113984D02*
X5572563Y-25123508D01*
X5572563Y-25123508D02*
X5582086Y-25133031D01*
X5582086Y-25133031D02*
X5591610Y-25123508D01*
X5591610Y-25123508D02*
X5582086Y-25113984D01*
X5582086Y-25113984D02*
X5582086Y-25133031D01*
X5705896Y-25313984D02*
X5686848Y-25304460D01*
X5686848Y-25304460D02*
X5677324Y-25285412D01*
X5677324Y-25285412D02*
X5677324Y-25113984D01*
X5810658Y-25313984D02*
X5791610Y-25304460D01*
X5791610Y-25304460D02*
X5782086Y-25285412D01*
X5782086Y-25285412D02*
X5782086Y-25113984D01*
X6039229Y-25313984D02*
X6039229Y-25113984D01*
X6039229Y-25113984D02*
X6105896Y-25256841D01*
X6105896Y-25256841D02*
X6172562Y-25113984D01*
X6172562Y-25113984D02*
X6172562Y-25313984D01*
X6353515Y-25313984D02*
X6353515Y-25209222D01*
X6353515Y-25209222D02*
X6343991Y-25190174D01*
X6343991Y-25190174D02*
X6324943Y-25180650D01*
X6324943Y-25180650D02*
X6286848Y-25180650D01*
X6286848Y-25180650D02*
X6267801Y-25190174D01*
X6353515Y-25304460D02*
X6334467Y-25313984D01*
X6334467Y-25313984D02*
X6286848Y-25313984D01*
X6286848Y-25313984D02*
X6267801Y-25304460D01*
X6267801Y-25304460D02*
X6258277Y-25285412D01*
X6258277Y-25285412D02*
X6258277Y-25266365D01*
X6258277Y-25266365D02*
X6267801Y-25247317D01*
X6267801Y-25247317D02*
X6286848Y-25237793D01*
X6286848Y-25237793D02*
X6334467Y-25237793D01*
X6334467Y-25237793D02*
X6353515Y-25228269D01*
X6448753Y-25180650D02*
X6448753Y-25380650D01*
X6448753Y-25190174D02*
X6467801Y-25180650D01*
X6467801Y-25180650D02*
X6505896Y-25180650D01*
X6505896Y-25180650D02*
X6524943Y-25190174D01*
X6524943Y-25190174D02*
X6534467Y-25199698D01*
X6534467Y-25199698D02*
X6543991Y-25218746D01*
X6543991Y-25218746D02*
X6543991Y-25275888D01*
X6543991Y-25275888D02*
X6534467Y-25294936D01*
X6534467Y-25294936D02*
X6524943Y-25304460D01*
X6524943Y-25304460D02*
X6505896Y-25313984D01*
X6505896Y-25313984D02*
X6467801Y-25313984D01*
X6467801Y-25313984D02*
X6448753Y-25304460D01*
X6629705Y-25294936D02*
X6639229Y-25304460D01*
X6639229Y-25304460D02*
X6629705Y-25313984D01*
X6629705Y-25313984D02*
X6620182Y-25304460D01*
X6620182Y-25304460D02*
X6629705Y-25294936D01*
X6629705Y-25294936D02*
X6629705Y-25313984D01*
X6629705Y-25190174D02*
X6639229Y-25199698D01*
X6639229Y-25199698D02*
X6629705Y-25209222D01*
X6629705Y-25209222D02*
X6620182Y-25199698D01*
X6620182Y-25199698D02*
X6629705Y-25190174D01*
X6629705Y-25190174D02*
X6629705Y-25209222D01*
X4797500Y-25542500D02*
X4997500Y-25742500D01*
X4997500Y-25542500D02*
X4797500Y-25742500D01*
X5248753Y-25553031D02*
X5258277Y-25543508D01*
X5258277Y-25543508D02*
X5277324Y-25533984D01*
X5277324Y-25533984D02*
X5324944Y-25533984D01*
X5324944Y-25533984D02*
X5343991Y-25543508D01*
X5343991Y-25543508D02*
X5353515Y-25553031D01*
X5353515Y-25553031D02*
X5363039Y-25572079D01*
X5363039Y-25572079D02*
X5363039Y-25591127D01*
X5363039Y-25591127D02*
X5353515Y-25619698D01*
X5353515Y-25619698D02*
X5239229Y-25733984D01*
X5239229Y-25733984D02*
X5363039Y-25733984D01*
X5448753Y-25714936D02*
X5458277Y-25724460D01*
X5458277Y-25724460D02*
X5448753Y-25733984D01*
X5448753Y-25733984D02*
X5439229Y-25724460D01*
X5439229Y-25724460D02*
X5448753Y-25714936D01*
X5448753Y-25714936D02*
X5448753Y-25733984D01*
X5639229Y-25533984D02*
X5543991Y-25533984D01*
X5543991Y-25533984D02*
X5534467Y-25629222D01*
X5534467Y-25629222D02*
X5543991Y-25619698D01*
X5543991Y-25619698D02*
X5563039Y-25610174D01*
X5563039Y-25610174D02*
X5610658Y-25610174D01*
X5610658Y-25610174D02*
X5629705Y-25619698D01*
X5629705Y-25619698D02*
X5639229Y-25629222D01*
X5639229Y-25629222D02*
X5648753Y-25648269D01*
X5648753Y-25648269D02*
X5648753Y-25695888D01*
X5648753Y-25695888D02*
X5639229Y-25714936D01*
X5639229Y-25714936D02*
X5629705Y-25724460D01*
X5629705Y-25724460D02*
X5610658Y-25733984D01*
X5610658Y-25733984D02*
X5563039Y-25733984D01*
X5563039Y-25733984D02*
X5543991Y-25724460D01*
X5543991Y-25724460D02*
X5534467Y-25714936D01*
X5772562Y-25533984D02*
X5791610Y-25533984D01*
X5791610Y-25533984D02*
X5810658Y-25543508D01*
X5810658Y-25543508D02*
X5820182Y-25553031D01*
X5820182Y-25553031D02*
X5829705Y-25572079D01*
X5829705Y-25572079D02*
X5839229Y-25610174D01*
X5839229Y-25610174D02*
X5839229Y-25657793D01*
X5839229Y-25657793D02*
X5829705Y-25695888D01*
X5829705Y-25695888D02*
X5820182Y-25714936D01*
X5820182Y-25714936D02*
X5810658Y-25724460D01*
X5810658Y-25724460D02*
X5791610Y-25733984D01*
X5791610Y-25733984D02*
X5772562Y-25733984D01*
X5772562Y-25733984D02*
X5753515Y-25724460D01*
X5753515Y-25724460D02*
X5743991Y-25714936D01*
X5743991Y-25714936D02*
X5734467Y-25695888D01*
X5734467Y-25695888D02*
X5724943Y-25657793D01*
X5724943Y-25657793D02*
X5724943Y-25610174D01*
X5724943Y-25610174D02*
X5734467Y-25572079D01*
X5734467Y-25572079D02*
X5743991Y-25553031D01*
X5743991Y-25553031D02*
X5753515Y-25543508D01*
X5753515Y-25543508D02*
X5772562Y-25533984D01*
X5963039Y-25533984D02*
X5982086Y-25533984D01*
X5982086Y-25533984D02*
X6001134Y-25543508D01*
X6001134Y-25543508D02*
X6010658Y-25553031D01*
X6010658Y-25553031D02*
X6020182Y-25572079D01*
X6020182Y-25572079D02*
X6029705Y-25610174D01*
X6029705Y-25610174D02*
X6029705Y-25657793D01*
X6029705Y-25657793D02*
X6020182Y-25695888D01*
X6020182Y-25695888D02*
X6010658Y-25714936D01*
X6010658Y-25714936D02*
X6001134Y-25724460D01*
X6001134Y-25724460D02*
X5982086Y-25733984D01*
X5982086Y-25733984D02*
X5963039Y-25733984D01*
X5963039Y-25733984D02*
X5943991Y-25724460D01*
X5943991Y-25724460D02*
X5934467Y-25714936D01*
X5934467Y-25714936D02*
X5924943Y-25695888D01*
X5924943Y-25695888D02*
X5915420Y-25657793D01*
X5915420Y-25657793D02*
X5915420Y-25610174D01*
X5915420Y-25610174D02*
X5924943Y-25572079D01*
X5924943Y-25572079D02*
X5934467Y-25553031D01*
X5934467Y-25553031D02*
X5943991Y-25543508D01*
X5943991Y-25543508D02*
X5963039Y-25533984D01*
X6115420Y-25733984D02*
X6115420Y-25600650D01*
X6115420Y-25619698D02*
X6124943Y-25610174D01*
X6124943Y-25610174D02*
X6143991Y-25600650D01*
X6143991Y-25600650D02*
X6172563Y-25600650D01*
X6172563Y-25600650D02*
X6191610Y-25610174D01*
X6191610Y-25610174D02*
X6201134Y-25629222D01*
X6201134Y-25629222D02*
X6201134Y-25733984D01*
X6201134Y-25629222D02*
X6210658Y-25610174D01*
X6210658Y-25610174D02*
X6229705Y-25600650D01*
X6229705Y-25600650D02*
X6258277Y-25600650D01*
X6258277Y-25600650D02*
X6277324Y-25610174D01*
X6277324Y-25610174D02*
X6286848Y-25629222D01*
X6286848Y-25629222D02*
X6286848Y-25733984D01*
X6382086Y-25733984D02*
X6382086Y-25600650D01*
X6382086Y-25619698D02*
X6391610Y-25610174D01*
X6391610Y-25610174D02*
X6410658Y-25600650D01*
X6410658Y-25600650D02*
X6439229Y-25600650D01*
X6439229Y-25600650D02*
X6458277Y-25610174D01*
X6458277Y-25610174D02*
X6467801Y-25629222D01*
X6467801Y-25629222D02*
X6467801Y-25733984D01*
X6467801Y-25629222D02*
X6477324Y-25610174D01*
X6477324Y-25610174D02*
X6496372Y-25600650D01*
X6496372Y-25600650D02*
X6524943Y-25600650D01*
X6524943Y-25600650D02*
X6543991Y-25610174D01*
X6543991Y-25610174D02*
X6553515Y-25629222D01*
X6553515Y-25629222D02*
X6553515Y-25733984D01*
X6943991Y-25524460D02*
X6772563Y-25781603D01*
X7201134Y-25533984D02*
X7220182Y-25533984D01*
X7220182Y-25533984D02*
X7239229Y-25543508D01*
X7239229Y-25543508D02*
X7248753Y-25553031D01*
X7248753Y-25553031D02*
X7258277Y-25572079D01*
X7258277Y-25572079D02*
X7267801Y-25610174D01*
X7267801Y-25610174D02*
X7267801Y-25657793D01*
X7267801Y-25657793D02*
X7258277Y-25695888D01*
X7258277Y-25695888D02*
X7248753Y-25714936D01*
X7248753Y-25714936D02*
X7239229Y-25724460D01*
X7239229Y-25724460D02*
X7220182Y-25733984D01*
X7220182Y-25733984D02*
X7201134Y-25733984D01*
X7201134Y-25733984D02*
X7182086Y-25724460D01*
X7182086Y-25724460D02*
X7172563Y-25714936D01*
X7172563Y-25714936D02*
X7163039Y-25695888D01*
X7163039Y-25695888D02*
X7153515Y-25657793D01*
X7153515Y-25657793D02*
X7153515Y-25610174D01*
X7153515Y-25610174D02*
X7163039Y-25572079D01*
X7163039Y-25572079D02*
X7172563Y-25553031D01*
X7172563Y-25553031D02*
X7182086Y-25543508D01*
X7182086Y-25543508D02*
X7201134Y-25533984D01*
X7353515Y-25714936D02*
X7363039Y-25724460D01*
X7363039Y-25724460D02*
X7353515Y-25733984D01*
X7353515Y-25733984D02*
X7343991Y-25724460D01*
X7343991Y-25724460D02*
X7353515Y-25714936D01*
X7353515Y-25714936D02*
X7353515Y-25733984D01*
X7486848Y-25533984D02*
X7505896Y-25533984D01*
X7505896Y-25533984D02*
X7524944Y-25543508D01*
X7524944Y-25543508D02*
X7534467Y-25553031D01*
X7534467Y-25553031D02*
X7543991Y-25572079D01*
X7543991Y-25572079D02*
X7553515Y-25610174D01*
X7553515Y-25610174D02*
X7553515Y-25657793D01*
X7553515Y-25657793D02*
X7543991Y-25695888D01*
X7543991Y-25695888D02*
X7534467Y-25714936D01*
X7534467Y-25714936D02*
X7524944Y-25724460D01*
X7524944Y-25724460D02*
X7505896Y-25733984D01*
X7505896Y-25733984D02*
X7486848Y-25733984D01*
X7486848Y-25733984D02*
X7467801Y-25724460D01*
X7467801Y-25724460D02*
X7458277Y-25714936D01*
X7458277Y-25714936D02*
X7448753Y-25695888D01*
X7448753Y-25695888D02*
X7439229Y-25657793D01*
X7439229Y-25657793D02*
X7439229Y-25610174D01*
X7439229Y-25610174D02*
X7448753Y-25572079D01*
X7448753Y-25572079D02*
X7458277Y-25553031D01*
X7458277Y-25553031D02*
X7467801Y-25543508D01*
X7467801Y-25543508D02*
X7486848Y-25533984D01*
X7648753Y-25733984D02*
X7686848Y-25733984D01*
X7686848Y-25733984D02*
X7705896Y-25724460D01*
X7705896Y-25724460D02*
X7715420Y-25714936D01*
X7715420Y-25714936D02*
X7734467Y-25686365D01*
X7734467Y-25686365D02*
X7743991Y-25648269D01*
X7743991Y-25648269D02*
X7743991Y-25572079D01*
X7743991Y-25572079D02*
X7734467Y-25553031D01*
X7734467Y-25553031D02*
X7724944Y-25543508D01*
X7724944Y-25543508D02*
X7705896Y-25533984D01*
X7705896Y-25533984D02*
X7667801Y-25533984D01*
X7667801Y-25533984D02*
X7648753Y-25543508D01*
X7648753Y-25543508D02*
X7639229Y-25553031D01*
X7639229Y-25553031D02*
X7629706Y-25572079D01*
X7629706Y-25572079D02*
X7629706Y-25619698D01*
X7629706Y-25619698D02*
X7639229Y-25638746D01*
X7639229Y-25638746D02*
X7648753Y-25648269D01*
X7648753Y-25648269D02*
X7667801Y-25657793D01*
X7667801Y-25657793D02*
X7705896Y-25657793D01*
X7705896Y-25657793D02*
X7724944Y-25648269D01*
X7724944Y-25648269D02*
X7734467Y-25638746D01*
X7734467Y-25638746D02*
X7743991Y-25619698D01*
X7858277Y-25619698D02*
X7839229Y-25610174D01*
X7839229Y-25610174D02*
X7829706Y-25600650D01*
X7829706Y-25600650D02*
X7820182Y-25581603D01*
X7820182Y-25581603D02*
X7820182Y-25572079D01*
X7820182Y-25572079D02*
X7829706Y-25553031D01*
X7829706Y-25553031D02*
X7839229Y-25543508D01*
X7839229Y-25543508D02*
X7858277Y-25533984D01*
X7858277Y-25533984D02*
X7896372Y-25533984D01*
X7896372Y-25533984D02*
X7915420Y-25543508D01*
X7915420Y-25543508D02*
X7924944Y-25553031D01*
X7924944Y-25553031D02*
X7934467Y-25572079D01*
X7934467Y-25572079D02*
X7934467Y-25581603D01*
X7934467Y-25581603D02*
X7924944Y-25600650D01*
X7924944Y-25600650D02*
X7915420Y-25610174D01*
X7915420Y-25610174D02*
X7896372Y-25619698D01*
X7896372Y-25619698D02*
X7858277Y-25619698D01*
X7858277Y-25619698D02*
X7839229Y-25629222D01*
X7839229Y-25629222D02*
X7829706Y-25638746D01*
X7829706Y-25638746D02*
X7820182Y-25657793D01*
X7820182Y-25657793D02*
X7820182Y-25695888D01*
X7820182Y-25695888D02*
X7829706Y-25714936D01*
X7829706Y-25714936D02*
X7839229Y-25724460D01*
X7839229Y-25724460D02*
X7858277Y-25733984D01*
X7858277Y-25733984D02*
X7896372Y-25733984D01*
X7896372Y-25733984D02*
X7915420Y-25724460D01*
X7915420Y-25724460D02*
X7924944Y-25714936D01*
X7924944Y-25714936D02*
X7934467Y-25695888D01*
X7934467Y-25695888D02*
X7934467Y-25657793D01*
X7934467Y-25657793D02*
X7924944Y-25638746D01*
X7924944Y-25638746D02*
X7915420Y-25629222D01*
X7915420Y-25629222D02*
X7896372Y-25619698D01*
X8105896Y-25600650D02*
X8105896Y-25733984D01*
X8058277Y-25524460D02*
X8010658Y-25667317D01*
X8010658Y-25667317D02*
X8134467Y-25667317D01*
X8201134Y-25533984D02*
X8201134Y-25572079D01*
X8277325Y-25533984D02*
X8277325Y-25572079D01*
X8572563Y-25810174D02*
X8563039Y-25800650D01*
X8563039Y-25800650D02*
X8543991Y-25772079D01*
X8543991Y-25772079D02*
X8534468Y-25753031D01*
X8534468Y-25753031D02*
X8524944Y-25724460D01*
X8524944Y-25724460D02*
X8515420Y-25676841D01*
X8515420Y-25676841D02*
X8515420Y-25638746D01*
X8515420Y-25638746D02*
X8524944Y-25591127D01*
X8524944Y-25591127D02*
X8534468Y-25562555D01*
X8534468Y-25562555D02*
X8543991Y-25543508D01*
X8543991Y-25543508D02*
X8563039Y-25514936D01*
X8563039Y-25514936D02*
X8572563Y-25505412D01*
X8734468Y-25600650D02*
X8734468Y-25733984D01*
X8686849Y-25524460D02*
X8639230Y-25667317D01*
X8639230Y-25667317D02*
X8763039Y-25667317D01*
X8991611Y-25733984D02*
X8991611Y-25533984D01*
X9077325Y-25733984D02*
X9077325Y-25629222D01*
X9077325Y-25629222D02*
X9067801Y-25610174D01*
X9067801Y-25610174D02*
X9048753Y-25600650D01*
X9048753Y-25600650D02*
X9020182Y-25600650D01*
X9020182Y-25600650D02*
X9001134Y-25610174D01*
X9001134Y-25610174D02*
X8991611Y-25619698D01*
X9201134Y-25733984D02*
X9182087Y-25724460D01*
X9182087Y-25724460D02*
X9172563Y-25714936D01*
X9172563Y-25714936D02*
X9163039Y-25695888D01*
X9163039Y-25695888D02*
X9163039Y-25638746D01*
X9163039Y-25638746D02*
X9172563Y-25619698D01*
X9172563Y-25619698D02*
X9182087Y-25610174D01*
X9182087Y-25610174D02*
X9201134Y-25600650D01*
X9201134Y-25600650D02*
X9229706Y-25600650D01*
X9229706Y-25600650D02*
X9248753Y-25610174D01*
X9248753Y-25610174D02*
X9258277Y-25619698D01*
X9258277Y-25619698D02*
X9267801Y-25638746D01*
X9267801Y-25638746D02*
X9267801Y-25695888D01*
X9267801Y-25695888D02*
X9258277Y-25714936D01*
X9258277Y-25714936D02*
X9248753Y-25724460D01*
X9248753Y-25724460D02*
X9229706Y-25733984D01*
X9229706Y-25733984D02*
X9201134Y-25733984D01*
X9382087Y-25733984D02*
X9363039Y-25724460D01*
X9363039Y-25724460D02*
X9353515Y-25705412D01*
X9353515Y-25705412D02*
X9353515Y-25533984D01*
X9534468Y-25724460D02*
X9515420Y-25733984D01*
X9515420Y-25733984D02*
X9477325Y-25733984D01*
X9477325Y-25733984D02*
X9458277Y-25724460D01*
X9458277Y-25724460D02*
X9448753Y-25705412D01*
X9448753Y-25705412D02*
X9448753Y-25629222D01*
X9448753Y-25629222D02*
X9458277Y-25610174D01*
X9458277Y-25610174D02*
X9477325Y-25600650D01*
X9477325Y-25600650D02*
X9515420Y-25600650D01*
X9515420Y-25600650D02*
X9534468Y-25610174D01*
X9534468Y-25610174D02*
X9543992Y-25629222D01*
X9543992Y-25629222D02*
X9543992Y-25648269D01*
X9543992Y-25648269D02*
X9448753Y-25667317D01*
X9620182Y-25724460D02*
X9639230Y-25733984D01*
X9639230Y-25733984D02*
X9677325Y-25733984D01*
X9677325Y-25733984D02*
X9696373Y-25724460D01*
X9696373Y-25724460D02*
X9705896Y-25705412D01*
X9705896Y-25705412D02*
X9705896Y-25695888D01*
X9705896Y-25695888D02*
X9696373Y-25676841D01*
X9696373Y-25676841D02*
X9677325Y-25667317D01*
X9677325Y-25667317D02*
X9648753Y-25667317D01*
X9648753Y-25667317D02*
X9629706Y-25657793D01*
X9629706Y-25657793D02*
X9620182Y-25638746D01*
X9620182Y-25638746D02*
X9620182Y-25629222D01*
X9620182Y-25629222D02*
X9629706Y-25610174D01*
X9629706Y-25610174D02*
X9648753Y-25600650D01*
X9648753Y-25600650D02*
X9677325Y-25600650D01*
X9677325Y-25600650D02*
X9696373Y-25610174D01*
X9772563Y-25810174D02*
X9782087Y-25800650D01*
X9782087Y-25800650D02*
X9801134Y-25772079D01*
X9801134Y-25772079D02*
X9810658Y-25753031D01*
X9810658Y-25753031D02*
X9820182Y-25724460D01*
X9820182Y-25724460D02*
X9829706Y-25676841D01*
X9829706Y-25676841D02*
X9829706Y-25638746D01*
X9829706Y-25638746D02*
X9820182Y-25591127D01*
X9820182Y-25591127D02*
X9810658Y-25562555D01*
X9810658Y-25562555D02*
X9801134Y-25543508D01*
X9801134Y-25543508D02*
X9782087Y-25514936D01*
X9782087Y-25514936D02*
X9772563Y-25505412D01*
X10134468Y-25810174D02*
X10124944Y-25800650D01*
X10124944Y-25800650D02*
X10105896Y-25772079D01*
X10105896Y-25772079D02*
X10096373Y-25753031D01*
X10096373Y-25753031D02*
X10086849Y-25724460D01*
X10086849Y-25724460D02*
X10077325Y-25676841D01*
X10077325Y-25676841D02*
X10077325Y-25638746D01*
X10077325Y-25638746D02*
X10086849Y-25591127D01*
X10086849Y-25591127D02*
X10096373Y-25562555D01*
X10096373Y-25562555D02*
X10105896Y-25543508D01*
X10105896Y-25543508D02*
X10124944Y-25514936D01*
X10124944Y-25514936D02*
X10134468Y-25505412D01*
X10210658Y-25600650D02*
X10210658Y-25733984D01*
X10210658Y-25619698D02*
X10220182Y-25610174D01*
X10220182Y-25610174D02*
X10239230Y-25600650D01*
X10239230Y-25600650D02*
X10267801Y-25600650D01*
X10267801Y-25600650D02*
X10286849Y-25610174D01*
X10286849Y-25610174D02*
X10296373Y-25629222D01*
X10296373Y-25629222D02*
X10296373Y-25733984D01*
X10420182Y-25733984D02*
X10401134Y-25724460D01*
X10401134Y-25724460D02*
X10391611Y-25714936D01*
X10391611Y-25714936D02*
X10382087Y-25695888D01*
X10382087Y-25695888D02*
X10382087Y-25638746D01*
X10382087Y-25638746D02*
X10391611Y-25619698D01*
X10391611Y-25619698D02*
X10401134Y-25610174D01*
X10401134Y-25610174D02*
X10420182Y-25600650D01*
X10420182Y-25600650D02*
X10448754Y-25600650D01*
X10448754Y-25600650D02*
X10467801Y-25610174D01*
X10467801Y-25610174D02*
X10477325Y-25619698D01*
X10477325Y-25619698D02*
X10486849Y-25638746D01*
X10486849Y-25638746D02*
X10486849Y-25695888D01*
X10486849Y-25695888D02*
X10477325Y-25714936D01*
X10477325Y-25714936D02*
X10467801Y-25724460D01*
X10467801Y-25724460D02*
X10448754Y-25733984D01*
X10448754Y-25733984D02*
X10420182Y-25733984D01*
X10543992Y-25600650D02*
X10620182Y-25600650D01*
X10572563Y-25533984D02*
X10572563Y-25705412D01*
X10572563Y-25705412D02*
X10582087Y-25724460D01*
X10582087Y-25724460D02*
X10601134Y-25733984D01*
X10601134Y-25733984D02*
X10620182Y-25733984D01*
X10839230Y-25600650D02*
X10839230Y-25800650D01*
X10839230Y-25610174D02*
X10858277Y-25600650D01*
X10858277Y-25600650D02*
X10896373Y-25600650D01*
X10896373Y-25600650D02*
X10915420Y-25610174D01*
X10915420Y-25610174D02*
X10924944Y-25619698D01*
X10924944Y-25619698D02*
X10934468Y-25638746D01*
X10934468Y-25638746D02*
X10934468Y-25695888D01*
X10934468Y-25695888D02*
X10924944Y-25714936D01*
X10924944Y-25714936D02*
X10915420Y-25724460D01*
X10915420Y-25724460D02*
X10896373Y-25733984D01*
X10896373Y-25733984D02*
X10858277Y-25733984D01*
X10858277Y-25733984D02*
X10839230Y-25724460D01*
X11048754Y-25733984D02*
X11029706Y-25724460D01*
X11029706Y-25724460D02*
X11020182Y-25705412D01*
X11020182Y-25705412D02*
X11020182Y-25533984D01*
X11210658Y-25733984D02*
X11210658Y-25629222D01*
X11210658Y-25629222D02*
X11201134Y-25610174D01*
X11201134Y-25610174D02*
X11182087Y-25600650D01*
X11182087Y-25600650D02*
X11143992Y-25600650D01*
X11143992Y-25600650D02*
X11124944Y-25610174D01*
X11210658Y-25724460D02*
X11191611Y-25733984D01*
X11191611Y-25733984D02*
X11143992Y-25733984D01*
X11143992Y-25733984D02*
X11124944Y-25724460D01*
X11124944Y-25724460D02*
X11115420Y-25705412D01*
X11115420Y-25705412D02*
X11115420Y-25686365D01*
X11115420Y-25686365D02*
X11124944Y-25667317D01*
X11124944Y-25667317D02*
X11143992Y-25657793D01*
X11143992Y-25657793D02*
X11191611Y-25657793D01*
X11191611Y-25657793D02*
X11210658Y-25648269D01*
X11277325Y-25600650D02*
X11353515Y-25600650D01*
X11305896Y-25533984D02*
X11305896Y-25705412D01*
X11305896Y-25705412D02*
X11315420Y-25724460D01*
X11315420Y-25724460D02*
X11334468Y-25733984D01*
X11334468Y-25733984D02*
X11353515Y-25733984D01*
X11496373Y-25724460D02*
X11477325Y-25733984D01*
X11477325Y-25733984D02*
X11439230Y-25733984D01*
X11439230Y-25733984D02*
X11420182Y-25724460D01*
X11420182Y-25724460D02*
X11410658Y-25705412D01*
X11410658Y-25705412D02*
X11410658Y-25629222D01*
X11410658Y-25629222D02*
X11420182Y-25610174D01*
X11420182Y-25610174D02*
X11439230Y-25600650D01*
X11439230Y-25600650D02*
X11477325Y-25600650D01*
X11477325Y-25600650D02*
X11496373Y-25610174D01*
X11496373Y-25610174D02*
X11505896Y-25629222D01*
X11505896Y-25629222D02*
X11505896Y-25648269D01*
X11505896Y-25648269D02*
X11410658Y-25667317D01*
X11677325Y-25733984D02*
X11677325Y-25533984D01*
X11677325Y-25724460D02*
X11658277Y-25733984D01*
X11658277Y-25733984D02*
X11620182Y-25733984D01*
X11620182Y-25733984D02*
X11601134Y-25724460D01*
X11601134Y-25724460D02*
X11591611Y-25714936D01*
X11591611Y-25714936D02*
X11582087Y-25695888D01*
X11582087Y-25695888D02*
X11582087Y-25638746D01*
X11582087Y-25638746D02*
X11591611Y-25619698D01*
X11591611Y-25619698D02*
X11601134Y-25610174D01*
X11601134Y-25610174D02*
X11620182Y-25600650D01*
X11620182Y-25600650D02*
X11658277Y-25600650D01*
X11658277Y-25600650D02*
X11677325Y-25610174D01*
X11753515Y-25810174D02*
X11763039Y-25800650D01*
X11763039Y-25800650D02*
X11782087Y-25772079D01*
X11782087Y-25772079D02*
X11791611Y-25753031D01*
X11791611Y-25753031D02*
X11801134Y-25724460D01*
X11801134Y-25724460D02*
X11810658Y-25676841D01*
X11810658Y-25676841D02*
X11810658Y-25638746D01*
X11810658Y-25638746D02*
X11801134Y-25591127D01*
X11801134Y-25591127D02*
X11791611Y-25562555D01*
X11791611Y-25562555D02*
X11782087Y-25543508D01*
X11782087Y-25543508D02*
X11763039Y-25514936D01*
X11763039Y-25514936D02*
X11753515Y-25505412D01*
X4997500Y-25962500D02*
G75*
G02*
X4797500Y-25962500I-100000J0D01*
G01*
X4797500Y-25962500D02*
G75*
G02*
X4997500Y-25962500I100000J0D01*
G01*
X5239229Y-25853984D02*
X5363039Y-25853984D01*
X5363039Y-25853984D02*
X5296372Y-25930174D01*
X5296372Y-25930174D02*
X5324944Y-25930174D01*
X5324944Y-25930174D02*
X5343991Y-25939698D01*
X5343991Y-25939698D02*
X5353515Y-25949222D01*
X5353515Y-25949222D02*
X5363039Y-25968269D01*
X5363039Y-25968269D02*
X5363039Y-26015888D01*
X5363039Y-26015888D02*
X5353515Y-26034936D01*
X5353515Y-26034936D02*
X5343991Y-26044460D01*
X5343991Y-26044460D02*
X5324944Y-26053984D01*
X5324944Y-26053984D02*
X5267801Y-26053984D01*
X5267801Y-26053984D02*
X5248753Y-26044460D01*
X5248753Y-26044460D02*
X5239229Y-26034936D01*
X5448753Y-26034936D02*
X5458277Y-26044460D01*
X5458277Y-26044460D02*
X5448753Y-26053984D01*
X5448753Y-26053984D02*
X5439229Y-26044460D01*
X5439229Y-26044460D02*
X5448753Y-26034936D01*
X5448753Y-26034936D02*
X5448753Y-26053984D01*
X5648753Y-26053984D02*
X5534467Y-26053984D01*
X5591610Y-26053984D02*
X5591610Y-25853984D01*
X5591610Y-25853984D02*
X5572563Y-25882555D01*
X5572563Y-25882555D02*
X5553515Y-25901603D01*
X5553515Y-25901603D02*
X5534467Y-25911127D01*
X5772562Y-25853984D02*
X5791610Y-25853984D01*
X5791610Y-25853984D02*
X5810658Y-25863508D01*
X5810658Y-25863508D02*
X5820182Y-25873031D01*
X5820182Y-25873031D02*
X5829705Y-25892079D01*
X5829705Y-25892079D02*
X5839229Y-25930174D01*
X5839229Y-25930174D02*
X5839229Y-25977793D01*
X5839229Y-25977793D02*
X5829705Y-26015888D01*
X5829705Y-26015888D02*
X5820182Y-26034936D01*
X5820182Y-26034936D02*
X5810658Y-26044460D01*
X5810658Y-26044460D02*
X5791610Y-26053984D01*
X5791610Y-26053984D02*
X5772562Y-26053984D01*
X5772562Y-26053984D02*
X5753515Y-26044460D01*
X5753515Y-26044460D02*
X5743991Y-26034936D01*
X5743991Y-26034936D02*
X5734467Y-26015888D01*
X5734467Y-26015888D02*
X5724943Y-25977793D01*
X5724943Y-25977793D02*
X5724943Y-25930174D01*
X5724943Y-25930174D02*
X5734467Y-25892079D01*
X5734467Y-25892079D02*
X5743991Y-25873031D01*
X5743991Y-25873031D02*
X5753515Y-25863508D01*
X5753515Y-25863508D02*
X5772562Y-25853984D01*
X5963039Y-25853984D02*
X5982086Y-25853984D01*
X5982086Y-25853984D02*
X6001134Y-25863508D01*
X6001134Y-25863508D02*
X6010658Y-25873031D01*
X6010658Y-25873031D02*
X6020182Y-25892079D01*
X6020182Y-25892079D02*
X6029705Y-25930174D01*
X6029705Y-25930174D02*
X6029705Y-25977793D01*
X6029705Y-25977793D02*
X6020182Y-26015888D01*
X6020182Y-26015888D02*
X6010658Y-26034936D01*
X6010658Y-26034936D02*
X6001134Y-26044460D01*
X6001134Y-26044460D02*
X5982086Y-26053984D01*
X5982086Y-26053984D02*
X5963039Y-26053984D01*
X5963039Y-26053984D02*
X5943991Y-26044460D01*
X5943991Y-26044460D02*
X5934467Y-26034936D01*
X5934467Y-26034936D02*
X5924943Y-26015888D01*
X5924943Y-26015888D02*
X5915420Y-25977793D01*
X5915420Y-25977793D02*
X5915420Y-25930174D01*
X5915420Y-25930174D02*
X5924943Y-25892079D01*
X5924943Y-25892079D02*
X5934467Y-25873031D01*
X5934467Y-25873031D02*
X5943991Y-25863508D01*
X5943991Y-25863508D02*
X5963039Y-25853984D01*
X6115420Y-26053984D02*
X6115420Y-25920650D01*
X6115420Y-25939698D02*
X6124943Y-25930174D01*
X6124943Y-25930174D02*
X6143991Y-25920650D01*
X6143991Y-25920650D02*
X6172563Y-25920650D01*
X6172563Y-25920650D02*
X6191610Y-25930174D01*
X6191610Y-25930174D02*
X6201134Y-25949222D01*
X6201134Y-25949222D02*
X6201134Y-26053984D01*
X6201134Y-25949222D02*
X6210658Y-25930174D01*
X6210658Y-25930174D02*
X6229705Y-25920650D01*
X6229705Y-25920650D02*
X6258277Y-25920650D01*
X6258277Y-25920650D02*
X6277324Y-25930174D01*
X6277324Y-25930174D02*
X6286848Y-25949222D01*
X6286848Y-25949222D02*
X6286848Y-26053984D01*
X6382086Y-26053984D02*
X6382086Y-25920650D01*
X6382086Y-25939698D02*
X6391610Y-25930174D01*
X6391610Y-25930174D02*
X6410658Y-25920650D01*
X6410658Y-25920650D02*
X6439229Y-25920650D01*
X6439229Y-25920650D02*
X6458277Y-25930174D01*
X6458277Y-25930174D02*
X6467801Y-25949222D01*
X6467801Y-25949222D02*
X6467801Y-26053984D01*
X6467801Y-25949222D02*
X6477324Y-25930174D01*
X6477324Y-25930174D02*
X6496372Y-25920650D01*
X6496372Y-25920650D02*
X6524943Y-25920650D01*
X6524943Y-25920650D02*
X6543991Y-25930174D01*
X6543991Y-25930174D02*
X6553515Y-25949222D01*
X6553515Y-25949222D02*
X6553515Y-26053984D01*
X6943991Y-25844460D02*
X6772563Y-26101603D01*
X7201134Y-25853984D02*
X7220182Y-25853984D01*
X7220182Y-25853984D02*
X7239229Y-25863508D01*
X7239229Y-25863508D02*
X7248753Y-25873031D01*
X7248753Y-25873031D02*
X7258277Y-25892079D01*
X7258277Y-25892079D02*
X7267801Y-25930174D01*
X7267801Y-25930174D02*
X7267801Y-25977793D01*
X7267801Y-25977793D02*
X7258277Y-26015888D01*
X7258277Y-26015888D02*
X7248753Y-26034936D01*
X7248753Y-26034936D02*
X7239229Y-26044460D01*
X7239229Y-26044460D02*
X7220182Y-26053984D01*
X7220182Y-26053984D02*
X7201134Y-26053984D01*
X7201134Y-26053984D02*
X7182086Y-26044460D01*
X7182086Y-26044460D02*
X7172563Y-26034936D01*
X7172563Y-26034936D02*
X7163039Y-26015888D01*
X7163039Y-26015888D02*
X7153515Y-25977793D01*
X7153515Y-25977793D02*
X7153515Y-25930174D01*
X7153515Y-25930174D02*
X7163039Y-25892079D01*
X7163039Y-25892079D02*
X7172563Y-25873031D01*
X7172563Y-25873031D02*
X7182086Y-25863508D01*
X7182086Y-25863508D02*
X7201134Y-25853984D01*
X7353515Y-26034936D02*
X7363039Y-26044460D01*
X7363039Y-26044460D02*
X7353515Y-26053984D01*
X7353515Y-26053984D02*
X7343991Y-26044460D01*
X7343991Y-26044460D02*
X7353515Y-26034936D01*
X7353515Y-26034936D02*
X7353515Y-26053984D01*
X7553515Y-26053984D02*
X7439229Y-26053984D01*
X7496372Y-26053984D02*
X7496372Y-25853984D01*
X7496372Y-25853984D02*
X7477325Y-25882555D01*
X7477325Y-25882555D02*
X7458277Y-25901603D01*
X7458277Y-25901603D02*
X7439229Y-25911127D01*
X7629706Y-25873031D02*
X7639229Y-25863508D01*
X7639229Y-25863508D02*
X7658277Y-25853984D01*
X7658277Y-25853984D02*
X7705896Y-25853984D01*
X7705896Y-25853984D02*
X7724944Y-25863508D01*
X7724944Y-25863508D02*
X7734467Y-25873031D01*
X7734467Y-25873031D02*
X7743991Y-25892079D01*
X7743991Y-25892079D02*
X7743991Y-25911127D01*
X7743991Y-25911127D02*
X7734467Y-25939698D01*
X7734467Y-25939698D02*
X7620182Y-26053984D01*
X7620182Y-26053984D02*
X7743991Y-26053984D01*
X7820182Y-25873031D02*
X7829706Y-25863508D01*
X7829706Y-25863508D02*
X7848753Y-25853984D01*
X7848753Y-25853984D02*
X7896372Y-25853984D01*
X7896372Y-25853984D02*
X7915420Y-25863508D01*
X7915420Y-25863508D02*
X7924944Y-25873031D01*
X7924944Y-25873031D02*
X7934467Y-25892079D01*
X7934467Y-25892079D02*
X7934467Y-25911127D01*
X7934467Y-25911127D02*
X7924944Y-25939698D01*
X7924944Y-25939698D02*
X7810658Y-26053984D01*
X7810658Y-26053984D02*
X7934467Y-26053984D01*
X8058277Y-25853984D02*
X8077325Y-25853984D01*
X8077325Y-25853984D02*
X8096372Y-25863508D01*
X8096372Y-25863508D02*
X8105896Y-25873031D01*
X8105896Y-25873031D02*
X8115420Y-25892079D01*
X8115420Y-25892079D02*
X8124944Y-25930174D01*
X8124944Y-25930174D02*
X8124944Y-25977793D01*
X8124944Y-25977793D02*
X8115420Y-26015888D01*
X8115420Y-26015888D02*
X8105896Y-26034936D01*
X8105896Y-26034936D02*
X8096372Y-26044460D01*
X8096372Y-26044460D02*
X8077325Y-26053984D01*
X8077325Y-26053984D02*
X8058277Y-26053984D01*
X8058277Y-26053984D02*
X8039229Y-26044460D01*
X8039229Y-26044460D02*
X8029706Y-26034936D01*
X8029706Y-26034936D02*
X8020182Y-26015888D01*
X8020182Y-26015888D02*
X8010658Y-25977793D01*
X8010658Y-25977793D02*
X8010658Y-25930174D01*
X8010658Y-25930174D02*
X8020182Y-25892079D01*
X8020182Y-25892079D02*
X8029706Y-25873031D01*
X8029706Y-25873031D02*
X8039229Y-25863508D01*
X8039229Y-25863508D02*
X8058277Y-25853984D01*
X8201134Y-25853984D02*
X8201134Y-25892079D01*
X8277325Y-25853984D02*
X8277325Y-25892079D01*
X8572563Y-26130174D02*
X8563039Y-26120650D01*
X8563039Y-26120650D02*
X8543991Y-26092079D01*
X8543991Y-26092079D02*
X8534468Y-26073031D01*
X8534468Y-26073031D02*
X8524944Y-26044460D01*
X8524944Y-26044460D02*
X8515420Y-25996841D01*
X8515420Y-25996841D02*
X8515420Y-25958746D01*
X8515420Y-25958746D02*
X8524944Y-25911127D01*
X8524944Y-25911127D02*
X8534468Y-25882555D01*
X8534468Y-25882555D02*
X8543991Y-25863508D01*
X8543991Y-25863508D02*
X8563039Y-25834936D01*
X8563039Y-25834936D02*
X8572563Y-25825412D01*
X8734468Y-25853984D02*
X8696372Y-25853984D01*
X8696372Y-25853984D02*
X8677325Y-25863508D01*
X8677325Y-25863508D02*
X8667801Y-25873031D01*
X8667801Y-25873031D02*
X8648753Y-25901603D01*
X8648753Y-25901603D02*
X8639230Y-25939698D01*
X8639230Y-25939698D02*
X8639230Y-26015888D01*
X8639230Y-26015888D02*
X8648753Y-26034936D01*
X8648753Y-26034936D02*
X8658277Y-26044460D01*
X8658277Y-26044460D02*
X8677325Y-26053984D01*
X8677325Y-26053984D02*
X8715420Y-26053984D01*
X8715420Y-26053984D02*
X8734468Y-26044460D01*
X8734468Y-26044460D02*
X8743991Y-26034936D01*
X8743991Y-26034936D02*
X8753515Y-26015888D01*
X8753515Y-26015888D02*
X8753515Y-25968269D01*
X8753515Y-25968269D02*
X8743991Y-25949222D01*
X8743991Y-25949222D02*
X8734468Y-25939698D01*
X8734468Y-25939698D02*
X8715420Y-25930174D01*
X8715420Y-25930174D02*
X8677325Y-25930174D01*
X8677325Y-25930174D02*
X8658277Y-25939698D01*
X8658277Y-25939698D02*
X8648753Y-25949222D01*
X8648753Y-25949222D02*
X8639230Y-25968269D01*
X8991611Y-26053984D02*
X8991611Y-25853984D01*
X9077325Y-26053984D02*
X9077325Y-25949222D01*
X9077325Y-25949222D02*
X9067801Y-25930174D01*
X9067801Y-25930174D02*
X9048753Y-25920650D01*
X9048753Y-25920650D02*
X9020182Y-25920650D01*
X9020182Y-25920650D02*
X9001134Y-25930174D01*
X9001134Y-25930174D02*
X8991611Y-25939698D01*
X9201134Y-26053984D02*
X9182087Y-26044460D01*
X9182087Y-26044460D02*
X9172563Y-26034936D01*
X9172563Y-26034936D02*
X9163039Y-26015888D01*
X9163039Y-26015888D02*
X9163039Y-25958746D01*
X9163039Y-25958746D02*
X9172563Y-25939698D01*
X9172563Y-25939698D02*
X9182087Y-25930174D01*
X9182087Y-25930174D02*
X9201134Y-25920650D01*
X9201134Y-25920650D02*
X9229706Y-25920650D01*
X9229706Y-25920650D02*
X9248753Y-25930174D01*
X9248753Y-25930174D02*
X9258277Y-25939698D01*
X9258277Y-25939698D02*
X9267801Y-25958746D01*
X9267801Y-25958746D02*
X9267801Y-26015888D01*
X9267801Y-26015888D02*
X9258277Y-26034936D01*
X9258277Y-26034936D02*
X9248753Y-26044460D01*
X9248753Y-26044460D02*
X9229706Y-26053984D01*
X9229706Y-26053984D02*
X9201134Y-26053984D01*
X9382087Y-26053984D02*
X9363039Y-26044460D01*
X9363039Y-26044460D02*
X9353515Y-26025412D01*
X9353515Y-26025412D02*
X9353515Y-25853984D01*
X9534468Y-26044460D02*
X9515420Y-26053984D01*
X9515420Y-26053984D02*
X9477325Y-26053984D01*
X9477325Y-26053984D02*
X9458277Y-26044460D01*
X9458277Y-26044460D02*
X9448753Y-26025412D01*
X9448753Y-26025412D02*
X9448753Y-25949222D01*
X9448753Y-25949222D02*
X9458277Y-25930174D01*
X9458277Y-25930174D02*
X9477325Y-25920650D01*
X9477325Y-25920650D02*
X9515420Y-25920650D01*
X9515420Y-25920650D02*
X9534468Y-25930174D01*
X9534468Y-25930174D02*
X9543992Y-25949222D01*
X9543992Y-25949222D02*
X9543992Y-25968269D01*
X9543992Y-25968269D02*
X9448753Y-25987317D01*
X9620182Y-26044460D02*
X9639230Y-26053984D01*
X9639230Y-26053984D02*
X9677325Y-26053984D01*
X9677325Y-26053984D02*
X9696373Y-26044460D01*
X9696373Y-26044460D02*
X9705896Y-26025412D01*
X9705896Y-26025412D02*
X9705896Y-26015888D01*
X9705896Y-26015888D02*
X9696373Y-25996841D01*
X9696373Y-25996841D02*
X9677325Y-25987317D01*
X9677325Y-25987317D02*
X9648753Y-25987317D01*
X9648753Y-25987317D02*
X9629706Y-25977793D01*
X9629706Y-25977793D02*
X9620182Y-25958746D01*
X9620182Y-25958746D02*
X9620182Y-25949222D01*
X9620182Y-25949222D02*
X9629706Y-25930174D01*
X9629706Y-25930174D02*
X9648753Y-25920650D01*
X9648753Y-25920650D02*
X9677325Y-25920650D01*
X9677325Y-25920650D02*
X9696373Y-25930174D01*
X9772563Y-26130174D02*
X9782087Y-26120650D01*
X9782087Y-26120650D02*
X9801134Y-26092079D01*
X9801134Y-26092079D02*
X9810658Y-26073031D01*
X9810658Y-26073031D02*
X9820182Y-26044460D01*
X9820182Y-26044460D02*
X9829706Y-25996841D01*
X9829706Y-25996841D02*
X9829706Y-25958746D01*
X9829706Y-25958746D02*
X9820182Y-25911127D01*
X9820182Y-25911127D02*
X9810658Y-25882555D01*
X9810658Y-25882555D02*
X9801134Y-25863508D01*
X9801134Y-25863508D02*
X9782087Y-25834936D01*
X9782087Y-25834936D02*
X9772563Y-25825412D01*
X10134468Y-26130174D02*
X10124944Y-26120650D01*
X10124944Y-26120650D02*
X10105896Y-26092079D01*
X10105896Y-26092079D02*
X10096373Y-26073031D01*
X10096373Y-26073031D02*
X10086849Y-26044460D01*
X10086849Y-26044460D02*
X10077325Y-25996841D01*
X10077325Y-25996841D02*
X10077325Y-25958746D01*
X10077325Y-25958746D02*
X10086849Y-25911127D01*
X10086849Y-25911127D02*
X10096373Y-25882555D01*
X10096373Y-25882555D02*
X10105896Y-25863508D01*
X10105896Y-25863508D02*
X10124944Y-25834936D01*
X10124944Y-25834936D02*
X10134468Y-25825412D01*
X10210658Y-25920650D02*
X10210658Y-26053984D01*
X10210658Y-25939698D02*
X10220182Y-25930174D01*
X10220182Y-25930174D02*
X10239230Y-25920650D01*
X10239230Y-25920650D02*
X10267801Y-25920650D01*
X10267801Y-25920650D02*
X10286849Y-25930174D01*
X10286849Y-25930174D02*
X10296373Y-25949222D01*
X10296373Y-25949222D02*
X10296373Y-26053984D01*
X10420182Y-26053984D02*
X10401134Y-26044460D01*
X10401134Y-26044460D02*
X10391611Y-26034936D01*
X10391611Y-26034936D02*
X10382087Y-26015888D01*
X10382087Y-26015888D02*
X10382087Y-25958746D01*
X10382087Y-25958746D02*
X10391611Y-25939698D01*
X10391611Y-25939698D02*
X10401134Y-25930174D01*
X10401134Y-25930174D02*
X10420182Y-25920650D01*
X10420182Y-25920650D02*
X10448754Y-25920650D01*
X10448754Y-25920650D02*
X10467801Y-25930174D01*
X10467801Y-25930174D02*
X10477325Y-25939698D01*
X10477325Y-25939698D02*
X10486849Y-25958746D01*
X10486849Y-25958746D02*
X10486849Y-26015888D01*
X10486849Y-26015888D02*
X10477325Y-26034936D01*
X10477325Y-26034936D02*
X10467801Y-26044460D01*
X10467801Y-26044460D02*
X10448754Y-26053984D01*
X10448754Y-26053984D02*
X10420182Y-26053984D01*
X10543992Y-25920650D02*
X10620182Y-25920650D01*
X10572563Y-25853984D02*
X10572563Y-26025412D01*
X10572563Y-26025412D02*
X10582087Y-26044460D01*
X10582087Y-26044460D02*
X10601134Y-26053984D01*
X10601134Y-26053984D02*
X10620182Y-26053984D01*
X10839230Y-25920650D02*
X10839230Y-26120650D01*
X10839230Y-25930174D02*
X10858277Y-25920650D01*
X10858277Y-25920650D02*
X10896373Y-25920650D01*
X10896373Y-25920650D02*
X10915420Y-25930174D01*
X10915420Y-25930174D02*
X10924944Y-25939698D01*
X10924944Y-25939698D02*
X10934468Y-25958746D01*
X10934468Y-25958746D02*
X10934468Y-26015888D01*
X10934468Y-26015888D02*
X10924944Y-26034936D01*
X10924944Y-26034936D02*
X10915420Y-26044460D01*
X10915420Y-26044460D02*
X10896373Y-26053984D01*
X10896373Y-26053984D02*
X10858277Y-26053984D01*
X10858277Y-26053984D02*
X10839230Y-26044460D01*
X11048754Y-26053984D02*
X11029706Y-26044460D01*
X11029706Y-26044460D02*
X11020182Y-26025412D01*
X11020182Y-26025412D02*
X11020182Y-25853984D01*
X11210658Y-26053984D02*
X11210658Y-25949222D01*
X11210658Y-25949222D02*
X11201134Y-25930174D01*
X11201134Y-25930174D02*
X11182087Y-25920650D01*
X11182087Y-25920650D02*
X11143992Y-25920650D01*
X11143992Y-25920650D02*
X11124944Y-25930174D01*
X11210658Y-26044460D02*
X11191611Y-26053984D01*
X11191611Y-26053984D02*
X11143992Y-26053984D01*
X11143992Y-26053984D02*
X11124944Y-26044460D01*
X11124944Y-26044460D02*
X11115420Y-26025412D01*
X11115420Y-26025412D02*
X11115420Y-26006365D01*
X11115420Y-26006365D02*
X11124944Y-25987317D01*
X11124944Y-25987317D02*
X11143992Y-25977793D01*
X11143992Y-25977793D02*
X11191611Y-25977793D01*
X11191611Y-25977793D02*
X11210658Y-25968269D01*
X11277325Y-25920650D02*
X11353515Y-25920650D01*
X11305896Y-25853984D02*
X11305896Y-26025412D01*
X11305896Y-26025412D02*
X11315420Y-26044460D01*
X11315420Y-26044460D02*
X11334468Y-26053984D01*
X11334468Y-26053984D02*
X11353515Y-26053984D01*
X11496373Y-26044460D02*
X11477325Y-26053984D01*
X11477325Y-26053984D02*
X11439230Y-26053984D01*
X11439230Y-26053984D02*
X11420182Y-26044460D01*
X11420182Y-26044460D02*
X11410658Y-26025412D01*
X11410658Y-26025412D02*
X11410658Y-25949222D01*
X11410658Y-25949222D02*
X11420182Y-25930174D01*
X11420182Y-25930174D02*
X11439230Y-25920650D01*
X11439230Y-25920650D02*
X11477325Y-25920650D01*
X11477325Y-25920650D02*
X11496373Y-25930174D01*
X11496373Y-25930174D02*
X11505896Y-25949222D01*
X11505896Y-25949222D02*
X11505896Y-25968269D01*
X11505896Y-25968269D02*
X11410658Y-25987317D01*
X11677325Y-26053984D02*
X11677325Y-25853984D01*
X11677325Y-26044460D02*
X11658277Y-26053984D01*
X11658277Y-26053984D02*
X11620182Y-26053984D01*
X11620182Y-26053984D02*
X11601134Y-26044460D01*
X11601134Y-26044460D02*
X11591611Y-26034936D01*
X11591611Y-26034936D02*
X11582087Y-26015888D01*
X11582087Y-26015888D02*
X11582087Y-25958746D01*
X11582087Y-25958746D02*
X11591611Y-25939698D01*
X11591611Y-25939698D02*
X11601134Y-25930174D01*
X11601134Y-25930174D02*
X11620182Y-25920650D01*
X11620182Y-25920650D02*
X11658277Y-25920650D01*
X11658277Y-25920650D02*
X11677325Y-25930174D01*
X11753515Y-26130174D02*
X11763039Y-26120650D01*
X11763039Y-26120650D02*
X11782087Y-26092079D01*
X11782087Y-26092079D02*
X11791611Y-26073031D01*
X11791611Y-26073031D02*
X11801134Y-26044460D01*
X11801134Y-26044460D02*
X11810658Y-25996841D01*
X11810658Y-25996841D02*
X11810658Y-25958746D01*
X11810658Y-25958746D02*
X11801134Y-25911127D01*
X11801134Y-25911127D02*
X11791611Y-25882555D01*
X11791611Y-25882555D02*
X11782087Y-25863508D01*
X11782087Y-25863508D02*
X11763039Y-25834936D01*
X11763039Y-25834936D02*
X11753515Y-25825412D01*
M02*
