M48
; DRILL file {KiCad 8.0.3} date 2024-06-29T18:44:24+0200
; FORMAT={-:-/ absolute / metric / decimal}
; #@! TF.CreationDate,2024-06-29T18:44:24+02:00
; #@! TF.GenerationSoftware,Kicad,Pcbnew,8.0.3
; #@! TF.FileFunction,Plated,1,2,PTH
FMAT,2
METRIC
; #@! TA.AperFunction,Plated,PTH,ComponentDrill
T1C0.300
; #@! TA.AperFunction,Plated,PTH,ComponentDrill
T2C2.400
; #@! TA.AperFunction,Plated,PTH,ComponentDrill
T3C3.200
; #@! TA.AperFunction,Plated,PTH,ComponentDrill
T4C6.200
%
G90
G05
T1
X56.8Y-183.75
X56.8Y-228.75
X56.84Y-206.25
X58.46Y-179.72
X58.46Y-224.72
X58.47Y-187.79
X58.47Y-232.79
X58.5Y-202.22
X58.51Y-210.29
X62.5Y-178.05
X62.5Y-189.45
X62.5Y-223.05
X62.5Y-234.45
X62.54Y-200.55
X62.54Y-211.95
X66.53Y-187.79
X66.53Y-232.79
X66.54Y-179.72
X66.54Y-224.72
X66.57Y-210.29
X66.58Y-202.22
X68.2Y-183.75
X68.2Y-228.75
X68.24Y-206.25
X81.8Y-206.25
X81.8Y-228.75
X83.46Y-202.22
X83.46Y-224.72
X83.47Y-210.29
X83.47Y-232.79
X87.5Y-200.55
X87.5Y-211.95
X87.5Y-223.05
X87.5Y-234.45
X91.53Y-210.29
X91.53Y-232.79
X91.54Y-202.22
X91.54Y-224.72
X93.2Y-206.25
X93.2Y-228.75
X106.8Y-206.25
X106.8Y-228.75
X108.46Y-202.22
X108.46Y-224.72
X108.47Y-210.29
X108.47Y-232.79
X112.5Y-200.55
X112.5Y-211.95
X112.5Y-223.05
X112.5Y-234.45
X116.53Y-210.29
X116.53Y-232.79
X116.54Y-202.22
X116.54Y-224.72
X118.2Y-206.25
X118.2Y-228.75
X131.8Y-206.25
X131.8Y-228.75
X133.46Y-202.22
X133.46Y-224.72
X133.47Y-210.29
X133.47Y-232.79
X137.5Y-200.55
X137.5Y-211.95
X137.5Y-223.05
X137.5Y-234.45
X141.53Y-210.29
X141.53Y-232.79
X141.54Y-202.22
X141.54Y-224.72
X143.2Y-206.25
X143.2Y-228.75
T2
X62.5Y-139.6
X119.5Y-65.6
X139.5Y-65.6
T3
X54.0Y-54.0
X54.0Y-246.0
X146.0Y-54.0
X146.0Y-246.0
T4
X62.5Y-146.0
X81.0Y-92.0
X87.5Y-183.75
X93.5Y-146.0
X112.5Y-183.75
X119.5Y-72.0
X131.5Y-146.0
X137.5Y-183.75
X139.5Y-72.0
M30
