G04 #@! TF.GenerationSoftware,KiCad,Pcbnew,8.0.3*
G04 #@! TF.CreationDate,2024-09-16T16:37:34+02:00*
G04 #@! TF.ProjectId,DMH_VCO_40106_PANEL,444d485f-5643-44f5-9f34-303130365f50,1*
G04 #@! TF.SameCoordinates,Original*
G04 #@! TF.FileFunction,Profile,NP*
%FSLAX46Y46*%
G04 Gerber Fmt 4.6, Leading zero omitted, Abs format (unit mm)*
G04 Created by KiCad (PCBNEW 8.0.3) date 2024-09-16 16:37:34*
%MOMM*%
%LPD*%
G01*
G04 APERTURE LIST*
G04 #@! TA.AperFunction,Profile*
%ADD10C,0.050000*%
G04 #@! TD*
G04 APERTURE END LIST*
D10*
X50000000Y-50000000D02*
X150000000Y-50000000D01*
X150000000Y-250000000D01*
X50000000Y-250000000D01*
X50000000Y-50000000D01*
X67400000Y-228750000D02*
G75*
G02*
X57600000Y-228750000I-4900000J0D01*
G01*
X57600000Y-228750000D02*
G75*
G02*
X67400000Y-228750000I4900000J0D01*
G01*
X142400000Y-206250000D02*
G75*
G02*
X132600000Y-206250000I-4900000J0D01*
G01*
X132600000Y-206250000D02*
G75*
G02*
X142400000Y-206250000I4900000J0D01*
G01*
X92400000Y-206250000D02*
G75*
G02*
X82600000Y-206250000I-4900000J0D01*
G01*
X82600000Y-206250000D02*
G75*
G02*
X92400000Y-206250000I4900000J0D01*
G01*
X67400000Y-206250000D02*
G75*
G02*
X57600000Y-206250000I-4900000J0D01*
G01*
X57600000Y-206250000D02*
G75*
G02*
X67400000Y-206250000I4900000J0D01*
G01*
X117400000Y-206250000D02*
G75*
G02*
X107600000Y-206250000I-4900000J0D01*
G01*
X107600000Y-206250000D02*
G75*
G02*
X117400000Y-206250000I4900000J0D01*
G01*
X92400000Y-228750000D02*
G75*
G02*
X82600000Y-228750000I-4900000J0D01*
G01*
X82600000Y-228750000D02*
G75*
G02*
X92400000Y-228750000I4900000J0D01*
G01*
X67400000Y-183750000D02*
G75*
G02*
X57600000Y-183750000I-4900000J0D01*
G01*
X57600000Y-183750000D02*
G75*
G02*
X67400000Y-183750000I4900000J0D01*
G01*
X117400000Y-228750000D02*
G75*
G02*
X107600000Y-228750000I-4900000J0D01*
G01*
X107600000Y-228750000D02*
G75*
G02*
X117400000Y-228750000I4900000J0D01*
G01*
X91000000Y-183750000D02*
G75*
G02*
X84000000Y-183750000I-3500000J0D01*
G01*
X84000000Y-183750000D02*
G75*
G02*
X91000000Y-183750000I3500000J0D01*
G01*
X84500000Y-92000000D02*
G75*
G02*
X77500000Y-92000000I-3500000J0D01*
G01*
X77500000Y-92000000D02*
G75*
G02*
X84500000Y-92000000I3500000J0D01*
G01*
X135000000Y-146000000D02*
G75*
G02*
X128000000Y-146000000I-3500000J0D01*
G01*
X128000000Y-146000000D02*
G75*
G02*
X135000000Y-146000000I3500000J0D01*
G01*
X141000000Y-183750000D02*
G75*
G02*
X134000000Y-183750000I-3500000J0D01*
G01*
X134000000Y-183750000D02*
G75*
G02*
X141000000Y-183750000I3500000J0D01*
G01*
X97000000Y-146000000D02*
G75*
G02*
X90000000Y-146000000I-3500000J0D01*
G01*
X90000000Y-146000000D02*
G75*
G02*
X97000000Y-146000000I3500000J0D01*
G01*
X122750000Y-107480000D02*
X122750000Y-88510000D01*
X123250000Y-88010000D02*
X135810000Y-88010000D01*
X135810000Y-107980000D02*
X123250000Y-107980000D01*
X136310000Y-88510000D02*
X136310000Y-107480000D01*
X122750000Y-88510000D02*
G75*
G02*
X123250000Y-88010000I500000J0D01*
G01*
X123250000Y-107980000D02*
G75*
G02*
X122750000Y-107480000I1J500001D01*
G01*
X135810000Y-88010000D02*
G75*
G02*
X136310000Y-88510000I0J-500000D01*
G01*
X136310000Y-107480000D02*
G75*
G02*
X135810000Y-107980000I-500001J1D01*
G01*
X116000000Y-183750000D02*
G75*
G02*
X109000000Y-183750000I-3500000J0D01*
G01*
X109000000Y-183750000D02*
G75*
G02*
X116000000Y-183750000I3500000J0D01*
G01*
X142400000Y-228750000D02*
G75*
G02*
X132600000Y-228750000I-4900000J0D01*
G01*
X132600000Y-228750000D02*
G75*
G02*
X142400000Y-228750000I4900000J0D01*
G01*
M02*
