%TF.GenerationSoftware,KiCad,Pcbnew,8.0.5*%
%TF.CreationDate,2024-10-01T23:17:21+02:00*%
%TF.ProjectId,DMH_VCO_40106_PANEL,444d485f-5643-44f5-9f34-303130365f50,1*%
%TF.SameCoordinates,Original*%
%TF.FileFunction,Drillmap*%
%TF.FilePolarity,Positive*%
%FSLAX45Y45*%
G04 Gerber Fmt 4.5, Leading zero omitted, Abs format (unit mm)*
G04 Created by KiCad (PCBNEW 8.0.5) date 2024-10-01 23:17:21*
%MOMM*%
%LPD*%
G01*
G04 APERTURE LIST*
%ADD10C,0.050000*%
%ADD11C,0.200000*%
%ADD12C,0.100000*%
%ADD13C,0.240000*%
%ADD14C,0.320000*%
%ADD15C,0.620000*%
G04 APERTURE END LIST*
D10*
X5000000Y-5000000D02*
X15000000Y-5000000D01*
X15000000Y-25000000D01*
X5000000Y-25000000D01*
X5000000Y-5000000D01*
X9100000Y-18375000D02*
G75*
G02*
X8400000Y-18375000I-350000J0D01*
G01*
X8400000Y-18375000D02*
G75*
G02*
X9100000Y-18375000I350000J0D01*
G01*
X8450000Y-9200000D02*
G75*
G02*
X7750000Y-9200000I-350000J0D01*
G01*
X7750000Y-9200000D02*
G75*
G02*
X8450000Y-9200000I350000J0D01*
G01*
X11740000Y-22875000D02*
G75*
G02*
X10760000Y-22875000I-490000J0D01*
G01*
X10760000Y-22875000D02*
G75*
G02*
X11740000Y-22875000I490000J0D01*
G01*
X6740000Y-22875000D02*
G75*
G02*
X5760000Y-22875000I-490000J0D01*
G01*
X5760000Y-22875000D02*
G75*
G02*
X6740000Y-22875000I490000J0D01*
G01*
X14240000Y-20625000D02*
G75*
G02*
X13260000Y-20625000I-490000J0D01*
G01*
X13260000Y-20625000D02*
G75*
G02*
X14240000Y-20625000I490000J0D01*
G01*
X13500000Y-14600000D02*
G75*
G02*
X12800000Y-14600000I-350000J0D01*
G01*
X12800000Y-14600000D02*
G75*
G02*
X13500000Y-14600000I350000J0D01*
G01*
X14100000Y-18375000D02*
G75*
G02*
X13400000Y-18375000I-350000J0D01*
G01*
X13400000Y-18375000D02*
G75*
G02*
X14100000Y-18375000I350000J0D01*
G01*
X9240000Y-20625000D02*
G75*
G02*
X8260000Y-20625000I-490000J0D01*
G01*
X8260000Y-20625000D02*
G75*
G02*
X9240000Y-20625000I490000J0D01*
G01*
X9700000Y-14600000D02*
G75*
G02*
X9000000Y-14600000I-350000J0D01*
G01*
X9000000Y-14600000D02*
G75*
G02*
X9700000Y-14600000I350000J0D01*
G01*
X12275000Y-10748000D02*
X12275000Y-8851000D01*
X12325000Y-8801000D02*
X13581000Y-8801000D01*
X13581000Y-10798000D02*
X12325000Y-10798000D01*
X13631000Y-8851000D02*
X13631000Y-10748000D01*
X12275000Y-8851000D02*
G75*
G02*
X12325000Y-8801000I50000J0D01*
G01*
X12325000Y-10798000D02*
G75*
G02*
X12275000Y-10748000I0J50000D01*
G01*
X13581000Y-8801000D02*
G75*
G02*
X13631000Y-8851000I0J-50000D01*
G01*
X13631000Y-10748000D02*
G75*
G02*
X13581000Y-10798000I-50000J0D01*
G01*
X6740000Y-20625000D02*
G75*
G02*
X5760000Y-20625000I-490000J0D01*
G01*
X5760000Y-20625000D02*
G75*
G02*
X6740000Y-20625000I490000J0D01*
G01*
X11740000Y-20625000D02*
G75*
G02*
X10760000Y-20625000I-490000J0D01*
G01*
X10760000Y-20625000D02*
G75*
G02*
X11740000Y-20625000I490000J0D01*
G01*
X14240000Y-22875000D02*
G75*
G02*
X13260000Y-22875000I-490000J0D01*
G01*
X13260000Y-22875000D02*
G75*
G02*
X14240000Y-22875000I490000J0D01*
G01*
X9240000Y-22875000D02*
G75*
G02*
X8260000Y-22875000I-490000J0D01*
G01*
X8260000Y-22875000D02*
G75*
G02*
X9240000Y-22875000I490000J0D01*
G01*
X11600000Y-18375000D02*
G75*
G02*
X10900000Y-18375000I-350000J0D01*
G01*
X10900000Y-18375000D02*
G75*
G02*
X11600000Y-18375000I350000J0D01*
G01*
X6740000Y-18375000D02*
G75*
G02*
X5760000Y-18375000I-490000J0D01*
G01*
X5760000Y-18375000D02*
G75*
G02*
X6740000Y-18375000I490000J0D01*
G01*
D11*
D12*
X5665000Y-18360000D02*
X5695000Y-18390000D01*
X5695000Y-18360000D02*
X5665000Y-18390000D01*
X5665000Y-20610000D02*
X5695000Y-20640000D01*
X5695000Y-20610000D02*
X5665000Y-20640000D01*
X5665000Y-22860000D02*
X5695000Y-22890000D01*
X5695000Y-22860000D02*
X5665000Y-22890000D01*
X5831000Y-17957000D02*
X5861000Y-17987000D01*
X5861000Y-17957000D02*
X5831000Y-17987000D01*
X5831000Y-20207000D02*
X5861000Y-20237000D01*
X5861000Y-20207000D02*
X5831000Y-20237000D01*
X5831000Y-22457000D02*
X5861000Y-22487000D01*
X5861000Y-22457000D02*
X5831000Y-22487000D01*
X5832000Y-18764000D02*
X5862000Y-18794000D01*
X5862000Y-18764000D02*
X5832000Y-18794000D01*
X5832000Y-21014000D02*
X5862000Y-21044000D01*
X5862000Y-21014000D02*
X5832000Y-21044000D01*
X5832000Y-23264000D02*
X5862000Y-23294000D01*
X5862000Y-23264000D02*
X5832000Y-23294000D01*
X6235000Y-17790000D02*
X6265000Y-17820000D01*
X6265000Y-17790000D02*
X6235000Y-17820000D01*
X6235000Y-18930000D02*
X6265000Y-18960000D01*
X6265000Y-18930000D02*
X6235000Y-18960000D01*
X6235000Y-20040000D02*
X6265000Y-20070000D01*
X6265000Y-20040000D02*
X6235000Y-20070000D01*
X6235000Y-21180000D02*
X6265000Y-21210000D01*
X6265000Y-21180000D02*
X6235000Y-21210000D01*
X6235000Y-22290000D02*
X6265000Y-22320000D01*
X6265000Y-22290000D02*
X6235000Y-22320000D01*
X6235000Y-23430000D02*
X6265000Y-23460000D01*
X6265000Y-23430000D02*
X6235000Y-23460000D01*
X6638000Y-18764000D02*
X6668000Y-18794000D01*
X6668000Y-18764000D02*
X6638000Y-18794000D01*
X6638000Y-21014000D02*
X6668000Y-21044000D01*
X6668000Y-21014000D02*
X6638000Y-21044000D01*
X6638000Y-23264000D02*
X6668000Y-23294000D01*
X6668000Y-23264000D02*
X6638000Y-23294000D01*
X6639000Y-17957000D02*
X6669000Y-17987000D01*
X6669000Y-17957000D02*
X6639000Y-17987000D01*
X6639000Y-20207000D02*
X6669000Y-20237000D01*
X6669000Y-20207000D02*
X6639000Y-20237000D01*
X6639000Y-22457000D02*
X6669000Y-22487000D01*
X6669000Y-22457000D02*
X6639000Y-22487000D01*
X6805000Y-18360000D02*
X6835000Y-18390000D01*
X6835000Y-18360000D02*
X6805000Y-18390000D01*
X6805000Y-20610000D02*
X6835000Y-20640000D01*
X6835000Y-20610000D02*
X6805000Y-20640000D01*
X6805000Y-22860000D02*
X6835000Y-22890000D01*
X6835000Y-22860000D02*
X6805000Y-22890000D01*
X8165000Y-20610000D02*
X8195000Y-20640000D01*
X8195000Y-20610000D02*
X8165000Y-20640000D01*
X8165000Y-22860000D02*
X8195000Y-22890000D01*
X8195000Y-22860000D02*
X8165000Y-22890000D01*
X8331000Y-20207000D02*
X8361000Y-20237000D01*
X8361000Y-20207000D02*
X8331000Y-20237000D01*
X8331000Y-22457000D02*
X8361000Y-22487000D01*
X8361000Y-22457000D02*
X8331000Y-22487000D01*
X8332000Y-21014000D02*
X8362000Y-21044000D01*
X8362000Y-21014000D02*
X8332000Y-21044000D01*
X8332000Y-23264000D02*
X8362000Y-23294000D01*
X8362000Y-23264000D02*
X8332000Y-23294000D01*
X8735000Y-20040000D02*
X8765000Y-20070000D01*
X8765000Y-20040000D02*
X8735000Y-20070000D01*
X8735000Y-21180000D02*
X8765000Y-21210000D01*
X8765000Y-21180000D02*
X8735000Y-21210000D01*
X8735000Y-22290000D02*
X8765000Y-22320000D01*
X8765000Y-22290000D02*
X8735000Y-22320000D01*
X8735000Y-23430000D02*
X8765000Y-23460000D01*
X8765000Y-23430000D02*
X8735000Y-23460000D01*
X9138000Y-21014000D02*
X9168000Y-21044000D01*
X9168000Y-21014000D02*
X9138000Y-21044000D01*
X9138000Y-23264000D02*
X9168000Y-23294000D01*
X9168000Y-23264000D02*
X9138000Y-23294000D01*
X9139000Y-20207000D02*
X9169000Y-20237000D01*
X9169000Y-20207000D02*
X9139000Y-20237000D01*
X9139000Y-22457000D02*
X9169000Y-22487000D01*
X9169000Y-22457000D02*
X9139000Y-22487000D01*
X9305000Y-20610000D02*
X9335000Y-20640000D01*
X9335000Y-20610000D02*
X9305000Y-20640000D01*
X9305000Y-22860000D02*
X9335000Y-22890000D01*
X9335000Y-22860000D02*
X9305000Y-22890000D01*
X10665000Y-20610000D02*
X10695000Y-20640000D01*
X10695000Y-20610000D02*
X10665000Y-20640000D01*
X10665000Y-22860000D02*
X10695000Y-22890000D01*
X10695000Y-22860000D02*
X10665000Y-22890000D01*
X10831000Y-20207000D02*
X10861000Y-20237000D01*
X10861000Y-20207000D02*
X10831000Y-20237000D01*
X10831000Y-22457000D02*
X10861000Y-22487000D01*
X10861000Y-22457000D02*
X10831000Y-22487000D01*
X10832000Y-21014000D02*
X10862000Y-21044000D01*
X10862000Y-21014000D02*
X10832000Y-21044000D01*
X10832000Y-23264000D02*
X10862000Y-23294000D01*
X10862000Y-23264000D02*
X10832000Y-23294000D01*
X11235000Y-20040000D02*
X11265000Y-20070000D01*
X11265000Y-20040000D02*
X11235000Y-20070000D01*
X11235000Y-21180000D02*
X11265000Y-21210000D01*
X11265000Y-21180000D02*
X11235000Y-21210000D01*
X11235000Y-22290000D02*
X11265000Y-22320000D01*
X11265000Y-22290000D02*
X11235000Y-22320000D01*
X11235000Y-23430000D02*
X11265000Y-23460000D01*
X11265000Y-23430000D02*
X11235000Y-23460000D01*
X11638000Y-21014000D02*
X11668000Y-21044000D01*
X11668000Y-21014000D02*
X11638000Y-21044000D01*
X11638000Y-23264000D02*
X11668000Y-23294000D01*
X11668000Y-23264000D02*
X11638000Y-23294000D01*
X11639000Y-20207000D02*
X11669000Y-20237000D01*
X11669000Y-20207000D02*
X11639000Y-20237000D01*
X11639000Y-22457000D02*
X11669000Y-22487000D01*
X11669000Y-22457000D02*
X11639000Y-22487000D01*
X11805000Y-20610000D02*
X11835000Y-20640000D01*
X11835000Y-20610000D02*
X11805000Y-20640000D01*
X11805000Y-22860000D02*
X11835000Y-22890000D01*
X11835000Y-22860000D02*
X11805000Y-22890000D01*
X13165000Y-20610000D02*
X13195000Y-20640000D01*
X13195000Y-20610000D02*
X13165000Y-20640000D01*
X13165000Y-22860000D02*
X13195000Y-22890000D01*
X13195000Y-22860000D02*
X13165000Y-22890000D01*
X13331000Y-20207000D02*
X13361000Y-20237000D01*
X13361000Y-20207000D02*
X13331000Y-20237000D01*
X13331000Y-22457000D02*
X13361000Y-22487000D01*
X13361000Y-22457000D02*
X13331000Y-22487000D01*
X13332000Y-21014000D02*
X13362000Y-21044000D01*
X13362000Y-21014000D02*
X13332000Y-21044000D01*
X13332000Y-23264000D02*
X13362000Y-23294000D01*
X13362000Y-23264000D02*
X13332000Y-23294000D01*
X13735000Y-20040000D02*
X13765000Y-20070000D01*
X13765000Y-20040000D02*
X13735000Y-20070000D01*
X13735000Y-21180000D02*
X13765000Y-21210000D01*
X13765000Y-21180000D02*
X13735000Y-21210000D01*
X13735000Y-22290000D02*
X13765000Y-22320000D01*
X13765000Y-22290000D02*
X13735000Y-22320000D01*
X13735000Y-23430000D02*
X13765000Y-23460000D01*
X13765000Y-23430000D02*
X13735000Y-23460000D01*
X14138000Y-21014000D02*
X14168000Y-21044000D01*
X14168000Y-21014000D02*
X14138000Y-21044000D01*
X14138000Y-23264000D02*
X14168000Y-23294000D01*
X14168000Y-23264000D02*
X14138000Y-23294000D01*
X14139000Y-20207000D02*
X14169000Y-20237000D01*
X14169000Y-20207000D02*
X14139000Y-20237000D01*
X14139000Y-22457000D02*
X14169000Y-22487000D01*
X14169000Y-22457000D02*
X14139000Y-22487000D01*
X14305000Y-20610000D02*
X14335000Y-20640000D01*
X14335000Y-20610000D02*
X14305000Y-20640000D01*
X14305000Y-22860000D02*
X14335000Y-22890000D01*
X14335000Y-22860000D02*
X14305000Y-22890000D01*
X8150000Y-9800000D02*
G75*
G02*
X8050000Y-9800000I-50000J0D01*
G01*
X8050000Y-9800000D02*
G75*
G02*
X8150000Y-9800000I50000J0D01*
G01*
X8050000Y-9850000D02*
X8150000Y-9850000D01*
X8150000Y-9750000D02*
G75*
G02*
X8150000Y-9850000I0J-50000D01*
G01*
X8150000Y-9750000D02*
X8050000Y-9750000D01*
X8050000Y-9750000D02*
G75*
G03*
X8050000Y-9850000I0J-50000D01*
G01*
X8800000Y-18975000D02*
G75*
G02*
X8700000Y-18975000I-50000J0D01*
G01*
X8700000Y-18975000D02*
G75*
G02*
X8800000Y-18975000I50000J0D01*
G01*
X8700000Y-19025000D02*
X8800000Y-19025000D01*
X8800000Y-18925000D02*
G75*
G02*
X8800000Y-19025000I0J-50000D01*
G01*
X8800000Y-18925000D02*
X8700000Y-18925000D01*
X8700000Y-18925000D02*
G75*
G03*
X8700000Y-19025000I0J-50000D01*
G01*
X9400000Y-15200000D02*
G75*
G02*
X9300000Y-15200000I-50000J0D01*
G01*
X9300000Y-15200000D02*
G75*
G02*
X9400000Y-15200000I50000J0D01*
G01*
X9300000Y-15250000D02*
X9400000Y-15250000D01*
X9400000Y-15150000D02*
G75*
G02*
X9400000Y-15250000I0J-50000D01*
G01*
X9400000Y-15150000D02*
X9300000Y-15150000D01*
X9300000Y-15150000D02*
G75*
G03*
X9300000Y-15250000I0J-50000D01*
G01*
X11300000Y-18975000D02*
G75*
G02*
X11200000Y-18975000I-50000J0D01*
G01*
X11200000Y-18975000D02*
G75*
G02*
X11300000Y-18975000I50000J0D01*
G01*
X11200000Y-19025000D02*
X11300000Y-19025000D01*
X11300000Y-18925000D02*
G75*
G02*
X11300000Y-19025000I0J-50000D01*
G01*
X11300000Y-18925000D02*
X11200000Y-18925000D01*
X11200000Y-18925000D02*
G75*
G03*
X11200000Y-19025000I0J-50000D01*
G01*
X13200000Y-15200000D02*
G75*
G02*
X13100000Y-15200000I-50000J0D01*
G01*
X13100000Y-15200000D02*
G75*
G02*
X13200000Y-15200000I50000J0D01*
G01*
X13100000Y-15250000D02*
X13200000Y-15250000D01*
X13200000Y-15150000D02*
G75*
G02*
X13200000Y-15250000I0J-50000D01*
G01*
X13200000Y-15150000D02*
X13100000Y-15150000D01*
X13100000Y-15150000D02*
G75*
G03*
X13100000Y-15250000I0J-50000D01*
G01*
X13800000Y-18975000D02*
G75*
G02*
X13700000Y-18975000I-50000J0D01*
G01*
X13700000Y-18975000D02*
G75*
G02*
X13800000Y-18975000I50000J0D01*
G01*
X13700000Y-19025000D02*
X13800000Y-19025000D01*
X13800000Y-18925000D02*
G75*
G02*
X13800000Y-19025000I0J-50000D01*
G01*
X13800000Y-18925000D02*
X13700000Y-18925000D01*
X13700000Y-18925000D02*
G75*
G03*
X13700000Y-19025000I0J-50000D01*
G01*
D13*
X6250000Y-13840000D02*
X6250000Y-14080000D01*
X6130000Y-13960000D02*
X6370000Y-13960000D01*
X11950000Y-6440000D02*
X11950000Y-6680000D01*
X11830000Y-6560000D02*
X12070000Y-6560000D01*
X13950000Y-6440000D02*
X13950000Y-6680000D01*
X13830000Y-6560000D02*
X14070000Y-6560000D01*
D14*
X5513138Y-5513138D02*
X5513138Y-5286862D01*
X5286862Y-5286862D01*
X5286862Y-5513138D01*
X5513138Y-5513138D01*
X5513138Y-24713138D02*
X5513138Y-24486862D01*
X5286862Y-24486862D01*
X5286862Y-24713138D01*
X5513138Y-24713138D01*
X14713138Y-5513138D02*
X14713138Y-5286862D01*
X14486862Y-5286862D01*
X14486862Y-5513138D01*
X14713138Y-5513138D01*
X14713138Y-24713138D02*
X14713138Y-24486862D01*
X14486862Y-24486862D01*
X14486862Y-24713138D01*
X14713138Y-24713138D01*
D15*
X6250000Y-14910000D02*
X6560000Y-14600000D01*
X6250000Y-14290000D01*
X5940000Y-14600000D01*
X6250000Y-14910000D01*
X11950000Y-7510000D02*
X12260000Y-7200000D01*
X11950000Y-6890000D01*
X11640000Y-7200000D01*
X11950000Y-7510000D01*
X13950000Y-7510000D02*
X14260000Y-7200000D01*
X13950000Y-6890000D01*
X13640000Y-7200000D01*
X13950000Y-7510000D01*
D11*
X5258277Y-25313984D02*
X5258277Y-25113984D01*
X5258277Y-25113984D02*
X5305896Y-25113984D01*
X5305896Y-25113984D02*
X5334467Y-25123508D01*
X5334467Y-25123508D02*
X5353515Y-25142555D01*
X5353515Y-25142555D02*
X5363039Y-25161603D01*
X5363039Y-25161603D02*
X5372563Y-25199698D01*
X5372563Y-25199698D02*
X5372563Y-25228269D01*
X5372563Y-25228269D02*
X5363039Y-25266365D01*
X5363039Y-25266365D02*
X5353515Y-25285412D01*
X5353515Y-25285412D02*
X5334467Y-25304460D01*
X5334467Y-25304460D02*
X5305896Y-25313984D01*
X5305896Y-25313984D02*
X5258277Y-25313984D01*
X5458277Y-25313984D02*
X5458277Y-25180650D01*
X5458277Y-25218746D02*
X5467801Y-25199698D01*
X5467801Y-25199698D02*
X5477324Y-25190174D01*
X5477324Y-25190174D02*
X5496372Y-25180650D01*
X5496372Y-25180650D02*
X5515420Y-25180650D01*
X5582086Y-25313984D02*
X5582086Y-25180650D01*
X5582086Y-25113984D02*
X5572563Y-25123508D01*
X5572563Y-25123508D02*
X5582086Y-25133031D01*
X5582086Y-25133031D02*
X5591610Y-25123508D01*
X5591610Y-25123508D02*
X5582086Y-25113984D01*
X5582086Y-25113984D02*
X5582086Y-25133031D01*
X5705896Y-25313984D02*
X5686848Y-25304460D01*
X5686848Y-25304460D02*
X5677324Y-25285412D01*
X5677324Y-25285412D02*
X5677324Y-25113984D01*
X5810658Y-25313984D02*
X5791610Y-25304460D01*
X5791610Y-25304460D02*
X5782086Y-25285412D01*
X5782086Y-25285412D02*
X5782086Y-25113984D01*
X6039229Y-25313984D02*
X6039229Y-25113984D01*
X6039229Y-25113984D02*
X6105896Y-25256841D01*
X6105896Y-25256841D02*
X6172562Y-25113984D01*
X6172562Y-25113984D02*
X6172562Y-25313984D01*
X6353515Y-25313984D02*
X6353515Y-25209222D01*
X6353515Y-25209222D02*
X6343991Y-25190174D01*
X6343991Y-25190174D02*
X6324943Y-25180650D01*
X6324943Y-25180650D02*
X6286848Y-25180650D01*
X6286848Y-25180650D02*
X6267801Y-25190174D01*
X6353515Y-25304460D02*
X6334467Y-25313984D01*
X6334467Y-25313984D02*
X6286848Y-25313984D01*
X6286848Y-25313984D02*
X6267801Y-25304460D01*
X6267801Y-25304460D02*
X6258277Y-25285412D01*
X6258277Y-25285412D02*
X6258277Y-25266365D01*
X6258277Y-25266365D02*
X6267801Y-25247317D01*
X6267801Y-25247317D02*
X6286848Y-25237793D01*
X6286848Y-25237793D02*
X6334467Y-25237793D01*
X6334467Y-25237793D02*
X6353515Y-25228269D01*
X6448753Y-25180650D02*
X6448753Y-25380650D01*
X6448753Y-25190174D02*
X6467801Y-25180650D01*
X6467801Y-25180650D02*
X6505896Y-25180650D01*
X6505896Y-25180650D02*
X6524943Y-25190174D01*
X6524943Y-25190174D02*
X6534467Y-25199698D01*
X6534467Y-25199698D02*
X6543991Y-25218746D01*
X6543991Y-25218746D02*
X6543991Y-25275888D01*
X6543991Y-25275888D02*
X6534467Y-25294936D01*
X6534467Y-25294936D02*
X6524943Y-25304460D01*
X6524943Y-25304460D02*
X6505896Y-25313984D01*
X6505896Y-25313984D02*
X6467801Y-25313984D01*
X6467801Y-25313984D02*
X6448753Y-25304460D01*
X6629705Y-25294936D02*
X6639229Y-25304460D01*
X6639229Y-25304460D02*
X6629705Y-25313984D01*
X6629705Y-25313984D02*
X6620182Y-25304460D01*
X6620182Y-25304460D02*
X6629705Y-25294936D01*
X6629705Y-25294936D02*
X6629705Y-25313984D01*
X6629705Y-25190174D02*
X6639229Y-25199698D01*
X6639229Y-25199698D02*
X6629705Y-25209222D01*
X6629705Y-25209222D02*
X6620182Y-25199698D01*
X6620182Y-25199698D02*
X6629705Y-25190174D01*
X6629705Y-25190174D02*
X6629705Y-25209222D01*
D12*
X4967500Y-25627500D02*
X4997500Y-25657500D01*
X4997500Y-25627500D02*
X4967500Y-25657500D01*
D11*
X5296372Y-25533984D02*
X5315420Y-25533984D01*
X5315420Y-25533984D02*
X5334467Y-25543508D01*
X5334467Y-25543508D02*
X5343991Y-25553031D01*
X5343991Y-25553031D02*
X5353515Y-25572079D01*
X5353515Y-25572079D02*
X5363039Y-25610174D01*
X5363039Y-25610174D02*
X5363039Y-25657793D01*
X5363039Y-25657793D02*
X5353515Y-25695888D01*
X5353515Y-25695888D02*
X5343991Y-25714936D01*
X5343991Y-25714936D02*
X5334467Y-25724460D01*
X5334467Y-25724460D02*
X5315420Y-25733984D01*
X5315420Y-25733984D02*
X5296372Y-25733984D01*
X5296372Y-25733984D02*
X5277324Y-25724460D01*
X5277324Y-25724460D02*
X5267801Y-25714936D01*
X5267801Y-25714936D02*
X5258277Y-25695888D01*
X5258277Y-25695888D02*
X5248753Y-25657793D01*
X5248753Y-25657793D02*
X5248753Y-25610174D01*
X5248753Y-25610174D02*
X5258277Y-25572079D01*
X5258277Y-25572079D02*
X5267801Y-25553031D01*
X5267801Y-25553031D02*
X5277324Y-25543508D01*
X5277324Y-25543508D02*
X5296372Y-25533984D01*
X5448753Y-25714936D02*
X5458277Y-25724460D01*
X5458277Y-25724460D02*
X5448753Y-25733984D01*
X5448753Y-25733984D02*
X5439229Y-25724460D01*
X5439229Y-25724460D02*
X5448753Y-25714936D01*
X5448753Y-25714936D02*
X5448753Y-25733984D01*
X5524944Y-25533984D02*
X5648753Y-25533984D01*
X5648753Y-25533984D02*
X5582086Y-25610174D01*
X5582086Y-25610174D02*
X5610658Y-25610174D01*
X5610658Y-25610174D02*
X5629705Y-25619698D01*
X5629705Y-25619698D02*
X5639229Y-25629222D01*
X5639229Y-25629222D02*
X5648753Y-25648269D01*
X5648753Y-25648269D02*
X5648753Y-25695888D01*
X5648753Y-25695888D02*
X5639229Y-25714936D01*
X5639229Y-25714936D02*
X5629705Y-25724460D01*
X5629705Y-25724460D02*
X5610658Y-25733984D01*
X5610658Y-25733984D02*
X5553515Y-25733984D01*
X5553515Y-25733984D02*
X5534467Y-25724460D01*
X5534467Y-25724460D02*
X5524944Y-25714936D01*
X5772562Y-25533984D02*
X5791610Y-25533984D01*
X5791610Y-25533984D02*
X5810658Y-25543508D01*
X5810658Y-25543508D02*
X5820182Y-25553031D01*
X5820182Y-25553031D02*
X5829705Y-25572079D01*
X5829705Y-25572079D02*
X5839229Y-25610174D01*
X5839229Y-25610174D02*
X5839229Y-25657793D01*
X5839229Y-25657793D02*
X5829705Y-25695888D01*
X5829705Y-25695888D02*
X5820182Y-25714936D01*
X5820182Y-25714936D02*
X5810658Y-25724460D01*
X5810658Y-25724460D02*
X5791610Y-25733984D01*
X5791610Y-25733984D02*
X5772562Y-25733984D01*
X5772562Y-25733984D02*
X5753515Y-25724460D01*
X5753515Y-25724460D02*
X5743991Y-25714936D01*
X5743991Y-25714936D02*
X5734467Y-25695888D01*
X5734467Y-25695888D02*
X5724943Y-25657793D01*
X5724943Y-25657793D02*
X5724943Y-25610174D01*
X5724943Y-25610174D02*
X5734467Y-25572079D01*
X5734467Y-25572079D02*
X5743991Y-25553031D01*
X5743991Y-25553031D02*
X5753515Y-25543508D01*
X5753515Y-25543508D02*
X5772562Y-25533984D01*
X5963039Y-25533984D02*
X5982086Y-25533984D01*
X5982086Y-25533984D02*
X6001134Y-25543508D01*
X6001134Y-25543508D02*
X6010658Y-25553031D01*
X6010658Y-25553031D02*
X6020182Y-25572079D01*
X6020182Y-25572079D02*
X6029705Y-25610174D01*
X6029705Y-25610174D02*
X6029705Y-25657793D01*
X6029705Y-25657793D02*
X6020182Y-25695888D01*
X6020182Y-25695888D02*
X6010658Y-25714936D01*
X6010658Y-25714936D02*
X6001134Y-25724460D01*
X6001134Y-25724460D02*
X5982086Y-25733984D01*
X5982086Y-25733984D02*
X5963039Y-25733984D01*
X5963039Y-25733984D02*
X5943991Y-25724460D01*
X5943991Y-25724460D02*
X5934467Y-25714936D01*
X5934467Y-25714936D02*
X5924943Y-25695888D01*
X5924943Y-25695888D02*
X5915420Y-25657793D01*
X5915420Y-25657793D02*
X5915420Y-25610174D01*
X5915420Y-25610174D02*
X5924943Y-25572079D01*
X5924943Y-25572079D02*
X5934467Y-25553031D01*
X5934467Y-25553031D02*
X5943991Y-25543508D01*
X5943991Y-25543508D02*
X5963039Y-25533984D01*
X6115420Y-25733984D02*
X6115420Y-25600650D01*
X6115420Y-25619698D02*
X6124943Y-25610174D01*
X6124943Y-25610174D02*
X6143991Y-25600650D01*
X6143991Y-25600650D02*
X6172563Y-25600650D01*
X6172563Y-25600650D02*
X6191610Y-25610174D01*
X6191610Y-25610174D02*
X6201134Y-25629222D01*
X6201134Y-25629222D02*
X6201134Y-25733984D01*
X6201134Y-25629222D02*
X6210658Y-25610174D01*
X6210658Y-25610174D02*
X6229705Y-25600650D01*
X6229705Y-25600650D02*
X6258277Y-25600650D01*
X6258277Y-25600650D02*
X6277324Y-25610174D01*
X6277324Y-25610174D02*
X6286848Y-25629222D01*
X6286848Y-25629222D02*
X6286848Y-25733984D01*
X6382086Y-25733984D02*
X6382086Y-25600650D01*
X6382086Y-25619698D02*
X6391610Y-25610174D01*
X6391610Y-25610174D02*
X6410658Y-25600650D01*
X6410658Y-25600650D02*
X6439229Y-25600650D01*
X6439229Y-25600650D02*
X6458277Y-25610174D01*
X6458277Y-25610174D02*
X6467801Y-25629222D01*
X6467801Y-25629222D02*
X6467801Y-25733984D01*
X6467801Y-25629222D02*
X6477324Y-25610174D01*
X6477324Y-25610174D02*
X6496372Y-25600650D01*
X6496372Y-25600650D02*
X6524943Y-25600650D01*
X6524943Y-25600650D02*
X6543991Y-25610174D01*
X6543991Y-25610174D02*
X6553515Y-25629222D01*
X6553515Y-25629222D02*
X6553515Y-25733984D01*
X6943991Y-25524460D02*
X6772563Y-25781603D01*
X7201134Y-25533984D02*
X7220182Y-25533984D01*
X7220182Y-25533984D02*
X7239229Y-25543508D01*
X7239229Y-25543508D02*
X7248753Y-25553031D01*
X7248753Y-25553031D02*
X7258277Y-25572079D01*
X7258277Y-25572079D02*
X7267801Y-25610174D01*
X7267801Y-25610174D02*
X7267801Y-25657793D01*
X7267801Y-25657793D02*
X7258277Y-25695888D01*
X7258277Y-25695888D02*
X7248753Y-25714936D01*
X7248753Y-25714936D02*
X7239229Y-25724460D01*
X7239229Y-25724460D02*
X7220182Y-25733984D01*
X7220182Y-25733984D02*
X7201134Y-25733984D01*
X7201134Y-25733984D02*
X7182086Y-25724460D01*
X7182086Y-25724460D02*
X7172563Y-25714936D01*
X7172563Y-25714936D02*
X7163039Y-25695888D01*
X7163039Y-25695888D02*
X7153515Y-25657793D01*
X7153515Y-25657793D02*
X7153515Y-25610174D01*
X7153515Y-25610174D02*
X7163039Y-25572079D01*
X7163039Y-25572079D02*
X7172563Y-25553031D01*
X7172563Y-25553031D02*
X7182086Y-25543508D01*
X7182086Y-25543508D02*
X7201134Y-25533984D01*
X7353515Y-25714936D02*
X7363039Y-25724460D01*
X7363039Y-25724460D02*
X7353515Y-25733984D01*
X7353515Y-25733984D02*
X7343991Y-25724460D01*
X7343991Y-25724460D02*
X7353515Y-25714936D01*
X7353515Y-25714936D02*
X7353515Y-25733984D01*
X7486848Y-25533984D02*
X7505896Y-25533984D01*
X7505896Y-25533984D02*
X7524944Y-25543508D01*
X7524944Y-25543508D02*
X7534467Y-25553031D01*
X7534467Y-25553031D02*
X7543991Y-25572079D01*
X7543991Y-25572079D02*
X7553515Y-25610174D01*
X7553515Y-25610174D02*
X7553515Y-25657793D01*
X7553515Y-25657793D02*
X7543991Y-25695888D01*
X7543991Y-25695888D02*
X7534467Y-25714936D01*
X7534467Y-25714936D02*
X7524944Y-25724460D01*
X7524944Y-25724460D02*
X7505896Y-25733984D01*
X7505896Y-25733984D02*
X7486848Y-25733984D01*
X7486848Y-25733984D02*
X7467801Y-25724460D01*
X7467801Y-25724460D02*
X7458277Y-25714936D01*
X7458277Y-25714936D02*
X7448753Y-25695888D01*
X7448753Y-25695888D02*
X7439229Y-25657793D01*
X7439229Y-25657793D02*
X7439229Y-25610174D01*
X7439229Y-25610174D02*
X7448753Y-25572079D01*
X7448753Y-25572079D02*
X7458277Y-25553031D01*
X7458277Y-25553031D02*
X7467801Y-25543508D01*
X7467801Y-25543508D02*
X7486848Y-25533984D01*
X7743991Y-25733984D02*
X7629706Y-25733984D01*
X7686848Y-25733984D02*
X7686848Y-25533984D01*
X7686848Y-25533984D02*
X7667801Y-25562555D01*
X7667801Y-25562555D02*
X7648753Y-25581603D01*
X7648753Y-25581603D02*
X7629706Y-25591127D01*
X7934467Y-25733984D02*
X7820182Y-25733984D01*
X7877325Y-25733984D02*
X7877325Y-25533984D01*
X7877325Y-25533984D02*
X7858277Y-25562555D01*
X7858277Y-25562555D02*
X7839229Y-25581603D01*
X7839229Y-25581603D02*
X7820182Y-25591127D01*
X8048753Y-25619698D02*
X8029706Y-25610174D01*
X8029706Y-25610174D02*
X8020182Y-25600650D01*
X8020182Y-25600650D02*
X8010658Y-25581603D01*
X8010658Y-25581603D02*
X8010658Y-25572079D01*
X8010658Y-25572079D02*
X8020182Y-25553031D01*
X8020182Y-25553031D02*
X8029706Y-25543508D01*
X8029706Y-25543508D02*
X8048753Y-25533984D01*
X8048753Y-25533984D02*
X8086848Y-25533984D01*
X8086848Y-25533984D02*
X8105896Y-25543508D01*
X8105896Y-25543508D02*
X8115420Y-25553031D01*
X8115420Y-25553031D02*
X8124944Y-25572079D01*
X8124944Y-25572079D02*
X8124944Y-25581603D01*
X8124944Y-25581603D02*
X8115420Y-25600650D01*
X8115420Y-25600650D02*
X8105896Y-25610174D01*
X8105896Y-25610174D02*
X8086848Y-25619698D01*
X8086848Y-25619698D02*
X8048753Y-25619698D01*
X8048753Y-25619698D02*
X8029706Y-25629222D01*
X8029706Y-25629222D02*
X8020182Y-25638746D01*
X8020182Y-25638746D02*
X8010658Y-25657793D01*
X8010658Y-25657793D02*
X8010658Y-25695888D01*
X8010658Y-25695888D02*
X8020182Y-25714936D01*
X8020182Y-25714936D02*
X8029706Y-25724460D01*
X8029706Y-25724460D02*
X8048753Y-25733984D01*
X8048753Y-25733984D02*
X8086848Y-25733984D01*
X8086848Y-25733984D02*
X8105896Y-25724460D01*
X8105896Y-25724460D02*
X8115420Y-25714936D01*
X8115420Y-25714936D02*
X8124944Y-25695888D01*
X8124944Y-25695888D02*
X8124944Y-25657793D01*
X8124944Y-25657793D02*
X8115420Y-25638746D01*
X8115420Y-25638746D02*
X8105896Y-25629222D01*
X8105896Y-25629222D02*
X8086848Y-25619698D01*
X8201134Y-25533984D02*
X8201134Y-25572079D01*
X8277325Y-25533984D02*
X8277325Y-25572079D01*
X8572563Y-25810174D02*
X8563039Y-25800650D01*
X8563039Y-25800650D02*
X8543991Y-25772079D01*
X8543991Y-25772079D02*
X8534468Y-25753031D01*
X8534468Y-25753031D02*
X8524944Y-25724460D01*
X8524944Y-25724460D02*
X8515420Y-25676841D01*
X8515420Y-25676841D02*
X8515420Y-25638746D01*
X8515420Y-25638746D02*
X8524944Y-25591127D01*
X8524944Y-25591127D02*
X8534468Y-25562555D01*
X8534468Y-25562555D02*
X8543991Y-25543508D01*
X8543991Y-25543508D02*
X8563039Y-25514936D01*
X8563039Y-25514936D02*
X8572563Y-25505412D01*
X8629706Y-25533984D02*
X8763039Y-25533984D01*
X8763039Y-25533984D02*
X8677325Y-25733984D01*
X8829706Y-25553031D02*
X8839230Y-25543508D01*
X8839230Y-25543508D02*
X8858277Y-25533984D01*
X8858277Y-25533984D02*
X8905896Y-25533984D01*
X8905896Y-25533984D02*
X8924944Y-25543508D01*
X8924944Y-25543508D02*
X8934468Y-25553031D01*
X8934468Y-25553031D02*
X8943991Y-25572079D01*
X8943991Y-25572079D02*
X8943991Y-25591127D01*
X8943991Y-25591127D02*
X8934468Y-25619698D01*
X8934468Y-25619698D02*
X8820182Y-25733984D01*
X8820182Y-25733984D02*
X8943991Y-25733984D01*
X9182087Y-25733984D02*
X9182087Y-25533984D01*
X9267801Y-25733984D02*
X9267801Y-25629222D01*
X9267801Y-25629222D02*
X9258277Y-25610174D01*
X9258277Y-25610174D02*
X9239230Y-25600650D01*
X9239230Y-25600650D02*
X9210658Y-25600650D01*
X9210658Y-25600650D02*
X9191611Y-25610174D01*
X9191611Y-25610174D02*
X9182087Y-25619698D01*
X9391611Y-25733984D02*
X9372563Y-25724460D01*
X9372563Y-25724460D02*
X9363039Y-25714936D01*
X9363039Y-25714936D02*
X9353515Y-25695888D01*
X9353515Y-25695888D02*
X9353515Y-25638746D01*
X9353515Y-25638746D02*
X9363039Y-25619698D01*
X9363039Y-25619698D02*
X9372563Y-25610174D01*
X9372563Y-25610174D02*
X9391611Y-25600650D01*
X9391611Y-25600650D02*
X9420182Y-25600650D01*
X9420182Y-25600650D02*
X9439230Y-25610174D01*
X9439230Y-25610174D02*
X9448753Y-25619698D01*
X9448753Y-25619698D02*
X9458277Y-25638746D01*
X9458277Y-25638746D02*
X9458277Y-25695888D01*
X9458277Y-25695888D02*
X9448753Y-25714936D01*
X9448753Y-25714936D02*
X9439230Y-25724460D01*
X9439230Y-25724460D02*
X9420182Y-25733984D01*
X9420182Y-25733984D02*
X9391611Y-25733984D01*
X9572563Y-25733984D02*
X9553515Y-25724460D01*
X9553515Y-25724460D02*
X9543992Y-25705412D01*
X9543992Y-25705412D02*
X9543992Y-25533984D01*
X9724944Y-25724460D02*
X9705896Y-25733984D01*
X9705896Y-25733984D02*
X9667801Y-25733984D01*
X9667801Y-25733984D02*
X9648753Y-25724460D01*
X9648753Y-25724460D02*
X9639230Y-25705412D01*
X9639230Y-25705412D02*
X9639230Y-25629222D01*
X9639230Y-25629222D02*
X9648753Y-25610174D01*
X9648753Y-25610174D02*
X9667801Y-25600650D01*
X9667801Y-25600650D02*
X9705896Y-25600650D01*
X9705896Y-25600650D02*
X9724944Y-25610174D01*
X9724944Y-25610174D02*
X9734468Y-25629222D01*
X9734468Y-25629222D02*
X9734468Y-25648269D01*
X9734468Y-25648269D02*
X9639230Y-25667317D01*
X9810658Y-25724460D02*
X9829706Y-25733984D01*
X9829706Y-25733984D02*
X9867801Y-25733984D01*
X9867801Y-25733984D02*
X9886849Y-25724460D01*
X9886849Y-25724460D02*
X9896373Y-25705412D01*
X9896373Y-25705412D02*
X9896373Y-25695888D01*
X9896373Y-25695888D02*
X9886849Y-25676841D01*
X9886849Y-25676841D02*
X9867801Y-25667317D01*
X9867801Y-25667317D02*
X9839230Y-25667317D01*
X9839230Y-25667317D02*
X9820182Y-25657793D01*
X9820182Y-25657793D02*
X9810658Y-25638746D01*
X9810658Y-25638746D02*
X9810658Y-25629222D01*
X9810658Y-25629222D02*
X9820182Y-25610174D01*
X9820182Y-25610174D02*
X9839230Y-25600650D01*
X9839230Y-25600650D02*
X9867801Y-25600650D01*
X9867801Y-25600650D02*
X9886849Y-25610174D01*
X9963039Y-25810174D02*
X9972563Y-25800650D01*
X9972563Y-25800650D02*
X9991611Y-25772079D01*
X9991611Y-25772079D02*
X10001134Y-25753031D01*
X10001134Y-25753031D02*
X10010658Y-25724460D01*
X10010658Y-25724460D02*
X10020182Y-25676841D01*
X10020182Y-25676841D02*
X10020182Y-25638746D01*
X10020182Y-25638746D02*
X10010658Y-25591127D01*
X10010658Y-25591127D02*
X10001134Y-25562555D01*
X10001134Y-25562555D02*
X9991611Y-25543508D01*
X9991611Y-25543508D02*
X9972563Y-25514936D01*
X9972563Y-25514936D02*
X9963039Y-25505412D01*
D12*
X4997500Y-25906500D02*
G75*
G02*
X4897500Y-25906500I-50000J0D01*
G01*
X4897500Y-25906500D02*
G75*
G02*
X4997500Y-25906500I50000J0D01*
G01*
D11*
X5363039Y-25997984D02*
X5248753Y-25997984D01*
X5305896Y-25997984D02*
X5305896Y-25797984D01*
X5305896Y-25797984D02*
X5286848Y-25826555D01*
X5286848Y-25826555D02*
X5267801Y-25845603D01*
X5267801Y-25845603D02*
X5248753Y-25855127D01*
X5448753Y-25978936D02*
X5458277Y-25988460D01*
X5458277Y-25988460D02*
X5448753Y-25997984D01*
X5448753Y-25997984D02*
X5439229Y-25988460D01*
X5439229Y-25988460D02*
X5448753Y-25978936D01*
X5448753Y-25978936D02*
X5448753Y-25997984D01*
X5582086Y-25797984D02*
X5601134Y-25797984D01*
X5601134Y-25797984D02*
X5620182Y-25807508D01*
X5620182Y-25807508D02*
X5629705Y-25817031D01*
X5629705Y-25817031D02*
X5639229Y-25836079D01*
X5639229Y-25836079D02*
X5648753Y-25874174D01*
X5648753Y-25874174D02*
X5648753Y-25921793D01*
X5648753Y-25921793D02*
X5639229Y-25959888D01*
X5639229Y-25959888D02*
X5629705Y-25978936D01*
X5629705Y-25978936D02*
X5620182Y-25988460D01*
X5620182Y-25988460D02*
X5601134Y-25997984D01*
X5601134Y-25997984D02*
X5582086Y-25997984D01*
X5582086Y-25997984D02*
X5563039Y-25988460D01*
X5563039Y-25988460D02*
X5553515Y-25978936D01*
X5553515Y-25978936D02*
X5543991Y-25959888D01*
X5543991Y-25959888D02*
X5534467Y-25921793D01*
X5534467Y-25921793D02*
X5534467Y-25874174D01*
X5534467Y-25874174D02*
X5543991Y-25836079D01*
X5543991Y-25836079D02*
X5553515Y-25817031D01*
X5553515Y-25817031D02*
X5563039Y-25807508D01*
X5563039Y-25807508D02*
X5582086Y-25797984D01*
X5772562Y-25797984D02*
X5791610Y-25797984D01*
X5791610Y-25797984D02*
X5810658Y-25807508D01*
X5810658Y-25807508D02*
X5820182Y-25817031D01*
X5820182Y-25817031D02*
X5829705Y-25836079D01*
X5829705Y-25836079D02*
X5839229Y-25874174D01*
X5839229Y-25874174D02*
X5839229Y-25921793D01*
X5839229Y-25921793D02*
X5829705Y-25959888D01*
X5829705Y-25959888D02*
X5820182Y-25978936D01*
X5820182Y-25978936D02*
X5810658Y-25988460D01*
X5810658Y-25988460D02*
X5791610Y-25997984D01*
X5791610Y-25997984D02*
X5772562Y-25997984D01*
X5772562Y-25997984D02*
X5753515Y-25988460D01*
X5753515Y-25988460D02*
X5743991Y-25978936D01*
X5743991Y-25978936D02*
X5734467Y-25959888D01*
X5734467Y-25959888D02*
X5724943Y-25921793D01*
X5724943Y-25921793D02*
X5724943Y-25874174D01*
X5724943Y-25874174D02*
X5734467Y-25836079D01*
X5734467Y-25836079D02*
X5743991Y-25817031D01*
X5743991Y-25817031D02*
X5753515Y-25807508D01*
X5753515Y-25807508D02*
X5772562Y-25797984D01*
X5963039Y-25797984D02*
X5982086Y-25797984D01*
X5982086Y-25797984D02*
X6001134Y-25807508D01*
X6001134Y-25807508D02*
X6010658Y-25817031D01*
X6010658Y-25817031D02*
X6020182Y-25836079D01*
X6020182Y-25836079D02*
X6029705Y-25874174D01*
X6029705Y-25874174D02*
X6029705Y-25921793D01*
X6029705Y-25921793D02*
X6020182Y-25959888D01*
X6020182Y-25959888D02*
X6010658Y-25978936D01*
X6010658Y-25978936D02*
X6001134Y-25988460D01*
X6001134Y-25988460D02*
X5982086Y-25997984D01*
X5982086Y-25997984D02*
X5963039Y-25997984D01*
X5963039Y-25997984D02*
X5943991Y-25988460D01*
X5943991Y-25988460D02*
X5934467Y-25978936D01*
X5934467Y-25978936D02*
X5924943Y-25959888D01*
X5924943Y-25959888D02*
X5915420Y-25921793D01*
X5915420Y-25921793D02*
X5915420Y-25874174D01*
X5915420Y-25874174D02*
X5924943Y-25836079D01*
X5924943Y-25836079D02*
X5934467Y-25817031D01*
X5934467Y-25817031D02*
X5943991Y-25807508D01*
X5943991Y-25807508D02*
X5963039Y-25797984D01*
X6115420Y-25997984D02*
X6115420Y-25864650D01*
X6115420Y-25883698D02*
X6124943Y-25874174D01*
X6124943Y-25874174D02*
X6143991Y-25864650D01*
X6143991Y-25864650D02*
X6172563Y-25864650D01*
X6172563Y-25864650D02*
X6191610Y-25874174D01*
X6191610Y-25874174D02*
X6201134Y-25893222D01*
X6201134Y-25893222D02*
X6201134Y-25997984D01*
X6201134Y-25893222D02*
X6210658Y-25874174D01*
X6210658Y-25874174D02*
X6229705Y-25864650D01*
X6229705Y-25864650D02*
X6258277Y-25864650D01*
X6258277Y-25864650D02*
X6277324Y-25874174D01*
X6277324Y-25874174D02*
X6286848Y-25893222D01*
X6286848Y-25893222D02*
X6286848Y-25997984D01*
X6382086Y-25997984D02*
X6382086Y-25864650D01*
X6382086Y-25883698D02*
X6391610Y-25874174D01*
X6391610Y-25874174D02*
X6410658Y-25864650D01*
X6410658Y-25864650D02*
X6439229Y-25864650D01*
X6439229Y-25864650D02*
X6458277Y-25874174D01*
X6458277Y-25874174D02*
X6467801Y-25893222D01*
X6467801Y-25893222D02*
X6467801Y-25997984D01*
X6467801Y-25893222D02*
X6477324Y-25874174D01*
X6477324Y-25874174D02*
X6496372Y-25864650D01*
X6496372Y-25864650D02*
X6524943Y-25864650D01*
X6524943Y-25864650D02*
X6543991Y-25874174D01*
X6543991Y-25874174D02*
X6553515Y-25893222D01*
X6553515Y-25893222D02*
X6553515Y-25997984D01*
X6943991Y-25788460D02*
X6772563Y-26045603D01*
X7201134Y-25797984D02*
X7220182Y-25797984D01*
X7220182Y-25797984D02*
X7239229Y-25807508D01*
X7239229Y-25807508D02*
X7248753Y-25817031D01*
X7248753Y-25817031D02*
X7258277Y-25836079D01*
X7258277Y-25836079D02*
X7267801Y-25874174D01*
X7267801Y-25874174D02*
X7267801Y-25921793D01*
X7267801Y-25921793D02*
X7258277Y-25959888D01*
X7258277Y-25959888D02*
X7248753Y-25978936D01*
X7248753Y-25978936D02*
X7239229Y-25988460D01*
X7239229Y-25988460D02*
X7220182Y-25997984D01*
X7220182Y-25997984D02*
X7201134Y-25997984D01*
X7201134Y-25997984D02*
X7182086Y-25988460D01*
X7182086Y-25988460D02*
X7172563Y-25978936D01*
X7172563Y-25978936D02*
X7163039Y-25959888D01*
X7163039Y-25959888D02*
X7153515Y-25921793D01*
X7153515Y-25921793D02*
X7153515Y-25874174D01*
X7153515Y-25874174D02*
X7163039Y-25836079D01*
X7163039Y-25836079D02*
X7172563Y-25817031D01*
X7172563Y-25817031D02*
X7182086Y-25807508D01*
X7182086Y-25807508D02*
X7201134Y-25797984D01*
X7353515Y-25978936D02*
X7363039Y-25988460D01*
X7363039Y-25988460D02*
X7353515Y-25997984D01*
X7353515Y-25997984D02*
X7343991Y-25988460D01*
X7343991Y-25988460D02*
X7353515Y-25978936D01*
X7353515Y-25978936D02*
X7353515Y-25997984D01*
X7486848Y-25797984D02*
X7505896Y-25797984D01*
X7505896Y-25797984D02*
X7524944Y-25807508D01*
X7524944Y-25807508D02*
X7534467Y-25817031D01*
X7534467Y-25817031D02*
X7543991Y-25836079D01*
X7543991Y-25836079D02*
X7553515Y-25874174D01*
X7553515Y-25874174D02*
X7553515Y-25921793D01*
X7553515Y-25921793D02*
X7543991Y-25959888D01*
X7543991Y-25959888D02*
X7534467Y-25978936D01*
X7534467Y-25978936D02*
X7524944Y-25988460D01*
X7524944Y-25988460D02*
X7505896Y-25997984D01*
X7505896Y-25997984D02*
X7486848Y-25997984D01*
X7486848Y-25997984D02*
X7467801Y-25988460D01*
X7467801Y-25988460D02*
X7458277Y-25978936D01*
X7458277Y-25978936D02*
X7448753Y-25959888D01*
X7448753Y-25959888D02*
X7439229Y-25921793D01*
X7439229Y-25921793D02*
X7439229Y-25874174D01*
X7439229Y-25874174D02*
X7448753Y-25836079D01*
X7448753Y-25836079D02*
X7458277Y-25817031D01*
X7458277Y-25817031D02*
X7467801Y-25807508D01*
X7467801Y-25807508D02*
X7486848Y-25797984D01*
X7620182Y-25797984D02*
X7743991Y-25797984D01*
X7743991Y-25797984D02*
X7677325Y-25874174D01*
X7677325Y-25874174D02*
X7705896Y-25874174D01*
X7705896Y-25874174D02*
X7724944Y-25883698D01*
X7724944Y-25883698D02*
X7734467Y-25893222D01*
X7734467Y-25893222D02*
X7743991Y-25912269D01*
X7743991Y-25912269D02*
X7743991Y-25959888D01*
X7743991Y-25959888D02*
X7734467Y-25978936D01*
X7734467Y-25978936D02*
X7724944Y-25988460D01*
X7724944Y-25988460D02*
X7705896Y-25997984D01*
X7705896Y-25997984D02*
X7648753Y-25997984D01*
X7648753Y-25997984D02*
X7629706Y-25988460D01*
X7629706Y-25988460D02*
X7620182Y-25978936D01*
X7839229Y-25997984D02*
X7877325Y-25997984D01*
X7877325Y-25997984D02*
X7896372Y-25988460D01*
X7896372Y-25988460D02*
X7905896Y-25978936D01*
X7905896Y-25978936D02*
X7924944Y-25950365D01*
X7924944Y-25950365D02*
X7934467Y-25912269D01*
X7934467Y-25912269D02*
X7934467Y-25836079D01*
X7934467Y-25836079D02*
X7924944Y-25817031D01*
X7924944Y-25817031D02*
X7915420Y-25807508D01*
X7915420Y-25807508D02*
X7896372Y-25797984D01*
X7896372Y-25797984D02*
X7858277Y-25797984D01*
X7858277Y-25797984D02*
X7839229Y-25807508D01*
X7839229Y-25807508D02*
X7829706Y-25817031D01*
X7829706Y-25817031D02*
X7820182Y-25836079D01*
X7820182Y-25836079D02*
X7820182Y-25883698D01*
X7820182Y-25883698D02*
X7829706Y-25902746D01*
X7829706Y-25902746D02*
X7839229Y-25912269D01*
X7839229Y-25912269D02*
X7858277Y-25921793D01*
X7858277Y-25921793D02*
X7896372Y-25921793D01*
X7896372Y-25921793D02*
X7915420Y-25912269D01*
X7915420Y-25912269D02*
X7924944Y-25902746D01*
X7924944Y-25902746D02*
X7934467Y-25883698D01*
X8105896Y-25864650D02*
X8105896Y-25997984D01*
X8058277Y-25788460D02*
X8010658Y-25931317D01*
X8010658Y-25931317D02*
X8134467Y-25931317D01*
X8201134Y-25797984D02*
X8201134Y-25836079D01*
X8277325Y-25797984D02*
X8277325Y-25836079D01*
X8572563Y-26074174D02*
X8563039Y-26064650D01*
X8563039Y-26064650D02*
X8543991Y-26036079D01*
X8543991Y-26036079D02*
X8534468Y-26017031D01*
X8534468Y-26017031D02*
X8524944Y-25988460D01*
X8524944Y-25988460D02*
X8515420Y-25940841D01*
X8515420Y-25940841D02*
X8515420Y-25902746D01*
X8515420Y-25902746D02*
X8524944Y-25855127D01*
X8524944Y-25855127D02*
X8534468Y-25826555D01*
X8534468Y-25826555D02*
X8543991Y-25807508D01*
X8543991Y-25807508D02*
X8563039Y-25778936D01*
X8563039Y-25778936D02*
X8572563Y-25769412D01*
X8686849Y-25797984D02*
X8705896Y-25797984D01*
X8705896Y-25797984D02*
X8724944Y-25807508D01*
X8724944Y-25807508D02*
X8734468Y-25817031D01*
X8734468Y-25817031D02*
X8743991Y-25836079D01*
X8743991Y-25836079D02*
X8753515Y-25874174D01*
X8753515Y-25874174D02*
X8753515Y-25921793D01*
X8753515Y-25921793D02*
X8743991Y-25959888D01*
X8743991Y-25959888D02*
X8734468Y-25978936D01*
X8734468Y-25978936D02*
X8724944Y-25988460D01*
X8724944Y-25988460D02*
X8705896Y-25997984D01*
X8705896Y-25997984D02*
X8686849Y-25997984D01*
X8686849Y-25997984D02*
X8667801Y-25988460D01*
X8667801Y-25988460D02*
X8658277Y-25978936D01*
X8658277Y-25978936D02*
X8648753Y-25959888D01*
X8648753Y-25959888D02*
X8639230Y-25921793D01*
X8639230Y-25921793D02*
X8639230Y-25874174D01*
X8639230Y-25874174D02*
X8648753Y-25836079D01*
X8648753Y-25836079D02*
X8658277Y-25817031D01*
X8658277Y-25817031D02*
X8667801Y-25807508D01*
X8667801Y-25807508D02*
X8686849Y-25797984D01*
X8991611Y-25997984D02*
X8991611Y-25797984D01*
X9077325Y-25997984D02*
X9077325Y-25893222D01*
X9077325Y-25893222D02*
X9067801Y-25874174D01*
X9067801Y-25874174D02*
X9048753Y-25864650D01*
X9048753Y-25864650D02*
X9020182Y-25864650D01*
X9020182Y-25864650D02*
X9001134Y-25874174D01*
X9001134Y-25874174D02*
X8991611Y-25883698D01*
X9201134Y-25997984D02*
X9182087Y-25988460D01*
X9182087Y-25988460D02*
X9172563Y-25978936D01*
X9172563Y-25978936D02*
X9163039Y-25959888D01*
X9163039Y-25959888D02*
X9163039Y-25902746D01*
X9163039Y-25902746D02*
X9172563Y-25883698D01*
X9172563Y-25883698D02*
X9182087Y-25874174D01*
X9182087Y-25874174D02*
X9201134Y-25864650D01*
X9201134Y-25864650D02*
X9229706Y-25864650D01*
X9229706Y-25864650D02*
X9248753Y-25874174D01*
X9248753Y-25874174D02*
X9258277Y-25883698D01*
X9258277Y-25883698D02*
X9267801Y-25902746D01*
X9267801Y-25902746D02*
X9267801Y-25959888D01*
X9267801Y-25959888D02*
X9258277Y-25978936D01*
X9258277Y-25978936D02*
X9248753Y-25988460D01*
X9248753Y-25988460D02*
X9229706Y-25997984D01*
X9229706Y-25997984D02*
X9201134Y-25997984D01*
X9382087Y-25997984D02*
X9363039Y-25988460D01*
X9363039Y-25988460D02*
X9353515Y-25969412D01*
X9353515Y-25969412D02*
X9353515Y-25797984D01*
X9534468Y-25988460D02*
X9515420Y-25997984D01*
X9515420Y-25997984D02*
X9477325Y-25997984D01*
X9477325Y-25997984D02*
X9458277Y-25988460D01*
X9458277Y-25988460D02*
X9448753Y-25969412D01*
X9448753Y-25969412D02*
X9448753Y-25893222D01*
X9448753Y-25893222D02*
X9458277Y-25874174D01*
X9458277Y-25874174D02*
X9477325Y-25864650D01*
X9477325Y-25864650D02*
X9515420Y-25864650D01*
X9515420Y-25864650D02*
X9534468Y-25874174D01*
X9534468Y-25874174D02*
X9543992Y-25893222D01*
X9543992Y-25893222D02*
X9543992Y-25912269D01*
X9543992Y-25912269D02*
X9448753Y-25931317D01*
X9620182Y-25988460D02*
X9639230Y-25997984D01*
X9639230Y-25997984D02*
X9677325Y-25997984D01*
X9677325Y-25997984D02*
X9696373Y-25988460D01*
X9696373Y-25988460D02*
X9705896Y-25969412D01*
X9705896Y-25969412D02*
X9705896Y-25959888D01*
X9705896Y-25959888D02*
X9696373Y-25940841D01*
X9696373Y-25940841D02*
X9677325Y-25931317D01*
X9677325Y-25931317D02*
X9648753Y-25931317D01*
X9648753Y-25931317D02*
X9629706Y-25921793D01*
X9629706Y-25921793D02*
X9620182Y-25902746D01*
X9620182Y-25902746D02*
X9620182Y-25893222D01*
X9620182Y-25893222D02*
X9629706Y-25874174D01*
X9629706Y-25874174D02*
X9648753Y-25864650D01*
X9648753Y-25864650D02*
X9677325Y-25864650D01*
X9677325Y-25864650D02*
X9696373Y-25874174D01*
X9943992Y-25921793D02*
X10096373Y-25921793D01*
X10020182Y-25997984D02*
X10020182Y-25845603D01*
X10429706Y-25797984D02*
X10391611Y-25797984D01*
X10391611Y-25797984D02*
X10372563Y-25807508D01*
X10372563Y-25807508D02*
X10363039Y-25817031D01*
X10363039Y-25817031D02*
X10343992Y-25845603D01*
X10343992Y-25845603D02*
X10334468Y-25883698D01*
X10334468Y-25883698D02*
X10334468Y-25959888D01*
X10334468Y-25959888D02*
X10343992Y-25978936D01*
X10343992Y-25978936D02*
X10353515Y-25988460D01*
X10353515Y-25988460D02*
X10372563Y-25997984D01*
X10372563Y-25997984D02*
X10410658Y-25997984D01*
X10410658Y-25997984D02*
X10429706Y-25988460D01*
X10429706Y-25988460D02*
X10439230Y-25978936D01*
X10439230Y-25978936D02*
X10448754Y-25959888D01*
X10448754Y-25959888D02*
X10448754Y-25912269D01*
X10448754Y-25912269D02*
X10439230Y-25893222D01*
X10439230Y-25893222D02*
X10429706Y-25883698D01*
X10429706Y-25883698D02*
X10410658Y-25874174D01*
X10410658Y-25874174D02*
X10372563Y-25874174D01*
X10372563Y-25874174D02*
X10353515Y-25883698D01*
X10353515Y-25883698D02*
X10343992Y-25893222D01*
X10343992Y-25893222D02*
X10334468Y-25912269D01*
X10677325Y-25988460D02*
X10696373Y-25997984D01*
X10696373Y-25997984D02*
X10734468Y-25997984D01*
X10734468Y-25997984D02*
X10753516Y-25988460D01*
X10753516Y-25988460D02*
X10763039Y-25969412D01*
X10763039Y-25969412D02*
X10763039Y-25959888D01*
X10763039Y-25959888D02*
X10753516Y-25940841D01*
X10753516Y-25940841D02*
X10734468Y-25931317D01*
X10734468Y-25931317D02*
X10705896Y-25931317D01*
X10705896Y-25931317D02*
X10686849Y-25921793D01*
X10686849Y-25921793D02*
X10677325Y-25902746D01*
X10677325Y-25902746D02*
X10677325Y-25893222D01*
X10677325Y-25893222D02*
X10686849Y-25874174D01*
X10686849Y-25874174D02*
X10705896Y-25864650D01*
X10705896Y-25864650D02*
X10734468Y-25864650D01*
X10734468Y-25864650D02*
X10753516Y-25874174D01*
X10877325Y-25997984D02*
X10858277Y-25988460D01*
X10858277Y-25988460D02*
X10848754Y-25969412D01*
X10848754Y-25969412D02*
X10848754Y-25797984D01*
X10982087Y-25997984D02*
X10963039Y-25988460D01*
X10963039Y-25988460D02*
X10953516Y-25978936D01*
X10953516Y-25978936D02*
X10943992Y-25959888D01*
X10943992Y-25959888D02*
X10943992Y-25902746D01*
X10943992Y-25902746D02*
X10953516Y-25883698D01*
X10953516Y-25883698D02*
X10963039Y-25874174D01*
X10963039Y-25874174D02*
X10982087Y-25864650D01*
X10982087Y-25864650D02*
X11010658Y-25864650D01*
X11010658Y-25864650D02*
X11029706Y-25874174D01*
X11029706Y-25874174D02*
X11039230Y-25883698D01*
X11039230Y-25883698D02*
X11048754Y-25902746D01*
X11048754Y-25902746D02*
X11048754Y-25959888D01*
X11048754Y-25959888D02*
X11039230Y-25978936D01*
X11039230Y-25978936D02*
X11029706Y-25988460D01*
X11029706Y-25988460D02*
X11010658Y-25997984D01*
X11010658Y-25997984D02*
X10982087Y-25997984D01*
X11105897Y-25864650D02*
X11182087Y-25864650D01*
X11134468Y-25797984D02*
X11134468Y-25969412D01*
X11134468Y-25969412D02*
X11143992Y-25988460D01*
X11143992Y-25988460D02*
X11163039Y-25997984D01*
X11163039Y-25997984D02*
X11182087Y-25997984D01*
X11239230Y-25988460D02*
X11258277Y-25997984D01*
X11258277Y-25997984D02*
X11296373Y-25997984D01*
X11296373Y-25997984D02*
X11315420Y-25988460D01*
X11315420Y-25988460D02*
X11324944Y-25969412D01*
X11324944Y-25969412D02*
X11324944Y-25959888D01*
X11324944Y-25959888D02*
X11315420Y-25940841D01*
X11315420Y-25940841D02*
X11296373Y-25931317D01*
X11296373Y-25931317D02*
X11267801Y-25931317D01*
X11267801Y-25931317D02*
X11248754Y-25921793D01*
X11248754Y-25921793D02*
X11239230Y-25902746D01*
X11239230Y-25902746D02*
X11239230Y-25893222D01*
X11239230Y-25893222D02*
X11248754Y-25874174D01*
X11248754Y-25874174D02*
X11267801Y-25864650D01*
X11267801Y-25864650D02*
X11296373Y-25864650D01*
X11296373Y-25864650D02*
X11315420Y-25874174D01*
X11391611Y-26074174D02*
X11401135Y-26064650D01*
X11401135Y-26064650D02*
X11420182Y-26036079D01*
X11420182Y-26036079D02*
X11429706Y-26017031D01*
X11429706Y-26017031D02*
X11439230Y-25988460D01*
X11439230Y-25988460D02*
X11448754Y-25940841D01*
X11448754Y-25940841D02*
X11448754Y-25902746D01*
X11448754Y-25902746D02*
X11439230Y-25855127D01*
X11439230Y-25855127D02*
X11429706Y-25826555D01*
X11429706Y-25826555D02*
X11420182Y-25807508D01*
X11420182Y-25807508D02*
X11401135Y-25778936D01*
X11401135Y-25778936D02*
X11391611Y-25769412D01*
X4897500Y-26070500D02*
X4897500Y-26270500D01*
X4797500Y-26170500D02*
X4997500Y-26170500D01*
X5248753Y-26081031D02*
X5258277Y-26071508D01*
X5258277Y-26071508D02*
X5277324Y-26061984D01*
X5277324Y-26061984D02*
X5324944Y-26061984D01*
X5324944Y-26061984D02*
X5343991Y-26071508D01*
X5343991Y-26071508D02*
X5353515Y-26081031D01*
X5353515Y-26081031D02*
X5363039Y-26100079D01*
X5363039Y-26100079D02*
X5363039Y-26119127D01*
X5363039Y-26119127D02*
X5353515Y-26147698D01*
X5353515Y-26147698D02*
X5239229Y-26261984D01*
X5239229Y-26261984D02*
X5363039Y-26261984D01*
X5448753Y-26242936D02*
X5458277Y-26252460D01*
X5458277Y-26252460D02*
X5448753Y-26261984D01*
X5448753Y-26261984D02*
X5439229Y-26252460D01*
X5439229Y-26252460D02*
X5448753Y-26242936D01*
X5448753Y-26242936D02*
X5448753Y-26261984D01*
X5629705Y-26128650D02*
X5629705Y-26261984D01*
X5582086Y-26052460D02*
X5534467Y-26195317D01*
X5534467Y-26195317D02*
X5658277Y-26195317D01*
X5772562Y-26061984D02*
X5791610Y-26061984D01*
X5791610Y-26061984D02*
X5810658Y-26071508D01*
X5810658Y-26071508D02*
X5820182Y-26081031D01*
X5820182Y-26081031D02*
X5829705Y-26100079D01*
X5829705Y-26100079D02*
X5839229Y-26138174D01*
X5839229Y-26138174D02*
X5839229Y-26185793D01*
X5839229Y-26185793D02*
X5829705Y-26223888D01*
X5829705Y-26223888D02*
X5820182Y-26242936D01*
X5820182Y-26242936D02*
X5810658Y-26252460D01*
X5810658Y-26252460D02*
X5791610Y-26261984D01*
X5791610Y-26261984D02*
X5772562Y-26261984D01*
X5772562Y-26261984D02*
X5753515Y-26252460D01*
X5753515Y-26252460D02*
X5743991Y-26242936D01*
X5743991Y-26242936D02*
X5734467Y-26223888D01*
X5734467Y-26223888D02*
X5724943Y-26185793D01*
X5724943Y-26185793D02*
X5724943Y-26138174D01*
X5724943Y-26138174D02*
X5734467Y-26100079D01*
X5734467Y-26100079D02*
X5743991Y-26081031D01*
X5743991Y-26081031D02*
X5753515Y-26071508D01*
X5753515Y-26071508D02*
X5772562Y-26061984D01*
X5963039Y-26061984D02*
X5982086Y-26061984D01*
X5982086Y-26061984D02*
X6001134Y-26071508D01*
X6001134Y-26071508D02*
X6010658Y-26081031D01*
X6010658Y-26081031D02*
X6020182Y-26100079D01*
X6020182Y-26100079D02*
X6029705Y-26138174D01*
X6029705Y-26138174D02*
X6029705Y-26185793D01*
X6029705Y-26185793D02*
X6020182Y-26223888D01*
X6020182Y-26223888D02*
X6010658Y-26242936D01*
X6010658Y-26242936D02*
X6001134Y-26252460D01*
X6001134Y-26252460D02*
X5982086Y-26261984D01*
X5982086Y-26261984D02*
X5963039Y-26261984D01*
X5963039Y-26261984D02*
X5943991Y-26252460D01*
X5943991Y-26252460D02*
X5934467Y-26242936D01*
X5934467Y-26242936D02*
X5924943Y-26223888D01*
X5924943Y-26223888D02*
X5915420Y-26185793D01*
X5915420Y-26185793D02*
X5915420Y-26138174D01*
X5915420Y-26138174D02*
X5924943Y-26100079D01*
X5924943Y-26100079D02*
X5934467Y-26081031D01*
X5934467Y-26081031D02*
X5943991Y-26071508D01*
X5943991Y-26071508D02*
X5963039Y-26061984D01*
X6115420Y-26261984D02*
X6115420Y-26128650D01*
X6115420Y-26147698D02*
X6124943Y-26138174D01*
X6124943Y-26138174D02*
X6143991Y-26128650D01*
X6143991Y-26128650D02*
X6172563Y-26128650D01*
X6172563Y-26128650D02*
X6191610Y-26138174D01*
X6191610Y-26138174D02*
X6201134Y-26157222D01*
X6201134Y-26157222D02*
X6201134Y-26261984D01*
X6201134Y-26157222D02*
X6210658Y-26138174D01*
X6210658Y-26138174D02*
X6229705Y-26128650D01*
X6229705Y-26128650D02*
X6258277Y-26128650D01*
X6258277Y-26128650D02*
X6277324Y-26138174D01*
X6277324Y-26138174D02*
X6286848Y-26157222D01*
X6286848Y-26157222D02*
X6286848Y-26261984D01*
X6382086Y-26261984D02*
X6382086Y-26128650D01*
X6382086Y-26147698D02*
X6391610Y-26138174D01*
X6391610Y-26138174D02*
X6410658Y-26128650D01*
X6410658Y-26128650D02*
X6439229Y-26128650D01*
X6439229Y-26128650D02*
X6458277Y-26138174D01*
X6458277Y-26138174D02*
X6467801Y-26157222D01*
X6467801Y-26157222D02*
X6467801Y-26261984D01*
X6467801Y-26157222D02*
X6477324Y-26138174D01*
X6477324Y-26138174D02*
X6496372Y-26128650D01*
X6496372Y-26128650D02*
X6524943Y-26128650D01*
X6524943Y-26128650D02*
X6543991Y-26138174D01*
X6543991Y-26138174D02*
X6553515Y-26157222D01*
X6553515Y-26157222D02*
X6553515Y-26261984D01*
X6943991Y-26052460D02*
X6772563Y-26309603D01*
X7201134Y-26061984D02*
X7220182Y-26061984D01*
X7220182Y-26061984D02*
X7239229Y-26071508D01*
X7239229Y-26071508D02*
X7248753Y-26081031D01*
X7248753Y-26081031D02*
X7258277Y-26100079D01*
X7258277Y-26100079D02*
X7267801Y-26138174D01*
X7267801Y-26138174D02*
X7267801Y-26185793D01*
X7267801Y-26185793D02*
X7258277Y-26223888D01*
X7258277Y-26223888D02*
X7248753Y-26242936D01*
X7248753Y-26242936D02*
X7239229Y-26252460D01*
X7239229Y-26252460D02*
X7220182Y-26261984D01*
X7220182Y-26261984D02*
X7201134Y-26261984D01*
X7201134Y-26261984D02*
X7182086Y-26252460D01*
X7182086Y-26252460D02*
X7172563Y-26242936D01*
X7172563Y-26242936D02*
X7163039Y-26223888D01*
X7163039Y-26223888D02*
X7153515Y-26185793D01*
X7153515Y-26185793D02*
X7153515Y-26138174D01*
X7153515Y-26138174D02*
X7163039Y-26100079D01*
X7163039Y-26100079D02*
X7172563Y-26081031D01*
X7172563Y-26081031D02*
X7182086Y-26071508D01*
X7182086Y-26071508D02*
X7201134Y-26061984D01*
X7353515Y-26242936D02*
X7363039Y-26252460D01*
X7363039Y-26252460D02*
X7353515Y-26261984D01*
X7353515Y-26261984D02*
X7343991Y-26252460D01*
X7343991Y-26252460D02*
X7353515Y-26242936D01*
X7353515Y-26242936D02*
X7353515Y-26261984D01*
X7486848Y-26061984D02*
X7505896Y-26061984D01*
X7505896Y-26061984D02*
X7524944Y-26071508D01*
X7524944Y-26071508D02*
X7534467Y-26081031D01*
X7534467Y-26081031D02*
X7543991Y-26100079D01*
X7543991Y-26100079D02*
X7553515Y-26138174D01*
X7553515Y-26138174D02*
X7553515Y-26185793D01*
X7553515Y-26185793D02*
X7543991Y-26223888D01*
X7543991Y-26223888D02*
X7534467Y-26242936D01*
X7534467Y-26242936D02*
X7524944Y-26252460D01*
X7524944Y-26252460D02*
X7505896Y-26261984D01*
X7505896Y-26261984D02*
X7486848Y-26261984D01*
X7486848Y-26261984D02*
X7467801Y-26252460D01*
X7467801Y-26252460D02*
X7458277Y-26242936D01*
X7458277Y-26242936D02*
X7448753Y-26223888D01*
X7448753Y-26223888D02*
X7439229Y-26185793D01*
X7439229Y-26185793D02*
X7439229Y-26138174D01*
X7439229Y-26138174D02*
X7448753Y-26100079D01*
X7448753Y-26100079D02*
X7458277Y-26081031D01*
X7458277Y-26081031D02*
X7467801Y-26071508D01*
X7467801Y-26071508D02*
X7486848Y-26061984D01*
X7648753Y-26261984D02*
X7686848Y-26261984D01*
X7686848Y-26261984D02*
X7705896Y-26252460D01*
X7705896Y-26252460D02*
X7715420Y-26242936D01*
X7715420Y-26242936D02*
X7734467Y-26214365D01*
X7734467Y-26214365D02*
X7743991Y-26176269D01*
X7743991Y-26176269D02*
X7743991Y-26100079D01*
X7743991Y-26100079D02*
X7734467Y-26081031D01*
X7734467Y-26081031D02*
X7724944Y-26071508D01*
X7724944Y-26071508D02*
X7705896Y-26061984D01*
X7705896Y-26061984D02*
X7667801Y-26061984D01*
X7667801Y-26061984D02*
X7648753Y-26071508D01*
X7648753Y-26071508D02*
X7639229Y-26081031D01*
X7639229Y-26081031D02*
X7629706Y-26100079D01*
X7629706Y-26100079D02*
X7629706Y-26147698D01*
X7629706Y-26147698D02*
X7639229Y-26166746D01*
X7639229Y-26166746D02*
X7648753Y-26176269D01*
X7648753Y-26176269D02*
X7667801Y-26185793D01*
X7667801Y-26185793D02*
X7705896Y-26185793D01*
X7705896Y-26185793D02*
X7724944Y-26176269D01*
X7724944Y-26176269D02*
X7734467Y-26166746D01*
X7734467Y-26166746D02*
X7743991Y-26147698D01*
X7915420Y-26128650D02*
X7915420Y-26261984D01*
X7867801Y-26052460D02*
X7820182Y-26195317D01*
X7820182Y-26195317D02*
X7943991Y-26195317D01*
X8115420Y-26061984D02*
X8020182Y-26061984D01*
X8020182Y-26061984D02*
X8010658Y-26157222D01*
X8010658Y-26157222D02*
X8020182Y-26147698D01*
X8020182Y-26147698D02*
X8039229Y-26138174D01*
X8039229Y-26138174D02*
X8086848Y-26138174D01*
X8086848Y-26138174D02*
X8105896Y-26147698D01*
X8105896Y-26147698D02*
X8115420Y-26157222D01*
X8115420Y-26157222D02*
X8124944Y-26176269D01*
X8124944Y-26176269D02*
X8124944Y-26223888D01*
X8124944Y-26223888D02*
X8115420Y-26242936D01*
X8115420Y-26242936D02*
X8105896Y-26252460D01*
X8105896Y-26252460D02*
X8086848Y-26261984D01*
X8086848Y-26261984D02*
X8039229Y-26261984D01*
X8039229Y-26261984D02*
X8020182Y-26252460D01*
X8020182Y-26252460D02*
X8010658Y-26242936D01*
X8201134Y-26061984D02*
X8201134Y-26100079D01*
X8277325Y-26061984D02*
X8277325Y-26100079D01*
X8572563Y-26338174D02*
X8563039Y-26328650D01*
X8563039Y-26328650D02*
X8543991Y-26300079D01*
X8543991Y-26300079D02*
X8534468Y-26281031D01*
X8534468Y-26281031D02*
X8524944Y-26252460D01*
X8524944Y-26252460D02*
X8515420Y-26204841D01*
X8515420Y-26204841D02*
X8515420Y-26166746D01*
X8515420Y-26166746D02*
X8524944Y-26119127D01*
X8524944Y-26119127D02*
X8534468Y-26090555D01*
X8534468Y-26090555D02*
X8543991Y-26071508D01*
X8543991Y-26071508D02*
X8563039Y-26042936D01*
X8563039Y-26042936D02*
X8572563Y-26033412D01*
X8629706Y-26061984D02*
X8753515Y-26061984D01*
X8753515Y-26061984D02*
X8686849Y-26138174D01*
X8686849Y-26138174D02*
X8715420Y-26138174D01*
X8715420Y-26138174D02*
X8734468Y-26147698D01*
X8734468Y-26147698D02*
X8743991Y-26157222D01*
X8743991Y-26157222D02*
X8753515Y-26176269D01*
X8753515Y-26176269D02*
X8753515Y-26223888D01*
X8753515Y-26223888D02*
X8743991Y-26242936D01*
X8743991Y-26242936D02*
X8734468Y-26252460D01*
X8734468Y-26252460D02*
X8715420Y-26261984D01*
X8715420Y-26261984D02*
X8658277Y-26261984D01*
X8658277Y-26261984D02*
X8639230Y-26252460D01*
X8639230Y-26252460D02*
X8629706Y-26242936D01*
X8991611Y-26261984D02*
X8991611Y-26061984D01*
X9077325Y-26261984D02*
X9077325Y-26157222D01*
X9077325Y-26157222D02*
X9067801Y-26138174D01*
X9067801Y-26138174D02*
X9048753Y-26128650D01*
X9048753Y-26128650D02*
X9020182Y-26128650D01*
X9020182Y-26128650D02*
X9001134Y-26138174D01*
X9001134Y-26138174D02*
X8991611Y-26147698D01*
X9201134Y-26261984D02*
X9182087Y-26252460D01*
X9182087Y-26252460D02*
X9172563Y-26242936D01*
X9172563Y-26242936D02*
X9163039Y-26223888D01*
X9163039Y-26223888D02*
X9163039Y-26166746D01*
X9163039Y-26166746D02*
X9172563Y-26147698D01*
X9172563Y-26147698D02*
X9182087Y-26138174D01*
X9182087Y-26138174D02*
X9201134Y-26128650D01*
X9201134Y-26128650D02*
X9229706Y-26128650D01*
X9229706Y-26128650D02*
X9248753Y-26138174D01*
X9248753Y-26138174D02*
X9258277Y-26147698D01*
X9258277Y-26147698D02*
X9267801Y-26166746D01*
X9267801Y-26166746D02*
X9267801Y-26223888D01*
X9267801Y-26223888D02*
X9258277Y-26242936D01*
X9258277Y-26242936D02*
X9248753Y-26252460D01*
X9248753Y-26252460D02*
X9229706Y-26261984D01*
X9229706Y-26261984D02*
X9201134Y-26261984D01*
X9382087Y-26261984D02*
X9363039Y-26252460D01*
X9363039Y-26252460D02*
X9353515Y-26233412D01*
X9353515Y-26233412D02*
X9353515Y-26061984D01*
X9534468Y-26252460D02*
X9515420Y-26261984D01*
X9515420Y-26261984D02*
X9477325Y-26261984D01*
X9477325Y-26261984D02*
X9458277Y-26252460D01*
X9458277Y-26252460D02*
X9448753Y-26233412D01*
X9448753Y-26233412D02*
X9448753Y-26157222D01*
X9448753Y-26157222D02*
X9458277Y-26138174D01*
X9458277Y-26138174D02*
X9477325Y-26128650D01*
X9477325Y-26128650D02*
X9515420Y-26128650D01*
X9515420Y-26128650D02*
X9534468Y-26138174D01*
X9534468Y-26138174D02*
X9543992Y-26157222D01*
X9543992Y-26157222D02*
X9543992Y-26176269D01*
X9543992Y-26176269D02*
X9448753Y-26195317D01*
X9620182Y-26252460D02*
X9639230Y-26261984D01*
X9639230Y-26261984D02*
X9677325Y-26261984D01*
X9677325Y-26261984D02*
X9696373Y-26252460D01*
X9696373Y-26252460D02*
X9705896Y-26233412D01*
X9705896Y-26233412D02*
X9705896Y-26223888D01*
X9705896Y-26223888D02*
X9696373Y-26204841D01*
X9696373Y-26204841D02*
X9677325Y-26195317D01*
X9677325Y-26195317D02*
X9648753Y-26195317D01*
X9648753Y-26195317D02*
X9629706Y-26185793D01*
X9629706Y-26185793D02*
X9620182Y-26166746D01*
X9620182Y-26166746D02*
X9620182Y-26157222D01*
X9620182Y-26157222D02*
X9629706Y-26138174D01*
X9629706Y-26138174D02*
X9648753Y-26128650D01*
X9648753Y-26128650D02*
X9677325Y-26128650D01*
X9677325Y-26128650D02*
X9696373Y-26138174D01*
X9772563Y-26338174D02*
X9782087Y-26328650D01*
X9782087Y-26328650D02*
X9801134Y-26300079D01*
X9801134Y-26300079D02*
X9810658Y-26281031D01*
X9810658Y-26281031D02*
X9820182Y-26252460D01*
X9820182Y-26252460D02*
X9829706Y-26204841D01*
X9829706Y-26204841D02*
X9829706Y-26166746D01*
X9829706Y-26166746D02*
X9820182Y-26119127D01*
X9820182Y-26119127D02*
X9810658Y-26090555D01*
X9810658Y-26090555D02*
X9801134Y-26071508D01*
X9801134Y-26071508D02*
X9782087Y-26042936D01*
X9782087Y-26042936D02*
X9772563Y-26033412D01*
X4968211Y-26561211D02*
X4968211Y-26419789D01*
X4826789Y-26419789D01*
X4826789Y-26561211D01*
X4968211Y-26561211D01*
X5239229Y-26381984D02*
X5363039Y-26381984D01*
X5363039Y-26381984D02*
X5296372Y-26458174D01*
X5296372Y-26458174D02*
X5324944Y-26458174D01*
X5324944Y-26458174D02*
X5343991Y-26467698D01*
X5343991Y-26467698D02*
X5353515Y-26477222D01*
X5353515Y-26477222D02*
X5363039Y-26496269D01*
X5363039Y-26496269D02*
X5363039Y-26543888D01*
X5363039Y-26543888D02*
X5353515Y-26562936D01*
X5353515Y-26562936D02*
X5343991Y-26572460D01*
X5343991Y-26572460D02*
X5324944Y-26581984D01*
X5324944Y-26581984D02*
X5267801Y-26581984D01*
X5267801Y-26581984D02*
X5248753Y-26572460D01*
X5248753Y-26572460D02*
X5239229Y-26562936D01*
X5448753Y-26562936D02*
X5458277Y-26572460D01*
X5458277Y-26572460D02*
X5448753Y-26581984D01*
X5448753Y-26581984D02*
X5439229Y-26572460D01*
X5439229Y-26572460D02*
X5448753Y-26562936D01*
X5448753Y-26562936D02*
X5448753Y-26581984D01*
X5534467Y-26401031D02*
X5543991Y-26391508D01*
X5543991Y-26391508D02*
X5563039Y-26381984D01*
X5563039Y-26381984D02*
X5610658Y-26381984D01*
X5610658Y-26381984D02*
X5629705Y-26391508D01*
X5629705Y-26391508D02*
X5639229Y-26401031D01*
X5639229Y-26401031D02*
X5648753Y-26420079D01*
X5648753Y-26420079D02*
X5648753Y-26439127D01*
X5648753Y-26439127D02*
X5639229Y-26467698D01*
X5639229Y-26467698D02*
X5524944Y-26581984D01*
X5524944Y-26581984D02*
X5648753Y-26581984D01*
X5772562Y-26381984D02*
X5791610Y-26381984D01*
X5791610Y-26381984D02*
X5810658Y-26391508D01*
X5810658Y-26391508D02*
X5820182Y-26401031D01*
X5820182Y-26401031D02*
X5829705Y-26420079D01*
X5829705Y-26420079D02*
X5839229Y-26458174D01*
X5839229Y-26458174D02*
X5839229Y-26505793D01*
X5839229Y-26505793D02*
X5829705Y-26543888D01*
X5829705Y-26543888D02*
X5820182Y-26562936D01*
X5820182Y-26562936D02*
X5810658Y-26572460D01*
X5810658Y-26572460D02*
X5791610Y-26581984D01*
X5791610Y-26581984D02*
X5772562Y-26581984D01*
X5772562Y-26581984D02*
X5753515Y-26572460D01*
X5753515Y-26572460D02*
X5743991Y-26562936D01*
X5743991Y-26562936D02*
X5734467Y-26543888D01*
X5734467Y-26543888D02*
X5724943Y-26505793D01*
X5724943Y-26505793D02*
X5724943Y-26458174D01*
X5724943Y-26458174D02*
X5734467Y-26420079D01*
X5734467Y-26420079D02*
X5743991Y-26401031D01*
X5743991Y-26401031D02*
X5753515Y-26391508D01*
X5753515Y-26391508D02*
X5772562Y-26381984D01*
X5963039Y-26381984D02*
X5982086Y-26381984D01*
X5982086Y-26381984D02*
X6001134Y-26391508D01*
X6001134Y-26391508D02*
X6010658Y-26401031D01*
X6010658Y-26401031D02*
X6020182Y-26420079D01*
X6020182Y-26420079D02*
X6029705Y-26458174D01*
X6029705Y-26458174D02*
X6029705Y-26505793D01*
X6029705Y-26505793D02*
X6020182Y-26543888D01*
X6020182Y-26543888D02*
X6010658Y-26562936D01*
X6010658Y-26562936D02*
X6001134Y-26572460D01*
X6001134Y-26572460D02*
X5982086Y-26581984D01*
X5982086Y-26581984D02*
X5963039Y-26581984D01*
X5963039Y-26581984D02*
X5943991Y-26572460D01*
X5943991Y-26572460D02*
X5934467Y-26562936D01*
X5934467Y-26562936D02*
X5924943Y-26543888D01*
X5924943Y-26543888D02*
X5915420Y-26505793D01*
X5915420Y-26505793D02*
X5915420Y-26458174D01*
X5915420Y-26458174D02*
X5924943Y-26420079D01*
X5924943Y-26420079D02*
X5934467Y-26401031D01*
X5934467Y-26401031D02*
X5943991Y-26391508D01*
X5943991Y-26391508D02*
X5963039Y-26381984D01*
X6115420Y-26581984D02*
X6115420Y-26448650D01*
X6115420Y-26467698D02*
X6124943Y-26458174D01*
X6124943Y-26458174D02*
X6143991Y-26448650D01*
X6143991Y-26448650D02*
X6172563Y-26448650D01*
X6172563Y-26448650D02*
X6191610Y-26458174D01*
X6191610Y-26458174D02*
X6201134Y-26477222D01*
X6201134Y-26477222D02*
X6201134Y-26581984D01*
X6201134Y-26477222D02*
X6210658Y-26458174D01*
X6210658Y-26458174D02*
X6229705Y-26448650D01*
X6229705Y-26448650D02*
X6258277Y-26448650D01*
X6258277Y-26448650D02*
X6277324Y-26458174D01*
X6277324Y-26458174D02*
X6286848Y-26477222D01*
X6286848Y-26477222D02*
X6286848Y-26581984D01*
X6382086Y-26581984D02*
X6382086Y-26448650D01*
X6382086Y-26467698D02*
X6391610Y-26458174D01*
X6391610Y-26458174D02*
X6410658Y-26448650D01*
X6410658Y-26448650D02*
X6439229Y-26448650D01*
X6439229Y-26448650D02*
X6458277Y-26458174D01*
X6458277Y-26458174D02*
X6467801Y-26477222D01*
X6467801Y-26477222D02*
X6467801Y-26581984D01*
X6467801Y-26477222D02*
X6477324Y-26458174D01*
X6477324Y-26458174D02*
X6496372Y-26448650D01*
X6496372Y-26448650D02*
X6524943Y-26448650D01*
X6524943Y-26448650D02*
X6543991Y-26458174D01*
X6543991Y-26458174D02*
X6553515Y-26477222D01*
X6553515Y-26477222D02*
X6553515Y-26581984D01*
X6943991Y-26372460D02*
X6772563Y-26629603D01*
X7201134Y-26381984D02*
X7220182Y-26381984D01*
X7220182Y-26381984D02*
X7239229Y-26391508D01*
X7239229Y-26391508D02*
X7248753Y-26401031D01*
X7248753Y-26401031D02*
X7258277Y-26420079D01*
X7258277Y-26420079D02*
X7267801Y-26458174D01*
X7267801Y-26458174D02*
X7267801Y-26505793D01*
X7267801Y-26505793D02*
X7258277Y-26543888D01*
X7258277Y-26543888D02*
X7248753Y-26562936D01*
X7248753Y-26562936D02*
X7239229Y-26572460D01*
X7239229Y-26572460D02*
X7220182Y-26581984D01*
X7220182Y-26581984D02*
X7201134Y-26581984D01*
X7201134Y-26581984D02*
X7182086Y-26572460D01*
X7182086Y-26572460D02*
X7172563Y-26562936D01*
X7172563Y-26562936D02*
X7163039Y-26543888D01*
X7163039Y-26543888D02*
X7153515Y-26505793D01*
X7153515Y-26505793D02*
X7153515Y-26458174D01*
X7153515Y-26458174D02*
X7163039Y-26420079D01*
X7163039Y-26420079D02*
X7172563Y-26401031D01*
X7172563Y-26401031D02*
X7182086Y-26391508D01*
X7182086Y-26391508D02*
X7201134Y-26381984D01*
X7353515Y-26562936D02*
X7363039Y-26572460D01*
X7363039Y-26572460D02*
X7353515Y-26581984D01*
X7353515Y-26581984D02*
X7343991Y-26572460D01*
X7343991Y-26572460D02*
X7353515Y-26562936D01*
X7353515Y-26562936D02*
X7353515Y-26581984D01*
X7553515Y-26581984D02*
X7439229Y-26581984D01*
X7496372Y-26581984D02*
X7496372Y-26381984D01*
X7496372Y-26381984D02*
X7477325Y-26410555D01*
X7477325Y-26410555D02*
X7458277Y-26429603D01*
X7458277Y-26429603D02*
X7439229Y-26439127D01*
X7629706Y-26401031D02*
X7639229Y-26391508D01*
X7639229Y-26391508D02*
X7658277Y-26381984D01*
X7658277Y-26381984D02*
X7705896Y-26381984D01*
X7705896Y-26381984D02*
X7724944Y-26391508D01*
X7724944Y-26391508D02*
X7734467Y-26401031D01*
X7734467Y-26401031D02*
X7743991Y-26420079D01*
X7743991Y-26420079D02*
X7743991Y-26439127D01*
X7743991Y-26439127D02*
X7734467Y-26467698D01*
X7734467Y-26467698D02*
X7620182Y-26581984D01*
X7620182Y-26581984D02*
X7743991Y-26581984D01*
X7915420Y-26381984D02*
X7877325Y-26381984D01*
X7877325Y-26381984D02*
X7858277Y-26391508D01*
X7858277Y-26391508D02*
X7848753Y-26401031D01*
X7848753Y-26401031D02*
X7829706Y-26429603D01*
X7829706Y-26429603D02*
X7820182Y-26467698D01*
X7820182Y-26467698D02*
X7820182Y-26543888D01*
X7820182Y-26543888D02*
X7829706Y-26562936D01*
X7829706Y-26562936D02*
X7839229Y-26572460D01*
X7839229Y-26572460D02*
X7858277Y-26581984D01*
X7858277Y-26581984D02*
X7896372Y-26581984D01*
X7896372Y-26581984D02*
X7915420Y-26572460D01*
X7915420Y-26572460D02*
X7924944Y-26562936D01*
X7924944Y-26562936D02*
X7934467Y-26543888D01*
X7934467Y-26543888D02*
X7934467Y-26496269D01*
X7934467Y-26496269D02*
X7924944Y-26477222D01*
X7924944Y-26477222D02*
X7915420Y-26467698D01*
X7915420Y-26467698D02*
X7896372Y-26458174D01*
X7896372Y-26458174D02*
X7858277Y-26458174D01*
X7858277Y-26458174D02*
X7839229Y-26467698D01*
X7839229Y-26467698D02*
X7829706Y-26477222D01*
X7829706Y-26477222D02*
X7820182Y-26496269D01*
X8058277Y-26381984D02*
X8077325Y-26381984D01*
X8077325Y-26381984D02*
X8096372Y-26391508D01*
X8096372Y-26391508D02*
X8105896Y-26401031D01*
X8105896Y-26401031D02*
X8115420Y-26420079D01*
X8115420Y-26420079D02*
X8124944Y-26458174D01*
X8124944Y-26458174D02*
X8124944Y-26505793D01*
X8124944Y-26505793D02*
X8115420Y-26543888D01*
X8115420Y-26543888D02*
X8105896Y-26562936D01*
X8105896Y-26562936D02*
X8096372Y-26572460D01*
X8096372Y-26572460D02*
X8077325Y-26581984D01*
X8077325Y-26581984D02*
X8058277Y-26581984D01*
X8058277Y-26581984D02*
X8039229Y-26572460D01*
X8039229Y-26572460D02*
X8029706Y-26562936D01*
X8029706Y-26562936D02*
X8020182Y-26543888D01*
X8020182Y-26543888D02*
X8010658Y-26505793D01*
X8010658Y-26505793D02*
X8010658Y-26458174D01*
X8010658Y-26458174D02*
X8020182Y-26420079D01*
X8020182Y-26420079D02*
X8029706Y-26401031D01*
X8029706Y-26401031D02*
X8039229Y-26391508D01*
X8039229Y-26391508D02*
X8058277Y-26381984D01*
X8201134Y-26381984D02*
X8201134Y-26420079D01*
X8277325Y-26381984D02*
X8277325Y-26420079D01*
X8572563Y-26658174D02*
X8563039Y-26648650D01*
X8563039Y-26648650D02*
X8543991Y-26620079D01*
X8543991Y-26620079D02*
X8534468Y-26601031D01*
X8534468Y-26601031D02*
X8524944Y-26572460D01*
X8524944Y-26572460D02*
X8515420Y-26524841D01*
X8515420Y-26524841D02*
X8515420Y-26486746D01*
X8515420Y-26486746D02*
X8524944Y-26439127D01*
X8524944Y-26439127D02*
X8534468Y-26410555D01*
X8534468Y-26410555D02*
X8543991Y-26391508D01*
X8543991Y-26391508D02*
X8563039Y-26362936D01*
X8563039Y-26362936D02*
X8572563Y-26353412D01*
X8734468Y-26448650D02*
X8734468Y-26581984D01*
X8686849Y-26372460D02*
X8639230Y-26515317D01*
X8639230Y-26515317D02*
X8763039Y-26515317D01*
X8991611Y-26581984D02*
X8991611Y-26381984D01*
X9077325Y-26581984D02*
X9077325Y-26477222D01*
X9077325Y-26477222D02*
X9067801Y-26458174D01*
X9067801Y-26458174D02*
X9048753Y-26448650D01*
X9048753Y-26448650D02*
X9020182Y-26448650D01*
X9020182Y-26448650D02*
X9001134Y-26458174D01*
X9001134Y-26458174D02*
X8991611Y-26467698D01*
X9201134Y-26581984D02*
X9182087Y-26572460D01*
X9182087Y-26572460D02*
X9172563Y-26562936D01*
X9172563Y-26562936D02*
X9163039Y-26543888D01*
X9163039Y-26543888D02*
X9163039Y-26486746D01*
X9163039Y-26486746D02*
X9172563Y-26467698D01*
X9172563Y-26467698D02*
X9182087Y-26458174D01*
X9182087Y-26458174D02*
X9201134Y-26448650D01*
X9201134Y-26448650D02*
X9229706Y-26448650D01*
X9229706Y-26448650D02*
X9248753Y-26458174D01*
X9248753Y-26458174D02*
X9258277Y-26467698D01*
X9258277Y-26467698D02*
X9267801Y-26486746D01*
X9267801Y-26486746D02*
X9267801Y-26543888D01*
X9267801Y-26543888D02*
X9258277Y-26562936D01*
X9258277Y-26562936D02*
X9248753Y-26572460D01*
X9248753Y-26572460D02*
X9229706Y-26581984D01*
X9229706Y-26581984D02*
X9201134Y-26581984D01*
X9382087Y-26581984D02*
X9363039Y-26572460D01*
X9363039Y-26572460D02*
X9353515Y-26553412D01*
X9353515Y-26553412D02*
X9353515Y-26381984D01*
X9534468Y-26572460D02*
X9515420Y-26581984D01*
X9515420Y-26581984D02*
X9477325Y-26581984D01*
X9477325Y-26581984D02*
X9458277Y-26572460D01*
X9458277Y-26572460D02*
X9448753Y-26553412D01*
X9448753Y-26553412D02*
X9448753Y-26477222D01*
X9448753Y-26477222D02*
X9458277Y-26458174D01*
X9458277Y-26458174D02*
X9477325Y-26448650D01*
X9477325Y-26448650D02*
X9515420Y-26448650D01*
X9515420Y-26448650D02*
X9534468Y-26458174D01*
X9534468Y-26458174D02*
X9543992Y-26477222D01*
X9543992Y-26477222D02*
X9543992Y-26496269D01*
X9543992Y-26496269D02*
X9448753Y-26515317D01*
X9620182Y-26572460D02*
X9639230Y-26581984D01*
X9639230Y-26581984D02*
X9677325Y-26581984D01*
X9677325Y-26581984D02*
X9696373Y-26572460D01*
X9696373Y-26572460D02*
X9705896Y-26553412D01*
X9705896Y-26553412D02*
X9705896Y-26543888D01*
X9705896Y-26543888D02*
X9696373Y-26524841D01*
X9696373Y-26524841D02*
X9677325Y-26515317D01*
X9677325Y-26515317D02*
X9648753Y-26515317D01*
X9648753Y-26515317D02*
X9629706Y-26505793D01*
X9629706Y-26505793D02*
X9620182Y-26486746D01*
X9620182Y-26486746D02*
X9620182Y-26477222D01*
X9620182Y-26477222D02*
X9629706Y-26458174D01*
X9629706Y-26458174D02*
X9648753Y-26448650D01*
X9648753Y-26448650D02*
X9677325Y-26448650D01*
X9677325Y-26448650D02*
X9696373Y-26458174D01*
X9772563Y-26658174D02*
X9782087Y-26648650D01*
X9782087Y-26648650D02*
X9801134Y-26620079D01*
X9801134Y-26620079D02*
X9810658Y-26601031D01*
X9810658Y-26601031D02*
X9820182Y-26572460D01*
X9820182Y-26572460D02*
X9829706Y-26524841D01*
X9829706Y-26524841D02*
X9829706Y-26486746D01*
X9829706Y-26486746D02*
X9820182Y-26439127D01*
X9820182Y-26439127D02*
X9810658Y-26410555D01*
X9810658Y-26410555D02*
X9801134Y-26391508D01*
X9801134Y-26391508D02*
X9782087Y-26362936D01*
X9782087Y-26362936D02*
X9772563Y-26353412D01*
X4897500Y-26910500D02*
X4997500Y-26810500D01*
X4897500Y-26710500D01*
X4797500Y-26810500D01*
X4897500Y-26910500D01*
X5343991Y-26701984D02*
X5305896Y-26701984D01*
X5305896Y-26701984D02*
X5286848Y-26711508D01*
X5286848Y-26711508D02*
X5277324Y-26721031D01*
X5277324Y-26721031D02*
X5258277Y-26749603D01*
X5258277Y-26749603D02*
X5248753Y-26787698D01*
X5248753Y-26787698D02*
X5248753Y-26863888D01*
X5248753Y-26863888D02*
X5258277Y-26882936D01*
X5258277Y-26882936D02*
X5267801Y-26892460D01*
X5267801Y-26892460D02*
X5286848Y-26901984D01*
X5286848Y-26901984D02*
X5324944Y-26901984D01*
X5324944Y-26901984D02*
X5343991Y-26892460D01*
X5343991Y-26892460D02*
X5353515Y-26882936D01*
X5353515Y-26882936D02*
X5363039Y-26863888D01*
X5363039Y-26863888D02*
X5363039Y-26816269D01*
X5363039Y-26816269D02*
X5353515Y-26797222D01*
X5353515Y-26797222D02*
X5343991Y-26787698D01*
X5343991Y-26787698D02*
X5324944Y-26778174D01*
X5324944Y-26778174D02*
X5286848Y-26778174D01*
X5286848Y-26778174D02*
X5267801Y-26787698D01*
X5267801Y-26787698D02*
X5258277Y-26797222D01*
X5258277Y-26797222D02*
X5248753Y-26816269D01*
X5448753Y-26882936D02*
X5458277Y-26892460D01*
X5458277Y-26892460D02*
X5448753Y-26901984D01*
X5448753Y-26901984D02*
X5439229Y-26892460D01*
X5439229Y-26892460D02*
X5448753Y-26882936D01*
X5448753Y-26882936D02*
X5448753Y-26901984D01*
X5534467Y-26721031D02*
X5543991Y-26711508D01*
X5543991Y-26711508D02*
X5563039Y-26701984D01*
X5563039Y-26701984D02*
X5610658Y-26701984D01*
X5610658Y-26701984D02*
X5629705Y-26711508D01*
X5629705Y-26711508D02*
X5639229Y-26721031D01*
X5639229Y-26721031D02*
X5648753Y-26740079D01*
X5648753Y-26740079D02*
X5648753Y-26759127D01*
X5648753Y-26759127D02*
X5639229Y-26787698D01*
X5639229Y-26787698D02*
X5524944Y-26901984D01*
X5524944Y-26901984D02*
X5648753Y-26901984D01*
X5772562Y-26701984D02*
X5791610Y-26701984D01*
X5791610Y-26701984D02*
X5810658Y-26711508D01*
X5810658Y-26711508D02*
X5820182Y-26721031D01*
X5820182Y-26721031D02*
X5829705Y-26740079D01*
X5829705Y-26740079D02*
X5839229Y-26778174D01*
X5839229Y-26778174D02*
X5839229Y-26825793D01*
X5839229Y-26825793D02*
X5829705Y-26863888D01*
X5829705Y-26863888D02*
X5820182Y-26882936D01*
X5820182Y-26882936D02*
X5810658Y-26892460D01*
X5810658Y-26892460D02*
X5791610Y-26901984D01*
X5791610Y-26901984D02*
X5772562Y-26901984D01*
X5772562Y-26901984D02*
X5753515Y-26892460D01*
X5753515Y-26892460D02*
X5743991Y-26882936D01*
X5743991Y-26882936D02*
X5734467Y-26863888D01*
X5734467Y-26863888D02*
X5724943Y-26825793D01*
X5724943Y-26825793D02*
X5724943Y-26778174D01*
X5724943Y-26778174D02*
X5734467Y-26740079D01*
X5734467Y-26740079D02*
X5743991Y-26721031D01*
X5743991Y-26721031D02*
X5753515Y-26711508D01*
X5753515Y-26711508D02*
X5772562Y-26701984D01*
X5963039Y-26701984D02*
X5982086Y-26701984D01*
X5982086Y-26701984D02*
X6001134Y-26711508D01*
X6001134Y-26711508D02*
X6010658Y-26721031D01*
X6010658Y-26721031D02*
X6020182Y-26740079D01*
X6020182Y-26740079D02*
X6029705Y-26778174D01*
X6029705Y-26778174D02*
X6029705Y-26825793D01*
X6029705Y-26825793D02*
X6020182Y-26863888D01*
X6020182Y-26863888D02*
X6010658Y-26882936D01*
X6010658Y-26882936D02*
X6001134Y-26892460D01*
X6001134Y-26892460D02*
X5982086Y-26901984D01*
X5982086Y-26901984D02*
X5963039Y-26901984D01*
X5963039Y-26901984D02*
X5943991Y-26892460D01*
X5943991Y-26892460D02*
X5934467Y-26882936D01*
X5934467Y-26882936D02*
X5924943Y-26863888D01*
X5924943Y-26863888D02*
X5915420Y-26825793D01*
X5915420Y-26825793D02*
X5915420Y-26778174D01*
X5915420Y-26778174D02*
X5924943Y-26740079D01*
X5924943Y-26740079D02*
X5934467Y-26721031D01*
X5934467Y-26721031D02*
X5943991Y-26711508D01*
X5943991Y-26711508D02*
X5963039Y-26701984D01*
X6115420Y-26901984D02*
X6115420Y-26768650D01*
X6115420Y-26787698D02*
X6124943Y-26778174D01*
X6124943Y-26778174D02*
X6143991Y-26768650D01*
X6143991Y-26768650D02*
X6172563Y-26768650D01*
X6172563Y-26768650D02*
X6191610Y-26778174D01*
X6191610Y-26778174D02*
X6201134Y-26797222D01*
X6201134Y-26797222D02*
X6201134Y-26901984D01*
X6201134Y-26797222D02*
X6210658Y-26778174D01*
X6210658Y-26778174D02*
X6229705Y-26768650D01*
X6229705Y-26768650D02*
X6258277Y-26768650D01*
X6258277Y-26768650D02*
X6277324Y-26778174D01*
X6277324Y-26778174D02*
X6286848Y-26797222D01*
X6286848Y-26797222D02*
X6286848Y-26901984D01*
X6382086Y-26901984D02*
X6382086Y-26768650D01*
X6382086Y-26787698D02*
X6391610Y-26778174D01*
X6391610Y-26778174D02*
X6410658Y-26768650D01*
X6410658Y-26768650D02*
X6439229Y-26768650D01*
X6439229Y-26768650D02*
X6458277Y-26778174D01*
X6458277Y-26778174D02*
X6467801Y-26797222D01*
X6467801Y-26797222D02*
X6467801Y-26901984D01*
X6467801Y-26797222D02*
X6477324Y-26778174D01*
X6477324Y-26778174D02*
X6496372Y-26768650D01*
X6496372Y-26768650D02*
X6524943Y-26768650D01*
X6524943Y-26768650D02*
X6543991Y-26778174D01*
X6543991Y-26778174D02*
X6553515Y-26797222D01*
X6553515Y-26797222D02*
X6553515Y-26901984D01*
X6943991Y-26692460D02*
X6772563Y-26949603D01*
X7201134Y-26701984D02*
X7220182Y-26701984D01*
X7220182Y-26701984D02*
X7239229Y-26711508D01*
X7239229Y-26711508D02*
X7248753Y-26721031D01*
X7248753Y-26721031D02*
X7258277Y-26740079D01*
X7258277Y-26740079D02*
X7267801Y-26778174D01*
X7267801Y-26778174D02*
X7267801Y-26825793D01*
X7267801Y-26825793D02*
X7258277Y-26863888D01*
X7258277Y-26863888D02*
X7248753Y-26882936D01*
X7248753Y-26882936D02*
X7239229Y-26892460D01*
X7239229Y-26892460D02*
X7220182Y-26901984D01*
X7220182Y-26901984D02*
X7201134Y-26901984D01*
X7201134Y-26901984D02*
X7182086Y-26892460D01*
X7182086Y-26892460D02*
X7172563Y-26882936D01*
X7172563Y-26882936D02*
X7163039Y-26863888D01*
X7163039Y-26863888D02*
X7153515Y-26825793D01*
X7153515Y-26825793D02*
X7153515Y-26778174D01*
X7153515Y-26778174D02*
X7163039Y-26740079D01*
X7163039Y-26740079D02*
X7172563Y-26721031D01*
X7172563Y-26721031D02*
X7182086Y-26711508D01*
X7182086Y-26711508D02*
X7201134Y-26701984D01*
X7353515Y-26882936D02*
X7363039Y-26892460D01*
X7363039Y-26892460D02*
X7353515Y-26901984D01*
X7353515Y-26901984D02*
X7343991Y-26892460D01*
X7343991Y-26892460D02*
X7353515Y-26882936D01*
X7353515Y-26882936D02*
X7353515Y-26901984D01*
X7439229Y-26721031D02*
X7448753Y-26711508D01*
X7448753Y-26711508D02*
X7467801Y-26701984D01*
X7467801Y-26701984D02*
X7515420Y-26701984D01*
X7515420Y-26701984D02*
X7534467Y-26711508D01*
X7534467Y-26711508D02*
X7543991Y-26721031D01*
X7543991Y-26721031D02*
X7553515Y-26740079D01*
X7553515Y-26740079D02*
X7553515Y-26759127D01*
X7553515Y-26759127D02*
X7543991Y-26787698D01*
X7543991Y-26787698D02*
X7429706Y-26901984D01*
X7429706Y-26901984D02*
X7553515Y-26901984D01*
X7724944Y-26768650D02*
X7724944Y-26901984D01*
X7677325Y-26692460D02*
X7629706Y-26835317D01*
X7629706Y-26835317D02*
X7753515Y-26835317D01*
X7915420Y-26768650D02*
X7915420Y-26901984D01*
X7867801Y-26692460D02*
X7820182Y-26835317D01*
X7820182Y-26835317D02*
X7943991Y-26835317D01*
X8124944Y-26901984D02*
X8010658Y-26901984D01*
X8067801Y-26901984D02*
X8067801Y-26701984D01*
X8067801Y-26701984D02*
X8048753Y-26730555D01*
X8048753Y-26730555D02*
X8029706Y-26749603D01*
X8029706Y-26749603D02*
X8010658Y-26759127D01*
X8201134Y-26701984D02*
X8201134Y-26740079D01*
X8277325Y-26701984D02*
X8277325Y-26740079D01*
X8572563Y-26978174D02*
X8563039Y-26968650D01*
X8563039Y-26968650D02*
X8543991Y-26940079D01*
X8543991Y-26940079D02*
X8534468Y-26921031D01*
X8534468Y-26921031D02*
X8524944Y-26892460D01*
X8524944Y-26892460D02*
X8515420Y-26844841D01*
X8515420Y-26844841D02*
X8515420Y-26806746D01*
X8515420Y-26806746D02*
X8524944Y-26759127D01*
X8524944Y-26759127D02*
X8534468Y-26730555D01*
X8534468Y-26730555D02*
X8543991Y-26711508D01*
X8543991Y-26711508D02*
X8563039Y-26682936D01*
X8563039Y-26682936D02*
X8572563Y-26673412D01*
X8629706Y-26701984D02*
X8753515Y-26701984D01*
X8753515Y-26701984D02*
X8686849Y-26778174D01*
X8686849Y-26778174D02*
X8715420Y-26778174D01*
X8715420Y-26778174D02*
X8734468Y-26787698D01*
X8734468Y-26787698D02*
X8743991Y-26797222D01*
X8743991Y-26797222D02*
X8753515Y-26816269D01*
X8753515Y-26816269D02*
X8753515Y-26863888D01*
X8753515Y-26863888D02*
X8743991Y-26882936D01*
X8743991Y-26882936D02*
X8734468Y-26892460D01*
X8734468Y-26892460D02*
X8715420Y-26901984D01*
X8715420Y-26901984D02*
X8658277Y-26901984D01*
X8658277Y-26901984D02*
X8639230Y-26892460D01*
X8639230Y-26892460D02*
X8629706Y-26882936D01*
X8991611Y-26901984D02*
X8991611Y-26701984D01*
X9077325Y-26901984D02*
X9077325Y-26797222D01*
X9077325Y-26797222D02*
X9067801Y-26778174D01*
X9067801Y-26778174D02*
X9048753Y-26768650D01*
X9048753Y-26768650D02*
X9020182Y-26768650D01*
X9020182Y-26768650D02*
X9001134Y-26778174D01*
X9001134Y-26778174D02*
X8991611Y-26787698D01*
X9201134Y-26901984D02*
X9182087Y-26892460D01*
X9182087Y-26892460D02*
X9172563Y-26882936D01*
X9172563Y-26882936D02*
X9163039Y-26863888D01*
X9163039Y-26863888D02*
X9163039Y-26806746D01*
X9163039Y-26806746D02*
X9172563Y-26787698D01*
X9172563Y-26787698D02*
X9182087Y-26778174D01*
X9182087Y-26778174D02*
X9201134Y-26768650D01*
X9201134Y-26768650D02*
X9229706Y-26768650D01*
X9229706Y-26768650D02*
X9248753Y-26778174D01*
X9248753Y-26778174D02*
X9258277Y-26787698D01*
X9258277Y-26787698D02*
X9267801Y-26806746D01*
X9267801Y-26806746D02*
X9267801Y-26863888D01*
X9267801Y-26863888D02*
X9258277Y-26882936D01*
X9258277Y-26882936D02*
X9248753Y-26892460D01*
X9248753Y-26892460D02*
X9229706Y-26901984D01*
X9229706Y-26901984D02*
X9201134Y-26901984D01*
X9382087Y-26901984D02*
X9363039Y-26892460D01*
X9363039Y-26892460D02*
X9353515Y-26873412D01*
X9353515Y-26873412D02*
X9353515Y-26701984D01*
X9534468Y-26892460D02*
X9515420Y-26901984D01*
X9515420Y-26901984D02*
X9477325Y-26901984D01*
X9477325Y-26901984D02*
X9458277Y-26892460D01*
X9458277Y-26892460D02*
X9448753Y-26873412D01*
X9448753Y-26873412D02*
X9448753Y-26797222D01*
X9448753Y-26797222D02*
X9458277Y-26778174D01*
X9458277Y-26778174D02*
X9477325Y-26768650D01*
X9477325Y-26768650D02*
X9515420Y-26768650D01*
X9515420Y-26768650D02*
X9534468Y-26778174D01*
X9534468Y-26778174D02*
X9543992Y-26797222D01*
X9543992Y-26797222D02*
X9543992Y-26816269D01*
X9543992Y-26816269D02*
X9448753Y-26835317D01*
X9620182Y-26892460D02*
X9639230Y-26901984D01*
X9639230Y-26901984D02*
X9677325Y-26901984D01*
X9677325Y-26901984D02*
X9696373Y-26892460D01*
X9696373Y-26892460D02*
X9705896Y-26873412D01*
X9705896Y-26873412D02*
X9705896Y-26863888D01*
X9705896Y-26863888D02*
X9696373Y-26844841D01*
X9696373Y-26844841D02*
X9677325Y-26835317D01*
X9677325Y-26835317D02*
X9648753Y-26835317D01*
X9648753Y-26835317D02*
X9629706Y-26825793D01*
X9629706Y-26825793D02*
X9620182Y-26806746D01*
X9620182Y-26806746D02*
X9620182Y-26797222D01*
X9620182Y-26797222D02*
X9629706Y-26778174D01*
X9629706Y-26778174D02*
X9648753Y-26768650D01*
X9648753Y-26768650D02*
X9677325Y-26768650D01*
X9677325Y-26768650D02*
X9696373Y-26778174D01*
X9772563Y-26978174D02*
X9782087Y-26968650D01*
X9782087Y-26968650D02*
X9801134Y-26940079D01*
X9801134Y-26940079D02*
X9810658Y-26921031D01*
X9810658Y-26921031D02*
X9820182Y-26892460D01*
X9820182Y-26892460D02*
X9829706Y-26844841D01*
X9829706Y-26844841D02*
X9829706Y-26806746D01*
X9829706Y-26806746D02*
X9820182Y-26759127D01*
X9820182Y-26759127D02*
X9810658Y-26730555D01*
X9810658Y-26730555D02*
X9801134Y-26711508D01*
X9801134Y-26711508D02*
X9782087Y-26682936D01*
X9782087Y-26682936D02*
X9772563Y-26673412D01*
M02*
