G04 #@! TF.GenerationSoftware,KiCad,Pcbnew,8.0.5*
G04 #@! TF.CreationDate,2024-10-01T23:17:14+02:00*
G04 #@! TF.ProjectId,DMH_VCO_40106_PANEL,444d485f-5643-44f5-9f34-303130365f50,1*
G04 #@! TF.SameCoordinates,Original*
G04 #@! TF.FileFunction,Legend,Bot*
G04 #@! TF.FilePolarity,Positive*
%FSLAX46Y46*%
G04 Gerber Fmt 4.6, Leading zero omitted, Abs format (unit mm)*
G04 Created by KiCad (PCBNEW 8.0.5) date 2024-10-01 23:17:14*
%MOMM*%
%LPD*%
G01*
G04 APERTURE LIST*
%ADD10C,0.100000*%
%ADD11C,0.300000*%
%ADD12C,12.000000*%
%ADD13O,2.500000X1.500000*%
%ADD14C,0.500000*%
%ADD15C,4.000000*%
%ADD16C,3.100000*%
%ADD17C,2.500000*%
%ADD18C,2.900000*%
%ADD19C,13.000000*%
%ADD20R,5.000000X10.000000*%
G04 APERTURE END LIST*
D10*
X95000000Y-245250000D02*
X105000000Y-245250000D01*
X105000000Y-247250000D01*
X95000000Y-247250000D01*
X95000000Y-245250000D01*
G36*
X95000000Y-245250000D02*
G01*
X105000000Y-245250000D01*
X105000000Y-247250000D01*
X95000000Y-247250000D01*
X95000000Y-245250000D01*
G37*
D11*
X112714284Y-243428328D02*
X112714284Y-241928328D01*
X112714284Y-241928328D02*
X112214284Y-242999757D01*
X112214284Y-242999757D02*
X111714284Y-241928328D01*
X111714284Y-241928328D02*
X111714284Y-243428328D01*
X110999998Y-243428328D02*
X110999998Y-241928328D01*
X110857141Y-242856900D02*
X110428569Y-243428328D01*
X110428569Y-242428328D02*
X110999998Y-242999757D01*
X108999997Y-243428328D02*
X109857140Y-243428328D01*
X109428569Y-243428328D02*
X109428569Y-241928328D01*
X109428569Y-241928328D02*
X109571426Y-242142614D01*
X109571426Y-242142614D02*
X109714283Y-242285471D01*
X109714283Y-242285471D02*
X109857140Y-242356900D01*
X108357141Y-243285471D02*
X108285712Y-243356900D01*
X108285712Y-243356900D02*
X108357141Y-243428328D01*
X108357141Y-243428328D02*
X108428569Y-243356900D01*
X108428569Y-243356900D02*
X108357141Y-243285471D01*
X108357141Y-243285471D02*
X108357141Y-243428328D01*
X107714283Y-242071185D02*
X107642855Y-241999757D01*
X107642855Y-241999757D02*
X107499998Y-241928328D01*
X107499998Y-241928328D02*
X107142855Y-241928328D01*
X107142855Y-241928328D02*
X106999998Y-241999757D01*
X106999998Y-241999757D02*
X106928569Y-242071185D01*
X106928569Y-242071185D02*
X106857140Y-242214042D01*
X106857140Y-242214042D02*
X106857140Y-242356900D01*
X106857140Y-242356900D02*
X106928569Y-242571185D01*
X106928569Y-242571185D02*
X107785712Y-243428328D01*
X107785712Y-243428328D02*
X106857140Y-243428328D01*
X105071427Y-242856900D02*
X103928570Y-242856900D01*
X101785712Y-241928328D02*
X101499998Y-241928328D01*
X101499998Y-241928328D02*
X101357141Y-241999757D01*
X101357141Y-241999757D02*
X101214284Y-242142614D01*
X101214284Y-242142614D02*
X101142855Y-242428328D01*
X101142855Y-242428328D02*
X101142855Y-242928328D01*
X101142855Y-242928328D02*
X101214284Y-243214042D01*
X101214284Y-243214042D02*
X101357141Y-243356900D01*
X101357141Y-243356900D02*
X101499998Y-243428328D01*
X101499998Y-243428328D02*
X101785712Y-243428328D01*
X101785712Y-243428328D02*
X101928570Y-243356900D01*
X101928570Y-243356900D02*
X102071427Y-243214042D01*
X102071427Y-243214042D02*
X102142855Y-242928328D01*
X102142855Y-242928328D02*
X102142855Y-242428328D01*
X102142855Y-242428328D02*
X102071427Y-242142614D01*
X102071427Y-242142614D02*
X101928570Y-241999757D01*
X101928570Y-241999757D02*
X101785712Y-241928328D01*
X99857141Y-243356900D02*
X99999998Y-243428328D01*
X99999998Y-243428328D02*
X100285712Y-243428328D01*
X100285712Y-243428328D02*
X100428569Y-243356900D01*
X100428569Y-243356900D02*
X100499998Y-243285471D01*
X100499998Y-243285471D02*
X100571426Y-243142614D01*
X100571426Y-243142614D02*
X100571426Y-242714042D01*
X100571426Y-242714042D02*
X100499998Y-242571185D01*
X100499998Y-242571185D02*
X100428569Y-242499757D01*
X100428569Y-242499757D02*
X100285712Y-242428328D01*
X100285712Y-242428328D02*
X99999998Y-242428328D01*
X99999998Y-242428328D02*
X99857141Y-242499757D01*
X99428569Y-242428328D02*
X98857141Y-242428328D01*
X99214284Y-241928328D02*
X99214284Y-243214042D01*
X99214284Y-243214042D02*
X99142855Y-243356900D01*
X99142855Y-243356900D02*
X98999998Y-243428328D01*
X98999998Y-243428328D02*
X98857141Y-243428328D01*
X98142855Y-243428328D02*
X98285712Y-243356900D01*
X98285712Y-243356900D02*
X98357141Y-243285471D01*
X98357141Y-243285471D02*
X98428569Y-243142614D01*
X98428569Y-243142614D02*
X98428569Y-242714042D01*
X98428569Y-242714042D02*
X98357141Y-242571185D01*
X98357141Y-242571185D02*
X98285712Y-242499757D01*
X98285712Y-242499757D02*
X98142855Y-242428328D01*
X98142855Y-242428328D02*
X97928569Y-242428328D01*
X97928569Y-242428328D02*
X97785712Y-242499757D01*
X97785712Y-242499757D02*
X97714284Y-242571185D01*
X97714284Y-242571185D02*
X97642855Y-242714042D01*
X97642855Y-242714042D02*
X97642855Y-243142614D01*
X97642855Y-243142614D02*
X97714284Y-243285471D01*
X97714284Y-243285471D02*
X97785712Y-243356900D01*
X97785712Y-243356900D02*
X97928569Y-243428328D01*
X97928569Y-243428328D02*
X98142855Y-243428328D01*
X96999998Y-243428328D02*
X96999998Y-241928328D01*
X96999998Y-242499757D02*
X96857141Y-242428328D01*
X96857141Y-242428328D02*
X96571426Y-242428328D01*
X96571426Y-242428328D02*
X96428569Y-242499757D01*
X96428569Y-242499757D02*
X96357141Y-242571185D01*
X96357141Y-242571185D02*
X96285712Y-242714042D01*
X96285712Y-242714042D02*
X96285712Y-243142614D01*
X96285712Y-243142614D02*
X96357141Y-243285471D01*
X96357141Y-243285471D02*
X96428569Y-243356900D01*
X96428569Y-243356900D02*
X96571426Y-243428328D01*
X96571426Y-243428328D02*
X96857141Y-243428328D01*
X96857141Y-243428328D02*
X96999998Y-243356900D01*
X95071426Y-243356900D02*
X95214283Y-243428328D01*
X95214283Y-243428328D02*
X95499998Y-243428328D01*
X95499998Y-243428328D02*
X95642855Y-243356900D01*
X95642855Y-243356900D02*
X95714283Y-243214042D01*
X95714283Y-243214042D02*
X95714283Y-242642614D01*
X95714283Y-242642614D02*
X95642855Y-242499757D01*
X95642855Y-242499757D02*
X95499998Y-242428328D01*
X95499998Y-242428328D02*
X95214283Y-242428328D01*
X95214283Y-242428328D02*
X95071426Y-242499757D01*
X95071426Y-242499757D02*
X94999998Y-242642614D01*
X94999998Y-242642614D02*
X94999998Y-242785471D01*
X94999998Y-242785471D02*
X95714283Y-242928328D01*
X94357141Y-243428328D02*
X94357141Y-242428328D01*
X94357141Y-242714042D02*
X94285712Y-242571185D01*
X94285712Y-242571185D02*
X94214284Y-242499757D01*
X94214284Y-242499757D02*
X94071426Y-242428328D01*
X94071426Y-242428328D02*
X93928569Y-242428328D01*
X92357141Y-242071185D02*
X92285713Y-241999757D01*
X92285713Y-241999757D02*
X92142856Y-241928328D01*
X92142856Y-241928328D02*
X91785713Y-241928328D01*
X91785713Y-241928328D02*
X91642856Y-241999757D01*
X91642856Y-241999757D02*
X91571427Y-242071185D01*
X91571427Y-242071185D02*
X91499998Y-242214042D01*
X91499998Y-242214042D02*
X91499998Y-242356900D01*
X91499998Y-242356900D02*
X91571427Y-242571185D01*
X91571427Y-242571185D02*
X92428570Y-243428328D01*
X92428570Y-243428328D02*
X91499998Y-243428328D01*
X90571427Y-241928328D02*
X90428570Y-241928328D01*
X90428570Y-241928328D02*
X90285713Y-241999757D01*
X90285713Y-241999757D02*
X90214285Y-242071185D01*
X90214285Y-242071185D02*
X90142856Y-242214042D01*
X90142856Y-242214042D02*
X90071427Y-242499757D01*
X90071427Y-242499757D02*
X90071427Y-242856900D01*
X90071427Y-242856900D02*
X90142856Y-243142614D01*
X90142856Y-243142614D02*
X90214285Y-243285471D01*
X90214285Y-243285471D02*
X90285713Y-243356900D01*
X90285713Y-243356900D02*
X90428570Y-243428328D01*
X90428570Y-243428328D02*
X90571427Y-243428328D01*
X90571427Y-243428328D02*
X90714285Y-243356900D01*
X90714285Y-243356900D02*
X90785713Y-243285471D01*
X90785713Y-243285471D02*
X90857142Y-243142614D01*
X90857142Y-243142614D02*
X90928570Y-242856900D01*
X90928570Y-242856900D02*
X90928570Y-242499757D01*
X90928570Y-242499757D02*
X90857142Y-242214042D01*
X90857142Y-242214042D02*
X90785713Y-242071185D01*
X90785713Y-242071185D02*
X90714285Y-241999757D01*
X90714285Y-241999757D02*
X90571427Y-241928328D01*
X89499999Y-242071185D02*
X89428571Y-241999757D01*
X89428571Y-241999757D02*
X89285714Y-241928328D01*
X89285714Y-241928328D02*
X88928571Y-241928328D01*
X88928571Y-241928328D02*
X88785714Y-241999757D01*
X88785714Y-241999757D02*
X88714285Y-242071185D01*
X88714285Y-242071185D02*
X88642856Y-242214042D01*
X88642856Y-242214042D02*
X88642856Y-242356900D01*
X88642856Y-242356900D02*
X88714285Y-242571185D01*
X88714285Y-242571185D02*
X89571428Y-243428328D01*
X89571428Y-243428328D02*
X88642856Y-243428328D01*
X87357143Y-242428328D02*
X87357143Y-243428328D01*
X87714285Y-241856900D02*
X88071428Y-242928328D01*
X88071428Y-242928328D02*
X87142857Y-242928328D01*
X57892856Y-130599757D02*
X58035714Y-130528328D01*
X58035714Y-130528328D02*
X58249999Y-130528328D01*
X58249999Y-130528328D02*
X58464285Y-130599757D01*
X58464285Y-130599757D02*
X58607142Y-130742614D01*
X58607142Y-130742614D02*
X58678571Y-130885471D01*
X58678571Y-130885471D02*
X58749999Y-131171185D01*
X58749999Y-131171185D02*
X58749999Y-131385471D01*
X58749999Y-131385471D02*
X58678571Y-131671185D01*
X58678571Y-131671185D02*
X58607142Y-131814042D01*
X58607142Y-131814042D02*
X58464285Y-131956900D01*
X58464285Y-131956900D02*
X58249999Y-132028328D01*
X58249999Y-132028328D02*
X58107142Y-132028328D01*
X58107142Y-132028328D02*
X57892856Y-131956900D01*
X57892856Y-131956900D02*
X57821428Y-131885471D01*
X57821428Y-131885471D02*
X57821428Y-131385471D01*
X57821428Y-131385471D02*
X58107142Y-131385471D01*
X57178571Y-132028328D02*
X57178571Y-130528328D01*
X57178571Y-130528328D02*
X56321428Y-132028328D01*
X56321428Y-132028328D02*
X56321428Y-130528328D01*
X55607142Y-132028328D02*
X55607142Y-130528328D01*
X55607142Y-130528328D02*
X55249999Y-130528328D01*
X55249999Y-130528328D02*
X55035713Y-130599757D01*
X55035713Y-130599757D02*
X54892856Y-130742614D01*
X54892856Y-130742614D02*
X54821427Y-130885471D01*
X54821427Y-130885471D02*
X54749999Y-131171185D01*
X54749999Y-131171185D02*
X54749999Y-131385471D01*
X54749999Y-131385471D02*
X54821427Y-131671185D01*
X54821427Y-131671185D02*
X54892856Y-131814042D01*
X54892856Y-131814042D02*
X55035713Y-131956900D01*
X55035713Y-131956900D02*
X55249999Y-132028328D01*
X55249999Y-132028328D02*
X55607142Y-132028328D01*
%LPC*%
D12*
X87500000Y-183750000D03*
D13*
X87500000Y-189750000D03*
D12*
X81000000Y-92000000D03*
D13*
X81000000Y-98000000D03*
D14*
X106800000Y-228750000D03*
X108460000Y-224720000D03*
X108470000Y-232790000D03*
X112500000Y-223050000D03*
D12*
X112500000Y-228750000D03*
D14*
X112500000Y-234450000D03*
X116530000Y-232790000D03*
X116540000Y-224720000D03*
X118200000Y-228750000D03*
D15*
X54000000Y-246000000D03*
X146000000Y-54000000D03*
D16*
X124500000Y-111620000D03*
D17*
X141500000Y-119750000D03*
X117500000Y-119750000D03*
X133500000Y-119750000D03*
D14*
X56800000Y-228750000D03*
X58460000Y-224720000D03*
X58470000Y-232790000D03*
X62500000Y-223050000D03*
D12*
X62500000Y-228750000D03*
D14*
X62500000Y-234450000D03*
X66530000Y-232790000D03*
X66540000Y-224720000D03*
X68200000Y-228750000D03*
X131800000Y-206250000D03*
X133460000Y-202220000D03*
X133470000Y-210290000D03*
X137500000Y-200550000D03*
D12*
X137500000Y-206250000D03*
D14*
X137500000Y-211950000D03*
X141530000Y-210290000D03*
X141540000Y-202220000D03*
X143200000Y-206250000D03*
D16*
X139500000Y-91500000D03*
X139500000Y-111620000D03*
D12*
X131500000Y-146000000D03*
D13*
X131500000Y-152000000D03*
D15*
X54000000Y-54000000D03*
D16*
X134500000Y-111620000D03*
X129500000Y-111620000D03*
D12*
X137500000Y-183750000D03*
D13*
X137500000Y-189750000D03*
D18*
X139500000Y-65600000D03*
D19*
X139500000Y-72000000D03*
D15*
X146000000Y-246000000D03*
D18*
X62500000Y-139600000D03*
D19*
X62500000Y-146000000D03*
D14*
X81800000Y-206250000D03*
X83460000Y-202220000D03*
X83470000Y-210290000D03*
X87500000Y-200550000D03*
D12*
X87500000Y-206250000D03*
D14*
X87500000Y-211950000D03*
X91530000Y-210290000D03*
X91540000Y-202220000D03*
X93200000Y-206250000D03*
D17*
X125500000Y-119750000D03*
D12*
X93500000Y-146000000D03*
D13*
X93500000Y-152000000D03*
D16*
X119500000Y-111620000D03*
D14*
X56800000Y-206250000D03*
X58460000Y-202220000D03*
X58470000Y-210290000D03*
X62500000Y-200550000D03*
D12*
X62500000Y-206250000D03*
D14*
X62500000Y-211950000D03*
X66530000Y-210290000D03*
X66540000Y-202220000D03*
X68200000Y-206250000D03*
X106800000Y-206250000D03*
X108460000Y-202220000D03*
X108470000Y-210290000D03*
X112500000Y-200550000D03*
D12*
X112500000Y-206250000D03*
D14*
X112500000Y-211950000D03*
X116530000Y-210290000D03*
X116540000Y-202220000D03*
X118200000Y-206250000D03*
X131800000Y-228750000D03*
X133460000Y-224720000D03*
X133470000Y-232790000D03*
X137500000Y-223050000D03*
D12*
X137500000Y-228750000D03*
D14*
X137500000Y-234450000D03*
X141530000Y-232790000D03*
X141540000Y-224720000D03*
X143200000Y-228750000D03*
X81800000Y-228750000D03*
X83460000Y-224720000D03*
X83470000Y-232790000D03*
X87500000Y-223050000D03*
D12*
X87500000Y-228750000D03*
D14*
X87500000Y-234450000D03*
X91530000Y-232790000D03*
X91540000Y-224720000D03*
X93200000Y-228750000D03*
D18*
X119500000Y-65600000D03*
D19*
X119500000Y-72000000D03*
D12*
X112500000Y-183750000D03*
D13*
X112500000Y-189750000D03*
D14*
X56800000Y-183750000D03*
X58460000Y-179720000D03*
X58470000Y-187790000D03*
X62500000Y-178050000D03*
D12*
X62500000Y-183750000D03*
D14*
X62500000Y-189450000D03*
X66530000Y-187790000D03*
X66540000Y-179720000D03*
X68200000Y-183750000D03*
D20*
X56750000Y-125000000D03*
%LPD*%
M02*
