G04 #@! TF.GenerationSoftware,KiCad,Pcbnew,8.0.3*
G04 #@! TF.CreationDate,2024-06-29T18:44:13+02:00*
G04 #@! TF.ProjectId,DMH_VCO_40106_PANEL,444d485f-5643-44f5-9f34-303130365f50,1*
G04 #@! TF.SameCoordinates,Original*
G04 #@! TF.FileFunction,Soldermask,Top*
G04 #@! TF.FilePolarity,Negative*
%FSLAX46Y46*%
G04 Gerber Fmt 4.6, Leading zero omitted, Abs format (unit mm)*
G04 Created by KiCad (PCBNEW 8.0.3) date 2024-06-29 18:44:13*
%MOMM*%
%LPD*%
G01*
G04 APERTURE LIST*
%ADD10C,2.600000*%
%ADD11C,13.000000*%
%ADD12C,0.500000*%
%ADD13C,12.000000*%
%ADD14C,4.000000*%
%ADD15C,3.100000*%
%ADD16C,2.200000*%
G04 APERTURE END LIST*
D10*
X139500000Y-65600000D03*
D11*
X139500000Y-72000000D03*
D10*
X62500000Y-139600000D03*
D11*
X62500000Y-146000000D03*
D10*
X119500000Y-65600000D03*
D11*
X119500000Y-72000000D03*
X87500000Y-183750000D03*
X81000000Y-92000000D03*
D12*
X106800000Y-228750000D03*
X108460000Y-224720000D03*
X108470000Y-232790000D03*
X112500000Y-223050000D03*
D13*
X112500000Y-228750000D03*
D12*
X112500000Y-234450000D03*
X116530000Y-232790000D03*
X116540000Y-224720000D03*
X118200000Y-228750000D03*
D14*
X54000000Y-246000000D03*
X146000000Y-54000000D03*
D15*
X124500000Y-111620000D03*
D16*
X141500000Y-119750000D03*
X117500000Y-119750000D03*
X133500000Y-119750000D03*
D12*
X56800000Y-228750000D03*
X58460000Y-224720000D03*
X58470000Y-232790000D03*
X62500000Y-223050000D03*
D13*
X62500000Y-228750000D03*
D12*
X62500000Y-234450000D03*
X66530000Y-232790000D03*
X66540000Y-224720000D03*
X68200000Y-228750000D03*
X131800000Y-206250000D03*
X133460000Y-202220000D03*
X133470000Y-210290000D03*
X137500000Y-200550000D03*
D13*
X137500000Y-206250000D03*
D12*
X137500000Y-211950000D03*
X141530000Y-210290000D03*
X141540000Y-202220000D03*
X143200000Y-206250000D03*
D15*
X139500000Y-91500000D03*
X139500000Y-111620000D03*
D11*
X131500000Y-146000000D03*
D14*
X54000000Y-54000000D03*
D15*
X134500000Y-111620000D03*
X129500000Y-111620000D03*
D11*
X137500000Y-183750000D03*
D14*
X146000000Y-246000000D03*
D15*
X119500000Y-91500000D03*
D12*
X81800000Y-206250000D03*
X83460000Y-202220000D03*
X83470000Y-210290000D03*
X87500000Y-200550000D03*
D13*
X87500000Y-206250000D03*
D12*
X87500000Y-211950000D03*
X91530000Y-210290000D03*
X91540000Y-202220000D03*
X93200000Y-206250000D03*
D16*
X125500000Y-119750000D03*
D11*
X93500000Y-146000000D03*
D15*
X119500000Y-111620000D03*
D12*
X56840000Y-206250000D03*
X58500000Y-202220000D03*
X58510000Y-210290000D03*
X62540000Y-200550000D03*
D13*
X62540000Y-206250000D03*
D12*
X62540000Y-211950000D03*
X66570000Y-210290000D03*
X66580000Y-202220000D03*
X68240000Y-206250000D03*
X106800000Y-206250000D03*
X108460000Y-202220000D03*
X108470000Y-210290000D03*
X112500000Y-200550000D03*
D13*
X112500000Y-206250000D03*
D12*
X112500000Y-211950000D03*
X116530000Y-210290000D03*
X116540000Y-202220000D03*
X118200000Y-206250000D03*
X131800000Y-228750000D03*
X133460000Y-224720000D03*
X133470000Y-232790000D03*
X137500000Y-223050000D03*
D13*
X137500000Y-228750000D03*
D12*
X137500000Y-234450000D03*
X141530000Y-232790000D03*
X141540000Y-224720000D03*
X143200000Y-228750000D03*
X81800000Y-228750000D03*
X83460000Y-224720000D03*
X83470000Y-232790000D03*
X87500000Y-223050000D03*
D13*
X87500000Y-228750000D03*
D12*
X87500000Y-234450000D03*
X91530000Y-232790000D03*
X91540000Y-224720000D03*
X93200000Y-228750000D03*
D11*
X112500000Y-183750000D03*
D12*
X56800000Y-183750000D03*
X58460000Y-179720000D03*
X58470000Y-187790000D03*
X62500000Y-178050000D03*
D13*
X62500000Y-183750000D03*
D12*
X62500000Y-189450000D03*
X66530000Y-187790000D03*
X66540000Y-179720000D03*
X68200000Y-183750000D03*
M02*
