G04 #@! TF.GenerationSoftware,KiCad,Pcbnew,8.0.3*
G04 #@! TF.CreationDate,2024-09-16T16:37:34+02:00*
G04 #@! TF.ProjectId,DMH_VCO_40106_PANEL,444d485f-5643-44f5-9f34-303130365f50,1*
G04 #@! TF.SameCoordinates,Original*
G04 #@! TF.FileFunction,Legend,Bot*
G04 #@! TF.FilePolarity,Positive*
%FSLAX46Y46*%
G04 Gerber Fmt 4.6, Leading zero omitted, Abs format (unit mm)*
G04 Created by KiCad (PCBNEW 8.0.3) date 2024-09-16 16:37:34*
%MOMM*%
%LPD*%
G01*
G04 APERTURE LIST*
%ADD10C,0.300000*%
%ADD11C,0.500000*%
%ADD12C,12.000000*%
%ADD13O,2.500000X1.500000*%
%ADD14C,4.000000*%
%ADD15C,3.100000*%
%ADD16C,2.500000*%
%ADD17C,2.900000*%
%ADD18C,13.000000*%
%ADD19R,5.000000X10.000000*%
G04 APERTURE END LIST*
D10*
X114285712Y-243428328D02*
X114285712Y-241928328D01*
X114285712Y-241928328D02*
X113785712Y-242999757D01*
X113785712Y-242999757D02*
X113285712Y-241928328D01*
X113285712Y-241928328D02*
X113285712Y-243428328D01*
X112571426Y-243428328D02*
X112571426Y-241928328D01*
X112428569Y-242856900D02*
X111999997Y-243428328D01*
X111999997Y-242428328D02*
X112571426Y-242999757D01*
X110571425Y-243428328D02*
X111428568Y-243428328D01*
X110999997Y-243428328D02*
X110999997Y-241928328D01*
X110999997Y-241928328D02*
X111142854Y-242142614D01*
X111142854Y-242142614D02*
X111285711Y-242285471D01*
X111285711Y-242285471D02*
X111428568Y-242356900D01*
X109928569Y-243285471D02*
X109857140Y-243356900D01*
X109857140Y-243356900D02*
X109928569Y-243428328D01*
X109928569Y-243428328D02*
X109999997Y-243356900D01*
X109999997Y-243356900D02*
X109928569Y-243285471D01*
X109928569Y-243285471D02*
X109928569Y-243428328D01*
X108428568Y-243428328D02*
X109285711Y-243428328D01*
X108857140Y-243428328D02*
X108857140Y-241928328D01*
X108857140Y-241928328D02*
X108999997Y-242142614D01*
X108999997Y-242142614D02*
X109142854Y-242285471D01*
X109142854Y-242285471D02*
X109285711Y-242356900D01*
X106642855Y-242856900D02*
X105499998Y-242856900D01*
X103714283Y-243356900D02*
X103499998Y-243428328D01*
X103499998Y-243428328D02*
X103142855Y-243428328D01*
X103142855Y-243428328D02*
X102999998Y-243356900D01*
X102999998Y-243356900D02*
X102928569Y-243285471D01*
X102928569Y-243285471D02*
X102857140Y-243142614D01*
X102857140Y-243142614D02*
X102857140Y-242999757D01*
X102857140Y-242999757D02*
X102928569Y-242856900D01*
X102928569Y-242856900D02*
X102999998Y-242785471D01*
X102999998Y-242785471D02*
X103142855Y-242714042D01*
X103142855Y-242714042D02*
X103428569Y-242642614D01*
X103428569Y-242642614D02*
X103571426Y-242571185D01*
X103571426Y-242571185D02*
X103642855Y-242499757D01*
X103642855Y-242499757D02*
X103714283Y-242356900D01*
X103714283Y-242356900D02*
X103714283Y-242214042D01*
X103714283Y-242214042D02*
X103642855Y-242071185D01*
X103642855Y-242071185D02*
X103571426Y-241999757D01*
X103571426Y-241999757D02*
X103428569Y-241928328D01*
X103428569Y-241928328D02*
X103071426Y-241928328D01*
X103071426Y-241928328D02*
X102857140Y-241999757D01*
X101642855Y-243356900D02*
X101785712Y-243428328D01*
X101785712Y-243428328D02*
X102071427Y-243428328D01*
X102071427Y-243428328D02*
X102214284Y-243356900D01*
X102214284Y-243356900D02*
X102285712Y-243214042D01*
X102285712Y-243214042D02*
X102285712Y-242642614D01*
X102285712Y-242642614D02*
X102214284Y-242499757D01*
X102214284Y-242499757D02*
X102071427Y-242428328D01*
X102071427Y-242428328D02*
X101785712Y-242428328D01*
X101785712Y-242428328D02*
X101642855Y-242499757D01*
X101642855Y-242499757D02*
X101571427Y-242642614D01*
X101571427Y-242642614D02*
X101571427Y-242785471D01*
X101571427Y-242785471D02*
X102285712Y-242928328D01*
X100928570Y-242428328D02*
X100928570Y-243928328D01*
X100928570Y-242499757D02*
X100785713Y-242428328D01*
X100785713Y-242428328D02*
X100499998Y-242428328D01*
X100499998Y-242428328D02*
X100357141Y-242499757D01*
X100357141Y-242499757D02*
X100285713Y-242571185D01*
X100285713Y-242571185D02*
X100214284Y-242714042D01*
X100214284Y-242714042D02*
X100214284Y-243142614D01*
X100214284Y-243142614D02*
X100285713Y-243285471D01*
X100285713Y-243285471D02*
X100357141Y-243356900D01*
X100357141Y-243356900D02*
X100499998Y-243428328D01*
X100499998Y-243428328D02*
X100785713Y-243428328D01*
X100785713Y-243428328D02*
X100928570Y-243356900D01*
X99785712Y-242428328D02*
X99214284Y-242428328D01*
X99571427Y-241928328D02*
X99571427Y-243214042D01*
X99571427Y-243214042D02*
X99499998Y-243356900D01*
X99499998Y-243356900D02*
X99357141Y-243428328D01*
X99357141Y-243428328D02*
X99214284Y-243428328D01*
X98142855Y-243356900D02*
X98285712Y-243428328D01*
X98285712Y-243428328D02*
X98571427Y-243428328D01*
X98571427Y-243428328D02*
X98714284Y-243356900D01*
X98714284Y-243356900D02*
X98785712Y-243214042D01*
X98785712Y-243214042D02*
X98785712Y-242642614D01*
X98785712Y-242642614D02*
X98714284Y-242499757D01*
X98714284Y-242499757D02*
X98571427Y-242428328D01*
X98571427Y-242428328D02*
X98285712Y-242428328D01*
X98285712Y-242428328D02*
X98142855Y-242499757D01*
X98142855Y-242499757D02*
X98071427Y-242642614D01*
X98071427Y-242642614D02*
X98071427Y-242785471D01*
X98071427Y-242785471D02*
X98785712Y-242928328D01*
X97428570Y-243428328D02*
X97428570Y-242428328D01*
X97428570Y-242571185D02*
X97357141Y-242499757D01*
X97357141Y-242499757D02*
X97214284Y-242428328D01*
X97214284Y-242428328D02*
X96999998Y-242428328D01*
X96999998Y-242428328D02*
X96857141Y-242499757D01*
X96857141Y-242499757D02*
X96785713Y-242642614D01*
X96785713Y-242642614D02*
X96785713Y-243428328D01*
X96785713Y-242642614D02*
X96714284Y-242499757D01*
X96714284Y-242499757D02*
X96571427Y-242428328D01*
X96571427Y-242428328D02*
X96357141Y-242428328D01*
X96357141Y-242428328D02*
X96214284Y-242499757D01*
X96214284Y-242499757D02*
X96142855Y-242642614D01*
X96142855Y-242642614D02*
X96142855Y-243428328D01*
X95428570Y-243428328D02*
X95428570Y-241928328D01*
X95428570Y-242499757D02*
X95285713Y-242428328D01*
X95285713Y-242428328D02*
X94999998Y-242428328D01*
X94999998Y-242428328D02*
X94857141Y-242499757D01*
X94857141Y-242499757D02*
X94785713Y-242571185D01*
X94785713Y-242571185D02*
X94714284Y-242714042D01*
X94714284Y-242714042D02*
X94714284Y-243142614D01*
X94714284Y-243142614D02*
X94785713Y-243285471D01*
X94785713Y-243285471D02*
X94857141Y-243356900D01*
X94857141Y-243356900D02*
X94999998Y-243428328D01*
X94999998Y-243428328D02*
X95285713Y-243428328D01*
X95285713Y-243428328D02*
X95428570Y-243356900D01*
X93499998Y-243356900D02*
X93642855Y-243428328D01*
X93642855Y-243428328D02*
X93928570Y-243428328D01*
X93928570Y-243428328D02*
X94071427Y-243356900D01*
X94071427Y-243356900D02*
X94142855Y-243214042D01*
X94142855Y-243214042D02*
X94142855Y-242642614D01*
X94142855Y-242642614D02*
X94071427Y-242499757D01*
X94071427Y-242499757D02*
X93928570Y-242428328D01*
X93928570Y-242428328D02*
X93642855Y-242428328D01*
X93642855Y-242428328D02*
X93499998Y-242499757D01*
X93499998Y-242499757D02*
X93428570Y-242642614D01*
X93428570Y-242642614D02*
X93428570Y-242785471D01*
X93428570Y-242785471D02*
X94142855Y-242928328D01*
X92785713Y-243428328D02*
X92785713Y-242428328D01*
X92785713Y-242714042D02*
X92714284Y-242571185D01*
X92714284Y-242571185D02*
X92642856Y-242499757D01*
X92642856Y-242499757D02*
X92499998Y-242428328D01*
X92499998Y-242428328D02*
X92357141Y-242428328D01*
X90785713Y-242071185D02*
X90714285Y-241999757D01*
X90714285Y-241999757D02*
X90571428Y-241928328D01*
X90571428Y-241928328D02*
X90214285Y-241928328D01*
X90214285Y-241928328D02*
X90071428Y-241999757D01*
X90071428Y-241999757D02*
X89999999Y-242071185D01*
X89999999Y-242071185D02*
X89928570Y-242214042D01*
X89928570Y-242214042D02*
X89928570Y-242356900D01*
X89928570Y-242356900D02*
X89999999Y-242571185D01*
X89999999Y-242571185D02*
X90857142Y-243428328D01*
X90857142Y-243428328D02*
X89928570Y-243428328D01*
X88999999Y-241928328D02*
X88857142Y-241928328D01*
X88857142Y-241928328D02*
X88714285Y-241999757D01*
X88714285Y-241999757D02*
X88642857Y-242071185D01*
X88642857Y-242071185D02*
X88571428Y-242214042D01*
X88571428Y-242214042D02*
X88499999Y-242499757D01*
X88499999Y-242499757D02*
X88499999Y-242856900D01*
X88499999Y-242856900D02*
X88571428Y-243142614D01*
X88571428Y-243142614D02*
X88642857Y-243285471D01*
X88642857Y-243285471D02*
X88714285Y-243356900D01*
X88714285Y-243356900D02*
X88857142Y-243428328D01*
X88857142Y-243428328D02*
X88999999Y-243428328D01*
X88999999Y-243428328D02*
X89142857Y-243356900D01*
X89142857Y-243356900D02*
X89214285Y-243285471D01*
X89214285Y-243285471D02*
X89285714Y-243142614D01*
X89285714Y-243142614D02*
X89357142Y-242856900D01*
X89357142Y-242856900D02*
X89357142Y-242499757D01*
X89357142Y-242499757D02*
X89285714Y-242214042D01*
X89285714Y-242214042D02*
X89214285Y-242071185D01*
X89214285Y-242071185D02*
X89142857Y-241999757D01*
X89142857Y-241999757D02*
X88999999Y-241928328D01*
X87928571Y-242071185D02*
X87857143Y-241999757D01*
X87857143Y-241999757D02*
X87714286Y-241928328D01*
X87714286Y-241928328D02*
X87357143Y-241928328D01*
X87357143Y-241928328D02*
X87214286Y-241999757D01*
X87214286Y-241999757D02*
X87142857Y-242071185D01*
X87142857Y-242071185D02*
X87071428Y-242214042D01*
X87071428Y-242214042D02*
X87071428Y-242356900D01*
X87071428Y-242356900D02*
X87142857Y-242571185D01*
X87142857Y-242571185D02*
X88000000Y-243428328D01*
X88000000Y-243428328D02*
X87071428Y-243428328D01*
X85785715Y-242428328D02*
X85785715Y-243428328D01*
X86142857Y-241856900D02*
X86500000Y-242928328D01*
X86500000Y-242928328D02*
X85571429Y-242928328D01*
X106928571Y-245178328D02*
X106928571Y-246249757D01*
X106928571Y-246249757D02*
X107000000Y-246464042D01*
X107000000Y-246464042D02*
X107142857Y-246606900D01*
X107142857Y-246606900D02*
X107357143Y-246678328D01*
X107357143Y-246678328D02*
X107500000Y-246678328D01*
X105500000Y-246678328D02*
X106214286Y-246678328D01*
X106214286Y-246678328D02*
X106214286Y-245178328D01*
X104142857Y-246535471D02*
X104214285Y-246606900D01*
X104214285Y-246606900D02*
X104428571Y-246678328D01*
X104428571Y-246678328D02*
X104571428Y-246678328D01*
X104571428Y-246678328D02*
X104785714Y-246606900D01*
X104785714Y-246606900D02*
X104928571Y-246464042D01*
X104928571Y-246464042D02*
X105000000Y-246321185D01*
X105000000Y-246321185D02*
X105071428Y-246035471D01*
X105071428Y-246035471D02*
X105071428Y-245821185D01*
X105071428Y-245821185D02*
X105000000Y-245535471D01*
X105000000Y-245535471D02*
X104928571Y-245392614D01*
X104928571Y-245392614D02*
X104785714Y-245249757D01*
X104785714Y-245249757D02*
X104571428Y-245178328D01*
X104571428Y-245178328D02*
X104428571Y-245178328D01*
X104428571Y-245178328D02*
X104214285Y-245249757D01*
X104214285Y-245249757D02*
X104142857Y-245321185D01*
X103071428Y-245178328D02*
X103071428Y-246249757D01*
X103071428Y-246249757D02*
X103142857Y-246464042D01*
X103142857Y-246464042D02*
X103285714Y-246606900D01*
X103285714Y-246606900D02*
X103500000Y-246678328D01*
X103500000Y-246678328D02*
X103642857Y-246678328D01*
X101642857Y-246678328D02*
X102357143Y-246678328D01*
X102357143Y-246678328D02*
X102357143Y-245178328D01*
X100285714Y-246535471D02*
X100357142Y-246606900D01*
X100357142Y-246606900D02*
X100571428Y-246678328D01*
X100571428Y-246678328D02*
X100714285Y-246678328D01*
X100714285Y-246678328D02*
X100928571Y-246606900D01*
X100928571Y-246606900D02*
X101071428Y-246464042D01*
X101071428Y-246464042D02*
X101142857Y-246321185D01*
X101142857Y-246321185D02*
X101214285Y-246035471D01*
X101214285Y-246035471D02*
X101214285Y-245821185D01*
X101214285Y-245821185D02*
X101142857Y-245535471D01*
X101142857Y-245535471D02*
X101071428Y-245392614D01*
X101071428Y-245392614D02*
X100928571Y-245249757D01*
X100928571Y-245249757D02*
X100714285Y-245178328D01*
X100714285Y-245178328D02*
X100571428Y-245178328D01*
X100571428Y-245178328D02*
X100357142Y-245249757D01*
X100357142Y-245249757D02*
X100285714Y-245321185D01*
X99214285Y-245178328D02*
X99214285Y-246249757D01*
X99214285Y-246249757D02*
X99285714Y-246464042D01*
X99285714Y-246464042D02*
X99428571Y-246606900D01*
X99428571Y-246606900D02*
X99642857Y-246678328D01*
X99642857Y-246678328D02*
X99785714Y-246678328D01*
X97785714Y-246678328D02*
X98500000Y-246678328D01*
X98500000Y-246678328D02*
X98500000Y-245178328D01*
X96428571Y-246535471D02*
X96499999Y-246606900D01*
X96499999Y-246606900D02*
X96714285Y-246678328D01*
X96714285Y-246678328D02*
X96857142Y-246678328D01*
X96857142Y-246678328D02*
X97071428Y-246606900D01*
X97071428Y-246606900D02*
X97214285Y-246464042D01*
X97214285Y-246464042D02*
X97285714Y-246321185D01*
X97285714Y-246321185D02*
X97357142Y-246035471D01*
X97357142Y-246035471D02*
X97357142Y-245821185D01*
X97357142Y-245821185D02*
X97285714Y-245535471D01*
X97285714Y-245535471D02*
X97214285Y-245392614D01*
X97214285Y-245392614D02*
X97071428Y-245249757D01*
X97071428Y-245249757D02*
X96857142Y-245178328D01*
X96857142Y-245178328D02*
X96714285Y-245178328D01*
X96714285Y-245178328D02*
X96499999Y-245249757D01*
X96499999Y-245249757D02*
X96428571Y-245321185D01*
X95357142Y-245178328D02*
X95357142Y-246249757D01*
X95357142Y-246249757D02*
X95428571Y-246464042D01*
X95428571Y-246464042D02*
X95571428Y-246606900D01*
X95571428Y-246606900D02*
X95785714Y-246678328D01*
X95785714Y-246678328D02*
X95928571Y-246678328D01*
X93928571Y-246678328D02*
X94642857Y-246678328D01*
X94642857Y-246678328D02*
X94642857Y-245178328D01*
X92571428Y-246535471D02*
X92642856Y-246606900D01*
X92642856Y-246606900D02*
X92857142Y-246678328D01*
X92857142Y-246678328D02*
X92999999Y-246678328D01*
X92999999Y-246678328D02*
X93214285Y-246606900D01*
X93214285Y-246606900D02*
X93357142Y-246464042D01*
X93357142Y-246464042D02*
X93428571Y-246321185D01*
X93428571Y-246321185D02*
X93499999Y-246035471D01*
X93499999Y-246035471D02*
X93499999Y-245821185D01*
X93499999Y-245821185D02*
X93428571Y-245535471D01*
X93428571Y-245535471D02*
X93357142Y-245392614D01*
X93357142Y-245392614D02*
X93214285Y-245249757D01*
X93214285Y-245249757D02*
X92999999Y-245178328D01*
X92999999Y-245178328D02*
X92857142Y-245178328D01*
X92857142Y-245178328D02*
X92642856Y-245249757D01*
X92642856Y-245249757D02*
X92571428Y-245321185D01*
X57892856Y-130599757D02*
X58035714Y-130528328D01*
X58035714Y-130528328D02*
X58249999Y-130528328D01*
X58249999Y-130528328D02*
X58464285Y-130599757D01*
X58464285Y-130599757D02*
X58607142Y-130742614D01*
X58607142Y-130742614D02*
X58678571Y-130885471D01*
X58678571Y-130885471D02*
X58749999Y-131171185D01*
X58749999Y-131171185D02*
X58749999Y-131385471D01*
X58749999Y-131385471D02*
X58678571Y-131671185D01*
X58678571Y-131671185D02*
X58607142Y-131814042D01*
X58607142Y-131814042D02*
X58464285Y-131956900D01*
X58464285Y-131956900D02*
X58249999Y-132028328D01*
X58249999Y-132028328D02*
X58107142Y-132028328D01*
X58107142Y-132028328D02*
X57892856Y-131956900D01*
X57892856Y-131956900D02*
X57821428Y-131885471D01*
X57821428Y-131885471D02*
X57821428Y-131385471D01*
X57821428Y-131385471D02*
X58107142Y-131385471D01*
X57178571Y-132028328D02*
X57178571Y-130528328D01*
X57178571Y-130528328D02*
X56321428Y-132028328D01*
X56321428Y-132028328D02*
X56321428Y-130528328D01*
X55607142Y-132028328D02*
X55607142Y-130528328D01*
X55607142Y-130528328D02*
X55249999Y-130528328D01*
X55249999Y-130528328D02*
X55035713Y-130599757D01*
X55035713Y-130599757D02*
X54892856Y-130742614D01*
X54892856Y-130742614D02*
X54821427Y-130885471D01*
X54821427Y-130885471D02*
X54749999Y-131171185D01*
X54749999Y-131171185D02*
X54749999Y-131385471D01*
X54749999Y-131385471D02*
X54821427Y-131671185D01*
X54821427Y-131671185D02*
X54892856Y-131814042D01*
X54892856Y-131814042D02*
X55035713Y-131956900D01*
X55035713Y-131956900D02*
X55249999Y-132028328D01*
X55249999Y-132028328D02*
X55607142Y-132028328D01*
%LPC*%
D11*
X56800000Y-228750000D03*
X58460000Y-224720000D03*
X58470000Y-232790000D03*
X62500000Y-223050000D03*
D12*
X62500000Y-228750000D03*
D11*
X62500000Y-234450000D03*
X66530000Y-232790000D03*
X66540000Y-224720000D03*
X68200000Y-228750000D03*
X131800000Y-206250000D03*
X133460000Y-202220000D03*
X133470000Y-210290000D03*
X137500000Y-200550000D03*
D12*
X137500000Y-206250000D03*
D11*
X137500000Y-211950000D03*
X141530000Y-210290000D03*
X141540000Y-202220000D03*
X143200000Y-206250000D03*
X81800000Y-206250000D03*
X83460000Y-202220000D03*
X83470000Y-210290000D03*
X87500000Y-200550000D03*
D12*
X87500000Y-206250000D03*
D11*
X87500000Y-211950000D03*
X91530000Y-210290000D03*
X91540000Y-202220000D03*
X93200000Y-206250000D03*
X56800000Y-206250000D03*
X58460000Y-202220000D03*
X58470000Y-210290000D03*
X62500000Y-200550000D03*
D12*
X62500000Y-206250000D03*
D11*
X62500000Y-211950000D03*
X66530000Y-210290000D03*
X66540000Y-202220000D03*
X68200000Y-206250000D03*
X106800000Y-206250000D03*
X108460000Y-202220000D03*
X108470000Y-210290000D03*
X112500000Y-200550000D03*
D12*
X112500000Y-206250000D03*
D11*
X112500000Y-211950000D03*
X116530000Y-210290000D03*
X116540000Y-202220000D03*
X118200000Y-206250000D03*
X81800000Y-228750000D03*
X83460000Y-224720000D03*
X83470000Y-232790000D03*
X87500000Y-223050000D03*
D12*
X87500000Y-228750000D03*
D11*
X87500000Y-234450000D03*
X91530000Y-232790000D03*
X91540000Y-224720000D03*
X93200000Y-228750000D03*
X56800000Y-183750000D03*
X58460000Y-179720000D03*
X58470000Y-187790000D03*
X62500000Y-178050000D03*
D12*
X62500000Y-183750000D03*
D11*
X62500000Y-189450000D03*
X66530000Y-187790000D03*
X66540000Y-179720000D03*
X68200000Y-183750000D03*
X106800000Y-228750000D03*
X108460000Y-224720000D03*
X108470000Y-232790000D03*
X112500000Y-223050000D03*
D12*
X112500000Y-228750000D03*
D11*
X112500000Y-234450000D03*
X116530000Y-232790000D03*
X116540000Y-224720000D03*
X118200000Y-228750000D03*
D12*
X87500000Y-183750000D03*
D13*
X87500000Y-189750000D03*
D12*
X81000000Y-92000000D03*
D13*
X81000000Y-98000000D03*
D14*
X54000000Y-246000000D03*
X146000000Y-54000000D03*
D15*
X124500000Y-111620000D03*
D16*
X141500000Y-119750000D03*
X117500000Y-119750000D03*
X133500000Y-119750000D03*
D15*
X139500000Y-91500000D03*
X139500000Y-111620000D03*
D12*
X131500000Y-146000000D03*
D13*
X131500000Y-152000000D03*
D14*
X54000000Y-54000000D03*
D15*
X134500000Y-111620000D03*
X129500000Y-111620000D03*
D12*
X137500000Y-183750000D03*
D13*
X137500000Y-189750000D03*
D17*
X139500000Y-65600000D03*
D18*
X139500000Y-72000000D03*
D14*
X146000000Y-246000000D03*
D17*
X62500000Y-139600000D03*
D18*
X62500000Y-146000000D03*
D16*
X125500000Y-119750000D03*
D12*
X93500000Y-146000000D03*
D13*
X93500000Y-152000000D03*
D15*
X119500000Y-111620000D03*
D17*
X119500000Y-65600000D03*
D18*
X119500000Y-72000000D03*
D12*
X112500000Y-183750000D03*
D13*
X112500000Y-189750000D03*
D19*
X56750000Y-125000000D03*
D11*
X131800000Y-228750000D03*
X133460000Y-224720000D03*
X133470000Y-232790000D03*
X137500000Y-223050000D03*
D12*
X137500000Y-228750000D03*
D11*
X137500000Y-234450000D03*
X141530000Y-232790000D03*
X141540000Y-224720000D03*
X143200000Y-228750000D03*
%LPD*%
M02*
