G04 #@! TF.GenerationSoftware,KiCad,Pcbnew,8.0.3*
G04 #@! TF.CreationDate,2024-06-29T21:24:43+02:00*
G04 #@! TF.ProjectId,DMH_VCO_40106_PANEL,444d485f-5643-44f5-9f34-303130365f50,1*
G04 #@! TF.SameCoordinates,Original*
G04 #@! TF.FileFunction,Legend,Top*
G04 #@! TF.FilePolarity,Positive*
%FSLAX46Y46*%
G04 Gerber Fmt 4.6, Leading zero omitted, Abs format (unit mm)*
G04 Created by KiCad (PCBNEW 8.0.3) date 2024-06-29 21:24:43*
%MOMM*%
%LPD*%
G01*
G04 APERTURE LIST*
%ADD10C,0.750000*%
%ADD11C,1.000000*%
%ADD12C,0.100000*%
%ADD13C,0.875000*%
%ADD14C,0.150000*%
%ADD15C,0.500000*%
%ADD16C,0.250000*%
%ADD17C,0.000000*%
%ADD18C,2.900000*%
%ADD19C,13.000000*%
%ADD20C,0.500000*%
%ADD21C,12.000000*%
%ADD22C,4.000000*%
%ADD23C,3.100000*%
%ADD24C,2.200000*%
G04 APERTURE END LIST*
D10*
X112500000Y-239250000D02*
X115000000Y-239250000D01*
D11*
X87500000Y-199500000D02*
X87500000Y-191249998D01*
D10*
X60000000Y-238250000D02*
G75*
G02*
X62500000Y-238250000I1250000J0D01*
G01*
X112500000Y-237250000D02*
X112500000Y-239250000D01*
D11*
X62500000Y-177125001D02*
X62500000Y-152500000D01*
D10*
X110000000Y-239250000D02*
X110000000Y-237250000D01*
X135000000Y-237250000D02*
X140000000Y-239250000D01*
D11*
X137500000Y-199500000D02*
X137500000Y-191249998D01*
D10*
X65000000Y-238250000D02*
G75*
G02*
X62500000Y-238250000I-1250000J0D01*
G01*
X110000000Y-237250000D02*
X112500000Y-237250000D01*
X85000000Y-239250000D02*
X87500000Y-237250000D01*
D11*
X112500000Y-199500000D02*
X112500000Y-191249998D01*
D10*
X135000000Y-239250000D02*
X135000000Y-237250000D01*
X87500000Y-237250000D02*
X90000000Y-239250000D01*
D12*
G36*
X119196789Y-96198032D02*
G01*
X119228116Y-96103148D01*
X119280454Y-96018654D01*
X119346266Y-95950858D01*
X119431988Y-95891342D01*
X119531822Y-95854591D01*
X119611025Y-95846322D01*
X120633914Y-95846322D01*
X120940195Y-96022177D01*
X121074528Y-96198032D01*
X121172226Y-96549741D01*
X120879623Y-97956580D01*
X120635868Y-98308290D01*
X120428262Y-98484145D01*
X120048709Y-98660000D01*
X119025819Y-98660000D01*
X118927084Y-98645711D01*
X118841206Y-98597985D01*
X118804047Y-98558394D01*
X118759235Y-98468101D01*
X118750218Y-98362329D01*
X118758129Y-98308290D01*
X118684856Y-98660000D01*
X118000000Y-98660000D01*
X118197835Y-97708277D01*
X118896516Y-97708277D01*
X118922159Y-97807277D01*
X118950593Y-97854975D01*
X119025761Y-97920760D01*
X119121084Y-97953008D01*
X119171877Y-97956580D01*
X119854291Y-97956580D01*
X119955774Y-97942292D01*
X120052861Y-97899427D01*
X120115143Y-97854975D01*
X120188528Y-97778258D01*
X120240094Y-97691844D01*
X120268039Y-97604870D01*
X120414096Y-96901451D01*
X120421125Y-96799602D01*
X120394168Y-96701668D01*
X120364759Y-96654277D01*
X120290391Y-96586594D01*
X120196674Y-96553416D01*
X120146894Y-96549741D01*
X119464480Y-96549741D01*
X119361142Y-96564442D01*
X119270881Y-96603745D01*
X119200209Y-96654277D01*
X119128272Y-96730428D01*
X119077692Y-96815813D01*
X119050244Y-96901451D01*
X118904187Y-97604870D01*
X118896516Y-97708277D01*
X118197835Y-97708277D01*
X118877320Y-94439483D01*
X119562177Y-94439483D01*
X119196789Y-96198032D01*
G37*
G36*
X128744890Y-64945509D02*
G01*
X128822667Y-64955185D01*
X128895266Y-64970923D01*
X128979003Y-64998636D01*
X129055268Y-65034705D01*
X129124405Y-65078508D01*
X129186759Y-65129426D01*
X129199793Y-65141790D01*
X129260131Y-65208547D01*
X129311809Y-65282866D01*
X129354004Y-65363853D01*
X129380381Y-65432839D01*
X129399742Y-65505058D01*
X129411668Y-65580050D01*
X129415736Y-65657356D01*
X129414931Y-65692770D01*
X129406057Y-65779018D01*
X129387838Y-65861511D01*
X129360845Y-65939637D01*
X129325647Y-66012783D01*
X129282816Y-66080338D01*
X129232920Y-66141690D01*
X129194835Y-66180399D01*
X129124562Y-66238032D01*
X129062087Y-66277510D01*
X128993914Y-66310676D01*
X128919919Y-66337144D01*
X128839978Y-66356528D01*
X128753966Y-66368442D01*
X128661759Y-66372500D01*
X128363538Y-66372500D01*
X128316652Y-66371477D01*
X128227558Y-66363443D01*
X128144597Y-66347746D01*
X128067645Y-66324771D01*
X127996577Y-66294906D01*
X127931268Y-66258536D01*
X127857541Y-66204515D01*
X127792376Y-66141690D01*
X127771607Y-66117933D01*
X127724468Y-66054026D01*
X127684622Y-65984161D01*
X127652638Y-65908950D01*
X127629086Y-65829003D01*
X127614537Y-65744935D01*
X127609685Y-65659555D01*
X127989846Y-65659555D01*
X127990234Y-65675891D01*
X128003274Y-65754506D01*
X128033192Y-65826036D01*
X128077774Y-65887800D01*
X128136607Y-65939065D01*
X128202096Y-65972492D01*
X128281504Y-65992880D01*
X128363538Y-65998808D01*
X128661759Y-65998808D01*
X128743792Y-65992880D01*
X128823200Y-65972492D01*
X128888689Y-65939065D01*
X128947523Y-65887800D01*
X128957506Y-65876357D01*
X128999332Y-65812426D01*
X129026052Y-65739264D01*
X129035450Y-65659555D01*
X129032605Y-65615123D01*
X129013896Y-65539107D01*
X128979298Y-65470556D01*
X128930670Y-65412259D01*
X128881028Y-65373338D01*
X128813219Y-65340831D01*
X128739272Y-65323519D01*
X128661759Y-65318469D01*
X128363538Y-65318469D01*
X128306884Y-65321069D01*
X128229347Y-65335420D01*
X128158280Y-65365018D01*
X128094627Y-65412259D01*
X128066112Y-65443215D01*
X128025079Y-65507552D01*
X127998989Y-65580595D01*
X127989846Y-65659555D01*
X127609685Y-65659555D01*
X127609560Y-65657356D01*
X127609818Y-65637838D01*
X127615890Y-65561067D01*
X127629714Y-65486725D01*
X127650869Y-65415271D01*
X127678934Y-65347165D01*
X127723091Y-65267440D01*
X127776567Y-65194561D01*
X127838538Y-65129426D01*
X127900892Y-65078508D01*
X127970029Y-65034705D01*
X128046294Y-64998636D01*
X128130030Y-64970923D01*
X128202630Y-64955185D01*
X128280407Y-64945509D01*
X128363538Y-64942213D01*
X128661759Y-64942213D01*
X128744890Y-64945509D01*
G37*
G36*
X131359665Y-64942213D02*
G01*
X130987805Y-64942213D01*
X130987805Y-65866917D01*
X130958496Y-65905019D01*
X130922592Y-65888166D01*
X130229798Y-65052489D01*
X130171911Y-64996911D01*
X130102872Y-64953065D01*
X130025823Y-64927865D01*
X129947782Y-64919193D01*
X129923151Y-64918766D01*
X129837697Y-64925650D01*
X129761933Y-64947218D01*
X129697822Y-64984846D01*
X129647326Y-65039910D01*
X129612406Y-65113783D01*
X129597004Y-65187349D01*
X129593423Y-65251425D01*
X129593423Y-66372500D01*
X129967114Y-66372500D01*
X129967114Y-65409328D01*
X130002652Y-65369028D01*
X130036357Y-65388079D01*
X130815614Y-66290800D01*
X130877878Y-66342213D01*
X130952052Y-66376255D01*
X131028616Y-66392365D01*
X131092952Y-66395947D01*
X131168990Y-66386181D01*
X131238200Y-66355993D01*
X131295913Y-66304051D01*
X131337466Y-66229022D01*
X131356381Y-66147900D01*
X131359665Y-66090765D01*
X131359665Y-64942213D01*
G37*
G36*
X54994890Y-137945509D02*
G01*
X55072667Y-137955185D01*
X55145266Y-137970923D01*
X55229003Y-137998636D01*
X55305268Y-138034705D01*
X55374405Y-138078508D01*
X55436759Y-138129426D01*
X55449793Y-138141790D01*
X55510131Y-138208547D01*
X55561809Y-138282866D01*
X55604004Y-138363853D01*
X55630381Y-138432839D01*
X55649742Y-138505058D01*
X55661668Y-138580050D01*
X55665736Y-138657356D01*
X55664931Y-138692770D01*
X55656057Y-138779018D01*
X55637838Y-138861511D01*
X55610845Y-138939637D01*
X55575647Y-139012783D01*
X55532816Y-139080338D01*
X55482920Y-139141690D01*
X55444835Y-139180399D01*
X55374562Y-139238032D01*
X55312087Y-139277510D01*
X55243914Y-139310676D01*
X55169919Y-139337144D01*
X55089978Y-139356528D01*
X55003966Y-139368442D01*
X54911759Y-139372500D01*
X54613538Y-139372500D01*
X54566652Y-139371477D01*
X54477558Y-139363443D01*
X54394597Y-139347746D01*
X54317645Y-139324771D01*
X54246577Y-139294906D01*
X54181268Y-139258536D01*
X54107541Y-139204515D01*
X54042376Y-139141690D01*
X54021607Y-139117933D01*
X53974468Y-139054026D01*
X53934622Y-138984161D01*
X53902638Y-138908950D01*
X53879086Y-138829003D01*
X53864537Y-138744935D01*
X53859685Y-138659555D01*
X54239846Y-138659555D01*
X54240234Y-138675891D01*
X54253274Y-138754506D01*
X54283192Y-138826036D01*
X54327774Y-138887800D01*
X54386607Y-138939065D01*
X54452096Y-138972492D01*
X54531504Y-138992880D01*
X54613538Y-138998808D01*
X54911759Y-138998808D01*
X54993792Y-138992880D01*
X55073200Y-138972492D01*
X55138689Y-138939065D01*
X55197523Y-138887800D01*
X55207506Y-138876357D01*
X55249332Y-138812426D01*
X55276052Y-138739264D01*
X55285450Y-138659555D01*
X55282605Y-138615123D01*
X55263896Y-138539107D01*
X55229298Y-138470556D01*
X55180670Y-138412259D01*
X55131028Y-138373338D01*
X55063219Y-138340831D01*
X54989272Y-138323519D01*
X54911759Y-138318469D01*
X54613538Y-138318469D01*
X54556884Y-138321069D01*
X54479347Y-138335420D01*
X54408280Y-138365018D01*
X54344627Y-138412259D01*
X54316112Y-138443215D01*
X54275079Y-138507552D01*
X54248989Y-138580595D01*
X54239846Y-138659555D01*
X53859685Y-138659555D01*
X53859560Y-138657356D01*
X53859818Y-138637838D01*
X53865890Y-138561067D01*
X53879714Y-138486725D01*
X53900869Y-138415271D01*
X53928934Y-138347165D01*
X53973091Y-138267440D01*
X54026567Y-138194561D01*
X54088538Y-138129426D01*
X54150892Y-138078508D01*
X54220029Y-138034705D01*
X54296294Y-137998636D01*
X54380030Y-137970923D01*
X54452630Y-137955185D01*
X54530407Y-137945509D01*
X54613538Y-137942213D01*
X54911759Y-137942213D01*
X54994890Y-137945509D01*
G37*
G36*
X57609665Y-137942213D02*
G01*
X57237805Y-137942213D01*
X57237805Y-138866917D01*
X57208496Y-138905019D01*
X57172592Y-138888166D01*
X56479798Y-138052489D01*
X56421911Y-137996911D01*
X56352872Y-137953065D01*
X56275823Y-137927865D01*
X56197782Y-137919193D01*
X56173151Y-137918766D01*
X56087697Y-137925650D01*
X56011933Y-137947218D01*
X55947822Y-137984846D01*
X55897326Y-138039910D01*
X55862406Y-138113783D01*
X55847004Y-138187349D01*
X55843423Y-138251425D01*
X55843423Y-139372500D01*
X56217114Y-139372500D01*
X56217114Y-138409328D01*
X56252652Y-138369028D01*
X56286357Y-138388079D01*
X57065614Y-139290800D01*
X57127878Y-139342213D01*
X57202052Y-139376255D01*
X57278616Y-139392365D01*
X57342952Y-139395947D01*
X57418990Y-139386181D01*
X57488200Y-139355993D01*
X57545913Y-139304051D01*
X57587466Y-139229022D01*
X57606381Y-139147900D01*
X57609665Y-139090765D01*
X57609665Y-137942213D01*
G37*
G36*
X128071512Y-77445509D02*
G01*
X128149289Y-77455185D01*
X128221888Y-77470923D01*
X128305625Y-77498636D01*
X128381890Y-77534705D01*
X128451027Y-77578508D01*
X128513381Y-77629426D01*
X128526415Y-77641790D01*
X128586753Y-77708547D01*
X128638431Y-77782866D01*
X128680626Y-77863853D01*
X128707003Y-77932839D01*
X128726364Y-78005058D01*
X128738290Y-78080050D01*
X128742358Y-78157356D01*
X128741553Y-78192770D01*
X128732679Y-78279018D01*
X128714460Y-78361511D01*
X128687467Y-78439637D01*
X128652269Y-78512783D01*
X128609438Y-78580338D01*
X128559542Y-78641690D01*
X128521457Y-78680399D01*
X128451184Y-78738032D01*
X128388709Y-78777510D01*
X128320536Y-78810676D01*
X128246541Y-78837144D01*
X128166600Y-78856528D01*
X128080588Y-78868442D01*
X127988381Y-78872500D01*
X127690160Y-78872500D01*
X127643274Y-78871477D01*
X127554180Y-78863443D01*
X127471219Y-78847746D01*
X127394267Y-78824771D01*
X127323199Y-78794906D01*
X127257890Y-78758536D01*
X127184163Y-78704515D01*
X127118998Y-78641690D01*
X127098229Y-78617933D01*
X127051090Y-78554026D01*
X127011244Y-78484161D01*
X126979260Y-78408950D01*
X126955708Y-78329003D01*
X126941159Y-78244935D01*
X126936307Y-78159555D01*
X127316468Y-78159555D01*
X127316856Y-78175891D01*
X127329896Y-78254506D01*
X127359814Y-78326036D01*
X127404396Y-78387800D01*
X127463229Y-78439065D01*
X127528718Y-78472492D01*
X127608126Y-78492880D01*
X127690160Y-78498808D01*
X127988381Y-78498808D01*
X128070414Y-78492880D01*
X128149822Y-78472492D01*
X128215311Y-78439065D01*
X128274145Y-78387800D01*
X128284128Y-78376357D01*
X128325954Y-78312426D01*
X128352674Y-78239264D01*
X128362072Y-78159555D01*
X128359227Y-78115123D01*
X128340518Y-78039107D01*
X128305920Y-77970556D01*
X128257292Y-77912259D01*
X128207650Y-77873338D01*
X128139841Y-77840831D01*
X128065894Y-77823519D01*
X127988381Y-77818469D01*
X127690160Y-77818469D01*
X127633506Y-77821069D01*
X127555969Y-77835420D01*
X127484902Y-77865018D01*
X127421249Y-77912259D01*
X127392734Y-77943215D01*
X127351701Y-78007552D01*
X127325611Y-78080595D01*
X127316468Y-78159555D01*
X126936307Y-78159555D01*
X126936182Y-78157356D01*
X126936440Y-78137838D01*
X126942512Y-78061067D01*
X126956336Y-77986725D01*
X126977491Y-77915271D01*
X127005556Y-77847165D01*
X127049713Y-77767440D01*
X127103189Y-77694561D01*
X127165160Y-77629426D01*
X127227514Y-77578508D01*
X127296651Y-77534705D01*
X127372916Y-77498636D01*
X127456652Y-77470923D01*
X127529252Y-77455185D01*
X127607029Y-77445509D01*
X127690160Y-77442213D01*
X127988381Y-77442213D01*
X128071512Y-77445509D01*
G37*
G36*
X129178332Y-77442213D02*
G01*
X129104654Y-77448414D01*
X129032594Y-77472397D01*
X128971161Y-77523567D01*
X128934217Y-77600174D01*
X128922129Y-77686447D01*
X128921877Y-77702698D01*
X128921877Y-78872500D01*
X129302163Y-78872500D01*
X129302163Y-78381571D01*
X130408949Y-78381571D01*
X130408949Y-78028396D01*
X129302163Y-78028396D01*
X129302163Y-77879652D01*
X129346902Y-77819415D01*
X129360781Y-77818469D01*
X130415177Y-77818469D01*
X130415177Y-77442213D01*
X129178332Y-77442213D01*
G37*
G36*
X130837229Y-77442213D02*
G01*
X130763552Y-77448414D01*
X130691491Y-77472397D01*
X130630058Y-77523567D01*
X130593114Y-77600174D01*
X130581026Y-77686447D01*
X130580774Y-77702698D01*
X130580774Y-78872500D01*
X130961060Y-78872500D01*
X130961060Y-78381571D01*
X132067847Y-78381571D01*
X132067847Y-78028396D01*
X130961060Y-78028396D01*
X130961060Y-77879652D01*
X131005800Y-77819415D01*
X131019679Y-77818469D01*
X132074075Y-77818469D01*
X132074075Y-77442213D01*
X130837229Y-77442213D01*
G37*
D13*
G36*
X94073248Y-243825618D02*
G01*
X94244939Y-243881624D01*
X94396458Y-243985700D01*
X94446678Y-244040683D01*
X94534517Y-244201977D01*
X94577120Y-244384585D01*
X94587945Y-244564434D01*
X94587945Y-247202501D01*
X93695482Y-247202501D01*
X93695482Y-246718655D01*
X91387387Y-246718655D01*
X91215682Y-246707155D01*
X91036266Y-246656583D01*
X90892428Y-246551960D01*
X90870253Y-246524868D01*
X90793123Y-246365762D01*
X90770185Y-246189503D01*
X90792304Y-246039370D01*
X90870076Y-245891161D01*
X92127687Y-245891161D01*
X92181542Y-245944161D01*
X93695482Y-245944161D01*
X93695482Y-244928600D01*
X93621964Y-244832002D01*
X93544173Y-244861066D01*
X92161881Y-245837305D01*
X92127687Y-245891161D01*
X90870076Y-245891161D01*
X90872767Y-245886032D01*
X90953871Y-245797661D01*
X91093318Y-245686852D01*
X93450994Y-243976297D01*
X93570473Y-243899173D01*
X93738546Y-243830922D01*
X93911759Y-243810456D01*
X94073248Y-243825618D01*
G37*
G36*
X97450514Y-243872857D02*
G01*
X97631879Y-243895433D01*
X97801262Y-243932155D01*
X97996724Y-243996820D01*
X98174802Y-244080980D01*
X98336242Y-244183187D01*
X98481786Y-244301995D01*
X98512198Y-244330845D01*
X98652910Y-244486610D01*
X98773336Y-244660023D01*
X98871598Y-244848992D01*
X98932987Y-245009959D01*
X98978027Y-245178470D01*
X99005756Y-245353452D01*
X99015213Y-245533833D01*
X99013334Y-245616465D01*
X98992637Y-245817710D01*
X98950162Y-246010194D01*
X98887261Y-246192487D01*
X98805284Y-246363162D01*
X98705579Y-246520791D01*
X98589498Y-246663945D01*
X98500414Y-246754267D01*
X98336181Y-246888744D01*
X98190284Y-246980857D01*
X98031174Y-247058245D01*
X97858559Y-247120004D01*
X97672150Y-247165234D01*
X97471656Y-247193034D01*
X97256786Y-247202501D01*
X96751570Y-247202501D01*
X96642170Y-247200115D01*
X96434284Y-247181369D01*
X96240709Y-247144742D01*
X96061153Y-247091134D01*
X95895327Y-247021448D01*
X95742939Y-246936585D01*
X95570911Y-246810537D01*
X95418859Y-246663945D01*
X95370397Y-246608512D01*
X95260408Y-246459397D01*
X95167433Y-246296378D01*
X95092803Y-246120884D01*
X95037849Y-245934343D01*
X95003901Y-245738183D01*
X94992580Y-245538962D01*
X95879623Y-245538962D01*
X95880528Y-245577082D01*
X95910954Y-245760516D01*
X95980762Y-245927420D01*
X96084787Y-246071534D01*
X96222066Y-246191154D01*
X96374873Y-246269150D01*
X96560158Y-246316721D01*
X96751570Y-246330554D01*
X97256786Y-246330554D01*
X97447847Y-246316721D01*
X97633056Y-246269150D01*
X97785828Y-246191154D01*
X97922715Y-246071534D01*
X97946019Y-246044835D01*
X98043875Y-245895662D01*
X98106606Y-245724951D01*
X98128733Y-245538962D01*
X98122039Y-245435289D01*
X98078092Y-245257917D01*
X97997021Y-245097965D01*
X97883392Y-244961939D01*
X97767573Y-244871124D01*
X97609468Y-244795274D01*
X97437205Y-244754879D01*
X97256786Y-244743097D01*
X96751570Y-244743097D01*
X96619378Y-244749162D01*
X96438458Y-244782649D01*
X96272635Y-244851711D01*
X96124110Y-244961939D01*
X96057576Y-245034169D01*
X95961832Y-245184290D01*
X95900955Y-245354723D01*
X95879623Y-245538962D01*
X94992580Y-245538962D01*
X94992289Y-245533833D01*
X94992890Y-245488290D01*
X95007059Y-245309158D01*
X95039314Y-245135693D01*
X95088676Y-244968968D01*
X95154160Y-244810054D01*
X95257194Y-244624029D01*
X95381970Y-244453978D01*
X95526570Y-244301995D01*
X95672062Y-244183187D01*
X95833382Y-244080980D01*
X96011334Y-243996820D01*
X96206719Y-243932155D01*
X96376117Y-243895433D01*
X96557598Y-243872857D01*
X96751570Y-243865166D01*
X97256786Y-243865166D01*
X97450514Y-243872857D01*
G37*
G36*
X99228925Y-243865166D02*
G01*
X99228925Y-244743097D01*
X99772610Y-244743097D01*
X99899519Y-244864390D01*
X99899983Y-244881583D01*
X99899983Y-247202501D01*
X100782188Y-247202501D01*
X100782188Y-244747371D01*
X100772350Y-244532260D01*
X100741155Y-244349145D01*
X100668280Y-244163690D01*
X100553159Y-244024638D01*
X100390860Y-243929993D01*
X100223740Y-243884908D01*
X100020746Y-243865945D01*
X99964096Y-243865166D01*
X99228925Y-243865166D01*
G37*
G36*
X103694338Y-243872857D02*
G01*
X103875703Y-243895433D01*
X104045087Y-243932155D01*
X104240548Y-243996820D01*
X104418626Y-244080980D01*
X104580066Y-244183187D01*
X104725611Y-244301995D01*
X104756022Y-244330845D01*
X104896734Y-244486610D01*
X105017160Y-244660023D01*
X105115422Y-244848992D01*
X105176811Y-245009959D01*
X105221851Y-245178470D01*
X105249580Y-245353452D01*
X105259037Y-245533833D01*
X105257158Y-245616465D01*
X105236461Y-245817710D01*
X105193987Y-246010194D01*
X105131086Y-246192487D01*
X105049108Y-246363162D01*
X104949403Y-246520791D01*
X104833322Y-246663945D01*
X104744238Y-246754267D01*
X104580006Y-246888744D01*
X104434108Y-246980857D01*
X104274998Y-247058245D01*
X104102383Y-247120004D01*
X103915974Y-247165234D01*
X103715480Y-247193034D01*
X103500611Y-247202501D01*
X102995394Y-247202501D01*
X102885994Y-247200115D01*
X102678108Y-247181369D01*
X102484533Y-247144742D01*
X102304977Y-247091134D01*
X102139151Y-247021448D01*
X101986763Y-246936585D01*
X101814735Y-246810537D01*
X101662683Y-246663945D01*
X101614221Y-246608512D01*
X101504232Y-246459397D01*
X101411257Y-246296378D01*
X101336627Y-246120884D01*
X101281673Y-245934343D01*
X101247725Y-245738183D01*
X101236404Y-245538962D01*
X102123447Y-245538962D01*
X102124352Y-245577082D01*
X102154778Y-245760516D01*
X102224586Y-245927420D01*
X102328611Y-246071534D01*
X102465890Y-246191154D01*
X102618697Y-246269150D01*
X102803982Y-246316721D01*
X102995394Y-246330554D01*
X103500611Y-246330554D01*
X103691672Y-246316721D01*
X103876881Y-246269150D01*
X104029652Y-246191154D01*
X104166539Y-246071534D01*
X104189843Y-246044835D01*
X104287699Y-245895662D01*
X104350430Y-245724951D01*
X104372558Y-245538962D01*
X104365863Y-245435289D01*
X104321916Y-245257917D01*
X104240845Y-245097965D01*
X104127216Y-244961939D01*
X104011397Y-244871124D01*
X103853292Y-244795274D01*
X103681029Y-244754879D01*
X103500611Y-244743097D01*
X102995394Y-244743097D01*
X102863202Y-244749162D01*
X102682283Y-244782649D01*
X102516459Y-244851711D01*
X102367934Y-244961939D01*
X102301400Y-245034169D01*
X102205656Y-245184290D01*
X102144779Y-245354723D01*
X102123447Y-245538962D01*
X101236404Y-245538962D01*
X101236113Y-245533833D01*
X101236714Y-245488290D01*
X101250883Y-245309158D01*
X101283139Y-245135693D01*
X101332500Y-244968968D01*
X101397984Y-244810054D01*
X101501018Y-244624029D01*
X101625794Y-244453978D01*
X101770394Y-244301995D01*
X101915886Y-244183187D01*
X102077206Y-244080980D01*
X102255158Y-243996820D01*
X102450543Y-243932155D01*
X102619942Y-243895433D01*
X102801422Y-243872857D01*
X102995394Y-243865166D01*
X103500611Y-243865166D01*
X103694338Y-243872857D01*
G37*
G36*
X107742361Y-243975072D02*
G01*
X107648343Y-244123331D01*
X107108932Y-244896115D01*
X107094400Y-244930309D01*
X107108932Y-244949971D01*
X107250130Y-244925664D01*
X107427127Y-244909621D01*
X107609020Y-244905519D01*
X108050122Y-244905519D01*
X108164015Y-244909233D01*
X108339970Y-244931338D01*
X108529200Y-244982412D01*
X108695801Y-245057997D01*
X108841124Y-245155695D01*
X108966521Y-245273104D01*
X109032882Y-245353592D01*
X109131044Y-245508734D01*
X109204217Y-245679438D01*
X109249932Y-245862644D01*
X109265719Y-246055292D01*
X109250412Y-246246177D01*
X109206093Y-246427045D01*
X109135167Y-246594929D01*
X109040038Y-246746865D01*
X108936787Y-246868333D01*
X108788504Y-246993240D01*
X108612954Y-247092107D01*
X108445320Y-247152093D01*
X108257847Y-247189563D01*
X108050122Y-247202501D01*
X106810590Y-247202501D01*
X106683091Y-247198701D01*
X106491584Y-247176134D01*
X106324025Y-247134595D01*
X106150848Y-247061856D01*
X106003789Y-246966633D01*
X105859142Y-246830641D01*
X105794290Y-246752165D01*
X105697131Y-246600550D01*
X105623610Y-246432506D01*
X105577057Y-246250073D01*
X105560799Y-246055292D01*
X105562515Y-245986049D01*
X106506263Y-245986049D01*
X106520463Y-246089823D01*
X106604571Y-246239939D01*
X106745806Y-246331046D01*
X106918301Y-246355344D01*
X107962073Y-246355344D01*
X108123703Y-246334287D01*
X108275803Y-246239939D01*
X108334437Y-246154197D01*
X108373255Y-245986049D01*
X108368741Y-245923271D01*
X108299738Y-245761223D01*
X108279578Y-245736898D01*
X108135495Y-245641977D01*
X107962073Y-245615899D01*
X106918301Y-245615899D01*
X106902858Y-245616061D01*
X106722678Y-245650325D01*
X106579780Y-245761223D01*
X106544366Y-245816075D01*
X106506263Y-245986049D01*
X105562515Y-245986049D01*
X105562521Y-245985811D01*
X105585863Y-245804479D01*
X105641302Y-245621023D01*
X105720929Y-245450944D01*
X105815544Y-245292766D01*
X106663555Y-243979716D01*
X106717411Y-243865166D01*
X107790248Y-243865166D01*
X107742361Y-243975072D01*
G37*
D12*
G36*
X54321512Y-152695509D02*
G01*
X54399289Y-152705185D01*
X54471888Y-152720923D01*
X54555625Y-152748636D01*
X54631890Y-152784705D01*
X54701027Y-152828508D01*
X54763381Y-152879426D01*
X54776415Y-152891790D01*
X54836753Y-152958547D01*
X54888431Y-153032866D01*
X54930626Y-153113853D01*
X54957003Y-153182839D01*
X54976364Y-153255058D01*
X54988290Y-153330050D01*
X54992358Y-153407356D01*
X54991553Y-153442770D01*
X54982679Y-153529018D01*
X54964460Y-153611511D01*
X54937467Y-153689637D01*
X54902269Y-153762783D01*
X54859438Y-153830338D01*
X54809542Y-153891690D01*
X54771457Y-153930399D01*
X54701184Y-153988032D01*
X54638709Y-154027510D01*
X54570536Y-154060676D01*
X54496541Y-154087144D01*
X54416600Y-154106528D01*
X54330588Y-154118442D01*
X54238381Y-154122500D01*
X53940160Y-154122500D01*
X53893274Y-154121477D01*
X53804180Y-154113443D01*
X53721219Y-154097746D01*
X53644267Y-154074771D01*
X53573199Y-154044906D01*
X53507890Y-154008536D01*
X53434163Y-153954515D01*
X53368998Y-153891690D01*
X53348229Y-153867933D01*
X53301090Y-153804026D01*
X53261244Y-153734161D01*
X53229260Y-153658950D01*
X53205708Y-153579003D01*
X53191159Y-153494935D01*
X53186307Y-153409555D01*
X53566468Y-153409555D01*
X53566856Y-153425891D01*
X53579896Y-153504506D01*
X53609814Y-153576036D01*
X53654396Y-153637800D01*
X53713229Y-153689065D01*
X53778718Y-153722492D01*
X53858126Y-153742880D01*
X53940160Y-153748808D01*
X54238381Y-153748808D01*
X54320414Y-153742880D01*
X54399822Y-153722492D01*
X54465311Y-153689065D01*
X54524145Y-153637800D01*
X54534128Y-153626357D01*
X54575954Y-153562426D01*
X54602674Y-153489264D01*
X54612072Y-153409555D01*
X54609227Y-153365123D01*
X54590518Y-153289107D01*
X54555920Y-153220556D01*
X54507292Y-153162259D01*
X54457650Y-153123338D01*
X54389841Y-153090831D01*
X54315894Y-153073519D01*
X54238381Y-153068469D01*
X53940160Y-153068469D01*
X53883506Y-153071069D01*
X53805969Y-153085420D01*
X53734902Y-153115018D01*
X53671249Y-153162259D01*
X53642734Y-153193215D01*
X53601701Y-153257552D01*
X53575611Y-153330595D01*
X53566468Y-153409555D01*
X53186307Y-153409555D01*
X53186182Y-153407356D01*
X53186440Y-153387838D01*
X53192512Y-153311067D01*
X53206336Y-153236725D01*
X53227491Y-153165271D01*
X53255556Y-153097165D01*
X53299713Y-153017440D01*
X53353189Y-152944561D01*
X53415160Y-152879426D01*
X53477514Y-152828508D01*
X53546651Y-152784705D01*
X53622916Y-152748636D01*
X53706652Y-152720923D01*
X53779252Y-152705185D01*
X53857029Y-152695509D01*
X53940160Y-152692213D01*
X54238381Y-152692213D01*
X54321512Y-152695509D01*
G37*
G36*
X55428332Y-152692213D02*
G01*
X55354654Y-152698414D01*
X55282594Y-152722397D01*
X55221161Y-152773567D01*
X55184217Y-152850174D01*
X55172129Y-152936447D01*
X55171877Y-152952698D01*
X55171877Y-154122500D01*
X55552163Y-154122500D01*
X55552163Y-153631571D01*
X56658949Y-153631571D01*
X56658949Y-153278396D01*
X55552163Y-153278396D01*
X55552163Y-153129652D01*
X55596902Y-153069415D01*
X55610781Y-153068469D01*
X56665177Y-153068469D01*
X56665177Y-152692213D01*
X55428332Y-152692213D01*
G37*
G36*
X57087229Y-152692213D02*
G01*
X57013552Y-152698414D01*
X56941491Y-152722397D01*
X56880058Y-152773567D01*
X56843114Y-152850174D01*
X56831026Y-152936447D01*
X56830774Y-152952698D01*
X56830774Y-154122500D01*
X57211060Y-154122500D01*
X57211060Y-153631571D01*
X58317847Y-153631571D01*
X58317847Y-153278396D01*
X57211060Y-153278396D01*
X57211060Y-153129652D01*
X57255800Y-153069415D01*
X57269679Y-153068469D01*
X58324075Y-153068469D01*
X58324075Y-152692213D01*
X57087229Y-152692213D01*
G37*
G36*
X139252198Y-95142903D02*
G01*
X139943893Y-95142903D01*
X140089951Y-94439483D01*
X140774319Y-94439483D01*
X140628262Y-95142903D01*
X140983391Y-95142903D01*
X140837334Y-95846322D01*
X140482205Y-95846322D01*
X140189602Y-97253161D01*
X140544731Y-97253161D01*
X140398185Y-97956580D01*
X140043056Y-97956580D01*
X139896999Y-98660000D01*
X139212630Y-98660000D01*
X139358688Y-97956580D01*
X138666992Y-97956580D01*
X138520935Y-98660000D01*
X137836566Y-98660000D01*
X137982623Y-97956580D01*
X137646057Y-97956580D01*
X137792602Y-97253161D01*
X138129169Y-97253161D01*
X138813538Y-97253161D01*
X139505233Y-97253161D01*
X139797836Y-95846322D01*
X139106140Y-95846322D01*
X138813538Y-97253161D01*
X138129169Y-97253161D01*
X138421772Y-95846322D01*
X138085205Y-95846322D01*
X138231263Y-95142903D01*
X138567829Y-95142903D01*
X138713886Y-94439483D01*
X139398255Y-94439483D01*
X139252198Y-95142903D01*
G37*
D14*
G36*
X88823448Y-58801891D02*
G01*
X89043887Y-59208240D01*
X89307089Y-59543203D01*
X89614888Y-59807810D01*
X89969118Y-60003088D01*
X90371612Y-60130067D01*
X90824204Y-60189774D01*
X91019679Y-60195052D01*
X91495315Y-60161965D01*
X91916747Y-60062018D01*
X92287017Y-59894183D01*
X92609166Y-59657431D01*
X92886235Y-59350734D01*
X93121265Y-58973062D01*
X93204187Y-58801891D01*
X95914306Y-52779839D01*
X96037404Y-52441807D01*
X93673134Y-52441807D01*
X93583252Y-52711451D01*
X91344034Y-57959741D01*
X91029449Y-58196168D01*
X90705095Y-57959741D01*
X88442429Y-52711451D01*
X88364271Y-52441807D01*
X85966783Y-52441807D01*
X86089882Y-52779839D01*
X88823448Y-58801891D01*
G37*
G36*
X103690998Y-58076978D02*
G01*
X99726448Y-58076978D01*
X99288935Y-58045361D01*
X98865426Y-57936626D01*
X98516152Y-57758351D01*
X98202373Y-57484933D01*
X97964601Y-57155530D01*
X97805039Y-56774034D01*
X97735495Y-56354757D01*
X97733427Y-56267627D01*
X97782186Y-55846507D01*
X97921333Y-55456947D01*
X98140175Y-55113813D01*
X98292254Y-54948715D01*
X98631740Y-54696766D01*
X99010764Y-54538911D01*
X99424295Y-54462369D01*
X99726448Y-54448506D01*
X103690998Y-54448506D01*
X103690998Y-52441807D01*
X99726448Y-52441807D01*
X99283083Y-52459385D01*
X98868271Y-52510989D01*
X98481073Y-52594924D01*
X98034479Y-52742729D01*
X97627733Y-52935094D01*
X97259001Y-53168712D01*
X96926448Y-53440272D01*
X96595934Y-53787663D01*
X96310732Y-54176351D01*
X96075226Y-54601551D01*
X95925546Y-54964782D01*
X95812721Y-55345869D01*
X95738993Y-55742360D01*
X95706608Y-56151805D01*
X95705234Y-56255903D01*
X95731775Y-56722989D01*
X95809371Y-57171354D01*
X95934981Y-57597733D01*
X96105563Y-57998862D01*
X96318077Y-58371476D01*
X96569482Y-58712311D01*
X96680252Y-58839016D01*
X97027798Y-59174083D01*
X97421006Y-59462193D01*
X97769320Y-59656165D01*
X98148352Y-59815448D01*
X98558765Y-59937980D01*
X99001223Y-60021700D01*
X99476391Y-60064547D01*
X99726448Y-60070000D01*
X103690998Y-60070000D01*
X103690998Y-58076978D01*
G37*
G36*
X110256067Y-52459385D02*
G01*
X110670879Y-52510989D01*
X111058076Y-52594924D01*
X111504670Y-52742729D01*
X111911416Y-52935094D01*
X112280149Y-53168712D01*
X112612701Y-53440272D01*
X112682218Y-53506217D01*
X113004021Y-53862250D01*
X113279634Y-54258623D01*
X113504676Y-54690551D01*
X113645352Y-55058476D01*
X113748613Y-55443643D01*
X113812216Y-55843602D01*
X113833915Y-56255903D01*
X113829620Y-56444775D01*
X113782292Y-56904764D01*
X113685126Y-57344726D01*
X113541162Y-57761397D01*
X113353442Y-58151512D01*
X113125007Y-58511807D01*
X112858898Y-58839016D01*
X112655777Y-59045466D01*
X112280989Y-59352841D01*
X111947784Y-59563386D01*
X111584194Y-59740272D01*
X111189555Y-59881436D01*
X110763203Y-59984820D01*
X110304472Y-60048361D01*
X109812701Y-60070000D01*
X108222192Y-60070000D01*
X107972134Y-60064547D01*
X107496966Y-60021700D01*
X107054508Y-59937980D01*
X106644095Y-59815448D01*
X106265064Y-59656165D01*
X105916749Y-59462193D01*
X105523541Y-59174083D01*
X105175995Y-58839016D01*
X105065225Y-58712311D01*
X104813821Y-58371476D01*
X104601307Y-57998862D01*
X104430724Y-57597733D01*
X104305114Y-57171354D01*
X104227518Y-56722989D01*
X104201643Y-56267627D01*
X106229170Y-56267627D01*
X106231238Y-56354757D01*
X106300783Y-56774034D01*
X106460344Y-57155530D01*
X106698116Y-57484933D01*
X107011895Y-57758351D01*
X107361169Y-57936626D01*
X107784678Y-58045361D01*
X108222192Y-58076978D01*
X109812701Y-58076978D01*
X110250215Y-58045361D01*
X110673723Y-57936626D01*
X111022997Y-57758351D01*
X111336776Y-57484933D01*
X111390021Y-57423907D01*
X111613095Y-57082940D01*
X111755598Y-56692743D01*
X111805723Y-56267627D01*
X111790550Y-56030659D01*
X111690765Y-55625237D01*
X111506243Y-55259634D01*
X111246895Y-54948715D01*
X110982136Y-54741140D01*
X110620491Y-54567767D01*
X110226108Y-54475437D01*
X109812701Y-54448506D01*
X108222192Y-54448506D01*
X107920038Y-54462369D01*
X107506508Y-54538911D01*
X107127483Y-54696766D01*
X106787998Y-54948715D01*
X106635919Y-55113813D01*
X106417076Y-55456947D01*
X106277929Y-55846507D01*
X106229170Y-56267627D01*
X104201643Y-56267627D01*
X104200977Y-56255903D01*
X104202351Y-56151805D01*
X104234737Y-55742360D01*
X104308464Y-55345869D01*
X104421289Y-54964782D01*
X104570969Y-54601551D01*
X104806475Y-54176351D01*
X105091677Y-53787663D01*
X105422192Y-53440272D01*
X105754744Y-53168712D01*
X106123476Y-52935094D01*
X106530223Y-52742729D01*
X106976816Y-52594924D01*
X107364014Y-52510989D01*
X107778826Y-52459385D01*
X108222192Y-52441807D01*
X109812701Y-52441807D01*
X110256067Y-52459385D01*
G37*
G36*
X133592254Y-80122951D02*
G01*
X133592254Y-80624626D01*
X134424145Y-80624626D01*
X134424145Y-82030000D01*
X134933636Y-82030000D01*
X134933636Y-80624626D01*
X135762596Y-80624626D01*
X135762596Y-80122951D01*
X133592254Y-80122951D01*
G37*
G36*
X137461549Y-82030000D02*
G01*
X137587847Y-82025158D01*
X137699445Y-82010435D01*
X137796839Y-81985530D01*
X137905463Y-81935967D01*
X137990900Y-81867062D01*
X138054330Y-81778104D01*
X138096932Y-81668383D01*
X138115923Y-81572040D01*
X138124360Y-81463320D01*
X138124913Y-81424277D01*
X138124913Y-80122951D01*
X137615422Y-80122951D01*
X137615422Y-81367613D01*
X137593484Y-81470353D01*
X137510321Y-81535156D01*
X137427844Y-81545910D01*
X136640893Y-81545910D01*
X136542788Y-81528466D01*
X136472323Y-81453731D01*
X136458688Y-81367613D01*
X136458688Y-80122951D01*
X135949197Y-80122951D01*
X135949197Y-81424277D01*
X135954227Y-81537190D01*
X135969648Y-81637626D01*
X136007238Y-81752648D01*
X136065376Y-81846730D01*
X136145247Y-81920582D01*
X136248036Y-81974914D01*
X136374927Y-82010435D01*
X136486626Y-82025158D01*
X136613049Y-82030000D01*
X137461549Y-82030000D01*
G37*
G36*
X140742707Y-80122951D02*
G01*
X140246894Y-80122951D01*
X140246894Y-81355889D01*
X140207816Y-81406692D01*
X140159944Y-81384221D01*
X139236218Y-80269986D01*
X139159035Y-80195882D01*
X139066984Y-80137420D01*
X138964251Y-80103820D01*
X138860197Y-80092258D01*
X138827355Y-80091688D01*
X138713417Y-80100867D01*
X138612399Y-80129625D01*
X138526917Y-80179795D01*
X138459588Y-80253213D01*
X138413028Y-80351711D01*
X138392492Y-80449799D01*
X138387718Y-80535233D01*
X138387718Y-82030000D01*
X138885973Y-82030000D01*
X138885973Y-80745771D01*
X138933356Y-80692037D01*
X138978297Y-80717438D01*
X140017306Y-81921067D01*
X140100324Y-81989618D01*
X140199223Y-82035007D01*
X140301309Y-82056487D01*
X140387090Y-82061263D01*
X140488475Y-82048241D01*
X140580753Y-82007991D01*
X140657705Y-81938735D01*
X140713108Y-81838696D01*
X140738329Y-81730533D01*
X140742707Y-81654354D01*
X140742707Y-80122951D01*
G37*
G36*
X141287369Y-80122951D02*
G01*
X141182558Y-80135043D01*
X141094241Y-80178637D01*
X141035059Y-80265971D01*
X141018213Y-80377941D01*
X141018213Y-81767194D01*
X141031080Y-81870052D01*
X141077109Y-81956281D01*
X141168446Y-82013734D01*
X141268159Y-82029746D01*
X141284438Y-82030000D01*
X143009281Y-82030000D01*
X143009281Y-81545910D01*
X141570202Y-81545910D01*
X141525262Y-81492177D01*
X141525262Y-81248422D01*
X143000977Y-81248422D01*
X143000977Y-80884501D01*
X141525262Y-80884501D01*
X141525262Y-80671521D01*
X141570202Y-80624626D01*
X143009281Y-80624626D01*
X143009281Y-80122951D01*
X141287369Y-80122951D01*
G37*
G36*
X144819821Y-80127982D02*
G01*
X144928265Y-80146597D01*
X145036158Y-80184070D01*
X145126300Y-80236611D01*
X145201116Y-80302226D01*
X145263933Y-80381750D01*
X145311636Y-80471669D01*
X145341938Y-80569923D01*
X145352547Y-80674452D01*
X145352414Y-80688531D01*
X145340893Y-80798633D01*
X145307832Y-80901860D01*
X145249062Y-80994868D01*
X145173273Y-81065240D01*
X145206888Y-81087269D01*
X145279034Y-81155923D01*
X145326747Y-81245884D01*
X145349463Y-81348918D01*
X145355478Y-81459937D01*
X145355478Y-81846817D01*
X145356560Y-81926974D01*
X145363782Y-82030000D01*
X144851361Y-82030000D01*
X144847994Y-82002045D01*
X144843056Y-81901528D01*
X144843056Y-81514647D01*
X144820873Y-81412641D01*
X144740207Y-81354380D01*
X144635450Y-81342212D01*
X143753733Y-81342212D01*
X143753733Y-82030000D01*
X143246685Y-82030000D01*
X143246685Y-80638304D01*
X143753733Y-80638304D01*
X143753733Y-80911367D01*
X144649616Y-80911367D01*
X144707453Y-80904373D01*
X144792254Y-80849818D01*
X144794336Y-80847192D01*
X144828890Y-80752609D01*
X144828227Y-80737977D01*
X144786881Y-80646608D01*
X144748215Y-80617164D01*
X144649616Y-80596294D01*
X143795743Y-80596294D01*
X143753733Y-80638304D01*
X143246685Y-80638304D01*
X143246685Y-80240676D01*
X143278192Y-80152505D01*
X143372714Y-80122951D01*
X144717027Y-80122951D01*
X144819821Y-80127982D01*
G37*
G36*
X114733081Y-80127469D02*
G01*
X114832883Y-80144665D01*
X114937565Y-80180622D01*
X115029239Y-80233285D01*
X115107536Y-80302226D01*
X115173033Y-80388462D01*
X115216249Y-80478562D01*
X115242864Y-80581508D01*
X115250663Y-80682267D01*
X115249876Y-80713017D01*
X115234927Y-80815317D01*
X115201570Y-80907704D01*
X115141853Y-80998394D01*
X115060153Y-81070125D01*
X115120557Y-81110799D01*
X115188009Y-81187247D01*
X115235440Y-81281787D01*
X115262790Y-81389266D01*
X115270202Y-81487780D01*
X115266560Y-81550673D01*
X115242748Y-81658015D01*
X115199086Y-81755981D01*
X115138311Y-81842421D01*
X115066948Y-81911402D01*
X114979860Y-81966388D01*
X114875205Y-82005448D01*
X114770125Y-82024786D01*
X114670830Y-82030000D01*
X113290370Y-82030000D01*
X113199909Y-82003938D01*
X113164340Y-81909832D01*
X113164340Y-81527836D01*
X113670900Y-81527836D01*
X113710467Y-81570823D01*
X114550174Y-81570823D01*
X114612559Y-81564455D01*
X114698674Y-81513670D01*
X114709715Y-81498400D01*
X114737753Y-81404249D01*
X114736989Y-81389376D01*
X114695743Y-81298248D01*
X114648210Y-81261592D01*
X114550174Y-81243538D01*
X113670900Y-81243538D01*
X113670900Y-81527836D01*
X113164340Y-81527836D01*
X113164340Y-80642212D01*
X113670900Y-80642212D01*
X113670900Y-80904528D01*
X114553105Y-80904528D01*
X114610868Y-80898184D01*
X114693301Y-80844933D01*
X114727006Y-80750655D01*
X114693301Y-80656378D01*
X114651049Y-80621053D01*
X114553105Y-80599225D01*
X113710467Y-80599225D01*
X113670900Y-80642212D01*
X113164340Y-80642212D01*
X113164340Y-80240676D01*
X113195848Y-80152505D01*
X113290370Y-80122951D01*
X114642987Y-80122951D01*
X114733081Y-80127469D01*
G37*
G36*
X116966224Y-82030000D02*
G01*
X117092523Y-82025158D01*
X117204120Y-82010435D01*
X117301514Y-81985530D01*
X117410138Y-81935967D01*
X117495576Y-81867062D01*
X117559006Y-81778104D01*
X117601607Y-81668383D01*
X117620599Y-81572040D01*
X117629035Y-81463320D01*
X117629588Y-81424277D01*
X117629588Y-80122951D01*
X117120097Y-80122951D01*
X117120097Y-81367613D01*
X117098160Y-81470353D01*
X117014997Y-81535156D01*
X116932519Y-81545910D01*
X116145569Y-81545910D01*
X116047464Y-81528466D01*
X115976998Y-81453731D01*
X115963363Y-81367613D01*
X115963363Y-80122951D01*
X115453873Y-80122951D01*
X115453873Y-81424277D01*
X115458902Y-81537190D01*
X115474323Y-81637626D01*
X115511913Y-81752648D01*
X115570051Y-81846730D01*
X115649922Y-81920582D01*
X115752711Y-81974914D01*
X115879603Y-82010435D01*
X115991302Y-82025158D01*
X116117725Y-82030000D01*
X116966224Y-82030000D01*
G37*
G36*
X119877599Y-80122951D02*
G01*
X118488834Y-80122951D01*
X118378407Y-80127769D01*
X118264816Y-80145578D01*
X118169386Y-80175340D01*
X118077499Y-80223518D01*
X117993021Y-80293921D01*
X117925229Y-80378124D01*
X117874197Y-80474050D01*
X117842034Y-80579685D01*
X117831024Y-80678496D01*
X117830844Y-80693014D01*
X117839085Y-80797156D01*
X117863113Y-80893628D01*
X117908566Y-80993467D01*
X117971719Y-81081056D01*
X117990090Y-81100900D01*
X118075232Y-81171226D01*
X118167977Y-81219260D01*
X118264129Y-81248888D01*
X118378245Y-81266595D01*
X118488834Y-81271381D01*
X119258688Y-81271381D01*
X119358761Y-81287863D01*
X119393021Y-81313391D01*
X119431940Y-81405757D01*
X119432100Y-81413042D01*
X119401326Y-81498527D01*
X119310651Y-81542834D01*
X119258688Y-81545910D01*
X117881158Y-81545910D01*
X117881158Y-82030000D01*
X119348569Y-82030000D01*
X119448239Y-82024603D01*
X119554651Y-82004543D01*
X119647584Y-81970774D01*
X119740258Y-81915625D01*
X119817436Y-81845294D01*
X119827285Y-81834117D01*
X119885591Y-81753204D01*
X119929562Y-81663086D01*
X119957322Y-81566282D01*
X119966992Y-81465310D01*
X119955803Y-81357141D01*
X119923639Y-81254284D01*
X119872608Y-81159487D01*
X119804815Y-81075498D01*
X119720956Y-81005095D01*
X119632525Y-80956917D01*
X119528278Y-80923324D01*
X119425054Y-80907627D01*
X119348569Y-80904528D01*
X118516678Y-80904528D01*
X118420676Y-80885281D01*
X118407257Y-80874731D01*
X118361262Y-80788157D01*
X118359874Y-80767752D01*
X118390121Y-80673699D01*
X118398953Y-80663217D01*
X118489803Y-80625679D01*
X118516678Y-80624626D01*
X119877599Y-80624626D01*
X119877599Y-80122951D01*
G37*
G36*
X123252058Y-81531744D02*
G01*
X122260921Y-81531744D01*
X122151542Y-81523840D01*
X122045665Y-81496656D01*
X121958347Y-81452087D01*
X121879902Y-81383733D01*
X121820459Y-81301382D01*
X121780569Y-81206008D01*
X121763183Y-81101189D01*
X121762666Y-81079406D01*
X121774855Y-80974126D01*
X121809642Y-80876736D01*
X121864353Y-80790953D01*
X121902372Y-80749678D01*
X121987244Y-80686691D01*
X122082000Y-80647227D01*
X122185383Y-80628092D01*
X122260921Y-80624626D01*
X123252058Y-80624626D01*
X123252058Y-80122951D01*
X122260921Y-80122951D01*
X122150080Y-80127346D01*
X122046376Y-80140247D01*
X121949577Y-80161231D01*
X121837929Y-80198182D01*
X121736242Y-80246273D01*
X121644059Y-80304678D01*
X121560921Y-80372568D01*
X121478292Y-80459415D01*
X121406992Y-80556587D01*
X121348115Y-80662887D01*
X121310695Y-80753695D01*
X121282489Y-80848967D01*
X121264057Y-80948090D01*
X121255961Y-81050451D01*
X121255617Y-81076475D01*
X121262253Y-81193247D01*
X121281652Y-81305338D01*
X121313054Y-81411933D01*
X121355700Y-81512215D01*
X121408828Y-81605369D01*
X121471679Y-81690577D01*
X121499372Y-81722254D01*
X121586258Y-81806020D01*
X121684560Y-81878048D01*
X121771639Y-81926541D01*
X121866397Y-81966362D01*
X121969000Y-81996995D01*
X122079615Y-82017925D01*
X122198407Y-82028636D01*
X122260921Y-82030000D01*
X123252058Y-82030000D01*
X123252058Y-81531744D01*
G37*
G36*
X124117167Y-81712972D02*
G01*
X124172276Y-81814560D01*
X124238077Y-81898300D01*
X124315027Y-81964452D01*
X124403584Y-82013272D01*
X124504208Y-82045016D01*
X124617356Y-82059943D01*
X124666224Y-82061263D01*
X124785133Y-82052991D01*
X124890491Y-82028004D01*
X124983059Y-81986045D01*
X125063596Y-81926857D01*
X125132863Y-81850183D01*
X125191621Y-81755765D01*
X125212351Y-81712972D01*
X125889881Y-80207459D01*
X125920656Y-80122951D01*
X125329588Y-80122951D01*
X125307118Y-80190362D01*
X124747313Y-81502435D01*
X124668667Y-81561542D01*
X124587578Y-81502435D01*
X124021912Y-80190362D01*
X124002372Y-80122951D01*
X123403000Y-80122951D01*
X123433775Y-80207459D01*
X124117167Y-81712972D01*
G37*
G36*
X76102931Y-120031744D02*
G01*
X75111793Y-120031744D01*
X75002415Y-120023840D01*
X74896538Y-119996656D01*
X74809219Y-119952087D01*
X74730774Y-119883733D01*
X74671331Y-119801382D01*
X74631441Y-119706008D01*
X74614055Y-119601189D01*
X74613538Y-119579406D01*
X74625727Y-119474126D01*
X74660514Y-119376736D01*
X74715225Y-119290953D01*
X74753245Y-119249678D01*
X74838116Y-119186691D01*
X74932872Y-119147227D01*
X75036255Y-119128092D01*
X75111793Y-119124626D01*
X76102931Y-119124626D01*
X76102931Y-118622951D01*
X75111793Y-118622951D01*
X75000952Y-118627346D01*
X74897249Y-118640247D01*
X74800449Y-118661231D01*
X74688801Y-118698182D01*
X74587114Y-118746273D01*
X74494931Y-118804678D01*
X74411793Y-118872568D01*
X74329165Y-118959415D01*
X74257864Y-119056587D01*
X74198988Y-119162887D01*
X74161568Y-119253695D01*
X74133361Y-119348967D01*
X74114929Y-119448090D01*
X74106833Y-119550451D01*
X74106490Y-119576475D01*
X74113125Y-119693247D01*
X74132524Y-119805338D01*
X74163926Y-119911933D01*
X74206572Y-120012215D01*
X74259700Y-120105369D01*
X74322552Y-120190577D01*
X74350244Y-120222254D01*
X74437131Y-120306020D01*
X74535433Y-120378048D01*
X74622511Y-120426541D01*
X74717269Y-120466362D01*
X74819872Y-120496995D01*
X74930487Y-120517925D01*
X75049279Y-120528636D01*
X75111793Y-120530000D01*
X76102931Y-120530000D01*
X76102931Y-120031744D01*
G37*
G36*
X77744198Y-118627346D02*
G01*
X77847901Y-118640247D01*
X77944700Y-118661231D01*
X78056349Y-118698182D01*
X78158035Y-118746273D01*
X78250218Y-118804678D01*
X78333356Y-118872568D01*
X78350736Y-118889054D01*
X78431186Y-118978062D01*
X78500090Y-119077155D01*
X78556350Y-119185137D01*
X78591519Y-119277119D01*
X78617334Y-119373410D01*
X78633235Y-119473400D01*
X78638660Y-119576475D01*
X78637586Y-119623693D01*
X78625754Y-119738691D01*
X78601462Y-119848681D01*
X78565472Y-119952849D01*
X78518542Y-120050378D01*
X78461433Y-120140451D01*
X78394906Y-120222254D01*
X78344125Y-120273866D01*
X78250428Y-120350710D01*
X78167127Y-120403346D01*
X78076230Y-120447568D01*
X77977570Y-120482859D01*
X77870982Y-120508705D01*
X77756299Y-120524590D01*
X77633356Y-120530000D01*
X77235729Y-120530000D01*
X77173215Y-120528636D01*
X77054423Y-120517925D01*
X76943808Y-120496995D01*
X76841205Y-120466362D01*
X76746447Y-120426541D01*
X76659368Y-120378048D01*
X76561066Y-120306020D01*
X76474180Y-120222254D01*
X76446487Y-120190577D01*
X76383636Y-120105369D01*
X76330508Y-120012215D01*
X76287862Y-119911933D01*
X76256460Y-119805338D01*
X76237061Y-119693247D01*
X76230592Y-119579406D01*
X76737474Y-119579406D01*
X76737991Y-119601189D01*
X76755377Y-119706008D01*
X76795267Y-119801382D01*
X76854710Y-119883733D01*
X76933155Y-119952087D01*
X77020473Y-119996656D01*
X77126351Y-120023840D01*
X77235729Y-120031744D01*
X77633356Y-120031744D01*
X77742735Y-120023840D01*
X77848612Y-119996656D01*
X77935930Y-119952087D01*
X78014375Y-119883733D01*
X78027686Y-119868476D01*
X78083455Y-119783235D01*
X78119081Y-119685685D01*
X78131612Y-119579406D01*
X78127819Y-119520164D01*
X78102872Y-119418809D01*
X78056742Y-119327408D01*
X77991905Y-119249678D01*
X77925715Y-119197785D01*
X77835304Y-119154441D01*
X77736708Y-119131359D01*
X77633356Y-119124626D01*
X77235729Y-119124626D01*
X77160191Y-119128092D01*
X77056808Y-119147227D01*
X76962052Y-119186691D01*
X76877180Y-119249678D01*
X76839161Y-119290953D01*
X76784450Y-119376736D01*
X76749663Y-119474126D01*
X76737474Y-119579406D01*
X76230592Y-119579406D01*
X76230425Y-119576475D01*
X76230769Y-119550451D01*
X76238865Y-119448090D01*
X76257297Y-119348967D01*
X76285503Y-119253695D01*
X76322923Y-119162887D01*
X76381800Y-119056587D01*
X76453100Y-118959415D01*
X76535729Y-118872568D01*
X76618867Y-118804678D01*
X76711050Y-118746273D01*
X76812737Y-118698182D01*
X76924385Y-118661231D01*
X77021185Y-118640247D01*
X77124888Y-118627346D01*
X77235729Y-118622951D01*
X77633356Y-118622951D01*
X77744198Y-118627346D01*
G37*
G36*
X79867194Y-118593035D02*
G01*
X79979325Y-118608214D01*
X80079266Y-118640349D01*
X80167410Y-118689541D01*
X80244147Y-118755891D01*
X80309870Y-118839500D01*
X80364968Y-118940467D01*
X81048360Y-120444026D01*
X81079134Y-120530000D01*
X80507606Y-120530000D01*
X80485624Y-120464054D01*
X80384508Y-120228604D01*
X79264410Y-120228604D01*
X79166713Y-120461123D01*
X79146685Y-120530000D01*
X78561479Y-120530000D01*
X78592254Y-120444026D01*
X78877735Y-119810949D01*
X79449546Y-119810949D01*
X80199860Y-119810949D01*
X79908723Y-119135861D01*
X79905331Y-119128361D01*
X79821772Y-119077243D01*
X79818621Y-119077285D01*
X79737753Y-119135861D01*
X79449546Y-119810949D01*
X78877735Y-119810949D01*
X79270272Y-118940467D01*
X79290998Y-118897991D01*
X79349731Y-118803979D01*
X79419027Y-118727286D01*
X79499737Y-118667811D01*
X79592709Y-118625454D01*
X79698794Y-118600113D01*
X79818841Y-118591688D01*
X79867194Y-118593035D01*
G37*
G36*
X82849618Y-118627982D02*
G01*
X82958063Y-118646597D01*
X83065955Y-118684070D01*
X83156098Y-118736611D01*
X83230914Y-118802226D01*
X83293730Y-118881750D01*
X83341434Y-118971669D01*
X83371735Y-119069923D01*
X83382344Y-119174452D01*
X83382211Y-119188531D01*
X83370691Y-119298633D01*
X83337629Y-119401860D01*
X83278859Y-119494868D01*
X83203070Y-119565240D01*
X83236685Y-119587269D01*
X83308831Y-119655923D01*
X83356545Y-119745884D01*
X83379260Y-119848918D01*
X83385275Y-119959937D01*
X83385275Y-120346817D01*
X83386357Y-120426974D01*
X83393580Y-120530000D01*
X82881158Y-120530000D01*
X82877792Y-120502045D01*
X82872854Y-120401528D01*
X82872854Y-120014647D01*
X82850671Y-119912641D01*
X82770005Y-119854380D01*
X82665247Y-119842212D01*
X81783531Y-119842212D01*
X81783531Y-120530000D01*
X81276483Y-120530000D01*
X81276483Y-119138304D01*
X81783531Y-119138304D01*
X81783531Y-119411367D01*
X82679414Y-119411367D01*
X82737251Y-119404373D01*
X82822051Y-119349818D01*
X82824133Y-119347192D01*
X82858688Y-119252609D01*
X82858025Y-119237977D01*
X82816678Y-119146608D01*
X82778012Y-119117164D01*
X82679414Y-119096294D01*
X81825541Y-119096294D01*
X81783531Y-119138304D01*
X81276483Y-119138304D01*
X81276483Y-118740676D01*
X81307990Y-118652505D01*
X81402512Y-118622951D01*
X82746825Y-118622951D01*
X82849618Y-118627982D01*
G37*
G36*
X85612770Y-118622951D02*
G01*
X84224005Y-118622951D01*
X84113578Y-118627769D01*
X83999987Y-118645578D01*
X83904557Y-118675340D01*
X83812670Y-118723518D01*
X83728192Y-118793921D01*
X83660400Y-118878124D01*
X83609368Y-118974050D01*
X83577204Y-119079685D01*
X83566195Y-119178496D01*
X83566015Y-119193014D01*
X83574256Y-119297156D01*
X83598284Y-119393628D01*
X83643737Y-119493467D01*
X83706890Y-119581056D01*
X83725261Y-119600900D01*
X83810403Y-119671226D01*
X83903148Y-119719260D01*
X83999300Y-119748888D01*
X84113416Y-119766595D01*
X84224005Y-119771381D01*
X84993859Y-119771381D01*
X85093932Y-119787863D01*
X85128192Y-119813391D01*
X85167111Y-119905757D01*
X85167271Y-119913042D01*
X85136497Y-119998527D01*
X85045821Y-120042834D01*
X84993859Y-120045910D01*
X83616329Y-120045910D01*
X83616329Y-120530000D01*
X85083740Y-120530000D01*
X85183410Y-120524603D01*
X85289822Y-120504543D01*
X85382755Y-120470774D01*
X85475429Y-120415625D01*
X85552606Y-120345294D01*
X85562456Y-120334117D01*
X85620761Y-120253204D01*
X85664733Y-120163086D01*
X85692493Y-120066282D01*
X85702163Y-119965310D01*
X85690974Y-119857141D01*
X85658810Y-119754284D01*
X85607778Y-119659487D01*
X85539986Y-119575498D01*
X85456127Y-119505095D01*
X85367696Y-119456917D01*
X85263449Y-119423324D01*
X85160225Y-119407627D01*
X85083740Y-119404528D01*
X84251849Y-119404528D01*
X84155847Y-119385281D01*
X84142428Y-119374731D01*
X84096433Y-119288157D01*
X84095045Y-119267752D01*
X84125292Y-119173699D01*
X84134124Y-119163217D01*
X84224974Y-119125679D01*
X84251849Y-119124626D01*
X85612770Y-119124626D01*
X85612770Y-118622951D01*
G37*
G36*
X86171598Y-118622951D02*
G01*
X86066787Y-118635043D01*
X85978470Y-118678637D01*
X85919287Y-118765971D01*
X85902442Y-118877941D01*
X85902442Y-120267194D01*
X85915309Y-120370052D01*
X85961338Y-120456281D01*
X86052674Y-120513734D01*
X86152388Y-120529746D01*
X86168667Y-120530000D01*
X87893510Y-120530000D01*
X87893510Y-120045910D01*
X86454431Y-120045910D01*
X86409490Y-119992177D01*
X86409490Y-119748422D01*
X87885206Y-119748422D01*
X87885206Y-119384501D01*
X86409490Y-119384501D01*
X86409490Y-119171521D01*
X86454431Y-119124626D01*
X87893510Y-119124626D01*
X87893510Y-118622951D01*
X86171598Y-118622951D01*
G37*
X139547618Y-123009580D02*
X139499999Y-123057200D01*
X139499999Y-123057200D02*
X139357142Y-123104819D01*
X139357142Y-123104819D02*
X139261904Y-123104819D01*
X139261904Y-123104819D02*
X139119047Y-123057200D01*
X139119047Y-123057200D02*
X139023809Y-122961961D01*
X139023809Y-122961961D02*
X138976190Y-122866723D01*
X138976190Y-122866723D02*
X138928571Y-122676247D01*
X138928571Y-122676247D02*
X138928571Y-122533390D01*
X138928571Y-122533390D02*
X138976190Y-122342914D01*
X138976190Y-122342914D02*
X139023809Y-122247676D01*
X139023809Y-122247676D02*
X139119047Y-122152438D01*
X139119047Y-122152438D02*
X139261904Y-122104819D01*
X139261904Y-122104819D02*
X139357142Y-122104819D01*
X139357142Y-122104819D02*
X139499999Y-122152438D01*
X139499999Y-122152438D02*
X139547618Y-122200057D01*
X140404761Y-123104819D02*
X140404761Y-122581009D01*
X140404761Y-122581009D02*
X140357142Y-122485771D01*
X140357142Y-122485771D02*
X140261904Y-122438152D01*
X140261904Y-122438152D02*
X140071428Y-122438152D01*
X140071428Y-122438152D02*
X139976190Y-122485771D01*
X140404761Y-123057200D02*
X140309523Y-123104819D01*
X140309523Y-123104819D02*
X140071428Y-123104819D01*
X140071428Y-123104819D02*
X139976190Y-123057200D01*
X139976190Y-123057200D02*
X139928571Y-122961961D01*
X139928571Y-122961961D02*
X139928571Y-122866723D01*
X139928571Y-122866723D02*
X139976190Y-122771485D01*
X139976190Y-122771485D02*
X140071428Y-122723866D01*
X140071428Y-122723866D02*
X140309523Y-122723866D01*
X140309523Y-122723866D02*
X140404761Y-122676247D01*
X141023809Y-123104819D02*
X140928571Y-123057200D01*
X140928571Y-123057200D02*
X140880952Y-122961961D01*
X140880952Y-122961961D02*
X140880952Y-122104819D01*
X141404762Y-123104819D02*
X141404762Y-122438152D01*
X141404762Y-122104819D02*
X141357143Y-122152438D01*
X141357143Y-122152438D02*
X141404762Y-122200057D01*
X141404762Y-122200057D02*
X141452381Y-122152438D01*
X141452381Y-122152438D02*
X141404762Y-122104819D01*
X141404762Y-122104819D02*
X141404762Y-122200057D01*
X141880952Y-123104819D02*
X141880952Y-122104819D01*
X141880952Y-122485771D02*
X141976190Y-122438152D01*
X141976190Y-122438152D02*
X142166666Y-122438152D01*
X142166666Y-122438152D02*
X142261904Y-122485771D01*
X142261904Y-122485771D02*
X142309523Y-122533390D01*
X142309523Y-122533390D02*
X142357142Y-122628628D01*
X142357142Y-122628628D02*
X142357142Y-122914342D01*
X142357142Y-122914342D02*
X142309523Y-123009580D01*
X142309523Y-123009580D02*
X142261904Y-123057200D01*
X142261904Y-123057200D02*
X142166666Y-123104819D01*
X142166666Y-123104819D02*
X141976190Y-123104819D01*
X141976190Y-123104819D02*
X141880952Y-123057200D01*
X143976190Y-122438152D02*
X143976190Y-123104819D01*
X143738095Y-122057200D02*
X143500000Y-122771485D01*
X143500000Y-122771485D02*
X144119047Y-122771485D01*
X115547618Y-123009580D02*
X115499999Y-123057200D01*
X115499999Y-123057200D02*
X115357142Y-123104819D01*
X115357142Y-123104819D02*
X115261904Y-123104819D01*
X115261904Y-123104819D02*
X115119047Y-123057200D01*
X115119047Y-123057200D02*
X115023809Y-122961961D01*
X115023809Y-122961961D02*
X114976190Y-122866723D01*
X114976190Y-122866723D02*
X114928571Y-122676247D01*
X114928571Y-122676247D02*
X114928571Y-122533390D01*
X114928571Y-122533390D02*
X114976190Y-122342914D01*
X114976190Y-122342914D02*
X115023809Y-122247676D01*
X115023809Y-122247676D02*
X115119047Y-122152438D01*
X115119047Y-122152438D02*
X115261904Y-122104819D01*
X115261904Y-122104819D02*
X115357142Y-122104819D01*
X115357142Y-122104819D02*
X115499999Y-122152438D01*
X115499999Y-122152438D02*
X115547618Y-122200057D01*
X116404761Y-123104819D02*
X116404761Y-122581009D01*
X116404761Y-122581009D02*
X116357142Y-122485771D01*
X116357142Y-122485771D02*
X116261904Y-122438152D01*
X116261904Y-122438152D02*
X116071428Y-122438152D01*
X116071428Y-122438152D02*
X115976190Y-122485771D01*
X116404761Y-123057200D02*
X116309523Y-123104819D01*
X116309523Y-123104819D02*
X116071428Y-123104819D01*
X116071428Y-123104819D02*
X115976190Y-123057200D01*
X115976190Y-123057200D02*
X115928571Y-122961961D01*
X115928571Y-122961961D02*
X115928571Y-122866723D01*
X115928571Y-122866723D02*
X115976190Y-122771485D01*
X115976190Y-122771485D02*
X116071428Y-122723866D01*
X116071428Y-122723866D02*
X116309523Y-122723866D01*
X116309523Y-122723866D02*
X116404761Y-122676247D01*
X117023809Y-123104819D02*
X116928571Y-123057200D01*
X116928571Y-123057200D02*
X116880952Y-122961961D01*
X116880952Y-122961961D02*
X116880952Y-122104819D01*
X117404762Y-123104819D02*
X117404762Y-122438152D01*
X117404762Y-122104819D02*
X117357143Y-122152438D01*
X117357143Y-122152438D02*
X117404762Y-122200057D01*
X117404762Y-122200057D02*
X117452381Y-122152438D01*
X117452381Y-122152438D02*
X117404762Y-122104819D01*
X117404762Y-122104819D02*
X117404762Y-122200057D01*
X117880952Y-123104819D02*
X117880952Y-122104819D01*
X117880952Y-122485771D02*
X117976190Y-122438152D01*
X117976190Y-122438152D02*
X118166666Y-122438152D01*
X118166666Y-122438152D02*
X118261904Y-122485771D01*
X118261904Y-122485771D02*
X118309523Y-122533390D01*
X118309523Y-122533390D02*
X118357142Y-122628628D01*
X118357142Y-122628628D02*
X118357142Y-122914342D01*
X118357142Y-122914342D02*
X118309523Y-123009580D01*
X118309523Y-123009580D02*
X118261904Y-123057200D01*
X118261904Y-123057200D02*
X118166666Y-123104819D01*
X118166666Y-123104819D02*
X117976190Y-123104819D01*
X117976190Y-123104819D02*
X117880952Y-123057200D01*
X120071428Y-123104819D02*
X119500000Y-123104819D01*
X119785714Y-123104819D02*
X119785714Y-122104819D01*
X119785714Y-122104819D02*
X119690476Y-122247676D01*
X119690476Y-122247676D02*
X119595238Y-122342914D01*
X119595238Y-122342914D02*
X119500000Y-122390533D01*
X131547618Y-123009580D02*
X131499999Y-123057200D01*
X131499999Y-123057200D02*
X131357142Y-123104819D01*
X131357142Y-123104819D02*
X131261904Y-123104819D01*
X131261904Y-123104819D02*
X131119047Y-123057200D01*
X131119047Y-123057200D02*
X131023809Y-122961961D01*
X131023809Y-122961961D02*
X130976190Y-122866723D01*
X130976190Y-122866723D02*
X130928571Y-122676247D01*
X130928571Y-122676247D02*
X130928571Y-122533390D01*
X130928571Y-122533390D02*
X130976190Y-122342914D01*
X130976190Y-122342914D02*
X131023809Y-122247676D01*
X131023809Y-122247676D02*
X131119047Y-122152438D01*
X131119047Y-122152438D02*
X131261904Y-122104819D01*
X131261904Y-122104819D02*
X131357142Y-122104819D01*
X131357142Y-122104819D02*
X131499999Y-122152438D01*
X131499999Y-122152438D02*
X131547618Y-122200057D01*
X132404761Y-123104819D02*
X132404761Y-122581009D01*
X132404761Y-122581009D02*
X132357142Y-122485771D01*
X132357142Y-122485771D02*
X132261904Y-122438152D01*
X132261904Y-122438152D02*
X132071428Y-122438152D01*
X132071428Y-122438152D02*
X131976190Y-122485771D01*
X132404761Y-123057200D02*
X132309523Y-123104819D01*
X132309523Y-123104819D02*
X132071428Y-123104819D01*
X132071428Y-123104819D02*
X131976190Y-123057200D01*
X131976190Y-123057200D02*
X131928571Y-122961961D01*
X131928571Y-122961961D02*
X131928571Y-122866723D01*
X131928571Y-122866723D02*
X131976190Y-122771485D01*
X131976190Y-122771485D02*
X132071428Y-122723866D01*
X132071428Y-122723866D02*
X132309523Y-122723866D01*
X132309523Y-122723866D02*
X132404761Y-122676247D01*
X133023809Y-123104819D02*
X132928571Y-123057200D01*
X132928571Y-123057200D02*
X132880952Y-122961961D01*
X132880952Y-122961961D02*
X132880952Y-122104819D01*
X133404762Y-123104819D02*
X133404762Y-122438152D01*
X133404762Y-122104819D02*
X133357143Y-122152438D01*
X133357143Y-122152438D02*
X133404762Y-122200057D01*
X133404762Y-122200057D02*
X133452381Y-122152438D01*
X133452381Y-122152438D02*
X133404762Y-122104819D01*
X133404762Y-122104819D02*
X133404762Y-122200057D01*
X133880952Y-123104819D02*
X133880952Y-122104819D01*
X133880952Y-122485771D02*
X133976190Y-122438152D01*
X133976190Y-122438152D02*
X134166666Y-122438152D01*
X134166666Y-122438152D02*
X134261904Y-122485771D01*
X134261904Y-122485771D02*
X134309523Y-122533390D01*
X134309523Y-122533390D02*
X134357142Y-122628628D01*
X134357142Y-122628628D02*
X134357142Y-122914342D01*
X134357142Y-122914342D02*
X134309523Y-123009580D01*
X134309523Y-123009580D02*
X134261904Y-123057200D01*
X134261904Y-123057200D02*
X134166666Y-123104819D01*
X134166666Y-123104819D02*
X133976190Y-123104819D01*
X133976190Y-123104819D02*
X133880952Y-123057200D01*
X135452381Y-122104819D02*
X136071428Y-122104819D01*
X136071428Y-122104819D02*
X135738095Y-122485771D01*
X135738095Y-122485771D02*
X135880952Y-122485771D01*
X135880952Y-122485771D02*
X135976190Y-122533390D01*
X135976190Y-122533390D02*
X136023809Y-122581009D01*
X136023809Y-122581009D02*
X136071428Y-122676247D01*
X136071428Y-122676247D02*
X136071428Y-122914342D01*
X136071428Y-122914342D02*
X136023809Y-123009580D01*
X136023809Y-123009580D02*
X135976190Y-123057200D01*
X135976190Y-123057200D02*
X135880952Y-123104819D01*
X135880952Y-123104819D02*
X135595238Y-123104819D01*
X135595238Y-123104819D02*
X135500000Y-123057200D01*
X135500000Y-123057200D02*
X135452381Y-123009580D01*
G36*
X131541271Y-214476577D02*
G01*
X131650187Y-214490919D01*
X131747070Y-214515493D01*
X131849005Y-214557482D01*
X131937121Y-214611939D01*
X132013328Y-214677627D01*
X132037422Y-214702857D01*
X132101790Y-214785231D01*
X132153535Y-214876518D01*
X132191692Y-214975288D01*
X132215295Y-215080112D01*
X132223377Y-215189560D01*
X132220530Y-215254337D01*
X132202352Y-215364098D01*
X132168431Y-215467990D01*
X132119994Y-215564510D01*
X132058269Y-215652156D01*
X132033331Y-215680457D01*
X131949009Y-215757119D01*
X131867090Y-215810535D01*
X131773734Y-215853290D01*
X131668146Y-215884309D01*
X131549533Y-215902520D01*
X131444731Y-215907145D01*
X130574250Y-215907145D01*
X130574250Y-216380000D01*
X130067201Y-216380000D01*
X130067201Y-215015170D01*
X130574250Y-215015170D01*
X130574250Y-215442107D01*
X131455966Y-215442107D01*
X131495904Y-215440503D01*
X131598303Y-215414427D01*
X131674808Y-215349295D01*
X131699321Y-215307389D01*
X131719260Y-215210076D01*
X131713472Y-215153113D01*
X131671877Y-215061577D01*
X131645728Y-215034143D01*
X131553788Y-214986226D01*
X131455966Y-214974626D01*
X130610398Y-214974626D01*
X130574250Y-215015170D01*
X130067201Y-215015170D01*
X130067201Y-214590676D01*
X130094592Y-214506306D01*
X130190300Y-214472951D01*
X131444731Y-214472951D01*
X131541271Y-214476577D01*
G37*
G36*
X134014654Y-214883768D02*
G01*
X134076692Y-214939944D01*
X134348290Y-215988722D01*
X134381151Y-216088924D01*
X134435472Y-216194752D01*
X134504790Y-216279259D01*
X134589408Y-216342724D01*
X134689627Y-216385426D01*
X134805749Y-216407646D01*
X134883182Y-216411263D01*
X135003196Y-216403451D01*
X135107542Y-216380732D01*
X135216840Y-216333012D01*
X135303730Y-216265783D01*
X135369363Y-216181149D01*
X135414892Y-216081210D01*
X135437613Y-215991653D01*
X135689183Y-214563321D01*
X135697976Y-214472951D01*
X135168458Y-214472951D01*
X135163084Y-214546224D01*
X134947173Y-215845596D01*
X134880251Y-215910076D01*
X134812840Y-215851458D01*
X134530007Y-214816357D01*
X134491598Y-214708800D01*
X134440527Y-214619283D01*
X134359708Y-214535783D01*
X134273734Y-214486226D01*
X134168692Y-214454958D01*
X134069584Y-214443164D01*
X134014654Y-214441688D01*
X133907382Y-214447632D01*
X133792083Y-214472009D01*
X133695952Y-214515611D01*
X133617156Y-214578865D01*
X133553860Y-214662194D01*
X133504231Y-214766024D01*
X133480251Y-214838339D01*
X133191556Y-215851458D01*
X133124633Y-215910076D01*
X133057222Y-215846085D01*
X132858409Y-214556482D01*
X132853035Y-214472951D01*
X132318143Y-214472951D01*
X132326448Y-214563321D01*
X132561409Y-215988722D01*
X132589356Y-216096812D01*
X132636923Y-216193436D01*
X132705339Y-216275790D01*
X132795835Y-216341067D01*
X132909640Y-216386460D01*
X133018292Y-216406572D01*
X133110467Y-216411263D01*
X133214301Y-216405048D01*
X133329308Y-216379450D01*
X133428305Y-216333436D01*
X133511738Y-216266358D01*
X133580055Y-216177568D01*
X133633703Y-216066416D01*
X133659037Y-215988722D01*
X133953105Y-214939944D01*
X134014654Y-214883768D01*
G37*
G36*
X138475994Y-216411263D02*
G01*
X138574264Y-216401142D01*
X138674195Y-216364398D01*
X138755282Y-216298920D01*
X138794975Y-216238339D01*
X139368946Y-215050830D01*
X139405582Y-215028848D01*
X139450035Y-215079162D01*
X139450035Y-216380000D01*
X139937543Y-216380000D01*
X139937543Y-214991723D01*
X139930855Y-214880217D01*
X139911242Y-214784269D01*
X139872927Y-214689934D01*
X139810100Y-214602329D01*
X139761200Y-214556971D01*
X139674325Y-214500362D01*
X139582905Y-214463491D01*
X139479827Y-214443877D01*
X139430495Y-214441688D01*
X139324788Y-214451882D01*
X139215570Y-214489350D01*
X139123361Y-214551518D01*
X139045802Y-214635392D01*
X138990662Y-214719708D01*
X138951779Y-214795352D01*
X138523377Y-215726894D01*
X138475994Y-215763042D01*
X138428123Y-215726894D01*
X137999721Y-214795352D01*
X137950428Y-214701889D01*
X137893688Y-214620033D01*
X137813852Y-214539569D01*
X137718971Y-214481309D01*
X137606690Y-214448249D01*
X137521005Y-214441688D01*
X137413018Y-214452418D01*
X137316313Y-214482086D01*
X137223123Y-214532663D01*
X137190300Y-214556971D01*
X137115554Y-214632869D01*
X137060179Y-214728185D01*
X137028878Y-214830395D01*
X137015643Y-214933928D01*
X137013956Y-214991723D01*
X137013956Y-216380000D01*
X137501465Y-216380000D01*
X137501465Y-215081605D01*
X137545917Y-215031290D01*
X137582554Y-215053272D01*
X138156525Y-216245666D01*
X138220677Y-216326780D01*
X138308998Y-216380355D01*
X138413664Y-216407371D01*
X138475994Y-216411263D01*
G37*
G36*
X141681881Y-214477346D02*
G01*
X141785584Y-214490247D01*
X141882383Y-214511231D01*
X141994032Y-214548182D01*
X142095718Y-214596273D01*
X142187901Y-214654678D01*
X142271040Y-214722568D01*
X142288419Y-214739054D01*
X142368870Y-214828062D01*
X142437773Y-214927155D01*
X142494033Y-215035137D01*
X142529202Y-215127119D01*
X142555018Y-215223410D01*
X142570918Y-215323400D01*
X142576343Y-215426475D01*
X142575269Y-215473693D01*
X142563437Y-215588691D01*
X142539146Y-215698681D01*
X142503155Y-215802849D01*
X142456225Y-215900378D01*
X142399116Y-215990451D01*
X142332589Y-216072254D01*
X142281808Y-216123866D01*
X142188111Y-216200710D01*
X142104810Y-216253346D01*
X142013913Y-216297568D01*
X141915253Y-216332859D01*
X141808665Y-216358705D01*
X141693982Y-216374590D01*
X141571040Y-216380000D01*
X141173412Y-216380000D01*
X141110898Y-216378636D01*
X140992106Y-216367925D01*
X140881491Y-216346995D01*
X140778888Y-216316362D01*
X140684130Y-216276541D01*
X140597052Y-216228048D01*
X140498750Y-216156020D01*
X140411863Y-216072254D01*
X140384170Y-216040577D01*
X140321319Y-215955369D01*
X140268191Y-215862215D01*
X140225545Y-215761933D01*
X140194143Y-215655338D01*
X140174744Y-215543247D01*
X140168276Y-215429406D01*
X140675157Y-215429406D01*
X140675674Y-215451189D01*
X140693060Y-215556008D01*
X140732950Y-215651382D01*
X140792393Y-215733733D01*
X140870838Y-215802087D01*
X140958157Y-215846656D01*
X141064034Y-215873840D01*
X141173412Y-215881744D01*
X141571040Y-215881744D01*
X141680418Y-215873840D01*
X141786295Y-215846656D01*
X141873614Y-215802087D01*
X141952058Y-215733733D01*
X141965369Y-215718476D01*
X142021138Y-215633235D01*
X142056764Y-215535685D01*
X142069295Y-215429406D01*
X142065502Y-215370164D01*
X142040556Y-215268809D01*
X141994425Y-215177408D01*
X141929588Y-215099678D01*
X141863398Y-215047785D01*
X141772987Y-215004441D01*
X141674391Y-214981359D01*
X141571040Y-214974626D01*
X141173412Y-214974626D01*
X141097874Y-214978092D01*
X140994491Y-214997227D01*
X140899735Y-215036691D01*
X140814864Y-215099678D01*
X140776844Y-215140953D01*
X140722133Y-215226736D01*
X140687346Y-215324126D01*
X140675157Y-215429406D01*
X140168276Y-215429406D01*
X140168109Y-215426475D01*
X140168452Y-215400451D01*
X140176548Y-215298090D01*
X140194980Y-215198967D01*
X140223187Y-215103695D01*
X140260606Y-215012887D01*
X140319483Y-214906587D01*
X140390784Y-214809415D01*
X140473412Y-214722568D01*
X140556550Y-214654678D01*
X140648733Y-214596273D01*
X140750420Y-214548182D01*
X140862068Y-214511231D01*
X140958868Y-214490247D01*
X141062571Y-214477346D01*
X141173412Y-214472951D01*
X141571040Y-214472951D01*
X141681881Y-214477346D01*
G37*
G36*
X144074972Y-214477346D02*
G01*
X144178675Y-214490247D01*
X144275475Y-214511231D01*
X144387123Y-214548182D01*
X144488810Y-214596273D01*
X144580993Y-214654678D01*
X144664131Y-214722568D01*
X144681510Y-214739054D01*
X144761961Y-214828062D01*
X144830864Y-214927155D01*
X144887125Y-215035137D01*
X144922294Y-215127119D01*
X144948109Y-215223410D01*
X144964010Y-215323400D01*
X144969434Y-215426475D01*
X144968355Y-215473693D01*
X144956474Y-215588691D01*
X144932108Y-215698681D01*
X144896052Y-215802849D01*
X144849100Y-215900378D01*
X144792044Y-215990451D01*
X144725680Y-216072254D01*
X144674775Y-216123866D01*
X144580928Y-216200710D01*
X144497558Y-216253346D01*
X144406638Y-216297568D01*
X144308001Y-216332859D01*
X144201482Y-216358705D01*
X144086914Y-216374590D01*
X143964131Y-216380000D01*
X142941730Y-216380000D01*
X142853761Y-216353938D01*
X142818632Y-216259832D01*
X142818632Y-215014193D01*
X143325680Y-215014193D01*
X143325680Y-215842177D01*
X143361828Y-215881744D01*
X143964131Y-215881744D01*
X144073504Y-215873840D01*
X144179336Y-215846656D01*
X144266524Y-215802087D01*
X144344661Y-215733733D01*
X144357978Y-215718476D01*
X144413896Y-215633235D01*
X144449742Y-215535685D01*
X144462386Y-215429406D01*
X144458561Y-215370164D01*
X144433448Y-215268809D01*
X144387122Y-215177408D01*
X144322191Y-215099678D01*
X144256009Y-215047785D01*
X144165663Y-215004441D01*
X144067227Y-214981359D01*
X143964131Y-214974626D01*
X143361828Y-214974626D01*
X143325680Y-215014193D01*
X142818632Y-215014193D01*
X142818632Y-214590676D01*
X142846022Y-214506306D01*
X142941730Y-214472951D01*
X143964131Y-214472951D01*
X144074972Y-214477346D01*
G37*
G36*
X121168347Y-163426577D02*
G01*
X121277263Y-163440919D01*
X121374146Y-163465493D01*
X121476081Y-163507482D01*
X121564197Y-163561939D01*
X121640404Y-163627627D01*
X121664498Y-163652857D01*
X121728866Y-163735231D01*
X121780611Y-163826518D01*
X121818768Y-163925288D01*
X121842371Y-164030112D01*
X121850453Y-164139560D01*
X121847606Y-164204337D01*
X121829428Y-164314098D01*
X121795507Y-164417990D01*
X121747070Y-164514510D01*
X121685345Y-164602156D01*
X121660407Y-164630457D01*
X121576085Y-164707119D01*
X121494166Y-164760535D01*
X121400810Y-164803290D01*
X121295222Y-164834309D01*
X121176609Y-164852520D01*
X121071807Y-164857145D01*
X120201326Y-164857145D01*
X120201326Y-165330000D01*
X119694277Y-165330000D01*
X119694277Y-163965170D01*
X120201326Y-163965170D01*
X120201326Y-164392107D01*
X121083042Y-164392107D01*
X121122980Y-164390503D01*
X121225379Y-164364427D01*
X121301884Y-164299295D01*
X121326397Y-164257389D01*
X121346336Y-164160076D01*
X121340548Y-164103113D01*
X121298953Y-164011577D01*
X121272804Y-163984143D01*
X121180864Y-163936226D01*
X121083042Y-163924626D01*
X120237474Y-163924626D01*
X120201326Y-163965170D01*
X119694277Y-163965170D01*
X119694277Y-163540676D01*
X119721668Y-163456306D01*
X119817376Y-163422951D01*
X121071807Y-163422951D01*
X121168347Y-163426577D01*
G37*
G36*
X123555757Y-165330000D02*
G01*
X123682055Y-165325158D01*
X123793652Y-165310435D01*
X123891046Y-165285530D01*
X123999671Y-165235967D01*
X124085108Y-165167062D01*
X124148538Y-165078104D01*
X124191139Y-164968383D01*
X124210131Y-164872040D01*
X124218568Y-164763320D01*
X124219120Y-164724277D01*
X124219120Y-163422951D01*
X123709630Y-163422951D01*
X123709630Y-164667613D01*
X123687692Y-164770353D01*
X123604529Y-164835156D01*
X123522051Y-164845910D01*
X122735101Y-164845910D01*
X122636996Y-164828466D01*
X122566531Y-164753731D01*
X122552896Y-164667613D01*
X122552896Y-163422951D01*
X122043405Y-163422951D01*
X122043405Y-164724277D01*
X122048434Y-164837190D01*
X122063855Y-164937626D01*
X122101446Y-165052648D01*
X122159584Y-165146730D01*
X122239455Y-165220582D01*
X122342244Y-165274914D01*
X122469135Y-165310435D01*
X122580834Y-165325158D01*
X122707257Y-165330000D01*
X123555757Y-165330000D01*
G37*
G36*
X126467132Y-165330000D02*
G01*
X126467132Y-164845910D01*
X125153594Y-164845910D01*
X125056393Y-164831820D01*
X124993332Y-164751526D01*
X124985554Y-164664682D01*
X124985554Y-163422951D01*
X124476064Y-163422951D01*
X124476064Y-164713042D01*
X124480190Y-164823638D01*
X124493101Y-164923255D01*
X124525363Y-165039040D01*
X124576558Y-165135399D01*
X124648582Y-165212383D01*
X124743329Y-165270045D01*
X124862693Y-165308435D01*
X124969513Y-165324612D01*
X125092044Y-165330000D01*
X126467132Y-165330000D01*
G37*
G36*
X128641870Y-163422951D02*
G01*
X127253105Y-163422951D01*
X127142678Y-163427769D01*
X127029087Y-163445578D01*
X126933657Y-163475340D01*
X126841770Y-163523518D01*
X126757292Y-163593921D01*
X126689499Y-163678124D01*
X126638468Y-163774050D01*
X126606304Y-163879685D01*
X126595294Y-163978496D01*
X126595115Y-163993014D01*
X126603356Y-164097156D01*
X126627384Y-164193628D01*
X126672837Y-164293467D01*
X126735990Y-164381056D01*
X126754361Y-164400900D01*
X126839503Y-164471226D01*
X126932248Y-164519260D01*
X127028400Y-164548888D01*
X127142515Y-164566595D01*
X127253105Y-164571381D01*
X128022958Y-164571381D01*
X128123031Y-164587863D01*
X128157292Y-164613391D01*
X128196211Y-164705757D01*
X128196371Y-164713042D01*
X128165596Y-164798527D01*
X128074921Y-164842834D01*
X128022958Y-164845910D01*
X126645429Y-164845910D01*
X126645429Y-165330000D01*
X128112840Y-165330000D01*
X128212510Y-165324603D01*
X128318922Y-165304543D01*
X128411854Y-165270774D01*
X128504529Y-165215625D01*
X128581706Y-165145294D01*
X128591556Y-165134117D01*
X128649861Y-165053204D01*
X128693833Y-164963086D01*
X128721592Y-164866282D01*
X128731263Y-164765310D01*
X128720073Y-164657141D01*
X128687910Y-164554284D01*
X128636878Y-164459487D01*
X128569086Y-164375498D01*
X128485226Y-164305095D01*
X128396796Y-164256917D01*
X128292549Y-164223324D01*
X128189325Y-164207627D01*
X128112840Y-164204528D01*
X127280949Y-164204528D01*
X127184947Y-164185281D01*
X127171528Y-164174731D01*
X127125533Y-164088157D01*
X127124145Y-164067752D01*
X127154392Y-163973699D01*
X127163224Y-163963217D01*
X127254074Y-163925679D01*
X127280949Y-163924626D01*
X128641870Y-163924626D01*
X128641870Y-163422951D01*
G37*
G36*
X129200698Y-163422951D02*
G01*
X129095887Y-163435043D01*
X129007569Y-163478637D01*
X128948387Y-163565971D01*
X128931542Y-163677941D01*
X128931542Y-165067194D01*
X128944409Y-165170052D01*
X128990438Y-165256281D01*
X129081774Y-165313734D01*
X129181488Y-165329746D01*
X129197767Y-165330000D01*
X130922610Y-165330000D01*
X130922610Y-164845910D01*
X129483531Y-164845910D01*
X129438590Y-164792177D01*
X129438590Y-164548422D01*
X130914305Y-164548422D01*
X130914305Y-164184501D01*
X129438590Y-164184501D01*
X129438590Y-163971521D01*
X129483531Y-163924626D01*
X130922610Y-163924626D01*
X130922610Y-163422951D01*
X129200698Y-163422951D01*
G37*
G36*
X133905792Y-163833768D02*
G01*
X133967829Y-163889944D01*
X134239427Y-164938722D01*
X134272289Y-165038924D01*
X134326609Y-165144752D01*
X134395928Y-165229259D01*
X134480545Y-165292724D01*
X134580764Y-165335426D01*
X134696887Y-165357646D01*
X134774319Y-165361263D01*
X134894333Y-165353451D01*
X134998679Y-165330732D01*
X135107977Y-165283012D01*
X135194867Y-165215783D01*
X135260501Y-165131149D01*
X135306029Y-165031210D01*
X135328751Y-164941653D01*
X135580321Y-163513321D01*
X135589113Y-163422951D01*
X135059595Y-163422951D01*
X135054222Y-163496224D01*
X134838311Y-164795596D01*
X134771388Y-164860076D01*
X134703977Y-164801458D01*
X134421144Y-163766357D01*
X134382736Y-163658800D01*
X134331665Y-163569283D01*
X134250846Y-163485783D01*
X134164871Y-163436226D01*
X134059829Y-163404958D01*
X133960722Y-163393164D01*
X133905792Y-163391688D01*
X133798519Y-163397632D01*
X133683221Y-163422009D01*
X133587090Y-163465611D01*
X133508293Y-163528865D01*
X133444997Y-163612194D01*
X133395368Y-163716024D01*
X133371388Y-163788339D01*
X133082693Y-164801458D01*
X133015771Y-164860076D01*
X132948360Y-164796085D01*
X132749546Y-163506482D01*
X132744173Y-163422951D01*
X132209281Y-163422951D01*
X132217585Y-163513321D01*
X132452547Y-164938722D01*
X132480494Y-165046812D01*
X132528061Y-165143436D01*
X132596477Y-165225790D01*
X132686972Y-165291067D01*
X132800777Y-165336460D01*
X132909430Y-165356572D01*
X133001605Y-165361263D01*
X133105438Y-165355048D01*
X133220445Y-165329450D01*
X133319442Y-165283436D01*
X133402875Y-165216358D01*
X133471192Y-165127568D01*
X133524840Y-165016416D01*
X133550174Y-164938722D01*
X133844243Y-163889944D01*
X133905792Y-163833768D01*
G37*
G36*
X135791835Y-163422951D02*
G01*
X135791835Y-165330000D01*
X136301326Y-165330000D01*
X136301326Y-163422951D01*
X135791835Y-163422951D01*
G37*
G36*
X137840499Y-163427346D02*
G01*
X137944202Y-163440247D01*
X138041002Y-163461231D01*
X138152650Y-163498182D01*
X138254337Y-163546273D01*
X138346520Y-163604678D01*
X138429658Y-163672568D01*
X138447037Y-163689054D01*
X138527488Y-163778062D01*
X138596391Y-163877155D01*
X138652651Y-163985137D01*
X138687821Y-164077119D01*
X138713636Y-164173410D01*
X138729536Y-164273400D01*
X138734961Y-164376475D01*
X138733882Y-164423693D01*
X138722001Y-164538691D01*
X138697635Y-164648681D01*
X138661579Y-164752849D01*
X138614626Y-164850378D01*
X138557571Y-164940451D01*
X138491207Y-165022254D01*
X138440302Y-165073866D01*
X138346455Y-165150710D01*
X138263085Y-165203346D01*
X138172165Y-165247568D01*
X138073528Y-165282859D01*
X137967008Y-165308705D01*
X137852440Y-165324590D01*
X137729658Y-165330000D01*
X136707257Y-165330000D01*
X136619288Y-165303938D01*
X136584159Y-165209832D01*
X136584159Y-163964193D01*
X137091207Y-163964193D01*
X137091207Y-164792177D01*
X137127355Y-164831744D01*
X137729658Y-164831744D01*
X137839031Y-164823840D01*
X137944863Y-164796656D01*
X138032050Y-164752087D01*
X138110188Y-164683733D01*
X138123505Y-164668476D01*
X138179422Y-164583235D01*
X138215269Y-164485685D01*
X138227913Y-164379406D01*
X138224088Y-164320164D01*
X138198975Y-164218809D01*
X138152649Y-164127408D01*
X138087718Y-164049678D01*
X138021536Y-163997785D01*
X137931190Y-163954441D01*
X137832754Y-163931359D01*
X137729658Y-163924626D01*
X137127355Y-163924626D01*
X137091207Y-163964193D01*
X136584159Y-163964193D01*
X136584159Y-163540676D01*
X136611549Y-163456306D01*
X136707257Y-163422951D01*
X137729658Y-163422951D01*
X137840499Y-163427346D01*
G37*
G36*
X138782344Y-163422951D02*
G01*
X138782344Y-163924626D01*
X139614236Y-163924626D01*
X139614236Y-165330000D01*
X140123726Y-165330000D01*
X140123726Y-163924626D01*
X140952686Y-163924626D01*
X140952686Y-163422951D01*
X138782344Y-163422951D01*
G37*
G36*
X142791346Y-163422951D02*
G01*
X142791346Y-164110739D01*
X141662945Y-164110739D01*
X141662945Y-163422951D01*
X141153454Y-163422951D01*
X141153454Y-165330000D01*
X141662945Y-165330000D01*
X141662945Y-164587013D01*
X142791346Y-164587013D01*
X142791346Y-165330000D01*
X143301326Y-165330000D01*
X143301326Y-163422951D01*
X142791346Y-163422951D01*
G37*
G36*
X80940125Y-214472951D02*
G01*
X80835314Y-214485043D01*
X80746997Y-214528637D01*
X80687815Y-214615971D01*
X80670969Y-214727941D01*
X80670969Y-216117194D01*
X80683837Y-216220052D01*
X80729865Y-216306281D01*
X80821202Y-216363734D01*
X80920915Y-216379746D01*
X80937194Y-216380000D01*
X82662037Y-216380000D01*
X82662037Y-215895910D01*
X81222958Y-215895910D01*
X81178018Y-215842177D01*
X81178018Y-215598422D01*
X82653733Y-215598422D01*
X82653733Y-215234501D01*
X81178018Y-215234501D01*
X81178018Y-215021521D01*
X81222958Y-214974626D01*
X82662037Y-214974626D01*
X82662037Y-214472951D01*
X80940125Y-214472951D01*
G37*
G36*
X84772784Y-214472951D02*
G01*
X84719539Y-214534989D01*
X84190509Y-215048876D01*
X83689323Y-214534989D01*
X83641451Y-214472951D01*
X82936078Y-214472951D01*
X82989323Y-214534989D01*
X83834891Y-215361995D01*
X82857431Y-216320893D01*
X82807117Y-216380000D01*
X83473412Y-216380000D01*
X83523726Y-216323824D01*
X84159734Y-215691723D01*
X84761549Y-216323824D01*
X84806489Y-216380000D01*
X85531891Y-216380000D01*
X85484019Y-216320893D01*
X84526587Y-215361995D01*
X85375087Y-214534989D01*
X85430774Y-214472951D01*
X84772784Y-214472951D01*
G37*
G36*
X87195004Y-214476577D02*
G01*
X87303920Y-214490919D01*
X87400803Y-214515493D01*
X87502739Y-214557482D01*
X87590854Y-214611939D01*
X87667062Y-214677627D01*
X87691156Y-214702857D01*
X87755523Y-214785231D01*
X87807269Y-214876518D01*
X87845426Y-214975288D01*
X87869028Y-215080112D01*
X87877110Y-215189560D01*
X87874264Y-215254337D01*
X87856085Y-215364098D01*
X87822164Y-215467990D01*
X87773728Y-215564510D01*
X87712002Y-215652156D01*
X87687064Y-215680457D01*
X87602742Y-215757119D01*
X87520823Y-215810535D01*
X87427467Y-215853290D01*
X87321879Y-215884309D01*
X87203266Y-215902520D01*
X87098464Y-215907145D01*
X86227983Y-215907145D01*
X86227983Y-216380000D01*
X85720935Y-216380000D01*
X85720935Y-215015170D01*
X86227983Y-215015170D01*
X86227983Y-215442107D01*
X87109699Y-215442107D01*
X87149637Y-215440503D01*
X87252037Y-215414427D01*
X87328541Y-215349295D01*
X87353054Y-215307389D01*
X87372993Y-215210076D01*
X87367205Y-215153113D01*
X87325610Y-215061577D01*
X87299462Y-215034143D01*
X87207521Y-214986226D01*
X87109699Y-214974626D01*
X86264131Y-214974626D01*
X86227983Y-215015170D01*
X85720935Y-215015170D01*
X85720935Y-214590676D01*
X85748325Y-214506306D01*
X85844033Y-214472951D01*
X87098464Y-214472951D01*
X87195004Y-214476577D01*
G37*
G36*
X89547732Y-214472951D02*
G01*
X89449495Y-214481219D01*
X89353414Y-214513196D01*
X89271504Y-214581423D01*
X89222245Y-214683565D01*
X89206128Y-214798596D01*
X89205792Y-214820265D01*
X89205792Y-216380000D01*
X89712840Y-216380000D01*
X89712840Y-215725429D01*
X91188555Y-215725429D01*
X91188555Y-215254528D01*
X89712840Y-215254528D01*
X89712840Y-215056203D01*
X89772492Y-214975887D01*
X89790997Y-214974626D01*
X91196859Y-214974626D01*
X91196859Y-214472951D01*
X89547732Y-214472951D01*
G37*
G36*
X92871388Y-216411263D02*
G01*
X92969658Y-216401142D01*
X93069589Y-216364398D01*
X93150676Y-216298920D01*
X93190369Y-216238339D01*
X93764340Y-215050830D01*
X93800976Y-215028848D01*
X93845429Y-215079162D01*
X93845429Y-216380000D01*
X94332937Y-216380000D01*
X94332937Y-214991723D01*
X94326249Y-214880217D01*
X94306636Y-214784269D01*
X94268321Y-214689934D01*
X94205494Y-214602329D01*
X94156594Y-214556971D01*
X94069719Y-214500362D01*
X93978299Y-214463491D01*
X93875222Y-214443877D01*
X93825889Y-214441688D01*
X93720182Y-214451882D01*
X93610964Y-214489350D01*
X93518755Y-214551518D01*
X93441196Y-214635392D01*
X93386056Y-214719708D01*
X93347173Y-214795352D01*
X92918771Y-215726894D01*
X92871388Y-215763042D01*
X92823517Y-215726894D01*
X92395115Y-214795352D01*
X92345822Y-214701889D01*
X92289082Y-214620033D01*
X92209246Y-214539569D01*
X92114365Y-214481309D01*
X92002084Y-214448249D01*
X91916399Y-214441688D01*
X91808412Y-214452418D01*
X91711707Y-214482086D01*
X91618517Y-214532663D01*
X91585694Y-214556971D01*
X91510948Y-214632869D01*
X91455573Y-214728185D01*
X91424272Y-214830395D01*
X91411037Y-214933928D01*
X91409351Y-214991723D01*
X91409351Y-216380000D01*
X91896859Y-216380000D01*
X91896859Y-215081605D01*
X91941311Y-215031290D01*
X91977948Y-215053272D01*
X92551919Y-216245666D01*
X92616071Y-216326780D01*
X92704392Y-216380355D01*
X92809058Y-216407371D01*
X92871388Y-216411263D01*
G37*
X123547618Y-123009580D02*
X123499999Y-123057200D01*
X123499999Y-123057200D02*
X123357142Y-123104819D01*
X123357142Y-123104819D02*
X123261904Y-123104819D01*
X123261904Y-123104819D02*
X123119047Y-123057200D01*
X123119047Y-123057200D02*
X123023809Y-122961961D01*
X123023809Y-122961961D02*
X122976190Y-122866723D01*
X122976190Y-122866723D02*
X122928571Y-122676247D01*
X122928571Y-122676247D02*
X122928571Y-122533390D01*
X122928571Y-122533390D02*
X122976190Y-122342914D01*
X122976190Y-122342914D02*
X123023809Y-122247676D01*
X123023809Y-122247676D02*
X123119047Y-122152438D01*
X123119047Y-122152438D02*
X123261904Y-122104819D01*
X123261904Y-122104819D02*
X123357142Y-122104819D01*
X123357142Y-122104819D02*
X123499999Y-122152438D01*
X123499999Y-122152438D02*
X123547618Y-122200057D01*
X124404761Y-123104819D02*
X124404761Y-122581009D01*
X124404761Y-122581009D02*
X124357142Y-122485771D01*
X124357142Y-122485771D02*
X124261904Y-122438152D01*
X124261904Y-122438152D02*
X124071428Y-122438152D01*
X124071428Y-122438152D02*
X123976190Y-122485771D01*
X124404761Y-123057200D02*
X124309523Y-123104819D01*
X124309523Y-123104819D02*
X124071428Y-123104819D01*
X124071428Y-123104819D02*
X123976190Y-123057200D01*
X123976190Y-123057200D02*
X123928571Y-122961961D01*
X123928571Y-122961961D02*
X123928571Y-122866723D01*
X123928571Y-122866723D02*
X123976190Y-122771485D01*
X123976190Y-122771485D02*
X124071428Y-122723866D01*
X124071428Y-122723866D02*
X124309523Y-122723866D01*
X124309523Y-122723866D02*
X124404761Y-122676247D01*
X125023809Y-123104819D02*
X124928571Y-123057200D01*
X124928571Y-123057200D02*
X124880952Y-122961961D01*
X124880952Y-122961961D02*
X124880952Y-122104819D01*
X125404762Y-123104819D02*
X125404762Y-122438152D01*
X125404762Y-122104819D02*
X125357143Y-122152438D01*
X125357143Y-122152438D02*
X125404762Y-122200057D01*
X125404762Y-122200057D02*
X125452381Y-122152438D01*
X125452381Y-122152438D02*
X125404762Y-122104819D01*
X125404762Y-122104819D02*
X125404762Y-122200057D01*
X125880952Y-123104819D02*
X125880952Y-122104819D01*
X125880952Y-122485771D02*
X125976190Y-122438152D01*
X125976190Y-122438152D02*
X126166666Y-122438152D01*
X126166666Y-122438152D02*
X126261904Y-122485771D01*
X126261904Y-122485771D02*
X126309523Y-122533390D01*
X126309523Y-122533390D02*
X126357142Y-122628628D01*
X126357142Y-122628628D02*
X126357142Y-122914342D01*
X126357142Y-122914342D02*
X126309523Y-123009580D01*
X126309523Y-123009580D02*
X126261904Y-123057200D01*
X126261904Y-123057200D02*
X126166666Y-123104819D01*
X126166666Y-123104819D02*
X125976190Y-123104819D01*
X125976190Y-123104819D02*
X125880952Y-123057200D01*
X127500000Y-122200057D02*
X127547619Y-122152438D01*
X127547619Y-122152438D02*
X127642857Y-122104819D01*
X127642857Y-122104819D02*
X127880952Y-122104819D01*
X127880952Y-122104819D02*
X127976190Y-122152438D01*
X127976190Y-122152438D02*
X128023809Y-122200057D01*
X128023809Y-122200057D02*
X128071428Y-122295295D01*
X128071428Y-122295295D02*
X128071428Y-122390533D01*
X128071428Y-122390533D02*
X128023809Y-122533390D01*
X128023809Y-122533390D02*
X127452381Y-123104819D01*
X127452381Y-123104819D02*
X128071428Y-123104819D01*
G36*
X90048360Y-163422951D02*
G01*
X89950124Y-163431219D01*
X89854043Y-163463196D01*
X89772133Y-163531423D01*
X89722874Y-163633565D01*
X89706757Y-163748596D01*
X89706420Y-163770265D01*
X89706420Y-165330000D01*
X90213469Y-165330000D01*
X90213469Y-164675429D01*
X91689184Y-164675429D01*
X91689184Y-164204528D01*
X90213469Y-164204528D01*
X90213469Y-164006203D01*
X90273121Y-163925887D01*
X90291626Y-163924626D01*
X91697488Y-163924626D01*
X91697488Y-163422951D01*
X90048360Y-163422951D01*
G37*
G36*
X91924146Y-163422951D02*
G01*
X91924146Y-165330000D01*
X92433636Y-165330000D01*
X92433636Y-163422951D01*
X91924146Y-163422951D01*
G37*
G36*
X95066086Y-163422951D02*
G01*
X94570273Y-163422951D01*
X94570273Y-164655889D01*
X94531194Y-164706692D01*
X94483322Y-164684221D01*
X93559596Y-163569986D01*
X93482413Y-163495882D01*
X93390362Y-163437420D01*
X93287629Y-163403820D01*
X93183575Y-163392258D01*
X93150733Y-163391688D01*
X93036795Y-163400867D01*
X92935777Y-163429625D01*
X92850295Y-163479795D01*
X92782966Y-163553213D01*
X92736407Y-163651711D01*
X92715870Y-163749799D01*
X92711096Y-163835233D01*
X92711096Y-165330000D01*
X93209351Y-165330000D01*
X93209351Y-164045771D01*
X93256735Y-163992037D01*
X93301675Y-164017438D01*
X94340684Y-165221067D01*
X94423702Y-165289618D01*
X94522601Y-165335007D01*
X94624687Y-165356487D01*
X94710468Y-165361263D01*
X94811853Y-165348241D01*
X94904132Y-165307991D01*
X94981083Y-165238735D01*
X95036486Y-165138696D01*
X95061707Y-165030533D01*
X95066086Y-164954354D01*
X95066086Y-163422951D01*
G37*
G36*
X95610747Y-163422951D02*
G01*
X95505936Y-163435043D01*
X95417619Y-163478637D01*
X95358437Y-163565971D01*
X95341591Y-163677941D01*
X95341591Y-165067194D01*
X95354459Y-165170052D01*
X95400487Y-165256281D01*
X95491824Y-165313734D01*
X95591537Y-165329746D01*
X95607816Y-165330000D01*
X97332659Y-165330000D01*
X97332659Y-164845910D01*
X95893580Y-164845910D01*
X95848640Y-164792177D01*
X95848640Y-164548422D01*
X97324355Y-164548422D01*
X97324355Y-164184501D01*
X95848640Y-164184501D01*
X95848640Y-163971521D01*
X95893580Y-163924626D01*
X97332659Y-163924626D01*
X97332659Y-163422951D01*
X95610747Y-163422951D01*
G37*
G36*
X57855422Y-216062972D02*
G01*
X57910532Y-216164560D01*
X57976332Y-216248300D01*
X58053282Y-216314452D01*
X58141840Y-216363272D01*
X58242463Y-216395016D01*
X58355611Y-216409943D01*
X58404480Y-216411263D01*
X58523389Y-216402991D01*
X58628747Y-216378004D01*
X58721314Y-216336045D01*
X58801852Y-216276857D01*
X58871119Y-216200183D01*
X58929876Y-216105765D01*
X58950607Y-216062972D01*
X59628137Y-214557459D01*
X59658911Y-214472951D01*
X59067844Y-214472951D01*
X59045373Y-214540362D01*
X58485569Y-215852435D01*
X58406922Y-215911542D01*
X58325834Y-215852435D01*
X57760167Y-214540362D01*
X57740628Y-214472951D01*
X57141256Y-214472951D01*
X57172031Y-214557459D01*
X57855422Y-216062972D01*
G37*
G36*
X59509923Y-216692630D02*
G01*
X59538255Y-216626196D01*
X60815157Y-214446085D01*
X60840070Y-214379162D01*
X60467844Y-214379162D01*
X60440000Y-214446085D01*
X59165541Y-216626196D01*
X59137697Y-216692630D01*
X59509923Y-216692630D01*
G37*
G36*
X62471079Y-214477346D02*
G01*
X62574782Y-214490247D01*
X62671581Y-214511231D01*
X62783229Y-214548182D01*
X62884916Y-214596273D01*
X62977099Y-214654678D01*
X63060237Y-214722568D01*
X63077616Y-214739054D01*
X63158067Y-214828062D01*
X63226970Y-214927155D01*
X63283231Y-215035137D01*
X63318400Y-215127119D01*
X63344215Y-215223410D01*
X63360116Y-215323400D01*
X63365541Y-215426475D01*
X63364467Y-215473693D01*
X63352635Y-215588691D01*
X63328343Y-215698681D01*
X63292352Y-215802849D01*
X63245422Y-215900378D01*
X63188314Y-215990451D01*
X63121786Y-216072254D01*
X63071006Y-216123866D01*
X62977309Y-216200710D01*
X62894008Y-216253346D01*
X62803110Y-216297568D01*
X62704451Y-216332859D01*
X62597863Y-216358705D01*
X62483180Y-216374590D01*
X62360237Y-216380000D01*
X61962610Y-216380000D01*
X61900095Y-216378636D01*
X61781303Y-216367925D01*
X61670689Y-216346995D01*
X61568086Y-216316362D01*
X61473328Y-216276541D01*
X61386249Y-216228048D01*
X61287947Y-216156020D01*
X61201061Y-216072254D01*
X61173368Y-216040577D01*
X61110517Y-215955369D01*
X61057389Y-215862215D01*
X61014743Y-215761933D01*
X60983340Y-215655338D01*
X60963941Y-215543247D01*
X60957473Y-215429406D01*
X61464354Y-215429406D01*
X61464871Y-215451189D01*
X61482258Y-215556008D01*
X61522148Y-215651382D01*
X61581591Y-215733733D01*
X61660036Y-215802087D01*
X61747354Y-215846656D01*
X61853231Y-215873840D01*
X61962610Y-215881744D01*
X62360237Y-215881744D01*
X62469616Y-215873840D01*
X62575493Y-215846656D01*
X62662811Y-215802087D01*
X62741256Y-215733733D01*
X62754567Y-215718476D01*
X62810336Y-215633235D01*
X62845961Y-215535685D01*
X62858493Y-215429406D01*
X62854699Y-215370164D01*
X62829753Y-215268809D01*
X62783623Y-215177408D01*
X62718786Y-215099678D01*
X62652596Y-215047785D01*
X62562185Y-215004441D01*
X62463589Y-214981359D01*
X62360237Y-214974626D01*
X61962610Y-214974626D01*
X61887071Y-214978092D01*
X61783689Y-214997227D01*
X61688933Y-215036691D01*
X61604061Y-215099678D01*
X61566041Y-215140953D01*
X61511331Y-215226736D01*
X61476544Y-215324126D01*
X61464354Y-215429406D01*
X60957473Y-215429406D01*
X60957306Y-215426475D01*
X60957650Y-215400451D01*
X60965746Y-215298090D01*
X60984178Y-215198967D01*
X61012384Y-215103695D01*
X61049804Y-215012887D01*
X61108681Y-214906587D01*
X61179981Y-214809415D01*
X61262610Y-214722568D01*
X61345748Y-214654678D01*
X61437931Y-214596273D01*
X61539618Y-214548182D01*
X61651266Y-214511231D01*
X61748065Y-214490247D01*
X61851768Y-214477346D01*
X61962610Y-214472951D01*
X62360237Y-214472951D01*
X62471079Y-214477346D01*
G37*
G36*
X65562261Y-215881744D02*
G01*
X64571123Y-215881744D01*
X64461745Y-215873840D01*
X64355868Y-215846656D01*
X64268549Y-215802087D01*
X64190105Y-215733733D01*
X64130662Y-215651382D01*
X64090771Y-215556008D01*
X64073385Y-215451189D01*
X64072868Y-215429406D01*
X64085058Y-215324126D01*
X64119845Y-215226736D01*
X64174555Y-215140953D01*
X64212575Y-215099678D01*
X64297446Y-215036691D01*
X64392202Y-214997227D01*
X64495585Y-214978092D01*
X64571123Y-214974626D01*
X65562261Y-214974626D01*
X65562261Y-214472951D01*
X64571123Y-214472951D01*
X64460282Y-214477346D01*
X64356579Y-214490247D01*
X64259780Y-214511231D01*
X64148131Y-214548182D01*
X64046445Y-214596273D01*
X63954261Y-214654678D01*
X63871123Y-214722568D01*
X63788495Y-214809415D01*
X63717194Y-214906587D01*
X63658318Y-215012887D01*
X63620898Y-215103695D01*
X63592691Y-215198967D01*
X63574260Y-215298090D01*
X63566163Y-215400451D01*
X63565820Y-215426475D01*
X63572455Y-215543247D01*
X63591854Y-215655338D01*
X63623257Y-215761933D01*
X63665902Y-215862215D01*
X63719031Y-215955369D01*
X63781882Y-216040577D01*
X63809574Y-216072254D01*
X63896461Y-216156020D01*
X63994763Y-216228048D01*
X64081841Y-216276541D01*
X64176599Y-216316362D01*
X64279202Y-216346995D01*
X64389817Y-216367925D01*
X64508609Y-216378636D01*
X64571123Y-216380000D01*
X65562261Y-216380000D01*
X65562261Y-215881744D01*
G37*
G36*
X65763028Y-214472951D02*
G01*
X65763028Y-214974626D01*
X66594920Y-214974626D01*
X66594920Y-216380000D01*
X67104410Y-216380000D01*
X67104410Y-214974626D01*
X67933370Y-214974626D01*
X67933370Y-214472951D01*
X65763028Y-214472951D01*
G37*
G36*
X108558409Y-216380000D02*
G01*
X108558409Y-215895910D01*
X107244871Y-215895910D01*
X107147670Y-215881820D01*
X107084609Y-215801526D01*
X107076832Y-215714682D01*
X107076832Y-214472951D01*
X106567341Y-214472951D01*
X106567341Y-215763042D01*
X106571467Y-215873638D01*
X106584378Y-215973255D01*
X106616640Y-216089040D01*
X106667835Y-216185399D01*
X106739859Y-216262383D01*
X106834606Y-216320045D01*
X106953971Y-216358435D01*
X107060790Y-216374612D01*
X107183322Y-216380000D01*
X108558409Y-216380000D01*
G37*
G36*
X108756246Y-214472951D02*
G01*
X108756246Y-216380000D01*
X109265736Y-216380000D01*
X109265736Y-214472951D01*
X108756246Y-214472951D01*
G37*
G36*
X111898186Y-214472951D02*
G01*
X111402373Y-214472951D01*
X111402373Y-215705889D01*
X111363294Y-215756692D01*
X111315422Y-215734221D01*
X110391696Y-214619986D01*
X110314513Y-214545882D01*
X110222462Y-214487420D01*
X110119729Y-214453820D01*
X110015675Y-214442258D01*
X109982833Y-214441688D01*
X109868895Y-214450867D01*
X109767877Y-214479625D01*
X109682395Y-214529795D01*
X109615066Y-214603213D01*
X109568507Y-214701711D01*
X109547971Y-214799799D01*
X109543196Y-214885233D01*
X109543196Y-216380000D01*
X110041451Y-216380000D01*
X110041451Y-215095771D01*
X110088835Y-215042037D01*
X110133775Y-215067438D01*
X111172784Y-216271067D01*
X111255802Y-216339618D01*
X111354701Y-216385007D01*
X111456787Y-216406487D01*
X111542568Y-216411263D01*
X111643953Y-216398241D01*
X111736232Y-216357991D01*
X111813183Y-216288735D01*
X111868586Y-216188696D01*
X111893807Y-216080533D01*
X111898186Y-216004354D01*
X111898186Y-214472951D01*
G37*
G36*
X113643057Y-214472951D02*
G01*
X113544820Y-214481219D01*
X113448739Y-214513196D01*
X113366829Y-214581423D01*
X113317570Y-214683565D01*
X113301453Y-214798596D01*
X113301117Y-214820265D01*
X113301117Y-216380000D01*
X113808165Y-216380000D01*
X113808165Y-215725429D01*
X115283880Y-215725429D01*
X115283880Y-215254528D01*
X113808165Y-215254528D01*
X113808165Y-215056203D01*
X113867817Y-214975887D01*
X113886322Y-214974626D01*
X115292184Y-214974626D01*
X115292184Y-214472951D01*
X113643057Y-214472951D01*
G37*
G36*
X116966713Y-216411263D02*
G01*
X117064983Y-216401142D01*
X117164914Y-216364398D01*
X117246001Y-216298920D01*
X117285694Y-216238339D01*
X117859665Y-215050830D01*
X117896301Y-215028848D01*
X117940754Y-215079162D01*
X117940754Y-216380000D01*
X118428262Y-216380000D01*
X118428262Y-214991723D01*
X118421574Y-214880217D01*
X118401961Y-214784269D01*
X118363646Y-214689934D01*
X118300819Y-214602329D01*
X118251919Y-214556971D01*
X118165044Y-214500362D01*
X118073624Y-214463491D01*
X117970547Y-214443877D01*
X117921214Y-214441688D01*
X117815507Y-214451882D01*
X117706289Y-214489350D01*
X117614080Y-214551518D01*
X117536521Y-214635392D01*
X117481381Y-214719708D01*
X117442498Y-214795352D01*
X117014096Y-215726894D01*
X116966713Y-215763042D01*
X116918842Y-215726894D01*
X116490440Y-214795352D01*
X116441147Y-214701889D01*
X116384407Y-214620033D01*
X116304571Y-214539569D01*
X116209690Y-214481309D01*
X116097409Y-214448249D01*
X116011724Y-214441688D01*
X115903737Y-214452418D01*
X115807032Y-214482086D01*
X115713842Y-214532663D01*
X115681019Y-214556971D01*
X115606273Y-214632869D01*
X115550898Y-214728185D01*
X115519597Y-214830395D01*
X115506362Y-214933928D01*
X115504676Y-214991723D01*
X115504676Y-216380000D01*
X115992184Y-216380000D01*
X115992184Y-215081605D01*
X116036636Y-215031290D01*
X116073273Y-215053272D01*
X116647244Y-216245666D01*
X116711396Y-216326780D01*
X116799717Y-216380355D01*
X116904383Y-216407371D01*
X116966713Y-216411263D01*
G37*
G36*
X59949616Y-191972951D02*
G01*
X58560851Y-191972951D01*
X58450424Y-191977769D01*
X58336833Y-191995578D01*
X58241403Y-192025340D01*
X58149516Y-192073518D01*
X58065038Y-192143921D01*
X57997245Y-192228124D01*
X57946214Y-192324050D01*
X57914050Y-192429685D01*
X57903041Y-192528496D01*
X57902861Y-192543014D01*
X57911102Y-192647156D01*
X57935130Y-192743628D01*
X57980583Y-192843467D01*
X58043736Y-192931056D01*
X58062107Y-192950900D01*
X58147249Y-193021226D01*
X58239994Y-193069260D01*
X58336146Y-193098888D01*
X58450262Y-193116595D01*
X58560851Y-193121381D01*
X59330705Y-193121381D01*
X59430777Y-193137863D01*
X59465038Y-193163391D01*
X59503957Y-193255757D01*
X59504117Y-193263042D01*
X59473342Y-193348527D01*
X59382667Y-193392834D01*
X59330705Y-193395910D01*
X57953175Y-193395910D01*
X57953175Y-193880000D01*
X59420586Y-193880000D01*
X59520256Y-193874603D01*
X59626668Y-193854543D01*
X59719600Y-193820774D01*
X59812275Y-193765625D01*
X59889452Y-193695294D01*
X59899302Y-193684117D01*
X59957607Y-193603204D01*
X60001579Y-193513086D01*
X60029338Y-193416282D01*
X60039009Y-193315310D01*
X60027819Y-193207141D01*
X59995656Y-193104284D01*
X59944624Y-193009487D01*
X59876832Y-192925498D01*
X59792972Y-192855095D01*
X59704542Y-192806917D01*
X59600295Y-192773324D01*
X59497071Y-192757627D01*
X59420586Y-192754528D01*
X58588695Y-192754528D01*
X58492693Y-192735281D01*
X58479274Y-192724731D01*
X58433279Y-192638157D01*
X58431891Y-192617752D01*
X58462138Y-192523699D01*
X58470970Y-192513217D01*
X58561820Y-192475679D01*
X58588695Y-192474626D01*
X59949616Y-192474626D01*
X59949616Y-191972951D01*
G37*
G36*
X61000837Y-192991444D02*
G01*
X61000837Y-193880000D01*
X61513259Y-193880000D01*
X61513259Y-193025638D01*
X62400837Y-192037920D01*
X62451640Y-191972951D01*
X61838102Y-191972951D01*
X61790719Y-192037920D01*
X61317376Y-192560111D01*
X61278297Y-192579651D01*
X61238730Y-192560111D01*
X60762945Y-192037920D01*
X60718004Y-191972951D01*
X60093719Y-191972951D01*
X60141102Y-192037920D01*
X61000837Y-192991444D01*
G37*
G36*
X64838869Y-191972951D02*
G01*
X64343056Y-191972951D01*
X64343056Y-193205889D01*
X64303977Y-193256692D01*
X64256106Y-193234221D01*
X63332379Y-192119986D01*
X63255197Y-192045882D01*
X63163146Y-191987420D01*
X63060413Y-191953820D01*
X62956359Y-191942258D01*
X62923517Y-191941688D01*
X62809579Y-191950867D01*
X62708560Y-191979625D01*
X62623079Y-192029795D01*
X62555750Y-192103213D01*
X62509190Y-192201711D01*
X62488654Y-192299799D01*
X62483880Y-192385233D01*
X62483880Y-193880000D01*
X62982135Y-193880000D01*
X62982135Y-192595771D01*
X63029518Y-192542037D01*
X63074459Y-192567438D01*
X64113468Y-193771067D01*
X64196486Y-193839618D01*
X64295385Y-193885007D01*
X64397471Y-193906487D01*
X64483252Y-193911263D01*
X64584637Y-193898241D01*
X64676915Y-193857991D01*
X64753867Y-193788735D01*
X64809270Y-193688696D01*
X64834491Y-193580533D01*
X64838869Y-193504354D01*
X64838869Y-191972951D01*
G37*
G36*
X67071737Y-193381744D02*
G01*
X66080600Y-193381744D01*
X65971221Y-193373840D01*
X65865344Y-193346656D01*
X65778026Y-193302087D01*
X65699581Y-193233733D01*
X65640138Y-193151382D01*
X65600248Y-193056008D01*
X65582861Y-192951189D01*
X65582344Y-192929406D01*
X65594534Y-192824126D01*
X65629321Y-192726736D01*
X65684032Y-192640953D01*
X65722051Y-192599678D01*
X65806923Y-192536691D01*
X65901679Y-192497227D01*
X66005061Y-192478092D01*
X66080600Y-192474626D01*
X67071737Y-192474626D01*
X67071737Y-191972951D01*
X66080600Y-191972951D01*
X65969758Y-191977346D01*
X65866055Y-191990247D01*
X65769256Y-192011231D01*
X65657608Y-192048182D01*
X65555921Y-192096273D01*
X65463738Y-192154678D01*
X65380600Y-192222568D01*
X65297971Y-192309415D01*
X65226671Y-192406587D01*
X65167794Y-192512887D01*
X65130374Y-192603695D01*
X65102168Y-192698967D01*
X65083736Y-192798090D01*
X65075640Y-192900451D01*
X65075296Y-192926475D01*
X65081932Y-193043247D01*
X65101331Y-193155338D01*
X65132733Y-193261933D01*
X65175379Y-193362215D01*
X65228507Y-193455369D01*
X65291358Y-193540577D01*
X65319051Y-193572254D01*
X65405937Y-193656020D01*
X65504239Y-193728048D01*
X65591318Y-193776541D01*
X65686076Y-193816362D01*
X65788679Y-193846995D01*
X65899294Y-193867925D01*
X66018086Y-193878636D01*
X66080600Y-193880000D01*
X67071737Y-193880000D01*
X67071737Y-193381744D01*
G37*
D15*
X80000002Y-183750000D02*
X75500000Y-183750000D01*
X81006990Y-179996229D02*
X77105715Y-177753433D01*
X81006990Y-187503772D02*
X77105773Y-189746669D01*
X83746228Y-177256990D02*
X81503331Y-173355773D01*
X83746229Y-190243010D02*
X81503433Y-194144285D01*
X87500000Y-176250000D02*
X87500000Y-171750000D01*
X91253771Y-177256990D02*
X93496567Y-173355715D01*
X91253772Y-190243010D02*
X93496669Y-194144227D01*
X93993010Y-179996228D02*
X97894227Y-177753331D01*
X93993010Y-187503771D02*
X97894285Y-189746567D01*
X95000000Y-183750000D02*
X99500000Y-183750000D01*
X57606390Y-78518938D02*
X69303195Y-85259469D01*
D16*
X57625821Y-89571514D02*
X55835455Y-89385502D01*
D15*
X57629083Y-105520364D02*
X69314542Y-98760182D01*
D16*
X57629649Y-94465102D02*
X55839580Y-94653918D01*
X57898326Y-102315167D02*
X59541924Y-101581281D01*
X58006713Y-87146284D02*
X56245522Y-86774510D01*
X58017168Y-96903004D02*
X56256781Y-97278553D01*
X58638535Y-84774024D02*
X56925740Y-84220544D01*
X58656766Y-99282160D02*
X56945368Y-99839942D01*
X59517785Y-82472971D02*
X57872337Y-81743240D01*
X61973260Y-78207500D02*
X60515891Y-77151052D01*
X61986052Y-105810131D02*
X60529664Y-106867930D01*
X63522828Y-76290183D02*
X62184149Y-75086876D01*
X63541571Y-107730644D02*
X62204328Y-108935546D01*
X65269356Y-74541571D02*
X64064454Y-73204328D01*
X65290183Y-109477172D02*
X64086876Y-110815851D01*
X67189869Y-72986052D02*
X66132070Y-71529664D01*
X67207500Y-111026740D02*
X66151052Y-112484109D01*
D15*
X67479636Y-68629083D02*
X74239818Y-80314542D01*
X67500000Y-92000000D02*
X54000000Y-92000000D01*
X67518938Y-115393610D02*
X74259469Y-103696805D01*
D16*
X70684833Y-68898326D02*
X71418719Y-70541924D01*
X73717840Y-69656766D02*
X73160058Y-67945368D01*
X76096996Y-69017168D02*
X75721447Y-67256781D01*
X78534898Y-68629649D02*
X78346082Y-66839580D01*
D15*
X80999999Y-78500000D02*
X80999999Y-64999999D01*
D16*
X83428485Y-68625820D02*
X83614497Y-66835454D01*
X85853715Y-69006712D02*
X86225489Y-67245521D01*
X88225975Y-69638534D02*
X88779455Y-67925739D01*
X90527028Y-70517784D02*
X91256759Y-68872336D01*
D15*
X94481061Y-68606389D02*
X87740530Y-80303194D01*
X94499999Y-91999999D02*
X107999999Y-91999999D01*
X94520365Y-115370916D02*
X87760183Y-103685457D01*
D16*
X94792499Y-72973259D02*
X95848947Y-71515890D01*
X94810132Y-111013947D02*
X95867931Y-112470335D01*
X96709816Y-74522827D02*
X97913123Y-73184148D01*
X96730645Y-109458428D02*
X97935547Y-110795671D01*
X98458428Y-76269355D02*
X99795671Y-75064453D01*
X98477173Y-107709816D02*
X99815852Y-108913123D01*
X100013947Y-78189868D02*
X101470335Y-77132069D01*
X100026741Y-105792499D02*
X101484110Y-106848947D01*
X102482216Y-101527028D02*
X104127664Y-102256759D01*
X103343233Y-84717839D02*
X105054631Y-84160057D01*
X103361466Y-99225975D02*
X105074261Y-99779455D01*
X103982831Y-87096995D02*
X105743218Y-86721446D01*
X103993288Y-96853715D02*
X105754479Y-97225489D01*
X104101673Y-81684832D02*
X102458075Y-82418718D01*
X104370350Y-89534897D02*
X106160419Y-89346081D01*
D15*
X104370916Y-78479635D02*
X92685457Y-85239817D01*
D16*
X104374180Y-94428485D02*
X106164546Y-94614497D01*
D15*
X104393611Y-105481061D02*
X92696806Y-98740530D01*
D17*
G36*
X106000000Y-228750000D02*
G01*
X106000000Y-228750000D01*
G75*
G03*
X112500000Y-235250000I6500000J0D01*
G01*
X107000000Y-235250000D01*
X106000000Y-234250000D01*
X106000000Y-228750000D01*
G37*
G36*
X112500000Y-222250000D02*
G01*
X112500000Y-222250000D01*
G75*
G03*
X106000000Y-228750000I0J-6500000D01*
G01*
X106000000Y-223250000D01*
X107000000Y-222250000D01*
X112500000Y-222250000D01*
G37*
G36*
X119000000Y-234250000D02*
G01*
X118000000Y-235250000D01*
X112500000Y-235250000D01*
G75*
G03*
X119000000Y-228750000I0J6500000D01*
G01*
X119000000Y-234250000D01*
G37*
G36*
X119000000Y-223250000D02*
G01*
X119000000Y-228750000D01*
G75*
G03*
X112500000Y-222250000I-6500000J0D01*
G01*
X118000000Y-222250000D01*
X119000000Y-223250000D01*
G37*
G36*
X56000000Y-228750000D02*
G01*
X56000000Y-228750000D01*
G75*
G03*
X62500000Y-235250000I6500000J0D01*
G01*
X57000000Y-235250000D01*
X56000000Y-234250000D01*
X56000000Y-228750000D01*
G37*
G36*
X62500000Y-222250000D02*
G01*
X62500000Y-222250000D01*
G75*
G03*
X56000000Y-228750000I0J-6500000D01*
G01*
X56000000Y-223250000D01*
X57000000Y-222250000D01*
X62500000Y-222250000D01*
G37*
G36*
X69000000Y-234250000D02*
G01*
X68000000Y-235250000D01*
X62500000Y-235250000D01*
G75*
G03*
X69000000Y-228750000I0J6500000D01*
G01*
X69000000Y-234250000D01*
G37*
G36*
X69000000Y-223250000D02*
G01*
X69000000Y-228750000D01*
G75*
G03*
X62500000Y-222250000I-6500000J0D01*
G01*
X68000000Y-222250000D01*
X69000000Y-223250000D01*
G37*
D15*
X115908660Y-137004996D02*
X123704331Y-141502498D01*
X115908661Y-154995006D02*
X123704332Y-150497502D01*
X122500000Y-146000000D02*
X113500000Y-146000000D01*
X122504994Y-130408661D02*
X127002498Y-138204332D01*
X122504996Y-161591340D02*
X127002498Y-153795669D01*
X131500000Y-137000000D02*
X131500000Y-128000000D01*
X140495004Y-130408660D02*
X135997502Y-138204331D01*
X140495006Y-161591339D02*
X135997502Y-153795668D01*
X140500000Y-146000000D02*
X149500000Y-146000000D01*
X147091339Y-137004994D02*
X139295668Y-141502498D01*
X147091340Y-154995004D02*
X139295669Y-150497502D01*
X130000002Y-183750000D02*
X125500000Y-183750000D01*
X131006990Y-179996229D02*
X127105715Y-177753433D01*
X131006990Y-187503772D02*
X127105773Y-189746669D01*
X133746228Y-177256990D02*
X131503331Y-173355773D01*
X133746229Y-190243010D02*
X131503433Y-194144285D01*
X137500000Y-176250000D02*
X137500000Y-171750000D01*
X141253771Y-177256990D02*
X143496567Y-173355715D01*
X141253772Y-190243010D02*
X143496669Y-194144227D01*
X143993010Y-179996228D02*
X147894227Y-177753331D01*
X143993010Y-187503771D02*
X147894285Y-189746567D01*
X145000000Y-183750000D02*
X149500000Y-183750000D01*
X77908660Y-137004996D02*
X85704331Y-141502498D01*
X77908661Y-154995006D02*
X85704332Y-150497502D01*
D16*
X79077752Y-144500415D02*
X78077703Y-144446703D01*
X79079238Y-147513781D02*
X78084382Y-147618213D01*
X79310173Y-143016912D02*
X78331249Y-142811116D01*
X79315004Y-149005963D02*
X78336414Y-149213337D01*
X79704495Y-141535245D02*
X78752774Y-141227232D01*
X79704744Y-150465516D02*
X78753041Y-150773582D01*
X80249397Y-151888244D02*
X79335266Y-152294461D01*
X80253066Y-140103499D02*
X79339190Y-139696713D01*
X81766381Y-137481070D02*
X80956906Y-136893369D01*
X81772245Y-154526998D02*
X80963173Y-155115257D01*
X82717811Y-136304930D02*
X81973973Y-135636090D01*
X82734319Y-155713397D02*
X81991620Y-156383502D01*
X83786603Y-135234319D02*
X83116498Y-134491620D01*
X83804930Y-156782189D02*
X83136090Y-157526027D01*
D15*
X84500000Y-146000000D02*
X75500000Y-146000000D01*
X84504994Y-130408661D02*
X89002498Y-138204332D01*
X84504996Y-161591340D02*
X89002498Y-153795669D01*
D16*
X84973002Y-134272245D02*
X84384743Y-133463173D01*
X84981070Y-157733619D02*
X84393369Y-158543094D01*
X87611756Y-132749397D02*
X87205539Y-131835266D01*
X89034484Y-132204744D02*
X88726418Y-131253041D01*
X90494037Y-131815004D02*
X90286663Y-130836414D01*
X91986219Y-131579238D02*
X91881787Y-130584382D01*
D15*
X93500000Y-137000000D02*
X93500000Y-128000000D01*
D16*
X94999585Y-131577752D02*
X95053297Y-130577703D01*
X96483088Y-131810173D02*
X96688884Y-130831249D01*
X97964755Y-132204495D02*
X98272768Y-131252774D01*
X99396501Y-132753066D02*
X99803287Y-131839190D01*
X102018930Y-134266381D02*
X102606631Y-133456906D01*
X102026998Y-157727755D02*
X102615257Y-158536827D01*
D15*
X102495004Y-130408660D02*
X97997502Y-138204331D01*
X102495006Y-161591339D02*
X97997502Y-153795668D01*
X102500000Y-146000000D02*
X111500000Y-146000000D01*
D16*
X103195070Y-135217811D02*
X103863910Y-134473973D01*
X103213397Y-156765681D02*
X103883502Y-157508380D01*
X104265681Y-136286603D02*
X105008380Y-135616498D01*
X104282189Y-155695070D02*
X105026027Y-156363910D01*
X105227755Y-137473002D02*
X106036827Y-136884743D01*
X105233619Y-154518930D02*
X106043094Y-155106631D01*
X106746934Y-151896501D02*
X107660810Y-152303287D01*
X106750603Y-140111756D02*
X107664734Y-139705539D01*
X107295256Y-141534484D02*
X108246959Y-141226418D01*
X107295505Y-150464755D02*
X108247226Y-150772768D01*
X107684996Y-142994037D02*
X108663586Y-142786663D01*
X107689827Y-148983088D02*
X108668751Y-149188884D01*
X107920762Y-144486219D02*
X108915618Y-144381787D01*
X107922248Y-147499585D02*
X108922297Y-147553297D01*
D15*
X109091339Y-137004994D02*
X101295668Y-141502498D01*
X109091340Y-154995004D02*
X101295669Y-150497502D01*
D17*
G36*
X131000000Y-228750000D02*
G01*
X131000000Y-228750000D01*
G75*
G03*
X137500000Y-235250000I6500000J0D01*
G01*
X132000000Y-235250000D01*
X131000000Y-234250000D01*
X131000000Y-228750000D01*
G37*
G36*
X137500000Y-222250000D02*
G01*
X137500000Y-222250000D01*
G75*
G03*
X131000000Y-228750000I0J-6500000D01*
G01*
X131000000Y-223250000D01*
X132000000Y-222250000D01*
X137500000Y-222250000D01*
G37*
G36*
X144000000Y-234250000D02*
G01*
X143000000Y-235250000D01*
X137500000Y-235250000D01*
G75*
G03*
X144000000Y-228750000I0J6500000D01*
G01*
X144000000Y-234250000D01*
G37*
G36*
X144000000Y-223250000D02*
G01*
X144000000Y-228750000D01*
G75*
G03*
X137500000Y-222250000I-6500000J0D01*
G01*
X143000000Y-222250000D01*
X144000000Y-223250000D01*
G37*
G36*
X81000000Y-228750000D02*
G01*
X81000000Y-228750000D01*
G75*
G03*
X87500000Y-235250000I6500000J0D01*
G01*
X82000000Y-235250000D01*
X81000000Y-234250000D01*
X81000000Y-228750000D01*
G37*
G36*
X87500000Y-222250000D02*
G01*
X87500000Y-222250000D01*
G75*
G03*
X81000000Y-228750000I0J-6500000D01*
G01*
X81000000Y-223250000D01*
X82000000Y-222250000D01*
X87500000Y-222250000D01*
G37*
G36*
X94000000Y-234250000D02*
G01*
X93000000Y-235250000D01*
X87500000Y-235250000D01*
G75*
G03*
X94000000Y-228750000I0J6500000D01*
G01*
X94000000Y-234250000D01*
G37*
G36*
X94000000Y-223250000D02*
G01*
X94000000Y-228750000D01*
G75*
G03*
X87500000Y-222250000I-6500000J0D01*
G01*
X93000000Y-222250000D01*
X94000000Y-223250000D01*
G37*
D15*
X105000002Y-183750000D02*
X100500000Y-183750000D01*
X106006990Y-179996229D02*
X102105715Y-177753433D01*
X106006990Y-187503772D02*
X102105773Y-189746669D01*
X108746228Y-177256990D02*
X106503331Y-173355773D01*
X108746229Y-190243010D02*
X106503433Y-194144285D01*
X112500000Y-176250000D02*
X112500000Y-171750000D01*
X116253771Y-177256990D02*
X118496567Y-173355715D01*
X116253772Y-190243010D02*
X118496669Y-194144227D01*
X118993010Y-179996228D02*
X122894227Y-177753331D01*
X118993010Y-187503771D02*
X122894285Y-189746567D01*
X120000000Y-183750000D02*
X124500000Y-183750000D01*
%LPC*%
D18*
X139500000Y-65600000D03*
D19*
X139500000Y-72000000D03*
D18*
X62500000Y-139600000D03*
D19*
X62500000Y-146000000D03*
D18*
X119500000Y-65600000D03*
D19*
X119500000Y-72000000D03*
X87500000Y-183750000D03*
X81000000Y-92000000D03*
D20*
X106800000Y-228750000D03*
X108460000Y-224720000D03*
X108470000Y-232790000D03*
X112500000Y-223050000D03*
D21*
X112500000Y-228750000D03*
D20*
X112500000Y-234450000D03*
X116530000Y-232790000D03*
X116540000Y-224720000D03*
X118200000Y-228750000D03*
D22*
X54000000Y-246000000D03*
X146000000Y-54000000D03*
D23*
X124500000Y-111620000D03*
D24*
X141500000Y-119750000D03*
X117500000Y-119750000D03*
X133500000Y-119750000D03*
D20*
X56800000Y-228750000D03*
X58460000Y-224720000D03*
X58470000Y-232790000D03*
X62500000Y-223050000D03*
D21*
X62500000Y-228750000D03*
D20*
X62500000Y-234450000D03*
X66530000Y-232790000D03*
X66540000Y-224720000D03*
X68200000Y-228750000D03*
X131800000Y-206250000D03*
X133460000Y-202220000D03*
X133470000Y-210290000D03*
X137500000Y-200550000D03*
D21*
X137500000Y-206250000D03*
D20*
X137500000Y-211950000D03*
X141530000Y-210290000D03*
X141540000Y-202220000D03*
X143200000Y-206250000D03*
D23*
X139500000Y-91500000D03*
X139500000Y-111620000D03*
D19*
X131500000Y-146000000D03*
D22*
X54000000Y-54000000D03*
D23*
X134500000Y-111620000D03*
X129500000Y-111620000D03*
D19*
X137500000Y-183750000D03*
D22*
X146000000Y-246000000D03*
D23*
X119500000Y-91500000D03*
D20*
X81800000Y-206250000D03*
X83460000Y-202220000D03*
X83470000Y-210290000D03*
X87500000Y-200550000D03*
D21*
X87500000Y-206250000D03*
D20*
X87500000Y-211950000D03*
X91530000Y-210290000D03*
X91540000Y-202220000D03*
X93200000Y-206250000D03*
D24*
X125500000Y-119750000D03*
D19*
X93500000Y-146000000D03*
D23*
X119500000Y-111620000D03*
D20*
X56840000Y-206250000D03*
X58500000Y-202220000D03*
X58510000Y-210290000D03*
X62540000Y-200550000D03*
D21*
X62540000Y-206250000D03*
D20*
X62540000Y-211950000D03*
X66570000Y-210290000D03*
X66580000Y-202220000D03*
X68240000Y-206250000D03*
X106800000Y-206250000D03*
X108460000Y-202220000D03*
X108470000Y-210290000D03*
X112500000Y-200550000D03*
D21*
X112500000Y-206250000D03*
D20*
X112500000Y-211950000D03*
X116530000Y-210290000D03*
X116540000Y-202220000D03*
X118200000Y-206250000D03*
X131800000Y-228750000D03*
X133460000Y-224720000D03*
X133470000Y-232790000D03*
X137500000Y-223050000D03*
D21*
X137500000Y-228750000D03*
D20*
X137500000Y-234450000D03*
X141530000Y-232790000D03*
X141540000Y-224720000D03*
X143200000Y-228750000D03*
X81800000Y-228750000D03*
X83460000Y-224720000D03*
X83470000Y-232790000D03*
X87500000Y-223050000D03*
D21*
X87500000Y-228750000D03*
D20*
X87500000Y-234450000D03*
X91530000Y-232790000D03*
X91540000Y-224720000D03*
X93200000Y-228750000D03*
D19*
X112500000Y-183750000D03*
D20*
X56800000Y-183750000D03*
X58460000Y-179720000D03*
X58470000Y-187790000D03*
X62500000Y-178050000D03*
D21*
X62500000Y-183750000D03*
D20*
X62500000Y-189450000D03*
X66530000Y-187790000D03*
X66540000Y-179720000D03*
X68200000Y-183750000D03*
%LPD*%
M02*
