G04 #@! TF.GenerationSoftware,KiCad,Pcbnew,8.0.3*
G04 #@! TF.CreationDate,2024-06-29T18:44:12+02:00*
G04 #@! TF.ProjectId,DMH_VCO_40106_PANEL,444d485f-5643-44f5-9f34-303130365f50,1*
G04 #@! TF.SameCoordinates,Original*
G04 #@! TF.FileFunction,Copper,L2,Bot*
G04 #@! TF.FilePolarity,Positive*
%FSLAX46Y46*%
G04 Gerber Fmt 4.6, Leading zero omitted, Abs format (unit mm)*
G04 Created by KiCad (PCBNEW 8.0.3) date 2024-06-29 18:44:12*
%MOMM*%
%LPD*%
G01*
G04 APERTURE LIST*
G04 #@! TA.AperFunction,ComponentPad*
%ADD10C,2.600000*%
G04 #@! TD*
G04 #@! TA.AperFunction,ComponentPad*
%ADD11C,13.000000*%
G04 #@! TD*
G04 #@! TA.AperFunction,ComponentPad*
%ADD12C,0.500000*%
G04 #@! TD*
G04 #@! TA.AperFunction,ConnectorPad*
%ADD13C,12.000000*%
G04 #@! TD*
G04 #@! TA.AperFunction,ComponentPad*
%ADD14C,4.000000*%
G04 #@! TD*
G04 #@! TA.AperFunction,SMDPad,CuDef*
%ADD15R,5.000000X10.000000*%
G04 #@! TD*
G04 APERTURE END LIST*
D10*
X139500000Y-65600000D03*
D11*
X139500000Y-72000000D03*
D10*
X62500000Y-139600000D03*
D11*
X62500000Y-146000000D03*
D10*
X119500000Y-65600000D03*
D11*
X119500000Y-72000000D03*
X87500000Y-183750000D03*
X81000000Y-92000000D03*
D12*
X106800000Y-228750000D03*
X108460000Y-224720000D03*
X108470000Y-232790000D03*
X112500000Y-223050000D03*
D13*
X112500000Y-228750000D03*
D12*
X112500000Y-234450000D03*
X116530000Y-232790000D03*
X116540000Y-224720000D03*
X118200000Y-228750000D03*
D14*
X54000000Y-246000000D03*
X146000000Y-54000000D03*
D12*
X56800000Y-228750000D03*
X58460000Y-224720000D03*
X58470000Y-232790000D03*
X62500000Y-223050000D03*
D13*
X62500000Y-228750000D03*
D12*
X62500000Y-234450000D03*
X66530000Y-232790000D03*
X66540000Y-224720000D03*
X68200000Y-228750000D03*
X131800000Y-206250000D03*
X133460000Y-202220000D03*
X133470000Y-210290000D03*
X137500000Y-200550000D03*
D13*
X137500000Y-206250000D03*
D12*
X137500000Y-211950000D03*
X141530000Y-210290000D03*
X141540000Y-202220000D03*
X143200000Y-206250000D03*
D11*
X131500000Y-146000000D03*
D14*
X54000000Y-54000000D03*
D11*
X137500000Y-183750000D03*
D14*
X146000000Y-246000000D03*
D12*
X81800000Y-206250000D03*
X83460000Y-202220000D03*
X83470000Y-210290000D03*
X87500000Y-200550000D03*
D13*
X87500000Y-206250000D03*
D12*
X87500000Y-211950000D03*
X91530000Y-210290000D03*
X91540000Y-202220000D03*
X93200000Y-206250000D03*
D11*
X93500000Y-146000000D03*
D12*
X56840000Y-206250000D03*
X58500000Y-202220000D03*
X58510000Y-210290000D03*
X62540000Y-200550000D03*
D13*
X62540000Y-206250000D03*
D12*
X62540000Y-211950000D03*
X66570000Y-210290000D03*
X66580000Y-202220000D03*
X68240000Y-206250000D03*
X106800000Y-206250000D03*
X108460000Y-202220000D03*
X108470000Y-210290000D03*
X112500000Y-200550000D03*
D13*
X112500000Y-206250000D03*
D12*
X112500000Y-211950000D03*
X116530000Y-210290000D03*
X116540000Y-202220000D03*
X118200000Y-206250000D03*
X131800000Y-228750000D03*
X133460000Y-224720000D03*
X133470000Y-232790000D03*
X137500000Y-223050000D03*
D13*
X137500000Y-228750000D03*
D12*
X137500000Y-234450000D03*
X141530000Y-232790000D03*
X141540000Y-224720000D03*
X143200000Y-228750000D03*
X81800000Y-228750000D03*
X83460000Y-224720000D03*
X83470000Y-232790000D03*
X87500000Y-223050000D03*
D13*
X87500000Y-228750000D03*
D12*
X87500000Y-234450000D03*
X91530000Y-232790000D03*
X91540000Y-224720000D03*
X93200000Y-228750000D03*
D11*
X112500000Y-183750000D03*
D12*
X56800000Y-183750000D03*
X58460000Y-179720000D03*
X58470000Y-187790000D03*
X62500000Y-178050000D03*
D13*
X62500000Y-183750000D03*
D12*
X62500000Y-189450000D03*
X66530000Y-187790000D03*
X66540000Y-179720000D03*
X68200000Y-183750000D03*
D15*
X56750000Y-125000000D03*
G04 #@! TA.AperFunction,Conductor*
G36*
X149442539Y-50520185D02*
G01*
X149488294Y-50572989D01*
X149499500Y-50624500D01*
X149499500Y-249375500D01*
X149479815Y-249442539D01*
X149427011Y-249488294D01*
X149375500Y-249499500D01*
X50624500Y-249499500D01*
X50557461Y-249479815D01*
X50511706Y-249427011D01*
X50500500Y-249375500D01*
X50500500Y-228749993D01*
X57094630Y-228749993D01*
X57094630Y-228750006D01*
X57114101Y-229208394D01*
X57172381Y-229663513D01*
X57269043Y-230112028D01*
X57403399Y-230550746D01*
X57403401Y-230550751D01*
X57574468Y-230976468D01*
X57574472Y-230976479D01*
X57781026Y-231386154D01*
X57781037Y-231386174D01*
X57901317Y-231581521D01*
X58021599Y-231776871D01*
X58294429Y-232145762D01*
X58597560Y-232490186D01*
X58928809Y-232807662D01*
X59285788Y-233095902D01*
X59665925Y-233352830D01*
X60066482Y-233576595D01*
X60066485Y-233576596D01*
X60066494Y-233576601D01*
X60484566Y-233765581D01*
X60484573Y-233765584D01*
X60917185Y-233918435D01*
X61361201Y-234034048D01*
X61813422Y-234111589D01*
X61954946Y-234123634D01*
X62270571Y-234150499D01*
X62270588Y-234150499D01*
X62270590Y-234150500D01*
X62270591Y-234150500D01*
X62729409Y-234150500D01*
X62729410Y-234150500D01*
X62729411Y-234150499D01*
X62729428Y-234150499D01*
X63001523Y-234127339D01*
X63186578Y-234111589D01*
X63638799Y-234034048D01*
X64082815Y-233918435D01*
X64515427Y-233765584D01*
X64933518Y-233576595D01*
X65334075Y-233352830D01*
X65714212Y-233095902D01*
X66071191Y-232807662D01*
X66402440Y-232490186D01*
X66705571Y-232145762D01*
X66978401Y-231776871D01*
X67218964Y-231386172D01*
X67425527Y-230976479D01*
X67596601Y-230550744D01*
X67730955Y-230112035D01*
X67827619Y-229663512D01*
X67885897Y-229208407D01*
X67905370Y-228750000D01*
X67905370Y-228749993D01*
X82094630Y-228749993D01*
X82094630Y-228750006D01*
X82114101Y-229208394D01*
X82172381Y-229663513D01*
X82269043Y-230112028D01*
X82403399Y-230550746D01*
X82403401Y-230550751D01*
X82574468Y-230976468D01*
X82574472Y-230976479D01*
X82781026Y-231386154D01*
X82781037Y-231386174D01*
X82901317Y-231581521D01*
X83021599Y-231776871D01*
X83294429Y-232145762D01*
X83597560Y-232490186D01*
X83928809Y-232807662D01*
X84285788Y-233095902D01*
X84665925Y-233352830D01*
X85066482Y-233576595D01*
X85066485Y-233576596D01*
X85066494Y-233576601D01*
X85484566Y-233765581D01*
X85484573Y-233765584D01*
X85917185Y-233918435D01*
X86361201Y-234034048D01*
X86813422Y-234111589D01*
X86954946Y-234123634D01*
X87270571Y-234150499D01*
X87270588Y-234150499D01*
X87270590Y-234150500D01*
X87270591Y-234150500D01*
X87729409Y-234150500D01*
X87729410Y-234150500D01*
X87729411Y-234150499D01*
X87729428Y-234150499D01*
X88001523Y-234127339D01*
X88186578Y-234111589D01*
X88638799Y-234034048D01*
X89082815Y-233918435D01*
X89515427Y-233765584D01*
X89933518Y-233576595D01*
X90334075Y-233352830D01*
X90714212Y-233095902D01*
X91071191Y-232807662D01*
X91402440Y-232490186D01*
X91705571Y-232145762D01*
X91978401Y-231776871D01*
X92218964Y-231386172D01*
X92425527Y-230976479D01*
X92596601Y-230550744D01*
X92730955Y-230112035D01*
X92827619Y-229663512D01*
X92885897Y-229208407D01*
X92905370Y-228750000D01*
X92905370Y-228749993D01*
X107094630Y-228749993D01*
X107094630Y-228750006D01*
X107114101Y-229208394D01*
X107172381Y-229663513D01*
X107269043Y-230112028D01*
X107403399Y-230550746D01*
X107403401Y-230550751D01*
X107574468Y-230976468D01*
X107574472Y-230976479D01*
X107781026Y-231386154D01*
X107781037Y-231386174D01*
X107901317Y-231581521D01*
X108021599Y-231776871D01*
X108294429Y-232145762D01*
X108597560Y-232490186D01*
X108928809Y-232807662D01*
X109285788Y-233095902D01*
X109665925Y-233352830D01*
X110066482Y-233576595D01*
X110066485Y-233576596D01*
X110066494Y-233576601D01*
X110484566Y-233765581D01*
X110484573Y-233765584D01*
X110917185Y-233918435D01*
X111361201Y-234034048D01*
X111813422Y-234111589D01*
X111954946Y-234123634D01*
X112270571Y-234150499D01*
X112270588Y-234150499D01*
X112270590Y-234150500D01*
X112270591Y-234150500D01*
X112729409Y-234150500D01*
X112729410Y-234150500D01*
X112729411Y-234150499D01*
X112729428Y-234150499D01*
X113001523Y-234127339D01*
X113186578Y-234111589D01*
X113638799Y-234034048D01*
X114082815Y-233918435D01*
X114515427Y-233765584D01*
X114933518Y-233576595D01*
X115334075Y-233352830D01*
X115714212Y-233095902D01*
X116071191Y-232807662D01*
X116402440Y-232490186D01*
X116705571Y-232145762D01*
X116978401Y-231776871D01*
X117218964Y-231386172D01*
X117425527Y-230976479D01*
X117596601Y-230550744D01*
X117730955Y-230112035D01*
X117827619Y-229663512D01*
X117885897Y-229208407D01*
X117905370Y-228750000D01*
X117905370Y-228749993D01*
X132094630Y-228749993D01*
X132094630Y-228750006D01*
X132114101Y-229208394D01*
X132172381Y-229663513D01*
X132269043Y-230112028D01*
X132403399Y-230550746D01*
X132403401Y-230550751D01*
X132574468Y-230976468D01*
X132574472Y-230976479D01*
X132781026Y-231386154D01*
X132781037Y-231386174D01*
X132901317Y-231581521D01*
X133021599Y-231776871D01*
X133294429Y-232145762D01*
X133597560Y-232490186D01*
X133928809Y-232807662D01*
X134285788Y-233095902D01*
X134665925Y-233352830D01*
X135066482Y-233576595D01*
X135066485Y-233576596D01*
X135066494Y-233576601D01*
X135484566Y-233765581D01*
X135484573Y-233765584D01*
X135917185Y-233918435D01*
X136361201Y-234034048D01*
X136813422Y-234111589D01*
X136954946Y-234123634D01*
X137270571Y-234150499D01*
X137270588Y-234150499D01*
X137270590Y-234150500D01*
X137270591Y-234150500D01*
X137729409Y-234150500D01*
X137729410Y-234150500D01*
X137729411Y-234150499D01*
X137729428Y-234150499D01*
X138001523Y-234127339D01*
X138186578Y-234111589D01*
X138638799Y-234034048D01*
X139082815Y-233918435D01*
X139515427Y-233765584D01*
X139933518Y-233576595D01*
X140334075Y-233352830D01*
X140714212Y-233095902D01*
X141071191Y-232807662D01*
X141402440Y-232490186D01*
X141705571Y-232145762D01*
X141978401Y-231776871D01*
X142218964Y-231386172D01*
X142425527Y-230976479D01*
X142596601Y-230550744D01*
X142730955Y-230112035D01*
X142827619Y-229663512D01*
X142885897Y-229208407D01*
X142905370Y-228750000D01*
X142885897Y-228291593D01*
X142827619Y-227836488D01*
X142730955Y-227387965D01*
X142596601Y-226949256D01*
X142425527Y-226523521D01*
X142425527Y-226523520D01*
X142218973Y-226113845D01*
X142218962Y-226113825D01*
X142167601Y-226030410D01*
X141978401Y-225723129D01*
X141705571Y-225354238D01*
X141402440Y-225009814D01*
X141071191Y-224692338D01*
X140714212Y-224404098D01*
X140334075Y-224147170D01*
X140311723Y-224134683D01*
X139933526Y-223923409D01*
X139933505Y-223923398D01*
X139515433Y-223734418D01*
X139082810Y-223581563D01*
X138638797Y-223465951D01*
X138186588Y-223388412D01*
X138186562Y-223388409D01*
X137729428Y-223349500D01*
X137729410Y-223349500D01*
X137270590Y-223349500D01*
X137270571Y-223349500D01*
X136813437Y-223388409D01*
X136813411Y-223388412D01*
X136361202Y-223465951D01*
X135917189Y-223581563D01*
X135484566Y-223734418D01*
X135066494Y-223923398D01*
X135066473Y-223923409D01*
X134665933Y-224147165D01*
X134665914Y-224147177D01*
X134285793Y-224404094D01*
X133928806Y-224692340D01*
X133597559Y-225009814D01*
X133294435Y-225354230D01*
X133021598Y-225723130D01*
X132781037Y-226113825D01*
X132781026Y-226113845D01*
X132574472Y-226523520D01*
X132574468Y-226523531D01*
X132403401Y-226949248D01*
X132403399Y-226949253D01*
X132269043Y-227387971D01*
X132172381Y-227836486D01*
X132114101Y-228291605D01*
X132094630Y-228749993D01*
X117905370Y-228749993D01*
X117885897Y-228291593D01*
X117827619Y-227836488D01*
X117730955Y-227387965D01*
X117596601Y-226949256D01*
X117425527Y-226523521D01*
X117425527Y-226523520D01*
X117218973Y-226113845D01*
X117218962Y-226113825D01*
X117167601Y-226030410D01*
X116978401Y-225723129D01*
X116705571Y-225354238D01*
X116402440Y-225009814D01*
X116071191Y-224692338D01*
X115714212Y-224404098D01*
X115334075Y-224147170D01*
X115311723Y-224134683D01*
X114933526Y-223923409D01*
X114933505Y-223923398D01*
X114515433Y-223734418D01*
X114082810Y-223581563D01*
X113638797Y-223465951D01*
X113186588Y-223388412D01*
X113186562Y-223388409D01*
X112729428Y-223349500D01*
X112729410Y-223349500D01*
X112270590Y-223349500D01*
X112270571Y-223349500D01*
X111813437Y-223388409D01*
X111813411Y-223388412D01*
X111361202Y-223465951D01*
X110917189Y-223581563D01*
X110484566Y-223734418D01*
X110066494Y-223923398D01*
X110066473Y-223923409D01*
X109665933Y-224147165D01*
X109665914Y-224147177D01*
X109285793Y-224404094D01*
X108928806Y-224692340D01*
X108597559Y-225009814D01*
X108294435Y-225354230D01*
X108021598Y-225723130D01*
X107781037Y-226113825D01*
X107781026Y-226113845D01*
X107574472Y-226523520D01*
X107574468Y-226523531D01*
X107403401Y-226949248D01*
X107403399Y-226949253D01*
X107269043Y-227387971D01*
X107172381Y-227836486D01*
X107114101Y-228291605D01*
X107094630Y-228749993D01*
X92905370Y-228749993D01*
X92885897Y-228291593D01*
X92827619Y-227836488D01*
X92730955Y-227387965D01*
X92596601Y-226949256D01*
X92425527Y-226523521D01*
X92425527Y-226523520D01*
X92218973Y-226113845D01*
X92218962Y-226113825D01*
X92167601Y-226030410D01*
X91978401Y-225723129D01*
X91705571Y-225354238D01*
X91402440Y-225009814D01*
X91071191Y-224692338D01*
X90714212Y-224404098D01*
X90334075Y-224147170D01*
X90311723Y-224134683D01*
X89933526Y-223923409D01*
X89933505Y-223923398D01*
X89515433Y-223734418D01*
X89082810Y-223581563D01*
X88638797Y-223465951D01*
X88186588Y-223388412D01*
X88186562Y-223388409D01*
X87729428Y-223349500D01*
X87729410Y-223349500D01*
X87270590Y-223349500D01*
X87270571Y-223349500D01*
X86813437Y-223388409D01*
X86813411Y-223388412D01*
X86361202Y-223465951D01*
X85917189Y-223581563D01*
X85484566Y-223734418D01*
X85066494Y-223923398D01*
X85066473Y-223923409D01*
X84665933Y-224147165D01*
X84665914Y-224147177D01*
X84285793Y-224404094D01*
X83928806Y-224692340D01*
X83597559Y-225009814D01*
X83294435Y-225354230D01*
X83021598Y-225723130D01*
X82781037Y-226113825D01*
X82781026Y-226113845D01*
X82574472Y-226523520D01*
X82574468Y-226523531D01*
X82403401Y-226949248D01*
X82403399Y-226949253D01*
X82269043Y-227387971D01*
X82172381Y-227836486D01*
X82114101Y-228291605D01*
X82094630Y-228749993D01*
X67905370Y-228749993D01*
X67885897Y-228291593D01*
X67827619Y-227836488D01*
X67730955Y-227387965D01*
X67596601Y-226949256D01*
X67425527Y-226523521D01*
X67425527Y-226523520D01*
X67218973Y-226113845D01*
X67218962Y-226113825D01*
X67167601Y-226030410D01*
X66978401Y-225723129D01*
X66705571Y-225354238D01*
X66402440Y-225009814D01*
X66071191Y-224692338D01*
X65714212Y-224404098D01*
X65334075Y-224147170D01*
X65311723Y-224134683D01*
X64933526Y-223923409D01*
X64933505Y-223923398D01*
X64515433Y-223734418D01*
X64082810Y-223581563D01*
X63638797Y-223465951D01*
X63186588Y-223388412D01*
X63186562Y-223388409D01*
X62729428Y-223349500D01*
X62729410Y-223349500D01*
X62270590Y-223349500D01*
X62270571Y-223349500D01*
X61813437Y-223388409D01*
X61813411Y-223388412D01*
X61361202Y-223465951D01*
X60917189Y-223581563D01*
X60484566Y-223734418D01*
X60066494Y-223923398D01*
X60066473Y-223923409D01*
X59665933Y-224147165D01*
X59665914Y-224147177D01*
X59285793Y-224404094D01*
X58928806Y-224692340D01*
X58597559Y-225009814D01*
X58294435Y-225354230D01*
X58021598Y-225723130D01*
X57781037Y-226113825D01*
X57781026Y-226113845D01*
X57574472Y-226523520D01*
X57574468Y-226523531D01*
X57403401Y-226949248D01*
X57403399Y-226949253D01*
X57269043Y-227387971D01*
X57172381Y-227836486D01*
X57114101Y-228291605D01*
X57094630Y-228749993D01*
X50500500Y-228749993D01*
X50500500Y-206249993D01*
X57134630Y-206249993D01*
X57134630Y-206250006D01*
X57154101Y-206708394D01*
X57212381Y-207163513D01*
X57309043Y-207612028D01*
X57443399Y-208050746D01*
X57443401Y-208050751D01*
X57614468Y-208476468D01*
X57614472Y-208476479D01*
X57821026Y-208886154D01*
X57821037Y-208886174D01*
X57941317Y-209081521D01*
X58061599Y-209276871D01*
X58334429Y-209645762D01*
X58637560Y-209990186D01*
X58968809Y-210307662D01*
X59325788Y-210595902D01*
X59705925Y-210852830D01*
X60106482Y-211076595D01*
X60106485Y-211076596D01*
X60106494Y-211076601D01*
X60524566Y-211265581D01*
X60524573Y-211265584D01*
X60957185Y-211418435D01*
X61401201Y-211534048D01*
X61853422Y-211611589D01*
X61994946Y-211623634D01*
X62310571Y-211650499D01*
X62310588Y-211650499D01*
X62310590Y-211650500D01*
X62310591Y-211650500D01*
X62769409Y-211650500D01*
X62769410Y-211650500D01*
X62769411Y-211650499D01*
X62769428Y-211650499D01*
X63041523Y-211627339D01*
X63226578Y-211611589D01*
X63678799Y-211534048D01*
X64122815Y-211418435D01*
X64555427Y-211265584D01*
X64973518Y-211076595D01*
X65374075Y-210852830D01*
X65754212Y-210595902D01*
X66111191Y-210307662D01*
X66442440Y-209990186D01*
X66745571Y-209645762D01*
X67018401Y-209276871D01*
X67258964Y-208886172D01*
X67465527Y-208476479D01*
X67636601Y-208050744D01*
X67770955Y-207612035D01*
X67867619Y-207163512D01*
X67925897Y-206708407D01*
X67945370Y-206250000D01*
X67945370Y-206249993D01*
X82094630Y-206249993D01*
X82094630Y-206250006D01*
X82114101Y-206708394D01*
X82172381Y-207163513D01*
X82269043Y-207612028D01*
X82403399Y-208050746D01*
X82403401Y-208050751D01*
X82574468Y-208476468D01*
X82574472Y-208476479D01*
X82781026Y-208886154D01*
X82781037Y-208886174D01*
X82901317Y-209081521D01*
X83021599Y-209276871D01*
X83294429Y-209645762D01*
X83597560Y-209990186D01*
X83928809Y-210307662D01*
X84285788Y-210595902D01*
X84665925Y-210852830D01*
X85066482Y-211076595D01*
X85066485Y-211076596D01*
X85066494Y-211076601D01*
X85484566Y-211265581D01*
X85484573Y-211265584D01*
X85917185Y-211418435D01*
X86361201Y-211534048D01*
X86813422Y-211611589D01*
X86954946Y-211623634D01*
X87270571Y-211650499D01*
X87270588Y-211650499D01*
X87270590Y-211650500D01*
X87270591Y-211650500D01*
X87729409Y-211650500D01*
X87729410Y-211650500D01*
X87729411Y-211650499D01*
X87729428Y-211650499D01*
X88001523Y-211627339D01*
X88186578Y-211611589D01*
X88638799Y-211534048D01*
X89082815Y-211418435D01*
X89515427Y-211265584D01*
X89933518Y-211076595D01*
X90334075Y-210852830D01*
X90714212Y-210595902D01*
X91071191Y-210307662D01*
X91402440Y-209990186D01*
X91705571Y-209645762D01*
X91978401Y-209276871D01*
X92218964Y-208886172D01*
X92425527Y-208476479D01*
X92596601Y-208050744D01*
X92730955Y-207612035D01*
X92827619Y-207163512D01*
X92885897Y-206708407D01*
X92905370Y-206250000D01*
X92905370Y-206249993D01*
X107094630Y-206249993D01*
X107094630Y-206250006D01*
X107114101Y-206708394D01*
X107172381Y-207163513D01*
X107269043Y-207612028D01*
X107403399Y-208050746D01*
X107403401Y-208050751D01*
X107574468Y-208476468D01*
X107574472Y-208476479D01*
X107781026Y-208886154D01*
X107781037Y-208886174D01*
X107901317Y-209081521D01*
X108021599Y-209276871D01*
X108294429Y-209645762D01*
X108597560Y-209990186D01*
X108928809Y-210307662D01*
X109285788Y-210595902D01*
X109665925Y-210852830D01*
X110066482Y-211076595D01*
X110066485Y-211076596D01*
X110066494Y-211076601D01*
X110484566Y-211265581D01*
X110484573Y-211265584D01*
X110917185Y-211418435D01*
X111361201Y-211534048D01*
X111813422Y-211611589D01*
X111954946Y-211623634D01*
X112270571Y-211650499D01*
X112270588Y-211650499D01*
X112270590Y-211650500D01*
X112270591Y-211650500D01*
X112729409Y-211650500D01*
X112729410Y-211650500D01*
X112729411Y-211650499D01*
X112729428Y-211650499D01*
X113001523Y-211627339D01*
X113186578Y-211611589D01*
X113638799Y-211534048D01*
X114082815Y-211418435D01*
X114515427Y-211265584D01*
X114933518Y-211076595D01*
X115334075Y-210852830D01*
X115714212Y-210595902D01*
X116071191Y-210307662D01*
X116402440Y-209990186D01*
X116705571Y-209645762D01*
X116978401Y-209276871D01*
X117218964Y-208886172D01*
X117425527Y-208476479D01*
X117596601Y-208050744D01*
X117730955Y-207612035D01*
X117827619Y-207163512D01*
X117885897Y-206708407D01*
X117905370Y-206250000D01*
X117905370Y-206249993D01*
X132094630Y-206249993D01*
X132094630Y-206250006D01*
X132114101Y-206708394D01*
X132172381Y-207163513D01*
X132269043Y-207612028D01*
X132403399Y-208050746D01*
X132403401Y-208050751D01*
X132574468Y-208476468D01*
X132574472Y-208476479D01*
X132781026Y-208886154D01*
X132781037Y-208886174D01*
X132901317Y-209081521D01*
X133021599Y-209276871D01*
X133294429Y-209645762D01*
X133597560Y-209990186D01*
X133928809Y-210307662D01*
X134285788Y-210595902D01*
X134665925Y-210852830D01*
X135066482Y-211076595D01*
X135066485Y-211076596D01*
X135066494Y-211076601D01*
X135484566Y-211265581D01*
X135484573Y-211265584D01*
X135917185Y-211418435D01*
X136361201Y-211534048D01*
X136813422Y-211611589D01*
X136954946Y-211623634D01*
X137270571Y-211650499D01*
X137270588Y-211650499D01*
X137270590Y-211650500D01*
X137270591Y-211650500D01*
X137729409Y-211650500D01*
X137729410Y-211650500D01*
X137729411Y-211650499D01*
X137729428Y-211650499D01*
X138001523Y-211627339D01*
X138186578Y-211611589D01*
X138638799Y-211534048D01*
X139082815Y-211418435D01*
X139515427Y-211265584D01*
X139933518Y-211076595D01*
X140334075Y-210852830D01*
X140714212Y-210595902D01*
X141071191Y-210307662D01*
X141402440Y-209990186D01*
X141705571Y-209645762D01*
X141978401Y-209276871D01*
X142218964Y-208886172D01*
X142425527Y-208476479D01*
X142596601Y-208050744D01*
X142730955Y-207612035D01*
X142827619Y-207163512D01*
X142885897Y-206708407D01*
X142905370Y-206250000D01*
X142885897Y-205791593D01*
X142827619Y-205336488D01*
X142730955Y-204887965D01*
X142596601Y-204449256D01*
X142425527Y-204023521D01*
X142425527Y-204023520D01*
X142218973Y-203613845D01*
X142218962Y-203613825D01*
X142167601Y-203530410D01*
X141978401Y-203223129D01*
X141705571Y-202854238D01*
X141402440Y-202509814D01*
X141071191Y-202192338D01*
X140714212Y-201904098D01*
X140334075Y-201647170D01*
X140311723Y-201634683D01*
X139933526Y-201423409D01*
X139933505Y-201423398D01*
X139515433Y-201234418D01*
X139082810Y-201081563D01*
X138638797Y-200965951D01*
X138186588Y-200888412D01*
X138186562Y-200888409D01*
X137729428Y-200849500D01*
X137729410Y-200849500D01*
X137270590Y-200849500D01*
X137270571Y-200849500D01*
X136813437Y-200888409D01*
X136813411Y-200888412D01*
X136361202Y-200965951D01*
X135917189Y-201081563D01*
X135484566Y-201234418D01*
X135066494Y-201423398D01*
X135066473Y-201423409D01*
X134665933Y-201647165D01*
X134665914Y-201647177D01*
X134285793Y-201904094D01*
X133928806Y-202192340D01*
X133597559Y-202509814D01*
X133294435Y-202854230D01*
X133021598Y-203223130D01*
X132781037Y-203613825D01*
X132781026Y-203613845D01*
X132574472Y-204023520D01*
X132574468Y-204023531D01*
X132403401Y-204449248D01*
X132403399Y-204449253D01*
X132269043Y-204887971D01*
X132172381Y-205336486D01*
X132114101Y-205791605D01*
X132094630Y-206249993D01*
X117905370Y-206249993D01*
X117885897Y-205791593D01*
X117827619Y-205336488D01*
X117730955Y-204887965D01*
X117596601Y-204449256D01*
X117425527Y-204023521D01*
X117425527Y-204023520D01*
X117218973Y-203613845D01*
X117218962Y-203613825D01*
X117167601Y-203530410D01*
X116978401Y-203223129D01*
X116705571Y-202854238D01*
X116402440Y-202509814D01*
X116071191Y-202192338D01*
X115714212Y-201904098D01*
X115334075Y-201647170D01*
X115311723Y-201634683D01*
X114933526Y-201423409D01*
X114933505Y-201423398D01*
X114515433Y-201234418D01*
X114082810Y-201081563D01*
X113638797Y-200965951D01*
X113186588Y-200888412D01*
X113186562Y-200888409D01*
X112729428Y-200849500D01*
X112729410Y-200849500D01*
X112270590Y-200849500D01*
X112270571Y-200849500D01*
X111813437Y-200888409D01*
X111813411Y-200888412D01*
X111361202Y-200965951D01*
X110917189Y-201081563D01*
X110484566Y-201234418D01*
X110066494Y-201423398D01*
X110066473Y-201423409D01*
X109665933Y-201647165D01*
X109665914Y-201647177D01*
X109285793Y-201904094D01*
X108928806Y-202192340D01*
X108597559Y-202509814D01*
X108294435Y-202854230D01*
X108021598Y-203223130D01*
X107781037Y-203613825D01*
X107781026Y-203613845D01*
X107574472Y-204023520D01*
X107574468Y-204023531D01*
X107403401Y-204449248D01*
X107403399Y-204449253D01*
X107269043Y-204887971D01*
X107172381Y-205336486D01*
X107114101Y-205791605D01*
X107094630Y-206249993D01*
X92905370Y-206249993D01*
X92885897Y-205791593D01*
X92827619Y-205336488D01*
X92730955Y-204887965D01*
X92596601Y-204449256D01*
X92425527Y-204023521D01*
X92425527Y-204023520D01*
X92218973Y-203613845D01*
X92218962Y-203613825D01*
X92167601Y-203530410D01*
X91978401Y-203223129D01*
X91705571Y-202854238D01*
X91402440Y-202509814D01*
X91071191Y-202192338D01*
X90714212Y-201904098D01*
X90334075Y-201647170D01*
X90311723Y-201634683D01*
X89933526Y-201423409D01*
X89933505Y-201423398D01*
X89515433Y-201234418D01*
X89082810Y-201081563D01*
X88638797Y-200965951D01*
X88186588Y-200888412D01*
X88186562Y-200888409D01*
X87729428Y-200849500D01*
X87729410Y-200849500D01*
X87270590Y-200849500D01*
X87270571Y-200849500D01*
X86813437Y-200888409D01*
X86813411Y-200888412D01*
X86361202Y-200965951D01*
X85917189Y-201081563D01*
X85484566Y-201234418D01*
X85066494Y-201423398D01*
X85066473Y-201423409D01*
X84665933Y-201647165D01*
X84665914Y-201647177D01*
X84285793Y-201904094D01*
X83928806Y-202192340D01*
X83597559Y-202509814D01*
X83294435Y-202854230D01*
X83021598Y-203223130D01*
X82781037Y-203613825D01*
X82781026Y-203613845D01*
X82574472Y-204023520D01*
X82574468Y-204023531D01*
X82403401Y-204449248D01*
X82403399Y-204449253D01*
X82269043Y-204887971D01*
X82172381Y-205336486D01*
X82114101Y-205791605D01*
X82094630Y-206249993D01*
X67945370Y-206249993D01*
X67925897Y-205791593D01*
X67867619Y-205336488D01*
X67770955Y-204887965D01*
X67636601Y-204449256D01*
X67465527Y-204023521D01*
X67465527Y-204023520D01*
X67258973Y-203613845D01*
X67258962Y-203613825D01*
X67207601Y-203530410D01*
X67018401Y-203223129D01*
X66745571Y-202854238D01*
X66442440Y-202509814D01*
X66111191Y-202192338D01*
X65754212Y-201904098D01*
X65374075Y-201647170D01*
X65351723Y-201634683D01*
X64973526Y-201423409D01*
X64973505Y-201423398D01*
X64555433Y-201234418D01*
X64122810Y-201081563D01*
X63678797Y-200965951D01*
X63226588Y-200888412D01*
X63226562Y-200888409D01*
X62769428Y-200849500D01*
X62769410Y-200849500D01*
X62310590Y-200849500D01*
X62310571Y-200849500D01*
X61853437Y-200888409D01*
X61853411Y-200888412D01*
X61401202Y-200965951D01*
X60957189Y-201081563D01*
X60524566Y-201234418D01*
X60106494Y-201423398D01*
X60106473Y-201423409D01*
X59705933Y-201647165D01*
X59705914Y-201647177D01*
X59325793Y-201904094D01*
X58968806Y-202192340D01*
X58637559Y-202509814D01*
X58334435Y-202854230D01*
X58061598Y-203223130D01*
X57821037Y-203613825D01*
X57821026Y-203613845D01*
X57614472Y-204023520D01*
X57614468Y-204023531D01*
X57443401Y-204449248D01*
X57443399Y-204449253D01*
X57309043Y-204887971D01*
X57212381Y-205336486D01*
X57154101Y-205791605D01*
X57134630Y-206249993D01*
X50500500Y-206249993D01*
X50500500Y-183749993D01*
X57094630Y-183749993D01*
X57094630Y-183750006D01*
X57114101Y-184208394D01*
X57172381Y-184663513D01*
X57269043Y-185112028D01*
X57403399Y-185550746D01*
X57403401Y-185550751D01*
X57574468Y-185976468D01*
X57574472Y-185976479D01*
X57781026Y-186386154D01*
X57781037Y-186386174D01*
X57901317Y-186581521D01*
X58021599Y-186776871D01*
X58294429Y-187145762D01*
X58597560Y-187490186D01*
X58928809Y-187807662D01*
X59285788Y-188095902D01*
X59665925Y-188352830D01*
X60066482Y-188576595D01*
X60066485Y-188576596D01*
X60066494Y-188576601D01*
X60484566Y-188765581D01*
X60484573Y-188765584D01*
X60917185Y-188918435D01*
X61361201Y-189034048D01*
X61813422Y-189111589D01*
X61954946Y-189123634D01*
X62270571Y-189150499D01*
X62270588Y-189150499D01*
X62270590Y-189150500D01*
X62270591Y-189150500D01*
X62729409Y-189150500D01*
X62729410Y-189150500D01*
X62729411Y-189150499D01*
X62729428Y-189150499D01*
X63001523Y-189127339D01*
X63186578Y-189111589D01*
X63638799Y-189034048D01*
X64082815Y-188918435D01*
X64515427Y-188765584D01*
X64933518Y-188576595D01*
X65334075Y-188352830D01*
X65714212Y-188095902D01*
X66071191Y-187807662D01*
X66402440Y-187490186D01*
X66705571Y-187145762D01*
X66978401Y-186776871D01*
X67218964Y-186386172D01*
X67425527Y-185976479D01*
X67596601Y-185550744D01*
X67730955Y-185112035D01*
X67827619Y-184663512D01*
X67885897Y-184208407D01*
X67905370Y-183750000D01*
X67885897Y-183291593D01*
X67827619Y-182836488D01*
X67730955Y-182387965D01*
X67596601Y-181949256D01*
X67425527Y-181523521D01*
X67425527Y-181523520D01*
X67218973Y-181113845D01*
X67218962Y-181113825D01*
X67167601Y-181030410D01*
X66978401Y-180723129D01*
X66705571Y-180354238D01*
X66402440Y-180009814D01*
X66071191Y-179692338D01*
X65714212Y-179404098D01*
X65334075Y-179147170D01*
X65311723Y-179134683D01*
X64933526Y-178923409D01*
X64933505Y-178923398D01*
X64515433Y-178734418D01*
X64082810Y-178581563D01*
X63638797Y-178465951D01*
X63186588Y-178388412D01*
X63186562Y-178388409D01*
X62729428Y-178349500D01*
X62729410Y-178349500D01*
X62270590Y-178349500D01*
X62270571Y-178349500D01*
X61813437Y-178388409D01*
X61813411Y-178388412D01*
X61361202Y-178465951D01*
X60917189Y-178581563D01*
X60484566Y-178734418D01*
X60066494Y-178923398D01*
X60066473Y-178923409D01*
X59665933Y-179147165D01*
X59665914Y-179147177D01*
X59285793Y-179404094D01*
X58928806Y-179692340D01*
X58597559Y-180009814D01*
X58294435Y-180354230D01*
X58021598Y-180723130D01*
X57781037Y-181113825D01*
X57781026Y-181113845D01*
X57574472Y-181523520D01*
X57574468Y-181523531D01*
X57403401Y-181949248D01*
X57403399Y-181949253D01*
X57269043Y-182387971D01*
X57172381Y-182836486D01*
X57114101Y-183291605D01*
X57094630Y-183749993D01*
X50500500Y-183749993D01*
X50500500Y-130047844D01*
X53750000Y-130047844D01*
X53756401Y-130107372D01*
X53756403Y-130107379D01*
X53806645Y-130242086D01*
X53806649Y-130242093D01*
X53892809Y-130357187D01*
X53892812Y-130357190D01*
X54007906Y-130443350D01*
X54007913Y-130443354D01*
X54142620Y-130493596D01*
X54142627Y-130493598D01*
X54202155Y-130499999D01*
X54202172Y-130500000D01*
X56500000Y-130500000D01*
X57000000Y-130500000D01*
X59297828Y-130500000D01*
X59297844Y-130499999D01*
X59357372Y-130493598D01*
X59357379Y-130493596D01*
X59492086Y-130443354D01*
X59492093Y-130443350D01*
X59607187Y-130357190D01*
X59607190Y-130357187D01*
X59693350Y-130242093D01*
X59693354Y-130242086D01*
X59743596Y-130107379D01*
X59743598Y-130107372D01*
X59749999Y-130047844D01*
X59750000Y-130047827D01*
X59750000Y-125250000D01*
X57000000Y-125250000D01*
X57000000Y-130500000D01*
X56500000Y-130500000D01*
X56500000Y-125250000D01*
X53750000Y-125250000D01*
X53750000Y-130047844D01*
X50500500Y-130047844D01*
X50500500Y-119952155D01*
X53750000Y-119952155D01*
X53750000Y-124750000D01*
X56500000Y-124750000D01*
X57000000Y-124750000D01*
X59750000Y-124750000D01*
X59750000Y-119952172D01*
X59749999Y-119952155D01*
X59743598Y-119892627D01*
X59743596Y-119892620D01*
X59693354Y-119757913D01*
X59693350Y-119757906D01*
X59607864Y-119643713D01*
X116149500Y-119643713D01*
X116149500Y-119856286D01*
X116182753Y-120066239D01*
X116248444Y-120268414D01*
X116344951Y-120457820D01*
X116469890Y-120629786D01*
X116620213Y-120780109D01*
X116792179Y-120905048D01*
X116792181Y-120905049D01*
X116792184Y-120905051D01*
X116981588Y-121001557D01*
X117183757Y-121067246D01*
X117393713Y-121100500D01*
X117393714Y-121100500D01*
X117606286Y-121100500D01*
X117606287Y-121100500D01*
X117816243Y-121067246D01*
X118018412Y-121001557D01*
X118207816Y-120905051D01*
X118229789Y-120889086D01*
X118379786Y-120780109D01*
X118379788Y-120780106D01*
X118379792Y-120780104D01*
X118530104Y-120629792D01*
X118530106Y-120629788D01*
X118530109Y-120629786D01*
X118655048Y-120457820D01*
X118655047Y-120457820D01*
X118655051Y-120457816D01*
X118751557Y-120268412D01*
X118817246Y-120066243D01*
X118850500Y-119856287D01*
X118850500Y-119643713D01*
X124149500Y-119643713D01*
X124149500Y-119856286D01*
X124182753Y-120066239D01*
X124248444Y-120268414D01*
X124344951Y-120457820D01*
X124469890Y-120629786D01*
X124620213Y-120780109D01*
X124792179Y-120905048D01*
X124792181Y-120905049D01*
X124792184Y-120905051D01*
X124981588Y-121001557D01*
X125183757Y-121067246D01*
X125393713Y-121100500D01*
X125393714Y-121100500D01*
X125606286Y-121100500D01*
X125606287Y-121100500D01*
X125816243Y-121067246D01*
X126018412Y-121001557D01*
X126207816Y-120905051D01*
X126229789Y-120889086D01*
X126379786Y-120780109D01*
X126379788Y-120780106D01*
X126379792Y-120780104D01*
X126530104Y-120629792D01*
X126530106Y-120629788D01*
X126530109Y-120629786D01*
X126655048Y-120457820D01*
X126655047Y-120457820D01*
X126655051Y-120457816D01*
X126751557Y-120268412D01*
X126817246Y-120066243D01*
X126850500Y-119856287D01*
X126850500Y-119643713D01*
X132149500Y-119643713D01*
X132149500Y-119856286D01*
X132182753Y-120066239D01*
X132248444Y-120268414D01*
X132344951Y-120457820D01*
X132469890Y-120629786D01*
X132620213Y-120780109D01*
X132792179Y-120905048D01*
X132792181Y-120905049D01*
X132792184Y-120905051D01*
X132981588Y-121001557D01*
X133183757Y-121067246D01*
X133393713Y-121100500D01*
X133393714Y-121100500D01*
X133606286Y-121100500D01*
X133606287Y-121100500D01*
X133816243Y-121067246D01*
X134018412Y-121001557D01*
X134207816Y-120905051D01*
X134229789Y-120889086D01*
X134379786Y-120780109D01*
X134379788Y-120780106D01*
X134379792Y-120780104D01*
X134530104Y-120629792D01*
X134530106Y-120629788D01*
X134530109Y-120629786D01*
X134655048Y-120457820D01*
X134655047Y-120457820D01*
X134655051Y-120457816D01*
X134751557Y-120268412D01*
X134817246Y-120066243D01*
X134850500Y-119856287D01*
X134850500Y-119643713D01*
X140149500Y-119643713D01*
X140149500Y-119856286D01*
X140182753Y-120066239D01*
X140248444Y-120268414D01*
X140344951Y-120457820D01*
X140469890Y-120629786D01*
X140620213Y-120780109D01*
X140792179Y-120905048D01*
X140792181Y-120905049D01*
X140792184Y-120905051D01*
X140981588Y-121001557D01*
X141183757Y-121067246D01*
X141393713Y-121100500D01*
X141393714Y-121100500D01*
X141606286Y-121100500D01*
X141606287Y-121100500D01*
X141816243Y-121067246D01*
X142018412Y-121001557D01*
X142207816Y-120905051D01*
X142229789Y-120889086D01*
X142379786Y-120780109D01*
X142379788Y-120780106D01*
X142379792Y-120780104D01*
X142530104Y-120629792D01*
X142530106Y-120629788D01*
X142530109Y-120629786D01*
X142655048Y-120457820D01*
X142655047Y-120457820D01*
X142655051Y-120457816D01*
X142751557Y-120268412D01*
X142817246Y-120066243D01*
X142850500Y-119856287D01*
X142850500Y-119643713D01*
X142817246Y-119433757D01*
X142751557Y-119231588D01*
X142655051Y-119042184D01*
X142655049Y-119042181D01*
X142655048Y-119042179D01*
X142530109Y-118870213D01*
X142379786Y-118719890D01*
X142207820Y-118594951D01*
X142018414Y-118498444D01*
X142018413Y-118498443D01*
X142018412Y-118498443D01*
X141816243Y-118432754D01*
X141816241Y-118432753D01*
X141816240Y-118432753D01*
X141654957Y-118407208D01*
X141606287Y-118399500D01*
X141393713Y-118399500D01*
X141345042Y-118407208D01*
X141183760Y-118432753D01*
X140981585Y-118498444D01*
X140792179Y-118594951D01*
X140620213Y-118719890D01*
X140469890Y-118870213D01*
X140344951Y-119042179D01*
X140248444Y-119231585D01*
X140182753Y-119433760D01*
X140149500Y-119643713D01*
X134850500Y-119643713D01*
X134817246Y-119433757D01*
X134751557Y-119231588D01*
X134655051Y-119042184D01*
X134655049Y-119042181D01*
X134655048Y-119042179D01*
X134530109Y-118870213D01*
X134379786Y-118719890D01*
X134207820Y-118594951D01*
X134018414Y-118498444D01*
X134018413Y-118498443D01*
X134018412Y-118498443D01*
X133816243Y-118432754D01*
X133816241Y-118432753D01*
X133816240Y-118432753D01*
X133654957Y-118407208D01*
X133606287Y-118399500D01*
X133393713Y-118399500D01*
X133345042Y-118407208D01*
X133183760Y-118432753D01*
X132981585Y-118498444D01*
X132792179Y-118594951D01*
X132620213Y-118719890D01*
X132469890Y-118870213D01*
X132344951Y-119042179D01*
X132248444Y-119231585D01*
X132182753Y-119433760D01*
X132149500Y-119643713D01*
X126850500Y-119643713D01*
X126817246Y-119433757D01*
X126751557Y-119231588D01*
X126655051Y-119042184D01*
X126655049Y-119042181D01*
X126655048Y-119042179D01*
X126530109Y-118870213D01*
X126379786Y-118719890D01*
X126207820Y-118594951D01*
X126018414Y-118498444D01*
X126018413Y-118498443D01*
X126018412Y-118498443D01*
X125816243Y-118432754D01*
X125816241Y-118432753D01*
X125816240Y-118432753D01*
X125654957Y-118407208D01*
X125606287Y-118399500D01*
X125393713Y-118399500D01*
X125345042Y-118407208D01*
X125183760Y-118432753D01*
X124981585Y-118498444D01*
X124792179Y-118594951D01*
X124620213Y-118719890D01*
X124469890Y-118870213D01*
X124344951Y-119042179D01*
X124248444Y-119231585D01*
X124182753Y-119433760D01*
X124149500Y-119643713D01*
X118850500Y-119643713D01*
X118817246Y-119433757D01*
X118751557Y-119231588D01*
X118655051Y-119042184D01*
X118655049Y-119042181D01*
X118655048Y-119042179D01*
X118530109Y-118870213D01*
X118379786Y-118719890D01*
X118207820Y-118594951D01*
X118018414Y-118498444D01*
X118018413Y-118498443D01*
X118018412Y-118498443D01*
X117816243Y-118432754D01*
X117816241Y-118432753D01*
X117816240Y-118432753D01*
X117654957Y-118407208D01*
X117606287Y-118399500D01*
X117393713Y-118399500D01*
X117345042Y-118407208D01*
X117183760Y-118432753D01*
X116981585Y-118498444D01*
X116792179Y-118594951D01*
X116620213Y-118719890D01*
X116469890Y-118870213D01*
X116344951Y-119042179D01*
X116248444Y-119231585D01*
X116182753Y-119433760D01*
X116149500Y-119643713D01*
X59607864Y-119643713D01*
X59607190Y-119642812D01*
X59607187Y-119642809D01*
X59492093Y-119556649D01*
X59492086Y-119556645D01*
X59357379Y-119506403D01*
X59357372Y-119506401D01*
X59297844Y-119500000D01*
X57000000Y-119500000D01*
X57000000Y-124750000D01*
X56500000Y-124750000D01*
X56500000Y-119500000D01*
X54202155Y-119500000D01*
X54142627Y-119506401D01*
X54142620Y-119506403D01*
X54007913Y-119556645D01*
X54007906Y-119556649D01*
X53892812Y-119642809D01*
X53892809Y-119642812D01*
X53806649Y-119757906D01*
X53806645Y-119757913D01*
X53756403Y-119892620D01*
X53756401Y-119892627D01*
X53750000Y-119952155D01*
X50500500Y-119952155D01*
X50500500Y-111501995D01*
X117699500Y-111501995D01*
X117699500Y-111738004D01*
X117699501Y-111738020D01*
X117730306Y-111972010D01*
X117791394Y-112199993D01*
X117881714Y-112418045D01*
X117881719Y-112418056D01*
X117952677Y-112540957D01*
X117999727Y-112622450D01*
X117999729Y-112622453D01*
X117999730Y-112622454D01*
X118143406Y-112809697D01*
X118143412Y-112809704D01*
X118310295Y-112976587D01*
X118310301Y-112976592D01*
X118497550Y-113120273D01*
X118628918Y-113196118D01*
X118701943Y-113238280D01*
X118701948Y-113238282D01*
X118701951Y-113238284D01*
X118920007Y-113328606D01*
X119147986Y-113389693D01*
X119381989Y-113420500D01*
X119381996Y-113420500D01*
X119618004Y-113420500D01*
X119618011Y-113420500D01*
X119852014Y-113389693D01*
X120079993Y-113328606D01*
X120298049Y-113238284D01*
X120502450Y-113120273D01*
X120689699Y-112976592D01*
X120856592Y-112809699D01*
X121000273Y-112622450D01*
X121118284Y-112418049D01*
X121208606Y-112199993D01*
X121269693Y-111972014D01*
X121300500Y-111738011D01*
X121300500Y-111501995D01*
X122699500Y-111501995D01*
X122699500Y-111738004D01*
X122699501Y-111738020D01*
X122730306Y-111972010D01*
X122791394Y-112199993D01*
X122881714Y-112418045D01*
X122881719Y-112418056D01*
X122952677Y-112540957D01*
X122999727Y-112622450D01*
X122999729Y-112622453D01*
X122999730Y-112622454D01*
X123143406Y-112809697D01*
X123143412Y-112809704D01*
X123310295Y-112976587D01*
X123310301Y-112976592D01*
X123497550Y-113120273D01*
X123628918Y-113196118D01*
X123701943Y-113238280D01*
X123701948Y-113238282D01*
X123701951Y-113238284D01*
X123920007Y-113328606D01*
X124147986Y-113389693D01*
X124381989Y-113420500D01*
X124381996Y-113420500D01*
X124618004Y-113420500D01*
X124618011Y-113420500D01*
X124852014Y-113389693D01*
X125079993Y-113328606D01*
X125298049Y-113238284D01*
X125502450Y-113120273D01*
X125689699Y-112976592D01*
X125856592Y-112809699D01*
X126000273Y-112622450D01*
X126118284Y-112418049D01*
X126208606Y-112199993D01*
X126269693Y-111972014D01*
X126300500Y-111738011D01*
X126300500Y-111501995D01*
X127699500Y-111501995D01*
X127699500Y-111738004D01*
X127699501Y-111738020D01*
X127730306Y-111972010D01*
X127791394Y-112199993D01*
X127881714Y-112418045D01*
X127881719Y-112418056D01*
X127952677Y-112540957D01*
X127999727Y-112622450D01*
X127999729Y-112622453D01*
X127999730Y-112622454D01*
X128143406Y-112809697D01*
X128143412Y-112809704D01*
X128310295Y-112976587D01*
X128310301Y-112976592D01*
X128497550Y-113120273D01*
X128628918Y-113196118D01*
X128701943Y-113238280D01*
X128701948Y-113238282D01*
X128701951Y-113238284D01*
X128920007Y-113328606D01*
X129147986Y-113389693D01*
X129381989Y-113420500D01*
X129381996Y-113420500D01*
X129618004Y-113420500D01*
X129618011Y-113420500D01*
X129852014Y-113389693D01*
X130079993Y-113328606D01*
X130298049Y-113238284D01*
X130502450Y-113120273D01*
X130689699Y-112976592D01*
X130856592Y-112809699D01*
X131000273Y-112622450D01*
X131118284Y-112418049D01*
X131208606Y-112199993D01*
X131269693Y-111972014D01*
X131300500Y-111738011D01*
X131300500Y-111501995D01*
X132699500Y-111501995D01*
X132699500Y-111738004D01*
X132699501Y-111738020D01*
X132730306Y-111972010D01*
X132791394Y-112199993D01*
X132881714Y-112418045D01*
X132881719Y-112418056D01*
X132952677Y-112540957D01*
X132999727Y-112622450D01*
X132999729Y-112622453D01*
X132999730Y-112622454D01*
X133143406Y-112809697D01*
X133143412Y-112809704D01*
X133310295Y-112976587D01*
X133310301Y-112976592D01*
X133497550Y-113120273D01*
X133628918Y-113196118D01*
X133701943Y-113238280D01*
X133701948Y-113238282D01*
X133701951Y-113238284D01*
X133920007Y-113328606D01*
X134147986Y-113389693D01*
X134381989Y-113420500D01*
X134381996Y-113420500D01*
X134618004Y-113420500D01*
X134618011Y-113420500D01*
X134852014Y-113389693D01*
X135079993Y-113328606D01*
X135298049Y-113238284D01*
X135502450Y-113120273D01*
X135689699Y-112976592D01*
X135856592Y-112809699D01*
X136000273Y-112622450D01*
X136118284Y-112418049D01*
X136208606Y-112199993D01*
X136269693Y-111972014D01*
X136300500Y-111738011D01*
X136300500Y-111501995D01*
X137699500Y-111501995D01*
X137699500Y-111738004D01*
X137699501Y-111738020D01*
X137730306Y-111972010D01*
X137791394Y-112199993D01*
X137881714Y-112418045D01*
X137881719Y-112418056D01*
X137952677Y-112540957D01*
X137999727Y-112622450D01*
X137999729Y-112622453D01*
X137999730Y-112622454D01*
X138143406Y-112809697D01*
X138143412Y-112809704D01*
X138310295Y-112976587D01*
X138310301Y-112976592D01*
X138497550Y-113120273D01*
X138628918Y-113196118D01*
X138701943Y-113238280D01*
X138701948Y-113238282D01*
X138701951Y-113238284D01*
X138920007Y-113328606D01*
X139147986Y-113389693D01*
X139381989Y-113420500D01*
X139381996Y-113420500D01*
X139618004Y-113420500D01*
X139618011Y-113420500D01*
X139852014Y-113389693D01*
X140079993Y-113328606D01*
X140298049Y-113238284D01*
X140502450Y-113120273D01*
X140689699Y-112976592D01*
X140856592Y-112809699D01*
X141000273Y-112622450D01*
X141118284Y-112418049D01*
X141208606Y-112199993D01*
X141269693Y-111972014D01*
X141300500Y-111738011D01*
X141300500Y-111501989D01*
X141269693Y-111267986D01*
X141208606Y-111040007D01*
X141118284Y-110821951D01*
X141118282Y-110821948D01*
X141118280Y-110821943D01*
X141076118Y-110748918D01*
X141000273Y-110617550D01*
X140856592Y-110430301D01*
X140856587Y-110430295D01*
X140689704Y-110263412D01*
X140689697Y-110263406D01*
X140502454Y-110119730D01*
X140502453Y-110119729D01*
X140502450Y-110119727D01*
X140420957Y-110072677D01*
X140298056Y-110001719D01*
X140298045Y-110001714D01*
X140079993Y-109911394D01*
X139852010Y-109850306D01*
X139618020Y-109819501D01*
X139618017Y-109819500D01*
X139618011Y-109819500D01*
X139381989Y-109819500D01*
X139381983Y-109819500D01*
X139381979Y-109819501D01*
X139147989Y-109850306D01*
X138920006Y-109911394D01*
X138701954Y-110001714D01*
X138701943Y-110001719D01*
X138497545Y-110119730D01*
X138310302Y-110263406D01*
X138310295Y-110263412D01*
X138143412Y-110430295D01*
X138143406Y-110430302D01*
X137999730Y-110617545D01*
X137881719Y-110821943D01*
X137881714Y-110821954D01*
X137791394Y-111040006D01*
X137730306Y-111267989D01*
X137699501Y-111501979D01*
X137699500Y-111501995D01*
X136300500Y-111501995D01*
X136300500Y-111501989D01*
X136269693Y-111267986D01*
X136208606Y-111040007D01*
X136118284Y-110821951D01*
X136118282Y-110821948D01*
X136118280Y-110821943D01*
X136076118Y-110748918D01*
X136000273Y-110617550D01*
X135856592Y-110430301D01*
X135856587Y-110430295D01*
X135689704Y-110263412D01*
X135689697Y-110263406D01*
X135502454Y-110119730D01*
X135502453Y-110119729D01*
X135502450Y-110119727D01*
X135420957Y-110072677D01*
X135298056Y-110001719D01*
X135298045Y-110001714D01*
X135079993Y-109911394D01*
X134852010Y-109850306D01*
X134618020Y-109819501D01*
X134618017Y-109819500D01*
X134618011Y-109819500D01*
X134381989Y-109819500D01*
X134381983Y-109819500D01*
X134381979Y-109819501D01*
X134147989Y-109850306D01*
X133920006Y-109911394D01*
X133701954Y-110001714D01*
X133701943Y-110001719D01*
X133497545Y-110119730D01*
X133310302Y-110263406D01*
X133310295Y-110263412D01*
X133143412Y-110430295D01*
X133143406Y-110430302D01*
X132999730Y-110617545D01*
X132881719Y-110821943D01*
X132881714Y-110821954D01*
X132791394Y-111040006D01*
X132730306Y-111267989D01*
X132699501Y-111501979D01*
X132699500Y-111501995D01*
X131300500Y-111501995D01*
X131300500Y-111501989D01*
X131269693Y-111267986D01*
X131208606Y-111040007D01*
X131118284Y-110821951D01*
X131118282Y-110821948D01*
X131118280Y-110821943D01*
X131076118Y-110748918D01*
X131000273Y-110617550D01*
X130856592Y-110430301D01*
X130856587Y-110430295D01*
X130689704Y-110263412D01*
X130689697Y-110263406D01*
X130502454Y-110119730D01*
X130502453Y-110119729D01*
X130502450Y-110119727D01*
X130420957Y-110072677D01*
X130298056Y-110001719D01*
X130298045Y-110001714D01*
X130079993Y-109911394D01*
X129852010Y-109850306D01*
X129618020Y-109819501D01*
X129618017Y-109819500D01*
X129618011Y-109819500D01*
X129381989Y-109819500D01*
X129381983Y-109819500D01*
X129381979Y-109819501D01*
X129147989Y-109850306D01*
X128920006Y-109911394D01*
X128701954Y-110001714D01*
X128701943Y-110001719D01*
X128497545Y-110119730D01*
X128310302Y-110263406D01*
X128310295Y-110263412D01*
X128143412Y-110430295D01*
X128143406Y-110430302D01*
X127999730Y-110617545D01*
X127881719Y-110821943D01*
X127881714Y-110821954D01*
X127791394Y-111040006D01*
X127730306Y-111267989D01*
X127699501Y-111501979D01*
X127699500Y-111501995D01*
X126300500Y-111501995D01*
X126300500Y-111501989D01*
X126269693Y-111267986D01*
X126208606Y-111040007D01*
X126118284Y-110821951D01*
X126118282Y-110821948D01*
X126118280Y-110821943D01*
X126076118Y-110748918D01*
X126000273Y-110617550D01*
X125856592Y-110430301D01*
X125856587Y-110430295D01*
X125689704Y-110263412D01*
X125689697Y-110263406D01*
X125502454Y-110119730D01*
X125502453Y-110119729D01*
X125502450Y-110119727D01*
X125420957Y-110072677D01*
X125298056Y-110001719D01*
X125298045Y-110001714D01*
X125079993Y-109911394D01*
X124852010Y-109850306D01*
X124618020Y-109819501D01*
X124618017Y-109819500D01*
X124618011Y-109819500D01*
X124381989Y-109819500D01*
X124381983Y-109819500D01*
X124381979Y-109819501D01*
X124147989Y-109850306D01*
X123920006Y-109911394D01*
X123701954Y-110001714D01*
X123701943Y-110001719D01*
X123497545Y-110119730D01*
X123310302Y-110263406D01*
X123310295Y-110263412D01*
X123143412Y-110430295D01*
X123143406Y-110430302D01*
X122999730Y-110617545D01*
X122881719Y-110821943D01*
X122881714Y-110821954D01*
X122791394Y-111040006D01*
X122730306Y-111267989D01*
X122699501Y-111501979D01*
X122699500Y-111501995D01*
X121300500Y-111501995D01*
X121300500Y-111501989D01*
X121269693Y-111267986D01*
X121208606Y-111040007D01*
X121118284Y-110821951D01*
X121118282Y-110821948D01*
X121118280Y-110821943D01*
X121076118Y-110748918D01*
X121000273Y-110617550D01*
X120856592Y-110430301D01*
X120856587Y-110430295D01*
X120689704Y-110263412D01*
X120689697Y-110263406D01*
X120502454Y-110119730D01*
X120502453Y-110119729D01*
X120502450Y-110119727D01*
X120420957Y-110072677D01*
X120298056Y-110001719D01*
X120298045Y-110001714D01*
X120079993Y-109911394D01*
X119852010Y-109850306D01*
X119618020Y-109819501D01*
X119618017Y-109819500D01*
X119618011Y-109819500D01*
X119381989Y-109819500D01*
X119381983Y-109819500D01*
X119381979Y-109819501D01*
X119147989Y-109850306D01*
X118920006Y-109911394D01*
X118701954Y-110001714D01*
X118701943Y-110001719D01*
X118497545Y-110119730D01*
X118310302Y-110263406D01*
X118310295Y-110263412D01*
X118143412Y-110430295D01*
X118143406Y-110430302D01*
X117999730Y-110617545D01*
X117881719Y-110821943D01*
X117881714Y-110821954D01*
X117791394Y-111040006D01*
X117730306Y-111267989D01*
X117699501Y-111501979D01*
X117699500Y-111501995D01*
X50500500Y-111501995D01*
X50500500Y-91381995D01*
X117699500Y-91381995D01*
X117699500Y-91618004D01*
X117699501Y-91618020D01*
X117730306Y-91852010D01*
X117791394Y-92079993D01*
X117881714Y-92298045D01*
X117881719Y-92298056D01*
X117952677Y-92420957D01*
X117999727Y-92502450D01*
X117999729Y-92502453D01*
X117999730Y-92502454D01*
X118143406Y-92689697D01*
X118143412Y-92689704D01*
X118310295Y-92856587D01*
X118310301Y-92856592D01*
X118497550Y-93000273D01*
X118628918Y-93076118D01*
X118701943Y-93118280D01*
X118701948Y-93118282D01*
X118701951Y-93118284D01*
X118920007Y-93208606D01*
X119147986Y-93269693D01*
X119381989Y-93300500D01*
X119381996Y-93300500D01*
X119618004Y-93300500D01*
X119618011Y-93300500D01*
X119852014Y-93269693D01*
X120079993Y-93208606D01*
X120298049Y-93118284D01*
X120502450Y-93000273D01*
X120689699Y-92856592D01*
X120856592Y-92689699D01*
X121000273Y-92502450D01*
X121118284Y-92298049D01*
X121208606Y-92079993D01*
X121269693Y-91852014D01*
X121300500Y-91618011D01*
X121300500Y-91381989D01*
X121269693Y-91147986D01*
X121208606Y-90920007D01*
X121118284Y-90701951D01*
X121118282Y-90701948D01*
X121118280Y-90701943D01*
X121076118Y-90628918D01*
X121000273Y-90497550D01*
X120856592Y-90310301D01*
X120856587Y-90310295D01*
X120689704Y-90143412D01*
X120689697Y-90143406D01*
X120502454Y-89999730D01*
X120502453Y-89999729D01*
X120502450Y-89999727D01*
X120420957Y-89952677D01*
X120298056Y-89881719D01*
X120298045Y-89881714D01*
X120079993Y-89791394D01*
X119852010Y-89730306D01*
X119618020Y-89699501D01*
X119618017Y-89699500D01*
X119618011Y-89699500D01*
X119381989Y-89699500D01*
X119381983Y-89699500D01*
X119381979Y-89699501D01*
X119147989Y-89730306D01*
X118920006Y-89791394D01*
X118701954Y-89881714D01*
X118701943Y-89881719D01*
X118497545Y-89999730D01*
X118310302Y-90143406D01*
X118310295Y-90143412D01*
X118143412Y-90310295D01*
X118143406Y-90310302D01*
X117999730Y-90497545D01*
X117881719Y-90701943D01*
X117881714Y-90701954D01*
X117791394Y-90920006D01*
X117730306Y-91147989D01*
X117699501Y-91381979D01*
X117699500Y-91381995D01*
X50500500Y-91381995D01*
X50500500Y-88154108D01*
X122449500Y-88154108D01*
X122449500Y-107845891D01*
X122483608Y-107973187D01*
X122516554Y-108030250D01*
X122549500Y-108087314D01*
X122642686Y-108180500D01*
X122756814Y-108246392D01*
X122884108Y-108280500D01*
X122884110Y-108280500D01*
X136115890Y-108280500D01*
X136115892Y-108280500D01*
X136243186Y-108246392D01*
X136357314Y-108180500D01*
X136450500Y-108087314D01*
X136516392Y-107973186D01*
X136550500Y-107845892D01*
X136550500Y-91381995D01*
X137699500Y-91381995D01*
X137699500Y-91618004D01*
X137699501Y-91618020D01*
X137730306Y-91852010D01*
X137791394Y-92079993D01*
X137881714Y-92298045D01*
X137881719Y-92298056D01*
X137952677Y-92420957D01*
X137999727Y-92502450D01*
X137999729Y-92502453D01*
X137999730Y-92502454D01*
X138143406Y-92689697D01*
X138143412Y-92689704D01*
X138310295Y-92856587D01*
X138310301Y-92856592D01*
X138497550Y-93000273D01*
X138628918Y-93076118D01*
X138701943Y-93118280D01*
X138701948Y-93118282D01*
X138701951Y-93118284D01*
X138920007Y-93208606D01*
X139147986Y-93269693D01*
X139381989Y-93300500D01*
X139381996Y-93300500D01*
X139618004Y-93300500D01*
X139618011Y-93300500D01*
X139852014Y-93269693D01*
X140079993Y-93208606D01*
X140298049Y-93118284D01*
X140502450Y-93000273D01*
X140689699Y-92856592D01*
X140856592Y-92689699D01*
X141000273Y-92502450D01*
X141118284Y-92298049D01*
X141208606Y-92079993D01*
X141269693Y-91852014D01*
X141300500Y-91618011D01*
X141300500Y-91381989D01*
X141269693Y-91147986D01*
X141208606Y-90920007D01*
X141118284Y-90701951D01*
X141118282Y-90701948D01*
X141118280Y-90701943D01*
X141076118Y-90628918D01*
X141000273Y-90497550D01*
X140856592Y-90310301D01*
X140856587Y-90310295D01*
X140689704Y-90143412D01*
X140689697Y-90143406D01*
X140502454Y-89999730D01*
X140502453Y-89999729D01*
X140502450Y-89999727D01*
X140420957Y-89952677D01*
X140298056Y-89881719D01*
X140298045Y-89881714D01*
X140079993Y-89791394D01*
X139852010Y-89730306D01*
X139618020Y-89699501D01*
X139618017Y-89699500D01*
X139618011Y-89699500D01*
X139381989Y-89699500D01*
X139381983Y-89699500D01*
X139381979Y-89699501D01*
X139147989Y-89730306D01*
X138920006Y-89791394D01*
X138701954Y-89881714D01*
X138701943Y-89881719D01*
X138497545Y-89999730D01*
X138310302Y-90143406D01*
X138310295Y-90143412D01*
X138143412Y-90310295D01*
X138143406Y-90310302D01*
X137999730Y-90497545D01*
X137881719Y-90701943D01*
X137881714Y-90701954D01*
X137791394Y-90920006D01*
X137730306Y-91147989D01*
X137699501Y-91381979D01*
X137699500Y-91381995D01*
X136550500Y-91381995D01*
X136550500Y-88154108D01*
X136516392Y-88026814D01*
X136450500Y-87912686D01*
X136357314Y-87819500D01*
X136300250Y-87786554D01*
X136243187Y-87753608D01*
X136179539Y-87736554D01*
X136115892Y-87719500D01*
X123015892Y-87719500D01*
X122884108Y-87719500D01*
X122756812Y-87753608D01*
X122642686Y-87819500D01*
X122642683Y-87819502D01*
X122549502Y-87912683D01*
X122549500Y-87912686D01*
X122483608Y-88026812D01*
X122449500Y-88154108D01*
X50500500Y-88154108D01*
X50500500Y-50624500D01*
X50520185Y-50557461D01*
X50572989Y-50511706D01*
X50624500Y-50500500D01*
X149375500Y-50500500D01*
X149442539Y-50520185D01*
G37*
G04 #@! TD.AperFunction*
M02*
