G04 #@! TF.GenerationSoftware,KiCad,Pcbnew,8.0.3*
G04 #@! TF.CreationDate,2024-09-16T16:49:19+02:00*
G04 #@! TF.ProjectId,DMH_VCO_40106_PCB_Connectors,444d485f-5643-44f5-9f34-303130365f50,1*
G04 #@! TF.SameCoordinates,Original*
G04 #@! TF.FileFunction,Soldermask,Bot*
G04 #@! TF.FilePolarity,Negative*
%FSLAX46Y46*%
G04 Gerber Fmt 4.6, Leading zero omitted, Abs format (unit mm)*
G04 Created by KiCad (PCBNEW 8.0.3) date 2024-09-16 16:49:19*
%MOMM*%
%LPD*%
G01*
G04 APERTURE LIST*
G04 Aperture macros list*
%AMRoundRect*
0 Rectangle with rounded corners*
0 $1 Rounding radius*
0 $2 $3 $4 $5 $6 $7 $8 $9 X,Y pos of 4 corners*
0 Add a 4 corners polygon primitive as box body*
4,1,4,$2,$3,$4,$5,$6,$7,$8,$9,$2,$3,0*
0 Add four circle primitives for the rounded corners*
1,1,$1+$1,$2,$3*
1,1,$1+$1,$4,$5*
1,1,$1+$1,$6,$7*
1,1,$1+$1,$8,$9*
0 Add four rect primitives between the rounded corners*
20,1,$1+$1,$2,$3,$4,$5,0*
20,1,$1+$1,$4,$5,$6,$7,0*
20,1,$1+$1,$6,$7,$8,$9,0*
20,1,$1+$1,$8,$9,$2,$3,0*%
%AMHorizOval*
0 Thick line with rounded ends*
0 $1 width*
0 $2 $3 position (X,Y) of the first rounded end (center of the circle)*
0 $4 $5 position (X,Y) of the second rounded end (center of the circle)*
0 Add line between two ends*
20,1,$1,$2,$3,$4,$5,0*
0 Add two circle primitives to create the rounded ends*
1,1,$1,$2,$3*
1,1,$1,$4,$5*%
G04 Aperture macros list end*
%ADD10HorizOval,1.712000X-0.533159X-0.533159X0.533159X0.533159X0*%
%ADD11O,1.712000X3.220000*%
%ADD12O,3.220000X1.712000*%
%ADD13R,1.700000X1.700000*%
%ADD14O,1.700000X1.700000*%
%ADD15RoundRect,0.250000X0.600000X0.600000X-0.600000X0.600000X-0.600000X-0.600000X0.600000X-0.600000X0*%
%ADD16C,1.700000*%
G04 APERTURE END LIST*
D10*
X132903810Y-224153810D03*
D11*
X144000000Y-228250000D03*
D12*
X140000000Y-222250000D03*
D10*
X82903810Y-224153810D03*
D11*
X94000000Y-228250000D03*
D12*
X90000000Y-222250000D03*
D10*
X57903810Y-179153810D03*
D11*
X69000000Y-183250000D03*
D12*
X65000000Y-177250000D03*
D10*
X57903810Y-201653810D03*
D11*
X69000000Y-205750000D03*
D12*
X65000000Y-199750000D03*
D10*
X133000000Y-201653810D03*
D11*
X144096190Y-205750000D03*
D12*
X140096190Y-199750000D03*
D10*
X82903810Y-201653810D03*
D11*
X94000000Y-205750000D03*
D12*
X90000000Y-199750000D03*
D10*
X107903810Y-224153810D03*
D11*
X119000000Y-228250000D03*
D12*
X115000000Y-222250000D03*
D10*
X107903810Y-201653810D03*
D11*
X119000000Y-205750000D03*
D12*
X115000000Y-199750000D03*
D10*
X57903810Y-224153810D03*
D11*
X69000000Y-228250000D03*
D12*
X65000000Y-222250000D03*
D13*
X86010000Y-195250000D03*
D14*
X88550000Y-195250000D03*
X91090000Y-195250000D03*
X93630000Y-195250000D03*
X96170000Y-195250000D03*
X98710000Y-195250000D03*
X101250000Y-195250000D03*
X103790000Y-195250000D03*
X106330000Y-195250000D03*
X108870000Y-195250000D03*
X111410000Y-195250000D03*
X113950000Y-195250000D03*
D15*
X101252500Y-212420000D03*
D16*
X101252500Y-214960000D03*
X101252500Y-217500000D03*
X101252500Y-220040000D03*
X101252500Y-222580000D03*
X98712500Y-212420000D03*
X98712500Y-214960000D03*
X98712500Y-217500000D03*
X98712500Y-220040000D03*
X98712500Y-222580000D03*
M02*
