G04 #@! TF.GenerationSoftware,KiCad,Pcbnew,8.0.3*
G04 #@! TF.CreationDate,2024-09-16T17:57:27+02:00*
G04 #@! TF.ProjectId,DMH_VCO_40106_PCB_Connectors,444d485f-5643-44f5-9f34-303130365f50,1*
G04 #@! TF.SameCoordinates,Original*
G04 #@! TF.FileFunction,Legend,Bot*
G04 #@! TF.FilePolarity,Positive*
%FSLAX46Y46*%
G04 Gerber Fmt 4.6, Leading zero omitted, Abs format (unit mm)*
G04 Created by KiCad (PCBNEW 8.0.3) date 2024-09-16 17:57:27*
%MOMM*%
%LPD*%
G01*
G04 APERTURE LIST*
G04 Aperture macros list*
%AMRoundRect*
0 Rectangle with rounded corners*
0 $1 Rounding radius*
0 $2 $3 $4 $5 $6 $7 $8 $9 X,Y pos of 4 corners*
0 Add a 4 corners polygon primitive as box body*
4,1,4,$2,$3,$4,$5,$6,$7,$8,$9,$2,$3,0*
0 Add four circle primitives for the rounded corners*
1,1,$1+$1,$2,$3*
1,1,$1+$1,$4,$5*
1,1,$1+$1,$6,$7*
1,1,$1+$1,$8,$9*
0 Add four rect primitives between the rounded corners*
20,1,$1+$1,$2,$3,$4,$5,0*
20,1,$1+$1,$4,$5,$6,$7,0*
20,1,$1+$1,$6,$7,$8,$9,0*
20,1,$1+$1,$8,$9,$2,$3,0*%
%AMHorizOval*
0 Thick line with rounded ends*
0 $1 width*
0 $2 $3 position (X,Y) of the first rounded end (center of the circle)*
0 $4 $5 position (X,Y) of the second rounded end (center of the circle)*
0 Add line between two ends*
20,1,$1,$2,$3,$4,$5,0*
0 Add two circle primitives to create the rounded ends*
1,1,$1,$2,$3*
1,1,$1,$4,$5*%
G04 Aperture macros list end*
%ADD10C,0.100000*%
%ADD11C,0.250000*%
%ADD12C,0.150000*%
%ADD13C,0.120000*%
%ADD14HorizOval,1.712000X-0.533159X-0.533159X0.533159X0.533159X0*%
%ADD15O,1.712000X3.220000*%
%ADD16O,3.220000X1.712000*%
%ADD17R,1.700000X1.700000*%
%ADD18O,1.700000X1.700000*%
%ADD19RoundRect,0.250000X0.600000X0.600000X-0.600000X0.600000X-0.600000X-0.600000X0.600000X-0.600000X0*%
%ADD20C,1.700000*%
G04 APERTURE END LIST*
D10*
X116000000Y-234500000D02*
X126000000Y-234500000D01*
X126000000Y-236500000D01*
X116000000Y-236500000D01*
X116000000Y-234500000D01*
G36*
X116000000Y-234500000D02*
G01*
X126000000Y-234500000D01*
X126000000Y-236500000D01*
X116000000Y-236500000D01*
X116000000Y-234500000D01*
G37*
D11*
X147773809Y-235949619D02*
X147773809Y-234949619D01*
X147773809Y-234949619D02*
X147440476Y-235663904D01*
X147440476Y-235663904D02*
X147107143Y-234949619D01*
X147107143Y-234949619D02*
X147107143Y-235949619D01*
X146630952Y-235949619D02*
X146630952Y-234949619D01*
X146535714Y-235568666D02*
X146250000Y-235949619D01*
X146250000Y-235282952D02*
X146630952Y-235663904D01*
X145297619Y-235949619D02*
X145869047Y-235949619D01*
X145583333Y-235949619D02*
X145583333Y-234949619D01*
X145583333Y-234949619D02*
X145678571Y-235092476D01*
X145678571Y-235092476D02*
X145773809Y-235187714D01*
X145773809Y-235187714D02*
X145869047Y-235235333D01*
X144869047Y-235854380D02*
X144821428Y-235902000D01*
X144821428Y-235902000D02*
X144869047Y-235949619D01*
X144869047Y-235949619D02*
X144916666Y-235902000D01*
X144916666Y-235902000D02*
X144869047Y-235854380D01*
X144869047Y-235854380D02*
X144869047Y-235949619D01*
X143869048Y-235949619D02*
X144440476Y-235949619D01*
X144154762Y-235949619D02*
X144154762Y-234949619D01*
X144154762Y-234949619D02*
X144250000Y-235092476D01*
X144250000Y-235092476D02*
X144345238Y-235187714D01*
X144345238Y-235187714D02*
X144440476Y-235235333D01*
X142678571Y-235568666D02*
X141916667Y-235568666D01*
X140726190Y-235902000D02*
X140583333Y-235949619D01*
X140583333Y-235949619D02*
X140345238Y-235949619D01*
X140345238Y-235949619D02*
X140250000Y-235902000D01*
X140250000Y-235902000D02*
X140202381Y-235854380D01*
X140202381Y-235854380D02*
X140154762Y-235759142D01*
X140154762Y-235759142D02*
X140154762Y-235663904D01*
X140154762Y-235663904D02*
X140202381Y-235568666D01*
X140202381Y-235568666D02*
X140250000Y-235521047D01*
X140250000Y-235521047D02*
X140345238Y-235473428D01*
X140345238Y-235473428D02*
X140535714Y-235425809D01*
X140535714Y-235425809D02*
X140630952Y-235378190D01*
X140630952Y-235378190D02*
X140678571Y-235330571D01*
X140678571Y-235330571D02*
X140726190Y-235235333D01*
X140726190Y-235235333D02*
X140726190Y-235140095D01*
X140726190Y-235140095D02*
X140678571Y-235044857D01*
X140678571Y-235044857D02*
X140630952Y-234997238D01*
X140630952Y-234997238D02*
X140535714Y-234949619D01*
X140535714Y-234949619D02*
X140297619Y-234949619D01*
X140297619Y-234949619D02*
X140154762Y-234997238D01*
X139345238Y-235902000D02*
X139440476Y-235949619D01*
X139440476Y-235949619D02*
X139630952Y-235949619D01*
X139630952Y-235949619D02*
X139726190Y-235902000D01*
X139726190Y-235902000D02*
X139773809Y-235806761D01*
X139773809Y-235806761D02*
X139773809Y-235425809D01*
X139773809Y-235425809D02*
X139726190Y-235330571D01*
X139726190Y-235330571D02*
X139630952Y-235282952D01*
X139630952Y-235282952D02*
X139440476Y-235282952D01*
X139440476Y-235282952D02*
X139345238Y-235330571D01*
X139345238Y-235330571D02*
X139297619Y-235425809D01*
X139297619Y-235425809D02*
X139297619Y-235521047D01*
X139297619Y-235521047D02*
X139773809Y-235616285D01*
X138869047Y-235282952D02*
X138869047Y-236282952D01*
X138869047Y-235330571D02*
X138773809Y-235282952D01*
X138773809Y-235282952D02*
X138583333Y-235282952D01*
X138583333Y-235282952D02*
X138488095Y-235330571D01*
X138488095Y-235330571D02*
X138440476Y-235378190D01*
X138440476Y-235378190D02*
X138392857Y-235473428D01*
X138392857Y-235473428D02*
X138392857Y-235759142D01*
X138392857Y-235759142D02*
X138440476Y-235854380D01*
X138440476Y-235854380D02*
X138488095Y-235902000D01*
X138488095Y-235902000D02*
X138583333Y-235949619D01*
X138583333Y-235949619D02*
X138773809Y-235949619D01*
X138773809Y-235949619D02*
X138869047Y-235902000D01*
X138107142Y-235282952D02*
X137726190Y-235282952D01*
X137964285Y-234949619D02*
X137964285Y-235806761D01*
X137964285Y-235806761D02*
X137916666Y-235902000D01*
X137916666Y-235902000D02*
X137821428Y-235949619D01*
X137821428Y-235949619D02*
X137726190Y-235949619D01*
X137011904Y-235902000D02*
X137107142Y-235949619D01*
X137107142Y-235949619D02*
X137297618Y-235949619D01*
X137297618Y-235949619D02*
X137392856Y-235902000D01*
X137392856Y-235902000D02*
X137440475Y-235806761D01*
X137440475Y-235806761D02*
X137440475Y-235425809D01*
X137440475Y-235425809D02*
X137392856Y-235330571D01*
X137392856Y-235330571D02*
X137297618Y-235282952D01*
X137297618Y-235282952D02*
X137107142Y-235282952D01*
X137107142Y-235282952D02*
X137011904Y-235330571D01*
X137011904Y-235330571D02*
X136964285Y-235425809D01*
X136964285Y-235425809D02*
X136964285Y-235521047D01*
X136964285Y-235521047D02*
X137440475Y-235616285D01*
X136535713Y-235949619D02*
X136535713Y-235282952D01*
X136535713Y-235378190D02*
X136488094Y-235330571D01*
X136488094Y-235330571D02*
X136392856Y-235282952D01*
X136392856Y-235282952D02*
X136249999Y-235282952D01*
X136249999Y-235282952D02*
X136154761Y-235330571D01*
X136154761Y-235330571D02*
X136107142Y-235425809D01*
X136107142Y-235425809D02*
X136107142Y-235949619D01*
X136107142Y-235425809D02*
X136059523Y-235330571D01*
X136059523Y-235330571D02*
X135964285Y-235282952D01*
X135964285Y-235282952D02*
X135821428Y-235282952D01*
X135821428Y-235282952D02*
X135726189Y-235330571D01*
X135726189Y-235330571D02*
X135678570Y-235425809D01*
X135678570Y-235425809D02*
X135678570Y-235949619D01*
X135202380Y-235949619D02*
X135202380Y-234949619D01*
X135202380Y-235330571D02*
X135107142Y-235282952D01*
X135107142Y-235282952D02*
X134916666Y-235282952D01*
X134916666Y-235282952D02*
X134821428Y-235330571D01*
X134821428Y-235330571D02*
X134773809Y-235378190D01*
X134773809Y-235378190D02*
X134726190Y-235473428D01*
X134726190Y-235473428D02*
X134726190Y-235759142D01*
X134726190Y-235759142D02*
X134773809Y-235854380D01*
X134773809Y-235854380D02*
X134821428Y-235902000D01*
X134821428Y-235902000D02*
X134916666Y-235949619D01*
X134916666Y-235949619D02*
X135107142Y-235949619D01*
X135107142Y-235949619D02*
X135202380Y-235902000D01*
X133916666Y-235902000D02*
X134011904Y-235949619D01*
X134011904Y-235949619D02*
X134202380Y-235949619D01*
X134202380Y-235949619D02*
X134297618Y-235902000D01*
X134297618Y-235902000D02*
X134345237Y-235806761D01*
X134345237Y-235806761D02*
X134345237Y-235425809D01*
X134345237Y-235425809D02*
X134297618Y-235330571D01*
X134297618Y-235330571D02*
X134202380Y-235282952D01*
X134202380Y-235282952D02*
X134011904Y-235282952D01*
X134011904Y-235282952D02*
X133916666Y-235330571D01*
X133916666Y-235330571D02*
X133869047Y-235425809D01*
X133869047Y-235425809D02*
X133869047Y-235521047D01*
X133869047Y-235521047D02*
X134345237Y-235616285D01*
X133440475Y-235949619D02*
X133440475Y-235282952D01*
X133440475Y-235473428D02*
X133392856Y-235378190D01*
X133392856Y-235378190D02*
X133345237Y-235330571D01*
X133345237Y-235330571D02*
X133249999Y-235282952D01*
X133249999Y-235282952D02*
X133154761Y-235282952D01*
X132107141Y-235044857D02*
X132059522Y-234997238D01*
X132059522Y-234997238D02*
X131964284Y-234949619D01*
X131964284Y-234949619D02*
X131726189Y-234949619D01*
X131726189Y-234949619D02*
X131630951Y-234997238D01*
X131630951Y-234997238D02*
X131583332Y-235044857D01*
X131583332Y-235044857D02*
X131535713Y-235140095D01*
X131535713Y-235140095D02*
X131535713Y-235235333D01*
X131535713Y-235235333D02*
X131583332Y-235378190D01*
X131583332Y-235378190D02*
X132154760Y-235949619D01*
X132154760Y-235949619D02*
X131535713Y-235949619D01*
X130916665Y-234949619D02*
X130821427Y-234949619D01*
X130821427Y-234949619D02*
X130726189Y-234997238D01*
X130726189Y-234997238D02*
X130678570Y-235044857D01*
X130678570Y-235044857D02*
X130630951Y-235140095D01*
X130630951Y-235140095D02*
X130583332Y-235330571D01*
X130583332Y-235330571D02*
X130583332Y-235568666D01*
X130583332Y-235568666D02*
X130630951Y-235759142D01*
X130630951Y-235759142D02*
X130678570Y-235854380D01*
X130678570Y-235854380D02*
X130726189Y-235902000D01*
X130726189Y-235902000D02*
X130821427Y-235949619D01*
X130821427Y-235949619D02*
X130916665Y-235949619D01*
X130916665Y-235949619D02*
X131011903Y-235902000D01*
X131011903Y-235902000D02*
X131059522Y-235854380D01*
X131059522Y-235854380D02*
X131107141Y-235759142D01*
X131107141Y-235759142D02*
X131154760Y-235568666D01*
X131154760Y-235568666D02*
X131154760Y-235330571D01*
X131154760Y-235330571D02*
X131107141Y-235140095D01*
X131107141Y-235140095D02*
X131059522Y-235044857D01*
X131059522Y-235044857D02*
X131011903Y-234997238D01*
X131011903Y-234997238D02*
X130916665Y-234949619D01*
X130202379Y-235044857D02*
X130154760Y-234997238D01*
X130154760Y-234997238D02*
X130059522Y-234949619D01*
X130059522Y-234949619D02*
X129821427Y-234949619D01*
X129821427Y-234949619D02*
X129726189Y-234997238D01*
X129726189Y-234997238D02*
X129678570Y-235044857D01*
X129678570Y-235044857D02*
X129630951Y-235140095D01*
X129630951Y-235140095D02*
X129630951Y-235235333D01*
X129630951Y-235235333D02*
X129678570Y-235378190D01*
X129678570Y-235378190D02*
X130249998Y-235949619D01*
X130249998Y-235949619D02*
X129630951Y-235949619D01*
X128773808Y-235282952D02*
X128773808Y-235949619D01*
X129011903Y-234902000D02*
X129249998Y-235616285D01*
X129249998Y-235616285D02*
X128630951Y-235616285D01*
D12*
X140690476Y-229157200D02*
X140553572Y-229204819D01*
X140553572Y-229204819D02*
X140315476Y-229204819D01*
X140315476Y-229204819D02*
X140214286Y-229157200D01*
X140214286Y-229157200D02*
X140160714Y-229109580D01*
X140160714Y-229109580D02*
X140101191Y-229014342D01*
X140101191Y-229014342D02*
X140089286Y-228919104D01*
X140089286Y-228919104D02*
X140125000Y-228823866D01*
X140125000Y-228823866D02*
X140166667Y-228776247D01*
X140166667Y-228776247D02*
X140255953Y-228728628D01*
X140255953Y-228728628D02*
X140440476Y-228681009D01*
X140440476Y-228681009D02*
X140529762Y-228633390D01*
X140529762Y-228633390D02*
X140571429Y-228585771D01*
X140571429Y-228585771D02*
X140607143Y-228490533D01*
X140607143Y-228490533D02*
X140595238Y-228395295D01*
X140595238Y-228395295D02*
X140535714Y-228300057D01*
X140535714Y-228300057D02*
X140482143Y-228252438D01*
X140482143Y-228252438D02*
X140380953Y-228204819D01*
X140380953Y-228204819D02*
X140142857Y-228204819D01*
X140142857Y-228204819D02*
X140005953Y-228252438D01*
X139267857Y-229204819D02*
X139202381Y-228681009D01*
X139202381Y-228681009D02*
X139238095Y-228585771D01*
X139238095Y-228585771D02*
X139327381Y-228538152D01*
X139327381Y-228538152D02*
X139517857Y-228538152D01*
X139517857Y-228538152D02*
X139619048Y-228585771D01*
X139261905Y-229157200D02*
X139363095Y-229204819D01*
X139363095Y-229204819D02*
X139601191Y-229204819D01*
X139601191Y-229204819D02*
X139690476Y-229157200D01*
X139690476Y-229157200D02*
X139726191Y-229061961D01*
X139726191Y-229061961D02*
X139714286Y-228966723D01*
X139714286Y-228966723D02*
X139654762Y-228871485D01*
X139654762Y-228871485D02*
X139553572Y-228823866D01*
X139553572Y-228823866D02*
X139315476Y-228823866D01*
X139315476Y-228823866D02*
X139214286Y-228776247D01*
X138803571Y-228538152D02*
X138696429Y-229204819D01*
X138696429Y-229204819D02*
X138446429Y-228728628D01*
X138446429Y-228728628D02*
X138315476Y-229204819D01*
X138315476Y-229204819D02*
X138041667Y-228538152D01*
X137803571Y-228538152D02*
X137422619Y-228538152D01*
X137619048Y-228204819D02*
X137726191Y-229061961D01*
X137726191Y-229061961D02*
X137690476Y-229157200D01*
X137690476Y-229157200D02*
X137601191Y-229204819D01*
X137601191Y-229204819D02*
X137505952Y-229204819D01*
X137029762Y-229204819D02*
X137119047Y-229157200D01*
X137119047Y-229157200D02*
X137160714Y-229109580D01*
X137160714Y-229109580D02*
X137196428Y-229014342D01*
X137196428Y-229014342D02*
X137160714Y-228728628D01*
X137160714Y-228728628D02*
X137101190Y-228633390D01*
X137101190Y-228633390D02*
X137047619Y-228585771D01*
X137047619Y-228585771D02*
X136946428Y-228538152D01*
X136946428Y-228538152D02*
X136803571Y-228538152D01*
X136803571Y-228538152D02*
X136714285Y-228585771D01*
X136714285Y-228585771D02*
X136672619Y-228633390D01*
X136672619Y-228633390D02*
X136636904Y-228728628D01*
X136636904Y-228728628D02*
X136672619Y-229014342D01*
X136672619Y-229014342D02*
X136732142Y-229109580D01*
X136732142Y-229109580D02*
X136785714Y-229157200D01*
X136785714Y-229157200D02*
X136886904Y-229204819D01*
X136886904Y-229204819D02*
X137029762Y-229204819D01*
X136125000Y-229204819D02*
X136214285Y-229157200D01*
X136214285Y-229157200D02*
X136255952Y-229109580D01*
X136255952Y-229109580D02*
X136291666Y-229014342D01*
X136291666Y-229014342D02*
X136255952Y-228728628D01*
X136255952Y-228728628D02*
X136196428Y-228633390D01*
X136196428Y-228633390D02*
X136142857Y-228585771D01*
X136142857Y-228585771D02*
X136041666Y-228538152D01*
X136041666Y-228538152D02*
X135898809Y-228538152D01*
X135898809Y-228538152D02*
X135809523Y-228585771D01*
X135809523Y-228585771D02*
X135767857Y-228633390D01*
X135767857Y-228633390D02*
X135732142Y-228728628D01*
X135732142Y-228728628D02*
X135767857Y-229014342D01*
X135767857Y-229014342D02*
X135827380Y-229109580D01*
X135827380Y-229109580D02*
X135880952Y-229157200D01*
X135880952Y-229157200D02*
X135982142Y-229204819D01*
X135982142Y-229204819D02*
X136125000Y-229204819D01*
X135422618Y-228538152D02*
X135041666Y-228538152D01*
X135238095Y-228204819D02*
X135345238Y-229061961D01*
X135345238Y-229061961D02*
X135309523Y-229157200D01*
X135309523Y-229157200D02*
X135220238Y-229204819D01*
X135220238Y-229204819D02*
X135124999Y-229204819D01*
X134791666Y-229204819D02*
X134666666Y-228204819D01*
X134363094Y-229204819D02*
X134297618Y-228681009D01*
X134297618Y-228681009D02*
X134333332Y-228585771D01*
X134333332Y-228585771D02*
X134422618Y-228538152D01*
X134422618Y-228538152D02*
X134565475Y-228538152D01*
X134565475Y-228538152D02*
X134666666Y-228585771D01*
X134666666Y-228585771D02*
X134720237Y-228633390D01*
X90261905Y-228204819D02*
X89690476Y-228204819D01*
X90101191Y-229204819D02*
X89976191Y-228204819D01*
X89482143Y-229204819D02*
X89398809Y-228538152D01*
X89422619Y-228728628D02*
X89363095Y-228633390D01*
X89363095Y-228633390D02*
X89309524Y-228585771D01*
X89309524Y-228585771D02*
X89208333Y-228538152D01*
X89208333Y-228538152D02*
X89113095Y-228538152D01*
X88863095Y-229204819D02*
X88779761Y-228538152D01*
X88738095Y-228204819D02*
X88791666Y-228252438D01*
X88791666Y-228252438D02*
X88749999Y-228300057D01*
X88749999Y-228300057D02*
X88696428Y-228252438D01*
X88696428Y-228252438D02*
X88738095Y-228204819D01*
X88738095Y-228204819D02*
X88749999Y-228300057D01*
X87958333Y-229204819D02*
X87892857Y-228681009D01*
X87892857Y-228681009D02*
X87928571Y-228585771D01*
X87928571Y-228585771D02*
X88017857Y-228538152D01*
X88017857Y-228538152D02*
X88208333Y-228538152D01*
X88208333Y-228538152D02*
X88309524Y-228585771D01*
X87952381Y-229157200D02*
X88053571Y-229204819D01*
X88053571Y-229204819D02*
X88291667Y-229204819D01*
X88291667Y-229204819D02*
X88380952Y-229157200D01*
X88380952Y-229157200D02*
X88416667Y-229061961D01*
X88416667Y-229061961D02*
X88404762Y-228966723D01*
X88404762Y-228966723D02*
X88345238Y-228871485D01*
X88345238Y-228871485D02*
X88244048Y-228823866D01*
X88244048Y-228823866D02*
X88005952Y-228823866D01*
X88005952Y-228823866D02*
X87904762Y-228776247D01*
X87398809Y-228538152D02*
X87482143Y-229204819D01*
X87410714Y-228633390D02*
X87357143Y-228585771D01*
X87357143Y-228585771D02*
X87255952Y-228538152D01*
X87255952Y-228538152D02*
X87113095Y-228538152D01*
X87113095Y-228538152D02*
X87023809Y-228585771D01*
X87023809Y-228585771D02*
X86988095Y-228681009D01*
X86988095Y-228681009D02*
X87053571Y-229204819D01*
X86065476Y-228538152D02*
X86166666Y-229347676D01*
X86166666Y-229347676D02*
X86226190Y-229442914D01*
X86226190Y-229442914D02*
X86279762Y-229490533D01*
X86279762Y-229490533D02*
X86380952Y-229538152D01*
X86380952Y-229538152D02*
X86523809Y-229538152D01*
X86523809Y-229538152D02*
X86613095Y-229490533D01*
X86142857Y-229157200D02*
X86244047Y-229204819D01*
X86244047Y-229204819D02*
X86434524Y-229204819D01*
X86434524Y-229204819D02*
X86523809Y-229157200D01*
X86523809Y-229157200D02*
X86565476Y-229109580D01*
X86565476Y-229109580D02*
X86601190Y-229014342D01*
X86601190Y-229014342D02*
X86565476Y-228728628D01*
X86565476Y-228728628D02*
X86505952Y-228633390D01*
X86505952Y-228633390D02*
X86452381Y-228585771D01*
X86452381Y-228585771D02*
X86351190Y-228538152D01*
X86351190Y-228538152D02*
X86160714Y-228538152D01*
X86160714Y-228538152D02*
X86071428Y-228585771D01*
X85529762Y-229204819D02*
X85619047Y-229157200D01*
X85619047Y-229157200D02*
X85654762Y-229061961D01*
X85654762Y-229061961D02*
X85547619Y-228204819D01*
X84761904Y-229157200D02*
X84863094Y-229204819D01*
X84863094Y-229204819D02*
X85053571Y-229204819D01*
X85053571Y-229204819D02*
X85142856Y-229157200D01*
X85142856Y-229157200D02*
X85178571Y-229061961D01*
X85178571Y-229061961D02*
X85130952Y-228681009D01*
X85130952Y-228681009D02*
X85071428Y-228585771D01*
X85071428Y-228585771D02*
X84970237Y-228538152D01*
X84970237Y-228538152D02*
X84779761Y-228538152D01*
X84779761Y-228538152D02*
X84690475Y-228585771D01*
X84690475Y-228585771D02*
X84654761Y-228681009D01*
X84654761Y-228681009D02*
X84666666Y-228776247D01*
X84666666Y-228776247D02*
X85154761Y-228871485D01*
X64047618Y-184157200D02*
X63910714Y-184204819D01*
X63910714Y-184204819D02*
X63672618Y-184204819D01*
X63672618Y-184204819D02*
X63571428Y-184157200D01*
X63571428Y-184157200D02*
X63517856Y-184109580D01*
X63517856Y-184109580D02*
X63458333Y-184014342D01*
X63458333Y-184014342D02*
X63446428Y-183919104D01*
X63446428Y-183919104D02*
X63482142Y-183823866D01*
X63482142Y-183823866D02*
X63523809Y-183776247D01*
X63523809Y-183776247D02*
X63613095Y-183728628D01*
X63613095Y-183728628D02*
X63797618Y-183681009D01*
X63797618Y-183681009D02*
X63886904Y-183633390D01*
X63886904Y-183633390D02*
X63928571Y-183585771D01*
X63928571Y-183585771D02*
X63964285Y-183490533D01*
X63964285Y-183490533D02*
X63952380Y-183395295D01*
X63952380Y-183395295D02*
X63892856Y-183300057D01*
X63892856Y-183300057D02*
X63839285Y-183252438D01*
X63839285Y-183252438D02*
X63738095Y-183204819D01*
X63738095Y-183204819D02*
X63499999Y-183204819D01*
X63499999Y-183204819D02*
X63363095Y-183252438D01*
X63065475Y-183538152D02*
X62910714Y-184204819D01*
X62589285Y-183538152D02*
X62910714Y-184204819D01*
X62910714Y-184204819D02*
X63035714Y-184442914D01*
X63035714Y-184442914D02*
X63089285Y-184490533D01*
X63089285Y-184490533D02*
X63190475Y-184538152D01*
X62208332Y-183538152D02*
X62291666Y-184204819D01*
X62220237Y-183633390D02*
X62166666Y-183585771D01*
X62166666Y-183585771D02*
X62065475Y-183538152D01*
X62065475Y-183538152D02*
X61922618Y-183538152D01*
X61922618Y-183538152D02*
X61833332Y-183585771D01*
X61833332Y-183585771D02*
X61797618Y-183681009D01*
X61797618Y-183681009D02*
X61863094Y-184204819D01*
X60952380Y-184157200D02*
X61053570Y-184204819D01*
X61053570Y-184204819D02*
X61244047Y-184204819D01*
X61244047Y-184204819D02*
X61333332Y-184157200D01*
X61333332Y-184157200D02*
X61374999Y-184109580D01*
X61374999Y-184109580D02*
X61410713Y-184014342D01*
X61410713Y-184014342D02*
X61374999Y-183728628D01*
X61374999Y-183728628D02*
X61315475Y-183633390D01*
X61315475Y-183633390D02*
X61261904Y-183585771D01*
X61261904Y-183585771D02*
X61160713Y-183538152D01*
X61160713Y-183538152D02*
X60970237Y-183538152D01*
X60970237Y-183538152D02*
X60880951Y-183585771D01*
X64476190Y-205704819D02*
X64267856Y-206704819D01*
X64267856Y-206704819D02*
X63809523Y-205704819D01*
X62755952Y-205657200D02*
X63773809Y-206942914D01*
X62238094Y-205704819D02*
X62047618Y-205704819D01*
X62047618Y-205704819D02*
X61958333Y-205752438D01*
X61958333Y-205752438D02*
X61874999Y-205847676D01*
X61874999Y-205847676D02*
X61851190Y-206038152D01*
X61851190Y-206038152D02*
X61892856Y-206371485D01*
X61892856Y-206371485D02*
X61964285Y-206561961D01*
X61964285Y-206561961D02*
X62071428Y-206657200D01*
X62071428Y-206657200D02*
X62172618Y-206704819D01*
X62172618Y-206704819D02*
X62363094Y-206704819D01*
X62363094Y-206704819D02*
X62452380Y-206657200D01*
X62452380Y-206657200D02*
X62535714Y-206561961D01*
X62535714Y-206561961D02*
X62559523Y-206371485D01*
X62559523Y-206371485D02*
X62517856Y-206038152D01*
X62517856Y-206038152D02*
X62446428Y-205847676D01*
X62446428Y-205847676D02*
X62339285Y-205752438D01*
X62339285Y-205752438D02*
X62238094Y-205704819D01*
X61071428Y-206657200D02*
X61172618Y-206704819D01*
X61172618Y-206704819D02*
X61363095Y-206704819D01*
X61363095Y-206704819D02*
X61452380Y-206657200D01*
X61452380Y-206657200D02*
X61494047Y-206609580D01*
X61494047Y-206609580D02*
X61529761Y-206514342D01*
X61529761Y-206514342D02*
X61494047Y-206228628D01*
X61494047Y-206228628D02*
X61434523Y-206133390D01*
X61434523Y-206133390D02*
X61380952Y-206085771D01*
X61380952Y-206085771D02*
X61279761Y-206038152D01*
X61279761Y-206038152D02*
X61089285Y-206038152D01*
X61089285Y-206038152D02*
X60999999Y-206085771D01*
X60708332Y-206038152D02*
X60327380Y-206038152D01*
X60523809Y-205704819D02*
X60630952Y-206561961D01*
X60630952Y-206561961D02*
X60595237Y-206657200D01*
X60595237Y-206657200D02*
X60505952Y-206704819D01*
X60505952Y-206704819D02*
X60410713Y-206704819D01*
X140292618Y-206704819D02*
X140167618Y-205704819D01*
X140167618Y-205704819D02*
X139786665Y-205704819D01*
X139786665Y-205704819D02*
X139697380Y-205752438D01*
X139697380Y-205752438D02*
X139655713Y-205800057D01*
X139655713Y-205800057D02*
X139619999Y-205895295D01*
X139619999Y-205895295D02*
X139637856Y-206038152D01*
X139637856Y-206038152D02*
X139697380Y-206133390D01*
X139697380Y-206133390D02*
X139750951Y-206181009D01*
X139750951Y-206181009D02*
X139852141Y-206228628D01*
X139852141Y-206228628D02*
X140233094Y-206228628D01*
X139262856Y-205704819D02*
X139149761Y-206704819D01*
X139149761Y-206704819D02*
X138869999Y-205990533D01*
X138869999Y-205990533D02*
X138768808Y-206704819D01*
X138768808Y-206704819D02*
X138405713Y-205704819D01*
X137387856Y-206704819D02*
X137262856Y-205704819D01*
X137262856Y-205704819D02*
X137018808Y-206419104D01*
X137018808Y-206419104D02*
X136596189Y-205704819D01*
X136596189Y-205704819D02*
X136721189Y-206704819D01*
X136102142Y-206704819D02*
X136191427Y-206657200D01*
X136191427Y-206657200D02*
X136233094Y-206609580D01*
X136233094Y-206609580D02*
X136268808Y-206514342D01*
X136268808Y-206514342D02*
X136233094Y-206228628D01*
X136233094Y-206228628D02*
X136173570Y-206133390D01*
X136173570Y-206133390D02*
X136119999Y-206085771D01*
X136119999Y-206085771D02*
X136018808Y-206038152D01*
X136018808Y-206038152D02*
X135875951Y-206038152D01*
X135875951Y-206038152D02*
X135786665Y-206085771D01*
X135786665Y-206085771D02*
X135744999Y-206133390D01*
X135744999Y-206133390D02*
X135709284Y-206228628D01*
X135709284Y-206228628D02*
X135744999Y-206514342D01*
X135744999Y-206514342D02*
X135804522Y-206609580D01*
X135804522Y-206609580D02*
X135858094Y-206657200D01*
X135858094Y-206657200D02*
X135959284Y-206704819D01*
X135959284Y-206704819D02*
X136102142Y-206704819D01*
X134911665Y-206704819D02*
X134786665Y-205704819D01*
X134905713Y-206657200D02*
X135006903Y-206704819D01*
X135006903Y-206704819D02*
X135197380Y-206704819D01*
X135197380Y-206704819D02*
X135286665Y-206657200D01*
X135286665Y-206657200D02*
X135328332Y-206609580D01*
X135328332Y-206609580D02*
X135364046Y-206514342D01*
X135364046Y-206514342D02*
X135328332Y-206228628D01*
X135328332Y-206228628D02*
X135268808Y-206133390D01*
X135268808Y-206133390D02*
X135215237Y-206085771D01*
X135215237Y-206085771D02*
X135114046Y-206038152D01*
X135114046Y-206038152D02*
X134923570Y-206038152D01*
X134923570Y-206038152D02*
X134834284Y-206085771D01*
X90749999Y-206181009D02*
X90416666Y-206181009D01*
X90339285Y-206704819D02*
X90815476Y-206704819D01*
X90815476Y-206704819D02*
X90690476Y-205704819D01*
X90690476Y-205704819D02*
X90214285Y-205704819D01*
X90005952Y-206704819D02*
X89398809Y-206038152D01*
X89922618Y-206038152D02*
X89482142Y-206704819D01*
X89017856Y-206038152D02*
X89142856Y-207038152D01*
X89023809Y-206085771D02*
X88922618Y-206038152D01*
X88922618Y-206038152D02*
X88732142Y-206038152D01*
X88732142Y-206038152D02*
X88642856Y-206085771D01*
X88642856Y-206085771D02*
X88601190Y-206133390D01*
X88601190Y-206133390D02*
X88565475Y-206228628D01*
X88565475Y-206228628D02*
X88601190Y-206514342D01*
X88601190Y-206514342D02*
X88660713Y-206609580D01*
X88660713Y-206609580D02*
X88714285Y-206657200D01*
X88714285Y-206657200D02*
X88815475Y-206704819D01*
X88815475Y-206704819D02*
X89005952Y-206704819D01*
X89005952Y-206704819D02*
X89095237Y-206657200D01*
X87035713Y-206181009D02*
X87369046Y-206181009D01*
X87434523Y-206704819D02*
X87309523Y-205704819D01*
X87309523Y-205704819D02*
X86833332Y-205704819D01*
X86577380Y-206704819D02*
X86452380Y-205704819D01*
X86452380Y-205704819D02*
X86208332Y-206419104D01*
X86208332Y-206419104D02*
X85785713Y-205704819D01*
X85785713Y-205704819D02*
X85910713Y-206704819D01*
X84148808Y-206704819D02*
X84720237Y-206704819D01*
X84434522Y-206704819D02*
X84309522Y-205704819D01*
X84309522Y-205704819D02*
X84422618Y-205847676D01*
X84422618Y-205847676D02*
X84529761Y-205942914D01*
X84529761Y-205942914D02*
X84630951Y-205990533D01*
X114880952Y-229157200D02*
X114744048Y-229204819D01*
X114744048Y-229204819D02*
X114505952Y-229204819D01*
X114505952Y-229204819D02*
X114404762Y-229157200D01*
X114404762Y-229157200D02*
X114351190Y-229109580D01*
X114351190Y-229109580D02*
X114291667Y-229014342D01*
X114291667Y-229014342D02*
X114279762Y-228919104D01*
X114279762Y-228919104D02*
X114315476Y-228823866D01*
X114315476Y-228823866D02*
X114357143Y-228776247D01*
X114357143Y-228776247D02*
X114446429Y-228728628D01*
X114446429Y-228728628D02*
X114630952Y-228681009D01*
X114630952Y-228681009D02*
X114720238Y-228633390D01*
X114720238Y-228633390D02*
X114761905Y-228585771D01*
X114761905Y-228585771D02*
X114797619Y-228490533D01*
X114797619Y-228490533D02*
X114785714Y-228395295D01*
X114785714Y-228395295D02*
X114726190Y-228300057D01*
X114726190Y-228300057D02*
X114672619Y-228252438D01*
X114672619Y-228252438D02*
X114571429Y-228204819D01*
X114571429Y-228204819D02*
X114333333Y-228204819D01*
X114333333Y-228204819D02*
X114196429Y-228252438D01*
X113375000Y-228538152D02*
X113500000Y-229538152D01*
X113452381Y-229157200D02*
X113553571Y-229204819D01*
X113553571Y-229204819D02*
X113744048Y-229204819D01*
X113744048Y-229204819D02*
X113833333Y-229157200D01*
X113833333Y-229157200D02*
X113875000Y-229109580D01*
X113875000Y-229109580D02*
X113910714Y-229014342D01*
X113910714Y-229014342D02*
X113875000Y-228728628D01*
X113875000Y-228728628D02*
X113815476Y-228633390D01*
X113815476Y-228633390D02*
X113761905Y-228585771D01*
X113761905Y-228585771D02*
X113660714Y-228538152D01*
X113660714Y-228538152D02*
X113470238Y-228538152D01*
X113470238Y-228538152D02*
X113380952Y-228585771D01*
X112470238Y-228538152D02*
X112553571Y-229204819D01*
X112898809Y-228538152D02*
X112964286Y-229061961D01*
X112964286Y-229061961D02*
X112928571Y-229157200D01*
X112928571Y-229157200D02*
X112839286Y-229204819D01*
X112839286Y-229204819D02*
X112696428Y-229204819D01*
X112696428Y-229204819D02*
X112595238Y-229157200D01*
X112595238Y-229157200D02*
X112541666Y-229109580D01*
X111648809Y-229204819D02*
X111583333Y-228681009D01*
X111583333Y-228681009D02*
X111619047Y-228585771D01*
X111619047Y-228585771D02*
X111708333Y-228538152D01*
X111708333Y-228538152D02*
X111898809Y-228538152D01*
X111898809Y-228538152D02*
X112000000Y-228585771D01*
X111642857Y-229157200D02*
X111744047Y-229204819D01*
X111744047Y-229204819D02*
X111982143Y-229204819D01*
X111982143Y-229204819D02*
X112071428Y-229157200D01*
X112071428Y-229157200D02*
X112107143Y-229061961D01*
X112107143Y-229061961D02*
X112095238Y-228966723D01*
X112095238Y-228966723D02*
X112035714Y-228871485D01*
X112035714Y-228871485D02*
X111934524Y-228823866D01*
X111934524Y-228823866D02*
X111696428Y-228823866D01*
X111696428Y-228823866D02*
X111595238Y-228776247D01*
X111172619Y-229204819D02*
X111089285Y-228538152D01*
X111113095Y-228728628D02*
X111053571Y-228633390D01*
X111053571Y-228633390D02*
X111000000Y-228585771D01*
X111000000Y-228585771D02*
X110898809Y-228538152D01*
X110898809Y-228538152D02*
X110803571Y-228538152D01*
X110166666Y-229157200D02*
X110267856Y-229204819D01*
X110267856Y-229204819D02*
X110458333Y-229204819D01*
X110458333Y-229204819D02*
X110547618Y-229157200D01*
X110547618Y-229157200D02*
X110583333Y-229061961D01*
X110583333Y-229061961D02*
X110535714Y-228681009D01*
X110535714Y-228681009D02*
X110476190Y-228585771D01*
X110476190Y-228585771D02*
X110374999Y-228538152D01*
X110374999Y-228538152D02*
X110184523Y-228538152D01*
X110184523Y-228538152D02*
X110095237Y-228585771D01*
X110095237Y-228585771D02*
X110059523Y-228681009D01*
X110059523Y-228681009D02*
X110071428Y-228776247D01*
X110071428Y-228776247D02*
X110559523Y-228871485D01*
X115749999Y-206181009D02*
X115416666Y-206181009D01*
X115339285Y-206704819D02*
X115815476Y-206704819D01*
X115815476Y-206704819D02*
X115690476Y-205704819D01*
X115690476Y-205704819D02*
X115214285Y-205704819D01*
X115005952Y-206704819D02*
X114398809Y-206038152D01*
X114922618Y-206038152D02*
X114482142Y-206704819D01*
X114017856Y-206038152D02*
X114142856Y-207038152D01*
X114023809Y-206085771D02*
X113922618Y-206038152D01*
X113922618Y-206038152D02*
X113732142Y-206038152D01*
X113732142Y-206038152D02*
X113642856Y-206085771D01*
X113642856Y-206085771D02*
X113601190Y-206133390D01*
X113601190Y-206133390D02*
X113565475Y-206228628D01*
X113565475Y-206228628D02*
X113601190Y-206514342D01*
X113601190Y-206514342D02*
X113660713Y-206609580D01*
X113660713Y-206609580D02*
X113714285Y-206657200D01*
X113714285Y-206657200D02*
X113815475Y-206704819D01*
X113815475Y-206704819D02*
X114005952Y-206704819D01*
X114005952Y-206704819D02*
X114095237Y-206657200D01*
X112035713Y-206181009D02*
X112369046Y-206181009D01*
X112434523Y-206704819D02*
X112309523Y-205704819D01*
X112309523Y-205704819D02*
X111833332Y-205704819D01*
X111577380Y-206704819D02*
X111452380Y-205704819D01*
X111452380Y-205704819D02*
X111208332Y-206419104D01*
X111208332Y-206419104D02*
X110785713Y-205704819D01*
X110785713Y-205704819D02*
X110910713Y-206704819D01*
X109607141Y-205800057D02*
X109553570Y-205752438D01*
X109553570Y-205752438D02*
X109452380Y-205704819D01*
X109452380Y-205704819D02*
X109214284Y-205704819D01*
X109214284Y-205704819D02*
X109124999Y-205752438D01*
X109124999Y-205752438D02*
X109083332Y-205800057D01*
X109083332Y-205800057D02*
X109047618Y-205895295D01*
X109047618Y-205895295D02*
X109059522Y-205990533D01*
X109059522Y-205990533D02*
X109124999Y-206133390D01*
X109124999Y-206133390D02*
X109767856Y-206704819D01*
X109767856Y-206704819D02*
X109148808Y-206704819D01*
X63904761Y-229157200D02*
X63767857Y-229204819D01*
X63767857Y-229204819D02*
X63529761Y-229204819D01*
X63529761Y-229204819D02*
X63428571Y-229157200D01*
X63428571Y-229157200D02*
X63374999Y-229109580D01*
X63374999Y-229109580D02*
X63315476Y-229014342D01*
X63315476Y-229014342D02*
X63303571Y-228919104D01*
X63303571Y-228919104D02*
X63339285Y-228823866D01*
X63339285Y-228823866D02*
X63380952Y-228776247D01*
X63380952Y-228776247D02*
X63470238Y-228728628D01*
X63470238Y-228728628D02*
X63654761Y-228681009D01*
X63654761Y-228681009D02*
X63744047Y-228633390D01*
X63744047Y-228633390D02*
X63785714Y-228585771D01*
X63785714Y-228585771D02*
X63821428Y-228490533D01*
X63821428Y-228490533D02*
X63809523Y-228395295D01*
X63809523Y-228395295D02*
X63749999Y-228300057D01*
X63749999Y-228300057D02*
X63696428Y-228252438D01*
X63696428Y-228252438D02*
X63595238Y-228204819D01*
X63595238Y-228204819D02*
X63357142Y-228204819D01*
X63357142Y-228204819D02*
X63220238Y-228252438D01*
X62910714Y-229204819D02*
X62827380Y-228538152D01*
X62785714Y-228204819D02*
X62839285Y-228252438D01*
X62839285Y-228252438D02*
X62797618Y-228300057D01*
X62797618Y-228300057D02*
X62744047Y-228252438D01*
X62744047Y-228252438D02*
X62785714Y-228204819D01*
X62785714Y-228204819D02*
X62797618Y-228300057D01*
X62351190Y-228538152D02*
X62434524Y-229204819D01*
X62363095Y-228633390D02*
X62309524Y-228585771D01*
X62309524Y-228585771D02*
X62208333Y-228538152D01*
X62208333Y-228538152D02*
X62065476Y-228538152D01*
X62065476Y-228538152D02*
X61976190Y-228585771D01*
X61976190Y-228585771D02*
X61940476Y-228681009D01*
X61940476Y-228681009D02*
X62005952Y-229204819D01*
X61142857Y-229157200D02*
X61244047Y-229204819D01*
X61244047Y-229204819D02*
X61434524Y-229204819D01*
X61434524Y-229204819D02*
X61523809Y-229157200D01*
X61523809Y-229157200D02*
X61559524Y-229061961D01*
X61559524Y-229061961D02*
X61511905Y-228681009D01*
X61511905Y-228681009D02*
X61452381Y-228585771D01*
X61452381Y-228585771D02*
X61351190Y-228538152D01*
X61351190Y-228538152D02*
X61160714Y-228538152D01*
X61160714Y-228538152D02*
X61071428Y-228585771D01*
X61071428Y-228585771D02*
X61035714Y-228681009D01*
X61035714Y-228681009D02*
X61047619Y-228776247D01*
X61047619Y-228776247D02*
X61535714Y-228871485D01*
X101268214Y-205774819D02*
X101268214Y-206489104D01*
X101268214Y-206489104D02*
X101315833Y-206631961D01*
X101315833Y-206631961D02*
X101411071Y-206727200D01*
X101411071Y-206727200D02*
X101553928Y-206774819D01*
X101553928Y-206774819D02*
X101649166Y-206774819D01*
X100839642Y-205870057D02*
X100792023Y-205822438D01*
X100792023Y-205822438D02*
X100696785Y-205774819D01*
X100696785Y-205774819D02*
X100458690Y-205774819D01*
X100458690Y-205774819D02*
X100363452Y-205822438D01*
X100363452Y-205822438D02*
X100315833Y-205870057D01*
X100315833Y-205870057D02*
X100268214Y-205965295D01*
X100268214Y-205965295D02*
X100268214Y-206060533D01*
X100268214Y-206060533D02*
X100315833Y-206203390D01*
X100315833Y-206203390D02*
X100887261Y-206774819D01*
X100887261Y-206774819D02*
X100268214Y-206774819D01*
X99649166Y-205774819D02*
X99553928Y-205774819D01*
X99553928Y-205774819D02*
X99458690Y-205822438D01*
X99458690Y-205822438D02*
X99411071Y-205870057D01*
X99411071Y-205870057D02*
X99363452Y-205965295D01*
X99363452Y-205965295D02*
X99315833Y-206155771D01*
X99315833Y-206155771D02*
X99315833Y-206393866D01*
X99315833Y-206393866D02*
X99363452Y-206584342D01*
X99363452Y-206584342D02*
X99411071Y-206679580D01*
X99411071Y-206679580D02*
X99458690Y-206727200D01*
X99458690Y-206727200D02*
X99553928Y-206774819D01*
X99553928Y-206774819D02*
X99649166Y-206774819D01*
X99649166Y-206774819D02*
X99744404Y-206727200D01*
X99744404Y-206727200D02*
X99792023Y-206679580D01*
X99792023Y-206679580D02*
X99839642Y-206584342D01*
X99839642Y-206584342D02*
X99887261Y-206393866D01*
X99887261Y-206393866D02*
X99887261Y-206155771D01*
X99887261Y-206155771D02*
X99839642Y-205965295D01*
X99839642Y-205965295D02*
X99792023Y-205870057D01*
X99792023Y-205870057D02*
X99744404Y-205822438D01*
X99744404Y-205822438D02*
X99649166Y-205774819D01*
X98696785Y-205774819D02*
X98601547Y-205774819D01*
X98601547Y-205774819D02*
X98506309Y-205822438D01*
X98506309Y-205822438D02*
X98458690Y-205870057D01*
X98458690Y-205870057D02*
X98411071Y-205965295D01*
X98411071Y-205965295D02*
X98363452Y-206155771D01*
X98363452Y-206155771D02*
X98363452Y-206393866D01*
X98363452Y-206393866D02*
X98411071Y-206584342D01*
X98411071Y-206584342D02*
X98458690Y-206679580D01*
X98458690Y-206679580D02*
X98506309Y-206727200D01*
X98506309Y-206727200D02*
X98601547Y-206774819D01*
X98601547Y-206774819D02*
X98696785Y-206774819D01*
X98696785Y-206774819D02*
X98792023Y-206727200D01*
X98792023Y-206727200D02*
X98839642Y-206679580D01*
X98839642Y-206679580D02*
X98887261Y-206584342D01*
X98887261Y-206584342D02*
X98934880Y-206393866D01*
X98934880Y-206393866D02*
X98934880Y-206155771D01*
X98934880Y-206155771D02*
X98887261Y-205965295D01*
X98887261Y-205965295D02*
X98839642Y-205870057D01*
X98839642Y-205870057D02*
X98792023Y-205822438D01*
X98792023Y-205822438D02*
X98696785Y-205774819D01*
X137500000Y-224550000D02*
X135150000Y-224550000D01*
X137500000Y-224550000D02*
X139850000Y-224550000D01*
X137500000Y-232950000D02*
X135150000Y-232950000D01*
X137500000Y-232950000D02*
X139850000Y-232950000D01*
X132700000Y-228750000D02*
G75*
G02*
X135156222Y-224561121I4800000J0D01*
G01*
X135156222Y-232938879D02*
G75*
G02*
X132700000Y-228750000I2343778J4188879D01*
G01*
X139843778Y-224561121D02*
G75*
G02*
X142300000Y-228750000I-2343781J-4188881D01*
G01*
X142300000Y-228750000D02*
G75*
G02*
X139843778Y-232938879I-4800003J2D01*
G01*
X87500000Y-224550000D02*
X85150000Y-224550000D01*
X87500000Y-224550000D02*
X89850000Y-224550000D01*
X87500000Y-232950000D02*
X85150000Y-232950000D01*
X87500000Y-232950000D02*
X89850000Y-232950000D01*
X82700000Y-228750000D02*
G75*
G02*
X85156222Y-224561121I4800000J0D01*
G01*
X85156222Y-232938879D02*
G75*
G02*
X82700000Y-228750000I2343778J4188879D01*
G01*
X89843778Y-224561121D02*
G75*
G02*
X92300000Y-228750000I-2343781J-4188881D01*
G01*
X92300000Y-228750000D02*
G75*
G02*
X89843778Y-232938879I-4800003J2D01*
G01*
X62500000Y-179550000D02*
X60150000Y-179550000D01*
X62500000Y-179550000D02*
X64850000Y-179550000D01*
X62500000Y-187950000D02*
X60150000Y-187950000D01*
X62500000Y-187950000D02*
X64850000Y-187950000D01*
X57700000Y-183750000D02*
G75*
G02*
X60156222Y-179561121I4800000J0D01*
G01*
X60156222Y-187938879D02*
G75*
G02*
X57700000Y-183750000I2343778J4188879D01*
G01*
X64843778Y-179561121D02*
G75*
G02*
X67300000Y-183750000I-2343781J-4188881D01*
G01*
X67300000Y-183750000D02*
G75*
G02*
X64843778Y-187938879I-4800003J2D01*
G01*
X62500000Y-202050000D02*
X60150000Y-202050000D01*
X62500000Y-202050000D02*
X64850000Y-202050000D01*
X62500000Y-210450000D02*
X60150000Y-210450000D01*
X62500000Y-210450000D02*
X64850000Y-210450000D01*
X57700000Y-206250000D02*
G75*
G02*
X60156222Y-202061121I4800000J0D01*
G01*
X60156222Y-210438879D02*
G75*
G02*
X57700000Y-206250000I2343778J4188879D01*
G01*
X64843778Y-202061121D02*
G75*
G02*
X67300000Y-206250000I-2343781J-4188881D01*
G01*
X67300000Y-206250000D02*
G75*
G02*
X64843778Y-210438879I-4800003J2D01*
G01*
X137596190Y-202050000D02*
X135246190Y-202050000D01*
X137596190Y-202050000D02*
X139946190Y-202050000D01*
X137596190Y-210450000D02*
X135246190Y-210450000D01*
X137596190Y-210450000D02*
X139946190Y-210450000D01*
X132796190Y-206250000D02*
G75*
G02*
X135252412Y-202061121I4800000J0D01*
G01*
X135252412Y-210438879D02*
G75*
G02*
X132796190Y-206250000I2343778J4188879D01*
G01*
X139939968Y-202061121D02*
G75*
G02*
X142396190Y-206250000I-2343781J-4188881D01*
G01*
X142396190Y-206250000D02*
G75*
G02*
X139939968Y-210438879I-4800003J2D01*
G01*
X87500000Y-202050000D02*
X85150000Y-202050000D01*
X87500000Y-202050000D02*
X89850000Y-202050000D01*
X87500000Y-210450000D02*
X85150000Y-210450000D01*
X87500000Y-210450000D02*
X89850000Y-210450000D01*
X82700000Y-206250000D02*
G75*
G02*
X85156222Y-202061121I4800000J0D01*
G01*
X85156222Y-210438879D02*
G75*
G02*
X82700000Y-206250000I2343778J4188879D01*
G01*
X89843778Y-202061121D02*
G75*
G02*
X92300000Y-206250000I-2343781J-4188881D01*
G01*
X92300000Y-206250000D02*
G75*
G02*
X89843778Y-210438879I-4800003J2D01*
G01*
X112500000Y-224550000D02*
X110150000Y-224550000D01*
X112500000Y-224550000D02*
X114850000Y-224550000D01*
X112500000Y-232950000D02*
X110150000Y-232950000D01*
X112500000Y-232950000D02*
X114850000Y-232950000D01*
X107700000Y-228750000D02*
G75*
G02*
X110156222Y-224561121I4800000J0D01*
G01*
X110156222Y-232938879D02*
G75*
G02*
X107700000Y-228750000I2343778J4188879D01*
G01*
X114843778Y-224561121D02*
G75*
G02*
X117300000Y-228750000I-2343781J-4188881D01*
G01*
X117300000Y-228750000D02*
G75*
G02*
X114843778Y-232938879I-4800003J2D01*
G01*
X112500000Y-202050000D02*
X110150000Y-202050000D01*
X112500000Y-202050000D02*
X114850000Y-202050000D01*
X112500000Y-210450000D02*
X110150000Y-210450000D01*
X112500000Y-210450000D02*
X114850000Y-210450000D01*
X107700000Y-206250000D02*
G75*
G02*
X110156222Y-202061121I4800000J0D01*
G01*
X110156222Y-210438879D02*
G75*
G02*
X107700000Y-206250000I2343778J4188879D01*
G01*
X114843778Y-202061121D02*
G75*
G02*
X117300000Y-206250000I-2343781J-4188881D01*
G01*
X117300000Y-206250000D02*
G75*
G02*
X114843778Y-210438879I-4800003J2D01*
G01*
X62500000Y-224550000D02*
X60150000Y-224550000D01*
X62500000Y-224550000D02*
X64850000Y-224550000D01*
X62500000Y-232950000D02*
X60150000Y-232950000D01*
X62500000Y-232950000D02*
X64850000Y-232950000D01*
X57700000Y-228750000D02*
G75*
G02*
X60156222Y-224561121I4800000J0D01*
G01*
X60156222Y-232938879D02*
G75*
G02*
X57700000Y-228750000I2343778J4188879D01*
G01*
X64843778Y-224561121D02*
G75*
G02*
X67300000Y-228750000I-2343781J-4188881D01*
G01*
X67300000Y-228750000D02*
G75*
G02*
X64843778Y-232938879I-4800003J2D01*
G01*
D13*
X95422500Y-207210000D02*
X104542500Y-207210000D01*
X95422500Y-227790000D02*
X95422500Y-207210000D01*
X96732500Y-208510000D02*
X103232500Y-208510000D01*
X96732500Y-226490000D02*
X96732500Y-208510000D01*
X103232500Y-208510000D02*
X103232500Y-215450000D01*
X103232500Y-215450000D02*
X104542500Y-215450000D01*
X103232500Y-219550000D02*
X103232500Y-219550000D01*
X103232500Y-219550000D02*
X103232500Y-226490000D01*
X103232500Y-226490000D02*
X96732500Y-226490000D01*
X104542500Y-207210000D02*
X104542500Y-227790000D01*
X104542500Y-219550000D02*
X103232500Y-219550000D01*
X104542500Y-227790000D02*
X95422500Y-227790000D01*
X104932500Y-212420000D02*
X105932500Y-212920000D01*
X105932500Y-211920000D02*
X104932500Y-212420000D01*
X105932500Y-212920000D02*
X105932500Y-211920000D01*
%LPC*%
D14*
X132903810Y-224153810D03*
D15*
X144000000Y-228250000D03*
D16*
X140000000Y-222250000D03*
D14*
X82903810Y-224153810D03*
D15*
X94000000Y-228250000D03*
D16*
X90000000Y-222250000D03*
D14*
X57903810Y-179153810D03*
D15*
X69000000Y-183250000D03*
D16*
X65000000Y-177250000D03*
D14*
X57903810Y-201653810D03*
D15*
X69000000Y-205750000D03*
D16*
X65000000Y-199750000D03*
D14*
X133000000Y-201653810D03*
D15*
X144096190Y-205750000D03*
D16*
X140096190Y-199750000D03*
D14*
X82903810Y-201653810D03*
D15*
X94000000Y-205750000D03*
D16*
X90000000Y-199750000D03*
D14*
X107903810Y-224153810D03*
D15*
X119000000Y-228250000D03*
D16*
X115000000Y-222250000D03*
D14*
X107903810Y-201653810D03*
D15*
X119000000Y-205750000D03*
D16*
X115000000Y-199750000D03*
D14*
X57903810Y-224153810D03*
D15*
X69000000Y-228250000D03*
D16*
X65000000Y-222250000D03*
D17*
X86010000Y-195250000D03*
D18*
X88550000Y-195250000D03*
X91090000Y-195250000D03*
X93630000Y-195250000D03*
X96170000Y-195250000D03*
X98710000Y-195250000D03*
X101250000Y-195250000D03*
X103790000Y-195250000D03*
X106330000Y-195250000D03*
X108870000Y-195250000D03*
X111410000Y-195250000D03*
X113950000Y-195250000D03*
D19*
X101252500Y-212420000D03*
D20*
X101252500Y-214960000D03*
X101252500Y-217500000D03*
X101252500Y-220040000D03*
X101252500Y-222580000D03*
X98712500Y-212420000D03*
X98712500Y-214960000D03*
X98712500Y-217500000D03*
X98712500Y-220040000D03*
X98712500Y-222580000D03*
%LPD*%
M02*
