%TF.GenerationSoftware,KiCad,Pcbnew,8.0.3*%
%TF.CreationDate,2024-09-16T17:57:32+02:00*%
%TF.ProjectId,DMH_VCO_40106_PCB_Connectors,444d485f-5643-44f5-9f34-303130365f50,1*%
%TF.SameCoordinates,Original*%
%TF.FileFunction,Drillmap*%
%TF.FilePolarity,Positive*%
%FSLAX45Y45*%
G04 Gerber Fmt 4.5, Leading zero omitted, Abs format (unit mm)*
G04 Created by KiCad (PCBNEW 8.0.3) date 2024-09-16 17:57:32*
%MOMM*%
%LPD*%
G01*
G04 APERTURE LIST*
%ADD10C,0.050000*%
%ADD11C,0.200000*%
%ADD12C,0.100000*%
G04 APERTURE END LIST*
D10*
X5100000Y-17550000D02*
X7100000Y-17550000D01*
X7100000Y-17550000D02*
X7100000Y-19300000D01*
X5100000Y-23750000D02*
X14900000Y-23750000D01*
X5100000Y-17550000D02*
X5100000Y-23750000D01*
X7100000Y-19300000D02*
X14900000Y-19300000D01*
X14900000Y-23750000D02*
X14900000Y-19300000D01*
D11*
D12*
X5740381Y-17865381D02*
X5840381Y-17965381D01*
X5840381Y-17865381D02*
X5740381Y-17965381D01*
X5808059Y-17826993D02*
X5701993Y-17933059D01*
X5772703Y-18003769D02*
G75*
G02*
X5701993Y-17933059I-35355J35355D01*
G01*
X5772703Y-18003769D02*
X5878769Y-17897703D01*
X5878769Y-17897703D02*
G75*
G03*
X5808059Y-17826993I-35355J35355D01*
G01*
X5740381Y-20115381D02*
X5840381Y-20215381D01*
X5840381Y-20115381D02*
X5740381Y-20215381D01*
X5808059Y-20076993D02*
X5701993Y-20183059D01*
X5772703Y-20253769D02*
G75*
G02*
X5701993Y-20183059I-35355J35355D01*
G01*
X5772703Y-20253769D02*
X5878769Y-20147703D01*
X5878769Y-20147703D02*
G75*
G03*
X5808059Y-20076993I-35355J35355D01*
G01*
X5740381Y-22365381D02*
X5840381Y-22465381D01*
X5840381Y-22365381D02*
X5740381Y-22465381D01*
X5808059Y-22326993D02*
X5701993Y-22433059D01*
X5772703Y-22503769D02*
G75*
G02*
X5701993Y-22433059I-35355J35355D01*
G01*
X5772703Y-22503769D02*
X5878769Y-22397703D01*
X5878769Y-22397703D02*
G75*
G03*
X5808059Y-22326993I-35355J35355D01*
G01*
X6450000Y-17675000D02*
X6550000Y-17775000D01*
X6550000Y-17675000D02*
X6450000Y-17775000D01*
X6425000Y-17775000D02*
X6575000Y-17775000D01*
X6575000Y-17675000D02*
G75*
G02*
X6575000Y-17775000I0J-50000D01*
G01*
X6575000Y-17675000D02*
X6425000Y-17675000D01*
X6425000Y-17675000D02*
G75*
G03*
X6425000Y-17775000I0J-50000D01*
G01*
X6450000Y-19925000D02*
X6550000Y-20025000D01*
X6550000Y-19925000D02*
X6450000Y-20025000D01*
X6425000Y-20025000D02*
X6575000Y-20025000D01*
X6575000Y-19925000D02*
G75*
G02*
X6575000Y-20025000I0J-50000D01*
G01*
X6575000Y-19925000D02*
X6425000Y-19925000D01*
X6425000Y-19925000D02*
G75*
G03*
X6425000Y-20025000I0J-50000D01*
G01*
X6450000Y-22175000D02*
X6550000Y-22275000D01*
X6550000Y-22175000D02*
X6450000Y-22275000D01*
X6425000Y-22275000D02*
X6575000Y-22275000D01*
X6575000Y-22175000D02*
G75*
G02*
X6575000Y-22275000I0J-50000D01*
G01*
X6575000Y-22175000D02*
X6425000Y-22175000D01*
X6425000Y-22175000D02*
G75*
G03*
X6425000Y-22275000I0J-50000D01*
G01*
X6850000Y-18275000D02*
X6950000Y-18375000D01*
X6950000Y-18275000D02*
X6850000Y-18375000D01*
X6850000Y-18250000D02*
X6850000Y-18400000D01*
X6950000Y-18400000D02*
G75*
G02*
X6850000Y-18400000I-50000J0D01*
G01*
X6950000Y-18400000D02*
X6950000Y-18250000D01*
X6950000Y-18250000D02*
G75*
G03*
X6850000Y-18250000I-50000J0D01*
G01*
X6850000Y-20525000D02*
X6950000Y-20625000D01*
X6950000Y-20525000D02*
X6850000Y-20625000D01*
X6850000Y-20500000D02*
X6850000Y-20650000D01*
X6950000Y-20650000D02*
G75*
G02*
X6850000Y-20650000I-50000J0D01*
G01*
X6950000Y-20650000D02*
X6950000Y-20500000D01*
X6950000Y-20500000D02*
G75*
G03*
X6850000Y-20500000I-50000J0D01*
G01*
X6850000Y-22775000D02*
X6950000Y-22875000D01*
X6950000Y-22775000D02*
X6850000Y-22875000D01*
X6850000Y-22750000D02*
X6850000Y-22900000D01*
X6950000Y-22900000D02*
G75*
G02*
X6850000Y-22900000I-50000J0D01*
G01*
X6950000Y-22900000D02*
X6950000Y-22750000D01*
X6950000Y-22750000D02*
G75*
G03*
X6850000Y-22750000I-50000J0D01*
G01*
X8240381Y-20115381D02*
X8340381Y-20215381D01*
X8340381Y-20115381D02*
X8240381Y-20215381D01*
X8308059Y-20076993D02*
X8201993Y-20183059D01*
X8272703Y-20253769D02*
G75*
G02*
X8201993Y-20183059I-35355J35355D01*
G01*
X8272703Y-20253769D02*
X8378769Y-20147703D01*
X8378769Y-20147703D02*
G75*
G03*
X8308059Y-20076993I-35355J35355D01*
G01*
X8240381Y-22365381D02*
X8340381Y-22465381D01*
X8340381Y-22365381D02*
X8240381Y-22465381D01*
X8308059Y-22326993D02*
X8201993Y-22433059D01*
X8272703Y-22503769D02*
G75*
G02*
X8201993Y-22433059I-35355J35355D01*
G01*
X8272703Y-22503769D02*
X8378769Y-22397703D01*
X8378769Y-22397703D02*
G75*
G03*
X8308059Y-22326993I-35355J35355D01*
G01*
X8551000Y-19475000D02*
X8651000Y-19575000D01*
X8651000Y-19475000D02*
X8551000Y-19575000D01*
X8805000Y-19475000D02*
X8905000Y-19575000D01*
X8905000Y-19475000D02*
X8805000Y-19575000D01*
X8950000Y-19925000D02*
X9050000Y-20025000D01*
X9050000Y-19925000D02*
X8950000Y-20025000D01*
X8925000Y-20025000D02*
X9075000Y-20025000D01*
X9075000Y-19925000D02*
G75*
G02*
X9075000Y-20025000I0J-50000D01*
G01*
X9075000Y-19925000D02*
X8925000Y-19925000D01*
X8925000Y-19925000D02*
G75*
G03*
X8925000Y-20025000I0J-50000D01*
G01*
X8950000Y-22175000D02*
X9050000Y-22275000D01*
X9050000Y-22175000D02*
X8950000Y-22275000D01*
X8925000Y-22275000D02*
X9075000Y-22275000D01*
X9075000Y-22175000D02*
G75*
G02*
X9075000Y-22275000I0J-50000D01*
G01*
X9075000Y-22175000D02*
X8925000Y-22175000D01*
X8925000Y-22175000D02*
G75*
G03*
X8925000Y-22275000I0J-50000D01*
G01*
X9059000Y-19475000D02*
X9159000Y-19575000D01*
X9159000Y-19475000D02*
X9059000Y-19575000D01*
X9313000Y-19475000D02*
X9413000Y-19575000D01*
X9413000Y-19475000D02*
X9313000Y-19575000D01*
X9350000Y-20525000D02*
X9450000Y-20625000D01*
X9450000Y-20525000D02*
X9350000Y-20625000D01*
X9350000Y-20500000D02*
X9350000Y-20650000D01*
X9450000Y-20650000D02*
G75*
G02*
X9350000Y-20650000I-50000J0D01*
G01*
X9450000Y-20650000D02*
X9450000Y-20500000D01*
X9450000Y-20500000D02*
G75*
G03*
X9350000Y-20500000I-50000J0D01*
G01*
X9350000Y-22775000D02*
X9450000Y-22875000D01*
X9450000Y-22775000D02*
X9350000Y-22875000D01*
X9350000Y-22750000D02*
X9350000Y-22900000D01*
X9450000Y-22900000D02*
G75*
G02*
X9350000Y-22900000I-50000J0D01*
G01*
X9450000Y-22900000D02*
X9450000Y-22750000D01*
X9450000Y-22750000D02*
G75*
G03*
X9350000Y-22750000I-50000J0D01*
G01*
X9567000Y-19475000D02*
X9667000Y-19575000D01*
X9667000Y-19475000D02*
X9567000Y-19575000D01*
X9821000Y-19475000D02*
X9921000Y-19575000D01*
X9921000Y-19475000D02*
X9821000Y-19575000D01*
X9821250Y-21192000D02*
X9921250Y-21292000D01*
X9921250Y-21192000D02*
X9821250Y-21292000D01*
X9821250Y-21446000D02*
X9921250Y-21546000D01*
X9921250Y-21446000D02*
X9821250Y-21546000D01*
X9821250Y-21700000D02*
X9921250Y-21800000D01*
X9921250Y-21700000D02*
X9821250Y-21800000D01*
X9821250Y-21954000D02*
X9921250Y-22054000D01*
X9921250Y-21954000D02*
X9821250Y-22054000D01*
X9821250Y-22208000D02*
X9921250Y-22308000D01*
X9921250Y-22208000D02*
X9821250Y-22308000D01*
X10075000Y-19475000D02*
X10175000Y-19575000D01*
X10175000Y-19475000D02*
X10075000Y-19575000D01*
X10075250Y-21192000D02*
X10175250Y-21292000D01*
X10175250Y-21192000D02*
X10075250Y-21292000D01*
X10075250Y-21446000D02*
X10175250Y-21546000D01*
X10175250Y-21446000D02*
X10075250Y-21546000D01*
X10075250Y-21700000D02*
X10175250Y-21800000D01*
X10175250Y-21700000D02*
X10075250Y-21800000D01*
X10075250Y-21954000D02*
X10175250Y-22054000D01*
X10175250Y-21954000D02*
X10075250Y-22054000D01*
X10075250Y-22208000D02*
X10175250Y-22308000D01*
X10175250Y-22208000D02*
X10075250Y-22308000D01*
X10329000Y-19475000D02*
X10429000Y-19575000D01*
X10429000Y-19475000D02*
X10329000Y-19575000D01*
X10583000Y-19475000D02*
X10683000Y-19575000D01*
X10683000Y-19475000D02*
X10583000Y-19575000D01*
X10740381Y-20115381D02*
X10840381Y-20215381D01*
X10840381Y-20115381D02*
X10740381Y-20215381D01*
X10808059Y-20076993D02*
X10701993Y-20183059D01*
X10772703Y-20253769D02*
G75*
G02*
X10701993Y-20183059I-35355J35355D01*
G01*
X10772703Y-20253769D02*
X10878769Y-20147703D01*
X10878769Y-20147703D02*
G75*
G03*
X10808059Y-20076993I-35355J35355D01*
G01*
X10740381Y-22365381D02*
X10840381Y-22465381D01*
X10840381Y-22365381D02*
X10740381Y-22465381D01*
X10808059Y-22326993D02*
X10701993Y-22433059D01*
X10772703Y-22503769D02*
G75*
G02*
X10701993Y-22433059I-35355J35355D01*
G01*
X10772703Y-22503769D02*
X10878769Y-22397703D01*
X10878769Y-22397703D02*
G75*
G03*
X10808059Y-22326993I-35355J35355D01*
G01*
X10837000Y-19475000D02*
X10937000Y-19575000D01*
X10937000Y-19475000D02*
X10837000Y-19575000D01*
X11091000Y-19475000D02*
X11191000Y-19575000D01*
X11191000Y-19475000D02*
X11091000Y-19575000D01*
X11345000Y-19475000D02*
X11445000Y-19575000D01*
X11445000Y-19475000D02*
X11345000Y-19575000D01*
X11450000Y-19925000D02*
X11550000Y-20025000D01*
X11550000Y-19925000D02*
X11450000Y-20025000D01*
X11425000Y-20025000D02*
X11575000Y-20025000D01*
X11575000Y-19925000D02*
G75*
G02*
X11575000Y-20025000I0J-50000D01*
G01*
X11575000Y-19925000D02*
X11425000Y-19925000D01*
X11425000Y-19925000D02*
G75*
G03*
X11425000Y-20025000I0J-50000D01*
G01*
X11450000Y-22175000D02*
X11550000Y-22275000D01*
X11550000Y-22175000D02*
X11450000Y-22275000D01*
X11425000Y-22275000D02*
X11575000Y-22275000D01*
X11575000Y-22175000D02*
G75*
G02*
X11575000Y-22275000I0J-50000D01*
G01*
X11575000Y-22175000D02*
X11425000Y-22175000D01*
X11425000Y-22175000D02*
G75*
G03*
X11425000Y-22275000I0J-50000D01*
G01*
X11850000Y-20525000D02*
X11950000Y-20625000D01*
X11950000Y-20525000D02*
X11850000Y-20625000D01*
X11850000Y-20500000D02*
X11850000Y-20650000D01*
X11950000Y-20650000D02*
G75*
G02*
X11850000Y-20650000I-50000J0D01*
G01*
X11950000Y-20650000D02*
X11950000Y-20500000D01*
X11950000Y-20500000D02*
G75*
G03*
X11850000Y-20500000I-50000J0D01*
G01*
X11850000Y-22775000D02*
X11950000Y-22875000D01*
X11950000Y-22775000D02*
X11850000Y-22875000D01*
X11850000Y-22750000D02*
X11850000Y-22900000D01*
X11950000Y-22900000D02*
G75*
G02*
X11850000Y-22900000I-50000J0D01*
G01*
X11950000Y-22900000D02*
X11950000Y-22750000D01*
X11950000Y-22750000D02*
G75*
G03*
X11850000Y-22750000I-50000J0D01*
G01*
X13240381Y-22365381D02*
X13340381Y-22465381D01*
X13340381Y-22365381D02*
X13240381Y-22465381D01*
X13308059Y-22326993D02*
X13201993Y-22433059D01*
X13272703Y-22503769D02*
G75*
G02*
X13201993Y-22433059I-35355J35355D01*
G01*
X13272703Y-22503769D02*
X13378769Y-22397703D01*
X13378769Y-22397703D02*
G75*
G03*
X13308059Y-22326993I-35355J35355D01*
G01*
X13250000Y-20115381D02*
X13350000Y-20215381D01*
X13350000Y-20115381D02*
X13250000Y-20215381D01*
X13317678Y-20076993D02*
X13211612Y-20183059D01*
X13282322Y-20253769D02*
G75*
G02*
X13211612Y-20183059I-35355J35355D01*
G01*
X13282322Y-20253769D02*
X13388388Y-20147703D01*
X13388388Y-20147703D02*
G75*
G03*
X13317678Y-20076993I-35355J35355D01*
G01*
X13950000Y-22175000D02*
X14050000Y-22275000D01*
X14050000Y-22175000D02*
X13950000Y-22275000D01*
X13925000Y-22275000D02*
X14075000Y-22275000D01*
X14075000Y-22175000D02*
G75*
G02*
X14075000Y-22275000I0J-50000D01*
G01*
X14075000Y-22175000D02*
X13925000Y-22175000D01*
X13925000Y-22175000D02*
G75*
G03*
X13925000Y-22275000I0J-50000D01*
G01*
X13959619Y-19925000D02*
X14059619Y-20025000D01*
X14059619Y-19925000D02*
X13959619Y-20025000D01*
X13934619Y-20025000D02*
X14084619Y-20025000D01*
X14084619Y-19925000D02*
G75*
G02*
X14084619Y-20025000I0J-50000D01*
G01*
X14084619Y-19925000D02*
X13934619Y-19925000D01*
X13934619Y-19925000D02*
G75*
G03*
X13934619Y-20025000I0J-50000D01*
G01*
X14350000Y-22775000D02*
X14450000Y-22875000D01*
X14450000Y-22775000D02*
X14350000Y-22875000D01*
X14350000Y-22750000D02*
X14350000Y-22900000D01*
X14450000Y-22900000D02*
G75*
G02*
X14350000Y-22900000I-50000J0D01*
G01*
X14450000Y-22900000D02*
X14450000Y-22750000D01*
X14450000Y-22750000D02*
G75*
G03*
X14350000Y-22750000I-50000J0D01*
G01*
X14359619Y-20525000D02*
X14459619Y-20625000D01*
X14459619Y-20525000D02*
X14359619Y-20625000D01*
X14359619Y-20500000D02*
X14359619Y-20650000D01*
X14459619Y-20650000D02*
G75*
G02*
X14359619Y-20650000I-50000J0D01*
G01*
X14459619Y-20650000D02*
X14459619Y-20500000D01*
X14459619Y-20500000D02*
G75*
G03*
X14359619Y-20500000I-50000J0D01*
G01*
D11*
X5358277Y-24063984D02*
X5358277Y-23863984D01*
X5358277Y-23863984D02*
X5405896Y-23863984D01*
X5405896Y-23863984D02*
X5434467Y-23873508D01*
X5434467Y-23873508D02*
X5453515Y-23892555D01*
X5453515Y-23892555D02*
X5463039Y-23911603D01*
X5463039Y-23911603D02*
X5472563Y-23949698D01*
X5472563Y-23949698D02*
X5472563Y-23978269D01*
X5472563Y-23978269D02*
X5463039Y-24016365D01*
X5463039Y-24016365D02*
X5453515Y-24035412D01*
X5453515Y-24035412D02*
X5434467Y-24054460D01*
X5434467Y-24054460D02*
X5405896Y-24063984D01*
X5405896Y-24063984D02*
X5358277Y-24063984D01*
X5558277Y-24063984D02*
X5558277Y-23930650D01*
X5558277Y-23968746D02*
X5567801Y-23949698D01*
X5567801Y-23949698D02*
X5577324Y-23940174D01*
X5577324Y-23940174D02*
X5596372Y-23930650D01*
X5596372Y-23930650D02*
X5615420Y-23930650D01*
X5682086Y-24063984D02*
X5682086Y-23930650D01*
X5682086Y-23863984D02*
X5672562Y-23873508D01*
X5672562Y-23873508D02*
X5682086Y-23883031D01*
X5682086Y-23883031D02*
X5691610Y-23873508D01*
X5691610Y-23873508D02*
X5682086Y-23863984D01*
X5682086Y-23863984D02*
X5682086Y-23883031D01*
X5805896Y-24063984D02*
X5786848Y-24054460D01*
X5786848Y-24054460D02*
X5777324Y-24035412D01*
X5777324Y-24035412D02*
X5777324Y-23863984D01*
X5910658Y-24063984D02*
X5891610Y-24054460D01*
X5891610Y-24054460D02*
X5882086Y-24035412D01*
X5882086Y-24035412D02*
X5882086Y-23863984D01*
X6139229Y-24063984D02*
X6139229Y-23863984D01*
X6139229Y-23863984D02*
X6205896Y-24006841D01*
X6205896Y-24006841D02*
X6272562Y-23863984D01*
X6272562Y-23863984D02*
X6272562Y-24063984D01*
X6453515Y-24063984D02*
X6453515Y-23959222D01*
X6453515Y-23959222D02*
X6443991Y-23940174D01*
X6443991Y-23940174D02*
X6424943Y-23930650D01*
X6424943Y-23930650D02*
X6386848Y-23930650D01*
X6386848Y-23930650D02*
X6367801Y-23940174D01*
X6453515Y-24054460D02*
X6434467Y-24063984D01*
X6434467Y-24063984D02*
X6386848Y-24063984D01*
X6386848Y-24063984D02*
X6367801Y-24054460D01*
X6367801Y-24054460D02*
X6358277Y-24035412D01*
X6358277Y-24035412D02*
X6358277Y-24016365D01*
X6358277Y-24016365D02*
X6367801Y-23997317D01*
X6367801Y-23997317D02*
X6386848Y-23987793D01*
X6386848Y-23987793D02*
X6434467Y-23987793D01*
X6434467Y-23987793D02*
X6453515Y-23978269D01*
X6548753Y-23930650D02*
X6548753Y-24130650D01*
X6548753Y-23940174D02*
X6567801Y-23930650D01*
X6567801Y-23930650D02*
X6605896Y-23930650D01*
X6605896Y-23930650D02*
X6624943Y-23940174D01*
X6624943Y-23940174D02*
X6634467Y-23949698D01*
X6634467Y-23949698D02*
X6643991Y-23968746D01*
X6643991Y-23968746D02*
X6643991Y-24025888D01*
X6643991Y-24025888D02*
X6634467Y-24044936D01*
X6634467Y-24044936D02*
X6624943Y-24054460D01*
X6624943Y-24054460D02*
X6605896Y-24063984D01*
X6605896Y-24063984D02*
X6567801Y-24063984D01*
X6567801Y-24063984D02*
X6548753Y-24054460D01*
X6729705Y-24044936D02*
X6739229Y-24054460D01*
X6739229Y-24054460D02*
X6729705Y-24063984D01*
X6729705Y-24063984D02*
X6720182Y-24054460D01*
X6720182Y-24054460D02*
X6729705Y-24044936D01*
X6729705Y-24044936D02*
X6729705Y-24063984D01*
X6729705Y-23940174D02*
X6739229Y-23949698D01*
X6739229Y-23949698D02*
X6729705Y-23959222D01*
X6729705Y-23959222D02*
X6720182Y-23949698D01*
X6720182Y-23949698D02*
X6729705Y-23940174D01*
X6729705Y-23940174D02*
X6729705Y-23959222D01*
D12*
X4997500Y-24342500D02*
X5097500Y-24442500D01*
X5097500Y-24342500D02*
X4997500Y-24442500D01*
D11*
X5463039Y-24483984D02*
X5348753Y-24483984D01*
X5405896Y-24483984D02*
X5405896Y-24283984D01*
X5405896Y-24283984D02*
X5386848Y-24312555D01*
X5386848Y-24312555D02*
X5367801Y-24331603D01*
X5367801Y-24331603D02*
X5348753Y-24341127D01*
X5548753Y-24464936D02*
X5558277Y-24474460D01*
X5558277Y-24474460D02*
X5548753Y-24483984D01*
X5548753Y-24483984D02*
X5539229Y-24474460D01*
X5539229Y-24474460D02*
X5548753Y-24464936D01*
X5548753Y-24464936D02*
X5548753Y-24483984D01*
X5682086Y-24283984D02*
X5701134Y-24283984D01*
X5701134Y-24283984D02*
X5720182Y-24293508D01*
X5720182Y-24293508D02*
X5729705Y-24303031D01*
X5729705Y-24303031D02*
X5739229Y-24322079D01*
X5739229Y-24322079D02*
X5748753Y-24360174D01*
X5748753Y-24360174D02*
X5748753Y-24407793D01*
X5748753Y-24407793D02*
X5739229Y-24445888D01*
X5739229Y-24445888D02*
X5729705Y-24464936D01*
X5729705Y-24464936D02*
X5720182Y-24474460D01*
X5720182Y-24474460D02*
X5701134Y-24483984D01*
X5701134Y-24483984D02*
X5682086Y-24483984D01*
X5682086Y-24483984D02*
X5663039Y-24474460D01*
X5663039Y-24474460D02*
X5653515Y-24464936D01*
X5653515Y-24464936D02*
X5643991Y-24445888D01*
X5643991Y-24445888D02*
X5634467Y-24407793D01*
X5634467Y-24407793D02*
X5634467Y-24360174D01*
X5634467Y-24360174D02*
X5643991Y-24322079D01*
X5643991Y-24322079D02*
X5653515Y-24303031D01*
X5653515Y-24303031D02*
X5663039Y-24293508D01*
X5663039Y-24293508D02*
X5682086Y-24283984D01*
X5872562Y-24283984D02*
X5891610Y-24283984D01*
X5891610Y-24283984D02*
X5910658Y-24293508D01*
X5910658Y-24293508D02*
X5920182Y-24303031D01*
X5920182Y-24303031D02*
X5929705Y-24322079D01*
X5929705Y-24322079D02*
X5939229Y-24360174D01*
X5939229Y-24360174D02*
X5939229Y-24407793D01*
X5939229Y-24407793D02*
X5929705Y-24445888D01*
X5929705Y-24445888D02*
X5920182Y-24464936D01*
X5920182Y-24464936D02*
X5910658Y-24474460D01*
X5910658Y-24474460D02*
X5891610Y-24483984D01*
X5891610Y-24483984D02*
X5872562Y-24483984D01*
X5872562Y-24483984D02*
X5853515Y-24474460D01*
X5853515Y-24474460D02*
X5843991Y-24464936D01*
X5843991Y-24464936D02*
X5834467Y-24445888D01*
X5834467Y-24445888D02*
X5824943Y-24407793D01*
X5824943Y-24407793D02*
X5824943Y-24360174D01*
X5824943Y-24360174D02*
X5834467Y-24322079D01*
X5834467Y-24322079D02*
X5843991Y-24303031D01*
X5843991Y-24303031D02*
X5853515Y-24293508D01*
X5853515Y-24293508D02*
X5872562Y-24283984D01*
X6063039Y-24283984D02*
X6082086Y-24283984D01*
X6082086Y-24283984D02*
X6101134Y-24293508D01*
X6101134Y-24293508D02*
X6110658Y-24303031D01*
X6110658Y-24303031D02*
X6120182Y-24322079D01*
X6120182Y-24322079D02*
X6129705Y-24360174D01*
X6129705Y-24360174D02*
X6129705Y-24407793D01*
X6129705Y-24407793D02*
X6120182Y-24445888D01*
X6120182Y-24445888D02*
X6110658Y-24464936D01*
X6110658Y-24464936D02*
X6101134Y-24474460D01*
X6101134Y-24474460D02*
X6082086Y-24483984D01*
X6082086Y-24483984D02*
X6063039Y-24483984D01*
X6063039Y-24483984D02*
X6043991Y-24474460D01*
X6043991Y-24474460D02*
X6034467Y-24464936D01*
X6034467Y-24464936D02*
X6024943Y-24445888D01*
X6024943Y-24445888D02*
X6015420Y-24407793D01*
X6015420Y-24407793D02*
X6015420Y-24360174D01*
X6015420Y-24360174D02*
X6024943Y-24322079D01*
X6024943Y-24322079D02*
X6034467Y-24303031D01*
X6034467Y-24303031D02*
X6043991Y-24293508D01*
X6043991Y-24293508D02*
X6063039Y-24283984D01*
X6215420Y-24483984D02*
X6215420Y-24350650D01*
X6215420Y-24369698D02*
X6224943Y-24360174D01*
X6224943Y-24360174D02*
X6243991Y-24350650D01*
X6243991Y-24350650D02*
X6272563Y-24350650D01*
X6272563Y-24350650D02*
X6291610Y-24360174D01*
X6291610Y-24360174D02*
X6301134Y-24379222D01*
X6301134Y-24379222D02*
X6301134Y-24483984D01*
X6301134Y-24379222D02*
X6310658Y-24360174D01*
X6310658Y-24360174D02*
X6329705Y-24350650D01*
X6329705Y-24350650D02*
X6358277Y-24350650D01*
X6358277Y-24350650D02*
X6377324Y-24360174D01*
X6377324Y-24360174D02*
X6386848Y-24379222D01*
X6386848Y-24379222D02*
X6386848Y-24483984D01*
X6482086Y-24483984D02*
X6482086Y-24350650D01*
X6482086Y-24369698D02*
X6491610Y-24360174D01*
X6491610Y-24360174D02*
X6510658Y-24350650D01*
X6510658Y-24350650D02*
X6539229Y-24350650D01*
X6539229Y-24350650D02*
X6558277Y-24360174D01*
X6558277Y-24360174D02*
X6567801Y-24379222D01*
X6567801Y-24379222D02*
X6567801Y-24483984D01*
X6567801Y-24379222D02*
X6577324Y-24360174D01*
X6577324Y-24360174D02*
X6596372Y-24350650D01*
X6596372Y-24350650D02*
X6624943Y-24350650D01*
X6624943Y-24350650D02*
X6643991Y-24360174D01*
X6643991Y-24360174D02*
X6653515Y-24379222D01*
X6653515Y-24379222D02*
X6653515Y-24483984D01*
X7043991Y-24274460D02*
X6872563Y-24531603D01*
X7301134Y-24283984D02*
X7320182Y-24283984D01*
X7320182Y-24283984D02*
X7339229Y-24293508D01*
X7339229Y-24293508D02*
X7348753Y-24303031D01*
X7348753Y-24303031D02*
X7358277Y-24322079D01*
X7358277Y-24322079D02*
X7367801Y-24360174D01*
X7367801Y-24360174D02*
X7367801Y-24407793D01*
X7367801Y-24407793D02*
X7358277Y-24445888D01*
X7358277Y-24445888D02*
X7348753Y-24464936D01*
X7348753Y-24464936D02*
X7339229Y-24474460D01*
X7339229Y-24474460D02*
X7320182Y-24483984D01*
X7320182Y-24483984D02*
X7301134Y-24483984D01*
X7301134Y-24483984D02*
X7282086Y-24474460D01*
X7282086Y-24474460D02*
X7272563Y-24464936D01*
X7272563Y-24464936D02*
X7263039Y-24445888D01*
X7263039Y-24445888D02*
X7253515Y-24407793D01*
X7253515Y-24407793D02*
X7253515Y-24360174D01*
X7253515Y-24360174D02*
X7263039Y-24322079D01*
X7263039Y-24322079D02*
X7272563Y-24303031D01*
X7272563Y-24303031D02*
X7282086Y-24293508D01*
X7282086Y-24293508D02*
X7301134Y-24283984D01*
X7453515Y-24464936D02*
X7463039Y-24474460D01*
X7463039Y-24474460D02*
X7453515Y-24483984D01*
X7453515Y-24483984D02*
X7443991Y-24474460D01*
X7443991Y-24474460D02*
X7453515Y-24464936D01*
X7453515Y-24464936D02*
X7453515Y-24483984D01*
X7586848Y-24283984D02*
X7605896Y-24283984D01*
X7605896Y-24283984D02*
X7624944Y-24293508D01*
X7624944Y-24293508D02*
X7634467Y-24303031D01*
X7634467Y-24303031D02*
X7643991Y-24322079D01*
X7643991Y-24322079D02*
X7653515Y-24360174D01*
X7653515Y-24360174D02*
X7653515Y-24407793D01*
X7653515Y-24407793D02*
X7643991Y-24445888D01*
X7643991Y-24445888D02*
X7634467Y-24464936D01*
X7634467Y-24464936D02*
X7624944Y-24474460D01*
X7624944Y-24474460D02*
X7605896Y-24483984D01*
X7605896Y-24483984D02*
X7586848Y-24483984D01*
X7586848Y-24483984D02*
X7567801Y-24474460D01*
X7567801Y-24474460D02*
X7558277Y-24464936D01*
X7558277Y-24464936D02*
X7548753Y-24445888D01*
X7548753Y-24445888D02*
X7539229Y-24407793D01*
X7539229Y-24407793D02*
X7539229Y-24360174D01*
X7539229Y-24360174D02*
X7548753Y-24322079D01*
X7548753Y-24322079D02*
X7558277Y-24303031D01*
X7558277Y-24303031D02*
X7567801Y-24293508D01*
X7567801Y-24293508D02*
X7586848Y-24283984D01*
X7720182Y-24283984D02*
X7843991Y-24283984D01*
X7843991Y-24283984D02*
X7777325Y-24360174D01*
X7777325Y-24360174D02*
X7805896Y-24360174D01*
X7805896Y-24360174D02*
X7824944Y-24369698D01*
X7824944Y-24369698D02*
X7834467Y-24379222D01*
X7834467Y-24379222D02*
X7843991Y-24398269D01*
X7843991Y-24398269D02*
X7843991Y-24445888D01*
X7843991Y-24445888D02*
X7834467Y-24464936D01*
X7834467Y-24464936D02*
X7824944Y-24474460D01*
X7824944Y-24474460D02*
X7805896Y-24483984D01*
X7805896Y-24483984D02*
X7748753Y-24483984D01*
X7748753Y-24483984D02*
X7729706Y-24474460D01*
X7729706Y-24474460D02*
X7720182Y-24464936D01*
X7939229Y-24483984D02*
X7977325Y-24483984D01*
X7977325Y-24483984D02*
X7996372Y-24474460D01*
X7996372Y-24474460D02*
X8005896Y-24464936D01*
X8005896Y-24464936D02*
X8024944Y-24436365D01*
X8024944Y-24436365D02*
X8034467Y-24398269D01*
X8034467Y-24398269D02*
X8034467Y-24322079D01*
X8034467Y-24322079D02*
X8024944Y-24303031D01*
X8024944Y-24303031D02*
X8015420Y-24293508D01*
X8015420Y-24293508D02*
X7996372Y-24283984D01*
X7996372Y-24283984D02*
X7958277Y-24283984D01*
X7958277Y-24283984D02*
X7939229Y-24293508D01*
X7939229Y-24293508D02*
X7929706Y-24303031D01*
X7929706Y-24303031D02*
X7920182Y-24322079D01*
X7920182Y-24322079D02*
X7920182Y-24369698D01*
X7920182Y-24369698D02*
X7929706Y-24388746D01*
X7929706Y-24388746D02*
X7939229Y-24398269D01*
X7939229Y-24398269D02*
X7958277Y-24407793D01*
X7958277Y-24407793D02*
X7996372Y-24407793D01*
X7996372Y-24407793D02*
X8015420Y-24398269D01*
X8015420Y-24398269D02*
X8024944Y-24388746D01*
X8024944Y-24388746D02*
X8034467Y-24369698D01*
X8205896Y-24350650D02*
X8205896Y-24483984D01*
X8158277Y-24274460D02*
X8110658Y-24417317D01*
X8110658Y-24417317D02*
X8234467Y-24417317D01*
X8301134Y-24283984D02*
X8301134Y-24322079D01*
X8377325Y-24283984D02*
X8377325Y-24322079D01*
X8672563Y-24560174D02*
X8663039Y-24550650D01*
X8663039Y-24550650D02*
X8643991Y-24522079D01*
X8643991Y-24522079D02*
X8634468Y-24503031D01*
X8634468Y-24503031D02*
X8624944Y-24474460D01*
X8624944Y-24474460D02*
X8615420Y-24426841D01*
X8615420Y-24426841D02*
X8615420Y-24388746D01*
X8615420Y-24388746D02*
X8624944Y-24341127D01*
X8624944Y-24341127D02*
X8634468Y-24312555D01*
X8634468Y-24312555D02*
X8643991Y-24293508D01*
X8643991Y-24293508D02*
X8663039Y-24264936D01*
X8663039Y-24264936D02*
X8672563Y-24255412D01*
X8739230Y-24303031D02*
X8748753Y-24293508D01*
X8748753Y-24293508D02*
X8767801Y-24283984D01*
X8767801Y-24283984D02*
X8815420Y-24283984D01*
X8815420Y-24283984D02*
X8834468Y-24293508D01*
X8834468Y-24293508D02*
X8843991Y-24303031D01*
X8843991Y-24303031D02*
X8853515Y-24322079D01*
X8853515Y-24322079D02*
X8853515Y-24341127D01*
X8853515Y-24341127D02*
X8843991Y-24369698D01*
X8843991Y-24369698D02*
X8729706Y-24483984D01*
X8729706Y-24483984D02*
X8853515Y-24483984D01*
X8929706Y-24303031D02*
X8939230Y-24293508D01*
X8939230Y-24293508D02*
X8958277Y-24283984D01*
X8958277Y-24283984D02*
X9005896Y-24283984D01*
X9005896Y-24283984D02*
X9024944Y-24293508D01*
X9024944Y-24293508D02*
X9034468Y-24303031D01*
X9034468Y-24303031D02*
X9043991Y-24322079D01*
X9043991Y-24322079D02*
X9043991Y-24341127D01*
X9043991Y-24341127D02*
X9034468Y-24369698D01*
X9034468Y-24369698D02*
X8920182Y-24483984D01*
X8920182Y-24483984D02*
X9043991Y-24483984D01*
X9282087Y-24483984D02*
X9282087Y-24283984D01*
X9367801Y-24483984D02*
X9367801Y-24379222D01*
X9367801Y-24379222D02*
X9358277Y-24360174D01*
X9358277Y-24360174D02*
X9339230Y-24350650D01*
X9339230Y-24350650D02*
X9310658Y-24350650D01*
X9310658Y-24350650D02*
X9291611Y-24360174D01*
X9291611Y-24360174D02*
X9282087Y-24369698D01*
X9491611Y-24483984D02*
X9472563Y-24474460D01*
X9472563Y-24474460D02*
X9463039Y-24464936D01*
X9463039Y-24464936D02*
X9453515Y-24445888D01*
X9453515Y-24445888D02*
X9453515Y-24388746D01*
X9453515Y-24388746D02*
X9463039Y-24369698D01*
X9463039Y-24369698D02*
X9472563Y-24360174D01*
X9472563Y-24360174D02*
X9491611Y-24350650D01*
X9491611Y-24350650D02*
X9520182Y-24350650D01*
X9520182Y-24350650D02*
X9539230Y-24360174D01*
X9539230Y-24360174D02*
X9548753Y-24369698D01*
X9548753Y-24369698D02*
X9558277Y-24388746D01*
X9558277Y-24388746D02*
X9558277Y-24445888D01*
X9558277Y-24445888D02*
X9548753Y-24464936D01*
X9548753Y-24464936D02*
X9539230Y-24474460D01*
X9539230Y-24474460D02*
X9520182Y-24483984D01*
X9520182Y-24483984D02*
X9491611Y-24483984D01*
X9672563Y-24483984D02*
X9653515Y-24474460D01*
X9653515Y-24474460D02*
X9643992Y-24455412D01*
X9643992Y-24455412D02*
X9643992Y-24283984D01*
X9824944Y-24474460D02*
X9805896Y-24483984D01*
X9805896Y-24483984D02*
X9767801Y-24483984D01*
X9767801Y-24483984D02*
X9748753Y-24474460D01*
X9748753Y-24474460D02*
X9739230Y-24455412D01*
X9739230Y-24455412D02*
X9739230Y-24379222D01*
X9739230Y-24379222D02*
X9748753Y-24360174D01*
X9748753Y-24360174D02*
X9767801Y-24350650D01*
X9767801Y-24350650D02*
X9805896Y-24350650D01*
X9805896Y-24350650D02*
X9824944Y-24360174D01*
X9824944Y-24360174D02*
X9834468Y-24379222D01*
X9834468Y-24379222D02*
X9834468Y-24398269D01*
X9834468Y-24398269D02*
X9739230Y-24417317D01*
X9910658Y-24474460D02*
X9929706Y-24483984D01*
X9929706Y-24483984D02*
X9967801Y-24483984D01*
X9967801Y-24483984D02*
X9986849Y-24474460D01*
X9986849Y-24474460D02*
X9996373Y-24455412D01*
X9996373Y-24455412D02*
X9996373Y-24445888D01*
X9996373Y-24445888D02*
X9986849Y-24426841D01*
X9986849Y-24426841D02*
X9967801Y-24417317D01*
X9967801Y-24417317D02*
X9939230Y-24417317D01*
X9939230Y-24417317D02*
X9920182Y-24407793D01*
X9920182Y-24407793D02*
X9910658Y-24388746D01*
X9910658Y-24388746D02*
X9910658Y-24379222D01*
X9910658Y-24379222D02*
X9920182Y-24360174D01*
X9920182Y-24360174D02*
X9939230Y-24350650D01*
X9939230Y-24350650D02*
X9967801Y-24350650D01*
X9967801Y-24350650D02*
X9986849Y-24360174D01*
X10234468Y-24407793D02*
X10386849Y-24407793D01*
X10310658Y-24483984D02*
X10310658Y-24331603D01*
X10624944Y-24303031D02*
X10634468Y-24293508D01*
X10634468Y-24293508D02*
X10653515Y-24283984D01*
X10653515Y-24283984D02*
X10701135Y-24283984D01*
X10701135Y-24283984D02*
X10720182Y-24293508D01*
X10720182Y-24293508D02*
X10729706Y-24303031D01*
X10729706Y-24303031D02*
X10739230Y-24322079D01*
X10739230Y-24322079D02*
X10739230Y-24341127D01*
X10739230Y-24341127D02*
X10729706Y-24369698D01*
X10729706Y-24369698D02*
X10615420Y-24483984D01*
X10615420Y-24483984D02*
X10739230Y-24483984D01*
X10805896Y-24283984D02*
X10939230Y-24283984D01*
X10939230Y-24283984D02*
X10853515Y-24483984D01*
X11158277Y-24474460D02*
X11177325Y-24483984D01*
X11177325Y-24483984D02*
X11215420Y-24483984D01*
X11215420Y-24483984D02*
X11234468Y-24474460D01*
X11234468Y-24474460D02*
X11243992Y-24455412D01*
X11243992Y-24455412D02*
X11243992Y-24445888D01*
X11243992Y-24445888D02*
X11234468Y-24426841D01*
X11234468Y-24426841D02*
X11215420Y-24417317D01*
X11215420Y-24417317D02*
X11186849Y-24417317D01*
X11186849Y-24417317D02*
X11167801Y-24407793D01*
X11167801Y-24407793D02*
X11158277Y-24388746D01*
X11158277Y-24388746D02*
X11158277Y-24379222D01*
X11158277Y-24379222D02*
X11167801Y-24360174D01*
X11167801Y-24360174D02*
X11186849Y-24350650D01*
X11186849Y-24350650D02*
X11215420Y-24350650D01*
X11215420Y-24350650D02*
X11234468Y-24360174D01*
X11358277Y-24483984D02*
X11339230Y-24474460D01*
X11339230Y-24474460D02*
X11329706Y-24455412D01*
X11329706Y-24455412D02*
X11329706Y-24283984D01*
X11463039Y-24483984D02*
X11443992Y-24474460D01*
X11443992Y-24474460D02*
X11434468Y-24464936D01*
X11434468Y-24464936D02*
X11424944Y-24445888D01*
X11424944Y-24445888D02*
X11424944Y-24388746D01*
X11424944Y-24388746D02*
X11434468Y-24369698D01*
X11434468Y-24369698D02*
X11443992Y-24360174D01*
X11443992Y-24360174D02*
X11463039Y-24350650D01*
X11463039Y-24350650D02*
X11491611Y-24350650D01*
X11491611Y-24350650D02*
X11510658Y-24360174D01*
X11510658Y-24360174D02*
X11520182Y-24369698D01*
X11520182Y-24369698D02*
X11529706Y-24388746D01*
X11529706Y-24388746D02*
X11529706Y-24445888D01*
X11529706Y-24445888D02*
X11520182Y-24464936D01*
X11520182Y-24464936D02*
X11510658Y-24474460D01*
X11510658Y-24474460D02*
X11491611Y-24483984D01*
X11491611Y-24483984D02*
X11463039Y-24483984D01*
X11586849Y-24350650D02*
X11663039Y-24350650D01*
X11615420Y-24283984D02*
X11615420Y-24455412D01*
X11615420Y-24455412D02*
X11624944Y-24474460D01*
X11624944Y-24474460D02*
X11643992Y-24483984D01*
X11643992Y-24483984D02*
X11663039Y-24483984D01*
X11720182Y-24474460D02*
X11739230Y-24483984D01*
X11739230Y-24483984D02*
X11777325Y-24483984D01*
X11777325Y-24483984D02*
X11796373Y-24474460D01*
X11796373Y-24474460D02*
X11805896Y-24455412D01*
X11805896Y-24455412D02*
X11805896Y-24445888D01*
X11805896Y-24445888D02*
X11796373Y-24426841D01*
X11796373Y-24426841D02*
X11777325Y-24417317D01*
X11777325Y-24417317D02*
X11748754Y-24417317D01*
X11748754Y-24417317D02*
X11729706Y-24407793D01*
X11729706Y-24407793D02*
X11720182Y-24388746D01*
X11720182Y-24388746D02*
X11720182Y-24379222D01*
X11720182Y-24379222D02*
X11729706Y-24360174D01*
X11729706Y-24360174D02*
X11748754Y-24350650D01*
X11748754Y-24350650D02*
X11777325Y-24350650D01*
X11777325Y-24350650D02*
X11796373Y-24360174D01*
X11872563Y-24560174D02*
X11882087Y-24550650D01*
X11882087Y-24550650D02*
X11901135Y-24522079D01*
X11901135Y-24522079D02*
X11910658Y-24503031D01*
X11910658Y-24503031D02*
X11920182Y-24474460D01*
X11920182Y-24474460D02*
X11929706Y-24426841D01*
X11929706Y-24426841D02*
X11929706Y-24388746D01*
X11929706Y-24388746D02*
X11920182Y-24341127D01*
X11920182Y-24341127D02*
X11910658Y-24312555D01*
X11910658Y-24312555D02*
X11901135Y-24293508D01*
X11901135Y-24293508D02*
X11882087Y-24264936D01*
X11882087Y-24264936D02*
X11872563Y-24255412D01*
M02*
