G04 #@! TF.GenerationSoftware,KiCad,Pcbnew,8.0.3*
G04 #@! TF.CreationDate,2024-09-16T16:49:19+02:00*
G04 #@! TF.ProjectId,DMH_VCO_40106_PCB_Connectors,444d485f-5643-44f5-9f34-303130365f50,1*
G04 #@! TF.SameCoordinates,Original*
G04 #@! TF.FileFunction,Copper,L2,Bot*
G04 #@! TF.FilePolarity,Positive*
%FSLAX46Y46*%
G04 Gerber Fmt 4.6, Leading zero omitted, Abs format (unit mm)*
G04 Created by KiCad (PCBNEW 8.0.3) date 2024-09-16 16:49:19*
%MOMM*%
%LPD*%
G01*
G04 APERTURE LIST*
G04 Aperture macros list*
%AMRoundRect*
0 Rectangle with rounded corners*
0 $1 Rounding radius*
0 $2 $3 $4 $5 $6 $7 $8 $9 X,Y pos of 4 corners*
0 Add a 4 corners polygon primitive as box body*
4,1,4,$2,$3,$4,$5,$6,$7,$8,$9,$2,$3,0*
0 Add four circle primitives for the rounded corners*
1,1,$1+$1,$2,$3*
1,1,$1+$1,$4,$5*
1,1,$1+$1,$6,$7*
1,1,$1+$1,$8,$9*
0 Add four rect primitives between the rounded corners*
20,1,$1+$1,$2,$3,$4,$5,0*
20,1,$1+$1,$4,$5,$6,$7,0*
20,1,$1+$1,$6,$7,$8,$9,0*
20,1,$1+$1,$8,$9,$2,$3,0*%
%AMHorizOval*
0 Thick line with rounded ends*
0 $1 width*
0 $2 $3 position (X,Y) of the first rounded end (center of the circle)*
0 $4 $5 position (X,Y) of the second rounded end (center of the circle)*
0 Add line between two ends*
20,1,$1,$2,$3,$4,$5,0*
0 Add two circle primitives to create the rounded ends*
1,1,$1,$2,$3*
1,1,$1,$4,$5*%
G04 Aperture macros list end*
G04 #@! TA.AperFunction,ComponentPad*
%ADD10HorizOval,1.508000X-0.533159X-0.533159X0.533159X0.533159X0*%
G04 #@! TD*
G04 #@! TA.AperFunction,ComponentPad*
%ADD11O,1.508000X3.016000*%
G04 #@! TD*
G04 #@! TA.AperFunction,ComponentPad*
%ADD12O,3.016000X1.508000*%
G04 #@! TD*
G04 #@! TA.AperFunction,ComponentPad*
%ADD13R,1.700000X1.700000*%
G04 #@! TD*
G04 #@! TA.AperFunction,ComponentPad*
%ADD14O,1.700000X1.700000*%
G04 #@! TD*
G04 #@! TA.AperFunction,ComponentPad*
%ADD15RoundRect,0.250000X0.600000X0.600000X-0.600000X0.600000X-0.600000X-0.600000X0.600000X-0.600000X0*%
G04 #@! TD*
G04 #@! TA.AperFunction,ComponentPad*
%ADD16C,1.700000*%
G04 #@! TD*
G04 #@! TA.AperFunction,Conductor*
%ADD17C,0.300000*%
G04 #@! TD*
G04 APERTURE END LIST*
D10*
X132903810Y-224153810D03*
D11*
X144000000Y-228250000D03*
D12*
X140000000Y-222250000D03*
D10*
X82903810Y-224153810D03*
D11*
X94000000Y-228250000D03*
D12*
X90000000Y-222250000D03*
D10*
X57903810Y-179153810D03*
D11*
X69000000Y-183250000D03*
D12*
X65000000Y-177250000D03*
D10*
X57903810Y-201653810D03*
D11*
X69000000Y-205750000D03*
D12*
X65000000Y-199750000D03*
D10*
X133000000Y-201653810D03*
D11*
X144096190Y-205750000D03*
D12*
X140096190Y-199750000D03*
D10*
X82903810Y-201653810D03*
D11*
X94000000Y-205750000D03*
D12*
X90000000Y-199750000D03*
D10*
X107903810Y-224153810D03*
D11*
X119000000Y-228250000D03*
D12*
X115000000Y-222250000D03*
D10*
X107903810Y-201653810D03*
D11*
X119000000Y-205750000D03*
D12*
X115000000Y-199750000D03*
D10*
X57903810Y-224153810D03*
D11*
X69000000Y-228250000D03*
D12*
X65000000Y-222250000D03*
D13*
X86010000Y-195250000D03*
D14*
X88550000Y-195250000D03*
X91090000Y-195250000D03*
X93630000Y-195250000D03*
X96170000Y-195250000D03*
X98710000Y-195250000D03*
X101250000Y-195250000D03*
X103790000Y-195250000D03*
X106330000Y-195250000D03*
X108870000Y-195250000D03*
X111410000Y-195250000D03*
X113950000Y-195250000D03*
D15*
X101252500Y-212420000D03*
D16*
X101252500Y-214960000D03*
X101252500Y-217500000D03*
X101252500Y-220040000D03*
X101252500Y-222580000D03*
X98712500Y-212420000D03*
X98712500Y-214960000D03*
X98712500Y-217500000D03*
X98712500Y-220040000D03*
X98712500Y-222580000D03*
D17*
X71000000Y-193750000D02*
X107370000Y-193750000D01*
X65000000Y-199750000D02*
X71000000Y-193750000D01*
X107370000Y-193750000D02*
X108870000Y-195250000D01*
X90000000Y-199750000D02*
X90000000Y-205940408D01*
X90000000Y-205940408D02*
X93809592Y-209750000D01*
X93809592Y-209750000D02*
X102000000Y-209750000D01*
X103250000Y-215502500D02*
X101252500Y-217500000D01*
X103250000Y-211000000D02*
X103250000Y-215502500D01*
X102000000Y-209750000D02*
X103250000Y-211000000D01*
X145500000Y-204399810D02*
X145500000Y-229500000D01*
X126250000Y-230500000D02*
X121750000Y-226000000D01*
X140850190Y-199750000D02*
X145500000Y-204399810D01*
X144500000Y-230500000D02*
X126250000Y-230500000D01*
X104672500Y-226000000D02*
X101252500Y-222580000D01*
X145500000Y-229500000D02*
X144500000Y-230500000D01*
X121750000Y-226000000D02*
X104672500Y-226000000D01*
X140096190Y-199750000D02*
X140850190Y-199750000D01*
X74830000Y-212420000D02*
X98712500Y-212420000D01*
X65000000Y-222250000D02*
X74830000Y-212420000D01*
X97290000Y-214960000D02*
X90000000Y-222250000D01*
X98712500Y-214960000D02*
X97290000Y-214960000D01*
X99912500Y-218700000D02*
X98712500Y-217500000D01*
X111450000Y-218700000D02*
X99912500Y-218700000D01*
X115000000Y-222250000D02*
X111450000Y-218700000D01*
X113788708Y-223354000D02*
X111674708Y-221240000D01*
X116211292Y-223354000D02*
X113788708Y-223354000D01*
X111674708Y-221240000D02*
X99912500Y-221240000D01*
X99912500Y-221240000D02*
X98712500Y-220040000D01*
X140000000Y-222250000D02*
X117315292Y-222250000D01*
X117315292Y-222250000D02*
X116211292Y-223354000D01*
X91090000Y-195250000D02*
X94000000Y-198160000D01*
X94000000Y-198160000D02*
X94000000Y-205750000D01*
X104130000Y-205750000D02*
X93630000Y-195250000D01*
X119000000Y-205750000D02*
X104130000Y-205750000D01*
X144096190Y-205750000D02*
X142096190Y-203750000D01*
X104670000Y-203750000D02*
X96170000Y-195250000D01*
X142096190Y-203750000D02*
X104670000Y-203750000D01*
X88550000Y-195250000D02*
X85550000Y-198250000D01*
X71690000Y-205750000D02*
X69000000Y-205750000D01*
X85550000Y-198250000D02*
X79190000Y-198250000D01*
X79190000Y-198250000D02*
X71690000Y-205750000D01*
G04 #@! TA.AperFunction,Conductor*
G36*
X63516913Y-176020185D02*
G01*
X63562668Y-176072989D01*
X63572612Y-176142147D01*
X63543587Y-176205703D01*
X63522761Y-176224816D01*
X63486182Y-176251392D01*
X63428747Y-176293121D01*
X63289115Y-176432753D01*
X63173058Y-176592495D01*
X63083408Y-176768441D01*
X63022389Y-176956236D01*
X62991500Y-177151263D01*
X62991500Y-177348736D01*
X63022389Y-177543763D01*
X63061508Y-177664156D01*
X63083409Y-177731561D01*
X63173056Y-177907501D01*
X63173058Y-177907504D01*
X63289115Y-178067246D01*
X63428753Y-178206884D01*
X63578234Y-178315486D01*
X63588499Y-178322944D01*
X63764439Y-178412591D01*
X63860719Y-178443874D01*
X63952236Y-178473610D01*
X64147264Y-178504500D01*
X64147269Y-178504500D01*
X65852736Y-178504500D01*
X66047763Y-178473610D01*
X66235561Y-178412591D01*
X66411501Y-178322944D01*
X66501192Y-178257779D01*
X66571246Y-178206884D01*
X66571248Y-178206881D01*
X66571252Y-178206879D01*
X66710879Y-178067252D01*
X66710881Y-178067248D01*
X66710884Y-178067246D01*
X66761779Y-177997192D01*
X66826944Y-177907501D01*
X66916591Y-177731561D01*
X66977610Y-177543763D01*
X66991111Y-177458520D01*
X67008500Y-177348736D01*
X67008500Y-177151263D01*
X66977610Y-176956236D01*
X66957270Y-176893637D01*
X66916591Y-176768439D01*
X66826944Y-176592499D01*
X66819486Y-176582234D01*
X66710884Y-176432753D01*
X66571252Y-176293121D01*
X66477240Y-176224817D01*
X66434575Y-176169489D01*
X66428596Y-176099876D01*
X66461201Y-176038080D01*
X66522040Y-176003723D01*
X66550126Y-176000500D01*
X70375500Y-176000500D01*
X70442539Y-176020185D01*
X70488294Y-176072989D01*
X70499500Y-176124500D01*
X70499500Y-182368565D01*
X70479815Y-182435604D01*
X70427011Y-182481359D01*
X70357853Y-182491303D01*
X70294297Y-182462278D01*
X70256523Y-182403500D01*
X70253027Y-182387963D01*
X70223610Y-182202236D01*
X70203270Y-182139637D01*
X70162591Y-182014439D01*
X70072944Y-181838499D01*
X70065486Y-181828234D01*
X69956884Y-181678753D01*
X69817246Y-181539115D01*
X69657504Y-181423058D01*
X69657503Y-181423057D01*
X69657501Y-181423056D01*
X69481561Y-181333409D01*
X69481558Y-181333408D01*
X69293763Y-181272389D01*
X69098736Y-181241500D01*
X69098731Y-181241500D01*
X68901269Y-181241500D01*
X68901264Y-181241500D01*
X68706236Y-181272389D01*
X68518441Y-181333408D01*
X68342495Y-181423058D01*
X68182753Y-181539115D01*
X68043115Y-181678753D01*
X67927058Y-181838495D01*
X67837408Y-182014441D01*
X67776389Y-182202236D01*
X67745500Y-182397263D01*
X67745500Y-184102736D01*
X67776389Y-184297763D01*
X67837408Y-184485558D01*
X67837409Y-184485561D01*
X67927056Y-184661501D01*
X67927058Y-184661504D01*
X68043115Y-184821246D01*
X68182753Y-184960884D01*
X68332234Y-185069486D01*
X68342499Y-185076944D01*
X68518439Y-185166591D01*
X68643637Y-185207270D01*
X68706236Y-185227610D01*
X68901264Y-185258500D01*
X68901269Y-185258500D01*
X69098736Y-185258500D01*
X69293763Y-185227610D01*
X69481561Y-185166591D01*
X69657501Y-185076944D01*
X69747192Y-185011779D01*
X69817246Y-184960884D01*
X69817248Y-184960881D01*
X69817252Y-184960879D01*
X69956879Y-184821252D01*
X69956881Y-184821248D01*
X69956884Y-184821246D01*
X70007779Y-184751192D01*
X70072944Y-184661501D01*
X70162591Y-184485561D01*
X70223610Y-184297763D01*
X70253027Y-184112036D01*
X70282956Y-184048901D01*
X70342268Y-184011970D01*
X70412131Y-184012968D01*
X70470363Y-184051578D01*
X70498477Y-184115542D01*
X70499500Y-184131434D01*
X70499500Y-193065891D01*
X70535712Y-193201037D01*
X70533433Y-193201647D01*
X70539614Y-193259120D01*
X70508340Y-193321600D01*
X70505265Y-193324787D01*
X65370873Y-198459181D01*
X65309550Y-198492666D01*
X65283192Y-198495500D01*
X64147264Y-198495500D01*
X63952236Y-198526389D01*
X63764441Y-198587408D01*
X63588495Y-198677058D01*
X63428753Y-198793115D01*
X63289115Y-198932753D01*
X63173058Y-199092495D01*
X63083408Y-199268441D01*
X63022389Y-199456236D01*
X62991500Y-199651263D01*
X62991500Y-199848736D01*
X63022389Y-200043763D01*
X63061508Y-200164156D01*
X63083409Y-200231561D01*
X63173056Y-200407501D01*
X63173058Y-200407504D01*
X63289115Y-200567246D01*
X63428753Y-200706884D01*
X63578234Y-200815486D01*
X63588499Y-200822944D01*
X63764439Y-200912591D01*
X63860719Y-200943874D01*
X63952236Y-200973610D01*
X64147264Y-201004500D01*
X64147269Y-201004500D01*
X65852736Y-201004500D01*
X66047763Y-200973610D01*
X66055239Y-200971181D01*
X66235561Y-200912591D01*
X66411501Y-200822944D01*
X66501192Y-200757779D01*
X66571246Y-200706884D01*
X66571248Y-200706881D01*
X66571252Y-200706879D01*
X66710879Y-200567252D01*
X66710881Y-200567248D01*
X66710884Y-200567246D01*
X66761779Y-200497192D01*
X66826944Y-200407501D01*
X66916591Y-200231561D01*
X66977610Y-200043763D01*
X66991111Y-199958520D01*
X67008500Y-199848736D01*
X67008500Y-199651263D01*
X66977610Y-199456236D01*
X66957270Y-199393637D01*
X66916591Y-199268439D01*
X66826944Y-199092499D01*
X66784203Y-199033670D01*
X66760723Y-198967864D01*
X66776549Y-198899810D01*
X66796836Y-198873108D01*
X71233127Y-194436819D01*
X71294450Y-194403334D01*
X71320808Y-194400500D01*
X84535500Y-194400500D01*
X84602539Y-194420185D01*
X84648294Y-194472989D01*
X84659500Y-194524500D01*
X84659500Y-196147870D01*
X84659501Y-196147876D01*
X84665908Y-196207483D01*
X84716202Y-196342328D01*
X84716206Y-196342335D01*
X84802452Y-196457544D01*
X84802455Y-196457547D01*
X84917664Y-196543793D01*
X84917671Y-196543797D01*
X85052517Y-196594091D01*
X85052516Y-196594091D01*
X85059444Y-196594835D01*
X85112127Y-196600500D01*
X85980191Y-196600499D01*
X86047230Y-196620183D01*
X86092985Y-196672987D01*
X86102929Y-196742146D01*
X86073904Y-196805702D01*
X86067872Y-196812180D01*
X85316873Y-197563181D01*
X85255550Y-197596666D01*
X85229192Y-197599500D01*
X79125929Y-197599500D01*
X79000261Y-197624497D01*
X79000255Y-197624499D01*
X78927287Y-197654724D01*
X78881877Y-197673533D01*
X78881869Y-197673537D01*
X78775326Y-197744726D01*
X78775325Y-197744727D01*
X71456873Y-205063181D01*
X71395550Y-205096666D01*
X71369192Y-205099500D01*
X70378500Y-205099500D01*
X70311461Y-205079815D01*
X70265706Y-205027011D01*
X70254500Y-204975500D01*
X70254500Y-204897263D01*
X70223610Y-204702236D01*
X70178310Y-204562818D01*
X70162591Y-204514439D01*
X70072944Y-204338499D01*
X70064200Y-204326464D01*
X69956884Y-204178753D01*
X69817246Y-204039115D01*
X69657504Y-203923058D01*
X69657503Y-203923057D01*
X69657501Y-203923056D01*
X69481561Y-203833409D01*
X69481558Y-203833408D01*
X69293763Y-203772389D01*
X69098736Y-203741500D01*
X69098731Y-203741500D01*
X68901269Y-203741500D01*
X68901264Y-203741500D01*
X68706236Y-203772389D01*
X68518441Y-203833408D01*
X68342495Y-203923058D01*
X68182753Y-204039115D01*
X68043115Y-204178753D01*
X67927058Y-204338495D01*
X67837408Y-204514441D01*
X67776389Y-204702236D01*
X67745500Y-204897263D01*
X67745500Y-206602736D01*
X67776389Y-206797763D01*
X67837408Y-206985558D01*
X67837409Y-206985561D01*
X67927056Y-207161501D01*
X67927058Y-207161504D01*
X68043115Y-207321246D01*
X68182753Y-207460884D01*
X68332234Y-207569486D01*
X68342499Y-207576944D01*
X68518439Y-207666591D01*
X68643637Y-207707270D01*
X68706236Y-207727610D01*
X68901264Y-207758500D01*
X68901269Y-207758500D01*
X69098736Y-207758500D01*
X69293763Y-207727610D01*
X69481561Y-207666591D01*
X69657501Y-207576944D01*
X69753310Y-207507335D01*
X69817246Y-207460884D01*
X69817248Y-207460881D01*
X69817252Y-207460879D01*
X69956879Y-207321252D01*
X69956881Y-207321248D01*
X69956884Y-207321246D01*
X70007779Y-207251192D01*
X70072944Y-207161501D01*
X70162591Y-206985561D01*
X70223610Y-206797763D01*
X70254500Y-206602736D01*
X70254500Y-206524500D01*
X70274185Y-206457461D01*
X70326989Y-206411706D01*
X70378500Y-206400500D01*
X71754071Y-206400500D01*
X71838615Y-206383682D01*
X71879744Y-206375501D01*
X71998127Y-206326465D01*
X72104669Y-206255277D01*
X76271669Y-202088277D01*
X81116651Y-202088277D01*
X81116651Y-202285660D01*
X81147529Y-202480616D01*
X81208521Y-202668335D01*
X81208522Y-202668338D01*
X81298134Y-202844210D01*
X81324106Y-202879958D01*
X81324107Y-202879958D01*
X81890517Y-202313548D01*
X81907555Y-202377132D01*
X81973381Y-202491147D01*
X82066473Y-202584239D01*
X82180488Y-202650065D01*
X82244069Y-202667101D01*
X81677660Y-203233510D01*
X81677660Y-203233511D01*
X81713415Y-203259488D01*
X81889281Y-203349097D01*
X81889284Y-203349098D01*
X82077003Y-203410090D01*
X82271960Y-203440969D01*
X82469342Y-203440969D01*
X82664298Y-203410090D01*
X82852017Y-203349098D01*
X82852020Y-203349097D01*
X83027890Y-203259486D01*
X83187578Y-203143464D01*
X83187579Y-203143464D01*
X83613745Y-202717298D01*
X83613745Y-202717297D01*
X83080586Y-202184139D01*
X83434139Y-201830586D01*
X83967298Y-202363745D01*
X84393463Y-201937579D01*
X84393463Y-201937578D01*
X84509485Y-201777889D01*
X84509489Y-201777883D01*
X84599097Y-201602021D01*
X84599099Y-201602015D01*
X84660090Y-201414300D01*
X84690969Y-201219343D01*
X84690969Y-201021959D01*
X84660090Y-200827003D01*
X84599098Y-200639284D01*
X84599097Y-200639281D01*
X84509489Y-200463419D01*
X84509481Y-200463406D01*
X84483511Y-200427661D01*
X84483510Y-200427660D01*
X83917102Y-200994068D01*
X83900066Y-200930488D01*
X83834240Y-200816472D01*
X83741148Y-200723380D01*
X83627132Y-200657554D01*
X83563549Y-200640517D01*
X84129958Y-200074108D01*
X84094208Y-200048134D01*
X83918338Y-199958522D01*
X83918335Y-199958521D01*
X83730616Y-199897529D01*
X83535660Y-199866651D01*
X83338277Y-199866651D01*
X83143319Y-199897529D01*
X82955604Y-199958520D01*
X82955598Y-199958522D01*
X82779736Y-200048130D01*
X82779730Y-200048134D01*
X82620041Y-200164156D01*
X82620039Y-200164157D01*
X82193875Y-200590320D01*
X82193875Y-200590321D01*
X82727033Y-201123479D01*
X82373480Y-201477033D01*
X81840321Y-200943874D01*
X81840320Y-200943874D01*
X81414156Y-201370039D01*
X81414155Y-201370041D01*
X81298133Y-201529729D01*
X81208522Y-201705599D01*
X81208521Y-201705602D01*
X81147529Y-201893321D01*
X81116651Y-202088277D01*
X76271669Y-202088277D01*
X79423127Y-198936819D01*
X79484450Y-198903334D01*
X79510808Y-198900500D01*
X85614071Y-198900500D01*
X85698615Y-198883682D01*
X85739744Y-198875501D01*
X85858127Y-198826465D01*
X85882022Y-198810499D01*
X85964669Y-198755277D01*
X88122238Y-196597706D01*
X88183559Y-196564223D01*
X88242006Y-196565613D01*
X88314592Y-196585063D01*
X88491034Y-196600500D01*
X88549999Y-196605659D01*
X88550000Y-196605659D01*
X88550001Y-196605659D01*
X88608966Y-196600500D01*
X88785408Y-196585063D01*
X89013663Y-196523903D01*
X89227830Y-196424035D01*
X89421401Y-196288495D01*
X89588495Y-196121401D01*
X89718425Y-195935842D01*
X89773002Y-195892217D01*
X89842500Y-195885023D01*
X89904855Y-195916546D01*
X89921575Y-195935842D01*
X90051281Y-196121082D01*
X90051505Y-196121401D01*
X90218599Y-196288495D01*
X90315384Y-196356265D01*
X90412165Y-196424032D01*
X90412167Y-196424033D01*
X90412170Y-196424035D01*
X90626337Y-196523903D01*
X90854592Y-196585063D01*
X91031034Y-196600500D01*
X91089999Y-196605659D01*
X91090000Y-196605659D01*
X91090001Y-196605659D01*
X91148966Y-196600500D01*
X91325408Y-196585063D01*
X91397989Y-196565615D01*
X91467839Y-196567278D01*
X91517763Y-196597709D01*
X93313181Y-198393127D01*
X93346666Y-198454450D01*
X93349500Y-198480808D01*
X93349500Y-203854788D01*
X93329815Y-203921827D01*
X93298386Y-203955105D01*
X93283671Y-203965797D01*
X93182747Y-204039121D01*
X93043115Y-204178753D01*
X92927058Y-204338495D01*
X92837408Y-204514441D01*
X92776389Y-204702236D01*
X92745500Y-204897263D01*
X92745500Y-206602736D01*
X92776389Y-206797763D01*
X92837408Y-206985558D01*
X92837409Y-206985561D01*
X92927056Y-207161501D01*
X92927058Y-207161504D01*
X93043115Y-207321246D01*
X93182753Y-207460884D01*
X93332234Y-207569486D01*
X93342499Y-207576944D01*
X93518439Y-207666591D01*
X93643637Y-207707270D01*
X93706236Y-207727610D01*
X93901264Y-207758500D01*
X93901269Y-207758500D01*
X94098736Y-207758500D01*
X94293763Y-207727610D01*
X94481561Y-207666591D01*
X94657501Y-207576944D01*
X94753310Y-207507335D01*
X94817246Y-207460884D01*
X94817248Y-207460881D01*
X94817252Y-207460879D01*
X94956879Y-207321252D01*
X94956881Y-207321248D01*
X94956884Y-207321246D01*
X95007779Y-207251192D01*
X95072944Y-207161501D01*
X95162591Y-206985561D01*
X95223610Y-206797763D01*
X95254500Y-206602736D01*
X95254500Y-204897263D01*
X95223610Y-204702236D01*
X95178310Y-204562818D01*
X95162591Y-204514439D01*
X95072944Y-204338499D01*
X95064200Y-204326464D01*
X94956884Y-204178753D01*
X94817252Y-204039121D01*
X94742958Y-203985144D01*
X94701614Y-203955105D01*
X94658949Y-203899777D01*
X94650500Y-203854788D01*
X94650500Y-198095928D01*
X94625502Y-197970261D01*
X94625501Y-197970260D01*
X94625501Y-197970256D01*
X94576465Y-197851873D01*
X94565413Y-197835333D01*
X94565412Y-197835330D01*
X94505277Y-197745331D01*
X94505271Y-197745324D01*
X93574908Y-196814962D01*
X93541423Y-196753639D01*
X93546407Y-196683948D01*
X93588279Y-196628014D01*
X93651781Y-196603753D01*
X93865408Y-196585063D01*
X93937989Y-196565615D01*
X94007839Y-196567278D01*
X94057763Y-196597709D01*
X103715324Y-206255271D01*
X103715331Y-206255277D01*
X103821871Y-206326464D01*
X103821870Y-206326464D01*
X103856544Y-206340826D01*
X103940256Y-206375501D01*
X103940260Y-206375501D01*
X103940261Y-206375502D01*
X104065928Y-206400500D01*
X104065931Y-206400500D01*
X117621500Y-206400500D01*
X117688539Y-206420185D01*
X117734294Y-206472989D01*
X117745500Y-206524500D01*
X117745500Y-206602736D01*
X117776389Y-206797763D01*
X117837408Y-206985558D01*
X117837409Y-206985561D01*
X117927056Y-207161501D01*
X117927058Y-207161504D01*
X118043115Y-207321246D01*
X118182753Y-207460884D01*
X118332234Y-207569486D01*
X118342499Y-207576944D01*
X118518439Y-207666591D01*
X118643637Y-207707270D01*
X118706236Y-207727610D01*
X118901264Y-207758500D01*
X118901269Y-207758500D01*
X119098736Y-207758500D01*
X119293763Y-207727610D01*
X119481561Y-207666591D01*
X119657501Y-207576944D01*
X119753310Y-207507335D01*
X119817246Y-207460884D01*
X119817248Y-207460881D01*
X119817252Y-207460879D01*
X119956879Y-207321252D01*
X119956881Y-207321248D01*
X119956884Y-207321246D01*
X120007779Y-207251192D01*
X120072944Y-207161501D01*
X120162591Y-206985561D01*
X120223610Y-206797763D01*
X120254500Y-206602736D01*
X120254500Y-204897263D01*
X120223610Y-204702236D01*
X120178310Y-204562818D01*
X120176315Y-204492977D01*
X120212395Y-204433144D01*
X120275096Y-204402316D01*
X120296241Y-204400500D01*
X141775382Y-204400500D01*
X141842421Y-204420185D01*
X141863063Y-204436819D01*
X142805371Y-205379126D01*
X142838856Y-205440449D01*
X142841690Y-205466807D01*
X142841690Y-206602736D01*
X142872579Y-206797763D01*
X142933598Y-206985558D01*
X142933599Y-206985561D01*
X143023246Y-207161501D01*
X143023248Y-207161504D01*
X143139305Y-207321246D01*
X143278943Y-207460884D01*
X143428424Y-207569486D01*
X143438689Y-207576944D01*
X143614629Y-207666591D01*
X143739827Y-207707270D01*
X143802426Y-207727610D01*
X143997454Y-207758500D01*
X143997459Y-207758500D01*
X144194926Y-207758500D01*
X144389953Y-207727610D01*
X144577751Y-207666591D01*
X144669206Y-207619991D01*
X144737873Y-207607095D01*
X144802614Y-207633371D01*
X144842871Y-207690477D01*
X144849500Y-207730476D01*
X144849500Y-226319294D01*
X144829815Y-226386333D01*
X144777011Y-226432088D01*
X144707853Y-226442032D01*
X144660721Y-226425028D01*
X144657509Y-226423060D01*
X144585429Y-226386333D01*
X144481561Y-226333409D01*
X144481558Y-226333408D01*
X144293763Y-226272389D01*
X144098736Y-226241500D01*
X144098731Y-226241500D01*
X143901269Y-226241500D01*
X143901264Y-226241500D01*
X143706236Y-226272389D01*
X143518441Y-226333408D01*
X143342495Y-226423058D01*
X143182753Y-226539115D01*
X143043115Y-226678753D01*
X142927058Y-226838495D01*
X142837408Y-227014441D01*
X142776389Y-227202236D01*
X142745500Y-227397263D01*
X142745500Y-229102736D01*
X142776389Y-229297763D01*
X142821283Y-229435931D01*
X142837409Y-229485561D01*
X142927056Y-229661501D01*
X142929268Y-229665842D01*
X142928116Y-229666428D01*
X142944816Y-229728152D01*
X142923702Y-229794755D01*
X142869931Y-229839370D01*
X142820844Y-229849500D01*
X126570808Y-229849500D01*
X126503769Y-229829815D01*
X126483127Y-229813181D01*
X122164674Y-225494727D01*
X122164673Y-225494726D01*
X122164669Y-225494723D01*
X122058127Y-225423535D01*
X121939744Y-225374499D01*
X121939738Y-225374497D01*
X121814071Y-225349500D01*
X121814069Y-225349500D01*
X108780906Y-225349500D01*
X108713867Y-225329815D01*
X108668112Y-225277011D01*
X108658168Y-225207853D01*
X108687193Y-225144297D01*
X108693225Y-225137819D01*
X109393463Y-224437579D01*
X109393463Y-224437578D01*
X109509485Y-224277889D01*
X109509489Y-224277883D01*
X109599097Y-224102021D01*
X109599099Y-224102015D01*
X109660090Y-223914300D01*
X109690969Y-223719343D01*
X109690969Y-223521959D01*
X109660090Y-223327003D01*
X109599098Y-223139284D01*
X109599097Y-223139281D01*
X109509489Y-222963419D01*
X109509481Y-222963406D01*
X109483511Y-222927661D01*
X109483510Y-222927660D01*
X108917102Y-223494068D01*
X108900066Y-223430488D01*
X108834240Y-223316472D01*
X108741148Y-223223380D01*
X108627132Y-223157554D01*
X108563549Y-223140517D01*
X109129958Y-222574108D01*
X109094208Y-222548134D01*
X108918338Y-222458522D01*
X108918335Y-222458521D01*
X108730616Y-222397529D01*
X108535660Y-222366651D01*
X108338277Y-222366651D01*
X108143319Y-222397529D01*
X107955604Y-222458520D01*
X107955598Y-222458522D01*
X107779736Y-222548130D01*
X107779730Y-222548134D01*
X107620041Y-222664156D01*
X107620039Y-222664157D01*
X107193875Y-223090320D01*
X107193875Y-223090321D01*
X107727033Y-223623479D01*
X107373480Y-223977033D01*
X106840321Y-223443874D01*
X106840320Y-223443874D01*
X106414156Y-223870039D01*
X106414155Y-223870041D01*
X106298133Y-224029729D01*
X106208522Y-224205599D01*
X106208521Y-224205602D01*
X106147529Y-224393321D01*
X106116651Y-224588277D01*
X106116651Y-224785660D01*
X106147529Y-224980616D01*
X106208521Y-225168335D01*
X106208525Y-225168344D01*
X106208961Y-225169199D01*
X106209028Y-225169559D01*
X106210388Y-225172841D01*
X106209698Y-225173126D01*
X106221862Y-225237867D01*
X106195589Y-225302609D01*
X106138485Y-225342869D01*
X106098480Y-225349500D01*
X104993308Y-225349500D01*
X104926269Y-225329815D01*
X104905627Y-225313181D01*
X102600209Y-223007763D01*
X102566724Y-222946440D01*
X102568115Y-222887989D01*
X102569045Y-222884517D01*
X102587563Y-222815408D01*
X102608159Y-222580000D01*
X102587563Y-222344592D01*
X102526403Y-222116337D01*
X102503351Y-222066904D01*
X102492860Y-221997828D01*
X102521379Y-221934044D01*
X102579856Y-221895804D01*
X102615734Y-221890500D01*
X111353900Y-221890500D01*
X111420939Y-221910185D01*
X111441581Y-221926819D01*
X113374032Y-223859271D01*
X113374035Y-223859274D01*
X113457531Y-223915064D01*
X113457530Y-223915064D01*
X113474837Y-223926627D01*
X113480581Y-223930465D01*
X113598964Y-223979501D01*
X113598968Y-223979501D01*
X113598969Y-223979502D01*
X113724636Y-224004500D01*
X113724639Y-224004500D01*
X116275363Y-224004500D01*
X116359907Y-223987682D01*
X116401036Y-223979501D01*
X116519419Y-223930465D01*
X116542470Y-223915063D01*
X116625961Y-223859277D01*
X117548419Y-222936819D01*
X117609742Y-222903334D01*
X117636100Y-222900500D01*
X132084335Y-222900500D01*
X132151374Y-222920185D01*
X132197129Y-222972989D01*
X132207073Y-223042147D01*
X132178048Y-223105703D01*
X132172016Y-223112181D01*
X131414155Y-223870040D01*
X131414155Y-223870041D01*
X131298133Y-224029729D01*
X131208522Y-224205599D01*
X131208521Y-224205602D01*
X131147529Y-224393321D01*
X131116651Y-224588277D01*
X131116651Y-224785660D01*
X131147529Y-224980616D01*
X131208521Y-225168335D01*
X131208522Y-225168338D01*
X131298134Y-225344210D01*
X131324106Y-225379958D01*
X131324107Y-225379958D01*
X131890517Y-224813547D01*
X131907555Y-224877132D01*
X131973381Y-224991147D01*
X132066473Y-225084239D01*
X132180488Y-225150065D01*
X132244069Y-225167101D01*
X131677660Y-225733511D01*
X131713415Y-225759488D01*
X131889281Y-225849097D01*
X131889284Y-225849098D01*
X132077003Y-225910090D01*
X132271960Y-225940969D01*
X132469342Y-225940969D01*
X132664298Y-225910090D01*
X132852017Y-225849098D01*
X132852020Y-225849097D01*
X133027890Y-225759486D01*
X133187578Y-225643464D01*
X133187579Y-225643464D01*
X133613745Y-225217298D01*
X133613745Y-225217297D01*
X133080586Y-224684139D01*
X133434139Y-224330586D01*
X133967298Y-224863745D01*
X134393463Y-224437579D01*
X134393463Y-224437578D01*
X134509485Y-224277889D01*
X134509489Y-224277883D01*
X134599097Y-224102021D01*
X134599099Y-224102015D01*
X134660090Y-223914300D01*
X134690969Y-223719343D01*
X134690969Y-223521959D01*
X134660090Y-223327003D01*
X134599098Y-223139284D01*
X134599095Y-223139276D01*
X134569297Y-223080796D01*
X134556400Y-223012126D01*
X134582676Y-222947386D01*
X134639782Y-222907128D01*
X134679781Y-222900500D01*
X138104788Y-222900500D01*
X138171827Y-222920185D01*
X138205105Y-222951613D01*
X138278063Y-223052032D01*
X138289121Y-223067252D01*
X138428753Y-223206884D01*
X138578234Y-223315486D01*
X138588499Y-223322944D01*
X138764439Y-223412591D01*
X138883888Y-223451402D01*
X138952236Y-223473610D01*
X139147264Y-223504500D01*
X139147269Y-223504500D01*
X140852736Y-223504500D01*
X141047763Y-223473610D01*
X141235561Y-223412591D01*
X141411501Y-223322944D01*
X141516655Y-223246546D01*
X141571246Y-223206884D01*
X141571248Y-223206881D01*
X141571252Y-223206879D01*
X141710879Y-223067252D01*
X141710881Y-223067248D01*
X141710884Y-223067246D01*
X141761779Y-222997192D01*
X141826944Y-222907501D01*
X141916591Y-222731561D01*
X141977610Y-222543763D01*
X141991111Y-222458520D01*
X142008500Y-222348736D01*
X142008500Y-222151263D01*
X141977610Y-221956236D01*
X141956251Y-221890500D01*
X141916591Y-221768439D01*
X141826944Y-221592499D01*
X141762733Y-221504119D01*
X141710884Y-221432753D01*
X141571246Y-221293115D01*
X141411504Y-221177058D01*
X141411503Y-221177057D01*
X141411501Y-221177056D01*
X141235561Y-221087409D01*
X141208136Y-221078498D01*
X141047763Y-221026389D01*
X140852736Y-220995500D01*
X140852731Y-220995500D01*
X139147269Y-220995500D01*
X139147264Y-220995500D01*
X138952236Y-221026389D01*
X138764441Y-221087408D01*
X138588495Y-221177058D01*
X138428753Y-221293115D01*
X138289121Y-221432747D01*
X138278046Y-221447991D01*
X138205105Y-221548385D01*
X138149777Y-221591051D01*
X138104788Y-221599500D01*
X117251221Y-221599500D01*
X117125553Y-221624497D01*
X117125547Y-221624499D01*
X117001538Y-221675866D01*
X117000806Y-221674099D01*
X116941084Y-221686528D01*
X116875843Y-221661522D01*
X116840561Y-221619224D01*
X116826944Y-221592499D01*
X116762733Y-221504119D01*
X116710884Y-221432753D01*
X116571246Y-221293115D01*
X116411504Y-221177058D01*
X116411503Y-221177057D01*
X116411501Y-221177056D01*
X116235561Y-221087409D01*
X116208136Y-221078498D01*
X116047763Y-221026389D01*
X115852736Y-220995500D01*
X115852731Y-220995500D01*
X114716807Y-220995500D01*
X114649768Y-220975815D01*
X114629126Y-220959181D01*
X111864674Y-218194727D01*
X111864673Y-218194726D01*
X111839386Y-218177830D01*
X111758127Y-218123535D01*
X111639744Y-218074499D01*
X111639738Y-218074497D01*
X111514071Y-218049500D01*
X111514069Y-218049500D01*
X102665003Y-218049500D01*
X102597964Y-218029815D01*
X102552209Y-217977011D01*
X102542265Y-217907853D01*
X102545228Y-217893407D01*
X102554695Y-217858072D01*
X102587563Y-217735408D01*
X102608159Y-217500000D01*
X102587563Y-217264592D01*
X102568114Y-217192007D01*
X102569777Y-217122162D01*
X102600206Y-217072238D01*
X103755277Y-215917169D01*
X103826466Y-215810626D01*
X103875501Y-215692243D01*
X103900500Y-215566569D01*
X103900500Y-215438431D01*
X103900500Y-210935931D01*
X103900500Y-210935928D01*
X103875502Y-210810261D01*
X103875501Y-210810260D01*
X103875501Y-210810256D01*
X103826465Y-210691873D01*
X103755277Y-210585331D01*
X103755275Y-210585329D01*
X103755273Y-210585326D01*
X102414673Y-209244726D01*
X102414669Y-209244723D01*
X102308127Y-209173535D01*
X102189744Y-209124499D01*
X102189738Y-209124497D01*
X102064071Y-209099500D01*
X102064069Y-209099500D01*
X94130400Y-209099500D01*
X94063361Y-209079815D01*
X94042719Y-209063181D01*
X90686819Y-205707281D01*
X90653334Y-205645958D01*
X90650500Y-205619600D01*
X90650500Y-201128500D01*
X90670185Y-201061461D01*
X90722989Y-201015706D01*
X90774500Y-201004500D01*
X90852736Y-201004500D01*
X91047763Y-200973610D01*
X91055239Y-200971181D01*
X91235561Y-200912591D01*
X91411501Y-200822944D01*
X91501192Y-200757779D01*
X91571246Y-200706884D01*
X91571248Y-200706881D01*
X91571252Y-200706879D01*
X91710879Y-200567252D01*
X91710881Y-200567248D01*
X91710884Y-200567246D01*
X91761779Y-200497192D01*
X91826944Y-200407501D01*
X91916591Y-200231561D01*
X91977610Y-200043763D01*
X91991111Y-199958520D01*
X92008500Y-199848736D01*
X92008500Y-199651263D01*
X91977610Y-199456236D01*
X91957270Y-199393637D01*
X91916591Y-199268439D01*
X91826944Y-199092499D01*
X91784203Y-199033670D01*
X91710884Y-198932753D01*
X91571246Y-198793115D01*
X91411504Y-198677058D01*
X91411503Y-198677057D01*
X91411501Y-198677056D01*
X91235561Y-198587409D01*
X91235558Y-198587408D01*
X91047763Y-198526389D01*
X90852736Y-198495500D01*
X90852731Y-198495500D01*
X89147269Y-198495500D01*
X89147264Y-198495500D01*
X88952236Y-198526389D01*
X88764441Y-198587408D01*
X88588495Y-198677058D01*
X88428753Y-198793115D01*
X88289115Y-198932753D01*
X88173058Y-199092495D01*
X88083408Y-199268441D01*
X88022389Y-199456236D01*
X87991500Y-199651263D01*
X87991500Y-199848736D01*
X88022389Y-200043763D01*
X88061508Y-200164156D01*
X88083409Y-200231561D01*
X88173056Y-200407501D01*
X88173058Y-200407504D01*
X88289115Y-200567246D01*
X88428753Y-200706884D01*
X88578234Y-200815486D01*
X88588499Y-200822944D01*
X88764439Y-200912591D01*
X88860719Y-200943874D01*
X88952236Y-200973610D01*
X89147264Y-201004500D01*
X89147269Y-201004500D01*
X89225500Y-201004500D01*
X89292539Y-201024185D01*
X89338294Y-201076989D01*
X89349500Y-201128500D01*
X89349500Y-206004477D01*
X89349500Y-206004479D01*
X89349499Y-206004479D01*
X89374497Y-206130146D01*
X89374499Y-206130152D01*
X89423535Y-206248535D01*
X89494723Y-206355077D01*
X89494726Y-206355081D01*
X93394920Y-210255275D01*
X93458791Y-210297952D01*
X93458790Y-210297952D01*
X93490831Y-210319360D01*
X93501465Y-210326465D01*
X93619848Y-210375501D01*
X93619852Y-210375501D01*
X93619853Y-210375502D01*
X93745520Y-210400500D01*
X93745523Y-210400500D01*
X101679192Y-210400500D01*
X101746231Y-210420185D01*
X101766873Y-210436819D01*
X102240691Y-210910637D01*
X102274176Y-210971960D01*
X102269192Y-211041652D01*
X102227320Y-211097585D01*
X102161856Y-211122002D01*
X102114007Y-211116024D01*
X102005297Y-211080001D01*
X102005295Y-211080000D01*
X101902510Y-211069500D01*
X100602498Y-211069500D01*
X100602481Y-211069501D01*
X100499703Y-211080000D01*
X100499700Y-211080001D01*
X100333168Y-211135185D01*
X100333163Y-211135187D01*
X100183842Y-211227289D01*
X100059789Y-211351342D01*
X99967687Y-211500663D01*
X99967683Y-211500673D01*
X99964835Y-211509268D01*
X99925060Y-211566711D01*
X99860544Y-211593531D01*
X99791768Y-211581214D01*
X99755017Y-211552233D01*
X99754824Y-211552427D01*
X99753182Y-211550785D01*
X99752142Y-211549965D01*
X99750994Y-211548597D01*
X99583902Y-211381506D01*
X99583895Y-211381501D01*
X99390334Y-211245967D01*
X99390330Y-211245965D01*
X99350277Y-211227288D01*
X99176163Y-211146097D01*
X99176159Y-211146096D01*
X99176155Y-211146094D01*
X98947913Y-211084938D01*
X98947903Y-211084936D01*
X98712501Y-211064341D01*
X98712499Y-211064341D01*
X98477096Y-211084936D01*
X98477086Y-211084938D01*
X98248844Y-211146094D01*
X98248835Y-211146098D01*
X98034671Y-211245964D01*
X98034669Y-211245965D01*
X97841097Y-211381505D01*
X97674006Y-211548596D01*
X97556354Y-211716623D01*
X97501777Y-211760248D01*
X97454779Y-211769500D01*
X74765929Y-211769500D01*
X74640261Y-211794497D01*
X74640255Y-211794499D01*
X74521870Y-211843535D01*
X74415331Y-211914722D01*
X74415324Y-211914728D01*
X65370873Y-220959181D01*
X65309550Y-220992666D01*
X65283192Y-220995500D01*
X64147264Y-220995500D01*
X63952236Y-221026389D01*
X63764441Y-221087408D01*
X63588495Y-221177058D01*
X63428753Y-221293115D01*
X63289115Y-221432753D01*
X63173058Y-221592495D01*
X63083408Y-221768441D01*
X63022389Y-221956236D01*
X62991500Y-222151263D01*
X62991500Y-222348736D01*
X63022389Y-222543763D01*
X63061508Y-222664156D01*
X63083409Y-222731561D01*
X63163114Y-222887989D01*
X63173058Y-222907504D01*
X63289115Y-223067246D01*
X63428753Y-223206884D01*
X63578234Y-223315486D01*
X63588499Y-223322944D01*
X63764439Y-223412591D01*
X63883888Y-223451402D01*
X63952236Y-223473610D01*
X64147264Y-223504500D01*
X64147269Y-223504500D01*
X65852736Y-223504500D01*
X66047763Y-223473610D01*
X66235561Y-223412591D01*
X66411501Y-223322944D01*
X66516655Y-223246546D01*
X66571246Y-223206884D01*
X66571248Y-223206881D01*
X66571252Y-223206879D01*
X66710879Y-223067252D01*
X66710881Y-223067248D01*
X66710884Y-223067246D01*
X66761779Y-222997192D01*
X66826944Y-222907501D01*
X66916591Y-222731561D01*
X66977610Y-222543763D01*
X66991111Y-222458520D01*
X67008500Y-222348736D01*
X67008500Y-222151263D01*
X66977610Y-221956236D01*
X66956251Y-221890500D01*
X66916591Y-221768439D01*
X66826944Y-221592499D01*
X66784203Y-221533670D01*
X66760723Y-221467864D01*
X66776549Y-221399810D01*
X66796836Y-221373108D01*
X75063127Y-213106819D01*
X75124450Y-213073334D01*
X75150808Y-213070500D01*
X97454778Y-213070500D01*
X97521817Y-213090185D01*
X97556353Y-213123377D01*
X97674001Y-213291396D01*
X97674006Y-213291402D01*
X97841097Y-213458493D01*
X97841103Y-213458498D01*
X98026658Y-213588425D01*
X98070283Y-213643002D01*
X98077477Y-213712500D01*
X98045954Y-213774855D01*
X98026658Y-213791575D01*
X97841097Y-213921505D01*
X97674006Y-214088596D01*
X97556354Y-214256623D01*
X97501777Y-214300248D01*
X97454779Y-214309500D01*
X97225929Y-214309500D01*
X97100261Y-214334497D01*
X97100255Y-214334499D01*
X96981874Y-214383534D01*
X96875326Y-214454726D01*
X96875325Y-214454727D01*
X90370873Y-220959181D01*
X90309550Y-220992666D01*
X90283192Y-220995500D01*
X89147264Y-220995500D01*
X88952236Y-221026389D01*
X88764441Y-221087408D01*
X88588495Y-221177058D01*
X88428753Y-221293115D01*
X88289115Y-221432753D01*
X88173058Y-221592495D01*
X88083408Y-221768441D01*
X88022389Y-221956236D01*
X87991500Y-222151263D01*
X87991500Y-222348736D01*
X88022389Y-222543763D01*
X88061508Y-222664156D01*
X88083409Y-222731561D01*
X88163114Y-222887989D01*
X88173058Y-222907504D01*
X88289115Y-223067246D01*
X88428753Y-223206884D01*
X88578234Y-223315486D01*
X88588499Y-223322944D01*
X88764439Y-223412591D01*
X88883888Y-223451402D01*
X88952236Y-223473610D01*
X89147264Y-223504500D01*
X89147269Y-223504500D01*
X90852736Y-223504500D01*
X91047763Y-223473610D01*
X91235561Y-223412591D01*
X91411501Y-223322944D01*
X91516655Y-223246546D01*
X91571246Y-223206884D01*
X91571248Y-223206881D01*
X91571252Y-223206879D01*
X91710879Y-223067252D01*
X91710881Y-223067248D01*
X91710884Y-223067246D01*
X91761779Y-222997192D01*
X91826944Y-222907501D01*
X91916591Y-222731561D01*
X91977610Y-222543763D01*
X91991111Y-222458520D01*
X92008500Y-222348736D01*
X92008500Y-222151263D01*
X91977610Y-221956236D01*
X91956251Y-221890500D01*
X91916591Y-221768439D01*
X91826944Y-221592499D01*
X91784203Y-221533670D01*
X91760723Y-221467864D01*
X91776549Y-221399810D01*
X91796836Y-221373108D01*
X97431357Y-215738587D01*
X97492678Y-215705104D01*
X97562370Y-215710088D01*
X97618303Y-215751960D01*
X97620611Y-215755147D01*
X97674001Y-215831396D01*
X97674006Y-215831402D01*
X97841097Y-215998493D01*
X97841103Y-215998498D01*
X98026658Y-216128425D01*
X98070283Y-216183002D01*
X98077477Y-216252500D01*
X98045954Y-216314855D01*
X98026658Y-216331575D01*
X97841097Y-216461505D01*
X97674005Y-216628597D01*
X97538465Y-216822169D01*
X97538464Y-216822171D01*
X97438598Y-217036335D01*
X97438594Y-217036344D01*
X97377438Y-217264586D01*
X97377436Y-217264596D01*
X97356841Y-217499999D01*
X97356841Y-217500000D01*
X97377436Y-217735403D01*
X97377438Y-217735413D01*
X97438594Y-217963655D01*
X97438596Y-217963659D01*
X97438597Y-217963663D01*
X97478624Y-218049500D01*
X97538465Y-218177830D01*
X97538467Y-218177834D01*
X97674001Y-218371395D01*
X97674006Y-218371402D01*
X97841097Y-218538493D01*
X97841103Y-218538498D01*
X98026658Y-218668425D01*
X98070283Y-218723002D01*
X98077477Y-218792500D01*
X98045954Y-218854855D01*
X98026658Y-218871575D01*
X97841097Y-219001505D01*
X97674005Y-219168597D01*
X97538465Y-219362169D01*
X97538464Y-219362171D01*
X97438598Y-219576335D01*
X97438594Y-219576344D01*
X97377438Y-219804586D01*
X97377436Y-219804596D01*
X97356841Y-220039999D01*
X97356841Y-220040000D01*
X97377436Y-220275403D01*
X97377438Y-220275413D01*
X97438594Y-220503655D01*
X97438596Y-220503659D01*
X97438597Y-220503663D01*
X97478624Y-220589500D01*
X97538465Y-220717830D01*
X97538467Y-220717834D01*
X97674001Y-220911395D01*
X97674006Y-220911402D01*
X97841097Y-221078493D01*
X97841103Y-221078498D01*
X98026658Y-221208425D01*
X98070283Y-221263002D01*
X98077477Y-221332500D01*
X98045954Y-221394855D01*
X98026658Y-221411575D01*
X97841097Y-221541505D01*
X97674005Y-221708597D01*
X97538465Y-221902169D01*
X97538464Y-221902171D01*
X97438598Y-222116335D01*
X97438594Y-222116344D01*
X97377438Y-222344586D01*
X97377436Y-222344596D01*
X97356841Y-222579999D01*
X97356841Y-222580000D01*
X97377436Y-222815403D01*
X97377438Y-222815413D01*
X97438594Y-223043655D01*
X97438596Y-223043659D01*
X97438597Y-223043663D01*
X97518504Y-223215023D01*
X97538465Y-223257830D01*
X97538467Y-223257834D01*
X97646781Y-223412521D01*
X97674005Y-223451401D01*
X97841099Y-223618495D01*
X97937884Y-223686265D01*
X98034665Y-223754032D01*
X98034667Y-223754033D01*
X98034670Y-223754035D01*
X98248837Y-223853903D01*
X98248843Y-223853904D01*
X98248844Y-223853905D01*
X98303785Y-223868626D01*
X98477092Y-223915063D01*
X98653122Y-223930464D01*
X98712499Y-223935659D01*
X98712500Y-223935659D01*
X98712501Y-223935659D01*
X98751734Y-223932226D01*
X98947908Y-223915063D01*
X99176163Y-223853903D01*
X99390330Y-223754035D01*
X99583901Y-223618495D01*
X99750995Y-223451401D01*
X99880925Y-223265842D01*
X99935502Y-223222217D01*
X100005000Y-223215023D01*
X100067355Y-223246546D01*
X100084075Y-223265842D01*
X100214000Y-223451395D01*
X100214005Y-223451401D01*
X100381099Y-223618495D01*
X100477884Y-223686265D01*
X100574665Y-223754032D01*
X100574667Y-223754033D01*
X100574670Y-223754035D01*
X100788837Y-223853903D01*
X100788843Y-223853904D01*
X100788844Y-223853905D01*
X100843785Y-223868626D01*
X101017092Y-223915063D01*
X101193122Y-223930464D01*
X101252499Y-223935659D01*
X101252500Y-223935659D01*
X101252501Y-223935659D01*
X101291734Y-223932226D01*
X101487908Y-223915063D01*
X101560489Y-223895615D01*
X101630339Y-223897278D01*
X101680263Y-223927709D01*
X104257824Y-226505271D01*
X104257831Y-226505277D01*
X104364371Y-226576464D01*
X104364370Y-226576464D01*
X104399044Y-226590826D01*
X104482756Y-226625501D01*
X104482760Y-226625501D01*
X104482761Y-226625502D01*
X104608428Y-226650500D01*
X104608431Y-226650500D01*
X117820844Y-226650500D01*
X117887883Y-226670185D01*
X117933638Y-226722989D01*
X117943582Y-226792147D01*
X117928553Y-226833793D01*
X117929268Y-226834158D01*
X117837408Y-227014441D01*
X117776389Y-227202236D01*
X117745500Y-227397263D01*
X117745500Y-229102736D01*
X117776389Y-229297763D01*
X117821283Y-229435931D01*
X117837409Y-229485561D01*
X117927056Y-229661501D01*
X117927058Y-229661504D01*
X118043115Y-229821246D01*
X118182753Y-229960884D01*
X118332234Y-230069486D01*
X118342499Y-230076944D01*
X118518439Y-230166591D01*
X118643637Y-230207270D01*
X118706236Y-230227610D01*
X118901264Y-230258500D01*
X118901269Y-230258500D01*
X119098736Y-230258500D01*
X119293763Y-230227610D01*
X119481561Y-230166591D01*
X119657501Y-230076944D01*
X119747192Y-230011779D01*
X119817246Y-229960884D01*
X119817248Y-229960881D01*
X119817252Y-229960879D01*
X119956879Y-229821252D01*
X119956881Y-229821248D01*
X119956884Y-229821246D01*
X120007779Y-229751192D01*
X120072944Y-229661501D01*
X120162591Y-229485561D01*
X120223610Y-229297763D01*
X120254500Y-229102736D01*
X120254500Y-227397263D01*
X120223610Y-227202236D01*
X120203270Y-227139637D01*
X120162591Y-227014439D01*
X120072944Y-226838499D01*
X120072943Y-226838498D01*
X120070732Y-226834158D01*
X120071883Y-226833571D01*
X120055184Y-226771848D01*
X120076298Y-226705245D01*
X120130069Y-226660630D01*
X120179156Y-226650500D01*
X121429192Y-226650500D01*
X121496231Y-226670185D01*
X121516873Y-226686819D01*
X125835325Y-231005272D01*
X125835326Y-231005273D01*
X125835329Y-231005275D01*
X125835331Y-231005277D01*
X125941873Y-231076465D01*
X126060256Y-231125501D01*
X126060260Y-231125501D01*
X126060261Y-231125502D01*
X126185928Y-231150500D01*
X126185931Y-231150500D01*
X144564071Y-231150500D01*
X144648615Y-231133682D01*
X144689744Y-231125501D01*
X144808127Y-231076465D01*
X144914669Y-231005277D01*
X146005277Y-229914669D01*
X146076466Y-229808126D01*
X146125501Y-229689743D01*
X146150500Y-229564069D01*
X146150500Y-229435931D01*
X146150500Y-204335741D01*
X146150500Y-204335738D01*
X146125502Y-204210071D01*
X146125501Y-204210070D01*
X146125501Y-204210066D01*
X146076465Y-204091683D01*
X146076464Y-204091681D01*
X146054044Y-204058126D01*
X146054044Y-204058125D01*
X146005279Y-203985144D01*
X146005273Y-203985136D01*
X142117122Y-200096986D01*
X142083637Y-200035663D01*
X142082330Y-199989906D01*
X142104690Y-199848735D01*
X142104690Y-199651263D01*
X142073800Y-199456236D01*
X142053460Y-199393637D01*
X142012781Y-199268439D01*
X141923134Y-199092499D01*
X141880393Y-199033670D01*
X141807074Y-198932753D01*
X141667436Y-198793115D01*
X141507694Y-198677058D01*
X141507693Y-198677057D01*
X141507691Y-198677056D01*
X141331751Y-198587409D01*
X141331748Y-198587408D01*
X141143953Y-198526389D01*
X140948926Y-198495500D01*
X140948921Y-198495500D01*
X139243459Y-198495500D01*
X139243454Y-198495500D01*
X139048426Y-198526389D01*
X138860631Y-198587408D01*
X138684685Y-198677058D01*
X138524943Y-198793115D01*
X138385305Y-198932753D01*
X138269248Y-199092495D01*
X138179598Y-199268441D01*
X138118579Y-199456236D01*
X138087690Y-199651263D01*
X138087690Y-199848736D01*
X138118579Y-200043763D01*
X138157698Y-200164156D01*
X138179599Y-200231561D01*
X138269246Y-200407501D01*
X138269248Y-200407504D01*
X138385305Y-200567246D01*
X138524943Y-200706884D01*
X138674424Y-200815486D01*
X138684689Y-200822944D01*
X138860629Y-200912591D01*
X138956909Y-200943874D01*
X139048426Y-200973610D01*
X139243454Y-201004500D01*
X139243459Y-201004500D01*
X140948925Y-201004500D01*
X141070623Y-200985224D01*
X141090096Y-200982140D01*
X141159390Y-200991094D01*
X141197176Y-201016932D01*
X143772714Y-203592470D01*
X143806199Y-203653793D01*
X143801215Y-203723485D01*
X143759343Y-203779418D01*
X143723352Y-203798082D01*
X143643197Y-203824126D01*
X143614629Y-203833409D01*
X143572671Y-203854788D01*
X143438690Y-203923055D01*
X143379859Y-203965797D01*
X143314052Y-203989275D01*
X143245999Y-203973448D01*
X143219295Y-203953158D01*
X142510863Y-203244726D01*
X142510859Y-203244723D01*
X142404317Y-203173535D01*
X142331719Y-203143464D01*
X142285934Y-203124499D01*
X142285928Y-203124497D01*
X142160261Y-203099500D01*
X142160259Y-203099500D01*
X133627096Y-203099500D01*
X133560057Y-203079815D01*
X133514302Y-203027011D01*
X133504358Y-202957853D01*
X133533383Y-202894297D01*
X133539415Y-202887819D01*
X134489653Y-201937579D01*
X134489653Y-201937578D01*
X134605675Y-201777889D01*
X134605679Y-201777883D01*
X134695287Y-201602021D01*
X134695289Y-201602015D01*
X134756280Y-201414300D01*
X134787159Y-201219343D01*
X134787159Y-201021959D01*
X134756280Y-200827003D01*
X134695288Y-200639284D01*
X134695287Y-200639281D01*
X134605679Y-200463419D01*
X134605671Y-200463406D01*
X134579701Y-200427661D01*
X134579700Y-200427660D01*
X134013292Y-200994068D01*
X133996256Y-200930488D01*
X133930430Y-200816472D01*
X133837338Y-200723380D01*
X133723322Y-200657554D01*
X133659739Y-200640517D01*
X134226148Y-200074108D01*
X134190398Y-200048134D01*
X134014528Y-199958522D01*
X134014525Y-199958521D01*
X133826806Y-199897529D01*
X133631850Y-199866651D01*
X133434467Y-199866651D01*
X133239509Y-199897529D01*
X133051794Y-199958520D01*
X133051788Y-199958522D01*
X132875926Y-200048130D01*
X132875920Y-200048134D01*
X132716231Y-200164156D01*
X132716229Y-200164157D01*
X132290065Y-200590320D01*
X132290065Y-200590321D01*
X132823223Y-201123479D01*
X132469670Y-201477033D01*
X131936511Y-200943874D01*
X131936510Y-200943874D01*
X131510346Y-201370039D01*
X131510345Y-201370041D01*
X131394323Y-201529729D01*
X131304712Y-201705599D01*
X131304711Y-201705602D01*
X131243719Y-201893321D01*
X131212841Y-202088277D01*
X131212841Y-202285660D01*
X131243719Y-202480616D01*
X131304711Y-202668335D01*
X131304712Y-202668338D01*
X131394323Y-202844208D01*
X131436758Y-202902614D01*
X131460238Y-202968420D01*
X131444413Y-203036474D01*
X131394307Y-203085169D01*
X131336440Y-203099500D01*
X108530906Y-203099500D01*
X108463867Y-203079815D01*
X108418112Y-203027011D01*
X108408168Y-202957853D01*
X108437193Y-202894297D01*
X108443225Y-202887819D01*
X109393463Y-201937579D01*
X109393463Y-201937578D01*
X109509485Y-201777889D01*
X109509489Y-201777883D01*
X109599097Y-201602021D01*
X109599099Y-201602015D01*
X109660090Y-201414300D01*
X109690969Y-201219343D01*
X109690969Y-201021959D01*
X109660090Y-200827003D01*
X109599098Y-200639284D01*
X109599097Y-200639281D01*
X109509489Y-200463419D01*
X109509481Y-200463406D01*
X109483511Y-200427661D01*
X109483510Y-200427660D01*
X108917102Y-200994068D01*
X108900066Y-200930488D01*
X108834240Y-200816472D01*
X108741148Y-200723380D01*
X108627132Y-200657554D01*
X108563549Y-200640517D01*
X109129958Y-200074108D01*
X109094208Y-200048134D01*
X108918338Y-199958522D01*
X108918335Y-199958521D01*
X108730616Y-199897529D01*
X108535660Y-199866651D01*
X108338277Y-199866651D01*
X108143319Y-199897529D01*
X107955604Y-199958520D01*
X107955598Y-199958522D01*
X107779736Y-200048130D01*
X107779730Y-200048134D01*
X107620041Y-200164156D01*
X107620039Y-200164157D01*
X107193875Y-200590320D01*
X107193875Y-200590321D01*
X107727033Y-201123479D01*
X107373480Y-201477033D01*
X106840321Y-200943874D01*
X106840320Y-200943874D01*
X106414156Y-201370039D01*
X106414155Y-201370041D01*
X106298133Y-201529729D01*
X106208522Y-201705599D01*
X106208521Y-201705602D01*
X106147529Y-201893321D01*
X106116651Y-202088277D01*
X106116651Y-202285660D01*
X106147529Y-202480616D01*
X106208521Y-202668335D01*
X106208522Y-202668338D01*
X106298133Y-202844208D01*
X106340568Y-202902614D01*
X106364048Y-202968420D01*
X106348223Y-203036474D01*
X106298117Y-203085169D01*
X106240250Y-203099500D01*
X104990808Y-203099500D01*
X104923769Y-203079815D01*
X104903127Y-203063181D01*
X101491209Y-199651263D01*
X112991500Y-199651263D01*
X112991500Y-199848736D01*
X113022389Y-200043763D01*
X113061508Y-200164156D01*
X113083409Y-200231561D01*
X113173056Y-200407501D01*
X113173058Y-200407504D01*
X113289115Y-200567246D01*
X113428753Y-200706884D01*
X113578234Y-200815486D01*
X113588499Y-200822944D01*
X113764439Y-200912591D01*
X113860719Y-200943874D01*
X113952236Y-200973610D01*
X114147264Y-201004500D01*
X114147269Y-201004500D01*
X115852736Y-201004500D01*
X116047763Y-200973610D01*
X116055239Y-200971181D01*
X116235561Y-200912591D01*
X116411501Y-200822944D01*
X116501192Y-200757779D01*
X116571246Y-200706884D01*
X116571248Y-200706881D01*
X116571252Y-200706879D01*
X116710879Y-200567252D01*
X116710881Y-200567248D01*
X116710884Y-200567246D01*
X116761779Y-200497192D01*
X116826944Y-200407501D01*
X116916591Y-200231561D01*
X116977610Y-200043763D01*
X116991111Y-199958520D01*
X117008500Y-199848736D01*
X117008500Y-199651263D01*
X116977610Y-199456236D01*
X116957270Y-199393637D01*
X116916591Y-199268439D01*
X116826944Y-199092499D01*
X116784203Y-199033670D01*
X116710884Y-198932753D01*
X116571246Y-198793115D01*
X116411504Y-198677058D01*
X116411503Y-198677057D01*
X116411501Y-198677056D01*
X116235561Y-198587409D01*
X116235558Y-198587408D01*
X116047763Y-198526389D01*
X115852736Y-198495500D01*
X115852731Y-198495500D01*
X114147269Y-198495500D01*
X114147264Y-198495500D01*
X113952236Y-198526389D01*
X113764441Y-198587408D01*
X113588495Y-198677058D01*
X113428753Y-198793115D01*
X113289115Y-198932753D01*
X113173058Y-199092495D01*
X113083408Y-199268441D01*
X113022389Y-199456236D01*
X112991500Y-199651263D01*
X101491209Y-199651263D01*
X98654908Y-196814962D01*
X98621423Y-196753639D01*
X98626407Y-196683947D01*
X98668279Y-196628014D01*
X98731781Y-196603753D01*
X98945408Y-196585063D01*
X99173663Y-196523903D01*
X99387830Y-196424035D01*
X99581401Y-196288495D01*
X99748495Y-196121401D01*
X99878425Y-195935842D01*
X99933002Y-195892217D01*
X100002500Y-195885023D01*
X100064855Y-195916546D01*
X100081575Y-195935842D01*
X100211281Y-196121082D01*
X100211505Y-196121401D01*
X100378599Y-196288495D01*
X100475384Y-196356265D01*
X100572165Y-196424032D01*
X100572167Y-196424033D01*
X100572170Y-196424035D01*
X100786337Y-196523903D01*
X101014592Y-196585063D01*
X101191034Y-196600500D01*
X101249999Y-196605659D01*
X101250000Y-196605659D01*
X101250001Y-196605659D01*
X101308966Y-196600500D01*
X101485408Y-196585063D01*
X101713663Y-196523903D01*
X101927830Y-196424035D01*
X102121401Y-196288495D01*
X102288495Y-196121401D01*
X102418425Y-195935842D01*
X102473002Y-195892217D01*
X102542500Y-195885023D01*
X102604855Y-195916546D01*
X102621575Y-195935842D01*
X102751281Y-196121082D01*
X102751505Y-196121401D01*
X102918599Y-196288495D01*
X103015384Y-196356265D01*
X103112165Y-196424032D01*
X103112167Y-196424033D01*
X103112170Y-196424035D01*
X103326337Y-196523903D01*
X103554592Y-196585063D01*
X103731034Y-196600500D01*
X103789999Y-196605659D01*
X103790000Y-196605659D01*
X103790001Y-196605659D01*
X103848966Y-196600500D01*
X104025408Y-196585063D01*
X104253663Y-196523903D01*
X104467830Y-196424035D01*
X104661401Y-196288495D01*
X104828495Y-196121401D01*
X104958425Y-195935842D01*
X105013002Y-195892217D01*
X105082500Y-195885023D01*
X105144855Y-195916546D01*
X105161575Y-195935842D01*
X105291281Y-196121082D01*
X105291505Y-196121401D01*
X105458599Y-196288495D01*
X105555384Y-196356265D01*
X105652165Y-196424032D01*
X105652167Y-196424033D01*
X105652170Y-196424035D01*
X105866337Y-196523903D01*
X106094592Y-196585063D01*
X106271034Y-196600500D01*
X106329999Y-196605659D01*
X106330000Y-196605659D01*
X106330001Y-196605659D01*
X106388966Y-196600500D01*
X106565408Y-196585063D01*
X106793663Y-196523903D01*
X107007830Y-196424035D01*
X107201401Y-196288495D01*
X107368495Y-196121401D01*
X107498425Y-195935842D01*
X107553002Y-195892217D01*
X107622500Y-195885023D01*
X107684855Y-195916546D01*
X107701575Y-195935842D01*
X107831281Y-196121082D01*
X107831505Y-196121401D01*
X107998599Y-196288495D01*
X108095384Y-196356265D01*
X108192165Y-196424032D01*
X108192167Y-196424033D01*
X108192170Y-196424035D01*
X108406337Y-196523903D01*
X108634592Y-196585063D01*
X108811034Y-196600500D01*
X108869999Y-196605659D01*
X108870000Y-196605659D01*
X108870001Y-196605659D01*
X108928966Y-196600500D01*
X109105408Y-196585063D01*
X109333663Y-196523903D01*
X109547830Y-196424035D01*
X109741401Y-196288495D01*
X109908495Y-196121401D01*
X110038730Y-195935405D01*
X110093307Y-195891781D01*
X110162805Y-195884587D01*
X110225160Y-195916110D01*
X110241879Y-195935405D01*
X110371890Y-196121078D01*
X110538917Y-196288105D01*
X110732421Y-196423600D01*
X110946507Y-196523429D01*
X110946516Y-196523433D01*
X111160000Y-196580634D01*
X111160000Y-195683012D01*
X111217007Y-195715925D01*
X111344174Y-195750000D01*
X111475826Y-195750000D01*
X111602993Y-195715925D01*
X111660000Y-195683012D01*
X111660000Y-196580633D01*
X111873483Y-196523433D01*
X111873492Y-196523429D01*
X112087578Y-196423600D01*
X112281082Y-196288105D01*
X112448105Y-196121082D01*
X112578425Y-195934968D01*
X112633002Y-195891344D01*
X112702501Y-195884151D01*
X112764855Y-195915673D01*
X112781575Y-195934968D01*
X112911894Y-196121082D01*
X113078917Y-196288105D01*
X113272421Y-196423600D01*
X113486507Y-196523429D01*
X113486516Y-196523433D01*
X113700000Y-196580634D01*
X113700000Y-195683012D01*
X113757007Y-195715925D01*
X113884174Y-195750000D01*
X114015826Y-195750000D01*
X114142993Y-195715925D01*
X114200000Y-195683012D01*
X114200000Y-196580633D01*
X114413483Y-196523433D01*
X114413492Y-196523429D01*
X114627578Y-196423600D01*
X114821082Y-196288105D01*
X114988105Y-196121082D01*
X115123600Y-195927578D01*
X115223429Y-195713492D01*
X115223432Y-195713486D01*
X115280636Y-195500000D01*
X114383012Y-195500000D01*
X114415925Y-195442993D01*
X114450000Y-195315826D01*
X114450000Y-195184174D01*
X114415925Y-195057007D01*
X114383012Y-195000000D01*
X115280636Y-195000000D01*
X115280635Y-194999999D01*
X115223432Y-194786513D01*
X115223429Y-194786507D01*
X115123600Y-194572422D01*
X115123599Y-194572420D01*
X114988113Y-194378926D01*
X114988108Y-194378920D01*
X114821082Y-194211894D01*
X114627578Y-194076399D01*
X114413492Y-193976570D01*
X114413486Y-193976567D01*
X114200000Y-193919364D01*
X114200000Y-194816988D01*
X114142993Y-194784075D01*
X114015826Y-194750000D01*
X113884174Y-194750000D01*
X113757007Y-194784075D01*
X113700000Y-194816988D01*
X113700000Y-193919364D01*
X113699999Y-193919364D01*
X113486513Y-193976567D01*
X113486507Y-193976570D01*
X113272422Y-194076399D01*
X113272420Y-194076400D01*
X113078926Y-194211886D01*
X113078920Y-194211891D01*
X112911891Y-194378920D01*
X112911890Y-194378922D01*
X112781575Y-194565031D01*
X112726998Y-194608655D01*
X112657499Y-194615848D01*
X112595145Y-194584326D01*
X112578425Y-194565031D01*
X112448109Y-194378922D01*
X112448108Y-194378920D01*
X112281082Y-194211894D01*
X112087578Y-194076399D01*
X111873492Y-193976570D01*
X111873486Y-193976567D01*
X111660000Y-193919364D01*
X111660000Y-194816988D01*
X111602993Y-194784075D01*
X111475826Y-194750000D01*
X111344174Y-194750000D01*
X111217007Y-194784075D01*
X111160000Y-194816988D01*
X111160000Y-193919364D01*
X111159999Y-193919364D01*
X110946513Y-193976567D01*
X110946507Y-193976570D01*
X110732422Y-194076399D01*
X110732420Y-194076400D01*
X110538926Y-194211886D01*
X110538920Y-194211891D01*
X110371891Y-194378920D01*
X110371890Y-194378922D01*
X110241880Y-194564595D01*
X110187303Y-194608219D01*
X110117804Y-194615412D01*
X110055450Y-194583890D01*
X110038730Y-194564594D01*
X109908494Y-194378597D01*
X109741402Y-194211506D01*
X109741395Y-194211501D01*
X109547834Y-194075967D01*
X109547830Y-194075965D01*
X109333663Y-193976097D01*
X109333659Y-193976096D01*
X109333655Y-193976094D01*
X109105413Y-193914938D01*
X109105403Y-193914936D01*
X108870001Y-193894341D01*
X108869999Y-193894341D01*
X108634590Y-193914937D01*
X108634589Y-193914937D01*
X108562008Y-193934384D01*
X108492158Y-193932720D01*
X108442236Y-193902290D01*
X108252127Y-193712181D01*
X108218642Y-193650858D01*
X108223626Y-193581166D01*
X108265498Y-193525233D01*
X108330962Y-193500816D01*
X108339808Y-193500500D01*
X148375500Y-193500500D01*
X148442539Y-193520185D01*
X148488294Y-193572989D01*
X148499500Y-193624500D01*
X148499500Y-236875500D01*
X148479815Y-236942539D01*
X148427011Y-236988294D01*
X148375500Y-236999500D01*
X51624500Y-236999500D01*
X51557461Y-236979815D01*
X51511706Y-236927011D01*
X51500500Y-236875500D01*
X51500500Y-227397263D01*
X67745500Y-227397263D01*
X67745500Y-229102736D01*
X67776389Y-229297763D01*
X67821283Y-229435931D01*
X67837409Y-229485561D01*
X67927056Y-229661501D01*
X67927058Y-229661504D01*
X68043115Y-229821246D01*
X68182753Y-229960884D01*
X68332234Y-230069486D01*
X68342499Y-230076944D01*
X68518439Y-230166591D01*
X68643637Y-230207270D01*
X68706236Y-230227610D01*
X68901264Y-230258500D01*
X68901269Y-230258500D01*
X69098736Y-230258500D01*
X69293763Y-230227610D01*
X69481561Y-230166591D01*
X69657501Y-230076944D01*
X69747192Y-230011779D01*
X69817246Y-229960884D01*
X69817248Y-229960881D01*
X69817252Y-229960879D01*
X69956879Y-229821252D01*
X69956881Y-229821248D01*
X69956884Y-229821246D01*
X70007779Y-229751192D01*
X70072944Y-229661501D01*
X70162591Y-229485561D01*
X70223610Y-229297763D01*
X70254500Y-229102736D01*
X70254500Y-227397263D01*
X92745500Y-227397263D01*
X92745500Y-229102736D01*
X92776389Y-229297763D01*
X92821283Y-229435931D01*
X92837409Y-229485561D01*
X92927056Y-229661501D01*
X92927058Y-229661504D01*
X93043115Y-229821246D01*
X93182753Y-229960884D01*
X93332234Y-230069486D01*
X93342499Y-230076944D01*
X93518439Y-230166591D01*
X93643637Y-230207270D01*
X93706236Y-230227610D01*
X93901264Y-230258500D01*
X93901269Y-230258500D01*
X94098736Y-230258500D01*
X94293763Y-230227610D01*
X94481561Y-230166591D01*
X94657501Y-230076944D01*
X94747192Y-230011779D01*
X94817246Y-229960884D01*
X94817248Y-229960881D01*
X94817252Y-229960879D01*
X94956879Y-229821252D01*
X94956881Y-229821248D01*
X94956884Y-229821246D01*
X95007779Y-229751192D01*
X95072944Y-229661501D01*
X95162591Y-229485561D01*
X95223610Y-229297763D01*
X95254500Y-229102736D01*
X95254500Y-227397263D01*
X95223610Y-227202236D01*
X95203270Y-227139637D01*
X95162591Y-227014439D01*
X95072944Y-226838499D01*
X95024520Y-226771848D01*
X94956884Y-226678753D01*
X94817246Y-226539115D01*
X94657504Y-226423058D01*
X94657503Y-226423057D01*
X94657501Y-226423056D01*
X94481561Y-226333409D01*
X94481558Y-226333408D01*
X94293763Y-226272389D01*
X94098736Y-226241500D01*
X94098731Y-226241500D01*
X93901269Y-226241500D01*
X93901264Y-226241500D01*
X93706236Y-226272389D01*
X93518441Y-226333408D01*
X93342495Y-226423058D01*
X93182753Y-226539115D01*
X93043115Y-226678753D01*
X92927058Y-226838495D01*
X92837408Y-227014441D01*
X92776389Y-227202236D01*
X92745500Y-227397263D01*
X70254500Y-227397263D01*
X70223610Y-227202236D01*
X70203270Y-227139637D01*
X70162591Y-227014439D01*
X70072944Y-226838499D01*
X70024520Y-226771848D01*
X69956884Y-226678753D01*
X69817246Y-226539115D01*
X69657504Y-226423058D01*
X69657503Y-226423057D01*
X69657501Y-226423056D01*
X69481561Y-226333409D01*
X69481558Y-226333408D01*
X69293763Y-226272389D01*
X69098736Y-226241500D01*
X69098731Y-226241500D01*
X68901269Y-226241500D01*
X68901264Y-226241500D01*
X68706236Y-226272389D01*
X68518441Y-226333408D01*
X68342495Y-226423058D01*
X68182753Y-226539115D01*
X68043115Y-226678753D01*
X67927058Y-226838495D01*
X67837408Y-227014441D01*
X67776389Y-227202236D01*
X67745500Y-227397263D01*
X51500500Y-227397263D01*
X51500500Y-224588277D01*
X56116651Y-224588277D01*
X56116651Y-224785660D01*
X56147529Y-224980616D01*
X56208521Y-225168335D01*
X56208522Y-225168338D01*
X56298134Y-225344210D01*
X56324106Y-225379958D01*
X56324107Y-225379958D01*
X56890517Y-224813548D01*
X56907555Y-224877132D01*
X56973381Y-224991147D01*
X57066473Y-225084239D01*
X57180488Y-225150065D01*
X57244069Y-225167101D01*
X56677660Y-225733510D01*
X56677660Y-225733511D01*
X56713415Y-225759488D01*
X56889281Y-225849097D01*
X56889284Y-225849098D01*
X57077003Y-225910090D01*
X57271960Y-225940969D01*
X57469342Y-225940969D01*
X57664298Y-225910090D01*
X57852017Y-225849098D01*
X57852020Y-225849097D01*
X58027890Y-225759486D01*
X58187578Y-225643464D01*
X58187579Y-225643464D01*
X58613745Y-225217298D01*
X58613745Y-225217297D01*
X58080586Y-224684139D01*
X58434139Y-224330586D01*
X58967297Y-224863745D01*
X59242765Y-224588277D01*
X81116651Y-224588277D01*
X81116651Y-224785660D01*
X81147529Y-224980616D01*
X81208521Y-225168335D01*
X81208522Y-225168338D01*
X81298134Y-225344210D01*
X81324106Y-225379958D01*
X81324107Y-225379958D01*
X81890517Y-224813548D01*
X81907555Y-224877132D01*
X81973381Y-224991147D01*
X82066473Y-225084239D01*
X82180488Y-225150065D01*
X82244069Y-225167101D01*
X81677660Y-225733510D01*
X81677660Y-225733511D01*
X81713415Y-225759488D01*
X81889281Y-225849097D01*
X81889284Y-225849098D01*
X82077003Y-225910090D01*
X82271960Y-225940969D01*
X82469342Y-225940969D01*
X82664298Y-225910090D01*
X82852017Y-225849098D01*
X82852020Y-225849097D01*
X83027890Y-225759486D01*
X83187578Y-225643464D01*
X83187579Y-225643464D01*
X83613745Y-225217298D01*
X83613745Y-225217297D01*
X83080586Y-224684139D01*
X83434139Y-224330586D01*
X83967298Y-224863745D01*
X84393463Y-224437579D01*
X84393463Y-224437578D01*
X84509485Y-224277889D01*
X84509489Y-224277883D01*
X84599097Y-224102021D01*
X84599099Y-224102015D01*
X84660090Y-223914300D01*
X84690969Y-223719343D01*
X84690969Y-223521959D01*
X84660090Y-223327003D01*
X84599098Y-223139284D01*
X84599097Y-223139281D01*
X84509489Y-222963419D01*
X84509481Y-222963406D01*
X84483511Y-222927661D01*
X84483510Y-222927660D01*
X83917102Y-223494068D01*
X83900066Y-223430488D01*
X83834240Y-223316472D01*
X83741148Y-223223380D01*
X83627132Y-223157554D01*
X83563549Y-223140517D01*
X84129958Y-222574108D01*
X84094208Y-222548134D01*
X83918338Y-222458522D01*
X83918335Y-222458521D01*
X83730616Y-222397529D01*
X83535660Y-222366651D01*
X83338277Y-222366651D01*
X83143319Y-222397529D01*
X82955604Y-222458520D01*
X82955598Y-222458522D01*
X82779736Y-222548130D01*
X82779730Y-222548134D01*
X82620041Y-222664156D01*
X82620039Y-222664157D01*
X82193875Y-223090320D01*
X82193875Y-223090321D01*
X82727033Y-223623479D01*
X82373480Y-223977033D01*
X81840321Y-223443874D01*
X81840320Y-223443874D01*
X81414156Y-223870039D01*
X81414155Y-223870041D01*
X81298133Y-224029729D01*
X81208522Y-224205599D01*
X81208521Y-224205602D01*
X81147529Y-224393321D01*
X81116651Y-224588277D01*
X59242765Y-224588277D01*
X59393463Y-224437579D01*
X59393463Y-224437578D01*
X59509485Y-224277889D01*
X59509489Y-224277883D01*
X59599097Y-224102021D01*
X59599099Y-224102015D01*
X59660090Y-223914300D01*
X59690969Y-223719343D01*
X59690969Y-223521959D01*
X59660090Y-223327003D01*
X59599098Y-223139284D01*
X59599097Y-223139281D01*
X59509489Y-222963419D01*
X59509481Y-222963406D01*
X59483511Y-222927661D01*
X59483510Y-222927660D01*
X58917102Y-223494068D01*
X58900066Y-223430488D01*
X58834240Y-223316472D01*
X58741148Y-223223380D01*
X58627132Y-223157554D01*
X58563549Y-223140517D01*
X59129958Y-222574108D01*
X59094208Y-222548134D01*
X58918338Y-222458522D01*
X58918335Y-222458521D01*
X58730616Y-222397529D01*
X58535660Y-222366651D01*
X58338277Y-222366651D01*
X58143319Y-222397529D01*
X57955604Y-222458520D01*
X57955598Y-222458522D01*
X57779736Y-222548130D01*
X57779730Y-222548134D01*
X57620041Y-222664156D01*
X57620039Y-222664157D01*
X57193875Y-223090320D01*
X57193875Y-223090321D01*
X57727033Y-223623479D01*
X57373480Y-223977032D01*
X56840321Y-223443874D01*
X56840320Y-223443874D01*
X56414156Y-223870039D01*
X56414155Y-223870041D01*
X56298133Y-224029729D01*
X56208522Y-224205599D01*
X56208521Y-224205602D01*
X56147529Y-224393321D01*
X56116651Y-224588277D01*
X51500500Y-224588277D01*
X51500500Y-202088277D01*
X56116651Y-202088277D01*
X56116651Y-202285660D01*
X56147529Y-202480616D01*
X56208521Y-202668335D01*
X56208522Y-202668338D01*
X56298134Y-202844210D01*
X56324106Y-202879958D01*
X56324107Y-202879958D01*
X56890517Y-202313548D01*
X56907555Y-202377132D01*
X56973381Y-202491147D01*
X57066473Y-202584239D01*
X57180488Y-202650065D01*
X57244069Y-202667101D01*
X56677660Y-203233510D01*
X56677660Y-203233511D01*
X56713415Y-203259488D01*
X56889281Y-203349097D01*
X56889284Y-203349098D01*
X57077003Y-203410090D01*
X57271960Y-203440969D01*
X57469342Y-203440969D01*
X57664298Y-203410090D01*
X57852017Y-203349098D01*
X57852020Y-203349097D01*
X58027890Y-203259486D01*
X58187578Y-203143464D01*
X58187579Y-203143464D01*
X58613745Y-202717298D01*
X58613745Y-202717297D01*
X58080586Y-202184139D01*
X58434139Y-201830586D01*
X58967297Y-202363745D01*
X59393463Y-201937579D01*
X59393463Y-201937578D01*
X59509485Y-201777889D01*
X59509489Y-201777883D01*
X59599097Y-201602021D01*
X59599099Y-201602015D01*
X59660090Y-201414300D01*
X59690969Y-201219343D01*
X59690969Y-201021959D01*
X59660090Y-200827003D01*
X59599098Y-200639284D01*
X59599097Y-200639281D01*
X59509489Y-200463419D01*
X59509481Y-200463406D01*
X59483511Y-200427661D01*
X59483510Y-200427660D01*
X58917102Y-200994068D01*
X58900066Y-200930488D01*
X58834240Y-200816472D01*
X58741148Y-200723380D01*
X58627132Y-200657554D01*
X58563549Y-200640517D01*
X59129958Y-200074108D01*
X59094208Y-200048134D01*
X58918338Y-199958522D01*
X58918335Y-199958521D01*
X58730616Y-199897529D01*
X58535660Y-199866651D01*
X58338277Y-199866651D01*
X58143319Y-199897529D01*
X57955604Y-199958520D01*
X57955598Y-199958522D01*
X57779736Y-200048130D01*
X57779730Y-200048134D01*
X57620041Y-200164156D01*
X57620039Y-200164157D01*
X57193875Y-200590320D01*
X57193875Y-200590321D01*
X57727033Y-201123479D01*
X57373480Y-201477032D01*
X56840321Y-200943874D01*
X56840320Y-200943874D01*
X56414156Y-201370039D01*
X56414155Y-201370041D01*
X56298133Y-201529729D01*
X56208522Y-201705599D01*
X56208521Y-201705602D01*
X56147529Y-201893321D01*
X56116651Y-202088277D01*
X51500500Y-202088277D01*
X51500500Y-179588277D01*
X56116651Y-179588277D01*
X56116651Y-179785660D01*
X56147529Y-179980616D01*
X56208521Y-180168335D01*
X56208522Y-180168338D01*
X56298134Y-180344210D01*
X56324106Y-180379958D01*
X56324107Y-180379958D01*
X56890517Y-179813548D01*
X56907555Y-179877132D01*
X56973381Y-179991147D01*
X57066473Y-180084239D01*
X57180488Y-180150065D01*
X57244069Y-180167101D01*
X56677660Y-180733510D01*
X56677660Y-180733511D01*
X56713415Y-180759488D01*
X56889281Y-180849097D01*
X56889284Y-180849098D01*
X57077003Y-180910090D01*
X57271960Y-180940969D01*
X57469342Y-180940969D01*
X57664298Y-180910090D01*
X57852017Y-180849098D01*
X57852020Y-180849097D01*
X58027890Y-180759486D01*
X58187578Y-180643464D01*
X58187579Y-180643464D01*
X58613745Y-180217298D01*
X58613745Y-180217297D01*
X58080586Y-179684139D01*
X58434139Y-179330586D01*
X58967297Y-179863745D01*
X59393463Y-179437579D01*
X59393463Y-179437578D01*
X59509485Y-179277889D01*
X59509489Y-179277883D01*
X59599097Y-179102021D01*
X59599099Y-179102015D01*
X59660090Y-178914300D01*
X59690969Y-178719343D01*
X59690969Y-178521959D01*
X59660090Y-178327003D01*
X59599098Y-178139284D01*
X59599097Y-178139281D01*
X59509489Y-177963419D01*
X59509481Y-177963406D01*
X59483511Y-177927661D01*
X59483510Y-177927660D01*
X58917102Y-178494068D01*
X58900066Y-178430488D01*
X58834240Y-178316472D01*
X58741148Y-178223380D01*
X58627132Y-178157554D01*
X58563549Y-178140517D01*
X59129958Y-177574108D01*
X59094208Y-177548134D01*
X58918338Y-177458522D01*
X58918335Y-177458521D01*
X58730616Y-177397529D01*
X58535660Y-177366651D01*
X58338277Y-177366651D01*
X58143319Y-177397529D01*
X57955604Y-177458520D01*
X57955598Y-177458522D01*
X57779736Y-177548130D01*
X57779730Y-177548134D01*
X57620041Y-177664156D01*
X57620039Y-177664157D01*
X57193875Y-178090320D01*
X57193875Y-178090321D01*
X57727033Y-178623479D01*
X57373480Y-178977032D01*
X56840321Y-178443874D01*
X56840320Y-178443874D01*
X56414156Y-178870039D01*
X56414155Y-178870041D01*
X56298133Y-179029729D01*
X56208522Y-179205599D01*
X56208521Y-179205602D01*
X56147529Y-179393321D01*
X56116651Y-179588277D01*
X51500500Y-179588277D01*
X51500500Y-176124500D01*
X51520185Y-176057461D01*
X51572989Y-176011706D01*
X51624500Y-176000500D01*
X63449874Y-176000500D01*
X63516913Y-176020185D01*
G37*
G04 #@! TD.AperFunction*
G04 #@! TA.AperFunction,Conductor*
G36*
X113484075Y-195057007D02*
G01*
X113450000Y-195184174D01*
X113450000Y-195315826D01*
X113484075Y-195442993D01*
X113516988Y-195500000D01*
X111843012Y-195500000D01*
X111875925Y-195442993D01*
X111910000Y-195315826D01*
X111910000Y-195184174D01*
X111875925Y-195057007D01*
X111843012Y-195000000D01*
X113516988Y-195000000D01*
X113484075Y-195057007D01*
G37*
G04 #@! TD.AperFunction*
M02*
