%TF.GenerationSoftware,KiCad,Pcbnew,8.0.5*%
%TF.CreationDate,2024-10-01T23:13:12+02:00*%
%TF.ProjectId,DMH_VCO_40106_PCB,444d485f-5643-44f5-9f34-303130365f50,1*%
%TF.SameCoordinates,Original*%
%TF.FileFunction,Drillmap*%
%TF.FilePolarity,Positive*%
%FSLAX45Y45*%
G04 Gerber Fmt 4.5, Leading zero omitted, Abs format (unit mm)*
G04 Created by KiCad (PCBNEW 8.0.5) date 2024-10-01 23:13:12*
%MOMM*%
%LPD*%
G01*
G04 APERTURE LIST*
%ADD10C,0.050000*%
%ADD11C,0.200000*%
G04 APERTURE END LIST*
D10*
X14900000Y-19750000D02*
X14900000Y-6250000D01*
X14900000Y-6250000D02*
X5100000Y-6250000D01*
X7200000Y-17450000D02*
X7200000Y-19750000D01*
X5100000Y-6250000D02*
X5100000Y-17450000D01*
X5100000Y-17450000D02*
X7200000Y-17450000D01*
X7200000Y-19750000D02*
X14900000Y-19750000D01*
D11*
X5358277Y-20063984D02*
X5358277Y-19863984D01*
X5358277Y-19863984D02*
X5405896Y-19863984D01*
X5405896Y-19863984D02*
X5434467Y-19873508D01*
X5434467Y-19873508D02*
X5453515Y-19892555D01*
X5453515Y-19892555D02*
X5463039Y-19911603D01*
X5463039Y-19911603D02*
X5472563Y-19949698D01*
X5472563Y-19949698D02*
X5472563Y-19978270D01*
X5472563Y-19978270D02*
X5463039Y-20016365D01*
X5463039Y-20016365D02*
X5453515Y-20035412D01*
X5453515Y-20035412D02*
X5434467Y-20054460D01*
X5434467Y-20054460D02*
X5405896Y-20063984D01*
X5405896Y-20063984D02*
X5358277Y-20063984D01*
X5558277Y-20063984D02*
X5558277Y-19930650D01*
X5558277Y-19968746D02*
X5567801Y-19949698D01*
X5567801Y-19949698D02*
X5577324Y-19940174D01*
X5577324Y-19940174D02*
X5596372Y-19930650D01*
X5596372Y-19930650D02*
X5615420Y-19930650D01*
X5682086Y-20063984D02*
X5682086Y-19930650D01*
X5682086Y-19863984D02*
X5672562Y-19873508D01*
X5672562Y-19873508D02*
X5682086Y-19883031D01*
X5682086Y-19883031D02*
X5691610Y-19873508D01*
X5691610Y-19873508D02*
X5682086Y-19863984D01*
X5682086Y-19863984D02*
X5682086Y-19883031D01*
X5805896Y-20063984D02*
X5786848Y-20054460D01*
X5786848Y-20054460D02*
X5777324Y-20035412D01*
X5777324Y-20035412D02*
X5777324Y-19863984D01*
X5910658Y-20063984D02*
X5891610Y-20054460D01*
X5891610Y-20054460D02*
X5882086Y-20035412D01*
X5882086Y-20035412D02*
X5882086Y-19863984D01*
X6139229Y-20063984D02*
X6139229Y-19863984D01*
X6139229Y-19863984D02*
X6205896Y-20006841D01*
X6205896Y-20006841D02*
X6272562Y-19863984D01*
X6272562Y-19863984D02*
X6272562Y-20063984D01*
X6453515Y-20063984D02*
X6453515Y-19959222D01*
X6453515Y-19959222D02*
X6443991Y-19940174D01*
X6443991Y-19940174D02*
X6424943Y-19930650D01*
X6424943Y-19930650D02*
X6386848Y-19930650D01*
X6386848Y-19930650D02*
X6367801Y-19940174D01*
X6453515Y-20054460D02*
X6434467Y-20063984D01*
X6434467Y-20063984D02*
X6386848Y-20063984D01*
X6386848Y-20063984D02*
X6367801Y-20054460D01*
X6367801Y-20054460D02*
X6358277Y-20035412D01*
X6358277Y-20035412D02*
X6358277Y-20016365D01*
X6358277Y-20016365D02*
X6367801Y-19997317D01*
X6367801Y-19997317D02*
X6386848Y-19987793D01*
X6386848Y-19987793D02*
X6434467Y-19987793D01*
X6434467Y-19987793D02*
X6453515Y-19978270D01*
X6548753Y-19930650D02*
X6548753Y-20130650D01*
X6548753Y-19940174D02*
X6567801Y-19930650D01*
X6567801Y-19930650D02*
X6605896Y-19930650D01*
X6605896Y-19930650D02*
X6624943Y-19940174D01*
X6624943Y-19940174D02*
X6634467Y-19949698D01*
X6634467Y-19949698D02*
X6643991Y-19968746D01*
X6643991Y-19968746D02*
X6643991Y-20025889D01*
X6643991Y-20025889D02*
X6634467Y-20044936D01*
X6634467Y-20044936D02*
X6624943Y-20054460D01*
X6624943Y-20054460D02*
X6605896Y-20063984D01*
X6605896Y-20063984D02*
X6567801Y-20063984D01*
X6567801Y-20063984D02*
X6548753Y-20054460D01*
X6729705Y-20044936D02*
X6739229Y-20054460D01*
X6739229Y-20054460D02*
X6729705Y-20063984D01*
X6729705Y-20063984D02*
X6720182Y-20054460D01*
X6720182Y-20054460D02*
X6729705Y-20044936D01*
X6729705Y-20044936D02*
X6729705Y-20063984D01*
X6729705Y-19940174D02*
X6739229Y-19949698D01*
X6739229Y-19949698D02*
X6729705Y-19959222D01*
X6729705Y-19959222D02*
X6720182Y-19949698D01*
X6720182Y-19949698D02*
X6729705Y-19940174D01*
X6729705Y-19940174D02*
X6729705Y-19959222D01*
M02*
