M48
; DRILL file {KiCad 8.0.3} date 2024-09-16T17:54:27+0200
; FORMAT={-:-/ absolute / metric / decimal}
; #@! TF.CreationDate,2024-09-16T17:54:27+02:00
; #@! TF.GenerationSoftware,Kicad,Pcbnew,8.0.3
; #@! TF.FileFunction,Plated,1,2,PTH
FMAT,2
METRIC
; #@! TA.AperFunction,Plated,PTH,ComponentDrill
T1C0.700
; #@! TA.AperFunction,Plated,PTH,ComponentDrill
T2C0.750
; #@! TA.AperFunction,Plated,PTH,ComponentDrill
T3C0.800
; #@! TA.AperFunction,Plated,PTH,ComponentDrill
T4C0.900
; #@! TA.AperFunction,Plated,PTH,ComponentDrill
T5C1.000
; #@! TA.AperFunction,Plated,PTH,ComponentDrill
T6C1.100
; #@! TA.AperFunction,Plated,PTH,ComponentDrill
T7C1.500
%
G90
G05
T1
X67.46Y-139.5
X67.46Y-143.5
X67.46Y-147.5
X71.21Y-132.0
X71.25Y-135.75
X72.54Y-139.5
X72.54Y-143.5
X72.54Y-147.5
X75.32Y-139.5
X76.29Y-132.0
X76.33Y-135.75
X80.4Y-139.5
T2
X53.23Y-146.14
X54.5Y-146.14
X55.77Y-146.14
T3
X52.5Y-130.44
X52.5Y-138.06
X53.0Y-162.0
X53.795Y-78.75
X54.0Y-86.75
X54.0Y-91.75
X55.0Y-140.75
X55.0Y-150.0
X55.0Y-157.62
X55.0Y-164.69
X55.0Y-172.31
X55.18Y-111.375
X55.18Y-113.915
X55.18Y-116.455
X55.18Y-118.995
X55.18Y-121.535
X55.18Y-124.075
X55.18Y-126.615
X55.5Y-162.0
X55.795Y-78.75
X56.5Y-108.5
X57.5Y-140.75
X58.19Y-158.25
X58.19Y-162.75
X58.19Y-167.25
X58.19Y-171.75
X59.795Y-78.75
X60.0Y-86.75
X60.0Y-91.75
X60.0Y-94.19
X60.0Y-101.81
X61.5Y-108.5
X61.795Y-78.75
X62.8Y-111.375
X62.8Y-113.915
X62.8Y-116.455
X62.8Y-118.995
X62.8Y-121.535
X62.8Y-124.075
X62.8Y-126.615
X63.14Y-130.67
X63.14Y-133.21
X63.14Y-135.75
X65.81Y-158.25
X65.81Y-162.75
X65.81Y-167.25
X65.81Y-171.75
X66.5Y-88.94
X66.5Y-96.56
X66.5Y-99.44
X66.5Y-107.06
X66.75Y-116.5
X66.75Y-121.5
X67.39Y-130.71
X67.39Y-133.25
X67.39Y-135.79
X67.44Y-152.25
X69.75Y-164.19
X69.75Y-171.81
X70.68Y-111.375
X70.68Y-113.915
X70.68Y-116.455
X70.68Y-118.995
X70.68Y-121.535
X70.68Y-124.075
X70.68Y-126.615
X71.94Y-158.25
X72.0Y-108.5
X72.0Y-129.5
X72.5Y-92.69
X72.5Y-100.31
X74.5Y-163.44
X74.5Y-171.06
X74.5Y-173.69
X74.5Y-181.31
X74.5Y-183.94
X74.5Y-191.56
X75.06Y-152.25
X77.0Y-108.5
X77.0Y-129.5
X77.19Y-83.75
X78.3Y-111.375
X78.3Y-113.915
X78.3Y-116.455
X78.3Y-118.995
X78.3Y-121.535
X78.3Y-124.075
X78.3Y-126.615
X78.5Y-76.25
X78.69Y-142.75
X78.69Y-147.5
X78.69Y-152.25
X79.25Y-163.44
X79.25Y-171.06
X79.25Y-173.69
X79.25Y-181.31
X79.25Y-183.94
X79.25Y-191.56
X79.56Y-158.25
X79.69Y-105.25
X81.5Y-129.44
X81.5Y-137.06
X83.5Y-76.25
X83.75Y-158.96
X83.75Y-161.5
X83.75Y-164.04
X83.75Y-166.58
X83.75Y-169.12
X83.75Y-171.66
X83.75Y-174.2
X84.81Y-83.75
X85.0Y-156.0
X85.0Y-177.25
X86.31Y-142.75
X86.31Y-147.5
X86.31Y-152.25
X87.31Y-105.25
X88.5Y-131.19
X88.5Y-138.81
X89.045Y-76.0
X90.0Y-156.0
X90.0Y-177.25
X90.44Y-105.25
X91.0Y-90.19
X91.0Y-97.81
X91.045Y-76.0
X91.37Y-158.96
X91.37Y-161.5
X91.37Y-164.04
X91.37Y-166.58
X91.37Y-169.12
X91.37Y-171.66
X91.37Y-174.2
X91.44Y-139.0
X95.75Y-183.88
X95.75Y-191.5
X96.0Y-90.19
X96.0Y-97.81
X96.0Y-158.25
X96.0Y-160.75
X96.0Y-163.5
X96.0Y-168.5
X96.0Y-171.19
X96.0Y-178.81
X97.0Y-109.44
X97.0Y-117.06
X97.0Y-119.38
X97.0Y-127.0
X98.06Y-105.25
X99.06Y-139.0
X100.42Y-152.75
X100.46Y-156.89
X100.75Y-160.94
X100.75Y-168.56
X100.75Y-171.19
X100.75Y-178.81
X101.19Y-143.25
X101.19Y-148.0
X101.68Y-81.01
X101.68Y-83.55
X101.68Y-86.09
X101.68Y-88.63
X101.68Y-91.17
X101.68Y-93.71
X101.68Y-96.25
X101.68Y-98.79
X101.68Y-101.33
X101.68Y-103.87
X101.69Y-109.5
X102.96Y-152.75
X103.0Y-78.0
X103.0Y-113.88
X103.0Y-121.5
X103.0Y-156.89
X104.25Y-183.88
X104.25Y-191.5
X105.5Y-152.75
X105.5Y-160.94
X105.5Y-168.56
X105.5Y-171.19
X105.5Y-178.81
X105.54Y-156.89
X108.0Y-78.0
X108.0Y-113.94
X108.0Y-121.56
X108.68Y-159.125
X108.68Y-161.665
X108.68Y-164.205
X108.68Y-166.745
X108.68Y-169.285
X108.68Y-171.825
X108.68Y-174.365
X108.81Y-143.25
X108.81Y-148.0
X109.3Y-81.01
X109.3Y-83.55
X109.3Y-86.09
X109.3Y-88.63
X109.3Y-91.17
X109.3Y-93.71
X109.3Y-96.25
X109.3Y-98.79
X109.3Y-101.33
X109.3Y-103.87
X109.31Y-109.5
X110.0Y-156.25
X110.0Y-177.25
X113.25Y-73.94
X113.25Y-81.56
X113.75Y-107.63
X113.75Y-115.25
X114.5Y-145.21
X114.5Y-147.75
X114.5Y-150.29
X115.0Y-156.25
X115.0Y-177.25
X116.3Y-159.125
X116.3Y-161.665
X116.3Y-164.205
X116.3Y-166.745
X116.3Y-169.285
X116.3Y-171.825
X116.3Y-174.365
X116.35Y-120.7
X116.35Y-123.24
X116.35Y-125.78
X116.75Y-64.0
X120.75Y-168.13
X120.75Y-175.75
X120.75Y-183.94
X120.75Y-191.56
X121.75Y-64.0
X124.25Y-168.13
X124.25Y-175.75
X124.35Y-120.7
X124.35Y-123.24
X124.35Y-125.78
X124.42Y-90.38
X124.42Y-105.62
X124.5Y-65.19
X124.5Y-72.81
X124.5Y-76.44
X124.5Y-84.06
X124.5Y-131.19
X124.5Y-138.81
X126.88Y-116.25
X126.96Y-90.38
X126.96Y-105.62
X127.75Y-65.19
X127.75Y-72.81
X127.75Y-76.44
X127.75Y-84.06
X127.94Y-165.75
X128.0Y-170.5
X128.0Y-175.25
X128.06Y-161.0
X128.95Y-135.0
X129.25Y-183.94
X129.25Y-191.56
X129.5Y-90.38
X129.5Y-105.62
X131.49Y-135.0
X131.5Y-65.19
X131.5Y-72.81
X131.5Y-76.44
X131.5Y-84.06
X132.04Y-90.38
X132.04Y-105.62
X132.35Y-120.7
X132.35Y-123.24
X132.35Y-125.78
X134.03Y-135.0
X134.5Y-116.25
X134.58Y-90.38
X134.58Y-105.62
X134.75Y-65.19
X134.75Y-72.81
X134.75Y-76.44
X134.75Y-84.06
X135.56Y-165.75
X135.62Y-170.5
X135.62Y-175.25
X135.68Y-161.0
X138.19Y-96.5
X138.19Y-99.75
X138.19Y-103.0
X138.19Y-106.25
X139.38Y-161.0
X139.44Y-165.75
X139.44Y-175.25
X139.5Y-170.5
X140.35Y-120.7
X140.35Y-123.24
X140.35Y-125.78
X141.21Y-135.0
X141.21Y-143.75
X141.96Y-151.0
X141.96Y-155.14
X143.75Y-135.0
X143.75Y-143.75
X144.5Y-151.0
X144.5Y-155.14
X145.75Y-70.44
X145.75Y-78.06
X145.75Y-183.94
X145.75Y-191.56
X145.8Y-85.18
X145.8Y-92.8
X145.81Y-96.5
X145.81Y-99.75
X145.81Y-103.0
X145.81Y-106.25
X146.29Y-135.0
X146.29Y-143.75
X147.0Y-111.38
X147.0Y-119.0
X147.0Y-123.38
X147.0Y-131.0
X147.0Y-161.0
X147.04Y-151.0
X147.04Y-155.14
X147.06Y-165.75
X147.06Y-175.25
X147.12Y-170.5
T4
X118.225Y-111.62
X120.765Y-111.62
X123.225Y-111.62
X125.765Y-111.62
X128.225Y-111.62
X130.765Y-111.62
X133.225Y-111.62
X135.765Y-111.62
X138.225Y-91.5
X138.225Y-111.62
X140.765Y-91.5
X140.765Y-111.62
T5
X56.75Y-135.5
X67.72Y-66.5
X67.72Y-69.04
X70.26Y-66.5
X70.26Y-69.04
X72.8Y-66.5
X72.8Y-69.04
X75.34Y-66.5
X75.34Y-69.04
X77.88Y-66.5
X77.88Y-69.04
X78.45Y-99.5
X80.42Y-66.5
X80.42Y-69.04
X80.95Y-99.5
X82.96Y-66.5
X82.96Y-69.04
X83.45Y-99.5
X85.0Y-191.25
X85.5Y-66.5
X85.5Y-69.04
X86.01Y-195.25
X87.5Y-191.25
X88.55Y-195.25
X90.0Y-191.25
X91.0Y-153.475
X91.09Y-195.25
X93.5Y-153.475
X93.63Y-195.25
X96.0Y-153.475
X96.17Y-195.25
X98.71Y-195.25
X101.25Y-195.25
X103.67Y-66.46
X103.67Y-69.0
X103.79Y-195.25
X106.21Y-66.46
X106.21Y-69.0
X106.33Y-195.25
X108.75Y-66.46
X108.75Y-69.0
X108.87Y-195.25
X110.0Y-191.25
X111.41Y-195.25
X112.5Y-191.25
X113.95Y-195.25
X115.0Y-191.25
X129.0Y-153.475
X131.5Y-153.475
X134.0Y-153.475
X135.0Y-191.25
X137.5Y-191.25
X140.0Y-191.25
T6
X54.0Y-64.17
X54.0Y-74.33
X59.0Y-64.17
X59.0Y-74.33
X95.5Y-64.42
X95.5Y-74.58
T7
X62.5Y-141.3
X62.5Y-146.0
X62.5Y-150.7
X119.5Y-67.3
X119.5Y-72.0
X119.5Y-76.7
X139.5Y-67.3
X139.5Y-72.0
X139.5Y-76.7
T6
X76.15Y-92.35G85X76.15Y-91.65
G05
X82.7Y-184.1G85X82.7Y-183.4
G05
X85.75Y-92.35G85X85.75Y-91.65
G05
X88.7Y-146.325G85X88.7Y-145.625
G05
X92.3Y-184.1G85X92.3Y-183.4
G05
X98.3Y-146.325G85X98.3Y-145.625
G05
X107.7Y-184.1G85X107.7Y-183.4
G05
X117.3Y-184.1G85X117.3Y-183.4
G05
X126.7Y-146.325G85X126.7Y-145.625
G05
X132.7Y-184.1G85X132.7Y-183.4
G05
X136.3Y-146.325G85X136.3Y-145.625
G05
X142.3Y-184.1G85X142.3Y-183.4
G05
M30
