%TF.GenerationSoftware,KiCad,Pcbnew,8.0.5*%
%TF.CreationDate,2024-10-01T23:13:12+02:00*%
%TF.ProjectId,DMH_VCO_40106_PCB,444d485f-5643-44f5-9f34-303130365f50,1*%
%TF.SameCoordinates,Original*%
%TF.FileFunction,Drillmap*%
%TF.FilePolarity,Positive*%
%FSLAX45Y45*%
G04 Gerber Fmt 4.5, Leading zero omitted, Abs format (unit mm)*
G04 Created by KiCad (PCBNEW 8.0.5) date 2024-10-01 23:13:12*
%MOMM*%
%LPD*%
G01*
G04 APERTURE LIST*
%ADD10C,0.050000*%
%ADD11C,0.200000*%
%ADD12C,0.100000*%
%ADD13C,0.110000*%
%ADD14C,0.150000*%
G04 APERTURE END LIST*
D10*
X14900000Y-19750000D02*
X14900000Y-6250000D01*
X14900000Y-6250000D02*
X5100000Y-6250000D01*
X7200000Y-17450000D02*
X7200000Y-19750000D01*
X5100000Y-6250000D02*
X5100000Y-17450000D01*
X5100000Y-17450000D02*
X7200000Y-17450000D01*
X7200000Y-19750000D02*
X14900000Y-19750000D01*
D11*
D12*
X6711000Y-13915000D02*
X6781000Y-13985000D01*
X6781000Y-13915000D02*
X6711000Y-13985000D01*
X6711000Y-14315000D02*
X6781000Y-14385000D01*
X6781000Y-14315000D02*
X6711000Y-14385000D01*
X6711000Y-14715000D02*
X6781000Y-14785000D01*
X6781000Y-14715000D02*
X6711000Y-14785000D01*
X7086000Y-13165000D02*
X7156000Y-13235000D01*
X7156000Y-13165000D02*
X7086000Y-13235000D01*
X7090000Y-13540000D02*
X7160000Y-13610000D01*
X7160000Y-13540000D02*
X7090000Y-13610000D01*
X7219000Y-13915000D02*
X7289000Y-13985000D01*
X7289000Y-13915000D02*
X7219000Y-13985000D01*
X7219000Y-14315000D02*
X7289000Y-14385000D01*
X7289000Y-14315000D02*
X7219000Y-14385000D01*
X7219000Y-14715000D02*
X7289000Y-14785000D01*
X7289000Y-14715000D02*
X7219000Y-14785000D01*
X7497000Y-13915000D02*
X7567000Y-13985000D01*
X7567000Y-13915000D02*
X7497000Y-13985000D01*
X7594000Y-13165000D02*
X7664000Y-13235000D01*
X7664000Y-13165000D02*
X7594000Y-13235000D01*
X7598000Y-13540000D02*
X7668000Y-13610000D01*
X7668000Y-13540000D02*
X7598000Y-13610000D01*
X8005000Y-13915000D02*
X8075000Y-13985000D01*
X8075000Y-13915000D02*
X8005000Y-13985000D01*
X5360500Y-14614000D02*
G75*
G02*
X5285500Y-14614000I-37500J0D01*
G01*
X5285500Y-14614000D02*
G75*
G02*
X5360500Y-14614000I37500J0D01*
G01*
X5487500Y-14614000D02*
G75*
G02*
X5412500Y-14614000I-37500J0D01*
G01*
X5412500Y-14614000D02*
G75*
G02*
X5487500Y-14614000I37500J0D01*
G01*
X5614500Y-14614000D02*
G75*
G02*
X5539500Y-14614000I-37500J0D01*
G01*
X5539500Y-14614000D02*
G75*
G02*
X5614500Y-14614000I37500J0D01*
G01*
X5250000Y-13004000D02*
X5250000Y-13084000D01*
X5210000Y-13044000D02*
X5290000Y-13044000D01*
X5250000Y-13766000D02*
X5250000Y-13846000D01*
X5210000Y-13806000D02*
X5290000Y-13806000D01*
X5300000Y-16160000D02*
X5300000Y-16240000D01*
X5260000Y-16200000D02*
X5340000Y-16200000D01*
X5379489Y-7835000D02*
X5379489Y-7915000D01*
X5339489Y-7875000D02*
X5419489Y-7875000D01*
X5400000Y-8635000D02*
X5400000Y-8715000D01*
X5360000Y-8675000D02*
X5440000Y-8675000D01*
X5400000Y-9135000D02*
X5400000Y-9215000D01*
X5360000Y-9175000D02*
X5440000Y-9175000D01*
X5500000Y-14035000D02*
X5500000Y-14115000D01*
X5460000Y-14075000D02*
X5540000Y-14075000D01*
X5500000Y-14960000D02*
X5500000Y-15040000D01*
X5460000Y-15000000D02*
X5540000Y-15000000D01*
X5500000Y-15722000D02*
X5500000Y-15802000D01*
X5460000Y-15762000D02*
X5540000Y-15762000D01*
X5500000Y-16429000D02*
X5500000Y-16509000D01*
X5460000Y-16469000D02*
X5540000Y-16469000D01*
X5500000Y-17191000D02*
X5500000Y-17271000D01*
X5460000Y-17231000D02*
X5540000Y-17231000D01*
X5518000Y-11097500D02*
X5518000Y-11177500D01*
X5478000Y-11137500D02*
X5558000Y-11137500D01*
X5518000Y-11351500D02*
X5518000Y-11431500D01*
X5478000Y-11391500D02*
X5558000Y-11391500D01*
X5518000Y-11605500D02*
X5518000Y-11685500D01*
X5478000Y-11645500D02*
X5558000Y-11645500D01*
X5518000Y-11859500D02*
X5518000Y-11939500D01*
X5478000Y-11899500D02*
X5558000Y-11899500D01*
X5518000Y-12113500D02*
X5518000Y-12193500D01*
X5478000Y-12153500D02*
X5558000Y-12153500D01*
X5518000Y-12367500D02*
X5518000Y-12447500D01*
X5478000Y-12407500D02*
X5558000Y-12407500D01*
X5518000Y-12621500D02*
X5518000Y-12701500D01*
X5478000Y-12661500D02*
X5558000Y-12661500D01*
X5550000Y-16160000D02*
X5550000Y-16240000D01*
X5510000Y-16200000D02*
X5590000Y-16200000D01*
X5579489Y-7835000D02*
X5579489Y-7915000D01*
X5539489Y-7875000D02*
X5619489Y-7875000D01*
X5650000Y-10810000D02*
X5650000Y-10890000D01*
X5610000Y-10850000D02*
X5690000Y-10850000D01*
X5750000Y-14035000D02*
X5750000Y-14115000D01*
X5710000Y-14075000D02*
X5790000Y-14075000D01*
X5819000Y-15785000D02*
X5819000Y-15865000D01*
X5779000Y-15825000D02*
X5859000Y-15825000D01*
X5819000Y-16235000D02*
X5819000Y-16315000D01*
X5779000Y-16275000D02*
X5859000Y-16275000D01*
X5819000Y-16685000D02*
X5819000Y-16765000D01*
X5779000Y-16725000D02*
X5859000Y-16725000D01*
X5819000Y-17135000D02*
X5819000Y-17215000D01*
X5779000Y-17175000D02*
X5859000Y-17175000D01*
X5979489Y-7835000D02*
X5979489Y-7915000D01*
X5939489Y-7875000D02*
X6019489Y-7875000D01*
X6000000Y-8635000D02*
X6000000Y-8715000D01*
X5960000Y-8675000D02*
X6040000Y-8675000D01*
X6000000Y-9135000D02*
X6000000Y-9215000D01*
X5960000Y-9175000D02*
X6040000Y-9175000D01*
X6000000Y-9379000D02*
X6000000Y-9459000D01*
X5960000Y-9419000D02*
X6040000Y-9419000D01*
X6000000Y-10141000D02*
X6000000Y-10221000D01*
X5960000Y-10181000D02*
X6040000Y-10181000D01*
X6150000Y-10810000D02*
X6150000Y-10890000D01*
X6110000Y-10850000D02*
X6190000Y-10850000D01*
X6179489Y-7835000D02*
X6179489Y-7915000D01*
X6139489Y-7875000D02*
X6219489Y-7875000D01*
X6280000Y-11097500D02*
X6280000Y-11177500D01*
X6240000Y-11137500D02*
X6320000Y-11137500D01*
X6280000Y-11351500D02*
X6280000Y-11431500D01*
X6240000Y-11391500D02*
X6320000Y-11391500D01*
X6280000Y-11605500D02*
X6280000Y-11685500D01*
X6240000Y-11645500D02*
X6320000Y-11645500D01*
X6280000Y-11859500D02*
X6280000Y-11939500D01*
X6240000Y-11899500D02*
X6320000Y-11899500D01*
X6280000Y-12113500D02*
X6280000Y-12193500D01*
X6240000Y-12153500D02*
X6320000Y-12153500D01*
X6280000Y-12367500D02*
X6280000Y-12447500D01*
X6240000Y-12407500D02*
X6320000Y-12407500D01*
X6280000Y-12621500D02*
X6280000Y-12701500D01*
X6240000Y-12661500D02*
X6320000Y-12661500D01*
X6314000Y-13027000D02*
X6314000Y-13107000D01*
X6274000Y-13067000D02*
X6354000Y-13067000D01*
X6314000Y-13281000D02*
X6314000Y-13361000D01*
X6274000Y-13321000D02*
X6354000Y-13321000D01*
X6314000Y-13535000D02*
X6314000Y-13615000D01*
X6274000Y-13575000D02*
X6354000Y-13575000D01*
X6581000Y-15785000D02*
X6581000Y-15865000D01*
X6541000Y-15825000D02*
X6621000Y-15825000D01*
X6581000Y-16235000D02*
X6581000Y-16315000D01*
X6541000Y-16275000D02*
X6621000Y-16275000D01*
X6581000Y-16685000D02*
X6581000Y-16765000D01*
X6541000Y-16725000D02*
X6621000Y-16725000D01*
X6581000Y-17135000D02*
X6581000Y-17215000D01*
X6541000Y-17175000D02*
X6621000Y-17175000D01*
X6650000Y-8854000D02*
X6650000Y-8934000D01*
X6610000Y-8894000D02*
X6690000Y-8894000D01*
X6650000Y-9616000D02*
X6650000Y-9696000D01*
X6610000Y-9656000D02*
X6690000Y-9656000D01*
X6650000Y-9904000D02*
X6650000Y-9984000D01*
X6610000Y-9944000D02*
X6690000Y-9944000D01*
X6650000Y-10666000D02*
X6650000Y-10746000D01*
X6610000Y-10706000D02*
X6690000Y-10706000D01*
X6675000Y-11610000D02*
X6675000Y-11690000D01*
X6635000Y-11650000D02*
X6715000Y-11650000D01*
X6675000Y-12110000D02*
X6675000Y-12190000D01*
X6635000Y-12150000D02*
X6715000Y-12150000D01*
X6739000Y-13031000D02*
X6739000Y-13111000D01*
X6699000Y-13071000D02*
X6779000Y-13071000D01*
X6739000Y-13285000D02*
X6739000Y-13365000D01*
X6699000Y-13325000D02*
X6779000Y-13325000D01*
X6739000Y-13539000D02*
X6739000Y-13619000D01*
X6699000Y-13579000D02*
X6779000Y-13579000D01*
X6744000Y-15185000D02*
X6744000Y-15265000D01*
X6704000Y-15225000D02*
X6784000Y-15225000D01*
X6975000Y-16379000D02*
X6975000Y-16459000D01*
X6935000Y-16419000D02*
X7015000Y-16419000D01*
X6975000Y-17141000D02*
X6975000Y-17221000D01*
X6935000Y-17181000D02*
X7015000Y-17181000D01*
X7068000Y-11097500D02*
X7068000Y-11177500D01*
X7028000Y-11137500D02*
X7108000Y-11137500D01*
X7068000Y-11351500D02*
X7068000Y-11431500D01*
X7028000Y-11391500D02*
X7108000Y-11391500D01*
X7068000Y-11605500D02*
X7068000Y-11685500D01*
X7028000Y-11645500D02*
X7108000Y-11645500D01*
X7068000Y-11859500D02*
X7068000Y-11939500D01*
X7028000Y-11899500D02*
X7108000Y-11899500D01*
X7068000Y-12113500D02*
X7068000Y-12193500D01*
X7028000Y-12153500D02*
X7108000Y-12153500D01*
X7068000Y-12367500D02*
X7068000Y-12447500D01*
X7028000Y-12407500D02*
X7108000Y-12407500D01*
X7068000Y-12621500D02*
X7068000Y-12701500D01*
X7028000Y-12661500D02*
X7108000Y-12661500D01*
X7194000Y-15785000D02*
X7194000Y-15865000D01*
X7154000Y-15825000D02*
X7234000Y-15825000D01*
X7200000Y-10810000D02*
X7200000Y-10890000D01*
X7160000Y-10850000D02*
X7240000Y-10850000D01*
X7200000Y-12910000D02*
X7200000Y-12990000D01*
X7160000Y-12950000D02*
X7240000Y-12950000D01*
X7250000Y-9229000D02*
X7250000Y-9309000D01*
X7210000Y-9269000D02*
X7290000Y-9269000D01*
X7250000Y-9991000D02*
X7250000Y-10071000D01*
X7210000Y-10031000D02*
X7290000Y-10031000D01*
X7450000Y-16304000D02*
X7450000Y-16384000D01*
X7410000Y-16344000D02*
X7490000Y-16344000D01*
X7450000Y-17066000D02*
X7450000Y-17146000D01*
X7410000Y-17106000D02*
X7490000Y-17106000D01*
X7450000Y-17329000D02*
X7450000Y-17409000D01*
X7410000Y-17369000D02*
X7490000Y-17369000D01*
X7450000Y-18091000D02*
X7450000Y-18171000D01*
X7410000Y-18131000D02*
X7490000Y-18131000D01*
X7450000Y-18354000D02*
X7450000Y-18434000D01*
X7410000Y-18394000D02*
X7490000Y-18394000D01*
X7450000Y-19116000D02*
X7450000Y-19196000D01*
X7410000Y-19156000D02*
X7490000Y-19156000D01*
X7506000Y-15185000D02*
X7506000Y-15265000D01*
X7466000Y-15225000D02*
X7546000Y-15225000D01*
X7700000Y-10810000D02*
X7700000Y-10890000D01*
X7660000Y-10850000D02*
X7740000Y-10850000D01*
X7700000Y-12910000D02*
X7700000Y-12990000D01*
X7660000Y-12950000D02*
X7740000Y-12950000D01*
X7719000Y-8335000D02*
X7719000Y-8415000D01*
X7679000Y-8375000D02*
X7759000Y-8375000D01*
X7830000Y-11097500D02*
X7830000Y-11177500D01*
X7790000Y-11137500D02*
X7870000Y-11137500D01*
X7830000Y-11351500D02*
X7830000Y-11431500D01*
X7790000Y-11391500D02*
X7870000Y-11391500D01*
X7830000Y-11605500D02*
X7830000Y-11685500D01*
X7790000Y-11645500D02*
X7870000Y-11645500D01*
X7830000Y-11859500D02*
X7830000Y-11939500D01*
X7790000Y-11899500D02*
X7870000Y-11899500D01*
X7830000Y-12113500D02*
X7830000Y-12193500D01*
X7790000Y-12153500D02*
X7870000Y-12153500D01*
X7830000Y-12367500D02*
X7830000Y-12447500D01*
X7790000Y-12407500D02*
X7870000Y-12407500D01*
X7830000Y-12621500D02*
X7830000Y-12701500D01*
X7790000Y-12661500D02*
X7870000Y-12661500D01*
X7850000Y-7585000D02*
X7850000Y-7665000D01*
X7810000Y-7625000D02*
X7890000Y-7625000D01*
X7869000Y-14235000D02*
X7869000Y-14315000D01*
X7829000Y-14275000D02*
X7909000Y-14275000D01*
X7869000Y-14710000D02*
X7869000Y-14790000D01*
X7829000Y-14750000D02*
X7909000Y-14750000D01*
X7869000Y-15185000D02*
X7869000Y-15265000D01*
X7829000Y-15225000D02*
X7909000Y-15225000D01*
X7925000Y-16304000D02*
X7925000Y-16384000D01*
X7885000Y-16344000D02*
X7965000Y-16344000D01*
X7925000Y-17066000D02*
X7925000Y-17146000D01*
X7885000Y-17106000D02*
X7965000Y-17106000D01*
X7925000Y-17329000D02*
X7925000Y-17409000D01*
X7885000Y-17369000D02*
X7965000Y-17369000D01*
X7925000Y-18091000D02*
X7925000Y-18171000D01*
X7885000Y-18131000D02*
X7965000Y-18131000D01*
X7925000Y-18354000D02*
X7925000Y-18434000D01*
X7885000Y-18394000D02*
X7965000Y-18394000D01*
X7925000Y-19116000D02*
X7925000Y-19196000D01*
X7885000Y-19156000D02*
X7965000Y-19156000D01*
X7956000Y-15785000D02*
X7956000Y-15865000D01*
X7916000Y-15825000D02*
X7996000Y-15825000D01*
X7969000Y-10485000D02*
X7969000Y-10565000D01*
X7929000Y-10525000D02*
X8009000Y-10525000D01*
X8150000Y-12904000D02*
X8150000Y-12984000D01*
X8110000Y-12944000D02*
X8190000Y-12944000D01*
X8150000Y-13666000D02*
X8150000Y-13746000D01*
X8110000Y-13706000D02*
X8190000Y-13706000D01*
X8350000Y-7585000D02*
X8350000Y-7665000D01*
X8310000Y-7625000D02*
X8390000Y-7625000D01*
X8375000Y-15856000D02*
X8375000Y-15936000D01*
X8335000Y-15896000D02*
X8415000Y-15896000D01*
X8375000Y-16110000D02*
X8375000Y-16190000D01*
X8335000Y-16150000D02*
X8415000Y-16150000D01*
X8375000Y-16364000D02*
X8375000Y-16444000D01*
X8335000Y-16404000D02*
X8415000Y-16404000D01*
X8375000Y-16618000D02*
X8375000Y-16698000D01*
X8335000Y-16658000D02*
X8415000Y-16658000D01*
X8375000Y-16872000D02*
X8375000Y-16952000D01*
X8335000Y-16912000D02*
X8415000Y-16912000D01*
X8375000Y-17126000D02*
X8375000Y-17206000D01*
X8335000Y-17166000D02*
X8415000Y-17166000D01*
X8375000Y-17380000D02*
X8375000Y-17460000D01*
X8335000Y-17420000D02*
X8415000Y-17420000D01*
X8481000Y-8335000D02*
X8481000Y-8415000D01*
X8441000Y-8375000D02*
X8521000Y-8375000D01*
X8500000Y-15560000D02*
X8500000Y-15640000D01*
X8460000Y-15600000D02*
X8540000Y-15600000D01*
X8500000Y-17685000D02*
X8500000Y-17765000D01*
X8460000Y-17725000D02*
X8540000Y-17725000D01*
X8631000Y-14235000D02*
X8631000Y-14315000D01*
X8591000Y-14275000D02*
X8671000Y-14275000D01*
X8631000Y-14710000D02*
X8631000Y-14790000D01*
X8591000Y-14750000D02*
X8671000Y-14750000D01*
X8631000Y-15185000D02*
X8631000Y-15265000D01*
X8591000Y-15225000D02*
X8671000Y-15225000D01*
X8731000Y-10485000D02*
X8731000Y-10565000D01*
X8691000Y-10525000D02*
X8771000Y-10525000D01*
X8850000Y-13079000D02*
X8850000Y-13159000D01*
X8810000Y-13119000D02*
X8890000Y-13119000D01*
X8850000Y-13841000D02*
X8850000Y-13921000D01*
X8810000Y-13881000D02*
X8890000Y-13881000D01*
X8904489Y-7560000D02*
X8904489Y-7640000D01*
X8864489Y-7600000D02*
X8944489Y-7600000D01*
X9000000Y-15560000D02*
X9000000Y-15640000D01*
X8960000Y-15600000D02*
X9040000Y-15600000D01*
X9000000Y-17685000D02*
X9000000Y-17765000D01*
X8960000Y-17725000D02*
X9040000Y-17725000D01*
X9044000Y-10485000D02*
X9044000Y-10565000D01*
X9004000Y-10525000D02*
X9084000Y-10525000D01*
X9100000Y-8979000D02*
X9100000Y-9059000D01*
X9060000Y-9019000D02*
X9140000Y-9019000D01*
X9100000Y-9741000D02*
X9100000Y-9821000D01*
X9060000Y-9781000D02*
X9140000Y-9781000D01*
X9104489Y-7560000D02*
X9104489Y-7640000D01*
X9064489Y-7600000D02*
X9144489Y-7600000D01*
X9137000Y-15856000D02*
X9137000Y-15936000D01*
X9097000Y-15896000D02*
X9177000Y-15896000D01*
X9137000Y-16110000D02*
X9137000Y-16190000D01*
X9097000Y-16150000D02*
X9177000Y-16150000D01*
X9137000Y-16364000D02*
X9137000Y-16444000D01*
X9097000Y-16404000D02*
X9177000Y-16404000D01*
X9137000Y-16618000D02*
X9137000Y-16698000D01*
X9097000Y-16658000D02*
X9177000Y-16658000D01*
X9137000Y-16872000D02*
X9137000Y-16952000D01*
X9097000Y-16912000D02*
X9177000Y-16912000D01*
X9137000Y-17126000D02*
X9137000Y-17206000D01*
X9097000Y-17166000D02*
X9177000Y-17166000D01*
X9137000Y-17380000D02*
X9137000Y-17460000D01*
X9097000Y-17420000D02*
X9177000Y-17420000D01*
X9144000Y-13860000D02*
X9144000Y-13940000D01*
X9104000Y-13900000D02*
X9184000Y-13900000D01*
X9575000Y-18348000D02*
X9575000Y-18428000D01*
X9535000Y-18388000D02*
X9615000Y-18388000D01*
X9575000Y-19110000D02*
X9575000Y-19190000D01*
X9535000Y-19150000D02*
X9615000Y-19150000D01*
X9600000Y-8979000D02*
X9600000Y-9059000D01*
X9560000Y-9019000D02*
X9640000Y-9019000D01*
X9600000Y-9741000D02*
X9600000Y-9821000D01*
X9560000Y-9781000D02*
X9640000Y-9781000D01*
X9600000Y-15785000D02*
X9600000Y-15865000D01*
X9560000Y-15825000D02*
X9640000Y-15825000D01*
X9600000Y-16035000D02*
X9600000Y-16115000D01*
X9560000Y-16075000D02*
X9640000Y-16075000D01*
X9600000Y-16310000D02*
X9600000Y-16390000D01*
X9560000Y-16350000D02*
X9640000Y-16350000D01*
X9600000Y-16810000D02*
X9600000Y-16890000D01*
X9560000Y-16850000D02*
X9640000Y-16850000D01*
X9600000Y-17079000D02*
X9600000Y-17159000D01*
X9560000Y-17119000D02*
X9640000Y-17119000D01*
X9600000Y-17841000D02*
X9600000Y-17921000D01*
X9560000Y-17881000D02*
X9640000Y-17881000D01*
X9700000Y-10904000D02*
X9700000Y-10984000D01*
X9660000Y-10944000D02*
X9740000Y-10944000D01*
X9700000Y-11666000D02*
X9700000Y-11746000D01*
X9660000Y-11706000D02*
X9740000Y-11706000D01*
X9700000Y-11898000D02*
X9700000Y-11978000D01*
X9660000Y-11938000D02*
X9740000Y-11938000D01*
X9700000Y-12660000D02*
X9700000Y-12740000D01*
X9660000Y-12700000D02*
X9740000Y-12700000D01*
X9806000Y-10485000D02*
X9806000Y-10565000D01*
X9766000Y-10525000D02*
X9846000Y-10525000D01*
X9906000Y-13860000D02*
X9906000Y-13940000D01*
X9866000Y-13900000D02*
X9946000Y-13900000D01*
X10042000Y-15235000D02*
X10042000Y-15315000D01*
X10002000Y-15275000D02*
X10082000Y-15275000D01*
X10046000Y-15649000D02*
X10046000Y-15729000D01*
X10006000Y-15689000D02*
X10086000Y-15689000D01*
X10075000Y-16054000D02*
X10075000Y-16134000D01*
X10035000Y-16094000D02*
X10115000Y-16094000D01*
X10075000Y-16816000D02*
X10075000Y-16896000D01*
X10035000Y-16856000D02*
X10115000Y-16856000D01*
X10075000Y-17079000D02*
X10075000Y-17159000D01*
X10035000Y-17119000D02*
X10115000Y-17119000D01*
X10075000Y-17841000D02*
X10075000Y-17921000D01*
X10035000Y-17881000D02*
X10115000Y-17881000D01*
X10119000Y-14285000D02*
X10119000Y-14365000D01*
X10079000Y-14325000D02*
X10159000Y-14325000D01*
X10119000Y-14760000D02*
X10119000Y-14840000D01*
X10079000Y-14800000D02*
X10159000Y-14800000D01*
X10168000Y-8061000D02*
X10168000Y-8141000D01*
X10128000Y-8101000D02*
X10208000Y-8101000D01*
X10168000Y-8315000D02*
X10168000Y-8395000D01*
X10128000Y-8355000D02*
X10208000Y-8355000D01*
X10168000Y-8569000D02*
X10168000Y-8649000D01*
X10128000Y-8609000D02*
X10208000Y-8609000D01*
X10168000Y-8823000D02*
X10168000Y-8903000D01*
X10128000Y-8863000D02*
X10208000Y-8863000D01*
X10168000Y-9077000D02*
X10168000Y-9157000D01*
X10128000Y-9117000D02*
X10208000Y-9117000D01*
X10168000Y-9331000D02*
X10168000Y-9411000D01*
X10128000Y-9371000D02*
X10208000Y-9371000D01*
X10168000Y-9585000D02*
X10168000Y-9665000D01*
X10128000Y-9625000D02*
X10208000Y-9625000D01*
X10168000Y-9839000D02*
X10168000Y-9919000D01*
X10128000Y-9879000D02*
X10208000Y-9879000D01*
X10168000Y-10093000D02*
X10168000Y-10173000D01*
X10128000Y-10133000D02*
X10208000Y-10133000D01*
X10168000Y-10347000D02*
X10168000Y-10427000D01*
X10128000Y-10387000D02*
X10208000Y-10387000D01*
X10169000Y-10910000D02*
X10169000Y-10990000D01*
X10129000Y-10950000D02*
X10209000Y-10950000D01*
X10296000Y-15235000D02*
X10296000Y-15315000D01*
X10256000Y-15275000D02*
X10336000Y-15275000D01*
X10300000Y-7760000D02*
X10300000Y-7840000D01*
X10260000Y-7800000D02*
X10340000Y-7800000D01*
X10300000Y-11348000D02*
X10300000Y-11428000D01*
X10260000Y-11388000D02*
X10340000Y-11388000D01*
X10300000Y-12110000D02*
X10300000Y-12190000D01*
X10260000Y-12150000D02*
X10340000Y-12150000D01*
X10300000Y-15649000D02*
X10300000Y-15729000D01*
X10260000Y-15689000D02*
X10340000Y-15689000D01*
X10425000Y-18348000D02*
X10425000Y-18428000D01*
X10385000Y-18388000D02*
X10465000Y-18388000D01*
X10425000Y-19110000D02*
X10425000Y-19190000D01*
X10385000Y-19150000D02*
X10465000Y-19150000D01*
X10550000Y-15235000D02*
X10550000Y-15315000D01*
X10510000Y-15275000D02*
X10590000Y-15275000D01*
X10550000Y-16054000D02*
X10550000Y-16134000D01*
X10510000Y-16094000D02*
X10590000Y-16094000D01*
X10550000Y-16816000D02*
X10550000Y-16896000D01*
X10510000Y-16856000D02*
X10590000Y-16856000D01*
X10550000Y-17079000D02*
X10550000Y-17159000D01*
X10510000Y-17119000D02*
X10590000Y-17119000D01*
X10550000Y-17841000D02*
X10550000Y-17921000D01*
X10510000Y-17881000D02*
X10590000Y-17881000D01*
X10554000Y-15649000D02*
X10554000Y-15729000D01*
X10514000Y-15689000D02*
X10594000Y-15689000D01*
X10800000Y-7760000D02*
X10800000Y-7840000D01*
X10760000Y-7800000D02*
X10840000Y-7800000D01*
X10800000Y-11354000D02*
X10800000Y-11434000D01*
X10760000Y-11394000D02*
X10840000Y-11394000D01*
X10800000Y-12116000D02*
X10800000Y-12196000D01*
X10760000Y-12156000D02*
X10840000Y-12156000D01*
X10868000Y-15872500D02*
X10868000Y-15952500D01*
X10828000Y-15912500D02*
X10908000Y-15912500D01*
X10868000Y-16126500D02*
X10868000Y-16206500D01*
X10828000Y-16166500D02*
X10908000Y-16166500D01*
X10868000Y-16380500D02*
X10868000Y-16460500D01*
X10828000Y-16420500D02*
X10908000Y-16420500D01*
X10868000Y-16634500D02*
X10868000Y-16714500D01*
X10828000Y-16674500D02*
X10908000Y-16674500D01*
X10868000Y-16888500D02*
X10868000Y-16968500D01*
X10828000Y-16928500D02*
X10908000Y-16928500D01*
X10868000Y-17142500D02*
X10868000Y-17222500D01*
X10828000Y-17182500D02*
X10908000Y-17182500D01*
X10868000Y-17396500D02*
X10868000Y-17476500D01*
X10828000Y-17436500D02*
X10908000Y-17436500D01*
X10881000Y-14285000D02*
X10881000Y-14365000D01*
X10841000Y-14325000D02*
X10921000Y-14325000D01*
X10881000Y-14760000D02*
X10881000Y-14840000D01*
X10841000Y-14800000D02*
X10921000Y-14800000D01*
X10930000Y-8061000D02*
X10930000Y-8141000D01*
X10890000Y-8101000D02*
X10970000Y-8101000D01*
X10930000Y-8315000D02*
X10930000Y-8395000D01*
X10890000Y-8355000D02*
X10970000Y-8355000D01*
X10930000Y-8569000D02*
X10930000Y-8649000D01*
X10890000Y-8609000D02*
X10970000Y-8609000D01*
X10930000Y-8823000D02*
X10930000Y-8903000D01*
X10890000Y-8863000D02*
X10970000Y-8863000D01*
X10930000Y-9077000D02*
X10930000Y-9157000D01*
X10890000Y-9117000D02*
X10970000Y-9117000D01*
X10930000Y-9331000D02*
X10930000Y-9411000D01*
X10890000Y-9371000D02*
X10970000Y-9371000D01*
X10930000Y-9585000D02*
X10930000Y-9665000D01*
X10890000Y-9625000D02*
X10970000Y-9625000D01*
X10930000Y-9839000D02*
X10930000Y-9919000D01*
X10890000Y-9879000D02*
X10970000Y-9879000D01*
X10930000Y-10093000D02*
X10930000Y-10173000D01*
X10890000Y-10133000D02*
X10970000Y-10133000D01*
X10930000Y-10347000D02*
X10930000Y-10427000D01*
X10890000Y-10387000D02*
X10970000Y-10387000D01*
X10931000Y-10910000D02*
X10931000Y-10990000D01*
X10891000Y-10950000D02*
X10971000Y-10950000D01*
X11000000Y-15585000D02*
X11000000Y-15665000D01*
X10960000Y-15625000D02*
X11040000Y-15625000D01*
X11000000Y-17685000D02*
X11000000Y-17765000D01*
X10960000Y-17725000D02*
X11040000Y-17725000D01*
X11325000Y-7354000D02*
X11325000Y-7434000D01*
X11285000Y-7394000D02*
X11365000Y-7394000D01*
X11325000Y-8116000D02*
X11325000Y-8196000D01*
X11285000Y-8156000D02*
X11365000Y-8156000D01*
X11375000Y-10723000D02*
X11375000Y-10803000D01*
X11335000Y-10763000D02*
X11415000Y-10763000D01*
X11375000Y-11485000D02*
X11375000Y-11565000D01*
X11335000Y-11525000D02*
X11415000Y-11525000D01*
X11450000Y-14481000D02*
X11450000Y-14561000D01*
X11410000Y-14521000D02*
X11490000Y-14521000D01*
X11450000Y-14735000D02*
X11450000Y-14815000D01*
X11410000Y-14775000D02*
X11490000Y-14775000D01*
X11450000Y-14989000D02*
X11450000Y-15069000D01*
X11410000Y-15029000D02*
X11490000Y-15029000D01*
X11500000Y-15585000D02*
X11500000Y-15665000D01*
X11460000Y-15625000D02*
X11540000Y-15625000D01*
X11500000Y-17685000D02*
X11500000Y-17765000D01*
X11460000Y-17725000D02*
X11540000Y-17725000D01*
X11630000Y-15872500D02*
X11630000Y-15952500D01*
X11590000Y-15912500D02*
X11670000Y-15912500D01*
X11630000Y-16126500D02*
X11630000Y-16206500D01*
X11590000Y-16166500D02*
X11670000Y-16166500D01*
X11630000Y-16380500D02*
X11630000Y-16460500D01*
X11590000Y-16420500D02*
X11670000Y-16420500D01*
X11630000Y-16634500D02*
X11630000Y-16714500D01*
X11590000Y-16674500D02*
X11670000Y-16674500D01*
X11630000Y-16888500D02*
X11630000Y-16968500D01*
X11590000Y-16928500D02*
X11670000Y-16928500D01*
X11630000Y-17142500D02*
X11630000Y-17222500D01*
X11590000Y-17182500D02*
X11670000Y-17182500D01*
X11630000Y-17396500D02*
X11630000Y-17476500D01*
X11590000Y-17436500D02*
X11670000Y-17436500D01*
X11635000Y-12030000D02*
X11635000Y-12110000D01*
X11595000Y-12070000D02*
X11675000Y-12070000D01*
X11635000Y-12284000D02*
X11635000Y-12364000D01*
X11595000Y-12324000D02*
X11675000Y-12324000D01*
X11635000Y-12538000D02*
X11635000Y-12618000D01*
X11595000Y-12578000D02*
X11675000Y-12578000D01*
X11675000Y-6360000D02*
X11675000Y-6440000D01*
X11635000Y-6400000D02*
X11715000Y-6400000D01*
X12075000Y-16773000D02*
X12075000Y-16853000D01*
X12035000Y-16813000D02*
X12115000Y-16813000D01*
X12075000Y-17535000D02*
X12075000Y-17615000D01*
X12035000Y-17575000D02*
X12115000Y-17575000D01*
X12075000Y-18354000D02*
X12075000Y-18434000D01*
X12035000Y-18394000D02*
X12115000Y-18394000D01*
X12075000Y-19116000D02*
X12075000Y-19196000D01*
X12035000Y-19156000D02*
X12115000Y-19156000D01*
X12175000Y-6360000D02*
X12175000Y-6440000D01*
X12135000Y-6400000D02*
X12215000Y-6400000D01*
X12425000Y-16773000D02*
X12425000Y-16853000D01*
X12385000Y-16813000D02*
X12465000Y-16813000D01*
X12425000Y-17535000D02*
X12425000Y-17615000D01*
X12385000Y-17575000D02*
X12465000Y-17575000D01*
X12435000Y-12030000D02*
X12435000Y-12110000D01*
X12395000Y-12070000D02*
X12475000Y-12070000D01*
X12435000Y-12284000D02*
X12435000Y-12364000D01*
X12395000Y-12324000D02*
X12475000Y-12324000D01*
X12435000Y-12538000D02*
X12435000Y-12618000D01*
X12395000Y-12578000D02*
X12475000Y-12578000D01*
X12442000Y-8998000D02*
X12442000Y-9078000D01*
X12402000Y-9038000D02*
X12482000Y-9038000D01*
X12442000Y-10522000D02*
X12442000Y-10602000D01*
X12402000Y-10562000D02*
X12482000Y-10562000D01*
X12450000Y-6479000D02*
X12450000Y-6559000D01*
X12410000Y-6519000D02*
X12490000Y-6519000D01*
X12450000Y-7241000D02*
X12450000Y-7321000D01*
X12410000Y-7281000D02*
X12490000Y-7281000D01*
X12450000Y-7604000D02*
X12450000Y-7684000D01*
X12410000Y-7644000D02*
X12490000Y-7644000D01*
X12450000Y-8366000D02*
X12450000Y-8446000D01*
X12410000Y-8406000D02*
X12490000Y-8406000D01*
X12450000Y-13079000D02*
X12450000Y-13159000D01*
X12410000Y-13119000D02*
X12490000Y-13119000D01*
X12450000Y-13841000D02*
X12450000Y-13921000D01*
X12410000Y-13881000D02*
X12490000Y-13881000D01*
X12688000Y-11585000D02*
X12688000Y-11665000D01*
X12648000Y-11625000D02*
X12728000Y-11625000D01*
X12696000Y-8998000D02*
X12696000Y-9078000D01*
X12656000Y-9038000D02*
X12736000Y-9038000D01*
X12696000Y-10522000D02*
X12696000Y-10602000D01*
X12656000Y-10562000D02*
X12736000Y-10562000D01*
X12775000Y-6479000D02*
X12775000Y-6559000D01*
X12735000Y-6519000D02*
X12815000Y-6519000D01*
X12775000Y-7241000D02*
X12775000Y-7321000D01*
X12735000Y-7281000D02*
X12815000Y-7281000D01*
X12775000Y-7604000D02*
X12775000Y-7684000D01*
X12735000Y-7644000D02*
X12815000Y-7644000D01*
X12775000Y-8366000D02*
X12775000Y-8446000D01*
X12735000Y-8406000D02*
X12815000Y-8406000D01*
X12794000Y-16535000D02*
X12794000Y-16615000D01*
X12754000Y-16575000D02*
X12834000Y-16575000D01*
X12800000Y-17010000D02*
X12800000Y-17090000D01*
X12760000Y-17050000D02*
X12840000Y-17050000D01*
X12800000Y-17485000D02*
X12800000Y-17565000D01*
X12760000Y-17525000D02*
X12840000Y-17525000D01*
X12806000Y-16060000D02*
X12806000Y-16140000D01*
X12766000Y-16100000D02*
X12846000Y-16100000D01*
X12895000Y-13460000D02*
X12895000Y-13540000D01*
X12855000Y-13500000D02*
X12935000Y-13500000D01*
X12925000Y-18354000D02*
X12925000Y-18434000D01*
X12885000Y-18394000D02*
X12965000Y-18394000D01*
X12925000Y-19116000D02*
X12925000Y-19196000D01*
X12885000Y-19156000D02*
X12965000Y-19156000D01*
X12950000Y-8998000D02*
X12950000Y-9078000D01*
X12910000Y-9038000D02*
X12990000Y-9038000D01*
X12950000Y-10522000D02*
X12950000Y-10602000D01*
X12910000Y-10562000D02*
X12990000Y-10562000D01*
X13149000Y-13460000D02*
X13149000Y-13540000D01*
X13109000Y-13500000D02*
X13189000Y-13500000D01*
X13150000Y-6479000D02*
X13150000Y-6559000D01*
X13110000Y-6519000D02*
X13190000Y-6519000D01*
X13150000Y-7241000D02*
X13150000Y-7321000D01*
X13110000Y-7281000D02*
X13190000Y-7281000D01*
X13150000Y-7604000D02*
X13150000Y-7684000D01*
X13110000Y-7644000D02*
X13190000Y-7644000D01*
X13150000Y-8366000D02*
X13150000Y-8446000D01*
X13110000Y-8406000D02*
X13190000Y-8406000D01*
X13204000Y-8998000D02*
X13204000Y-9078000D01*
X13164000Y-9038000D02*
X13244000Y-9038000D01*
X13204000Y-10522000D02*
X13204000Y-10602000D01*
X13164000Y-10562000D02*
X13244000Y-10562000D01*
X13235000Y-12030000D02*
X13235000Y-12110000D01*
X13195000Y-12070000D02*
X13275000Y-12070000D01*
X13235000Y-12284000D02*
X13235000Y-12364000D01*
X13195000Y-12324000D02*
X13275000Y-12324000D01*
X13235000Y-12538000D02*
X13235000Y-12618000D01*
X13195000Y-12578000D02*
X13275000Y-12578000D01*
X13403000Y-13460000D02*
X13403000Y-13540000D01*
X13363000Y-13500000D02*
X13443000Y-13500000D01*
X13450000Y-11585000D02*
X13450000Y-11665000D01*
X13410000Y-11625000D02*
X13490000Y-11625000D01*
X13458000Y-8998000D02*
X13458000Y-9078000D01*
X13418000Y-9038000D02*
X13498000Y-9038000D01*
X13458000Y-10522000D02*
X13458000Y-10602000D01*
X13418000Y-10562000D02*
X13498000Y-10562000D01*
X13475000Y-6479000D02*
X13475000Y-6559000D01*
X13435000Y-6519000D02*
X13515000Y-6519000D01*
X13475000Y-7241000D02*
X13475000Y-7321000D01*
X13435000Y-7281000D02*
X13515000Y-7281000D01*
X13475000Y-7604000D02*
X13475000Y-7684000D01*
X13435000Y-7644000D02*
X13515000Y-7644000D01*
X13475000Y-8366000D02*
X13475000Y-8446000D01*
X13435000Y-8406000D02*
X13515000Y-8406000D01*
X13556000Y-16535000D02*
X13556000Y-16615000D01*
X13516000Y-16575000D02*
X13596000Y-16575000D01*
X13562000Y-17010000D02*
X13562000Y-17090000D01*
X13522000Y-17050000D02*
X13602000Y-17050000D01*
X13562000Y-17485000D02*
X13562000Y-17565000D01*
X13522000Y-17525000D02*
X13602000Y-17525000D01*
X13568000Y-16060000D02*
X13568000Y-16140000D01*
X13528000Y-16100000D02*
X13608000Y-16100000D01*
X13819000Y-9610000D02*
X13819000Y-9690000D01*
X13779000Y-9650000D02*
X13859000Y-9650000D01*
X13819000Y-9935000D02*
X13819000Y-10015000D01*
X13779000Y-9975000D02*
X13859000Y-9975000D01*
X13819000Y-10260000D02*
X13819000Y-10340000D01*
X13779000Y-10300000D02*
X13859000Y-10300000D01*
X13819000Y-10585000D02*
X13819000Y-10665000D01*
X13779000Y-10625000D02*
X13859000Y-10625000D01*
X13938000Y-16060000D02*
X13938000Y-16140000D01*
X13898000Y-16100000D02*
X13978000Y-16100000D01*
X13944000Y-16535000D02*
X13944000Y-16615000D01*
X13904000Y-16575000D02*
X13984000Y-16575000D01*
X13944000Y-17485000D02*
X13944000Y-17565000D01*
X13904000Y-17525000D02*
X13984000Y-17525000D01*
X13950000Y-17010000D02*
X13950000Y-17090000D01*
X13910000Y-17050000D02*
X13990000Y-17050000D01*
X14035000Y-12030000D02*
X14035000Y-12110000D01*
X13995000Y-12070000D02*
X14075000Y-12070000D01*
X14035000Y-12284000D02*
X14035000Y-12364000D01*
X13995000Y-12324000D02*
X14075000Y-12324000D01*
X14035000Y-12538000D02*
X14035000Y-12618000D01*
X13995000Y-12578000D02*
X14075000Y-12578000D01*
X14121000Y-13460000D02*
X14121000Y-13540000D01*
X14081000Y-13500000D02*
X14161000Y-13500000D01*
X14121000Y-14335000D02*
X14121000Y-14415000D01*
X14081000Y-14375000D02*
X14161000Y-14375000D01*
X14196000Y-15060000D02*
X14196000Y-15140000D01*
X14156000Y-15100000D02*
X14236000Y-15100000D01*
X14196000Y-15474000D02*
X14196000Y-15554000D01*
X14156000Y-15514000D02*
X14236000Y-15514000D01*
X14375000Y-13460000D02*
X14375000Y-13540000D01*
X14335000Y-13500000D02*
X14415000Y-13500000D01*
X14375000Y-14335000D02*
X14375000Y-14415000D01*
X14335000Y-14375000D02*
X14415000Y-14375000D01*
X14450000Y-15060000D02*
X14450000Y-15140000D01*
X14410000Y-15100000D02*
X14490000Y-15100000D01*
X14450000Y-15474000D02*
X14450000Y-15554000D01*
X14410000Y-15514000D02*
X14490000Y-15514000D01*
X14575000Y-7004000D02*
X14575000Y-7084000D01*
X14535000Y-7044000D02*
X14615000Y-7044000D01*
X14575000Y-7766000D02*
X14575000Y-7846000D01*
X14535000Y-7806000D02*
X14615000Y-7806000D01*
X14575000Y-18354000D02*
X14575000Y-18434000D01*
X14535000Y-18394000D02*
X14615000Y-18394000D01*
X14575000Y-19116000D02*
X14575000Y-19196000D01*
X14535000Y-19156000D02*
X14615000Y-19156000D01*
X14580000Y-8478000D02*
X14580000Y-8558000D01*
X14540000Y-8518000D02*
X14620000Y-8518000D01*
X14580000Y-9240000D02*
X14580000Y-9320000D01*
X14540000Y-9280000D02*
X14620000Y-9280000D01*
X14581000Y-9610000D02*
X14581000Y-9690000D01*
X14541000Y-9650000D02*
X14621000Y-9650000D01*
X14581000Y-9935000D02*
X14581000Y-10015000D01*
X14541000Y-9975000D02*
X14621000Y-9975000D01*
X14581000Y-10260000D02*
X14581000Y-10340000D01*
X14541000Y-10300000D02*
X14621000Y-10300000D01*
X14581000Y-10585000D02*
X14581000Y-10665000D01*
X14541000Y-10625000D02*
X14621000Y-10625000D01*
X14629000Y-13460000D02*
X14629000Y-13540000D01*
X14589000Y-13500000D02*
X14669000Y-13500000D01*
X14629000Y-14335000D02*
X14629000Y-14415000D01*
X14589000Y-14375000D02*
X14669000Y-14375000D01*
X14700000Y-11098000D02*
X14700000Y-11178000D01*
X14660000Y-11138000D02*
X14740000Y-11138000D01*
X14700000Y-11860000D02*
X14700000Y-11940000D01*
X14660000Y-11900000D02*
X14740000Y-11900000D01*
X14700000Y-12298000D02*
X14700000Y-12378000D01*
X14660000Y-12338000D02*
X14740000Y-12338000D01*
X14700000Y-13060000D02*
X14700000Y-13140000D01*
X14660000Y-13100000D02*
X14740000Y-13100000D01*
X14700000Y-16060000D02*
X14700000Y-16140000D01*
X14660000Y-16100000D02*
X14740000Y-16100000D01*
X14704000Y-15060000D02*
X14704000Y-15140000D01*
X14664000Y-15100000D02*
X14744000Y-15100000D01*
X14704000Y-15474000D02*
X14704000Y-15554000D01*
X14664000Y-15514000D02*
X14744000Y-15514000D01*
X14706000Y-16535000D02*
X14706000Y-16615000D01*
X14666000Y-16575000D02*
X14746000Y-16575000D01*
X14706000Y-17485000D02*
X14706000Y-17565000D01*
X14666000Y-17525000D02*
X14746000Y-17525000D01*
X14712000Y-17010000D02*
X14712000Y-17090000D01*
X14672000Y-17050000D02*
X14752000Y-17050000D01*
X11854320Y-11193820D02*
X11854320Y-11130180D01*
X11790680Y-11130180D01*
X11790680Y-11193820D01*
X11854320Y-11193820D01*
X12108320Y-11193820D02*
X12108320Y-11130180D01*
X12044680Y-11130180D01*
X12044680Y-11193820D01*
X12108320Y-11193820D01*
X12354320Y-11193820D02*
X12354320Y-11130180D01*
X12290680Y-11130180D01*
X12290680Y-11193820D01*
X12354320Y-11193820D01*
X12608320Y-11193820D02*
X12608320Y-11130180D01*
X12544680Y-11130180D01*
X12544680Y-11193820D01*
X12608320Y-11193820D01*
X12854320Y-11193820D02*
X12854320Y-11130180D01*
X12790680Y-11130180D01*
X12790680Y-11193820D01*
X12854320Y-11193820D01*
X13108320Y-11193820D02*
X13108320Y-11130180D01*
X13044680Y-11130180D01*
X13044680Y-11193820D01*
X13108320Y-11193820D01*
X13354320Y-11193820D02*
X13354320Y-11130180D01*
X13290680Y-11130180D01*
X13290680Y-11193820D01*
X13354320Y-11193820D01*
X13608320Y-11193820D02*
X13608320Y-11130180D01*
X13544680Y-11130180D01*
X13544680Y-11193820D01*
X13608320Y-11193820D01*
X13854320Y-9181820D02*
X13854320Y-9118180D01*
X13790680Y-9118180D01*
X13790680Y-9181820D01*
X13854320Y-9181820D01*
X13854320Y-11193820D02*
X13854320Y-11130180D01*
X13790680Y-11130180D01*
X13790680Y-11193820D01*
X13854320Y-11193820D01*
X14108320Y-9181820D02*
X14108320Y-9118180D01*
X14044680Y-9118180D01*
X14044680Y-9181820D01*
X14108320Y-9181820D01*
X14108320Y-11193820D02*
X14108320Y-11130180D01*
X14044680Y-11130180D01*
X14044680Y-11193820D01*
X14108320Y-11193820D01*
X5675000Y-13600000D02*
X5725000Y-13550000D01*
X5675000Y-13500000D01*
X5625000Y-13550000D01*
X5675000Y-13600000D01*
X6772000Y-6700000D02*
X6822000Y-6650000D01*
X6772000Y-6600000D01*
X6722000Y-6650000D01*
X6772000Y-6700000D01*
X6772000Y-6954000D02*
X6822000Y-6904000D01*
X6772000Y-6854000D01*
X6722000Y-6904000D01*
X6772000Y-6954000D01*
X7026000Y-6700000D02*
X7076000Y-6650000D01*
X7026000Y-6600000D01*
X6976000Y-6650000D01*
X7026000Y-6700000D01*
X7026000Y-6954000D02*
X7076000Y-6904000D01*
X7026000Y-6854000D01*
X6976000Y-6904000D01*
X7026000Y-6954000D01*
X7280000Y-6700000D02*
X7330000Y-6650000D01*
X7280000Y-6600000D01*
X7230000Y-6650000D01*
X7280000Y-6700000D01*
X7280000Y-6954000D02*
X7330000Y-6904000D01*
X7280000Y-6854000D01*
X7230000Y-6904000D01*
X7280000Y-6954000D01*
X7534000Y-6700000D02*
X7584000Y-6650000D01*
X7534000Y-6600000D01*
X7484000Y-6650000D01*
X7534000Y-6700000D01*
X7534000Y-6954000D02*
X7584000Y-6904000D01*
X7534000Y-6854000D01*
X7484000Y-6904000D01*
X7534000Y-6954000D01*
X7788000Y-6700000D02*
X7838000Y-6650000D01*
X7788000Y-6600000D01*
X7738000Y-6650000D01*
X7788000Y-6700000D01*
X7788000Y-6954000D02*
X7838000Y-6904000D01*
X7788000Y-6854000D01*
X7738000Y-6904000D01*
X7788000Y-6954000D01*
X7845000Y-10000000D02*
X7895000Y-9950000D01*
X7845000Y-9900000D01*
X7795000Y-9950000D01*
X7845000Y-10000000D01*
X8042000Y-6700000D02*
X8092000Y-6650000D01*
X8042000Y-6600000D01*
X7992000Y-6650000D01*
X8042000Y-6700000D01*
X8042000Y-6954000D02*
X8092000Y-6904000D01*
X8042000Y-6854000D01*
X7992000Y-6904000D01*
X8042000Y-6954000D01*
X8095000Y-10000000D02*
X8145000Y-9950000D01*
X8095000Y-9900000D01*
X8045000Y-9950000D01*
X8095000Y-10000000D01*
X8296000Y-6700000D02*
X8346000Y-6650000D01*
X8296000Y-6600000D01*
X8246000Y-6650000D01*
X8296000Y-6700000D01*
X8296000Y-6954000D02*
X8346000Y-6904000D01*
X8296000Y-6854000D01*
X8246000Y-6904000D01*
X8296000Y-6954000D01*
X8345000Y-10000000D02*
X8395000Y-9950000D01*
X8345000Y-9900000D01*
X8295000Y-9950000D01*
X8345000Y-10000000D01*
X8500000Y-19175000D02*
X8550000Y-19125000D01*
X8500000Y-19075000D01*
X8450000Y-19125000D01*
X8500000Y-19175000D01*
X8550000Y-6700000D02*
X8600000Y-6650000D01*
X8550000Y-6600000D01*
X8500000Y-6650000D01*
X8550000Y-6700000D01*
X8550000Y-6954000D02*
X8600000Y-6904000D01*
X8550000Y-6854000D01*
X8500000Y-6904000D01*
X8550000Y-6954000D01*
X8601000Y-19575000D02*
X8651000Y-19525000D01*
X8601000Y-19475000D01*
X8551000Y-19525000D01*
X8601000Y-19575000D01*
X8750000Y-19175000D02*
X8800000Y-19125000D01*
X8750000Y-19075000D01*
X8700000Y-19125000D01*
X8750000Y-19175000D01*
X8855000Y-19575000D02*
X8905000Y-19525000D01*
X8855000Y-19475000D01*
X8805000Y-19525000D01*
X8855000Y-19575000D01*
X9000000Y-19175000D02*
X9050000Y-19125000D01*
X9000000Y-19075000D01*
X8950000Y-19125000D01*
X9000000Y-19175000D01*
X9100000Y-15397500D02*
X9150000Y-15347500D01*
X9100000Y-15297500D01*
X9050000Y-15347500D01*
X9100000Y-15397500D01*
X9109000Y-19575000D02*
X9159000Y-19525000D01*
X9109000Y-19475000D01*
X9059000Y-19525000D01*
X9109000Y-19575000D01*
X9350000Y-15397500D02*
X9400000Y-15347500D01*
X9350000Y-15297500D01*
X9300000Y-15347500D01*
X9350000Y-15397500D01*
X9363000Y-19575000D02*
X9413000Y-19525000D01*
X9363000Y-19475000D01*
X9313000Y-19525000D01*
X9363000Y-19575000D01*
X9600000Y-15397500D02*
X9650000Y-15347500D01*
X9600000Y-15297500D01*
X9550000Y-15347500D01*
X9600000Y-15397500D01*
X9617000Y-19575000D02*
X9667000Y-19525000D01*
X9617000Y-19475000D01*
X9567000Y-19525000D01*
X9617000Y-19575000D01*
X9871000Y-19575000D02*
X9921000Y-19525000D01*
X9871000Y-19475000D01*
X9821000Y-19525000D01*
X9871000Y-19575000D01*
X10125000Y-19575000D02*
X10175000Y-19525000D01*
X10125000Y-19475000D01*
X10075000Y-19525000D01*
X10125000Y-19575000D01*
X10367000Y-6696000D02*
X10417000Y-6646000D01*
X10367000Y-6596000D01*
X10317000Y-6646000D01*
X10367000Y-6696000D01*
X10367000Y-6950000D02*
X10417000Y-6900000D01*
X10367000Y-6850000D01*
X10317000Y-6900000D01*
X10367000Y-6950000D01*
X10379000Y-19575000D02*
X10429000Y-19525000D01*
X10379000Y-19475000D01*
X10329000Y-19525000D01*
X10379000Y-19575000D01*
X10621000Y-6696000D02*
X10671000Y-6646000D01*
X10621000Y-6596000D01*
X10571000Y-6646000D01*
X10621000Y-6696000D01*
X10621000Y-6950000D02*
X10671000Y-6900000D01*
X10621000Y-6850000D01*
X10571000Y-6900000D01*
X10621000Y-6950000D01*
X10633000Y-19575000D02*
X10683000Y-19525000D01*
X10633000Y-19475000D01*
X10583000Y-19525000D01*
X10633000Y-19575000D01*
X10875000Y-6696000D02*
X10925000Y-6646000D01*
X10875000Y-6596000D01*
X10825000Y-6646000D01*
X10875000Y-6696000D01*
X10875000Y-6950000D02*
X10925000Y-6900000D01*
X10875000Y-6850000D01*
X10825000Y-6900000D01*
X10875000Y-6950000D01*
X10887000Y-19575000D02*
X10937000Y-19525000D01*
X10887000Y-19475000D01*
X10837000Y-19525000D01*
X10887000Y-19575000D01*
X11000000Y-19175000D02*
X11050000Y-19125000D01*
X11000000Y-19075000D01*
X10950000Y-19125000D01*
X11000000Y-19175000D01*
X11141000Y-19575000D02*
X11191000Y-19525000D01*
X11141000Y-19475000D01*
X11091000Y-19525000D01*
X11141000Y-19575000D01*
X11250000Y-19175000D02*
X11300000Y-19125000D01*
X11250000Y-19075000D01*
X11200000Y-19125000D01*
X11250000Y-19175000D01*
X11395000Y-19575000D02*
X11445000Y-19525000D01*
X11395000Y-19475000D01*
X11345000Y-19525000D01*
X11395000Y-19575000D01*
X11500000Y-19175000D02*
X11550000Y-19125000D01*
X11500000Y-19075000D01*
X11450000Y-19125000D01*
X11500000Y-19175000D01*
X12900000Y-15397500D02*
X12950000Y-15347500D01*
X12900000Y-15297500D01*
X12850000Y-15347500D01*
X12900000Y-15397500D01*
X13150000Y-15397500D02*
X13200000Y-15347500D01*
X13150000Y-15297500D01*
X13100000Y-15347500D01*
X13150000Y-15397500D01*
X13400000Y-15397500D02*
X13450000Y-15347500D01*
X13400000Y-15297500D01*
X13350000Y-15347500D01*
X13400000Y-15397500D01*
X13500000Y-19175000D02*
X13550000Y-19125000D01*
X13500000Y-19075000D01*
X13450000Y-19125000D01*
X13500000Y-19175000D01*
X13750000Y-19175000D02*
X13800000Y-19125000D01*
X13750000Y-19075000D01*
X13700000Y-19125000D01*
X13750000Y-19175000D01*
X14000000Y-19175000D02*
X14050000Y-19125000D01*
X14000000Y-19075000D01*
X13950000Y-19125000D01*
X14000000Y-19175000D01*
D13*
X5345000Y-6362000D02*
X5455000Y-6472000D01*
X5455000Y-6362000D02*
X5345000Y-6472000D01*
X5455000Y-6417000D02*
G75*
G02*
X5345000Y-6417000I-55000J0D01*
G01*
X5345000Y-6417000D02*
G75*
G02*
X5455000Y-6417000I55000J0D01*
G01*
X5345000Y-7378000D02*
X5455000Y-7488000D01*
X5455000Y-7378000D02*
X5345000Y-7488000D01*
X5455000Y-7433000D02*
G75*
G02*
X5345000Y-7433000I-55000J0D01*
G01*
X5345000Y-7433000D02*
G75*
G02*
X5455000Y-7433000I55000J0D01*
G01*
X5845000Y-6362000D02*
X5955000Y-6472000D01*
X5955000Y-6362000D02*
X5845000Y-6472000D01*
X5955000Y-6417000D02*
G75*
G02*
X5845000Y-6417000I-55000J0D01*
G01*
X5845000Y-6417000D02*
G75*
G02*
X5955000Y-6417000I55000J0D01*
G01*
X5845000Y-7378000D02*
X5955000Y-7488000D01*
X5955000Y-7378000D02*
X5845000Y-7488000D01*
X5955000Y-7433000D02*
G75*
G02*
X5845000Y-7433000I-55000J0D01*
G01*
X5845000Y-7433000D02*
G75*
G02*
X5955000Y-7433000I55000J0D01*
G01*
X7560000Y-9145000D02*
X7670000Y-9255000D01*
X7670000Y-9145000D02*
X7560000Y-9255000D01*
X7670000Y-9200000D02*
G75*
G02*
X7560000Y-9200000I-55000J0D01*
G01*
X7560000Y-9200000D02*
G75*
G02*
X7670000Y-9200000I55000J0D01*
G01*
D12*
X7670000Y-9235000D02*
X7670000Y-9165000D01*
X7560000Y-9165000D02*
G75*
G02*
X7670000Y-9165000I55000J0D01*
G01*
X7560000Y-9165000D02*
X7560000Y-9235000D01*
X7560000Y-9235000D02*
G75*
G03*
X7670000Y-9235000I55000J0D01*
G01*
D13*
X8215000Y-18320000D02*
X8325000Y-18430000D01*
X8325000Y-18320000D02*
X8215000Y-18430000D01*
X8325000Y-18375000D02*
G75*
G02*
X8215000Y-18375000I-55000J0D01*
G01*
X8215000Y-18375000D02*
G75*
G02*
X8325000Y-18375000I55000J0D01*
G01*
D12*
X8325000Y-18410000D02*
X8325000Y-18340000D01*
X8215000Y-18340000D02*
G75*
G02*
X8325000Y-18340000I55000J0D01*
G01*
X8215000Y-18340000D02*
X8215000Y-18410000D01*
X8215000Y-18410000D02*
G75*
G03*
X8325000Y-18410000I55000J0D01*
G01*
D13*
X8520000Y-9145000D02*
X8630000Y-9255000D01*
X8630000Y-9145000D02*
X8520000Y-9255000D01*
X8630000Y-9200000D02*
G75*
G02*
X8520000Y-9200000I-55000J0D01*
G01*
X8520000Y-9200000D02*
G75*
G02*
X8630000Y-9200000I55000J0D01*
G01*
D12*
X8630000Y-9235000D02*
X8630000Y-9165000D01*
X8520000Y-9165000D02*
G75*
G02*
X8630000Y-9165000I55000J0D01*
G01*
X8520000Y-9165000D02*
X8520000Y-9235000D01*
X8520000Y-9235000D02*
G75*
G03*
X8630000Y-9235000I55000J0D01*
G01*
D13*
X8815000Y-14542500D02*
X8925000Y-14652500D01*
X8925000Y-14542500D02*
X8815000Y-14652500D01*
X8925000Y-14597500D02*
G75*
G02*
X8815000Y-14597500I-55000J0D01*
G01*
X8815000Y-14597500D02*
G75*
G02*
X8925000Y-14597500I55000J0D01*
G01*
D12*
X8925000Y-14632500D02*
X8925000Y-14562500D01*
X8815000Y-14562500D02*
G75*
G02*
X8925000Y-14562500I55000J0D01*
G01*
X8815000Y-14562500D02*
X8815000Y-14632500D01*
X8815000Y-14632500D02*
G75*
G03*
X8925000Y-14632500I55000J0D01*
G01*
D13*
X9175000Y-18320000D02*
X9285000Y-18430000D01*
X9285000Y-18320000D02*
X9175000Y-18430000D01*
X9285000Y-18375000D02*
G75*
G02*
X9175000Y-18375000I-55000J0D01*
G01*
X9175000Y-18375000D02*
G75*
G02*
X9285000Y-18375000I55000J0D01*
G01*
D12*
X9285000Y-18410000D02*
X9285000Y-18340000D01*
X9175000Y-18340000D02*
G75*
G02*
X9285000Y-18340000I55000J0D01*
G01*
X9175000Y-18340000D02*
X9175000Y-18410000D01*
X9175000Y-18410000D02*
G75*
G03*
X9285000Y-18410000I55000J0D01*
G01*
D13*
X9495000Y-6387000D02*
X9605000Y-6497000D01*
X9605000Y-6387000D02*
X9495000Y-6497000D01*
X9605000Y-6442000D02*
G75*
G02*
X9495000Y-6442000I-55000J0D01*
G01*
X9495000Y-6442000D02*
G75*
G02*
X9605000Y-6442000I55000J0D01*
G01*
X9495000Y-7403000D02*
X9605000Y-7513000D01*
X9605000Y-7403000D02*
X9495000Y-7513000D01*
X9605000Y-7458000D02*
G75*
G02*
X9495000Y-7458000I-55000J0D01*
G01*
X9495000Y-7458000D02*
G75*
G02*
X9605000Y-7458000I55000J0D01*
G01*
X9775000Y-14542500D02*
X9885000Y-14652500D01*
X9885000Y-14542500D02*
X9775000Y-14652500D01*
X9885000Y-14597500D02*
G75*
G02*
X9775000Y-14597500I-55000J0D01*
G01*
X9775000Y-14597500D02*
G75*
G02*
X9885000Y-14597500I55000J0D01*
G01*
D12*
X9885000Y-14632500D02*
X9885000Y-14562500D01*
X9775000Y-14562500D02*
G75*
G02*
X9885000Y-14562500I55000J0D01*
G01*
X9775000Y-14562500D02*
X9775000Y-14632500D01*
X9775000Y-14632500D02*
G75*
G03*
X9885000Y-14632500I55000J0D01*
G01*
D13*
X10715000Y-18320000D02*
X10825000Y-18430000D01*
X10825000Y-18320000D02*
X10715000Y-18430000D01*
X10825000Y-18375000D02*
G75*
G02*
X10715000Y-18375000I-55000J0D01*
G01*
X10715000Y-18375000D02*
G75*
G02*
X10825000Y-18375000I55000J0D01*
G01*
D12*
X10825000Y-18410000D02*
X10825000Y-18340000D01*
X10715000Y-18340000D02*
G75*
G02*
X10825000Y-18340000I55000J0D01*
G01*
X10715000Y-18340000D02*
X10715000Y-18410000D01*
X10715000Y-18410000D02*
G75*
G03*
X10825000Y-18410000I55000J0D01*
G01*
D13*
X11675000Y-18320000D02*
X11785000Y-18430000D01*
X11785000Y-18320000D02*
X11675000Y-18430000D01*
X11785000Y-18375000D02*
G75*
G02*
X11675000Y-18375000I-55000J0D01*
G01*
X11675000Y-18375000D02*
G75*
G02*
X11785000Y-18375000I55000J0D01*
G01*
D12*
X11785000Y-18410000D02*
X11785000Y-18340000D01*
X11675000Y-18340000D02*
G75*
G02*
X11785000Y-18340000I55000J0D01*
G01*
X11675000Y-18340000D02*
X11675000Y-18410000D01*
X11675000Y-18410000D02*
G75*
G03*
X11785000Y-18410000I55000J0D01*
G01*
D13*
X12615000Y-14542500D02*
X12725000Y-14652500D01*
X12725000Y-14542500D02*
X12615000Y-14652500D01*
X12725000Y-14597500D02*
G75*
G02*
X12615000Y-14597500I-55000J0D01*
G01*
X12615000Y-14597500D02*
G75*
G02*
X12725000Y-14597500I55000J0D01*
G01*
D12*
X12725000Y-14632500D02*
X12725000Y-14562500D01*
X12615000Y-14562500D02*
G75*
G02*
X12725000Y-14562500I55000J0D01*
G01*
X12615000Y-14562500D02*
X12615000Y-14632500D01*
X12615000Y-14632500D02*
G75*
G03*
X12725000Y-14632500I55000J0D01*
G01*
D13*
X13215000Y-18320000D02*
X13325000Y-18430000D01*
X13325000Y-18320000D02*
X13215000Y-18430000D01*
X13325000Y-18375000D02*
G75*
G02*
X13215000Y-18375000I-55000J0D01*
G01*
X13215000Y-18375000D02*
G75*
G02*
X13325000Y-18375000I55000J0D01*
G01*
D12*
X13325000Y-18410000D02*
X13325000Y-18340000D01*
X13215000Y-18340000D02*
G75*
G02*
X13325000Y-18340000I55000J0D01*
G01*
X13215000Y-18340000D02*
X13215000Y-18410000D01*
X13215000Y-18410000D02*
G75*
G03*
X13325000Y-18410000I55000J0D01*
G01*
D13*
X13575000Y-14542500D02*
X13685000Y-14652500D01*
X13685000Y-14542500D02*
X13575000Y-14652500D01*
X13685000Y-14597500D02*
G75*
G02*
X13575000Y-14597500I-55000J0D01*
G01*
X13575000Y-14597500D02*
G75*
G02*
X13685000Y-14597500I55000J0D01*
G01*
D12*
X13685000Y-14632500D02*
X13685000Y-14562500D01*
X13575000Y-14562500D02*
G75*
G02*
X13685000Y-14562500I55000J0D01*
G01*
X13575000Y-14562500D02*
X13575000Y-14632500D01*
X13575000Y-14632500D02*
G75*
G03*
X13685000Y-14632500I55000J0D01*
G01*
D13*
X14175000Y-18320000D02*
X14285000Y-18430000D01*
X14285000Y-18320000D02*
X14175000Y-18430000D01*
X14285000Y-18375000D02*
G75*
G02*
X14175000Y-18375000I-55000J0D01*
G01*
X14175000Y-18375000D02*
G75*
G02*
X14285000Y-18375000I55000J0D01*
G01*
D12*
X14285000Y-18410000D02*
X14285000Y-18340000D01*
X14175000Y-18340000D02*
G75*
G02*
X14285000Y-18340000I55000J0D01*
G01*
X14175000Y-18340000D02*
X14175000Y-18410000D01*
X14175000Y-18410000D02*
G75*
G03*
X14285000Y-18410000I55000J0D01*
G01*
D14*
X6175000Y-14055000D02*
X6325000Y-14205000D01*
X6325000Y-14055000D02*
X6175000Y-14205000D01*
X6250000Y-14055000D02*
X6250000Y-14205000D01*
X6175000Y-14130000D02*
X6325000Y-14130000D01*
X6175000Y-14525000D02*
X6325000Y-14675000D01*
X6325000Y-14525000D02*
X6175000Y-14675000D01*
X6250000Y-14525000D02*
X6250000Y-14675000D01*
X6175000Y-14600000D02*
X6325000Y-14600000D01*
X6175000Y-14995000D02*
X6325000Y-15145000D01*
X6325000Y-14995000D02*
X6175000Y-15145000D01*
X6250000Y-14995000D02*
X6250000Y-15145000D01*
X6175000Y-15070000D02*
X6325000Y-15070000D01*
X11875000Y-6655000D02*
X12025000Y-6805000D01*
X12025000Y-6655000D02*
X11875000Y-6805000D01*
X11950000Y-6655000D02*
X11950000Y-6805000D01*
X11875000Y-6730000D02*
X12025000Y-6730000D01*
X11875000Y-7125000D02*
X12025000Y-7275000D01*
X12025000Y-7125000D02*
X11875000Y-7275000D01*
X11950000Y-7125000D02*
X11950000Y-7275000D01*
X11875000Y-7200000D02*
X12025000Y-7200000D01*
X11875000Y-7595000D02*
X12025000Y-7745000D01*
X12025000Y-7595000D02*
X11875000Y-7745000D01*
X11950000Y-7595000D02*
X11950000Y-7745000D01*
X11875000Y-7670000D02*
X12025000Y-7670000D01*
X13875000Y-6655000D02*
X14025000Y-6805000D01*
X14025000Y-6655000D02*
X13875000Y-6805000D01*
X13950000Y-6655000D02*
X13950000Y-6805000D01*
X13875000Y-6730000D02*
X14025000Y-6730000D01*
X13875000Y-7125000D02*
X14025000Y-7275000D01*
X14025000Y-7125000D02*
X13875000Y-7275000D01*
X13950000Y-7125000D02*
X13950000Y-7275000D01*
X13875000Y-7200000D02*
X14025000Y-7200000D01*
X13875000Y-7595000D02*
X14025000Y-7745000D01*
X14025000Y-7595000D02*
X13875000Y-7745000D01*
X13950000Y-7595000D02*
X13950000Y-7745000D01*
X13875000Y-7670000D02*
X14025000Y-7670000D01*
D11*
X5358277Y-20063984D02*
X5358277Y-19863984D01*
X5358277Y-19863984D02*
X5405896Y-19863984D01*
X5405896Y-19863984D02*
X5434467Y-19873508D01*
X5434467Y-19873508D02*
X5453515Y-19892555D01*
X5453515Y-19892555D02*
X5463039Y-19911603D01*
X5463039Y-19911603D02*
X5472563Y-19949698D01*
X5472563Y-19949698D02*
X5472563Y-19978270D01*
X5472563Y-19978270D02*
X5463039Y-20016365D01*
X5463039Y-20016365D02*
X5453515Y-20035412D01*
X5453515Y-20035412D02*
X5434467Y-20054460D01*
X5434467Y-20054460D02*
X5405896Y-20063984D01*
X5405896Y-20063984D02*
X5358277Y-20063984D01*
X5558277Y-20063984D02*
X5558277Y-19930650D01*
X5558277Y-19968746D02*
X5567801Y-19949698D01*
X5567801Y-19949698D02*
X5577324Y-19940174D01*
X5577324Y-19940174D02*
X5596372Y-19930650D01*
X5596372Y-19930650D02*
X5615420Y-19930650D01*
X5682086Y-20063984D02*
X5682086Y-19930650D01*
X5682086Y-19863984D02*
X5672562Y-19873508D01*
X5672562Y-19873508D02*
X5682086Y-19883031D01*
X5682086Y-19883031D02*
X5691610Y-19873508D01*
X5691610Y-19873508D02*
X5682086Y-19863984D01*
X5682086Y-19863984D02*
X5682086Y-19883031D01*
X5805896Y-20063984D02*
X5786848Y-20054460D01*
X5786848Y-20054460D02*
X5777324Y-20035412D01*
X5777324Y-20035412D02*
X5777324Y-19863984D01*
X5910658Y-20063984D02*
X5891610Y-20054460D01*
X5891610Y-20054460D02*
X5882086Y-20035412D01*
X5882086Y-20035412D02*
X5882086Y-19863984D01*
X6139229Y-20063984D02*
X6139229Y-19863984D01*
X6139229Y-19863984D02*
X6205896Y-20006841D01*
X6205896Y-20006841D02*
X6272562Y-19863984D01*
X6272562Y-19863984D02*
X6272562Y-20063984D01*
X6453515Y-20063984D02*
X6453515Y-19959222D01*
X6453515Y-19959222D02*
X6443991Y-19940174D01*
X6443991Y-19940174D02*
X6424943Y-19930650D01*
X6424943Y-19930650D02*
X6386848Y-19930650D01*
X6386848Y-19930650D02*
X6367801Y-19940174D01*
X6453515Y-20054460D02*
X6434467Y-20063984D01*
X6434467Y-20063984D02*
X6386848Y-20063984D01*
X6386848Y-20063984D02*
X6367801Y-20054460D01*
X6367801Y-20054460D02*
X6358277Y-20035412D01*
X6358277Y-20035412D02*
X6358277Y-20016365D01*
X6358277Y-20016365D02*
X6367801Y-19997317D01*
X6367801Y-19997317D02*
X6386848Y-19987793D01*
X6386848Y-19987793D02*
X6434467Y-19987793D01*
X6434467Y-19987793D02*
X6453515Y-19978270D01*
X6548753Y-19930650D02*
X6548753Y-20130650D01*
X6548753Y-19940174D02*
X6567801Y-19930650D01*
X6567801Y-19930650D02*
X6605896Y-19930650D01*
X6605896Y-19930650D02*
X6624943Y-19940174D01*
X6624943Y-19940174D02*
X6634467Y-19949698D01*
X6634467Y-19949698D02*
X6643991Y-19968746D01*
X6643991Y-19968746D02*
X6643991Y-20025889D01*
X6643991Y-20025889D02*
X6634467Y-20044936D01*
X6634467Y-20044936D02*
X6624943Y-20054460D01*
X6624943Y-20054460D02*
X6605896Y-20063984D01*
X6605896Y-20063984D02*
X6567801Y-20063984D01*
X6567801Y-20063984D02*
X6548753Y-20054460D01*
X6729705Y-20044936D02*
X6739229Y-20054460D01*
X6739229Y-20054460D02*
X6729705Y-20063984D01*
X6729705Y-20063984D02*
X6720182Y-20054460D01*
X6720182Y-20054460D02*
X6729705Y-20044936D01*
X6729705Y-20044936D02*
X6729705Y-20063984D01*
X6729705Y-19940174D02*
X6739229Y-19949698D01*
X6739229Y-19949698D02*
X6729705Y-19959222D01*
X6729705Y-19959222D02*
X6720182Y-19949698D01*
X6720182Y-19949698D02*
X6729705Y-19940174D01*
X6729705Y-19940174D02*
X6729705Y-19959222D01*
D12*
X5027500Y-20357500D02*
X5097500Y-20427500D01*
X5097500Y-20357500D02*
X5027500Y-20427500D01*
D11*
X5396372Y-20283984D02*
X5415420Y-20283984D01*
X5415420Y-20283984D02*
X5434467Y-20293508D01*
X5434467Y-20293508D02*
X5443991Y-20303031D01*
X5443991Y-20303031D02*
X5453515Y-20322079D01*
X5453515Y-20322079D02*
X5463039Y-20360174D01*
X5463039Y-20360174D02*
X5463039Y-20407793D01*
X5463039Y-20407793D02*
X5453515Y-20445889D01*
X5453515Y-20445889D02*
X5443991Y-20464936D01*
X5443991Y-20464936D02*
X5434467Y-20474460D01*
X5434467Y-20474460D02*
X5415420Y-20483984D01*
X5415420Y-20483984D02*
X5396372Y-20483984D01*
X5396372Y-20483984D02*
X5377324Y-20474460D01*
X5377324Y-20474460D02*
X5367801Y-20464936D01*
X5367801Y-20464936D02*
X5358277Y-20445889D01*
X5358277Y-20445889D02*
X5348753Y-20407793D01*
X5348753Y-20407793D02*
X5348753Y-20360174D01*
X5348753Y-20360174D02*
X5358277Y-20322079D01*
X5358277Y-20322079D02*
X5367801Y-20303031D01*
X5367801Y-20303031D02*
X5377324Y-20293508D01*
X5377324Y-20293508D02*
X5396372Y-20283984D01*
X5548753Y-20464936D02*
X5558277Y-20474460D01*
X5558277Y-20474460D02*
X5548753Y-20483984D01*
X5548753Y-20483984D02*
X5539229Y-20474460D01*
X5539229Y-20474460D02*
X5548753Y-20464936D01*
X5548753Y-20464936D02*
X5548753Y-20483984D01*
X5624943Y-20283984D02*
X5758277Y-20283984D01*
X5758277Y-20283984D02*
X5672562Y-20483984D01*
X5872562Y-20283984D02*
X5891610Y-20283984D01*
X5891610Y-20283984D02*
X5910658Y-20293508D01*
X5910658Y-20293508D02*
X5920182Y-20303031D01*
X5920182Y-20303031D02*
X5929705Y-20322079D01*
X5929705Y-20322079D02*
X5939229Y-20360174D01*
X5939229Y-20360174D02*
X5939229Y-20407793D01*
X5939229Y-20407793D02*
X5929705Y-20445889D01*
X5929705Y-20445889D02*
X5920182Y-20464936D01*
X5920182Y-20464936D02*
X5910658Y-20474460D01*
X5910658Y-20474460D02*
X5891610Y-20483984D01*
X5891610Y-20483984D02*
X5872562Y-20483984D01*
X5872562Y-20483984D02*
X5853515Y-20474460D01*
X5853515Y-20474460D02*
X5843991Y-20464936D01*
X5843991Y-20464936D02*
X5834467Y-20445889D01*
X5834467Y-20445889D02*
X5824943Y-20407793D01*
X5824943Y-20407793D02*
X5824943Y-20360174D01*
X5824943Y-20360174D02*
X5834467Y-20322079D01*
X5834467Y-20322079D02*
X5843991Y-20303031D01*
X5843991Y-20303031D02*
X5853515Y-20293508D01*
X5853515Y-20293508D02*
X5872562Y-20283984D01*
X6063039Y-20283984D02*
X6082086Y-20283984D01*
X6082086Y-20283984D02*
X6101134Y-20293508D01*
X6101134Y-20293508D02*
X6110658Y-20303031D01*
X6110658Y-20303031D02*
X6120182Y-20322079D01*
X6120182Y-20322079D02*
X6129705Y-20360174D01*
X6129705Y-20360174D02*
X6129705Y-20407793D01*
X6129705Y-20407793D02*
X6120182Y-20445889D01*
X6120182Y-20445889D02*
X6110658Y-20464936D01*
X6110658Y-20464936D02*
X6101134Y-20474460D01*
X6101134Y-20474460D02*
X6082086Y-20483984D01*
X6082086Y-20483984D02*
X6063039Y-20483984D01*
X6063039Y-20483984D02*
X6043991Y-20474460D01*
X6043991Y-20474460D02*
X6034467Y-20464936D01*
X6034467Y-20464936D02*
X6024943Y-20445889D01*
X6024943Y-20445889D02*
X6015420Y-20407793D01*
X6015420Y-20407793D02*
X6015420Y-20360174D01*
X6015420Y-20360174D02*
X6024943Y-20322079D01*
X6024943Y-20322079D02*
X6034467Y-20303031D01*
X6034467Y-20303031D02*
X6043991Y-20293508D01*
X6043991Y-20293508D02*
X6063039Y-20283984D01*
X6215420Y-20483984D02*
X6215420Y-20350650D01*
X6215420Y-20369698D02*
X6224943Y-20360174D01*
X6224943Y-20360174D02*
X6243991Y-20350650D01*
X6243991Y-20350650D02*
X6272563Y-20350650D01*
X6272563Y-20350650D02*
X6291610Y-20360174D01*
X6291610Y-20360174D02*
X6301134Y-20379222D01*
X6301134Y-20379222D02*
X6301134Y-20483984D01*
X6301134Y-20379222D02*
X6310658Y-20360174D01*
X6310658Y-20360174D02*
X6329705Y-20350650D01*
X6329705Y-20350650D02*
X6358277Y-20350650D01*
X6358277Y-20350650D02*
X6377324Y-20360174D01*
X6377324Y-20360174D02*
X6386848Y-20379222D01*
X6386848Y-20379222D02*
X6386848Y-20483984D01*
X6482086Y-20483984D02*
X6482086Y-20350650D01*
X6482086Y-20369698D02*
X6491610Y-20360174D01*
X6491610Y-20360174D02*
X6510658Y-20350650D01*
X6510658Y-20350650D02*
X6539229Y-20350650D01*
X6539229Y-20350650D02*
X6558277Y-20360174D01*
X6558277Y-20360174D02*
X6567801Y-20379222D01*
X6567801Y-20379222D02*
X6567801Y-20483984D01*
X6567801Y-20379222D02*
X6577324Y-20360174D01*
X6577324Y-20360174D02*
X6596372Y-20350650D01*
X6596372Y-20350650D02*
X6624943Y-20350650D01*
X6624943Y-20350650D02*
X6643991Y-20360174D01*
X6643991Y-20360174D02*
X6653515Y-20379222D01*
X6653515Y-20379222D02*
X6653515Y-20483984D01*
X7043991Y-20274460D02*
X6872563Y-20531603D01*
X7301134Y-20283984D02*
X7320182Y-20283984D01*
X7320182Y-20283984D02*
X7339229Y-20293508D01*
X7339229Y-20293508D02*
X7348753Y-20303031D01*
X7348753Y-20303031D02*
X7358277Y-20322079D01*
X7358277Y-20322079D02*
X7367801Y-20360174D01*
X7367801Y-20360174D02*
X7367801Y-20407793D01*
X7367801Y-20407793D02*
X7358277Y-20445889D01*
X7358277Y-20445889D02*
X7348753Y-20464936D01*
X7348753Y-20464936D02*
X7339229Y-20474460D01*
X7339229Y-20474460D02*
X7320182Y-20483984D01*
X7320182Y-20483984D02*
X7301134Y-20483984D01*
X7301134Y-20483984D02*
X7282086Y-20474460D01*
X7282086Y-20474460D02*
X7272563Y-20464936D01*
X7272563Y-20464936D02*
X7263039Y-20445889D01*
X7263039Y-20445889D02*
X7253515Y-20407793D01*
X7253515Y-20407793D02*
X7253515Y-20360174D01*
X7253515Y-20360174D02*
X7263039Y-20322079D01*
X7263039Y-20322079D02*
X7272563Y-20303031D01*
X7272563Y-20303031D02*
X7282086Y-20293508D01*
X7282086Y-20293508D02*
X7301134Y-20283984D01*
X7453515Y-20464936D02*
X7463039Y-20474460D01*
X7463039Y-20474460D02*
X7453515Y-20483984D01*
X7453515Y-20483984D02*
X7443991Y-20474460D01*
X7443991Y-20474460D02*
X7453515Y-20464936D01*
X7453515Y-20464936D02*
X7453515Y-20483984D01*
X7586848Y-20283984D02*
X7605896Y-20283984D01*
X7605896Y-20283984D02*
X7624944Y-20293508D01*
X7624944Y-20293508D02*
X7634467Y-20303031D01*
X7634467Y-20303031D02*
X7643991Y-20322079D01*
X7643991Y-20322079D02*
X7653515Y-20360174D01*
X7653515Y-20360174D02*
X7653515Y-20407793D01*
X7653515Y-20407793D02*
X7643991Y-20445889D01*
X7643991Y-20445889D02*
X7634467Y-20464936D01*
X7634467Y-20464936D02*
X7624944Y-20474460D01*
X7624944Y-20474460D02*
X7605896Y-20483984D01*
X7605896Y-20483984D02*
X7586848Y-20483984D01*
X7586848Y-20483984D02*
X7567801Y-20474460D01*
X7567801Y-20474460D02*
X7558277Y-20464936D01*
X7558277Y-20464936D02*
X7548753Y-20445889D01*
X7548753Y-20445889D02*
X7539229Y-20407793D01*
X7539229Y-20407793D02*
X7539229Y-20360174D01*
X7539229Y-20360174D02*
X7548753Y-20322079D01*
X7548753Y-20322079D02*
X7558277Y-20303031D01*
X7558277Y-20303031D02*
X7567801Y-20293508D01*
X7567801Y-20293508D02*
X7586848Y-20283984D01*
X7729706Y-20303031D02*
X7739229Y-20293508D01*
X7739229Y-20293508D02*
X7758277Y-20283984D01*
X7758277Y-20283984D02*
X7805896Y-20283984D01*
X7805896Y-20283984D02*
X7824944Y-20293508D01*
X7824944Y-20293508D02*
X7834467Y-20303031D01*
X7834467Y-20303031D02*
X7843991Y-20322079D01*
X7843991Y-20322079D02*
X7843991Y-20341127D01*
X7843991Y-20341127D02*
X7834467Y-20369698D01*
X7834467Y-20369698D02*
X7720182Y-20483984D01*
X7720182Y-20483984D02*
X7843991Y-20483984D01*
X7910658Y-20283984D02*
X8043991Y-20283984D01*
X8043991Y-20283984D02*
X7958277Y-20483984D01*
X8205896Y-20283984D02*
X8167801Y-20283984D01*
X8167801Y-20283984D02*
X8148753Y-20293508D01*
X8148753Y-20293508D02*
X8139229Y-20303031D01*
X8139229Y-20303031D02*
X8120182Y-20331603D01*
X8120182Y-20331603D02*
X8110658Y-20369698D01*
X8110658Y-20369698D02*
X8110658Y-20445889D01*
X8110658Y-20445889D02*
X8120182Y-20464936D01*
X8120182Y-20464936D02*
X8129706Y-20474460D01*
X8129706Y-20474460D02*
X8148753Y-20483984D01*
X8148753Y-20483984D02*
X8186848Y-20483984D01*
X8186848Y-20483984D02*
X8205896Y-20474460D01*
X8205896Y-20474460D02*
X8215420Y-20464936D01*
X8215420Y-20464936D02*
X8224944Y-20445889D01*
X8224944Y-20445889D02*
X8224944Y-20398270D01*
X8224944Y-20398270D02*
X8215420Y-20379222D01*
X8215420Y-20379222D02*
X8205896Y-20369698D01*
X8205896Y-20369698D02*
X8186848Y-20360174D01*
X8186848Y-20360174D02*
X8148753Y-20360174D01*
X8148753Y-20360174D02*
X8129706Y-20369698D01*
X8129706Y-20369698D02*
X8120182Y-20379222D01*
X8120182Y-20379222D02*
X8110658Y-20398270D01*
X8301134Y-20283984D02*
X8301134Y-20322079D01*
X8377325Y-20283984D02*
X8377325Y-20322079D01*
X8672563Y-20560174D02*
X8663039Y-20550650D01*
X8663039Y-20550650D02*
X8643991Y-20522079D01*
X8643991Y-20522079D02*
X8634468Y-20503031D01*
X8634468Y-20503031D02*
X8624944Y-20474460D01*
X8624944Y-20474460D02*
X8615420Y-20426841D01*
X8615420Y-20426841D02*
X8615420Y-20388746D01*
X8615420Y-20388746D02*
X8624944Y-20341127D01*
X8624944Y-20341127D02*
X8634468Y-20312555D01*
X8634468Y-20312555D02*
X8643991Y-20293508D01*
X8643991Y-20293508D02*
X8663039Y-20264936D01*
X8663039Y-20264936D02*
X8672563Y-20255412D01*
X8853515Y-20483984D02*
X8739230Y-20483984D01*
X8796372Y-20483984D02*
X8796372Y-20283984D01*
X8796372Y-20283984D02*
X8777325Y-20312555D01*
X8777325Y-20312555D02*
X8758277Y-20331603D01*
X8758277Y-20331603D02*
X8739230Y-20341127D01*
X8929706Y-20303031D02*
X8939230Y-20293508D01*
X8939230Y-20293508D02*
X8958277Y-20283984D01*
X8958277Y-20283984D02*
X9005896Y-20283984D01*
X9005896Y-20283984D02*
X9024944Y-20293508D01*
X9024944Y-20293508D02*
X9034468Y-20303031D01*
X9034468Y-20303031D02*
X9043991Y-20322079D01*
X9043991Y-20322079D02*
X9043991Y-20341127D01*
X9043991Y-20341127D02*
X9034468Y-20369698D01*
X9034468Y-20369698D02*
X8920182Y-20483984D01*
X8920182Y-20483984D02*
X9043991Y-20483984D01*
X9282087Y-20483984D02*
X9282087Y-20283984D01*
X9367801Y-20483984D02*
X9367801Y-20379222D01*
X9367801Y-20379222D02*
X9358277Y-20360174D01*
X9358277Y-20360174D02*
X9339230Y-20350650D01*
X9339230Y-20350650D02*
X9310658Y-20350650D01*
X9310658Y-20350650D02*
X9291611Y-20360174D01*
X9291611Y-20360174D02*
X9282087Y-20369698D01*
X9491611Y-20483984D02*
X9472563Y-20474460D01*
X9472563Y-20474460D02*
X9463039Y-20464936D01*
X9463039Y-20464936D02*
X9453515Y-20445889D01*
X9453515Y-20445889D02*
X9453515Y-20388746D01*
X9453515Y-20388746D02*
X9463039Y-20369698D01*
X9463039Y-20369698D02*
X9472563Y-20360174D01*
X9472563Y-20360174D02*
X9491611Y-20350650D01*
X9491611Y-20350650D02*
X9520182Y-20350650D01*
X9520182Y-20350650D02*
X9539230Y-20360174D01*
X9539230Y-20360174D02*
X9548753Y-20369698D01*
X9548753Y-20369698D02*
X9558277Y-20388746D01*
X9558277Y-20388746D02*
X9558277Y-20445889D01*
X9558277Y-20445889D02*
X9548753Y-20464936D01*
X9548753Y-20464936D02*
X9539230Y-20474460D01*
X9539230Y-20474460D02*
X9520182Y-20483984D01*
X9520182Y-20483984D02*
X9491611Y-20483984D01*
X9672563Y-20483984D02*
X9653515Y-20474460D01*
X9653515Y-20474460D02*
X9643992Y-20455412D01*
X9643992Y-20455412D02*
X9643992Y-20283984D01*
X9824944Y-20474460D02*
X9805896Y-20483984D01*
X9805896Y-20483984D02*
X9767801Y-20483984D01*
X9767801Y-20483984D02*
X9748753Y-20474460D01*
X9748753Y-20474460D02*
X9739230Y-20455412D01*
X9739230Y-20455412D02*
X9739230Y-20379222D01*
X9739230Y-20379222D02*
X9748753Y-20360174D01*
X9748753Y-20360174D02*
X9767801Y-20350650D01*
X9767801Y-20350650D02*
X9805896Y-20350650D01*
X9805896Y-20350650D02*
X9824944Y-20360174D01*
X9824944Y-20360174D02*
X9834468Y-20379222D01*
X9834468Y-20379222D02*
X9834468Y-20398270D01*
X9834468Y-20398270D02*
X9739230Y-20417317D01*
X9910658Y-20474460D02*
X9929706Y-20483984D01*
X9929706Y-20483984D02*
X9967801Y-20483984D01*
X9967801Y-20483984D02*
X9986849Y-20474460D01*
X9986849Y-20474460D02*
X9996373Y-20455412D01*
X9996373Y-20455412D02*
X9996373Y-20445889D01*
X9996373Y-20445889D02*
X9986849Y-20426841D01*
X9986849Y-20426841D02*
X9967801Y-20417317D01*
X9967801Y-20417317D02*
X9939230Y-20417317D01*
X9939230Y-20417317D02*
X9920182Y-20407793D01*
X9920182Y-20407793D02*
X9910658Y-20388746D01*
X9910658Y-20388746D02*
X9910658Y-20379222D01*
X9910658Y-20379222D02*
X9920182Y-20360174D01*
X9920182Y-20360174D02*
X9939230Y-20350650D01*
X9939230Y-20350650D02*
X9967801Y-20350650D01*
X9967801Y-20350650D02*
X9986849Y-20360174D01*
X10063039Y-20560174D02*
X10072563Y-20550650D01*
X10072563Y-20550650D02*
X10091611Y-20522079D01*
X10091611Y-20522079D02*
X10101134Y-20503031D01*
X10101134Y-20503031D02*
X10110658Y-20474460D01*
X10110658Y-20474460D02*
X10120182Y-20426841D01*
X10120182Y-20426841D02*
X10120182Y-20388746D01*
X10120182Y-20388746D02*
X10110658Y-20341127D01*
X10110658Y-20341127D02*
X10101134Y-20312555D01*
X10101134Y-20312555D02*
X10091611Y-20293508D01*
X10091611Y-20293508D02*
X10072563Y-20264936D01*
X10072563Y-20264936D02*
X10063039Y-20255412D01*
D12*
X5097500Y-20656500D02*
G75*
G02*
X5022500Y-20656500I-37500J0D01*
G01*
X5022500Y-20656500D02*
G75*
G02*
X5097500Y-20656500I37500J0D01*
G01*
D11*
X5396372Y-20547984D02*
X5415420Y-20547984D01*
X5415420Y-20547984D02*
X5434467Y-20557508D01*
X5434467Y-20557508D02*
X5443991Y-20567031D01*
X5443991Y-20567031D02*
X5453515Y-20586079D01*
X5453515Y-20586079D02*
X5463039Y-20624174D01*
X5463039Y-20624174D02*
X5463039Y-20671793D01*
X5463039Y-20671793D02*
X5453515Y-20709889D01*
X5453515Y-20709889D02*
X5443991Y-20728936D01*
X5443991Y-20728936D02*
X5434467Y-20738460D01*
X5434467Y-20738460D02*
X5415420Y-20747984D01*
X5415420Y-20747984D02*
X5396372Y-20747984D01*
X5396372Y-20747984D02*
X5377324Y-20738460D01*
X5377324Y-20738460D02*
X5367801Y-20728936D01*
X5367801Y-20728936D02*
X5358277Y-20709889D01*
X5358277Y-20709889D02*
X5348753Y-20671793D01*
X5348753Y-20671793D02*
X5348753Y-20624174D01*
X5348753Y-20624174D02*
X5358277Y-20586079D01*
X5358277Y-20586079D02*
X5367801Y-20567031D01*
X5367801Y-20567031D02*
X5377324Y-20557508D01*
X5377324Y-20557508D02*
X5396372Y-20547984D01*
X5548753Y-20728936D02*
X5558277Y-20738460D01*
X5558277Y-20738460D02*
X5548753Y-20747984D01*
X5548753Y-20747984D02*
X5539229Y-20738460D01*
X5539229Y-20738460D02*
X5548753Y-20728936D01*
X5548753Y-20728936D02*
X5548753Y-20747984D01*
X5624943Y-20547984D02*
X5758277Y-20547984D01*
X5758277Y-20547984D02*
X5672562Y-20747984D01*
X5929705Y-20547984D02*
X5834467Y-20547984D01*
X5834467Y-20547984D02*
X5824943Y-20643222D01*
X5824943Y-20643222D02*
X5834467Y-20633698D01*
X5834467Y-20633698D02*
X5853515Y-20624174D01*
X5853515Y-20624174D02*
X5901134Y-20624174D01*
X5901134Y-20624174D02*
X5920182Y-20633698D01*
X5920182Y-20633698D02*
X5929705Y-20643222D01*
X5929705Y-20643222D02*
X5939229Y-20662270D01*
X5939229Y-20662270D02*
X5939229Y-20709889D01*
X5939229Y-20709889D02*
X5929705Y-20728936D01*
X5929705Y-20728936D02*
X5920182Y-20738460D01*
X5920182Y-20738460D02*
X5901134Y-20747984D01*
X5901134Y-20747984D02*
X5853515Y-20747984D01*
X5853515Y-20747984D02*
X5834467Y-20738460D01*
X5834467Y-20738460D02*
X5824943Y-20728936D01*
X6063039Y-20547984D02*
X6082086Y-20547984D01*
X6082086Y-20547984D02*
X6101134Y-20557508D01*
X6101134Y-20557508D02*
X6110658Y-20567031D01*
X6110658Y-20567031D02*
X6120182Y-20586079D01*
X6120182Y-20586079D02*
X6129705Y-20624174D01*
X6129705Y-20624174D02*
X6129705Y-20671793D01*
X6129705Y-20671793D02*
X6120182Y-20709889D01*
X6120182Y-20709889D02*
X6110658Y-20728936D01*
X6110658Y-20728936D02*
X6101134Y-20738460D01*
X6101134Y-20738460D02*
X6082086Y-20747984D01*
X6082086Y-20747984D02*
X6063039Y-20747984D01*
X6063039Y-20747984D02*
X6043991Y-20738460D01*
X6043991Y-20738460D02*
X6034467Y-20728936D01*
X6034467Y-20728936D02*
X6024943Y-20709889D01*
X6024943Y-20709889D02*
X6015420Y-20671793D01*
X6015420Y-20671793D02*
X6015420Y-20624174D01*
X6015420Y-20624174D02*
X6024943Y-20586079D01*
X6024943Y-20586079D02*
X6034467Y-20567031D01*
X6034467Y-20567031D02*
X6043991Y-20557508D01*
X6043991Y-20557508D02*
X6063039Y-20547984D01*
X6215420Y-20747984D02*
X6215420Y-20614650D01*
X6215420Y-20633698D02*
X6224943Y-20624174D01*
X6224943Y-20624174D02*
X6243991Y-20614650D01*
X6243991Y-20614650D02*
X6272563Y-20614650D01*
X6272563Y-20614650D02*
X6291610Y-20624174D01*
X6291610Y-20624174D02*
X6301134Y-20643222D01*
X6301134Y-20643222D02*
X6301134Y-20747984D01*
X6301134Y-20643222D02*
X6310658Y-20624174D01*
X6310658Y-20624174D02*
X6329705Y-20614650D01*
X6329705Y-20614650D02*
X6358277Y-20614650D01*
X6358277Y-20614650D02*
X6377324Y-20624174D01*
X6377324Y-20624174D02*
X6386848Y-20643222D01*
X6386848Y-20643222D02*
X6386848Y-20747984D01*
X6482086Y-20747984D02*
X6482086Y-20614650D01*
X6482086Y-20633698D02*
X6491610Y-20624174D01*
X6491610Y-20624174D02*
X6510658Y-20614650D01*
X6510658Y-20614650D02*
X6539229Y-20614650D01*
X6539229Y-20614650D02*
X6558277Y-20624174D01*
X6558277Y-20624174D02*
X6567801Y-20643222D01*
X6567801Y-20643222D02*
X6567801Y-20747984D01*
X6567801Y-20643222D02*
X6577324Y-20624174D01*
X6577324Y-20624174D02*
X6596372Y-20614650D01*
X6596372Y-20614650D02*
X6624943Y-20614650D01*
X6624943Y-20614650D02*
X6643991Y-20624174D01*
X6643991Y-20624174D02*
X6653515Y-20643222D01*
X6653515Y-20643222D02*
X6653515Y-20747984D01*
X7043991Y-20538460D02*
X6872563Y-20795603D01*
X7301134Y-20547984D02*
X7320182Y-20547984D01*
X7320182Y-20547984D02*
X7339229Y-20557508D01*
X7339229Y-20557508D02*
X7348753Y-20567031D01*
X7348753Y-20567031D02*
X7358277Y-20586079D01*
X7358277Y-20586079D02*
X7367801Y-20624174D01*
X7367801Y-20624174D02*
X7367801Y-20671793D01*
X7367801Y-20671793D02*
X7358277Y-20709889D01*
X7358277Y-20709889D02*
X7348753Y-20728936D01*
X7348753Y-20728936D02*
X7339229Y-20738460D01*
X7339229Y-20738460D02*
X7320182Y-20747984D01*
X7320182Y-20747984D02*
X7301134Y-20747984D01*
X7301134Y-20747984D02*
X7282086Y-20738460D01*
X7282086Y-20738460D02*
X7272563Y-20728936D01*
X7272563Y-20728936D02*
X7263039Y-20709889D01*
X7263039Y-20709889D02*
X7253515Y-20671793D01*
X7253515Y-20671793D02*
X7253515Y-20624174D01*
X7253515Y-20624174D02*
X7263039Y-20586079D01*
X7263039Y-20586079D02*
X7272563Y-20567031D01*
X7272563Y-20567031D02*
X7282086Y-20557508D01*
X7282086Y-20557508D02*
X7301134Y-20547984D01*
X7453515Y-20728936D02*
X7463039Y-20738460D01*
X7463039Y-20738460D02*
X7453515Y-20747984D01*
X7453515Y-20747984D02*
X7443991Y-20738460D01*
X7443991Y-20738460D02*
X7453515Y-20728936D01*
X7453515Y-20728936D02*
X7453515Y-20747984D01*
X7586848Y-20547984D02*
X7605896Y-20547984D01*
X7605896Y-20547984D02*
X7624944Y-20557508D01*
X7624944Y-20557508D02*
X7634467Y-20567031D01*
X7634467Y-20567031D02*
X7643991Y-20586079D01*
X7643991Y-20586079D02*
X7653515Y-20624174D01*
X7653515Y-20624174D02*
X7653515Y-20671793D01*
X7653515Y-20671793D02*
X7643991Y-20709889D01*
X7643991Y-20709889D02*
X7634467Y-20728936D01*
X7634467Y-20728936D02*
X7624944Y-20738460D01*
X7624944Y-20738460D02*
X7605896Y-20747984D01*
X7605896Y-20747984D02*
X7586848Y-20747984D01*
X7586848Y-20747984D02*
X7567801Y-20738460D01*
X7567801Y-20738460D02*
X7558277Y-20728936D01*
X7558277Y-20728936D02*
X7548753Y-20709889D01*
X7548753Y-20709889D02*
X7539229Y-20671793D01*
X7539229Y-20671793D02*
X7539229Y-20624174D01*
X7539229Y-20624174D02*
X7548753Y-20586079D01*
X7548753Y-20586079D02*
X7558277Y-20567031D01*
X7558277Y-20567031D02*
X7567801Y-20557508D01*
X7567801Y-20557508D02*
X7586848Y-20547984D01*
X7729706Y-20567031D02*
X7739229Y-20557508D01*
X7739229Y-20557508D02*
X7758277Y-20547984D01*
X7758277Y-20547984D02*
X7805896Y-20547984D01*
X7805896Y-20547984D02*
X7824944Y-20557508D01*
X7824944Y-20557508D02*
X7834467Y-20567031D01*
X7834467Y-20567031D02*
X7843991Y-20586079D01*
X7843991Y-20586079D02*
X7843991Y-20605127D01*
X7843991Y-20605127D02*
X7834467Y-20633698D01*
X7834467Y-20633698D02*
X7720182Y-20747984D01*
X7720182Y-20747984D02*
X7843991Y-20747984D01*
X7939229Y-20747984D02*
X7977325Y-20747984D01*
X7977325Y-20747984D02*
X7996372Y-20738460D01*
X7996372Y-20738460D02*
X8005896Y-20728936D01*
X8005896Y-20728936D02*
X8024944Y-20700365D01*
X8024944Y-20700365D02*
X8034467Y-20662270D01*
X8034467Y-20662270D02*
X8034467Y-20586079D01*
X8034467Y-20586079D02*
X8024944Y-20567031D01*
X8024944Y-20567031D02*
X8015420Y-20557508D01*
X8015420Y-20557508D02*
X7996372Y-20547984D01*
X7996372Y-20547984D02*
X7958277Y-20547984D01*
X7958277Y-20547984D02*
X7939229Y-20557508D01*
X7939229Y-20557508D02*
X7929706Y-20567031D01*
X7929706Y-20567031D02*
X7920182Y-20586079D01*
X7920182Y-20586079D02*
X7920182Y-20633698D01*
X7920182Y-20633698D02*
X7929706Y-20652746D01*
X7929706Y-20652746D02*
X7939229Y-20662270D01*
X7939229Y-20662270D02*
X7958277Y-20671793D01*
X7958277Y-20671793D02*
X7996372Y-20671793D01*
X7996372Y-20671793D02*
X8015420Y-20662270D01*
X8015420Y-20662270D02*
X8024944Y-20652746D01*
X8024944Y-20652746D02*
X8034467Y-20633698D01*
X8215420Y-20547984D02*
X8120182Y-20547984D01*
X8120182Y-20547984D02*
X8110658Y-20643222D01*
X8110658Y-20643222D02*
X8120182Y-20633698D01*
X8120182Y-20633698D02*
X8139229Y-20624174D01*
X8139229Y-20624174D02*
X8186848Y-20624174D01*
X8186848Y-20624174D02*
X8205896Y-20633698D01*
X8205896Y-20633698D02*
X8215420Y-20643222D01*
X8215420Y-20643222D02*
X8224944Y-20662270D01*
X8224944Y-20662270D02*
X8224944Y-20709889D01*
X8224944Y-20709889D02*
X8215420Y-20728936D01*
X8215420Y-20728936D02*
X8205896Y-20738460D01*
X8205896Y-20738460D02*
X8186848Y-20747984D01*
X8186848Y-20747984D02*
X8139229Y-20747984D01*
X8139229Y-20747984D02*
X8120182Y-20738460D01*
X8120182Y-20738460D02*
X8110658Y-20728936D01*
X8301134Y-20547984D02*
X8301134Y-20586079D01*
X8377325Y-20547984D02*
X8377325Y-20586079D01*
X8672563Y-20824174D02*
X8663039Y-20814650D01*
X8663039Y-20814650D02*
X8643991Y-20786079D01*
X8643991Y-20786079D02*
X8634468Y-20767031D01*
X8634468Y-20767031D02*
X8624944Y-20738460D01*
X8624944Y-20738460D02*
X8615420Y-20690841D01*
X8615420Y-20690841D02*
X8615420Y-20652746D01*
X8615420Y-20652746D02*
X8624944Y-20605127D01*
X8624944Y-20605127D02*
X8634468Y-20576555D01*
X8634468Y-20576555D02*
X8643991Y-20557508D01*
X8643991Y-20557508D02*
X8663039Y-20528936D01*
X8663039Y-20528936D02*
X8672563Y-20519412D01*
X8729706Y-20547984D02*
X8853515Y-20547984D01*
X8853515Y-20547984D02*
X8786849Y-20624174D01*
X8786849Y-20624174D02*
X8815420Y-20624174D01*
X8815420Y-20624174D02*
X8834468Y-20633698D01*
X8834468Y-20633698D02*
X8843991Y-20643222D01*
X8843991Y-20643222D02*
X8853515Y-20662270D01*
X8853515Y-20662270D02*
X8853515Y-20709889D01*
X8853515Y-20709889D02*
X8843991Y-20728936D01*
X8843991Y-20728936D02*
X8834468Y-20738460D01*
X8834468Y-20738460D02*
X8815420Y-20747984D01*
X8815420Y-20747984D02*
X8758277Y-20747984D01*
X8758277Y-20747984D02*
X8739230Y-20738460D01*
X8739230Y-20738460D02*
X8729706Y-20728936D01*
X9091611Y-20747984D02*
X9091611Y-20547984D01*
X9177325Y-20747984D02*
X9177325Y-20643222D01*
X9177325Y-20643222D02*
X9167801Y-20624174D01*
X9167801Y-20624174D02*
X9148753Y-20614650D01*
X9148753Y-20614650D02*
X9120182Y-20614650D01*
X9120182Y-20614650D02*
X9101134Y-20624174D01*
X9101134Y-20624174D02*
X9091611Y-20633698D01*
X9301134Y-20747984D02*
X9282087Y-20738460D01*
X9282087Y-20738460D02*
X9272563Y-20728936D01*
X9272563Y-20728936D02*
X9263039Y-20709889D01*
X9263039Y-20709889D02*
X9263039Y-20652746D01*
X9263039Y-20652746D02*
X9272563Y-20633698D01*
X9272563Y-20633698D02*
X9282087Y-20624174D01*
X9282087Y-20624174D02*
X9301134Y-20614650D01*
X9301134Y-20614650D02*
X9329706Y-20614650D01*
X9329706Y-20614650D02*
X9348753Y-20624174D01*
X9348753Y-20624174D02*
X9358277Y-20633698D01*
X9358277Y-20633698D02*
X9367801Y-20652746D01*
X9367801Y-20652746D02*
X9367801Y-20709889D01*
X9367801Y-20709889D02*
X9358277Y-20728936D01*
X9358277Y-20728936D02*
X9348753Y-20738460D01*
X9348753Y-20738460D02*
X9329706Y-20747984D01*
X9329706Y-20747984D02*
X9301134Y-20747984D01*
X9482087Y-20747984D02*
X9463039Y-20738460D01*
X9463039Y-20738460D02*
X9453515Y-20719412D01*
X9453515Y-20719412D02*
X9453515Y-20547984D01*
X9634468Y-20738460D02*
X9615420Y-20747984D01*
X9615420Y-20747984D02*
X9577325Y-20747984D01*
X9577325Y-20747984D02*
X9558277Y-20738460D01*
X9558277Y-20738460D02*
X9548753Y-20719412D01*
X9548753Y-20719412D02*
X9548753Y-20643222D01*
X9548753Y-20643222D02*
X9558277Y-20624174D01*
X9558277Y-20624174D02*
X9577325Y-20614650D01*
X9577325Y-20614650D02*
X9615420Y-20614650D01*
X9615420Y-20614650D02*
X9634468Y-20624174D01*
X9634468Y-20624174D02*
X9643992Y-20643222D01*
X9643992Y-20643222D02*
X9643992Y-20662270D01*
X9643992Y-20662270D02*
X9548753Y-20681317D01*
X9720182Y-20738460D02*
X9739230Y-20747984D01*
X9739230Y-20747984D02*
X9777325Y-20747984D01*
X9777325Y-20747984D02*
X9796373Y-20738460D01*
X9796373Y-20738460D02*
X9805896Y-20719412D01*
X9805896Y-20719412D02*
X9805896Y-20709889D01*
X9805896Y-20709889D02*
X9796373Y-20690841D01*
X9796373Y-20690841D02*
X9777325Y-20681317D01*
X9777325Y-20681317D02*
X9748753Y-20681317D01*
X9748753Y-20681317D02*
X9729706Y-20671793D01*
X9729706Y-20671793D02*
X9720182Y-20652746D01*
X9720182Y-20652746D02*
X9720182Y-20643222D01*
X9720182Y-20643222D02*
X9729706Y-20624174D01*
X9729706Y-20624174D02*
X9748753Y-20614650D01*
X9748753Y-20614650D02*
X9777325Y-20614650D01*
X9777325Y-20614650D02*
X9796373Y-20624174D01*
X9872563Y-20824174D02*
X9882087Y-20814650D01*
X9882087Y-20814650D02*
X9901134Y-20786079D01*
X9901134Y-20786079D02*
X9910658Y-20767031D01*
X9910658Y-20767031D02*
X9920182Y-20738460D01*
X9920182Y-20738460D02*
X9929706Y-20690841D01*
X9929706Y-20690841D02*
X9929706Y-20652746D01*
X9929706Y-20652746D02*
X9920182Y-20605127D01*
X9920182Y-20605127D02*
X9910658Y-20576555D01*
X9910658Y-20576555D02*
X9901134Y-20557508D01*
X9901134Y-20557508D02*
X9882087Y-20528936D01*
X9882087Y-20528936D02*
X9872563Y-20519412D01*
D12*
X5057500Y-20880500D02*
X5057500Y-20960500D01*
X5017500Y-20920500D02*
X5097500Y-20920500D01*
D11*
X5396372Y-20811984D02*
X5415420Y-20811984D01*
X5415420Y-20811984D02*
X5434467Y-20821508D01*
X5434467Y-20821508D02*
X5443991Y-20831031D01*
X5443991Y-20831031D02*
X5453515Y-20850079D01*
X5453515Y-20850079D02*
X5463039Y-20888174D01*
X5463039Y-20888174D02*
X5463039Y-20935793D01*
X5463039Y-20935793D02*
X5453515Y-20973889D01*
X5453515Y-20973889D02*
X5443991Y-20992936D01*
X5443991Y-20992936D02*
X5434467Y-21002460D01*
X5434467Y-21002460D02*
X5415420Y-21011984D01*
X5415420Y-21011984D02*
X5396372Y-21011984D01*
X5396372Y-21011984D02*
X5377324Y-21002460D01*
X5377324Y-21002460D02*
X5367801Y-20992936D01*
X5367801Y-20992936D02*
X5358277Y-20973889D01*
X5358277Y-20973889D02*
X5348753Y-20935793D01*
X5348753Y-20935793D02*
X5348753Y-20888174D01*
X5348753Y-20888174D02*
X5358277Y-20850079D01*
X5358277Y-20850079D02*
X5367801Y-20831031D01*
X5367801Y-20831031D02*
X5377324Y-20821508D01*
X5377324Y-20821508D02*
X5396372Y-20811984D01*
X5548753Y-20992936D02*
X5558277Y-21002460D01*
X5558277Y-21002460D02*
X5548753Y-21011984D01*
X5548753Y-21011984D02*
X5539229Y-21002460D01*
X5539229Y-21002460D02*
X5548753Y-20992936D01*
X5548753Y-20992936D02*
X5548753Y-21011984D01*
X5672562Y-20897698D02*
X5653515Y-20888174D01*
X5653515Y-20888174D02*
X5643991Y-20878650D01*
X5643991Y-20878650D02*
X5634467Y-20859603D01*
X5634467Y-20859603D02*
X5634467Y-20850079D01*
X5634467Y-20850079D02*
X5643991Y-20831031D01*
X5643991Y-20831031D02*
X5653515Y-20821508D01*
X5653515Y-20821508D02*
X5672562Y-20811984D01*
X5672562Y-20811984D02*
X5710658Y-20811984D01*
X5710658Y-20811984D02*
X5729705Y-20821508D01*
X5729705Y-20821508D02*
X5739229Y-20831031D01*
X5739229Y-20831031D02*
X5748753Y-20850079D01*
X5748753Y-20850079D02*
X5748753Y-20859603D01*
X5748753Y-20859603D02*
X5739229Y-20878650D01*
X5739229Y-20878650D02*
X5729705Y-20888174D01*
X5729705Y-20888174D02*
X5710658Y-20897698D01*
X5710658Y-20897698D02*
X5672562Y-20897698D01*
X5672562Y-20897698D02*
X5653515Y-20907222D01*
X5653515Y-20907222D02*
X5643991Y-20916746D01*
X5643991Y-20916746D02*
X5634467Y-20935793D01*
X5634467Y-20935793D02*
X5634467Y-20973889D01*
X5634467Y-20973889D02*
X5643991Y-20992936D01*
X5643991Y-20992936D02*
X5653515Y-21002460D01*
X5653515Y-21002460D02*
X5672562Y-21011984D01*
X5672562Y-21011984D02*
X5710658Y-21011984D01*
X5710658Y-21011984D02*
X5729705Y-21002460D01*
X5729705Y-21002460D02*
X5739229Y-20992936D01*
X5739229Y-20992936D02*
X5748753Y-20973889D01*
X5748753Y-20973889D02*
X5748753Y-20935793D01*
X5748753Y-20935793D02*
X5739229Y-20916746D01*
X5739229Y-20916746D02*
X5729705Y-20907222D01*
X5729705Y-20907222D02*
X5710658Y-20897698D01*
X5872562Y-20811984D02*
X5891610Y-20811984D01*
X5891610Y-20811984D02*
X5910658Y-20821508D01*
X5910658Y-20821508D02*
X5920182Y-20831031D01*
X5920182Y-20831031D02*
X5929705Y-20850079D01*
X5929705Y-20850079D02*
X5939229Y-20888174D01*
X5939229Y-20888174D02*
X5939229Y-20935793D01*
X5939229Y-20935793D02*
X5929705Y-20973889D01*
X5929705Y-20973889D02*
X5920182Y-20992936D01*
X5920182Y-20992936D02*
X5910658Y-21002460D01*
X5910658Y-21002460D02*
X5891610Y-21011984D01*
X5891610Y-21011984D02*
X5872562Y-21011984D01*
X5872562Y-21011984D02*
X5853515Y-21002460D01*
X5853515Y-21002460D02*
X5843991Y-20992936D01*
X5843991Y-20992936D02*
X5834467Y-20973889D01*
X5834467Y-20973889D02*
X5824943Y-20935793D01*
X5824943Y-20935793D02*
X5824943Y-20888174D01*
X5824943Y-20888174D02*
X5834467Y-20850079D01*
X5834467Y-20850079D02*
X5843991Y-20831031D01*
X5843991Y-20831031D02*
X5853515Y-20821508D01*
X5853515Y-20821508D02*
X5872562Y-20811984D01*
X6063039Y-20811984D02*
X6082086Y-20811984D01*
X6082086Y-20811984D02*
X6101134Y-20821508D01*
X6101134Y-20821508D02*
X6110658Y-20831031D01*
X6110658Y-20831031D02*
X6120182Y-20850079D01*
X6120182Y-20850079D02*
X6129705Y-20888174D01*
X6129705Y-20888174D02*
X6129705Y-20935793D01*
X6129705Y-20935793D02*
X6120182Y-20973889D01*
X6120182Y-20973889D02*
X6110658Y-20992936D01*
X6110658Y-20992936D02*
X6101134Y-21002460D01*
X6101134Y-21002460D02*
X6082086Y-21011984D01*
X6082086Y-21011984D02*
X6063039Y-21011984D01*
X6063039Y-21011984D02*
X6043991Y-21002460D01*
X6043991Y-21002460D02*
X6034467Y-20992936D01*
X6034467Y-20992936D02*
X6024943Y-20973889D01*
X6024943Y-20973889D02*
X6015420Y-20935793D01*
X6015420Y-20935793D02*
X6015420Y-20888174D01*
X6015420Y-20888174D02*
X6024943Y-20850079D01*
X6024943Y-20850079D02*
X6034467Y-20831031D01*
X6034467Y-20831031D02*
X6043991Y-20821508D01*
X6043991Y-20821508D02*
X6063039Y-20811984D01*
X6215420Y-21011984D02*
X6215420Y-20878650D01*
X6215420Y-20897698D02*
X6224943Y-20888174D01*
X6224943Y-20888174D02*
X6243991Y-20878650D01*
X6243991Y-20878650D02*
X6272563Y-20878650D01*
X6272563Y-20878650D02*
X6291610Y-20888174D01*
X6291610Y-20888174D02*
X6301134Y-20907222D01*
X6301134Y-20907222D02*
X6301134Y-21011984D01*
X6301134Y-20907222D02*
X6310658Y-20888174D01*
X6310658Y-20888174D02*
X6329705Y-20878650D01*
X6329705Y-20878650D02*
X6358277Y-20878650D01*
X6358277Y-20878650D02*
X6377324Y-20888174D01*
X6377324Y-20888174D02*
X6386848Y-20907222D01*
X6386848Y-20907222D02*
X6386848Y-21011984D01*
X6482086Y-21011984D02*
X6482086Y-20878650D01*
X6482086Y-20897698D02*
X6491610Y-20888174D01*
X6491610Y-20888174D02*
X6510658Y-20878650D01*
X6510658Y-20878650D02*
X6539229Y-20878650D01*
X6539229Y-20878650D02*
X6558277Y-20888174D01*
X6558277Y-20888174D02*
X6567801Y-20907222D01*
X6567801Y-20907222D02*
X6567801Y-21011984D01*
X6567801Y-20907222D02*
X6577324Y-20888174D01*
X6577324Y-20888174D02*
X6596372Y-20878650D01*
X6596372Y-20878650D02*
X6624943Y-20878650D01*
X6624943Y-20878650D02*
X6643991Y-20888174D01*
X6643991Y-20888174D02*
X6653515Y-20907222D01*
X6653515Y-20907222D02*
X6653515Y-21011984D01*
X7043991Y-20802460D02*
X6872563Y-21059603D01*
X7301134Y-20811984D02*
X7320182Y-20811984D01*
X7320182Y-20811984D02*
X7339229Y-20821508D01*
X7339229Y-20821508D02*
X7348753Y-20831031D01*
X7348753Y-20831031D02*
X7358277Y-20850079D01*
X7358277Y-20850079D02*
X7367801Y-20888174D01*
X7367801Y-20888174D02*
X7367801Y-20935793D01*
X7367801Y-20935793D02*
X7358277Y-20973889D01*
X7358277Y-20973889D02*
X7348753Y-20992936D01*
X7348753Y-20992936D02*
X7339229Y-21002460D01*
X7339229Y-21002460D02*
X7320182Y-21011984D01*
X7320182Y-21011984D02*
X7301134Y-21011984D01*
X7301134Y-21011984D02*
X7282086Y-21002460D01*
X7282086Y-21002460D02*
X7272563Y-20992936D01*
X7272563Y-20992936D02*
X7263039Y-20973889D01*
X7263039Y-20973889D02*
X7253515Y-20935793D01*
X7253515Y-20935793D02*
X7253515Y-20888174D01*
X7253515Y-20888174D02*
X7263039Y-20850079D01*
X7263039Y-20850079D02*
X7272563Y-20831031D01*
X7272563Y-20831031D02*
X7282086Y-20821508D01*
X7282086Y-20821508D02*
X7301134Y-20811984D01*
X7453515Y-20992936D02*
X7463039Y-21002460D01*
X7463039Y-21002460D02*
X7453515Y-21011984D01*
X7453515Y-21011984D02*
X7443991Y-21002460D01*
X7443991Y-21002460D02*
X7453515Y-20992936D01*
X7453515Y-20992936D02*
X7453515Y-21011984D01*
X7586848Y-20811984D02*
X7605896Y-20811984D01*
X7605896Y-20811984D02*
X7624944Y-20821508D01*
X7624944Y-20821508D02*
X7634467Y-20831031D01*
X7634467Y-20831031D02*
X7643991Y-20850079D01*
X7643991Y-20850079D02*
X7653515Y-20888174D01*
X7653515Y-20888174D02*
X7653515Y-20935793D01*
X7653515Y-20935793D02*
X7643991Y-20973889D01*
X7643991Y-20973889D02*
X7634467Y-20992936D01*
X7634467Y-20992936D02*
X7624944Y-21002460D01*
X7624944Y-21002460D02*
X7605896Y-21011984D01*
X7605896Y-21011984D02*
X7586848Y-21011984D01*
X7586848Y-21011984D02*
X7567801Y-21002460D01*
X7567801Y-21002460D02*
X7558277Y-20992936D01*
X7558277Y-20992936D02*
X7548753Y-20973889D01*
X7548753Y-20973889D02*
X7539229Y-20935793D01*
X7539229Y-20935793D02*
X7539229Y-20888174D01*
X7539229Y-20888174D02*
X7548753Y-20850079D01*
X7548753Y-20850079D02*
X7558277Y-20831031D01*
X7558277Y-20831031D02*
X7567801Y-20821508D01*
X7567801Y-20821508D02*
X7586848Y-20811984D01*
X7720182Y-20811984D02*
X7843991Y-20811984D01*
X7843991Y-20811984D02*
X7777325Y-20888174D01*
X7777325Y-20888174D02*
X7805896Y-20888174D01*
X7805896Y-20888174D02*
X7824944Y-20897698D01*
X7824944Y-20897698D02*
X7834467Y-20907222D01*
X7834467Y-20907222D02*
X7843991Y-20926270D01*
X7843991Y-20926270D02*
X7843991Y-20973889D01*
X7843991Y-20973889D02*
X7834467Y-20992936D01*
X7834467Y-20992936D02*
X7824944Y-21002460D01*
X7824944Y-21002460D02*
X7805896Y-21011984D01*
X7805896Y-21011984D02*
X7748753Y-21011984D01*
X7748753Y-21011984D02*
X7729706Y-21002460D01*
X7729706Y-21002460D02*
X7720182Y-20992936D01*
X8034467Y-21011984D02*
X7920182Y-21011984D01*
X7977325Y-21011984D02*
X7977325Y-20811984D01*
X7977325Y-20811984D02*
X7958277Y-20840555D01*
X7958277Y-20840555D02*
X7939229Y-20859603D01*
X7939229Y-20859603D02*
X7920182Y-20869127D01*
X8215420Y-20811984D02*
X8120182Y-20811984D01*
X8120182Y-20811984D02*
X8110658Y-20907222D01*
X8110658Y-20907222D02*
X8120182Y-20897698D01*
X8120182Y-20897698D02*
X8139229Y-20888174D01*
X8139229Y-20888174D02*
X8186848Y-20888174D01*
X8186848Y-20888174D02*
X8205896Y-20897698D01*
X8205896Y-20897698D02*
X8215420Y-20907222D01*
X8215420Y-20907222D02*
X8224944Y-20926270D01*
X8224944Y-20926270D02*
X8224944Y-20973889D01*
X8224944Y-20973889D02*
X8215420Y-20992936D01*
X8215420Y-20992936D02*
X8205896Y-21002460D01*
X8205896Y-21002460D02*
X8186848Y-21011984D01*
X8186848Y-21011984D02*
X8139229Y-21011984D01*
X8139229Y-21011984D02*
X8120182Y-21002460D01*
X8120182Y-21002460D02*
X8110658Y-20992936D01*
X8301134Y-20811984D02*
X8301134Y-20850079D01*
X8377325Y-20811984D02*
X8377325Y-20850079D01*
X8672563Y-21088174D02*
X8663039Y-21078650D01*
X8663039Y-21078650D02*
X8643991Y-21050079D01*
X8643991Y-21050079D02*
X8634468Y-21031031D01*
X8634468Y-21031031D02*
X8624944Y-21002460D01*
X8624944Y-21002460D02*
X8615420Y-20954841D01*
X8615420Y-20954841D02*
X8615420Y-20916746D01*
X8615420Y-20916746D02*
X8624944Y-20869127D01*
X8624944Y-20869127D02*
X8634468Y-20840555D01*
X8634468Y-20840555D02*
X8643991Y-20821508D01*
X8643991Y-20821508D02*
X8663039Y-20792936D01*
X8663039Y-20792936D02*
X8672563Y-20783412D01*
X8729706Y-20811984D02*
X8853515Y-20811984D01*
X8853515Y-20811984D02*
X8786849Y-20888174D01*
X8786849Y-20888174D02*
X8815420Y-20888174D01*
X8815420Y-20888174D02*
X8834468Y-20897698D01*
X8834468Y-20897698D02*
X8843991Y-20907222D01*
X8843991Y-20907222D02*
X8853515Y-20926270D01*
X8853515Y-20926270D02*
X8853515Y-20973889D01*
X8853515Y-20973889D02*
X8843991Y-20992936D01*
X8843991Y-20992936D02*
X8834468Y-21002460D01*
X8834468Y-21002460D02*
X8815420Y-21011984D01*
X8815420Y-21011984D02*
X8758277Y-21011984D01*
X8758277Y-21011984D02*
X8739230Y-21002460D01*
X8739230Y-21002460D02*
X8729706Y-20992936D01*
X8929706Y-20831031D02*
X8939230Y-20821508D01*
X8939230Y-20821508D02*
X8958277Y-20811984D01*
X8958277Y-20811984D02*
X9005896Y-20811984D01*
X9005896Y-20811984D02*
X9024944Y-20821508D01*
X9024944Y-20821508D02*
X9034468Y-20831031D01*
X9034468Y-20831031D02*
X9043991Y-20850079D01*
X9043991Y-20850079D02*
X9043991Y-20869127D01*
X9043991Y-20869127D02*
X9034468Y-20897698D01*
X9034468Y-20897698D02*
X8920182Y-21011984D01*
X8920182Y-21011984D02*
X9043991Y-21011984D01*
X9215420Y-20878650D02*
X9215420Y-21011984D01*
X9167801Y-20802460D02*
X9120182Y-20945317D01*
X9120182Y-20945317D02*
X9243991Y-20945317D01*
X9472563Y-21011984D02*
X9472563Y-20811984D01*
X9558277Y-21011984D02*
X9558277Y-20907222D01*
X9558277Y-20907222D02*
X9548753Y-20888174D01*
X9548753Y-20888174D02*
X9529706Y-20878650D01*
X9529706Y-20878650D02*
X9501134Y-20878650D01*
X9501134Y-20878650D02*
X9482087Y-20888174D01*
X9482087Y-20888174D02*
X9472563Y-20897698D01*
X9682087Y-21011984D02*
X9663039Y-21002460D01*
X9663039Y-21002460D02*
X9653515Y-20992936D01*
X9653515Y-20992936D02*
X9643992Y-20973889D01*
X9643992Y-20973889D02*
X9643992Y-20916746D01*
X9643992Y-20916746D02*
X9653515Y-20897698D01*
X9653515Y-20897698D02*
X9663039Y-20888174D01*
X9663039Y-20888174D02*
X9682087Y-20878650D01*
X9682087Y-20878650D02*
X9710658Y-20878650D01*
X9710658Y-20878650D02*
X9729706Y-20888174D01*
X9729706Y-20888174D02*
X9739230Y-20897698D01*
X9739230Y-20897698D02*
X9748753Y-20916746D01*
X9748753Y-20916746D02*
X9748753Y-20973889D01*
X9748753Y-20973889D02*
X9739230Y-20992936D01*
X9739230Y-20992936D02*
X9729706Y-21002460D01*
X9729706Y-21002460D02*
X9710658Y-21011984D01*
X9710658Y-21011984D02*
X9682087Y-21011984D01*
X9863039Y-21011984D02*
X9843992Y-21002460D01*
X9843992Y-21002460D02*
X9834468Y-20983412D01*
X9834468Y-20983412D02*
X9834468Y-20811984D01*
X10015420Y-21002460D02*
X9996373Y-21011984D01*
X9996373Y-21011984D02*
X9958277Y-21011984D01*
X9958277Y-21011984D02*
X9939230Y-21002460D01*
X9939230Y-21002460D02*
X9929706Y-20983412D01*
X9929706Y-20983412D02*
X9929706Y-20907222D01*
X9929706Y-20907222D02*
X9939230Y-20888174D01*
X9939230Y-20888174D02*
X9958277Y-20878650D01*
X9958277Y-20878650D02*
X9996373Y-20878650D01*
X9996373Y-20878650D02*
X10015420Y-20888174D01*
X10015420Y-20888174D02*
X10024944Y-20907222D01*
X10024944Y-20907222D02*
X10024944Y-20926270D01*
X10024944Y-20926270D02*
X9929706Y-20945317D01*
X10101134Y-21002460D02*
X10120182Y-21011984D01*
X10120182Y-21011984D02*
X10158277Y-21011984D01*
X10158277Y-21011984D02*
X10177325Y-21002460D01*
X10177325Y-21002460D02*
X10186849Y-20983412D01*
X10186849Y-20983412D02*
X10186849Y-20973889D01*
X10186849Y-20973889D02*
X10177325Y-20954841D01*
X10177325Y-20954841D02*
X10158277Y-20945317D01*
X10158277Y-20945317D02*
X10129706Y-20945317D01*
X10129706Y-20945317D02*
X10110658Y-20935793D01*
X10110658Y-20935793D02*
X10101134Y-20916746D01*
X10101134Y-20916746D02*
X10101134Y-20907222D01*
X10101134Y-20907222D02*
X10110658Y-20888174D01*
X10110658Y-20888174D02*
X10129706Y-20878650D01*
X10129706Y-20878650D02*
X10158277Y-20878650D01*
X10158277Y-20878650D02*
X10177325Y-20888174D01*
X10253515Y-21088174D02*
X10263039Y-21078650D01*
X10263039Y-21078650D02*
X10282087Y-21050079D01*
X10282087Y-21050079D02*
X10291611Y-21031031D01*
X10291611Y-21031031D02*
X10301134Y-21002460D01*
X10301134Y-21002460D02*
X10310658Y-20954841D01*
X10310658Y-20954841D02*
X10310658Y-20916746D01*
X10310658Y-20916746D02*
X10301134Y-20869127D01*
X10301134Y-20869127D02*
X10291611Y-20840555D01*
X10291611Y-20840555D02*
X10282087Y-20821508D01*
X10282087Y-20821508D02*
X10263039Y-20792936D01*
X10263039Y-20792936D02*
X10253515Y-20783412D01*
D12*
X5084320Y-21216320D02*
X5084320Y-21152680D01*
X5020680Y-21152680D01*
X5020680Y-21216320D01*
X5084320Y-21216320D01*
D11*
X5396372Y-21075984D02*
X5415420Y-21075984D01*
X5415420Y-21075984D02*
X5434467Y-21085508D01*
X5434467Y-21085508D02*
X5443991Y-21095031D01*
X5443991Y-21095031D02*
X5453515Y-21114079D01*
X5453515Y-21114079D02*
X5463039Y-21152174D01*
X5463039Y-21152174D02*
X5463039Y-21199793D01*
X5463039Y-21199793D02*
X5453515Y-21237889D01*
X5453515Y-21237889D02*
X5443991Y-21256936D01*
X5443991Y-21256936D02*
X5434467Y-21266460D01*
X5434467Y-21266460D02*
X5415420Y-21275984D01*
X5415420Y-21275984D02*
X5396372Y-21275984D01*
X5396372Y-21275984D02*
X5377324Y-21266460D01*
X5377324Y-21266460D02*
X5367801Y-21256936D01*
X5367801Y-21256936D02*
X5358277Y-21237889D01*
X5358277Y-21237889D02*
X5348753Y-21199793D01*
X5348753Y-21199793D02*
X5348753Y-21152174D01*
X5348753Y-21152174D02*
X5358277Y-21114079D01*
X5358277Y-21114079D02*
X5367801Y-21095031D01*
X5367801Y-21095031D02*
X5377324Y-21085508D01*
X5377324Y-21085508D02*
X5396372Y-21075984D01*
X5548753Y-21256936D02*
X5558277Y-21266460D01*
X5558277Y-21266460D02*
X5548753Y-21275984D01*
X5548753Y-21275984D02*
X5539229Y-21266460D01*
X5539229Y-21266460D02*
X5548753Y-21256936D01*
X5548753Y-21256936D02*
X5548753Y-21275984D01*
X5653515Y-21275984D02*
X5691610Y-21275984D01*
X5691610Y-21275984D02*
X5710658Y-21266460D01*
X5710658Y-21266460D02*
X5720182Y-21256936D01*
X5720182Y-21256936D02*
X5739229Y-21228365D01*
X5739229Y-21228365D02*
X5748753Y-21190270D01*
X5748753Y-21190270D02*
X5748753Y-21114079D01*
X5748753Y-21114079D02*
X5739229Y-21095031D01*
X5739229Y-21095031D02*
X5729705Y-21085508D01*
X5729705Y-21085508D02*
X5710658Y-21075984D01*
X5710658Y-21075984D02*
X5672562Y-21075984D01*
X5672562Y-21075984D02*
X5653515Y-21085508D01*
X5653515Y-21085508D02*
X5643991Y-21095031D01*
X5643991Y-21095031D02*
X5634467Y-21114079D01*
X5634467Y-21114079D02*
X5634467Y-21161698D01*
X5634467Y-21161698D02*
X5643991Y-21180746D01*
X5643991Y-21180746D02*
X5653515Y-21190270D01*
X5653515Y-21190270D02*
X5672562Y-21199793D01*
X5672562Y-21199793D02*
X5710658Y-21199793D01*
X5710658Y-21199793D02*
X5729705Y-21190270D01*
X5729705Y-21190270D02*
X5739229Y-21180746D01*
X5739229Y-21180746D02*
X5748753Y-21161698D01*
X5872562Y-21075984D02*
X5891610Y-21075984D01*
X5891610Y-21075984D02*
X5910658Y-21085508D01*
X5910658Y-21085508D02*
X5920182Y-21095031D01*
X5920182Y-21095031D02*
X5929705Y-21114079D01*
X5929705Y-21114079D02*
X5939229Y-21152174D01*
X5939229Y-21152174D02*
X5939229Y-21199793D01*
X5939229Y-21199793D02*
X5929705Y-21237889D01*
X5929705Y-21237889D02*
X5920182Y-21256936D01*
X5920182Y-21256936D02*
X5910658Y-21266460D01*
X5910658Y-21266460D02*
X5891610Y-21275984D01*
X5891610Y-21275984D02*
X5872562Y-21275984D01*
X5872562Y-21275984D02*
X5853515Y-21266460D01*
X5853515Y-21266460D02*
X5843991Y-21256936D01*
X5843991Y-21256936D02*
X5834467Y-21237889D01*
X5834467Y-21237889D02*
X5824943Y-21199793D01*
X5824943Y-21199793D02*
X5824943Y-21152174D01*
X5824943Y-21152174D02*
X5834467Y-21114079D01*
X5834467Y-21114079D02*
X5843991Y-21095031D01*
X5843991Y-21095031D02*
X5853515Y-21085508D01*
X5853515Y-21085508D02*
X5872562Y-21075984D01*
X6063039Y-21075984D02*
X6082086Y-21075984D01*
X6082086Y-21075984D02*
X6101134Y-21085508D01*
X6101134Y-21085508D02*
X6110658Y-21095031D01*
X6110658Y-21095031D02*
X6120182Y-21114079D01*
X6120182Y-21114079D02*
X6129705Y-21152174D01*
X6129705Y-21152174D02*
X6129705Y-21199793D01*
X6129705Y-21199793D02*
X6120182Y-21237889D01*
X6120182Y-21237889D02*
X6110658Y-21256936D01*
X6110658Y-21256936D02*
X6101134Y-21266460D01*
X6101134Y-21266460D02*
X6082086Y-21275984D01*
X6082086Y-21275984D02*
X6063039Y-21275984D01*
X6063039Y-21275984D02*
X6043991Y-21266460D01*
X6043991Y-21266460D02*
X6034467Y-21256936D01*
X6034467Y-21256936D02*
X6024943Y-21237889D01*
X6024943Y-21237889D02*
X6015420Y-21199793D01*
X6015420Y-21199793D02*
X6015420Y-21152174D01*
X6015420Y-21152174D02*
X6024943Y-21114079D01*
X6024943Y-21114079D02*
X6034467Y-21095031D01*
X6034467Y-21095031D02*
X6043991Y-21085508D01*
X6043991Y-21085508D02*
X6063039Y-21075984D01*
X6215420Y-21275984D02*
X6215420Y-21142650D01*
X6215420Y-21161698D02*
X6224943Y-21152174D01*
X6224943Y-21152174D02*
X6243991Y-21142650D01*
X6243991Y-21142650D02*
X6272563Y-21142650D01*
X6272563Y-21142650D02*
X6291610Y-21152174D01*
X6291610Y-21152174D02*
X6301134Y-21171222D01*
X6301134Y-21171222D02*
X6301134Y-21275984D01*
X6301134Y-21171222D02*
X6310658Y-21152174D01*
X6310658Y-21152174D02*
X6329705Y-21142650D01*
X6329705Y-21142650D02*
X6358277Y-21142650D01*
X6358277Y-21142650D02*
X6377324Y-21152174D01*
X6377324Y-21152174D02*
X6386848Y-21171222D01*
X6386848Y-21171222D02*
X6386848Y-21275984D01*
X6482086Y-21275984D02*
X6482086Y-21142650D01*
X6482086Y-21161698D02*
X6491610Y-21152174D01*
X6491610Y-21152174D02*
X6510658Y-21142650D01*
X6510658Y-21142650D02*
X6539229Y-21142650D01*
X6539229Y-21142650D02*
X6558277Y-21152174D01*
X6558277Y-21152174D02*
X6567801Y-21171222D01*
X6567801Y-21171222D02*
X6567801Y-21275984D01*
X6567801Y-21171222D02*
X6577324Y-21152174D01*
X6577324Y-21152174D02*
X6596372Y-21142650D01*
X6596372Y-21142650D02*
X6624943Y-21142650D01*
X6624943Y-21142650D02*
X6643991Y-21152174D01*
X6643991Y-21152174D02*
X6653515Y-21171222D01*
X6653515Y-21171222D02*
X6653515Y-21275984D01*
X7043991Y-21066460D02*
X6872563Y-21323603D01*
X7301134Y-21075984D02*
X7320182Y-21075984D01*
X7320182Y-21075984D02*
X7339229Y-21085508D01*
X7339229Y-21085508D02*
X7348753Y-21095031D01*
X7348753Y-21095031D02*
X7358277Y-21114079D01*
X7358277Y-21114079D02*
X7367801Y-21152174D01*
X7367801Y-21152174D02*
X7367801Y-21199793D01*
X7367801Y-21199793D02*
X7358277Y-21237889D01*
X7358277Y-21237889D02*
X7348753Y-21256936D01*
X7348753Y-21256936D02*
X7339229Y-21266460D01*
X7339229Y-21266460D02*
X7320182Y-21275984D01*
X7320182Y-21275984D02*
X7301134Y-21275984D01*
X7301134Y-21275984D02*
X7282086Y-21266460D01*
X7282086Y-21266460D02*
X7272563Y-21256936D01*
X7272563Y-21256936D02*
X7263039Y-21237889D01*
X7263039Y-21237889D02*
X7253515Y-21199793D01*
X7253515Y-21199793D02*
X7253515Y-21152174D01*
X7253515Y-21152174D02*
X7263039Y-21114079D01*
X7263039Y-21114079D02*
X7272563Y-21095031D01*
X7272563Y-21095031D02*
X7282086Y-21085508D01*
X7282086Y-21085508D02*
X7301134Y-21075984D01*
X7453515Y-21256936D02*
X7463039Y-21266460D01*
X7463039Y-21266460D02*
X7453515Y-21275984D01*
X7453515Y-21275984D02*
X7443991Y-21266460D01*
X7443991Y-21266460D02*
X7453515Y-21256936D01*
X7453515Y-21256936D02*
X7453515Y-21275984D01*
X7586848Y-21075984D02*
X7605896Y-21075984D01*
X7605896Y-21075984D02*
X7624944Y-21085508D01*
X7624944Y-21085508D02*
X7634467Y-21095031D01*
X7634467Y-21095031D02*
X7643991Y-21114079D01*
X7643991Y-21114079D02*
X7653515Y-21152174D01*
X7653515Y-21152174D02*
X7653515Y-21199793D01*
X7653515Y-21199793D02*
X7643991Y-21237889D01*
X7643991Y-21237889D02*
X7634467Y-21256936D01*
X7634467Y-21256936D02*
X7624944Y-21266460D01*
X7624944Y-21266460D02*
X7605896Y-21275984D01*
X7605896Y-21275984D02*
X7586848Y-21275984D01*
X7586848Y-21275984D02*
X7567801Y-21266460D01*
X7567801Y-21266460D02*
X7558277Y-21256936D01*
X7558277Y-21256936D02*
X7548753Y-21237889D01*
X7548753Y-21237889D02*
X7539229Y-21199793D01*
X7539229Y-21199793D02*
X7539229Y-21152174D01*
X7539229Y-21152174D02*
X7548753Y-21114079D01*
X7548753Y-21114079D02*
X7558277Y-21095031D01*
X7558277Y-21095031D02*
X7567801Y-21085508D01*
X7567801Y-21085508D02*
X7586848Y-21075984D01*
X7720182Y-21075984D02*
X7843991Y-21075984D01*
X7843991Y-21075984D02*
X7777325Y-21152174D01*
X7777325Y-21152174D02*
X7805896Y-21152174D01*
X7805896Y-21152174D02*
X7824944Y-21161698D01*
X7824944Y-21161698D02*
X7834467Y-21171222D01*
X7834467Y-21171222D02*
X7843991Y-21190270D01*
X7843991Y-21190270D02*
X7843991Y-21237889D01*
X7843991Y-21237889D02*
X7834467Y-21256936D01*
X7834467Y-21256936D02*
X7824944Y-21266460D01*
X7824944Y-21266460D02*
X7805896Y-21275984D01*
X7805896Y-21275984D02*
X7748753Y-21275984D01*
X7748753Y-21275984D02*
X7729706Y-21266460D01*
X7729706Y-21266460D02*
X7720182Y-21256936D01*
X8024944Y-21075984D02*
X7929706Y-21075984D01*
X7929706Y-21075984D02*
X7920182Y-21171222D01*
X7920182Y-21171222D02*
X7929706Y-21161698D01*
X7929706Y-21161698D02*
X7948753Y-21152174D01*
X7948753Y-21152174D02*
X7996372Y-21152174D01*
X7996372Y-21152174D02*
X8015420Y-21161698D01*
X8015420Y-21161698D02*
X8024944Y-21171222D01*
X8024944Y-21171222D02*
X8034467Y-21190270D01*
X8034467Y-21190270D02*
X8034467Y-21237889D01*
X8034467Y-21237889D02*
X8024944Y-21256936D01*
X8024944Y-21256936D02*
X8015420Y-21266460D01*
X8015420Y-21266460D02*
X7996372Y-21275984D01*
X7996372Y-21275984D02*
X7948753Y-21275984D01*
X7948753Y-21275984D02*
X7929706Y-21266460D01*
X7929706Y-21266460D02*
X7920182Y-21256936D01*
X8205896Y-21142650D02*
X8205896Y-21275984D01*
X8158277Y-21066460D02*
X8110658Y-21209317D01*
X8110658Y-21209317D02*
X8234467Y-21209317D01*
X8301134Y-21075984D02*
X8301134Y-21114079D01*
X8377325Y-21075984D02*
X8377325Y-21114079D01*
X8672563Y-21352174D02*
X8663039Y-21342650D01*
X8663039Y-21342650D02*
X8643991Y-21314079D01*
X8643991Y-21314079D02*
X8634468Y-21295031D01*
X8634468Y-21295031D02*
X8624944Y-21266460D01*
X8624944Y-21266460D02*
X8615420Y-21218841D01*
X8615420Y-21218841D02*
X8615420Y-21180746D01*
X8615420Y-21180746D02*
X8624944Y-21133127D01*
X8624944Y-21133127D02*
X8634468Y-21104555D01*
X8634468Y-21104555D02*
X8643991Y-21085508D01*
X8643991Y-21085508D02*
X8663039Y-21056936D01*
X8663039Y-21056936D02*
X8672563Y-21047412D01*
X8853515Y-21275984D02*
X8739230Y-21275984D01*
X8796372Y-21275984D02*
X8796372Y-21075984D01*
X8796372Y-21075984D02*
X8777325Y-21104555D01*
X8777325Y-21104555D02*
X8758277Y-21123603D01*
X8758277Y-21123603D02*
X8739230Y-21133127D01*
X8929706Y-21095031D02*
X8939230Y-21085508D01*
X8939230Y-21085508D02*
X8958277Y-21075984D01*
X8958277Y-21075984D02*
X9005896Y-21075984D01*
X9005896Y-21075984D02*
X9024944Y-21085508D01*
X9024944Y-21085508D02*
X9034468Y-21095031D01*
X9034468Y-21095031D02*
X9043991Y-21114079D01*
X9043991Y-21114079D02*
X9043991Y-21133127D01*
X9043991Y-21133127D02*
X9034468Y-21161698D01*
X9034468Y-21161698D02*
X8920182Y-21275984D01*
X8920182Y-21275984D02*
X9043991Y-21275984D01*
X9282087Y-21275984D02*
X9282087Y-21075984D01*
X9367801Y-21275984D02*
X9367801Y-21171222D01*
X9367801Y-21171222D02*
X9358277Y-21152174D01*
X9358277Y-21152174D02*
X9339230Y-21142650D01*
X9339230Y-21142650D02*
X9310658Y-21142650D01*
X9310658Y-21142650D02*
X9291611Y-21152174D01*
X9291611Y-21152174D02*
X9282087Y-21161698D01*
X9491611Y-21275984D02*
X9472563Y-21266460D01*
X9472563Y-21266460D02*
X9463039Y-21256936D01*
X9463039Y-21256936D02*
X9453515Y-21237889D01*
X9453515Y-21237889D02*
X9453515Y-21180746D01*
X9453515Y-21180746D02*
X9463039Y-21161698D01*
X9463039Y-21161698D02*
X9472563Y-21152174D01*
X9472563Y-21152174D02*
X9491611Y-21142650D01*
X9491611Y-21142650D02*
X9520182Y-21142650D01*
X9520182Y-21142650D02*
X9539230Y-21152174D01*
X9539230Y-21152174D02*
X9548753Y-21161698D01*
X9548753Y-21161698D02*
X9558277Y-21180746D01*
X9558277Y-21180746D02*
X9558277Y-21237889D01*
X9558277Y-21237889D02*
X9548753Y-21256936D01*
X9548753Y-21256936D02*
X9539230Y-21266460D01*
X9539230Y-21266460D02*
X9520182Y-21275984D01*
X9520182Y-21275984D02*
X9491611Y-21275984D01*
X9672563Y-21275984D02*
X9653515Y-21266460D01*
X9653515Y-21266460D02*
X9643992Y-21247412D01*
X9643992Y-21247412D02*
X9643992Y-21075984D01*
X9824944Y-21266460D02*
X9805896Y-21275984D01*
X9805896Y-21275984D02*
X9767801Y-21275984D01*
X9767801Y-21275984D02*
X9748753Y-21266460D01*
X9748753Y-21266460D02*
X9739230Y-21247412D01*
X9739230Y-21247412D02*
X9739230Y-21171222D01*
X9739230Y-21171222D02*
X9748753Y-21152174D01*
X9748753Y-21152174D02*
X9767801Y-21142650D01*
X9767801Y-21142650D02*
X9805896Y-21142650D01*
X9805896Y-21142650D02*
X9824944Y-21152174D01*
X9824944Y-21152174D02*
X9834468Y-21171222D01*
X9834468Y-21171222D02*
X9834468Y-21190270D01*
X9834468Y-21190270D02*
X9739230Y-21209317D01*
X9910658Y-21266460D02*
X9929706Y-21275984D01*
X9929706Y-21275984D02*
X9967801Y-21275984D01*
X9967801Y-21275984D02*
X9986849Y-21266460D01*
X9986849Y-21266460D02*
X9996373Y-21247412D01*
X9996373Y-21247412D02*
X9996373Y-21237889D01*
X9996373Y-21237889D02*
X9986849Y-21218841D01*
X9986849Y-21218841D02*
X9967801Y-21209317D01*
X9967801Y-21209317D02*
X9939230Y-21209317D01*
X9939230Y-21209317D02*
X9920182Y-21199793D01*
X9920182Y-21199793D02*
X9910658Y-21180746D01*
X9910658Y-21180746D02*
X9910658Y-21171222D01*
X9910658Y-21171222D02*
X9920182Y-21152174D01*
X9920182Y-21152174D02*
X9939230Y-21142650D01*
X9939230Y-21142650D02*
X9967801Y-21142650D01*
X9967801Y-21142650D02*
X9986849Y-21152174D01*
X10063039Y-21352174D02*
X10072563Y-21342650D01*
X10072563Y-21342650D02*
X10091611Y-21314079D01*
X10091611Y-21314079D02*
X10101134Y-21295031D01*
X10101134Y-21295031D02*
X10110658Y-21266460D01*
X10110658Y-21266460D02*
X10120182Y-21218841D01*
X10120182Y-21218841D02*
X10120182Y-21180746D01*
X10120182Y-21180746D02*
X10110658Y-21133127D01*
X10110658Y-21133127D02*
X10101134Y-21104555D01*
X10101134Y-21104555D02*
X10091611Y-21085508D01*
X10091611Y-21085508D02*
X10072563Y-21056936D01*
X10072563Y-21056936D02*
X10063039Y-21047412D01*
D12*
X5047500Y-21498500D02*
X5097500Y-21448500D01*
X5047500Y-21398500D01*
X4997500Y-21448500D01*
X5047500Y-21498500D01*
D11*
X5463039Y-21539984D02*
X5348753Y-21539984D01*
X5405896Y-21539984D02*
X5405896Y-21339984D01*
X5405896Y-21339984D02*
X5386848Y-21368555D01*
X5386848Y-21368555D02*
X5367801Y-21387603D01*
X5367801Y-21387603D02*
X5348753Y-21397127D01*
X5548753Y-21520936D02*
X5558277Y-21530460D01*
X5558277Y-21530460D02*
X5548753Y-21539984D01*
X5548753Y-21539984D02*
X5539229Y-21530460D01*
X5539229Y-21530460D02*
X5548753Y-21520936D01*
X5548753Y-21520936D02*
X5548753Y-21539984D01*
X5682086Y-21339984D02*
X5701134Y-21339984D01*
X5701134Y-21339984D02*
X5720182Y-21349508D01*
X5720182Y-21349508D02*
X5729705Y-21359031D01*
X5729705Y-21359031D02*
X5739229Y-21378079D01*
X5739229Y-21378079D02*
X5748753Y-21416174D01*
X5748753Y-21416174D02*
X5748753Y-21463793D01*
X5748753Y-21463793D02*
X5739229Y-21501889D01*
X5739229Y-21501889D02*
X5729705Y-21520936D01*
X5729705Y-21520936D02*
X5720182Y-21530460D01*
X5720182Y-21530460D02*
X5701134Y-21539984D01*
X5701134Y-21539984D02*
X5682086Y-21539984D01*
X5682086Y-21539984D02*
X5663039Y-21530460D01*
X5663039Y-21530460D02*
X5653515Y-21520936D01*
X5653515Y-21520936D02*
X5643991Y-21501889D01*
X5643991Y-21501889D02*
X5634467Y-21463793D01*
X5634467Y-21463793D02*
X5634467Y-21416174D01*
X5634467Y-21416174D02*
X5643991Y-21378079D01*
X5643991Y-21378079D02*
X5653515Y-21359031D01*
X5653515Y-21359031D02*
X5663039Y-21349508D01*
X5663039Y-21349508D02*
X5682086Y-21339984D01*
X5872562Y-21339984D02*
X5891610Y-21339984D01*
X5891610Y-21339984D02*
X5910658Y-21349508D01*
X5910658Y-21349508D02*
X5920182Y-21359031D01*
X5920182Y-21359031D02*
X5929705Y-21378079D01*
X5929705Y-21378079D02*
X5939229Y-21416174D01*
X5939229Y-21416174D02*
X5939229Y-21463793D01*
X5939229Y-21463793D02*
X5929705Y-21501889D01*
X5929705Y-21501889D02*
X5920182Y-21520936D01*
X5920182Y-21520936D02*
X5910658Y-21530460D01*
X5910658Y-21530460D02*
X5891610Y-21539984D01*
X5891610Y-21539984D02*
X5872562Y-21539984D01*
X5872562Y-21539984D02*
X5853515Y-21530460D01*
X5853515Y-21530460D02*
X5843991Y-21520936D01*
X5843991Y-21520936D02*
X5834467Y-21501889D01*
X5834467Y-21501889D02*
X5824943Y-21463793D01*
X5824943Y-21463793D02*
X5824943Y-21416174D01*
X5824943Y-21416174D02*
X5834467Y-21378079D01*
X5834467Y-21378079D02*
X5843991Y-21359031D01*
X5843991Y-21359031D02*
X5853515Y-21349508D01*
X5853515Y-21349508D02*
X5872562Y-21339984D01*
X6063039Y-21339984D02*
X6082086Y-21339984D01*
X6082086Y-21339984D02*
X6101134Y-21349508D01*
X6101134Y-21349508D02*
X6110658Y-21359031D01*
X6110658Y-21359031D02*
X6120182Y-21378079D01*
X6120182Y-21378079D02*
X6129705Y-21416174D01*
X6129705Y-21416174D02*
X6129705Y-21463793D01*
X6129705Y-21463793D02*
X6120182Y-21501889D01*
X6120182Y-21501889D02*
X6110658Y-21520936D01*
X6110658Y-21520936D02*
X6101134Y-21530460D01*
X6101134Y-21530460D02*
X6082086Y-21539984D01*
X6082086Y-21539984D02*
X6063039Y-21539984D01*
X6063039Y-21539984D02*
X6043991Y-21530460D01*
X6043991Y-21530460D02*
X6034467Y-21520936D01*
X6034467Y-21520936D02*
X6024943Y-21501889D01*
X6024943Y-21501889D02*
X6015420Y-21463793D01*
X6015420Y-21463793D02*
X6015420Y-21416174D01*
X6015420Y-21416174D02*
X6024943Y-21378079D01*
X6024943Y-21378079D02*
X6034467Y-21359031D01*
X6034467Y-21359031D02*
X6043991Y-21349508D01*
X6043991Y-21349508D02*
X6063039Y-21339984D01*
X6215420Y-21539984D02*
X6215420Y-21406650D01*
X6215420Y-21425698D02*
X6224943Y-21416174D01*
X6224943Y-21416174D02*
X6243991Y-21406650D01*
X6243991Y-21406650D02*
X6272563Y-21406650D01*
X6272563Y-21406650D02*
X6291610Y-21416174D01*
X6291610Y-21416174D02*
X6301134Y-21435222D01*
X6301134Y-21435222D02*
X6301134Y-21539984D01*
X6301134Y-21435222D02*
X6310658Y-21416174D01*
X6310658Y-21416174D02*
X6329705Y-21406650D01*
X6329705Y-21406650D02*
X6358277Y-21406650D01*
X6358277Y-21406650D02*
X6377324Y-21416174D01*
X6377324Y-21416174D02*
X6386848Y-21435222D01*
X6386848Y-21435222D02*
X6386848Y-21539984D01*
X6482086Y-21539984D02*
X6482086Y-21406650D01*
X6482086Y-21425698D02*
X6491610Y-21416174D01*
X6491610Y-21416174D02*
X6510658Y-21406650D01*
X6510658Y-21406650D02*
X6539229Y-21406650D01*
X6539229Y-21406650D02*
X6558277Y-21416174D01*
X6558277Y-21416174D02*
X6567801Y-21435222D01*
X6567801Y-21435222D02*
X6567801Y-21539984D01*
X6567801Y-21435222D02*
X6577324Y-21416174D01*
X6577324Y-21416174D02*
X6596372Y-21406650D01*
X6596372Y-21406650D02*
X6624943Y-21406650D01*
X6624943Y-21406650D02*
X6643991Y-21416174D01*
X6643991Y-21416174D02*
X6653515Y-21435222D01*
X6653515Y-21435222D02*
X6653515Y-21539984D01*
X7043991Y-21330460D02*
X6872563Y-21587603D01*
X7301134Y-21339984D02*
X7320182Y-21339984D01*
X7320182Y-21339984D02*
X7339229Y-21349508D01*
X7339229Y-21349508D02*
X7348753Y-21359031D01*
X7348753Y-21359031D02*
X7358277Y-21378079D01*
X7358277Y-21378079D02*
X7367801Y-21416174D01*
X7367801Y-21416174D02*
X7367801Y-21463793D01*
X7367801Y-21463793D02*
X7358277Y-21501889D01*
X7358277Y-21501889D02*
X7348753Y-21520936D01*
X7348753Y-21520936D02*
X7339229Y-21530460D01*
X7339229Y-21530460D02*
X7320182Y-21539984D01*
X7320182Y-21539984D02*
X7301134Y-21539984D01*
X7301134Y-21539984D02*
X7282086Y-21530460D01*
X7282086Y-21530460D02*
X7272563Y-21520936D01*
X7272563Y-21520936D02*
X7263039Y-21501889D01*
X7263039Y-21501889D02*
X7253515Y-21463793D01*
X7253515Y-21463793D02*
X7253515Y-21416174D01*
X7253515Y-21416174D02*
X7263039Y-21378079D01*
X7263039Y-21378079D02*
X7272563Y-21359031D01*
X7272563Y-21359031D02*
X7282086Y-21349508D01*
X7282086Y-21349508D02*
X7301134Y-21339984D01*
X7453515Y-21520936D02*
X7463039Y-21530460D01*
X7463039Y-21530460D02*
X7453515Y-21539984D01*
X7453515Y-21539984D02*
X7443991Y-21530460D01*
X7443991Y-21530460D02*
X7453515Y-21520936D01*
X7453515Y-21520936D02*
X7453515Y-21539984D01*
X7586848Y-21339984D02*
X7605896Y-21339984D01*
X7605896Y-21339984D02*
X7624944Y-21349508D01*
X7624944Y-21349508D02*
X7634467Y-21359031D01*
X7634467Y-21359031D02*
X7643991Y-21378079D01*
X7643991Y-21378079D02*
X7653515Y-21416174D01*
X7653515Y-21416174D02*
X7653515Y-21463793D01*
X7653515Y-21463793D02*
X7643991Y-21501889D01*
X7643991Y-21501889D02*
X7634467Y-21520936D01*
X7634467Y-21520936D02*
X7624944Y-21530460D01*
X7624944Y-21530460D02*
X7605896Y-21539984D01*
X7605896Y-21539984D02*
X7586848Y-21539984D01*
X7586848Y-21539984D02*
X7567801Y-21530460D01*
X7567801Y-21530460D02*
X7558277Y-21520936D01*
X7558277Y-21520936D02*
X7548753Y-21501889D01*
X7548753Y-21501889D02*
X7539229Y-21463793D01*
X7539229Y-21463793D02*
X7539229Y-21416174D01*
X7539229Y-21416174D02*
X7548753Y-21378079D01*
X7548753Y-21378079D02*
X7558277Y-21359031D01*
X7558277Y-21359031D02*
X7567801Y-21349508D01*
X7567801Y-21349508D02*
X7586848Y-21339984D01*
X7720182Y-21339984D02*
X7843991Y-21339984D01*
X7843991Y-21339984D02*
X7777325Y-21416174D01*
X7777325Y-21416174D02*
X7805896Y-21416174D01*
X7805896Y-21416174D02*
X7824944Y-21425698D01*
X7824944Y-21425698D02*
X7834467Y-21435222D01*
X7834467Y-21435222D02*
X7843991Y-21454270D01*
X7843991Y-21454270D02*
X7843991Y-21501889D01*
X7843991Y-21501889D02*
X7834467Y-21520936D01*
X7834467Y-21520936D02*
X7824944Y-21530460D01*
X7824944Y-21530460D02*
X7805896Y-21539984D01*
X7805896Y-21539984D02*
X7748753Y-21539984D01*
X7748753Y-21539984D02*
X7729706Y-21530460D01*
X7729706Y-21530460D02*
X7720182Y-21520936D01*
X7939229Y-21539984D02*
X7977325Y-21539984D01*
X7977325Y-21539984D02*
X7996372Y-21530460D01*
X7996372Y-21530460D02*
X8005896Y-21520936D01*
X8005896Y-21520936D02*
X8024944Y-21492365D01*
X8024944Y-21492365D02*
X8034467Y-21454270D01*
X8034467Y-21454270D02*
X8034467Y-21378079D01*
X8034467Y-21378079D02*
X8024944Y-21359031D01*
X8024944Y-21359031D02*
X8015420Y-21349508D01*
X8015420Y-21349508D02*
X7996372Y-21339984D01*
X7996372Y-21339984D02*
X7958277Y-21339984D01*
X7958277Y-21339984D02*
X7939229Y-21349508D01*
X7939229Y-21349508D02*
X7929706Y-21359031D01*
X7929706Y-21359031D02*
X7920182Y-21378079D01*
X7920182Y-21378079D02*
X7920182Y-21425698D01*
X7920182Y-21425698D02*
X7929706Y-21444746D01*
X7929706Y-21444746D02*
X7939229Y-21454270D01*
X7939229Y-21454270D02*
X7958277Y-21463793D01*
X7958277Y-21463793D02*
X7996372Y-21463793D01*
X7996372Y-21463793D02*
X8015420Y-21454270D01*
X8015420Y-21454270D02*
X8024944Y-21444746D01*
X8024944Y-21444746D02*
X8034467Y-21425698D01*
X8205896Y-21406650D02*
X8205896Y-21539984D01*
X8158277Y-21330460D02*
X8110658Y-21473317D01*
X8110658Y-21473317D02*
X8234467Y-21473317D01*
X8301134Y-21339984D02*
X8301134Y-21378079D01*
X8377325Y-21339984D02*
X8377325Y-21378079D01*
X8672563Y-21616174D02*
X8663039Y-21606650D01*
X8663039Y-21606650D02*
X8643991Y-21578079D01*
X8643991Y-21578079D02*
X8634468Y-21559031D01*
X8634468Y-21559031D02*
X8624944Y-21530460D01*
X8624944Y-21530460D02*
X8615420Y-21482841D01*
X8615420Y-21482841D02*
X8615420Y-21444746D01*
X8615420Y-21444746D02*
X8624944Y-21397127D01*
X8624944Y-21397127D02*
X8634468Y-21368555D01*
X8634468Y-21368555D02*
X8643991Y-21349508D01*
X8643991Y-21349508D02*
X8663039Y-21320936D01*
X8663039Y-21320936D02*
X8672563Y-21311412D01*
X8843991Y-21339984D02*
X8748753Y-21339984D01*
X8748753Y-21339984D02*
X8739230Y-21435222D01*
X8739230Y-21435222D02*
X8748753Y-21425698D01*
X8748753Y-21425698D02*
X8767801Y-21416174D01*
X8767801Y-21416174D02*
X8815420Y-21416174D01*
X8815420Y-21416174D02*
X8834468Y-21425698D01*
X8834468Y-21425698D02*
X8843991Y-21435222D01*
X8843991Y-21435222D02*
X8853515Y-21454270D01*
X8853515Y-21454270D02*
X8853515Y-21501889D01*
X8853515Y-21501889D02*
X8843991Y-21520936D01*
X8843991Y-21520936D02*
X8834468Y-21530460D01*
X8834468Y-21530460D02*
X8815420Y-21539984D01*
X8815420Y-21539984D02*
X8767801Y-21539984D01*
X8767801Y-21539984D02*
X8748753Y-21530460D01*
X8748753Y-21530460D02*
X8739230Y-21520936D01*
X8920182Y-21339984D02*
X9043991Y-21339984D01*
X9043991Y-21339984D02*
X8977325Y-21416174D01*
X8977325Y-21416174D02*
X9005896Y-21416174D01*
X9005896Y-21416174D02*
X9024944Y-21425698D01*
X9024944Y-21425698D02*
X9034468Y-21435222D01*
X9034468Y-21435222D02*
X9043991Y-21454270D01*
X9043991Y-21454270D02*
X9043991Y-21501889D01*
X9043991Y-21501889D02*
X9034468Y-21520936D01*
X9034468Y-21520936D02*
X9024944Y-21530460D01*
X9024944Y-21530460D02*
X9005896Y-21539984D01*
X9005896Y-21539984D02*
X8948753Y-21539984D01*
X8948753Y-21539984D02*
X8929706Y-21530460D01*
X8929706Y-21530460D02*
X8920182Y-21520936D01*
X9282087Y-21539984D02*
X9282087Y-21339984D01*
X9367801Y-21539984D02*
X9367801Y-21435222D01*
X9367801Y-21435222D02*
X9358277Y-21416174D01*
X9358277Y-21416174D02*
X9339230Y-21406650D01*
X9339230Y-21406650D02*
X9310658Y-21406650D01*
X9310658Y-21406650D02*
X9291611Y-21416174D01*
X9291611Y-21416174D02*
X9282087Y-21425698D01*
X9491611Y-21539984D02*
X9472563Y-21530460D01*
X9472563Y-21530460D02*
X9463039Y-21520936D01*
X9463039Y-21520936D02*
X9453515Y-21501889D01*
X9453515Y-21501889D02*
X9453515Y-21444746D01*
X9453515Y-21444746D02*
X9463039Y-21425698D01*
X9463039Y-21425698D02*
X9472563Y-21416174D01*
X9472563Y-21416174D02*
X9491611Y-21406650D01*
X9491611Y-21406650D02*
X9520182Y-21406650D01*
X9520182Y-21406650D02*
X9539230Y-21416174D01*
X9539230Y-21416174D02*
X9548753Y-21425698D01*
X9548753Y-21425698D02*
X9558277Y-21444746D01*
X9558277Y-21444746D02*
X9558277Y-21501889D01*
X9558277Y-21501889D02*
X9548753Y-21520936D01*
X9548753Y-21520936D02*
X9539230Y-21530460D01*
X9539230Y-21530460D02*
X9520182Y-21539984D01*
X9520182Y-21539984D02*
X9491611Y-21539984D01*
X9672563Y-21539984D02*
X9653515Y-21530460D01*
X9653515Y-21530460D02*
X9643992Y-21511412D01*
X9643992Y-21511412D02*
X9643992Y-21339984D01*
X9824944Y-21530460D02*
X9805896Y-21539984D01*
X9805896Y-21539984D02*
X9767801Y-21539984D01*
X9767801Y-21539984D02*
X9748753Y-21530460D01*
X9748753Y-21530460D02*
X9739230Y-21511412D01*
X9739230Y-21511412D02*
X9739230Y-21435222D01*
X9739230Y-21435222D02*
X9748753Y-21416174D01*
X9748753Y-21416174D02*
X9767801Y-21406650D01*
X9767801Y-21406650D02*
X9805896Y-21406650D01*
X9805896Y-21406650D02*
X9824944Y-21416174D01*
X9824944Y-21416174D02*
X9834468Y-21435222D01*
X9834468Y-21435222D02*
X9834468Y-21454270D01*
X9834468Y-21454270D02*
X9739230Y-21473317D01*
X9910658Y-21530460D02*
X9929706Y-21539984D01*
X9929706Y-21539984D02*
X9967801Y-21539984D01*
X9967801Y-21539984D02*
X9986849Y-21530460D01*
X9986849Y-21530460D02*
X9996373Y-21511412D01*
X9996373Y-21511412D02*
X9996373Y-21501889D01*
X9996373Y-21501889D02*
X9986849Y-21482841D01*
X9986849Y-21482841D02*
X9967801Y-21473317D01*
X9967801Y-21473317D02*
X9939230Y-21473317D01*
X9939230Y-21473317D02*
X9920182Y-21463793D01*
X9920182Y-21463793D02*
X9910658Y-21444746D01*
X9910658Y-21444746D02*
X9910658Y-21435222D01*
X9910658Y-21435222D02*
X9920182Y-21416174D01*
X9920182Y-21416174D02*
X9939230Y-21406650D01*
X9939230Y-21406650D02*
X9967801Y-21406650D01*
X9967801Y-21406650D02*
X9986849Y-21416174D01*
X10063039Y-21616174D02*
X10072563Y-21606650D01*
X10072563Y-21606650D02*
X10091611Y-21578079D01*
X10091611Y-21578079D02*
X10101134Y-21559031D01*
X10101134Y-21559031D02*
X10110658Y-21530460D01*
X10110658Y-21530460D02*
X10120182Y-21482841D01*
X10120182Y-21482841D02*
X10120182Y-21444746D01*
X10120182Y-21444746D02*
X10110658Y-21397127D01*
X10110658Y-21397127D02*
X10101134Y-21368555D01*
X10101134Y-21368555D02*
X10091611Y-21349508D01*
X10091611Y-21349508D02*
X10072563Y-21320936D01*
X10072563Y-21320936D02*
X10063039Y-21311412D01*
D13*
X4987500Y-21657500D02*
X5097500Y-21767500D01*
X5097500Y-21657500D02*
X4987500Y-21767500D01*
X5097500Y-21712500D02*
G75*
G02*
X4987500Y-21712500I-55000J0D01*
G01*
X4987500Y-21712500D02*
G75*
G02*
X5097500Y-21712500I55000J0D01*
G01*
D11*
X5463039Y-21803984D02*
X5348753Y-21803984D01*
X5405896Y-21803984D02*
X5405896Y-21603984D01*
X5405896Y-21603984D02*
X5386848Y-21632555D01*
X5386848Y-21632555D02*
X5367801Y-21651603D01*
X5367801Y-21651603D02*
X5348753Y-21661127D01*
X5548753Y-21784936D02*
X5558277Y-21794460D01*
X5558277Y-21794460D02*
X5548753Y-21803984D01*
X5548753Y-21803984D02*
X5539229Y-21794460D01*
X5539229Y-21794460D02*
X5548753Y-21784936D01*
X5548753Y-21784936D02*
X5548753Y-21803984D01*
X5748753Y-21803984D02*
X5634467Y-21803984D01*
X5691610Y-21803984D02*
X5691610Y-21603984D01*
X5691610Y-21603984D02*
X5672562Y-21632555D01*
X5672562Y-21632555D02*
X5653515Y-21651603D01*
X5653515Y-21651603D02*
X5634467Y-21661127D01*
X5872562Y-21603984D02*
X5891610Y-21603984D01*
X5891610Y-21603984D02*
X5910658Y-21613508D01*
X5910658Y-21613508D02*
X5920182Y-21623031D01*
X5920182Y-21623031D02*
X5929705Y-21642079D01*
X5929705Y-21642079D02*
X5939229Y-21680174D01*
X5939229Y-21680174D02*
X5939229Y-21727793D01*
X5939229Y-21727793D02*
X5929705Y-21765889D01*
X5929705Y-21765889D02*
X5920182Y-21784936D01*
X5920182Y-21784936D02*
X5910658Y-21794460D01*
X5910658Y-21794460D02*
X5891610Y-21803984D01*
X5891610Y-21803984D02*
X5872562Y-21803984D01*
X5872562Y-21803984D02*
X5853515Y-21794460D01*
X5853515Y-21794460D02*
X5843991Y-21784936D01*
X5843991Y-21784936D02*
X5834467Y-21765889D01*
X5834467Y-21765889D02*
X5824943Y-21727793D01*
X5824943Y-21727793D02*
X5824943Y-21680174D01*
X5824943Y-21680174D02*
X5834467Y-21642079D01*
X5834467Y-21642079D02*
X5843991Y-21623031D01*
X5843991Y-21623031D02*
X5853515Y-21613508D01*
X5853515Y-21613508D02*
X5872562Y-21603984D01*
X6063039Y-21603984D02*
X6082086Y-21603984D01*
X6082086Y-21603984D02*
X6101134Y-21613508D01*
X6101134Y-21613508D02*
X6110658Y-21623031D01*
X6110658Y-21623031D02*
X6120182Y-21642079D01*
X6120182Y-21642079D02*
X6129705Y-21680174D01*
X6129705Y-21680174D02*
X6129705Y-21727793D01*
X6129705Y-21727793D02*
X6120182Y-21765889D01*
X6120182Y-21765889D02*
X6110658Y-21784936D01*
X6110658Y-21784936D02*
X6101134Y-21794460D01*
X6101134Y-21794460D02*
X6082086Y-21803984D01*
X6082086Y-21803984D02*
X6063039Y-21803984D01*
X6063039Y-21803984D02*
X6043991Y-21794460D01*
X6043991Y-21794460D02*
X6034467Y-21784936D01*
X6034467Y-21784936D02*
X6024943Y-21765889D01*
X6024943Y-21765889D02*
X6015420Y-21727793D01*
X6015420Y-21727793D02*
X6015420Y-21680174D01*
X6015420Y-21680174D02*
X6024943Y-21642079D01*
X6024943Y-21642079D02*
X6034467Y-21623031D01*
X6034467Y-21623031D02*
X6043991Y-21613508D01*
X6043991Y-21613508D02*
X6063039Y-21603984D01*
X6215420Y-21803984D02*
X6215420Y-21670650D01*
X6215420Y-21689698D02*
X6224943Y-21680174D01*
X6224943Y-21680174D02*
X6243991Y-21670650D01*
X6243991Y-21670650D02*
X6272563Y-21670650D01*
X6272563Y-21670650D02*
X6291610Y-21680174D01*
X6291610Y-21680174D02*
X6301134Y-21699222D01*
X6301134Y-21699222D02*
X6301134Y-21803984D01*
X6301134Y-21699222D02*
X6310658Y-21680174D01*
X6310658Y-21680174D02*
X6329705Y-21670650D01*
X6329705Y-21670650D02*
X6358277Y-21670650D01*
X6358277Y-21670650D02*
X6377324Y-21680174D01*
X6377324Y-21680174D02*
X6386848Y-21699222D01*
X6386848Y-21699222D02*
X6386848Y-21803984D01*
X6482086Y-21803984D02*
X6482086Y-21670650D01*
X6482086Y-21689698D02*
X6491610Y-21680174D01*
X6491610Y-21680174D02*
X6510658Y-21670650D01*
X6510658Y-21670650D02*
X6539229Y-21670650D01*
X6539229Y-21670650D02*
X6558277Y-21680174D01*
X6558277Y-21680174D02*
X6567801Y-21699222D01*
X6567801Y-21699222D02*
X6567801Y-21803984D01*
X6567801Y-21699222D02*
X6577324Y-21680174D01*
X6577324Y-21680174D02*
X6596372Y-21670650D01*
X6596372Y-21670650D02*
X6624943Y-21670650D01*
X6624943Y-21670650D02*
X6643991Y-21680174D01*
X6643991Y-21680174D02*
X6653515Y-21699222D01*
X6653515Y-21699222D02*
X6653515Y-21803984D01*
X7043991Y-21594460D02*
X6872563Y-21851603D01*
X7301134Y-21603984D02*
X7320182Y-21603984D01*
X7320182Y-21603984D02*
X7339229Y-21613508D01*
X7339229Y-21613508D02*
X7348753Y-21623031D01*
X7348753Y-21623031D02*
X7358277Y-21642079D01*
X7358277Y-21642079D02*
X7367801Y-21680174D01*
X7367801Y-21680174D02*
X7367801Y-21727793D01*
X7367801Y-21727793D02*
X7358277Y-21765889D01*
X7358277Y-21765889D02*
X7348753Y-21784936D01*
X7348753Y-21784936D02*
X7339229Y-21794460D01*
X7339229Y-21794460D02*
X7320182Y-21803984D01*
X7320182Y-21803984D02*
X7301134Y-21803984D01*
X7301134Y-21803984D02*
X7282086Y-21794460D01*
X7282086Y-21794460D02*
X7272563Y-21784936D01*
X7272563Y-21784936D02*
X7263039Y-21765889D01*
X7263039Y-21765889D02*
X7253515Y-21727793D01*
X7253515Y-21727793D02*
X7253515Y-21680174D01*
X7253515Y-21680174D02*
X7263039Y-21642079D01*
X7263039Y-21642079D02*
X7272563Y-21623031D01*
X7272563Y-21623031D02*
X7282086Y-21613508D01*
X7282086Y-21613508D02*
X7301134Y-21603984D01*
X7453515Y-21784936D02*
X7463039Y-21794460D01*
X7463039Y-21794460D02*
X7453515Y-21803984D01*
X7453515Y-21803984D02*
X7443991Y-21794460D01*
X7443991Y-21794460D02*
X7453515Y-21784936D01*
X7453515Y-21784936D02*
X7453515Y-21803984D01*
X7586848Y-21603984D02*
X7605896Y-21603984D01*
X7605896Y-21603984D02*
X7624944Y-21613508D01*
X7624944Y-21613508D02*
X7634467Y-21623031D01*
X7634467Y-21623031D02*
X7643991Y-21642079D01*
X7643991Y-21642079D02*
X7653515Y-21680174D01*
X7653515Y-21680174D02*
X7653515Y-21727793D01*
X7653515Y-21727793D02*
X7643991Y-21765889D01*
X7643991Y-21765889D02*
X7634467Y-21784936D01*
X7634467Y-21784936D02*
X7624944Y-21794460D01*
X7624944Y-21794460D02*
X7605896Y-21803984D01*
X7605896Y-21803984D02*
X7586848Y-21803984D01*
X7586848Y-21803984D02*
X7567801Y-21794460D01*
X7567801Y-21794460D02*
X7558277Y-21784936D01*
X7558277Y-21784936D02*
X7548753Y-21765889D01*
X7548753Y-21765889D02*
X7539229Y-21727793D01*
X7539229Y-21727793D02*
X7539229Y-21680174D01*
X7539229Y-21680174D02*
X7548753Y-21642079D01*
X7548753Y-21642079D02*
X7558277Y-21623031D01*
X7558277Y-21623031D02*
X7567801Y-21613508D01*
X7567801Y-21613508D02*
X7586848Y-21603984D01*
X7824944Y-21670650D02*
X7824944Y-21803984D01*
X7777325Y-21594460D02*
X7729706Y-21737317D01*
X7729706Y-21737317D02*
X7853515Y-21737317D01*
X7910658Y-21603984D02*
X8034467Y-21603984D01*
X8034467Y-21603984D02*
X7967801Y-21680174D01*
X7967801Y-21680174D02*
X7996372Y-21680174D01*
X7996372Y-21680174D02*
X8015420Y-21689698D01*
X8015420Y-21689698D02*
X8024944Y-21699222D01*
X8024944Y-21699222D02*
X8034467Y-21718270D01*
X8034467Y-21718270D02*
X8034467Y-21765889D01*
X8034467Y-21765889D02*
X8024944Y-21784936D01*
X8024944Y-21784936D02*
X8015420Y-21794460D01*
X8015420Y-21794460D02*
X7996372Y-21803984D01*
X7996372Y-21803984D02*
X7939229Y-21803984D01*
X7939229Y-21803984D02*
X7920182Y-21794460D01*
X7920182Y-21794460D02*
X7910658Y-21784936D01*
X8101134Y-21603984D02*
X8224944Y-21603984D01*
X8224944Y-21603984D02*
X8158277Y-21680174D01*
X8158277Y-21680174D02*
X8186848Y-21680174D01*
X8186848Y-21680174D02*
X8205896Y-21689698D01*
X8205896Y-21689698D02*
X8215420Y-21699222D01*
X8215420Y-21699222D02*
X8224944Y-21718270D01*
X8224944Y-21718270D02*
X8224944Y-21765889D01*
X8224944Y-21765889D02*
X8215420Y-21784936D01*
X8215420Y-21784936D02*
X8205896Y-21794460D01*
X8205896Y-21794460D02*
X8186848Y-21803984D01*
X8186848Y-21803984D02*
X8129706Y-21803984D01*
X8129706Y-21803984D02*
X8110658Y-21794460D01*
X8110658Y-21794460D02*
X8101134Y-21784936D01*
X8301134Y-21603984D02*
X8301134Y-21642079D01*
X8377325Y-21603984D02*
X8377325Y-21642079D01*
X8672563Y-21880174D02*
X8663039Y-21870650D01*
X8663039Y-21870650D02*
X8643991Y-21842079D01*
X8643991Y-21842079D02*
X8634468Y-21823031D01*
X8634468Y-21823031D02*
X8624944Y-21794460D01*
X8624944Y-21794460D02*
X8615420Y-21746841D01*
X8615420Y-21746841D02*
X8615420Y-21708746D01*
X8615420Y-21708746D02*
X8624944Y-21661127D01*
X8624944Y-21661127D02*
X8634468Y-21632555D01*
X8634468Y-21632555D02*
X8643991Y-21613508D01*
X8643991Y-21613508D02*
X8663039Y-21584936D01*
X8663039Y-21584936D02*
X8672563Y-21575412D01*
X8834468Y-21603984D02*
X8796372Y-21603984D01*
X8796372Y-21603984D02*
X8777325Y-21613508D01*
X8777325Y-21613508D02*
X8767801Y-21623031D01*
X8767801Y-21623031D02*
X8748753Y-21651603D01*
X8748753Y-21651603D02*
X8739230Y-21689698D01*
X8739230Y-21689698D02*
X8739230Y-21765889D01*
X8739230Y-21765889D02*
X8748753Y-21784936D01*
X8748753Y-21784936D02*
X8758277Y-21794460D01*
X8758277Y-21794460D02*
X8777325Y-21803984D01*
X8777325Y-21803984D02*
X8815420Y-21803984D01*
X8815420Y-21803984D02*
X8834468Y-21794460D01*
X8834468Y-21794460D02*
X8843991Y-21784936D01*
X8843991Y-21784936D02*
X8853515Y-21765889D01*
X8853515Y-21765889D02*
X8853515Y-21718270D01*
X8853515Y-21718270D02*
X8843991Y-21699222D01*
X8843991Y-21699222D02*
X8834468Y-21689698D01*
X8834468Y-21689698D02*
X8815420Y-21680174D01*
X8815420Y-21680174D02*
X8777325Y-21680174D01*
X8777325Y-21680174D02*
X8758277Y-21689698D01*
X8758277Y-21689698D02*
X8748753Y-21699222D01*
X8748753Y-21699222D02*
X8739230Y-21718270D01*
X9091611Y-21803984D02*
X9091611Y-21603984D01*
X9177325Y-21803984D02*
X9177325Y-21699222D01*
X9177325Y-21699222D02*
X9167801Y-21680174D01*
X9167801Y-21680174D02*
X9148753Y-21670650D01*
X9148753Y-21670650D02*
X9120182Y-21670650D01*
X9120182Y-21670650D02*
X9101134Y-21680174D01*
X9101134Y-21680174D02*
X9091611Y-21689698D01*
X9301134Y-21803984D02*
X9282087Y-21794460D01*
X9282087Y-21794460D02*
X9272563Y-21784936D01*
X9272563Y-21784936D02*
X9263039Y-21765889D01*
X9263039Y-21765889D02*
X9263039Y-21708746D01*
X9263039Y-21708746D02*
X9272563Y-21689698D01*
X9272563Y-21689698D02*
X9282087Y-21680174D01*
X9282087Y-21680174D02*
X9301134Y-21670650D01*
X9301134Y-21670650D02*
X9329706Y-21670650D01*
X9329706Y-21670650D02*
X9348753Y-21680174D01*
X9348753Y-21680174D02*
X9358277Y-21689698D01*
X9358277Y-21689698D02*
X9367801Y-21708746D01*
X9367801Y-21708746D02*
X9367801Y-21765889D01*
X9367801Y-21765889D02*
X9358277Y-21784936D01*
X9358277Y-21784936D02*
X9348753Y-21794460D01*
X9348753Y-21794460D02*
X9329706Y-21803984D01*
X9329706Y-21803984D02*
X9301134Y-21803984D01*
X9482087Y-21803984D02*
X9463039Y-21794460D01*
X9463039Y-21794460D02*
X9453515Y-21775412D01*
X9453515Y-21775412D02*
X9453515Y-21603984D01*
X9634468Y-21794460D02*
X9615420Y-21803984D01*
X9615420Y-21803984D02*
X9577325Y-21803984D01*
X9577325Y-21803984D02*
X9558277Y-21794460D01*
X9558277Y-21794460D02*
X9548753Y-21775412D01*
X9548753Y-21775412D02*
X9548753Y-21699222D01*
X9548753Y-21699222D02*
X9558277Y-21680174D01*
X9558277Y-21680174D02*
X9577325Y-21670650D01*
X9577325Y-21670650D02*
X9615420Y-21670650D01*
X9615420Y-21670650D02*
X9634468Y-21680174D01*
X9634468Y-21680174D02*
X9643992Y-21699222D01*
X9643992Y-21699222D02*
X9643992Y-21718270D01*
X9643992Y-21718270D02*
X9548753Y-21737317D01*
X9720182Y-21794460D02*
X9739230Y-21803984D01*
X9739230Y-21803984D02*
X9777325Y-21803984D01*
X9777325Y-21803984D02*
X9796373Y-21794460D01*
X9796373Y-21794460D02*
X9805896Y-21775412D01*
X9805896Y-21775412D02*
X9805896Y-21765889D01*
X9805896Y-21765889D02*
X9796373Y-21746841D01*
X9796373Y-21746841D02*
X9777325Y-21737317D01*
X9777325Y-21737317D02*
X9748753Y-21737317D01*
X9748753Y-21737317D02*
X9729706Y-21727793D01*
X9729706Y-21727793D02*
X9720182Y-21708746D01*
X9720182Y-21708746D02*
X9720182Y-21699222D01*
X9720182Y-21699222D02*
X9729706Y-21680174D01*
X9729706Y-21680174D02*
X9748753Y-21670650D01*
X9748753Y-21670650D02*
X9777325Y-21670650D01*
X9777325Y-21670650D02*
X9796373Y-21680174D01*
X10043992Y-21727793D02*
X10196373Y-21727793D01*
X10120182Y-21803984D02*
X10120182Y-21651603D01*
X10548754Y-21803984D02*
X10434468Y-21803984D01*
X10491611Y-21803984D02*
X10491611Y-21603984D01*
X10491611Y-21603984D02*
X10472563Y-21632555D01*
X10472563Y-21632555D02*
X10453515Y-21651603D01*
X10453515Y-21651603D02*
X10434468Y-21661127D01*
X10624944Y-21623031D02*
X10634468Y-21613508D01*
X10634468Y-21613508D02*
X10653515Y-21603984D01*
X10653515Y-21603984D02*
X10701135Y-21603984D01*
X10701135Y-21603984D02*
X10720182Y-21613508D01*
X10720182Y-21613508D02*
X10729706Y-21623031D01*
X10729706Y-21623031D02*
X10739230Y-21642079D01*
X10739230Y-21642079D02*
X10739230Y-21661127D01*
X10739230Y-21661127D02*
X10729706Y-21689698D01*
X10729706Y-21689698D02*
X10615420Y-21803984D01*
X10615420Y-21803984D02*
X10739230Y-21803984D01*
X10967801Y-21794460D02*
X10986849Y-21803984D01*
X10986849Y-21803984D02*
X11024944Y-21803984D01*
X11024944Y-21803984D02*
X11043992Y-21794460D01*
X11043992Y-21794460D02*
X11053516Y-21775412D01*
X11053516Y-21775412D02*
X11053516Y-21765889D01*
X11053516Y-21765889D02*
X11043992Y-21746841D01*
X11043992Y-21746841D02*
X11024944Y-21737317D01*
X11024944Y-21737317D02*
X10996373Y-21737317D01*
X10996373Y-21737317D02*
X10977325Y-21727793D01*
X10977325Y-21727793D02*
X10967801Y-21708746D01*
X10967801Y-21708746D02*
X10967801Y-21699222D01*
X10967801Y-21699222D02*
X10977325Y-21680174D01*
X10977325Y-21680174D02*
X10996373Y-21670650D01*
X10996373Y-21670650D02*
X11024944Y-21670650D01*
X11024944Y-21670650D02*
X11043992Y-21680174D01*
X11167801Y-21803984D02*
X11148754Y-21794460D01*
X11148754Y-21794460D02*
X11139230Y-21775412D01*
X11139230Y-21775412D02*
X11139230Y-21603984D01*
X11272563Y-21803984D02*
X11253515Y-21794460D01*
X11253515Y-21794460D02*
X11243992Y-21784936D01*
X11243992Y-21784936D02*
X11234468Y-21765889D01*
X11234468Y-21765889D02*
X11234468Y-21708746D01*
X11234468Y-21708746D02*
X11243992Y-21689698D01*
X11243992Y-21689698D02*
X11253515Y-21680174D01*
X11253515Y-21680174D02*
X11272563Y-21670650D01*
X11272563Y-21670650D02*
X11301135Y-21670650D01*
X11301135Y-21670650D02*
X11320182Y-21680174D01*
X11320182Y-21680174D02*
X11329706Y-21689698D01*
X11329706Y-21689698D02*
X11339230Y-21708746D01*
X11339230Y-21708746D02*
X11339230Y-21765889D01*
X11339230Y-21765889D02*
X11329706Y-21784936D01*
X11329706Y-21784936D02*
X11320182Y-21794460D01*
X11320182Y-21794460D02*
X11301135Y-21803984D01*
X11301135Y-21803984D02*
X11272563Y-21803984D01*
X11396373Y-21670650D02*
X11472563Y-21670650D01*
X11424944Y-21603984D02*
X11424944Y-21775412D01*
X11424944Y-21775412D02*
X11434468Y-21794460D01*
X11434468Y-21794460D02*
X11453515Y-21803984D01*
X11453515Y-21803984D02*
X11472563Y-21803984D01*
X11529706Y-21794460D02*
X11548754Y-21803984D01*
X11548754Y-21803984D02*
X11586849Y-21803984D01*
X11586849Y-21803984D02*
X11605896Y-21794460D01*
X11605896Y-21794460D02*
X11615420Y-21775412D01*
X11615420Y-21775412D02*
X11615420Y-21765889D01*
X11615420Y-21765889D02*
X11605896Y-21746841D01*
X11605896Y-21746841D02*
X11586849Y-21737317D01*
X11586849Y-21737317D02*
X11558277Y-21737317D01*
X11558277Y-21737317D02*
X11539230Y-21727793D01*
X11539230Y-21727793D02*
X11529706Y-21708746D01*
X11529706Y-21708746D02*
X11529706Y-21699222D01*
X11529706Y-21699222D02*
X11539230Y-21680174D01*
X11539230Y-21680174D02*
X11558277Y-21670650D01*
X11558277Y-21670650D02*
X11586849Y-21670650D01*
X11586849Y-21670650D02*
X11605896Y-21680174D01*
X11682087Y-21880174D02*
X11691611Y-21870650D01*
X11691611Y-21870650D02*
X11710658Y-21842079D01*
X11710658Y-21842079D02*
X11720182Y-21823031D01*
X11720182Y-21823031D02*
X11729706Y-21794460D01*
X11729706Y-21794460D02*
X11739230Y-21746841D01*
X11739230Y-21746841D02*
X11739230Y-21708746D01*
X11739230Y-21708746D02*
X11729706Y-21661127D01*
X11729706Y-21661127D02*
X11720182Y-21632555D01*
X11720182Y-21632555D02*
X11710658Y-21613508D01*
X11710658Y-21613508D02*
X11691611Y-21584936D01*
X11691611Y-21584936D02*
X11682087Y-21575412D01*
D14*
X4947500Y-21901500D02*
X5097500Y-22051500D01*
X5097500Y-21901500D02*
X4947500Y-22051500D01*
X5022500Y-21901500D02*
X5022500Y-22051500D01*
X4947500Y-21976500D02*
X5097500Y-21976500D01*
D11*
X5463039Y-22067984D02*
X5348753Y-22067984D01*
X5405896Y-22067984D02*
X5405896Y-21867984D01*
X5405896Y-21867984D02*
X5386848Y-21896555D01*
X5386848Y-21896555D02*
X5367801Y-21915603D01*
X5367801Y-21915603D02*
X5348753Y-21925127D01*
X5548753Y-22048936D02*
X5558277Y-22058460D01*
X5558277Y-22058460D02*
X5548753Y-22067984D01*
X5548753Y-22067984D02*
X5539229Y-22058460D01*
X5539229Y-22058460D02*
X5548753Y-22048936D01*
X5548753Y-22048936D02*
X5548753Y-22067984D01*
X5739229Y-21867984D02*
X5643991Y-21867984D01*
X5643991Y-21867984D02*
X5634467Y-21963222D01*
X5634467Y-21963222D02*
X5643991Y-21953698D01*
X5643991Y-21953698D02*
X5663039Y-21944174D01*
X5663039Y-21944174D02*
X5710658Y-21944174D01*
X5710658Y-21944174D02*
X5729705Y-21953698D01*
X5729705Y-21953698D02*
X5739229Y-21963222D01*
X5739229Y-21963222D02*
X5748753Y-21982270D01*
X5748753Y-21982270D02*
X5748753Y-22029889D01*
X5748753Y-22029889D02*
X5739229Y-22048936D01*
X5739229Y-22048936D02*
X5729705Y-22058460D01*
X5729705Y-22058460D02*
X5710658Y-22067984D01*
X5710658Y-22067984D02*
X5663039Y-22067984D01*
X5663039Y-22067984D02*
X5643991Y-22058460D01*
X5643991Y-22058460D02*
X5634467Y-22048936D01*
X5872562Y-21867984D02*
X5891610Y-21867984D01*
X5891610Y-21867984D02*
X5910658Y-21877508D01*
X5910658Y-21877508D02*
X5920182Y-21887031D01*
X5920182Y-21887031D02*
X5929705Y-21906079D01*
X5929705Y-21906079D02*
X5939229Y-21944174D01*
X5939229Y-21944174D02*
X5939229Y-21991793D01*
X5939229Y-21991793D02*
X5929705Y-22029889D01*
X5929705Y-22029889D02*
X5920182Y-22048936D01*
X5920182Y-22048936D02*
X5910658Y-22058460D01*
X5910658Y-22058460D02*
X5891610Y-22067984D01*
X5891610Y-22067984D02*
X5872562Y-22067984D01*
X5872562Y-22067984D02*
X5853515Y-22058460D01*
X5853515Y-22058460D02*
X5843991Y-22048936D01*
X5843991Y-22048936D02*
X5834467Y-22029889D01*
X5834467Y-22029889D02*
X5824943Y-21991793D01*
X5824943Y-21991793D02*
X5824943Y-21944174D01*
X5824943Y-21944174D02*
X5834467Y-21906079D01*
X5834467Y-21906079D02*
X5843991Y-21887031D01*
X5843991Y-21887031D02*
X5853515Y-21877508D01*
X5853515Y-21877508D02*
X5872562Y-21867984D01*
X6063039Y-21867984D02*
X6082086Y-21867984D01*
X6082086Y-21867984D02*
X6101134Y-21877508D01*
X6101134Y-21877508D02*
X6110658Y-21887031D01*
X6110658Y-21887031D02*
X6120182Y-21906079D01*
X6120182Y-21906079D02*
X6129705Y-21944174D01*
X6129705Y-21944174D02*
X6129705Y-21991793D01*
X6129705Y-21991793D02*
X6120182Y-22029889D01*
X6120182Y-22029889D02*
X6110658Y-22048936D01*
X6110658Y-22048936D02*
X6101134Y-22058460D01*
X6101134Y-22058460D02*
X6082086Y-22067984D01*
X6082086Y-22067984D02*
X6063039Y-22067984D01*
X6063039Y-22067984D02*
X6043991Y-22058460D01*
X6043991Y-22058460D02*
X6034467Y-22048936D01*
X6034467Y-22048936D02*
X6024943Y-22029889D01*
X6024943Y-22029889D02*
X6015420Y-21991793D01*
X6015420Y-21991793D02*
X6015420Y-21944174D01*
X6015420Y-21944174D02*
X6024943Y-21906079D01*
X6024943Y-21906079D02*
X6034467Y-21887031D01*
X6034467Y-21887031D02*
X6043991Y-21877508D01*
X6043991Y-21877508D02*
X6063039Y-21867984D01*
X6215420Y-22067984D02*
X6215420Y-21934650D01*
X6215420Y-21953698D02*
X6224943Y-21944174D01*
X6224943Y-21944174D02*
X6243991Y-21934650D01*
X6243991Y-21934650D02*
X6272563Y-21934650D01*
X6272563Y-21934650D02*
X6291610Y-21944174D01*
X6291610Y-21944174D02*
X6301134Y-21963222D01*
X6301134Y-21963222D02*
X6301134Y-22067984D01*
X6301134Y-21963222D02*
X6310658Y-21944174D01*
X6310658Y-21944174D02*
X6329705Y-21934650D01*
X6329705Y-21934650D02*
X6358277Y-21934650D01*
X6358277Y-21934650D02*
X6377324Y-21944174D01*
X6377324Y-21944174D02*
X6386848Y-21963222D01*
X6386848Y-21963222D02*
X6386848Y-22067984D01*
X6482086Y-22067984D02*
X6482086Y-21934650D01*
X6482086Y-21953698D02*
X6491610Y-21944174D01*
X6491610Y-21944174D02*
X6510658Y-21934650D01*
X6510658Y-21934650D02*
X6539229Y-21934650D01*
X6539229Y-21934650D02*
X6558277Y-21944174D01*
X6558277Y-21944174D02*
X6567801Y-21963222D01*
X6567801Y-21963222D02*
X6567801Y-22067984D01*
X6567801Y-21963222D02*
X6577324Y-21944174D01*
X6577324Y-21944174D02*
X6596372Y-21934650D01*
X6596372Y-21934650D02*
X6624943Y-21934650D01*
X6624943Y-21934650D02*
X6643991Y-21944174D01*
X6643991Y-21944174D02*
X6653515Y-21963222D01*
X6653515Y-21963222D02*
X6653515Y-22067984D01*
X7043991Y-21858460D02*
X6872563Y-22115603D01*
X7301134Y-21867984D02*
X7320182Y-21867984D01*
X7320182Y-21867984D02*
X7339229Y-21877508D01*
X7339229Y-21877508D02*
X7348753Y-21887031D01*
X7348753Y-21887031D02*
X7358277Y-21906079D01*
X7358277Y-21906079D02*
X7367801Y-21944174D01*
X7367801Y-21944174D02*
X7367801Y-21991793D01*
X7367801Y-21991793D02*
X7358277Y-22029889D01*
X7358277Y-22029889D02*
X7348753Y-22048936D01*
X7348753Y-22048936D02*
X7339229Y-22058460D01*
X7339229Y-22058460D02*
X7320182Y-22067984D01*
X7320182Y-22067984D02*
X7301134Y-22067984D01*
X7301134Y-22067984D02*
X7282086Y-22058460D01*
X7282086Y-22058460D02*
X7272563Y-22048936D01*
X7272563Y-22048936D02*
X7263039Y-22029889D01*
X7263039Y-22029889D02*
X7253515Y-21991793D01*
X7253515Y-21991793D02*
X7253515Y-21944174D01*
X7253515Y-21944174D02*
X7263039Y-21906079D01*
X7263039Y-21906079D02*
X7272563Y-21887031D01*
X7272563Y-21887031D02*
X7282086Y-21877508D01*
X7282086Y-21877508D02*
X7301134Y-21867984D01*
X7453515Y-22048936D02*
X7463039Y-22058460D01*
X7463039Y-22058460D02*
X7453515Y-22067984D01*
X7453515Y-22067984D02*
X7443991Y-22058460D01*
X7443991Y-22058460D02*
X7453515Y-22048936D01*
X7453515Y-22048936D02*
X7453515Y-22067984D01*
X7586848Y-21867984D02*
X7605896Y-21867984D01*
X7605896Y-21867984D02*
X7624944Y-21877508D01*
X7624944Y-21877508D02*
X7634467Y-21887031D01*
X7634467Y-21887031D02*
X7643991Y-21906079D01*
X7643991Y-21906079D02*
X7653515Y-21944174D01*
X7653515Y-21944174D02*
X7653515Y-21991793D01*
X7653515Y-21991793D02*
X7643991Y-22029889D01*
X7643991Y-22029889D02*
X7634467Y-22048936D01*
X7634467Y-22048936D02*
X7624944Y-22058460D01*
X7624944Y-22058460D02*
X7605896Y-22067984D01*
X7605896Y-22067984D02*
X7586848Y-22067984D01*
X7586848Y-22067984D02*
X7567801Y-22058460D01*
X7567801Y-22058460D02*
X7558277Y-22048936D01*
X7558277Y-22048936D02*
X7548753Y-22029889D01*
X7548753Y-22029889D02*
X7539229Y-21991793D01*
X7539229Y-21991793D02*
X7539229Y-21944174D01*
X7539229Y-21944174D02*
X7548753Y-21906079D01*
X7548753Y-21906079D02*
X7558277Y-21887031D01*
X7558277Y-21887031D02*
X7567801Y-21877508D01*
X7567801Y-21877508D02*
X7586848Y-21867984D01*
X7834467Y-21867984D02*
X7739229Y-21867984D01*
X7739229Y-21867984D02*
X7729706Y-21963222D01*
X7729706Y-21963222D02*
X7739229Y-21953698D01*
X7739229Y-21953698D02*
X7758277Y-21944174D01*
X7758277Y-21944174D02*
X7805896Y-21944174D01*
X7805896Y-21944174D02*
X7824944Y-21953698D01*
X7824944Y-21953698D02*
X7834467Y-21963222D01*
X7834467Y-21963222D02*
X7843991Y-21982270D01*
X7843991Y-21982270D02*
X7843991Y-22029889D01*
X7843991Y-22029889D02*
X7834467Y-22048936D01*
X7834467Y-22048936D02*
X7824944Y-22058460D01*
X7824944Y-22058460D02*
X7805896Y-22067984D01*
X7805896Y-22067984D02*
X7758277Y-22067984D01*
X7758277Y-22067984D02*
X7739229Y-22058460D01*
X7739229Y-22058460D02*
X7729706Y-22048936D01*
X7939229Y-22067984D02*
X7977325Y-22067984D01*
X7977325Y-22067984D02*
X7996372Y-22058460D01*
X7996372Y-22058460D02*
X8005896Y-22048936D01*
X8005896Y-22048936D02*
X8024944Y-22020365D01*
X8024944Y-22020365D02*
X8034467Y-21982270D01*
X8034467Y-21982270D02*
X8034467Y-21906079D01*
X8034467Y-21906079D02*
X8024944Y-21887031D01*
X8024944Y-21887031D02*
X8015420Y-21877508D01*
X8015420Y-21877508D02*
X7996372Y-21867984D01*
X7996372Y-21867984D02*
X7958277Y-21867984D01*
X7958277Y-21867984D02*
X7939229Y-21877508D01*
X7939229Y-21877508D02*
X7929706Y-21887031D01*
X7929706Y-21887031D02*
X7920182Y-21906079D01*
X7920182Y-21906079D02*
X7920182Y-21953698D01*
X7920182Y-21953698D02*
X7929706Y-21972746D01*
X7929706Y-21972746D02*
X7939229Y-21982270D01*
X7939229Y-21982270D02*
X7958277Y-21991793D01*
X7958277Y-21991793D02*
X7996372Y-21991793D01*
X7996372Y-21991793D02*
X8015420Y-21982270D01*
X8015420Y-21982270D02*
X8024944Y-21972746D01*
X8024944Y-21972746D02*
X8034467Y-21953698D01*
X8224944Y-22067984D02*
X8110658Y-22067984D01*
X8167801Y-22067984D02*
X8167801Y-21867984D01*
X8167801Y-21867984D02*
X8148753Y-21896555D01*
X8148753Y-21896555D02*
X8129706Y-21915603D01*
X8129706Y-21915603D02*
X8110658Y-21925127D01*
X8301134Y-21867984D02*
X8301134Y-21906079D01*
X8377325Y-21867984D02*
X8377325Y-21906079D01*
X8672563Y-22144174D02*
X8663039Y-22134650D01*
X8663039Y-22134650D02*
X8643991Y-22106079D01*
X8643991Y-22106079D02*
X8634468Y-22087031D01*
X8634468Y-22087031D02*
X8624944Y-22058460D01*
X8624944Y-22058460D02*
X8615420Y-22010841D01*
X8615420Y-22010841D02*
X8615420Y-21972746D01*
X8615420Y-21972746D02*
X8624944Y-21925127D01*
X8624944Y-21925127D02*
X8634468Y-21896555D01*
X8634468Y-21896555D02*
X8643991Y-21877508D01*
X8643991Y-21877508D02*
X8663039Y-21848936D01*
X8663039Y-21848936D02*
X8672563Y-21839412D01*
X8758277Y-22067984D02*
X8796372Y-22067984D01*
X8796372Y-22067984D02*
X8815420Y-22058460D01*
X8815420Y-22058460D02*
X8824944Y-22048936D01*
X8824944Y-22048936D02*
X8843991Y-22020365D01*
X8843991Y-22020365D02*
X8853515Y-21982270D01*
X8853515Y-21982270D02*
X8853515Y-21906079D01*
X8853515Y-21906079D02*
X8843991Y-21887031D01*
X8843991Y-21887031D02*
X8834468Y-21877508D01*
X8834468Y-21877508D02*
X8815420Y-21867984D01*
X8815420Y-21867984D02*
X8777325Y-21867984D01*
X8777325Y-21867984D02*
X8758277Y-21877508D01*
X8758277Y-21877508D02*
X8748753Y-21887031D01*
X8748753Y-21887031D02*
X8739230Y-21906079D01*
X8739230Y-21906079D02*
X8739230Y-21953698D01*
X8739230Y-21953698D02*
X8748753Y-21972746D01*
X8748753Y-21972746D02*
X8758277Y-21982270D01*
X8758277Y-21982270D02*
X8777325Y-21991793D01*
X8777325Y-21991793D02*
X8815420Y-21991793D01*
X8815420Y-21991793D02*
X8834468Y-21982270D01*
X8834468Y-21982270D02*
X8843991Y-21972746D01*
X8843991Y-21972746D02*
X8853515Y-21953698D01*
X9091611Y-22067984D02*
X9091611Y-21867984D01*
X9177325Y-22067984D02*
X9177325Y-21963222D01*
X9177325Y-21963222D02*
X9167801Y-21944174D01*
X9167801Y-21944174D02*
X9148753Y-21934650D01*
X9148753Y-21934650D02*
X9120182Y-21934650D01*
X9120182Y-21934650D02*
X9101134Y-21944174D01*
X9101134Y-21944174D02*
X9091611Y-21953698D01*
X9301134Y-22067984D02*
X9282087Y-22058460D01*
X9282087Y-22058460D02*
X9272563Y-22048936D01*
X9272563Y-22048936D02*
X9263039Y-22029889D01*
X9263039Y-22029889D02*
X9263039Y-21972746D01*
X9263039Y-21972746D02*
X9272563Y-21953698D01*
X9272563Y-21953698D02*
X9282087Y-21944174D01*
X9282087Y-21944174D02*
X9301134Y-21934650D01*
X9301134Y-21934650D02*
X9329706Y-21934650D01*
X9329706Y-21934650D02*
X9348753Y-21944174D01*
X9348753Y-21944174D02*
X9358277Y-21953698D01*
X9358277Y-21953698D02*
X9367801Y-21972746D01*
X9367801Y-21972746D02*
X9367801Y-22029889D01*
X9367801Y-22029889D02*
X9358277Y-22048936D01*
X9358277Y-22048936D02*
X9348753Y-22058460D01*
X9348753Y-22058460D02*
X9329706Y-22067984D01*
X9329706Y-22067984D02*
X9301134Y-22067984D01*
X9482087Y-22067984D02*
X9463039Y-22058460D01*
X9463039Y-22058460D02*
X9453515Y-22039412D01*
X9453515Y-22039412D02*
X9453515Y-21867984D01*
X9634468Y-22058460D02*
X9615420Y-22067984D01*
X9615420Y-22067984D02*
X9577325Y-22067984D01*
X9577325Y-22067984D02*
X9558277Y-22058460D01*
X9558277Y-22058460D02*
X9548753Y-22039412D01*
X9548753Y-22039412D02*
X9548753Y-21963222D01*
X9548753Y-21963222D02*
X9558277Y-21944174D01*
X9558277Y-21944174D02*
X9577325Y-21934650D01*
X9577325Y-21934650D02*
X9615420Y-21934650D01*
X9615420Y-21934650D02*
X9634468Y-21944174D01*
X9634468Y-21944174D02*
X9643992Y-21963222D01*
X9643992Y-21963222D02*
X9643992Y-21982270D01*
X9643992Y-21982270D02*
X9548753Y-22001317D01*
X9720182Y-22058460D02*
X9739230Y-22067984D01*
X9739230Y-22067984D02*
X9777325Y-22067984D01*
X9777325Y-22067984D02*
X9796373Y-22058460D01*
X9796373Y-22058460D02*
X9805896Y-22039412D01*
X9805896Y-22039412D02*
X9805896Y-22029889D01*
X9805896Y-22029889D02*
X9796373Y-22010841D01*
X9796373Y-22010841D02*
X9777325Y-22001317D01*
X9777325Y-22001317D02*
X9748753Y-22001317D01*
X9748753Y-22001317D02*
X9729706Y-21991793D01*
X9729706Y-21991793D02*
X9720182Y-21972746D01*
X9720182Y-21972746D02*
X9720182Y-21963222D01*
X9720182Y-21963222D02*
X9729706Y-21944174D01*
X9729706Y-21944174D02*
X9748753Y-21934650D01*
X9748753Y-21934650D02*
X9777325Y-21934650D01*
X9777325Y-21934650D02*
X9796373Y-21944174D01*
X9872563Y-22144174D02*
X9882087Y-22134650D01*
X9882087Y-22134650D02*
X9901134Y-22106079D01*
X9901134Y-22106079D02*
X9910658Y-22087031D01*
X9910658Y-22087031D02*
X9920182Y-22058460D01*
X9920182Y-22058460D02*
X9929706Y-22010841D01*
X9929706Y-22010841D02*
X9929706Y-21972746D01*
X9929706Y-21972746D02*
X9920182Y-21925127D01*
X9920182Y-21925127D02*
X9910658Y-21896555D01*
X9910658Y-21896555D02*
X9901134Y-21877508D01*
X9901134Y-21877508D02*
X9882087Y-21848936D01*
X9882087Y-21848936D02*
X9872563Y-21839412D01*
M02*
